<?xml version="1.0" encoding="utf-8" standalone="no"?>
<!DOCTYPE svg PUBLIC "-//W3C//DTD SVG 1.1//EN"
  "http://www.w3.org/Graphics/SVG/1.1/DTD/svg11.dtd">
<svg xmlns:xlink="http://www.w3.org/1999/xlink" width="458.385pt" height="356.471625pt" viewBox="0 0 458.385 356.471625" xmlns="http://www.w3.org/2000/svg" version="1.1">
 <metadata>
  <rdf:RDF xmlns:dc="http://purl.org/dc/elements/1.1/" xmlns:cc="http://creativecommons.org/ns#" xmlns:rdf="http://www.w3.org/1999/02/22-rdf-syntax-ns#">
   <cc:Work>
    <dc:type rdf:resource="http://purl.org/dc/dcmitype/StillImage"/>
    <dc:date>2026-06-23T16:02:23.150784</dc:date>
    <dc:format>image/svg+xml</dc:format>
    <dc:creator>
     <cc:Agent>
      <dc:title>Matplotlib v3.9.4, https://matplotlib.org/</dc:title>
     </cc:Agent>
    </dc:creator>
   </cc:Work>
  </rdf:RDF>
 </metadata>
 <defs>
  <style type="text/css">*{stroke-linejoin: round; stroke-linecap: butt}</style>
 </defs>
 <g id="figure_1">
  <g id="patch_1">
   <path d="M 0 356.471625 
L 458.385 356.471625 
L 458.385 0 
L 0 0 
z
" style="fill: #ffffff"/>
  </g>
  <g id="axes_1">
   <g id="patch_2">
    <path d="M 38.265 320.771625 
L 451.185 320.771625 
L 451.185 21.395625 
L 38.265 21.395625 
z
" style="fill: #ffffff"/>
   </g>
   <g id="PolyCollection_1">
    <defs>
     <path id="m970592e00e" d="M 38.265 -335.076 
L 38.265 -297.806743 
L 39.299887 -296.041047 
L 40.334774 -294.284223 
L 41.369662 -292.536272 
L 42.404549 -290.797195 
L 43.439436 -289.06699 
L 44.474323 -287.345658 
L 45.509211 -285.633198 
L 46.544098 -283.929612 
L 47.578985 -282.234898 
L 48.613872 -280.549058 
L 49.648759 -278.87209 
L 50.683647 -277.203995 
L 51.718534 -275.544772 
L 52.753421 -273.894423 
L 53.788308 -272.252947 
L 54.823195 -270.620343 
L 55.858083 -268.996612 
L 56.89297 -267.381754 
L 57.927857 -265.775769 
L 58.962744 -264.178657 
L 59.997632 -262.590417 
L 61.032519 -261.011051 
L 62.067406 -259.440557 
L 63.102293 -257.878936 
L 64.13718 -256.326188 
L 65.172068 -254.782313 
L 66.206955 -253.247311 
L 67.241842 -251.721181 
L 68.276729 -250.203925 
L 69.311617 -248.695541 
L 70.346504 -247.19603 
L 71.381391 -245.705392 
L 72.416278 -244.223626 
L 73.451165 -242.750734 
L 74.486053 -241.286714 
L 75.52094 -239.831568 
L 76.555827 -238.385294 
L 77.590714 -236.947893 
L 78.625602 -235.519365 
L 79.660489 -234.099709 
L 80.695376 -232.688927 
L 81.730263 -231.287017 
L 82.76515 -229.89398 
L 83.800038 -228.509816 
L 84.834925 -227.134525 
L 85.869812 -225.768107 
L 86.904699 -224.410561 
L 87.939586 -223.061889 
L 88.974474 -221.722089 
L 90.009361 -220.391162 
L 91.044248 -219.069108 
L 92.079135 -217.755927 
L 93.114023 -216.451619 
L 94.14891 -215.156183 
L 95.183797 -213.86962 
L 96.218684 -212.591931 
L 97.253571 -211.323114 
L 98.288459 -210.06317 
L 99.323346 -208.812098 
L 100.358233 -207.5699 
L 101.39312 -206.336574 
L 102.428008 -205.112122 
L 103.462895 -203.896542 
L 104.497782 -202.689835 
L 105.532669 -201.492 
L 106.567556 -200.303039 
L 107.602444 -199.122951 
L 108.637331 -197.951735 
L 109.672218 -196.789392 
L 110.707105 -195.635922 
L 111.741992 -194.491325 
L 112.77688 -193.355601 
L 113.811767 -192.228749 
L 114.846654 -191.110771 
L 115.881541 -190.001665 
L 116.916429 -188.901432 
L 117.951316 -187.810072 
L 118.986203 -186.727585 
L 120.02109 -185.65397 
L 121.055977 -184.589229 
L 122.090865 -183.53336 
L 123.125752 -182.486364 
L 124.160639 -181.448241 
L 125.195526 -180.418991 
L 126.230414 -179.398614 
L 127.265301 -178.38711 
L 128.300188 -177.384478 
L 129.335075 -176.390719 
L 130.369962 -175.405833 
L 131.40485 -174.42982 
L 132.439737 -173.46268 
L 133.474624 -172.504413 
L 134.509511 -171.555018 
L 135.544398 -170.614497 
L 136.579286 -169.682848 
L 137.614173 -168.760072 
L 138.64906 -167.846169 
L 139.683947 -166.941138 
L 140.718835 -166.044981 
L 141.753722 -165.157696 
L 142.788609 -164.279285 
L 143.823496 -163.409746 
L 144.858383 -162.54908 
L 145.893271 -161.697286 
L 146.928158 -160.854366 
L 147.963045 -160.020319 
L 148.997932 -159.195144 
L 150.03282 -158.378842 
L 151.067707 -157.571413 
L 152.102594 -156.772857 
L 153.137481 -155.983174 
L 154.172368 -155.202363 
L 155.207256 -154.430426 
L 156.242143 -153.667361 
L 157.27703 -152.913169 
L 158.311917 -152.16785 
L 159.346805 -151.431404 
L 160.381692 -150.70383 
L 161.416579 -149.98513 
L 162.451466 -149.275302 
L 163.486353 -148.574347 
L 164.521241 -147.882265 
L 165.556128 -147.199056 
L 166.591015 -146.52472 
L 167.625902 -145.859257 
L 168.660789 -145.202666 
L 169.695677 -144.554948 
L 170.730564 -143.916103 
L 171.765451 -143.286131 
L 172.800338 -142.665032 
L 173.835226 -142.052806 
L 174.870113 -141.449452 
L 175.905 -140.854971 
L 176.939887 -140.269364 
L 177.974774 -139.692629 
L 179.009662 -139.124766 
L 180.044549 -138.565777 
L 181.079436 -138.015661 
L 182.114323 -137.474417 
L 183.149211 -136.942046 
L 184.184098 -136.418548 
L 185.218985 -135.903923 
L 186.253872 -135.398171 
L 187.288759 -134.901292 
L 188.323647 -134.413285 
L 189.358534 -133.934152 
L 190.393421 -133.463891 
L 191.428308 -133.002503 
L 192.463195 -132.549988 
L 193.498083 -132.106345 
L 194.53297 -131.671576 
L 195.567857 -131.245679 
L 196.602744 -130.828656 
L 197.637632 -130.420505 
L 198.672519 -130.021227 
L 199.707406 -129.630821 
L 200.742293 -129.249289 
L 201.77718 -128.876629 
L 202.812068 -128.512843 
L 203.846955 -128.157929 
L 204.881842 -127.811888 
L 205.916729 -127.47472 
L 206.951617 -127.146424 
L 207.986504 -126.827002 
L 209.021391 -126.516452 
L 210.056278 -126.214776 
L 211.091165 -125.921972 
L 212.126053 -125.638041 
L 213.16094 -125.362982 
L 214.195827 -125.096797 
L 215.230714 -124.839485 
L 216.265602 -124.591045 
L 217.300489 -124.351478 
L 218.335376 -124.120784 
L 219.370263 -123.898963 
L 220.40515 -123.686015 
L 221.440038 -123.481939 
L 222.474925 -123.286737 
L 223.509812 -123.100407 
L 224.544699 -122.92295 
L 225.579586 -122.754366 
L 226.614474 -122.594655 
L 227.649361 -122.443816 
L 228.684248 -122.301851 
L 229.719135 -122.168758 
L 230.754023 -122.044538 
L 231.78891 -121.929191 
L 232.823797 -121.822717 
L 233.858684 -121.725116 
L 234.893571 -121.636387 
L 235.928459 -121.556532 
L 236.963346 -121.485549 
L 237.998233 -121.423439 
L 239.03312 -121.370202 
L 240.068008 -121.325838 
L 241.102895 -121.290346 
L 242.137782 -121.263728 
L 243.172669 -121.245982 
L 244.207556 -121.237109 
L 245.242444 -121.237109 
L 246.277331 -121.245982 
L 247.312218 -121.263728 
L 248.347105 -121.290346 
L 249.381992 -121.325838 
L 250.41688 -121.370202 
L 251.451767 -121.423439 
L 252.486654 -121.485549 
L 253.521541 -121.556532 
L 254.556429 -121.636387 
L 255.591316 -121.725116 
L 256.626203 -121.822717 
L 257.66109 -121.929191 
L 258.695977 -122.044538 
L 259.730865 -122.168758 
L 260.765752 -122.301851 
L 261.800639 -122.443816 
L 262.835526 -122.594655 
L 263.870414 -122.754366 
L 264.905301 -122.92295 
L 265.940188 -123.100407 
L 266.975075 -123.286737 
L 268.009962 -123.481939 
L 269.04485 -123.686015 
L 270.079737 -123.898963 
L 271.114624 -124.120784 
L 272.149511 -124.351478 
L 273.184398 -124.591045 
L 274.219286 -124.839485 
L 275.254173 -125.096797 
L 276.28906 -125.362982 
L 277.323947 -125.638041 
L 278.358835 -125.921972 
L 279.393722 -126.214776 
L 280.428609 -126.516452 
L 281.463496 -126.827002 
L 282.498383 -127.146424 
L 283.533271 -127.47472 
L 284.568158 -127.811888 
L 285.603045 -128.157929 
L 286.637932 -128.512843 
L 287.67282 -128.876629 
L 288.707707 -129.249289 
L 289.742594 -129.630821 
L 290.777481 -130.021227 
L 291.812368 -130.420505 
L 292.847256 -130.828656 
L 293.882143 -131.245679 
L 294.91703 -131.671576 
L 295.951917 -132.106345 
L 296.986805 -132.549988 
L 298.021692 -133.002503 
L 299.056579 -133.463891 
L 300.091466 -133.934152 
L 301.126353 -134.413285 
L 302.161241 -134.901292 
L 303.196128 -135.398171 
L 304.231015 -135.903923 
L 305.265902 -136.418548 
L 306.300789 -136.942046 
L 307.335677 -137.474417 
L 308.370564 -138.015661 
L 309.405451 -138.565777 
L 310.440338 -139.124766 
L 311.475226 -139.692629 
L 312.510113 -140.269364 
L 313.545 -140.854971 
L 314.579887 -141.449452 
L 315.614774 -142.052806 
L 316.649662 -142.665032 
L 317.684549 -143.286131 
L 318.719436 -143.916103 
L 319.754323 -144.554948 
L 320.789211 -145.202666 
L 321.824098 -145.859257 
L 322.858985 -146.52472 
L 323.893872 -147.199056 
L 324.928759 -147.882265 
L 325.963647 -148.574347 
L 326.998534 -149.275302 
L 328.033421 -149.98513 
L 329.068308 -150.70383 
L 330.103195 -151.431404 
L 331.138083 -152.16785 
L 332.17297 -152.913169 
L 333.207857 -153.667361 
L 334.242744 -154.430426 
L 335.277632 -155.202363 
L 336.312519 -155.983174 
L 337.347406 -156.772857 
L 338.382293 -157.571413 
L 339.41718 -158.378842 
L 340.452068 -159.195144 
L 341.486955 -160.020319 
L 342.521842 -160.854366 
L 343.556729 -161.697286 
L 344.591617 -162.54908 
L 345.626504 -163.409746 
L 346.661391 -164.279285 
L 347.696278 -165.157696 
L 348.731165 -166.044981 
L 349.766053 -166.941138 
L 350.80094 -167.846169 
L 351.835827 -168.760072 
L 352.870714 -169.682848 
L 353.905602 -170.614497 
L 354.940489 -171.555018 
L 355.975376 -172.504413 
L 357.010263 -173.46268 
L 358.04515 -174.42982 
L 359.080038 -175.405833 
L 360.114925 -176.390719 
L 361.149812 -177.384478 
L 362.184699 -178.38711 
L 363.219586 -179.398614 
L 364.254474 -180.418991 
L 365.289361 -181.448241 
L 366.324248 -182.486364 
L 367.359135 -183.53336 
L 368.394023 -184.589229 
L 369.42891 -185.65397 
L 370.463797 -186.727585 
L 371.498684 -187.810072 
L 372.533571 -188.901432 
L 373.568459 -190.001665 
L 374.603346 -191.110771 
L 375.638233 -192.228749 
L 376.67312 -193.355601 
L 377.708008 -194.491325 
L 378.742895 -195.635922 
L 379.777782 -196.789392 
L 380.812669 -197.951735 
L 381.847556 -199.122951 
L 382.882444 -200.303039 
L 383.917331 -201.492 
L 384.952218 -202.689835 
L 385.987105 -203.896542 
L 387.021992 -205.112122 
L 388.05688 -206.336574 
L 389.091767 -207.5699 
L 390.126654 -208.812098 
L 391.161541 -210.06317 
L 392.196429 -211.323114 
L 393.231316 -212.591931 
L 394.266203 -213.86962 
L 395.30109 -215.156183 
L 396.335977 -216.451619 
L 397.370865 -217.755927 
L 398.405752 -219.069108 
L 399.440639 -220.391162 
L 400.475526 -221.722089 
L 401.510414 -223.061889 
L 402.545301 -224.410561 
L 403.580188 -225.768107 
L 404.615075 -227.134525 
L 405.649962 -228.509816 
L 406.68485 -229.89398 
L 407.719737 -231.287017 
L 408.754624 -232.688927 
L 409.789511 -234.099709 
L 410.824398 -235.519365 
L 411.859286 -236.947893 
L 412.894173 -238.385294 
L 413.92906 -239.831568 
L 414.963947 -241.286714 
L 415.998835 -242.750734 
L 417.033722 -244.223626 
L 418.068609 -245.705392 
L 419.103496 -247.19603 
L 420.138383 -248.695541 
L 421.173271 -250.203925 
L 422.208158 -251.721181 
L 423.243045 -253.247311 
L 424.277932 -254.782313 
L 425.31282 -256.326188 
L 426.347707 -257.878936 
L 427.382594 -259.440557 
L 428.417481 -261.011051 
L 429.452368 -262.590417 
L 430.487256 -264.178657 
L 431.522143 -265.775769 
L 432.55703 -267.381754 
L 433.591917 -268.996612 
L 434.626805 -270.620343 
L 435.661692 -272.252947 
L 436.696579 -273.894423 
L 437.731466 -275.544772 
L 438.766353 -277.203995 
L 439.801241 -278.87209 
L 440.836128 -280.549058 
L 441.871015 -282.234898 
L 442.905902 -283.929612 
L 443.940789 -285.633198 
L 444.975677 -287.345658 
L 446.010564 -289.06699 
L 447.045451 -290.797195 
L 448.080338 -292.536272 
L 449.115226 -294.284223 
L 450.150113 -296.041047 
L 451.185 -297.806743 
L 451.185 -335.076 
L 451.185 -335.076 
L 450.150113 -335.076 
L 449.115226 -335.076 
L 448.080338 -335.076 
L 447.045451 -335.076 
L 446.010564 -335.076 
L 444.975677 -335.076 
L 443.940789 -335.076 
L 442.905902 -335.076 
L 441.871015 -335.076 
L 440.836128 -335.076 
L 439.801241 -335.076 
L 438.766353 -335.076 
L 437.731466 -335.076 
L 436.696579 -335.076 
L 435.661692 -335.076 
L 434.626805 -335.076 
L 433.591917 -335.076 
L 432.55703 -335.076 
L 431.522143 -335.076 
L 430.487256 -335.076 
L 429.452368 -335.076 
L 428.417481 -335.076 
L 427.382594 -335.076 
L 426.347707 -335.076 
L 425.31282 -335.076 
L 424.277932 -335.076 
L 423.243045 -335.076 
L 422.208158 -335.076 
L 421.173271 -335.076 
L 420.138383 -335.076 
L 419.103496 -335.076 
L 418.068609 -335.076 
L 417.033722 -335.076 
L 415.998835 -335.076 
L 414.963947 -335.076 
L 413.92906 -335.076 
L 412.894173 -335.076 
L 411.859286 -335.076 
L 410.824398 -335.076 
L 409.789511 -335.076 
L 408.754624 -335.076 
L 407.719737 -335.076 
L 406.68485 -335.076 
L 405.649962 -335.076 
L 404.615075 -335.076 
L 403.580188 -335.076 
L 402.545301 -335.076 
L 401.510414 -335.076 
L 400.475526 -335.076 
L 399.440639 -335.076 
L 398.405752 -335.076 
L 397.370865 -335.076 
L 396.335977 -335.076 
L 395.30109 -335.076 
L 394.266203 -335.076 
L 393.231316 -335.076 
L 392.196429 -335.076 
L 391.161541 -335.076 
L 390.126654 -335.076 
L 389.091767 -335.076 
L 388.05688 -335.076 
L 387.021992 -335.076 
L 385.987105 -335.076 
L 384.952218 -335.076 
L 383.917331 -335.076 
L 382.882444 -335.076 
L 381.847556 -335.076 
L 380.812669 -335.076 
L 379.777782 -335.076 
L 378.742895 -335.076 
L 377.708008 -335.076 
L 376.67312 -335.076 
L 375.638233 -335.076 
L 374.603346 -335.076 
L 373.568459 -335.076 
L 372.533571 -335.076 
L 371.498684 -335.076 
L 370.463797 -335.076 
L 369.42891 -335.076 
L 368.394023 -335.076 
L 367.359135 -335.076 
L 366.324248 -335.076 
L 365.289361 -335.076 
L 364.254474 -335.076 
L 363.219586 -335.076 
L 362.184699 -335.076 
L 361.149812 -335.076 
L 360.114925 -335.076 
L 359.080038 -335.076 
L 358.04515 -335.076 
L 357.010263 -335.076 
L 355.975376 -335.076 
L 354.940489 -335.076 
L 353.905602 -335.076 
L 352.870714 -335.076 
L 351.835827 -335.076 
L 350.80094 -335.076 
L 349.766053 -335.076 
L 348.731165 -335.076 
L 347.696278 -335.076 
L 346.661391 -335.076 
L 345.626504 -335.076 
L 344.591617 -335.076 
L 343.556729 -335.076 
L 342.521842 -335.076 
L 341.486955 -335.076 
L 340.452068 -335.076 
L 339.41718 -335.076 
L 338.382293 -335.076 
L 337.347406 -335.076 
L 336.312519 -335.076 
L 335.277632 -335.076 
L 334.242744 -335.076 
L 333.207857 -335.076 
L 332.17297 -335.076 
L 331.138083 -335.076 
L 330.103195 -335.076 
L 329.068308 -335.076 
L 328.033421 -335.076 
L 326.998534 -335.076 
L 325.963647 -335.076 
L 324.928759 -335.076 
L 323.893872 -335.076 
L 322.858985 -335.076 
L 321.824098 -335.076 
L 320.789211 -335.076 
L 319.754323 -335.076 
L 318.719436 -335.076 
L 317.684549 -335.076 
L 316.649662 -335.076 
L 315.614774 -335.076 
L 314.579887 -335.076 
L 313.545 -335.076 
L 312.510113 -335.076 
L 311.475226 -335.076 
L 310.440338 -335.076 
L 309.405451 -335.076 
L 308.370564 -335.076 
L 307.335677 -335.076 
L 306.300789 -335.076 
L 305.265902 -335.076 
L 304.231015 -335.076 
L 303.196128 -335.076 
L 302.161241 -335.076 
L 301.126353 -335.076 
L 300.091466 -335.076 
L 299.056579 -335.076 
L 298.021692 -335.076 
L 296.986805 -335.076 
L 295.951917 -335.076 
L 294.91703 -335.076 
L 293.882143 -335.076 
L 292.847256 -335.076 
L 291.812368 -335.076 
L 290.777481 -335.076 
L 289.742594 -335.076 
L 288.707707 -335.076 
L 287.67282 -335.076 
L 286.637932 -335.076 
L 285.603045 -335.076 
L 284.568158 -335.076 
L 283.533271 -335.076 
L 282.498383 -335.076 
L 281.463496 -335.076 
L 280.428609 -335.076 
L 279.393722 -335.076 
L 278.358835 -335.076 
L 277.323947 -335.076 
L 276.28906 -335.076 
L 275.254173 -335.076 
L 274.219286 -335.076 
L 273.184398 -335.076 
L 272.149511 -335.076 
L 271.114624 -335.076 
L 270.079737 -335.076 
L 269.04485 -335.076 
L 268.009962 -335.076 
L 266.975075 -335.076 
L 265.940188 -335.076 
L 264.905301 -335.076 
L 263.870414 -335.076 
L 262.835526 -335.076 
L 261.800639 -335.076 
L 260.765752 -335.076 
L 259.730865 -335.076 
L 258.695977 -335.076 
L 257.66109 -335.076 
L 256.626203 -335.076 
L 255.591316 -335.076 
L 254.556429 -335.076 
L 253.521541 -335.076 
L 252.486654 -335.076 
L 251.451767 -335.076 
L 250.41688 -335.076 
L 249.381992 -335.076 
L 248.347105 -335.076 
L 247.312218 -335.076 
L 246.277331 -335.076 
L 245.242444 -335.076 
L 244.207556 -335.076 
L 243.172669 -335.076 
L 242.137782 -335.076 
L 241.102895 -335.076 
L 240.068008 -335.076 
L 239.03312 -335.076 
L 237.998233 -335.076 
L 236.963346 -335.076 
L 235.928459 -335.076 
L 234.893571 -335.076 
L 233.858684 -335.076 
L 232.823797 -335.076 
L 231.78891 -335.076 
L 230.754023 -335.076 
L 229.719135 -335.076 
L 228.684248 -335.076 
L 227.649361 -335.076 
L 226.614474 -335.076 
L 225.579586 -335.076 
L 224.544699 -335.076 
L 223.509812 -335.076 
L 222.474925 -335.076 
L 221.440038 -335.076 
L 220.40515 -335.076 
L 219.370263 -335.076 
L 218.335376 -335.076 
L 217.300489 -335.076 
L 216.265602 -335.076 
L 215.230714 -335.076 
L 214.195827 -335.076 
L 213.16094 -335.076 
L 212.126053 -335.076 
L 211.091165 -335.076 
L 210.056278 -335.076 
L 209.021391 -335.076 
L 207.986504 -335.076 
L 206.951617 -335.076 
L 205.916729 -335.076 
L 204.881842 -335.076 
L 203.846955 -335.076 
L 202.812068 -335.076 
L 201.77718 -335.076 
L 200.742293 -335.076 
L 199.707406 -335.076 
L 198.672519 -335.076 
L 197.637632 -335.076 
L 196.602744 -335.076 
L 195.567857 -335.076 
L 194.53297 -335.076 
L 193.498083 -335.076 
L 192.463195 -335.076 
L 191.428308 -335.076 
L 190.393421 -335.076 
L 189.358534 -335.076 
L 188.323647 -335.076 
L 187.288759 -335.076 
L 186.253872 -335.076 
L 185.218985 -335.076 
L 184.184098 -335.076 
L 183.149211 -335.076 
L 182.114323 -335.076 
L 181.079436 -335.076 
L 180.044549 -335.076 
L 179.009662 -335.076 
L 177.974774 -335.076 
L 176.939887 -335.076 
L 175.905 -335.076 
L 174.870113 -335.076 
L 173.835226 -335.076 
L 172.800338 -335.076 
L 171.765451 -335.076 
L 170.730564 -335.076 
L 169.695677 -335.076 
L 168.660789 -335.076 
L 167.625902 -335.076 
L 166.591015 -335.076 
L 165.556128 -335.076 
L 164.521241 -335.076 
L 163.486353 -335.076 
L 162.451466 -335.076 
L 161.416579 -335.076 
L 160.381692 -335.076 
L 159.346805 -335.076 
L 158.311917 -335.076 
L 157.27703 -335.076 
L 156.242143 -335.076 
L 155.207256 -335.076 
L 154.172368 -335.076 
L 153.137481 -335.076 
L 152.102594 -335.076 
L 151.067707 -335.076 
L 150.03282 -335.076 
L 148.997932 -335.076 
L 147.963045 -335.076 
L 146.928158 -335.076 
L 145.893271 -335.076 
L 144.858383 -335.076 
L 143.823496 -335.076 
L 142.788609 -335.076 
L 141.753722 -335.076 
L 140.718835 -335.076 
L 139.683947 -335.076 
L 138.64906 -335.076 
L 137.614173 -335.076 
L 136.579286 -335.076 
L 135.544398 -335.076 
L 134.509511 -335.076 
L 133.474624 -335.076 
L 132.439737 -335.076 
L 131.40485 -335.076 
L 130.369962 -335.076 
L 129.335075 -335.076 
L 128.300188 -335.076 
L 127.265301 -335.076 
L 126.230414 -335.076 
L 125.195526 -335.076 
L 124.160639 -335.076 
L 123.125752 -335.076 
L 122.090865 -335.076 
L 121.055977 -335.076 
L 120.02109 -335.076 
L 118.986203 -335.076 
L 117.951316 -335.076 
L 116.916429 -335.076 
L 115.881541 -335.076 
L 114.846654 -335.076 
L 113.811767 -335.076 
L 112.77688 -335.076 
L 111.741992 -335.076 
L 110.707105 -335.076 
L 109.672218 -335.076 
L 108.637331 -335.076 
L 107.602444 -335.076 
L 106.567556 -335.076 
L 105.532669 -335.076 
L 104.497782 -335.076 
L 103.462895 -335.076 
L 102.428008 -335.076 
L 101.39312 -335.076 
L 100.358233 -335.076 
L 99.323346 -335.076 
L 98.288459 -335.076 
L 97.253571 -335.076 
L 96.218684 -335.076 
L 95.183797 -335.076 
L 94.14891 -335.076 
L 93.114023 -335.076 
L 92.079135 -335.076 
L 91.044248 -335.076 
L 90.009361 -335.076 
L 88.974474 -335.076 
L 87.939586 -335.076 
L 86.904699 -335.076 
L 85.869812 -335.076 
L 84.834925 -335.076 
L 83.800038 -335.076 
L 82.76515 -335.076 
L 81.730263 -335.076 
L 80.695376 -335.076 
L 79.660489 -335.076 
L 78.625602 -335.076 
L 77.590714 -335.076 
L 76.555827 -335.076 
L 75.52094 -335.076 
L 74.486053 -335.076 
L 73.451165 -335.076 
L 72.416278 -335.076 
L 71.381391 -335.076 
L 70.346504 -335.076 
L 69.311617 -335.076 
L 68.276729 -335.076 
L 67.241842 -335.076 
L 66.206955 -335.076 
L 65.172068 -335.076 
L 64.13718 -335.076 
L 63.102293 -335.076 
L 62.067406 -335.076 
L 61.032519 -335.076 
L 59.997632 -335.076 
L 58.962744 -335.076 
L 57.927857 -335.076 
L 56.89297 -335.076 
L 55.858083 -335.076 
L 54.823195 -335.076 
L 53.788308 -335.076 
L 52.753421 -335.076 
L 51.718534 -335.076 
L 50.683647 -335.076 
L 49.648759 -335.076 
L 48.613872 -335.076 
L 47.578985 -335.076 
L 46.544098 -335.076 
L 45.509211 -335.076 
L 44.474323 -335.076 
L 43.439436 -335.076 
L 42.404549 -335.076 
L 41.369662 -335.076 
L 40.334774 -335.076 
L 39.299887 -335.076 
L 38.265 -335.076 
z
" style="stroke: #56b4e9; stroke-opacity: 0.16"/>
    </defs>
    <g clip-path="url(#pd7cf6cb578)">
     <use xlink:href="#m970592e00e" x="0" y="356.471625" style="fill: #56b4e9; fill-opacity: 0.16; stroke: #56b4e9; stroke-opacity: 0.16"/>
    </g>
   </g>
   <g id="PolyCollection_2">
    <defs>
     <path id="me544c65ff9" d="M 38.265 -121.236 
L 38.265 -35.7 
L 39.299887 -35.7 
L 40.334774 -35.7 
L 41.369662 -35.7 
L 42.404549 -35.7 
L 43.439436 -35.7 
L 44.474323 -35.7 
L 45.509211 -35.7 
L 46.544098 -35.7 
L 47.578985 -35.7 
L 48.613872 -35.7 
L 49.648759 -35.7 
L 50.683647 -35.7 
L 51.718534 -35.7 
L 52.753421 -35.7 
L 53.788308 -35.7 
L 54.823195 -35.7 
L 55.858083 -35.7 
L 56.89297 -35.7 
L 57.927857 -35.7 
L 58.962744 -35.7 
L 59.997632 -35.7 
L 61.032519 -35.7 
L 62.067406 -35.7 
L 63.102293 -35.7 
L 64.13718 -35.7 
L 65.172068 -35.7 
L 66.206955 -35.7 
L 67.241842 -35.7 
L 68.276729 -35.7 
L 69.311617 -35.7 
L 70.346504 -35.7 
L 71.381391 -35.7 
L 72.416278 -35.7 
L 73.451165 -35.7 
L 74.486053 -35.7 
L 75.52094 -35.7 
L 76.555827 -35.7 
L 77.590714 -35.7 
L 78.625602 -35.7 
L 79.660489 -35.7 
L 80.695376 -35.7 
L 81.730263 -35.7 
L 82.76515 -35.7 
L 83.800038 -35.7 
L 84.834925 -35.7 
L 85.869812 -35.7 
L 86.904699 -35.7 
L 87.939586 -35.7 
L 88.974474 -35.7 
L 90.009361 -35.7 
L 91.044248 -35.7 
L 92.079135 -35.7 
L 93.114023 -35.7 
L 94.14891 -35.7 
L 95.183797 -35.7 
L 96.218684 -35.7 
L 97.253571 -35.7 
L 98.288459 -35.7 
L 99.323346 -35.7 
L 100.358233 -35.7 
L 101.39312 -35.7 
L 102.428008 -35.7 
L 103.462895 -35.7 
L 104.497782 -35.7 
L 105.532669 -35.7 
L 106.567556 -35.7 
L 107.602444 -35.7 
L 108.637331 -35.7 
L 109.672218 -35.7 
L 110.707105 -35.7 
L 111.741992 -35.7 
L 112.77688 -35.7 
L 113.811767 -35.7 
L 114.846654 -35.7 
L 115.881541 -35.7 
L 116.916429 -35.7 
L 117.951316 -35.7 
L 118.986203 -35.7 
L 120.02109 -35.7 
L 121.055977 -35.7 
L 122.090865 -35.7 
L 123.125752 -35.7 
L 124.160639 -35.7 
L 125.195526 -35.7 
L 126.230414 -35.7 
L 127.265301 -35.7 
L 128.300188 -35.7 
L 129.335075 -35.7 
L 130.369962 -35.7 
L 131.40485 -35.7 
L 132.439737 -35.7 
L 133.474624 -35.7 
L 134.509511 -35.7 
L 135.544398 -35.7 
L 136.579286 -35.7 
L 137.614173 -35.7 
L 138.64906 -35.7 
L 139.683947 -35.7 
L 140.718835 -35.7 
L 141.753722 -35.7 
L 142.788609 -35.7 
L 143.823496 -35.7 
L 144.858383 -35.7 
L 145.893271 -35.7 
L 146.928158 -35.7 
L 147.963045 -35.7 
L 148.997932 -35.7 
L 150.03282 -35.7 
L 151.067707 -35.7 
L 152.102594 -35.7 
L 153.137481 -35.7 
L 154.172368 -35.7 
L 155.207256 -35.7 
L 156.242143 -35.7 
L 157.27703 -35.7 
L 158.311917 -35.7 
L 159.346805 -35.7 
L 160.381692 -35.7 
L 161.416579 -35.7 
L 162.451466 -35.7 
L 163.486353 -35.7 
L 164.521241 -35.7 
L 165.556128 -35.7 
L 166.591015 -35.7 
L 167.625902 -35.7 
L 168.660789 -35.7 
L 169.695677 -35.7 
L 170.730564 -35.7 
L 171.765451 -35.7 
L 172.800338 -35.7 
L 173.835226 -35.7 
L 174.870113 -35.7 
L 175.905 -35.7 
L 176.939887 -35.7 
L 177.974774 -35.7 
L 179.009662 -35.7 
L 180.044549 -35.7 
L 181.079436 -35.7 
L 182.114323 -35.7 
L 183.149211 -35.7 
L 184.184098 -35.7 
L 185.218985 -35.7 
L 186.253872 -35.7 
L 187.288759 -35.7 
L 188.323647 -35.7 
L 189.358534 -35.7 
L 190.393421 -35.7 
L 191.428308 -35.7 
L 192.463195 -35.7 
L 193.498083 -35.7 
L 194.53297 -35.7 
L 195.567857 -35.7 
L 196.602744 -35.7 
L 197.637632 -35.7 
L 198.672519 -35.7 
L 199.707406 -35.7 
L 200.742293 -35.7 
L 201.77718 -35.7 
L 202.812068 -35.7 
L 203.846955 -35.7 
L 204.881842 -35.7 
L 205.916729 -35.7 
L 206.951617 -35.7 
L 207.986504 -35.7 
L 209.021391 -35.7 
L 210.056278 -35.7 
L 211.091165 -35.7 
L 212.126053 -35.7 
L 213.16094 -35.7 
L 214.195827 -35.7 
L 215.230714 -35.7 
L 216.265602 -35.7 
L 217.300489 -35.7 
L 218.335376 -35.7 
L 219.370263 -35.7 
L 220.40515 -35.7 
L 221.440038 -35.7 
L 222.474925 -35.7 
L 223.509812 -35.7 
L 224.544699 -35.7 
L 225.579586 -35.7 
L 226.614474 -35.7 
L 227.649361 -35.7 
L 228.684248 -35.7 
L 229.719135 -35.7 
L 230.754023 -35.7 
L 231.78891 -35.7 
L 232.823797 -35.7 
L 233.858684 -35.7 
L 234.893571 -35.7 
L 235.928459 -35.7 
L 236.963346 -35.7 
L 237.998233 -35.7 
L 239.03312 -35.7 
L 240.068008 -35.7 
L 241.102895 -35.7 
L 242.137782 -35.7 
L 243.172669 -35.7 
L 244.207556 -35.7 
L 245.242444 -35.7 
L 246.277331 -35.7 
L 247.312218 -35.7 
L 248.347105 -35.7 
L 249.381992 -35.7 
L 250.41688 -35.7 
L 251.451767 -35.7 
L 252.486654 -35.7 
L 253.521541 -35.7 
L 254.556429 -35.7 
L 255.591316 -35.7 
L 256.626203 -35.7 
L 257.66109 -35.7 
L 258.695977 -35.7 
L 259.730865 -35.7 
L 260.765752 -35.7 
L 261.800639 -35.7 
L 262.835526 -35.7 
L 263.870414 -35.7 
L 264.905301 -35.7 
L 265.940188 -35.7 
L 266.975075 -35.7 
L 268.009962 -35.7 
L 269.04485 -35.7 
L 270.079737 -35.7 
L 271.114624 -35.7 
L 272.149511 -35.7 
L 273.184398 -35.7 
L 274.219286 -35.7 
L 275.254173 -35.7 
L 276.28906 -35.7 
L 277.323947 -35.7 
L 278.358835 -35.7 
L 279.393722 -35.7 
L 280.428609 -35.7 
L 281.463496 -35.7 
L 282.498383 -35.7 
L 283.533271 -35.7 
L 284.568158 -35.7 
L 285.603045 -35.7 
L 286.637932 -35.7 
L 287.67282 -35.7 
L 288.707707 -35.7 
L 289.742594 -35.7 
L 290.777481 -35.7 
L 291.812368 -35.7 
L 292.847256 -35.7 
L 293.882143 -35.7 
L 294.91703 -35.7 
L 295.951917 -35.7 
L 296.986805 -35.7 
L 298.021692 -35.7 
L 299.056579 -35.7 
L 300.091466 -35.7 
L 301.126353 -35.7 
L 302.161241 -35.7 
L 303.196128 -35.7 
L 304.231015 -35.7 
L 305.265902 -35.7 
L 306.300789 -35.7 
L 307.335677 -35.7 
L 308.370564 -35.7 
L 309.405451 -35.7 
L 310.440338 -35.7 
L 311.475226 -35.7 
L 312.510113 -35.7 
L 313.545 -35.7 
L 314.579887 -35.7 
L 315.614774 -35.7 
L 316.649662 -35.7 
L 317.684549 -35.7 
L 318.719436 -35.7 
L 319.754323 -35.7 
L 320.789211 -35.7 
L 321.824098 -35.7 
L 322.858985 -35.7 
L 323.893872 -35.7 
L 324.928759 -35.7 
L 325.963647 -35.7 
L 326.998534 -35.7 
L 328.033421 -35.7 
L 329.068308 -35.7 
L 330.103195 -35.7 
L 331.138083 -35.7 
L 332.17297 -35.7 
L 333.207857 -35.7 
L 334.242744 -35.7 
L 335.277632 -35.7 
L 336.312519 -35.7 
L 337.347406 -35.7 
L 338.382293 -35.7 
L 339.41718 -35.7 
L 340.452068 -35.7 
L 341.486955 -35.7 
L 342.521842 -35.7 
L 343.556729 -35.7 
L 344.591617 -35.7 
L 345.626504 -35.7 
L 346.661391 -35.7 
L 347.696278 -35.7 
L 348.731165 -35.7 
L 349.766053 -35.7 
L 350.80094 -35.7 
L 351.835827 -35.7 
L 352.870714 -35.7 
L 353.905602 -35.7 
L 354.940489 -35.7 
L 355.975376 -35.7 
L 357.010263 -35.7 
L 358.04515 -35.7 
L 359.080038 -35.7 
L 360.114925 -35.7 
L 361.149812 -35.7 
L 362.184699 -35.7 
L 363.219586 -35.7 
L 364.254474 -35.7 
L 365.289361 -35.7 
L 366.324248 -35.7 
L 367.359135 -35.7 
L 368.394023 -35.7 
L 369.42891 -35.7 
L 370.463797 -35.7 
L 371.498684 -35.7 
L 372.533571 -35.7 
L 373.568459 -35.7 
L 374.603346 -35.7 
L 375.638233 -35.7 
L 376.67312 -35.7 
L 377.708008 -35.7 
L 378.742895 -35.7 
L 379.777782 -35.7 
L 380.812669 -35.7 
L 381.847556 -35.7 
L 382.882444 -35.7 
L 383.917331 -35.7 
L 384.952218 -35.7 
L 385.987105 -35.7 
L 387.021992 -35.7 
L 388.05688 -35.7 
L 389.091767 -35.7 
L 390.126654 -35.7 
L 391.161541 -35.7 
L 392.196429 -35.7 
L 393.231316 -35.7 
L 394.266203 -35.7 
L 395.30109 -35.7 
L 396.335977 -35.7 
L 397.370865 -35.7 
L 398.405752 -35.7 
L 399.440639 -35.7 
L 400.475526 -35.7 
L 401.510414 -35.7 
L 402.545301 -35.7 
L 403.580188 -35.7 
L 404.615075 -35.7 
L 405.649962 -35.7 
L 406.68485 -35.7 
L 407.719737 -35.7 
L 408.754624 -35.7 
L 409.789511 -35.7 
L 410.824398 -35.7 
L 411.859286 -35.7 
L 412.894173 -35.7 
L 413.92906 -35.7 
L 414.963947 -35.7 
L 415.998835 -35.7 
L 417.033722 -35.7 
L 418.068609 -35.7 
L 419.103496 -35.7 
L 420.138383 -35.7 
L 421.173271 -35.7 
L 422.208158 -35.7 
L 423.243045 -35.7 
L 424.277932 -35.7 
L 425.31282 -35.7 
L 426.347707 -35.7 
L 427.382594 -35.7 
L 428.417481 -35.7 
L 429.452368 -35.7 
L 430.487256 -35.7 
L 431.522143 -35.7 
L 432.55703 -35.7 
L 433.591917 -35.7 
L 434.626805 -35.7 
L 435.661692 -35.7 
L 436.696579 -35.7 
L 437.731466 -35.7 
L 438.766353 -35.7 
L 439.801241 -35.7 
L 440.836128 -35.7 
L 441.871015 -35.7 
L 442.905902 -35.7 
L 443.940789 -35.7 
L 444.975677 -35.7 
L 446.010564 -35.7 
L 447.045451 -35.7 
L 448.080338 -35.7 
L 449.115226 -35.7 
L 450.150113 -35.7 
L 451.185 -35.7 
L 451.185 -121.236 
L 451.185 -121.236 
L 450.150113 -121.236 
L 449.115226 -121.236 
L 448.080338 -121.236 
L 447.045451 -121.236 
L 446.010564 -121.236 
L 444.975677 -121.236 
L 443.940789 -121.236 
L 442.905902 -121.236 
L 441.871015 -121.236 
L 440.836128 -121.236 
L 439.801241 -121.236 
L 438.766353 -121.236 
L 437.731466 -121.236 
L 436.696579 -121.236 
L 435.661692 -121.236 
L 434.626805 -121.236 
L 433.591917 -121.236 
L 432.55703 -121.236 
L 431.522143 -121.236 
L 430.487256 -121.236 
L 429.452368 -121.236 
L 428.417481 -121.236 
L 427.382594 -121.236 
L 426.347707 -121.236 
L 425.31282 -121.236 
L 424.277932 -121.236 
L 423.243045 -121.236 
L 422.208158 -121.236 
L 421.173271 -121.236 
L 420.138383 -121.236 
L 419.103496 -121.236 
L 418.068609 -121.236 
L 417.033722 -121.236 
L 415.998835 -121.236 
L 414.963947 -121.236 
L 413.92906 -121.236 
L 412.894173 -121.236 
L 411.859286 -121.236 
L 410.824398 -121.236 
L 409.789511 -121.236 
L 408.754624 -121.236 
L 407.719737 -121.236 
L 406.68485 -121.236 
L 405.649962 -121.236 
L 404.615075 -121.236 
L 403.580188 -121.236 
L 402.545301 -121.236 
L 401.510414 -121.236 
L 400.475526 -121.236 
L 399.440639 -121.236 
L 398.405752 -121.236 
L 397.370865 -121.236 
L 396.335977 -121.236 
L 395.30109 -121.236 
L 394.266203 -121.236 
L 393.231316 -121.236 
L 392.196429 -121.236 
L 391.161541 -121.236 
L 390.126654 -121.236 
L 389.091767 -121.236 
L 388.05688 -121.236 
L 387.021992 -121.236 
L 385.987105 -121.236 
L 384.952218 -121.236 
L 383.917331 -121.236 
L 382.882444 -121.236 
L 381.847556 -121.236 
L 380.812669 -121.236 
L 379.777782 -121.236 
L 378.742895 -121.236 
L 377.708008 -121.236 
L 376.67312 -121.236 
L 375.638233 -121.236 
L 374.603346 -121.236 
L 373.568459 -121.236 
L 372.533571 -121.236 
L 371.498684 -121.236 
L 370.463797 -121.236 
L 369.42891 -121.236 
L 368.394023 -121.236 
L 367.359135 -121.236 
L 366.324248 -121.236 
L 365.289361 -121.236 
L 364.254474 -121.236 
L 363.219586 -121.236 
L 362.184699 -121.236 
L 361.149812 -121.236 
L 360.114925 -121.236 
L 359.080038 -121.236 
L 358.04515 -121.236 
L 357.010263 -121.236 
L 355.975376 -121.236 
L 354.940489 -121.236 
L 353.905602 -121.236 
L 352.870714 -121.236 
L 351.835827 -121.236 
L 350.80094 -121.236 
L 349.766053 -121.236 
L 348.731165 -121.236 
L 347.696278 -121.236 
L 346.661391 -121.236 
L 345.626504 -121.236 
L 344.591617 -121.236 
L 343.556729 -121.236 
L 342.521842 -121.236 
L 341.486955 -121.236 
L 340.452068 -121.236 
L 339.41718 -121.236 
L 338.382293 -121.236 
L 337.347406 -121.236 
L 336.312519 -121.236 
L 335.277632 -121.236 
L 334.242744 -121.236 
L 333.207857 -121.236 
L 332.17297 -121.236 
L 331.138083 -121.236 
L 330.103195 -121.236 
L 329.068308 -121.236 
L 328.033421 -121.236 
L 326.998534 -121.236 
L 325.963647 -121.236 
L 324.928759 -121.236 
L 323.893872 -121.236 
L 322.858985 -121.236 
L 321.824098 -121.236 
L 320.789211 -121.236 
L 319.754323 -121.236 
L 318.719436 -121.236 
L 317.684549 -121.236 
L 316.649662 -121.236 
L 315.614774 -121.236 
L 314.579887 -121.236 
L 313.545 -121.236 
L 312.510113 -121.236 
L 311.475226 -121.236 
L 310.440338 -121.236 
L 309.405451 -121.236 
L 308.370564 -121.236 
L 307.335677 -121.236 
L 306.300789 -121.236 
L 305.265902 -121.236 
L 304.231015 -121.236 
L 303.196128 -121.236 
L 302.161241 -121.236 
L 301.126353 -121.236 
L 300.091466 -121.236 
L 299.056579 -121.236 
L 298.021692 -121.236 
L 296.986805 -121.236 
L 295.951917 -121.236 
L 294.91703 -121.236 
L 293.882143 -121.236 
L 292.847256 -121.236 
L 291.812368 -121.236 
L 290.777481 -121.236 
L 289.742594 -121.236 
L 288.707707 -121.236 
L 287.67282 -121.236 
L 286.637932 -121.236 
L 285.603045 -121.236 
L 284.568158 -121.236 
L 283.533271 -121.236 
L 282.498383 -121.236 
L 281.463496 -121.236 
L 280.428609 -121.236 
L 279.393722 -121.236 
L 278.358835 -121.236 
L 277.323947 -121.236 
L 276.28906 -121.236 
L 275.254173 -121.236 
L 274.219286 -121.236 
L 273.184398 -121.236 
L 272.149511 -121.236 
L 271.114624 -121.236 
L 270.079737 -121.236 
L 269.04485 -121.236 
L 268.009962 -121.236 
L 266.975075 -121.236 
L 265.940188 -121.236 
L 264.905301 -121.236 
L 263.870414 -121.236 
L 262.835526 -121.236 
L 261.800639 -121.236 
L 260.765752 -121.236 
L 259.730865 -121.236 
L 258.695977 -121.236 
L 257.66109 -121.236 
L 256.626203 -121.236 
L 255.591316 -121.236 
L 254.556429 -121.236 
L 253.521541 -121.236 
L 252.486654 -121.236 
L 251.451767 -121.236 
L 250.41688 -121.236 
L 249.381992 -121.236 
L 248.347105 -121.236 
L 247.312218 -121.236 
L 246.277331 -121.236 
L 245.242444 -121.236 
L 244.207556 -121.236 
L 243.172669 -121.236 
L 242.137782 -121.236 
L 241.102895 -121.236 
L 240.068008 -121.236 
L 239.03312 -121.236 
L 237.998233 -121.236 
L 236.963346 -121.236 
L 235.928459 -121.236 
L 234.893571 -121.236 
L 233.858684 -121.236 
L 232.823797 -121.236 
L 231.78891 -121.236 
L 230.754023 -121.236 
L 229.719135 -121.236 
L 228.684248 -121.236 
L 227.649361 -121.236 
L 226.614474 -121.236 
L 225.579586 -121.236 
L 224.544699 -121.236 
L 223.509812 -121.236 
L 222.474925 -121.236 
L 221.440038 -121.236 
L 220.40515 -121.236 
L 219.370263 -121.236 
L 218.335376 -121.236 
L 217.300489 -121.236 
L 216.265602 -121.236 
L 215.230714 -121.236 
L 214.195827 -121.236 
L 213.16094 -121.236 
L 212.126053 -121.236 
L 211.091165 -121.236 
L 210.056278 -121.236 
L 209.021391 -121.236 
L 207.986504 -121.236 
L 206.951617 -121.236 
L 205.916729 -121.236 
L 204.881842 -121.236 
L 203.846955 -121.236 
L 202.812068 -121.236 
L 201.77718 -121.236 
L 200.742293 -121.236 
L 199.707406 -121.236 
L 198.672519 -121.236 
L 197.637632 -121.236 
L 196.602744 -121.236 
L 195.567857 -121.236 
L 194.53297 -121.236 
L 193.498083 -121.236 
L 192.463195 -121.236 
L 191.428308 -121.236 
L 190.393421 -121.236 
L 189.358534 -121.236 
L 188.323647 -121.236 
L 187.288759 -121.236 
L 186.253872 -121.236 
L 185.218985 -121.236 
L 184.184098 -121.236 
L 183.149211 -121.236 
L 182.114323 -121.236 
L 181.079436 -121.236 
L 180.044549 -121.236 
L 179.009662 -121.236 
L 177.974774 -121.236 
L 176.939887 -121.236 
L 175.905 -121.236 
L 174.870113 -121.236 
L 173.835226 -121.236 
L 172.800338 -121.236 
L 171.765451 -121.236 
L 170.730564 -121.236 
L 169.695677 -121.236 
L 168.660789 -121.236 
L 167.625902 -121.236 
L 166.591015 -121.236 
L 165.556128 -121.236 
L 164.521241 -121.236 
L 163.486353 -121.236 
L 162.451466 -121.236 
L 161.416579 -121.236 
L 160.381692 -121.236 
L 159.346805 -121.236 
L 158.311917 -121.236 
L 157.27703 -121.236 
L 156.242143 -121.236 
L 155.207256 -121.236 
L 154.172368 -121.236 
L 153.137481 -121.236 
L 152.102594 -121.236 
L 151.067707 -121.236 
L 150.03282 -121.236 
L 148.997932 -121.236 
L 147.963045 -121.236 
L 146.928158 -121.236 
L 145.893271 -121.236 
L 144.858383 -121.236 
L 143.823496 -121.236 
L 142.788609 -121.236 
L 141.753722 -121.236 
L 140.718835 -121.236 
L 139.683947 -121.236 
L 138.64906 -121.236 
L 137.614173 -121.236 
L 136.579286 -121.236 
L 135.544398 -121.236 
L 134.509511 -121.236 
L 133.474624 -121.236 
L 132.439737 -121.236 
L 131.40485 -121.236 
L 130.369962 -121.236 
L 129.335075 -121.236 
L 128.300188 -121.236 
L 127.265301 -121.236 
L 126.230414 -121.236 
L 125.195526 -121.236 
L 124.160639 -121.236 
L 123.125752 -121.236 
L 122.090865 -121.236 
L 121.055977 -121.236 
L 120.02109 -121.236 
L 118.986203 -121.236 
L 117.951316 -121.236 
L 116.916429 -121.236 
L 115.881541 -121.236 
L 114.846654 -121.236 
L 113.811767 -121.236 
L 112.77688 -121.236 
L 111.741992 -121.236 
L 110.707105 -121.236 
L 109.672218 -121.236 
L 108.637331 -121.236 
L 107.602444 -121.236 
L 106.567556 -121.236 
L 105.532669 -121.236 
L 104.497782 -121.236 
L 103.462895 -121.236 
L 102.428008 -121.236 
L 101.39312 -121.236 
L 100.358233 -121.236 
L 99.323346 -121.236 
L 98.288459 -121.236 
L 97.253571 -121.236 
L 96.218684 -121.236 
L 95.183797 -121.236 
L 94.14891 -121.236 
L 93.114023 -121.236 
L 92.079135 -121.236 
L 91.044248 -121.236 
L 90.009361 -121.236 
L 88.974474 -121.236 
L 87.939586 -121.236 
L 86.904699 -121.236 
L 85.869812 -121.236 
L 84.834925 -121.236 
L 83.800038 -121.236 
L 82.76515 -121.236 
L 81.730263 -121.236 
L 80.695376 -121.236 
L 79.660489 -121.236 
L 78.625602 -121.236 
L 77.590714 -121.236 
L 76.555827 -121.236 
L 75.52094 -121.236 
L 74.486053 -121.236 
L 73.451165 -121.236 
L 72.416278 -121.236 
L 71.381391 -121.236 
L 70.346504 -121.236 
L 69.311617 -121.236 
L 68.276729 -121.236 
L 67.241842 -121.236 
L 66.206955 -121.236 
L 65.172068 -121.236 
L 64.13718 -121.236 
L 63.102293 -121.236 
L 62.067406 -121.236 
L 61.032519 -121.236 
L 59.997632 -121.236 
L 58.962744 -121.236 
L 57.927857 -121.236 
L 56.89297 -121.236 
L 55.858083 -121.236 
L 54.823195 -121.236 
L 53.788308 -121.236 
L 52.753421 -121.236 
L 51.718534 -121.236 
L 50.683647 -121.236 
L 49.648759 -121.236 
L 48.613872 -121.236 
L 47.578985 -121.236 
L 46.544098 -121.236 
L 45.509211 -121.236 
L 44.474323 -121.236 
L 43.439436 -121.236 
L 42.404549 -121.236 
L 41.369662 -121.236 
L 40.334774 -121.236 
L 39.299887 -121.236 
L 38.265 -121.236 
z
" style="stroke: #e69f00; stroke-opacity: 0.13"/>
    </defs>
    <g clip-path="url(#pd7cf6cb578)">
     <use xlink:href="#me544c65ff9" x="0" y="356.471625" style="fill: #e69f00; fill-opacity: 0.13; stroke: #e69f00; stroke-opacity: 0.13"/>
    </g>
   </g>
   <g id="matplotlib.axis_1">
    <g id="xtick_1">
     <g id="line2d_1">
      <defs>
       <path id="m5b522cc587" d="M 0 0 
L 0 3 
" style="stroke: #1f2328; stroke-width: 0.8"/>
      </defs>
      <g>
       <use xlink:href="#m5b522cc587" x="62.554412" y="320.771625" style="fill: #1f2328; stroke: #1f2328; stroke-width: 0.8"/>
      </g>
     </g>
     <g id="text_1">
      <!-- −3 -->
      <g style="fill: #1f2328" transform="translate(57.221912 333.418344) scale(0.09 -0.09)">
       <defs>
        <path id="STIXGeneral-Regular-2212" d="M 3974 1408 
L 410 1408 
L 410 1830 
L 3974 1830 
L 3974 1408 
z
" transform="scale(0.015625)"/>
        <path id="STIXGeneral-Regular-33" d="M 390 3264 
L 288 3290 
Q 435 3770 748 4048 
Q 1062 4326 1542 4326 
Q 1990 4326 2265 4083 
Q 2541 3840 2541 3450 
Q 2541 2925 1946 2566 
Q 2298 2413 2477 2227 
Q 2758 1914 2758 1402 
Q 2758 890 2464 506 
Q 2246 211 1840 60 
Q 1434 -90 979 -90 
Q 262 -90 262 275 
Q 262 378 339 442 
Q 416 506 525 506 
Q 685 506 915 339 
Q 1197 141 1466 141 
Q 1818 141 2058 425 
Q 2298 710 2298 1120 
Q 2298 1856 1632 2048 
Q 1434 2112 979 2112 
L 979 2202 
Q 1338 2323 1517 2432 
Q 2035 2726 2035 3290 
Q 2035 3610 1852 3776 
Q 1670 3942 1344 3942 
Q 768 3942 390 3264 
z
" transform="scale(0.015625)"/>
       </defs>
       <use xlink:href="#STIXGeneral-Regular-2212"/>
       <use xlink:href="#STIXGeneral-Regular-33" x="68.499985"/>
      </g>
     </g>
    </g>
    <g id="xtick_2">
     <g id="line2d_2">
      <g>
       <use xlink:href="#m5b522cc587" x="123.277941" y="320.771625" style="fill: #1f2328; stroke: #1f2328; stroke-width: 0.8"/>
      </g>
     </g>
     <g id="text_2">
      <!-- −2 -->
      <g style="fill: #1f2328" transform="translate(117.945441 333.418344) scale(0.09 -0.09)">
       <defs>
        <path id="STIXGeneral-Regular-32" d="M 3034 877 
L 2688 0 
L 186 0 
L 186 77 
L 1325 1286 
Q 1773 1754 1965 2144 
Q 2157 2534 2157 2950 
Q 2157 3379 1920 3616 
Q 1683 3853 1267 3853 
Q 922 3853 720 3673 
Q 518 3494 326 3021 
L 192 3053 
Q 301 3648 630 3987 
Q 960 4326 1523 4326 
Q 2054 4326 2380 4006 
Q 2707 3686 2707 3200 
Q 2707 2477 1888 1613 
L 832 486 
L 2330 486 
Q 2541 486 2665 569 
Q 2790 653 2944 915 
L 3034 877 
z
" transform="scale(0.015625)"/>
       </defs>
       <use xlink:href="#STIXGeneral-Regular-2212"/>
       <use xlink:href="#STIXGeneral-Regular-32" x="68.499985"/>
      </g>
     </g>
    </g>
    <g id="xtick_3">
     <g id="line2d_3">
      <g>
       <use xlink:href="#m5b522cc587" x="184.001471" y="320.771625" style="fill: #1f2328; stroke: #1f2328; stroke-width: 0.8"/>
      </g>
     </g>
     <g id="text_3">
      <!-- −1 -->
      <g style="fill: #1f2328" transform="translate(178.668971 333.418344) scale(0.09 -0.09)">
       <defs>
        <path id="STIXGeneral-Regular-31" d="M 2522 0 
L 755 0 
L 755 96 
Q 1107 115 1235 227 
Q 1363 339 1363 608 
L 1363 3482 
Q 1363 3795 1171 3795 
Q 1082 3795 883 3718 
L 710 3654 
L 710 3744 
L 1856 4326 
L 1914 4307 
L 1914 486 
Q 1914 275 2042 185 
Q 2170 96 2522 96 
L 2522 0 
z
" transform="scale(0.015625)"/>
       </defs>
       <use xlink:href="#STIXGeneral-Regular-2212"/>
       <use xlink:href="#STIXGeneral-Regular-31" x="68.499985"/>
      </g>
     </g>
    </g>
    <g id="xtick_4">
     <g id="line2d_4">
      <g>
       <use xlink:href="#m5b522cc587" x="244.725" y="320.771625" style="fill: #1f2328; stroke: #1f2328; stroke-width: 0.8"/>
      </g>
     </g>
     <g id="text_4">
      <!-- 0 -->
      <g style="fill: #1f2328" transform="translate(242.475 333.418344) scale(0.09 -0.09)">
       <defs>
        <path id="STIXGeneral-Regular-30" d="M 3046 2112 
Q 3046 1683 2963 1302 
Q 2880 922 2717 602 
Q 2554 282 2266 96 
Q 1978 -90 1600 -90 
Q 1210 -90 915 108 
Q 621 307 461 640 
Q 301 973 227 1350 
Q 154 1728 154 2150 
Q 154 2746 301 3222 
Q 448 3699 790 4012 
Q 1133 4326 1626 4326 
Q 2253 4326 2649 3712 
Q 3046 3098 3046 2112 
z
M 2432 2080 
Q 2432 3091 2217 3625 
Q 2003 4160 1587 4160 
Q 1190 4160 979 3622 
Q 768 3085 768 2106 
Q 768 1120 979 598 
Q 1190 77 1600 77 
Q 2003 77 2217 598 
Q 2432 1120 2432 2080 
z
" transform="scale(0.015625)"/>
       </defs>
       <use xlink:href="#STIXGeneral-Regular-30"/>
      </g>
     </g>
    </g>
    <g id="xtick_5">
     <g id="line2d_5">
      <g>
       <use xlink:href="#m5b522cc587" x="305.448529" y="320.771625" style="fill: #1f2328; stroke: #1f2328; stroke-width: 0.8"/>
      </g>
     </g>
     <g id="text_5">
      <!-- 1 -->
      <g style="fill: #1f2328" transform="translate(303.198529 333.418344) scale(0.09 -0.09)">
       <use xlink:href="#STIXGeneral-Regular-31"/>
      </g>
     </g>
    </g>
    <g id="xtick_6">
     <g id="line2d_6">
      <g>
       <use xlink:href="#m5b522cc587" x="366.172059" y="320.771625" style="fill: #1f2328; stroke: #1f2328; stroke-width: 0.8"/>
      </g>
     </g>
     <g id="text_6">
      <!-- 2 -->
      <g style="fill: #1f2328" transform="translate(363.922059 333.418344) scale(0.09 -0.09)">
       <use xlink:href="#STIXGeneral-Regular-32"/>
      </g>
     </g>
    </g>
    <g id="xtick_7">
     <g id="line2d_7">
      <g>
       <use xlink:href="#m5b522cc587" x="426.895588" y="320.771625" style="fill: #1f2328; stroke: #1f2328; stroke-width: 0.8"/>
      </g>
     </g>
     <g id="text_7">
      <!-- 3 -->
      <g style="fill: #1f2328" transform="translate(424.645588 333.418344) scale(0.09 -0.09)">
       <use xlink:href="#STIXGeneral-Regular-33"/>
      </g>
     </g>
    </g>
    <g id="text_8">
     <!-- trace  $\tau=\mathrm{tr}\,A$ -->
     <g transform="translate(213.43 346.884281) scale(0.11 -0.11)">
      <defs>
       <path id="STIXGeneral-Regular-74" d="M 1702 493 
L 1786 422 
Q 1478 -64 1011 -64 
Q 448 -64 448 749 
L 448 2675 
L 109 2675 
Q 83 2694 83 2720 
Q 83 2771 192 2842 
Q 435 2982 813 3526 
Q 826 3546 874 3606 
Q 922 3667 941 3706 
Q 986 3706 986 3622 
L 986 2880 
L 1632 2880 
L 1632 2675 
L 986 2675 
L 986 845 
Q 986 538 1062 403 
Q 1139 269 1318 269 
Q 1510 269 1702 493 
z
" transform="scale(0.015625)"/>
       <path id="STIXGeneral-Regular-72" d="M 1024 2931 
L 1024 2342 
Q 1267 2688 1430 2816 
Q 1594 2944 1792 2944 
Q 1958 2944 2051 2854 
Q 2144 2765 2144 2605 
Q 2144 2470 2077 2393 
Q 2010 2317 1894 2317 
Q 1773 2317 1638 2445 
Q 1536 2541 1472 2541 
Q 1338 2541 1181 2355 
Q 1024 2170 1024 2016 
L 1024 576 
Q 1024 301 1133 205 
Q 1242 109 1568 96 
L 1568 0 
L 32 0 
L 32 96 
Q 339 154 412 224 
Q 486 294 486 538 
L 486 2138 
Q 486 2349 438 2435 
Q 390 2522 269 2522 
Q 166 2522 45 2496 
L 45 2598 
Q 448 2726 992 2944 
L 1024 2931 
z
" transform="scale(0.015625)"/>
       <path id="STIXGeneral-Regular-61" d="M 2829 422 
L 2829 243 
Q 2586 -64 2253 -64 
Q 1888 -64 1843 403 
L 1837 403 
Q 1427 -64 909 -64 
Q 608 -64 422 112 
Q 237 288 237 602 
Q 237 1050 685 1350 
Q 992 1555 1837 1869 
L 1837 2214 
Q 1837 2502 1699 2646 
Q 1562 2790 1338 2790 
Q 1146 2790 1018 2697 
Q 890 2605 890 2477 
Q 890 2419 909 2348 
Q 928 2278 928 2208 
Q 928 2112 841 2029 
Q 755 1946 634 1946 
Q 525 1946 441 2029 
Q 358 2112 358 2240 
Q 358 2547 685 2752 
Q 986 2944 1421 2944 
Q 1939 2944 2176 2656 
Q 2291 2522 2323 2384 
Q 2355 2246 2355 1946 
L 2355 723 
Q 2355 301 2554 301 
Q 2682 301 2829 422 
z
M 1837 813 
L 1837 1715 
Q 1248 1510 1018 1293 
Q 800 1094 800 800 
Q 800 557 921 432 
Q 1043 307 1242 307 
Q 1453 307 1613 410 
Q 1747 506 1792 589 
Q 1837 672 1837 813 
z
" transform="scale(0.015625)"/>
       <path id="STIXGeneral-Regular-63" d="M 2547 998 
L 2637 941 
Q 2362 403 2112 205 
Q 1786 -64 1376 -64 
Q 845 -64 502 336 
Q 160 736 160 1357 
Q 160 2170 698 2618 
Q 1094 2944 1562 2944 
Q 1965 2944 2256 2749 
Q 2547 2554 2547 2285 
Q 2547 2176 2457 2096 
Q 2368 2016 2246 2016 
Q 2022 2016 1939 2310 
L 1901 2451 
Q 1850 2630 1773 2694 
Q 1696 2758 1523 2758 
Q 1133 2758 893 2451 
Q 653 2144 653 1645 
Q 653 1094 928 745 
Q 1203 397 1645 397 
Q 1920 397 2118 528 
Q 2317 659 2547 998 
z
" transform="scale(0.015625)"/>
       <path id="STIXGeneral-Regular-65" d="M 2611 1050 
L 2714 1005 
Q 2330 -64 1376 -64 
Q 813 -64 486 329 
Q 160 723 160 1389 
Q 160 2074 525 2509 
Q 890 2944 1485 2944 
Q 2061 2944 2374 2502 
Q 2560 2246 2592 1773 
L 621 1773 
Q 646 1370 700 1158 
Q 755 947 915 730 
Q 1184 378 1626 378 
Q 1939 378 2153 531 
Q 2368 685 2611 1050 
z
M 634 1978 
L 1939 1978 
Q 1882 2381 1750 2547 
Q 1619 2714 1312 2714 
Q 1043 2714 864 2525 
Q 685 2336 634 1978 
z
" transform="scale(0.015625)"/>
       <path id="STIXGeneral-Regular-20" transform="scale(0.015625)"/>
       <path id="Cmmi10-bf" d="M 997 97 
Q 997 141 1006 166 
L 1678 2363 
L 1100 2363 
Q 866 2363 662 2216 
Q 459 2069 325 1844 
Q 313 1819 288 1819 
L 213 1819 
Q 153 1819 153 1881 
Q 153 1894 166 1919 
Q 375 2275 614 2517 
Q 853 2759 1153 2759 
L 3116 2759 
Q 3184 2759 3231 2712 
Q 3278 2666 3278 2597 
Q 3278 2503 3211 2433 
Q 3144 2363 3047 2363 
L 1888 2363 
L 1459 153 
Q 1434 50 1365 -17 
Q 1297 -84 1191 -84 
Q 1109 -84 1053 -32 
Q 997 19 997 97 
z
" transform="scale(0.015625)"/>
       <path id="Cmr10-3d" d="M 481 850 
Q 428 850 393 890 
Q 359 931 359 978 
Q 359 1031 393 1068 
Q 428 1106 481 1106 
L 4500 1106 
Q 4547 1106 4581 1068 
Q 4616 1031 4616 978 
Q 4616 931 4581 890 
Q 4547 850 4500 850 
L 481 850 
z
M 481 2094 
Q 428 2094 393 2131 
Q 359 2169 359 2222 
Q 359 2269 393 2309 
Q 428 2350 481 2350 
L 4500 2350 
Q 4547 2350 4581 2309 
Q 4616 2269 4616 2222 
Q 4616 2169 4581 2131 
Q 4547 2094 4500 2094 
L 481 2094 
z
" transform="scale(0.015625)"/>
       <path id="Cmr10-74" d="M 653 769 
L 653 2534 
L 122 2534 
L 122 2700 
Q 541 2700 737 3090 
Q 934 3481 934 3938 
L 1119 3938 
L 1119 2759 
L 2022 2759 
L 2022 2534 
L 1119 2534 
L 1119 781 
Q 1119 516 1208 316 
Q 1297 116 1528 116 
Q 1747 116 1844 327 
Q 1941 538 1941 781 
L 1941 1159 
L 2125 1159 
L 2125 769 
Q 2125 569 2051 373 
Q 1978 178 1834 53 
Q 1691 -72 1484 -72 
Q 1100 -72 876 158 
Q 653 388 653 769 
z
" transform="scale(0.015625)"/>
       <path id="Cmr10-72" d="M 166 0 
L 166 225 
Q 384 225 525 259 
Q 666 294 666 428 
L 666 2175 
Q 666 2347 614 2423 
Q 563 2500 466 2517 
Q 369 2534 166 2534 
L 166 2759 
L 1081 2828 
L 1081 2203 
Q 1184 2481 1375 2654 
Q 1566 2828 1838 2828 
Q 2028 2828 2178 2715 
Q 2328 2603 2328 2419 
Q 2328 2303 2245 2217 
Q 2163 2131 2041 2131 
Q 1922 2131 1837 2215 
Q 1753 2300 1753 2419 
Q 1753 2591 1875 2663 
L 1838 2663 
Q 1578 2663 1414 2475 
Q 1250 2288 1181 2009 
Q 1113 1731 1113 1478 
L 1113 428 
Q 1113 225 1734 225 
L 1734 0 
L 166 0 
z
" transform="scale(0.015625)"/>
       <path id="Cmmi10-41" d="M 288 0 
Q 225 0 225 84 
Q 250 225 306 225 
Q 566 225 755 328 
Q 944 431 1081 647 
Q 1094 659 1094 659 
L 3378 4513 
Q 3428 4581 3500 4581 
L 3584 4581 
Q 3603 4581 3622 4573 
Q 3641 4566 3655 4548 
Q 3669 4531 3669 4513 
L 4056 378 
Q 4056 350 4084 294 
Q 4147 225 4563 225 
Q 4628 225 4628 141 
Q 4606 56 4592 28 
Q 4578 0 4519 0 
L 2919 0 
Q 2859 0 2859 84 
Q 2894 225 2944 225 
Q 3450 225 3481 397 
L 3384 1453 
L 1806 1453 
L 1294 594 
Q 1247 525 1247 434 
Q 1247 322 1355 273 
Q 1463 225 1594 225 
Q 1656 225 1656 141 
Q 1634 50 1621 25 
Q 1609 0 1550 0 
L 288 0 
z
M 1931 1678 
L 3359 1678 
L 3169 3750 
L 1931 1678 
z
" transform="scale(0.015625)"/>
      </defs>
      <use xlink:href="#STIXGeneral-Regular-74" transform="translate(0 0.421875)"/>
      <use xlink:href="#STIXGeneral-Regular-72" transform="translate(27.799988 0.421875)"/>
      <use xlink:href="#STIXGeneral-Regular-61" transform="translate(61.099976 0.421875)"/>
      <use xlink:href="#STIXGeneral-Regular-63" transform="translate(105.499969 0.421875)"/>
      <use xlink:href="#STIXGeneral-Regular-65" transform="translate(149.899963 0.421875)"/>
      <use xlink:href="#STIXGeneral-Regular-20" transform="translate(194.299957 0.421875)"/>
      <use xlink:href="#STIXGeneral-Regular-20" transform="translate(219.299942 0.421875)"/>
      <use xlink:href="#Cmmi10-bf" transform="translate(244.299927 0.421875)"/>
      <use xlink:href="#Cmr10-3d" transform="translate(305.559692 0.421875)"/>
      <use xlink:href="#Cmr10-74" transform="translate(400.803833 0.421875)"/>
      <use xlink:href="#Cmr10-72" transform="translate(439.622192 0.421875)"/>
      <use xlink:href="#Cmmi10-41" transform="translate(493.365975 0.421875)"/>
     </g>
    </g>
   </g>
   <g id="matplotlib.axis_2">
    <g id="ytick_1">
     <g id="line2d_8">
      <defs>
       <path id="m957cf9f418" d="M 0 0 
L -3 0 
" style="stroke: #1f2328; stroke-width: 0.8"/>
      </defs>
      <g>
       <use xlink:href="#m957cf9f418" x="38.265" y="296.332768" style="fill: #1f2328; stroke: #1f2328; stroke-width: 0.8"/>
      </g>
     </g>
     <g id="text_9">
      <!-- −1 -->
      <g style="fill: #1f2328" transform="translate(21.1 299.406127) scale(0.09 -0.09)">
       <use xlink:href="#STIXGeneral-Regular-2212"/>
       <use xlink:href="#STIXGeneral-Regular-31" x="68.499985"/>
      </g>
     </g>
    </g>
    <g id="ytick_2">
     <g id="line2d_9">
      <g>
       <use xlink:href="#m957cf9f418" x="38.265" y="235.235625" style="fill: #1f2328; stroke: #1f2328; stroke-width: 0.8"/>
      </g>
     </g>
     <g id="text_10">
      <!-- 0 -->
      <g style="fill: #1f2328" transform="translate(27.265 238.308984) scale(0.09 -0.09)">
       <use xlink:href="#STIXGeneral-Regular-30"/>
      </g>
     </g>
    </g>
    <g id="ytick_3">
     <g id="line2d_10">
      <g>
       <use xlink:href="#m957cf9f418" x="38.265" y="174.138482" style="fill: #1f2328; stroke: #1f2328; stroke-width: 0.8"/>
      </g>
     </g>
     <g id="text_11">
      <!-- 1 -->
      <g style="fill: #1f2328" transform="translate(27.265 177.211842) scale(0.09 -0.09)">
       <use xlink:href="#STIXGeneral-Regular-31"/>
      </g>
     </g>
    </g>
    <g id="ytick_4">
     <g id="line2d_11">
      <g>
       <use xlink:href="#m957cf9f418" x="38.265" y="113.041339" style="fill: #1f2328; stroke: #1f2328; stroke-width: 0.8"/>
      </g>
     </g>
     <g id="text_12">
      <!-- 2 -->
      <g style="fill: #1f2328" transform="translate(27.265 116.114699) scale(0.09 -0.09)">
       <use xlink:href="#STIXGeneral-Regular-32"/>
      </g>
     </g>
    </g>
    <g id="ytick_5">
     <g id="line2d_12">
      <g>
       <use xlink:href="#m957cf9f418" x="38.265" y="51.944196" style="fill: #1f2328; stroke: #1f2328; stroke-width: 0.8"/>
      </g>
     </g>
     <g id="text_13">
      <!-- 3 -->
      <g style="fill: #1f2328" transform="translate(27.265 55.017556) scale(0.09 -0.09)">
       <use xlink:href="#STIXGeneral-Regular-33"/>
      </g>
     </g>
    </g>
    <g id="text_14">
     <!-- determinant  $\Delta=\det A$ -->
     <g transform="translate(14.712656 223.498625) rotate(-90) scale(0.11 -0.11)">
      <defs>
       <path id="STIXGeneral-Regular-64" d="M 3142 269 
L 2202 -64 
L 2176 -45 
L 2176 365 
Q 1869 -64 1357 -64 
Q 826 -64 499 317 
Q 173 698 173 1312 
Q 173 1990 563 2467 
Q 954 2944 1504 2944 
Q 1850 2944 2176 2669 
L 2176 3667 
Q 2176 3866 2118 3930 
Q 2061 3994 1882 3994 
Q 1792 3994 1741 3987 
L 1741 4090 
Q 2323 4243 2682 4371 
L 2714 4358 
L 2714 730 
Q 2714 506 2768 435 
Q 2822 365 2995 365 
Q 3034 365 3142 371 
L 3142 269 
z
M 2176 653 
L 2176 2125 
Q 2176 2381 1981 2573 
Q 1786 2765 1523 2765 
Q 1158 2765 940 2438 
Q 723 2112 723 1568 
Q 723 979 963 624 
Q 1203 269 1606 269 
Q 1907 269 2080 474 
Q 2176 582 2176 653 
z
" transform="scale(0.015625)"/>
       <path id="STIXGeneral-Regular-6d" d="M 4960 0 
L 3565 0 
L 3565 96 
Q 3834 122 3907 208 
Q 3981 294 3981 576 
L 3981 1894 
Q 3981 2278 3869 2444 
Q 3757 2611 3488 2611 
Q 3264 2611 3107 2521 
Q 2950 2432 2803 2221 
L 2803 608 
Q 2803 301 2896 201 
Q 2989 102 3264 96 
L 3264 0 
L 1830 0 
L 1830 96 
Q 2112 115 2189 188 
Q 2266 262 2266 550 
L 2266 1901 
Q 2266 2611 1850 2611 
Q 1670 2611 1468 2531 
Q 1267 2451 1171 2336 
Q 1088 2240 1088 2227 
L 1088 448 
Q 1088 243 1177 176 
Q 1267 109 1523 96 
L 1523 0 
L 102 0 
L 102 96 
Q 371 102 460 195 
Q 550 288 550 563 
L 550 2150 
Q 550 2387 499 2480 
Q 448 2573 326 2573 
Q 230 2573 122 2547 
L 122 2656 
Q 557 2778 1011 2944 
L 1062 2925 
L 1062 2451 
L 1075 2451 
Q 1363 2752 1584 2848 
Q 1805 2944 2054 2944 
Q 2560 2944 2733 2406 
Q 3232 2944 3776 2944 
Q 4518 2944 4518 1792 
L 4518 493 
Q 4518 282 4582 202 
Q 4646 122 4794 109 
L 4960 96 
L 4960 0 
z
" transform="scale(0.015625)"/>
       <path id="STIXGeneral-Regular-69" d="M 1152 4045 
Q 1152 3904 1056 3811 
Q 960 3718 819 3718 
Q 685 3718 592 3811 
Q 499 3904 499 4045 
Q 499 4179 595 4275 
Q 691 4371 826 4371 
Q 966 4371 1059 4275 
Q 1152 4179 1152 4045 
z
M 1619 0 
L 102 0 
L 102 96 
Q 435 115 521 211 
Q 608 307 608 666 
L 608 2118 
Q 608 2342 563 2432 
Q 518 2522 397 2522 
Q 243 2522 128 2490 
L 128 2592 
L 1120 2944 
L 1146 2918 
L 1146 672 
Q 1146 314 1226 218 
Q 1306 122 1619 96 
L 1619 0 
z
" transform="scale(0.015625)"/>
       <path id="STIXGeneral-Regular-6e" d="M 3104 0 
L 1773 0 
L 1779 96 
Q 2016 115 2096 233 
Q 2176 352 2176 672 
L 2176 1946 
Q 2176 2592 1709 2592 
Q 1549 2592 1408 2515 
Q 1267 2438 1050 2227 
L 1050 461 
Q 1050 269 1136 192 
Q 1222 115 1466 96 
L 1466 0 
L 115 0 
L 115 96 
Q 358 115 435 214 
Q 512 314 512 602 
L 512 2157 
Q 512 2394 467 2483 
Q 422 2573 288 2573 
Q 160 2573 102 2547 
L 102 2656 
Q 550 2784 979 2944 
L 1030 2925 
L 1030 2426 
L 1037 2426 
Q 1491 2944 1958 2944 
Q 2323 2944 2518 2688 
Q 2714 2432 2714 1958 
L 2714 544 
Q 2714 288 2790 205 
Q 2867 122 3104 96 
L 3104 0 
z
" transform="scale(0.015625)"/>
       <path id="Cmr10-a2" d="M 347 0 
Q 294 0 294 50 
Q 297 56 298 59 
Q 300 63 300 72 
L 2503 4513 
Q 2531 4581 2619 4581 
L 2706 4581 
Q 2794 4581 2822 4513 
L 5025 72 
Q 5028 66 5029 61 
Q 5031 56 5031 50 
Q 5031 0 4978 0 
L 347 0 
z
M 769 513 
L 4141 513 
L 2456 3909 
L 769 513 
z
" transform="scale(0.015625)"/>
       <path id="Cmr10-64" d="M 1563 -72 
Q 1184 -72 871 133 
Q 559 338 386 672 
Q 213 1006 213 1381 
Q 213 1769 402 2101 
Q 591 2434 916 2631 
Q 1241 2828 1631 2828 
Q 1866 2828 2075 2729 
Q 2284 2631 2438 2456 
L 2438 3788 
Q 2438 3959 2386 4036 
Q 2334 4113 2239 4130 
Q 2144 4147 1941 4147 
L 1941 4372 
L 2888 4441 
L 2888 581 
Q 2888 413 2939 336 
Q 2991 259 3086 242 
Q 3181 225 3384 225 
L 3384 0 
L 2419 -72 
L 2419 331 
Q 2253 141 2025 34 
Q 1797 -72 1563 -72 
z
M 909 556 
Q 1019 347 1201 222 
Q 1384 97 1600 97 
Q 1866 97 2087 250 
Q 2309 403 2419 647 
L 2419 2181 
Q 2344 2322 2230 2433 
Q 2116 2544 1973 2603 
Q 1831 2663 1672 2663 
Q 1338 2663 1134 2473 
Q 931 2284 850 1990 
Q 769 1697 769 1375 
Q 769 1119 795 928 
Q 822 738 909 556 
z
" transform="scale(0.015625)"/>
       <path id="Cmr10-65" d="M 1594 -72 
Q 1203 -72 876 133 
Q 550 338 364 680 
Q 178 1022 178 1403 
Q 178 1778 348 2115 
Q 519 2453 823 2661 
Q 1128 2869 1503 2869 
Q 1797 2869 2014 2770 
Q 2231 2672 2372 2497 
Q 2513 2322 2584 2084 
Q 2656 1847 2656 1563 
Q 2656 1478 2591 1478 
L 738 1478 
L 738 1409 
Q 738 878 952 497 
Q 1166 116 1650 116 
Q 1847 116 2014 203 
Q 2181 291 2304 447 
Q 2428 603 2472 781 
Q 2478 803 2495 820 
Q 2513 838 2534 838 
L 2591 838 
Q 2656 838 2656 756 
Q 2566 394 2266 161 
Q 1966 -72 1594 -72 
z
M 744 1638 
L 2203 1638 
Q 2203 1878 2136 2125 
Q 2069 2372 1912 2536 
Q 1756 2700 1503 2700 
Q 1141 2700 942 2361 
Q 744 2022 744 1638 
z
" transform="scale(0.015625)"/>
      </defs>
      <use xlink:href="#STIXGeneral-Regular-64" transform="translate(0 0.421875)"/>
      <use xlink:href="#STIXGeneral-Regular-65" transform="translate(49.999985 0.421875)"/>
      <use xlink:href="#STIXGeneral-Regular-74" transform="translate(94.399979 0.421875)"/>
      <use xlink:href="#STIXGeneral-Regular-65" transform="translate(122.199966 0.421875)"/>
      <use xlink:href="#STIXGeneral-Regular-72" transform="translate(166.59996 0.421875)"/>
      <use xlink:href="#STIXGeneral-Regular-6d" transform="translate(199.899948 0.421875)"/>
      <use xlink:href="#STIXGeneral-Regular-69" transform="translate(277.699936 0.421875)"/>
      <use xlink:href="#STIXGeneral-Regular-6e" transform="translate(305.499924 0.421875)"/>
      <use xlink:href="#STIXGeneral-Regular-61" transform="translate(355.499908 0.421875)"/>
      <use xlink:href="#STIXGeneral-Regular-6e" transform="translate(399.899902 0.421875)"/>
      <use xlink:href="#STIXGeneral-Regular-74" transform="translate(449.899887 0.421875)"/>
      <use xlink:href="#STIXGeneral-Regular-20" transform="translate(477.699875 0.421875)"/>
      <use xlink:href="#STIXGeneral-Regular-20" transform="translate(502.69986 0.421875)"/>
      <use xlink:href="#Cmr10-a2" transform="translate(527.699844 0.421875)"/>
      <use xlink:href="#Cmr10-3d" transform="translate(628.559219 0.421875)"/>
      <use xlink:href="#Cmr10-64" transform="translate(723.80336 0.421875)"/>
      <use xlink:href="#Cmr10-65" transform="translate(779.320938 0.421875)"/>
      <use xlink:href="#Cmr10-74" transform="translate(823.705704 0.421875)"/>
      <use xlink:href="#Cmmi10-41" transform="translate(877.156517 0.421875)"/>
     </g>
    </g>
   </g>
   <g id="line2d_13">
    <path d="M 38.265 58.664882 
L 45.509211 70.838427 
L 52.753421 82.577202 
L 59.997632 93.881208 
L 67.241842 104.750444 
L 74.486053 115.184911 
L 81.730263 125.184608 
L 87.939586 133.409736 
L 94.14891 141.315442 
L 100.358233 148.901725 
L 106.567556 156.168586 
L 112.77688 163.116024 
L 118.986203 169.74404 
L 125.195526 176.052634 
L 131.40485 182.041805 
L 137.614173 187.711553 
L 143.823496 193.061879 
L 150.03282 198.092783 
L 156.242143 202.804264 
L 162.451466 207.196323 
L 168.660789 211.268959 
L 173.835226 214.418819 
L 179.009662 217.346859 
L 184.184098 220.053077 
L 189.358534 222.537473 
L 194.53297 224.800049 
L 199.707406 226.840804 
L 204.881842 228.659737 
L 210.056278 230.256849 
L 215.230714 231.63214 
L 220.40515 232.78561 
L 225.579586 233.717259 
L 230.754023 234.427087 
L 235.928459 234.915093 
L 241.102895 235.181279 
L 246.277331 235.225643 
L 251.451767 235.048186 
L 256.626203 234.648908 
L 261.800639 234.027809 
L 266.975075 233.184888 
L 272.149511 232.120147 
L 277.323947 230.833584 
L 282.498383 229.325201 
L 287.67282 227.594996 
L 292.847256 225.642969 
L 298.021692 223.469122 
L 303.196128 221.073454 
L 308.370564 218.455964 
L 313.545 215.616654 
L 318.719436 212.555522 
L 323.893872 209.272569 
L 330.103195 205.040221 
L 336.312519 200.488451 
L 342.521842 195.617259 
L 348.731165 190.426644 
L 354.940489 184.916607 
L 361.149812 179.087147 
L 367.359135 172.938265 
L 373.568459 166.46996 
L 379.777782 159.682233 
L 385.987105 152.575083 
L 392.196429 145.148511 
L 398.405752 137.402517 
L 404.615075 129.3371 
L 410.824398 120.95226 
L 418.068609 110.766233 
L 425.31282 100.145437 
L 432.55703 89.089871 
L 439.801241 77.599535 
L 447.045451 65.67443 
L 451.185 58.664882 
L 451.185 58.664882 
" clip-path="url(#pd7cf6cb578)" style="fill: none; stroke: #1f2328; stroke-width: 2; stroke-linecap: square"/>
   </g>
   <g id="line2d_14">
    <path d="M 38.265 235.235625 
L 451.185 235.235625 
" clip-path="url(#pd7cf6cb578)" style="fill: none; stroke: #1f2328; stroke-width: 1.2; stroke-linecap: square"/>
   </g>
   <g id="line2d_15">
    <path d="M 244.725 320.771625 
L 244.725 21.395625 
" clip-path="url(#pd7cf6cb578)" style="fill: none; stroke: #1f2328; stroke-opacity: 0.6; stroke-width: 0.8; stroke-linecap: square"/>
   </g>
   <g id="line2d_16">
    <path d="M 244.725 234.013682 
L 244.725 21.395625 
" clip-path="url(#pd7cf6cb578)" style="fill: none; stroke: #d55e00; stroke-width: 2.2; stroke-linecap: square"/>
   </g>
   <g id="line2d_17">
    <defs>
     <path id="ma21bffa0f1" d="M 0 2 
C 0.530406 2 1.03916 1.789267 1.414214 1.414214 
C 1.789267 1.03916 2 0.530406 2 0 
C 2 -0.530406 1.789267 -1.03916 1.414214 -1.414214 
C 1.03916 -1.789267 0.530406 -2 0 -2 
C -0.530406 -2 -1.03916 -1.789267 -1.414214 -1.414214 
C -1.789267 -1.03916 -2 -0.530406 -2 0 
C -2 0.530406 -1.789267 1.03916 -1.414214 1.414214 
C -1.03916 1.789267 -0.530406 2 0 2 
z
" style="stroke: #1f2328"/>
    </defs>
    <g clip-path="url(#pd7cf6cb578)">
     <use xlink:href="#ma21bffa0f1" x="141.495" y="191.092939" style="fill: #1f2328; stroke: #1f2328"/>
     <use xlink:href="#ma21bffa0f1" x="347.955" y="191.092939" style="fill: #1f2328; stroke: #1f2328"/>
    </g>
   </g>
   <g id="patch_3">
    <path d="M 38.265 320.771625 
L 38.265 21.395625 
" style="fill: none; stroke: #1f2328; stroke-width: 0.8; stroke-linejoin: miter; stroke-linecap: square"/>
   </g>
   <g id="patch_4">
    <path d="M 38.265 320.771625 
L 451.185 320.771625 
" style="fill: none; stroke: #1f2328; stroke-width: 0.8; stroke-linejoin: miter; stroke-linecap: square"/>
   </g>
   <g id="text_15">
    <!-- $\tau^2=4\Delta$ -->
    <g style="fill: #1f2328" transform="translate(373.778188 92.477513) rotate(-42) scale(0.1 -0.1)">
     <defs>
      <path id="Cmr10-32" d="M 319 0 
L 319 172 
Q 319 188 331 206 
L 1325 1306 
Q 1550 1550 1690 1715 
Q 1831 1881 1968 2097 
Q 2106 2313 2186 2536 
Q 2266 2759 2266 3009 
Q 2266 3272 2169 3511 
Q 2072 3750 1880 3894 
Q 1688 4038 1416 4038 
Q 1138 4038 916 3870 
Q 694 3703 603 3438 
Q 628 3444 672 3444 
Q 816 3444 917 3347 
Q 1019 3250 1019 3097 
Q 1019 2950 917 2848 
Q 816 2747 672 2747 
Q 522 2747 420 2851 
Q 319 2956 319 3097 
Q 319 3338 409 3548 
Q 500 3759 670 3923 
Q 841 4088 1055 4175 
Q 1269 4263 1509 4263 
Q 1875 4263 2190 4108 
Q 2506 3953 2690 3670 
Q 2875 3388 2875 3009 
Q 2875 2731 2753 2481 
Q 2631 2231 2440 2026 
Q 2250 1822 1953 1562 
Q 1656 1303 1563 1216 
L 838 519 
L 1453 519 
Q 1906 519 2211 526 
Q 2516 534 2534 550 
Q 2609 631 2688 1141 
L 2875 1141 
L 2694 0 
L 319 0 
z
" transform="scale(0.015625)"/>
      <path id="Cmr10-34" d="M 178 1056 
L 178 1281 
L 2156 4231 
Q 2178 4263 2222 4263 
L 2316 4263 
Q 2388 4263 2388 4191 
L 2388 1281 
L 3016 1281 
L 3016 1056 
L 2388 1056 
L 2388 428 
Q 2388 297 2575 261 
Q 2763 225 3009 225 
L 3009 0 
L 1247 0 
L 1247 225 
Q 1494 225 1681 261 
Q 1869 297 1869 428 
L 1869 1056 
L 178 1056 
z
M 391 1281 
L 1906 1281 
L 1906 3547 
L 391 1281 
z
" transform="scale(0.015625)"/>
     </defs>
     <use xlink:href="#Cmmi10-bf" transform="translate(0 0.109375)"/>
     <use xlink:href="#Cmr10-32" transform="translate(49.778047 38.373438) scale(0.7)"/>
     <use xlink:href="#Cmr10-3d" transform="translate(108.713984 0.109375)"/>
     <use xlink:href="#Cmr10-34" transform="translate(203.958125 0.109375)"/>
     <use xlink:href="#Cmr10-a2" transform="translate(253.958125 0.109375)"/>
    </g>
   </g>
   <g id="text_16">
    <!-- spirals / foci -->
    <g style="fill: #0072b2" transform="translate(220.004688 81.767598) scale(0.1 -0.1)">
     <defs>
      <path id="STIXGeneral-Regular-73" d="M 998 1926 
L 1664 1523 
Q 1984 1331 2105 1164 
Q 2227 998 2227 736 
Q 2227 416 1961 176 
Q 1696 -64 1331 -64 
Q 1030 -64 864 -6 
Q 691 51 570 51 
Q 461 51 416 -26 
L 333 -26 
L 333 979 
L 435 979 
Q 538 512 730 294 
Q 922 77 1248 77 
Q 1485 77 1632 211 
Q 1779 346 1779 550 
Q 1779 845 1440 1030 
L 1094 1222 
Q 326 1651 326 2150 
Q 326 2522 566 2730 
Q 806 2938 1210 2938 
Q 1491 2938 1638 2867 
Q 1754 2816 1818 2816 
Q 1862 2816 1920 2880 
L 1990 2880 
L 2022 2010 
L 1926 2010 
Q 1818 2445 1654 2621 
Q 1491 2797 1203 2797 
Q 986 2797 854 2688 
Q 723 2579 723 2362 
Q 723 2253 796 2128 
Q 870 2003 998 1926 
z
" transform="scale(0.015625)"/>
      <path id="STIXGeneral-Regular-70" d="M 1018 2931 
L 1018 2438 
Q 1421 2944 1939 2944 
Q 2406 2944 2707 2560 
Q 3008 2176 3008 1581 
Q 3008 883 2621 409 
Q 2234 -64 1664 -64 
Q 1466 -64 1328 -6 
Q 1190 51 1018 211 
L 1018 -794 
Q 1018 -1094 1120 -1180 
Q 1222 -1267 1581 -1274 
L 1581 -1389 
L 32 -1389 
L 32 -1280 
Q 314 -1254 397 -1171 
Q 480 -1088 480 -838 
L 480 2157 
Q 480 2381 429 2451 
Q 378 2522 218 2522 
Q 115 2522 58 2515 
L 58 2618 
Q 506 2752 979 2944 
L 1018 2931 
z
M 1018 2138 
L 1018 563 
Q 1018 422 1238 281 
Q 1459 141 1683 141 
Q 2029 141 2243 467 
Q 2458 794 2458 1325 
Q 2458 1888 2243 2224 
Q 2029 2560 1670 2560 
Q 1446 2560 1232 2419 
Q 1018 2278 1018 2138 
z
" transform="scale(0.015625)"/>
      <path id="STIXGeneral-Regular-6c" d="M 1645 0 
L 134 0 
L 134 96 
Q 435 122 531 221 
Q 627 320 627 589 
L 627 3590 
Q 627 3821 569 3910 
Q 512 4000 358 4000 
Q 224 4000 122 3987 
L 122 4090 
Q 730 4237 1133 4371 
L 1165 4346 
L 1165 557 
Q 1165 288 1254 201 
Q 1344 115 1645 96 
L 1645 0 
z
" transform="scale(0.015625)"/>
      <path id="STIXGeneral-Regular-2f" d="M 1837 4326 
L 378 -90 
L -58 -90 
L 1408 4326 
L 1837 4326 
z
" transform="scale(0.015625)"/>
      <path id="STIXGeneral-Regular-66" d="M 134 2880 
L 659 2880 
Q 666 3264 710 3478 
Q 755 3693 883 3910 
Q 1152 4371 1786 4371 
Q 2074 4371 2262 4259 
Q 2451 4147 2451 3974 
Q 2451 3866 2374 3789 
Q 2298 3712 2182 3712 
Q 2029 3712 1894 3942 
Q 1741 4192 1555 4192 
Q 1197 4192 1197 3622 
L 1197 2880 
L 1978 2880 
L 1978 2675 
L 1197 2675 
L 1197 666 
Q 1197 307 1299 208 
Q 1402 109 1792 96 
L 1792 0 
L 128 0 
L 128 96 
Q 474 115 566 214 
Q 659 314 659 666 
L 659 2675 
L 134 2675 
L 134 2880 
z
" transform="scale(0.015625)"/>
      <path id="STIXGeneral-Regular-6f" d="M 3008 1478 
Q 3008 806 2608 371 
Q 2208 -64 1568 -64 
Q 979 -64 582 368 
Q 186 800 186 1459 
Q 186 2125 582 2534 
Q 979 2944 1626 2944 
Q 2221 2944 2614 2537 
Q 3008 2131 3008 1478 
z
M 2432 1306 
Q 2432 2035 2112 2445 
Q 1856 2765 1504 2765 
Q 1171 2765 966 2493 
Q 762 2221 762 1747 
Q 762 928 1101 435 
Q 1318 115 1677 115 
Q 2029 115 2230 432 
Q 2432 749 2432 1306 
z
" transform="scale(0.015625)"/>
     </defs>
     <use xlink:href="#STIXGeneral-Regular-73"/>
     <use xlink:href="#STIXGeneral-Regular-70" x="38.899994"/>
     <use xlink:href="#STIXGeneral-Regular-69" x="88.899979"/>
     <use xlink:href="#STIXGeneral-Regular-72" x="116.699966"/>
     <use xlink:href="#STIXGeneral-Regular-61" x="149.999954"/>
     <use xlink:href="#STIXGeneral-Regular-6c" x="194.399948"/>
     <use xlink:href="#STIXGeneral-Regular-73" x="222.199936"/>
     <use xlink:href="#STIXGeneral-Regular-20" x="261.09993"/>
     <use xlink:href="#STIXGeneral-Regular-2f" x="286.099915"/>
     <use xlink:href="#STIXGeneral-Regular-20" x="313.899902"/>
     <use xlink:href="#STIXGeneral-Regular-66" x="338.899887"/>
     <use xlink:href="#STIXGeneral-Regular-6f" x="372.199875"/>
     <use xlink:href="#STIXGeneral-Regular-63" x="422.19986"/>
     <use xlink:href="#STIXGeneral-Regular-69" x="466.599854"/>
    </g>
   </g>
   <g id="text_17">
    <!-- stable -->
    <g style="fill: #009e73" transform="translate(78.214375 113.242915) scale(0.1 -0.1)">
     <defs>
      <path id="STIXGeneral-Regular-62" d="M 979 4358 
L 979 2406 
Q 1082 2650 1315 2797 
Q 1549 2944 1843 2944 
Q 2349 2944 2672 2541 
Q 2995 2138 2995 1536 
Q 2995 832 2566 384 
Q 2138 -64 1498 -64 
Q 1107 -64 774 67 
Q 442 198 442 358 
L 442 3622 
Q 442 3859 384 3926 
Q 326 3994 128 3994 
Q 83 3994 19 3981 
L 19 4090 
L 211 4147 
Q 864 4346 947 4371 
L 979 4358 
z
M 979 2035 
L 979 474 
Q 979 326 1161 233 
Q 1344 141 1600 141 
Q 1978 141 2195 416 
Q 2432 710 2432 1261 
Q 2432 1888 2182 2240 
Q 1971 2541 1613 2541 
Q 1357 2541 1168 2390 
Q 979 2240 979 2035 
z
" transform="scale(0.015625)"/>
     </defs>
     <use xlink:href="#STIXGeneral-Regular-73"/>
     <use xlink:href="#STIXGeneral-Regular-74" x="38.899994"/>
     <use xlink:href="#STIXGeneral-Regular-61" x="66.699982"/>
     <use xlink:href="#STIXGeneral-Regular-62" x="111.099976"/>
     <use xlink:href="#STIXGeneral-Regular-6c" x="161.09996"/>
     <use xlink:href="#STIXGeneral-Regular-65" x="188.899948"/>
    </g>
    <!-- spiral -->
    <g style="fill: #009e73" transform="translate(78.769844 123.608853) scale(0.1 -0.1)">
     <use xlink:href="#STIXGeneral-Regular-73"/>
     <use xlink:href="#STIXGeneral-Regular-70" x="38.899994"/>
     <use xlink:href="#STIXGeneral-Regular-69" x="88.899979"/>
     <use xlink:href="#STIXGeneral-Regular-72" x="116.699966"/>
     <use xlink:href="#STIXGeneral-Regular-61" x="149.999954"/>
     <use xlink:href="#STIXGeneral-Regular-6c" x="194.399948"/>
    </g>
   </g>
   <g id="text_18">
    <!-- unstable -->
    <g style="fill: #d55e00" transform="translate(382.904375 113.242915) scale(0.1 -0.1)">
     <defs>
      <path id="STIXGeneral-Regular-75" d="M 3072 320 
L 3072 230 
Q 2573 96 2195 -58 
L 2163 -38 
L 2163 486 
L 2150 486 
Q 1747 -64 1235 -64 
Q 870 -64 662 160 
Q 454 384 454 755 
L 454 2362 
Q 454 2598 371 2688 
Q 288 2778 58 2790 
L 58 2880 
L 992 2880 
L 992 813 
Q 992 595 1123 451 
Q 1254 307 1446 307 
Q 1760 307 1984 506 
Q 2067 582 2099 649 
Q 2131 717 2131 877 
L 2131 2355 
Q 2131 2605 2041 2678 
Q 1952 2752 1658 2771 
L 1658 2880 
L 2669 2880 
L 2669 685 
Q 2669 461 2742 390 
Q 2816 320 3034 320 
L 3072 320 
z
" transform="scale(0.015625)"/>
     </defs>
     <use xlink:href="#STIXGeneral-Regular-75"/>
     <use xlink:href="#STIXGeneral-Regular-6e" x="49.999985"/>
     <use xlink:href="#STIXGeneral-Regular-73" x="99.999969"/>
     <use xlink:href="#STIXGeneral-Regular-74" x="138.899963"/>
     <use xlink:href="#STIXGeneral-Regular-61" x="166.699951"/>
     <use xlink:href="#STIXGeneral-Regular-62" x="211.099945"/>
     <use xlink:href="#STIXGeneral-Regular-6c" x="261.09993"/>
     <use xlink:href="#STIXGeneral-Regular-65" x="288.899918"/>
    </g>
    <!-- spiral -->
    <g style="fill: #d55e00" transform="translate(388.459844 123.608853) scale(0.1 -0.1)">
     <use xlink:href="#STIXGeneral-Regular-73"/>
     <use xlink:href="#STIXGeneral-Regular-70" x="38.899994"/>
     <use xlink:href="#STIXGeneral-Regular-69" x="88.899979"/>
     <use xlink:href="#STIXGeneral-Regular-72" x="116.699966"/>
     <use xlink:href="#STIXGeneral-Regular-61" x="149.999954"/>
     <use xlink:href="#STIXGeneral-Regular-6c" x="194.399948"/>
    </g>
   </g>
   <g id="text_19">
    <!-- saddle  ($\Delta&lt;0$) -->
    <g style="fill: #e69f00" transform="translate(213.775 283.38817) scale(0.1 -0.1)">
     <defs>
      <path id="STIXGeneral-Regular-28" d="M 1946 -1030 
L 1869 -1133 
Q 1126 -710 716 32 
Q 307 774 307 1613 
Q 307 3386 1888 4326 
L 1946 4224 
Q 1293 3667 1075 3126 
Q 858 2586 858 1632 
Q 858 685 1082 96 
Q 1306 -493 1946 -1030 
z
" transform="scale(0.015625)"/>
      <path id="Cmmi10-3c" d="M 594 1491 
Q 531 1519 531 1600 
Q 531 1681 616 1722 
L 4269 3444 
Q 4294 3456 4313 3456 
Q 4369 3456 4405 3417 
Q 4441 3378 4441 3328 
Q 4441 3250 4366 3206 
L 959 1600 
L 4384 -19 
Q 4441 -38 4441 -128 
Q 4441 -178 4405 -217 
Q 4369 -256 4313 -256 
Q 4294 -256 4269 -244 
L 594 1491 
z
" transform="scale(0.015625)"/>
      <path id="Cmr10-30" d="M 1600 -141 
Q 816 -141 533 504 
Q 250 1150 250 2041 
Q 250 2597 351 3087 
Q 453 3578 754 3920 
Q 1056 4263 1600 4263 
Q 2022 4263 2290 4056 
Q 2559 3850 2700 3523 
Q 2841 3197 2892 2823 
Q 2944 2450 2944 2041 
Q 2944 1491 2842 1011 
Q 2741 531 2444 195 
Q 2147 -141 1600 -141 
z
M 1600 25 
Q 1956 25 2131 390 
Q 2306 756 2347 1200 
Q 2388 1644 2388 2144 
Q 2388 2625 2347 3031 
Q 2306 3438 2132 3767 
Q 1959 4097 1600 4097 
Q 1238 4097 1063 3765 
Q 888 3434 847 3029 
Q 806 2625 806 2144 
Q 806 1788 823 1472 
Q 841 1156 916 820 
Q 991 484 1158 254 
Q 1325 25 1600 25 
z
" transform="scale(0.015625)"/>
      <path id="STIXGeneral-Regular-29" d="M 186 4224 
L 262 4326 
Q 992 3891 1408 3148 
Q 1824 2406 1824 1581 
Q 1824 -166 243 -1133 
L 186 -1030 
Q 845 -486 1059 54 
Q 1274 595 1274 1562 
Q 1274 2534 1059 3120 
Q 845 3706 186 4224 
z
" transform="scale(0.015625)"/>
     </defs>
     <use xlink:href="#STIXGeneral-Regular-73" transform="translate(0 0.421875)"/>
     <use xlink:href="#STIXGeneral-Regular-61" transform="translate(38.899994 0.421875)"/>
     <use xlink:href="#STIXGeneral-Regular-64" transform="translate(83.299988 0.421875)"/>
     <use xlink:href="#STIXGeneral-Regular-64" transform="translate(133.299973 0.421875)"/>
     <use xlink:href="#STIXGeneral-Regular-6c" transform="translate(183.299957 0.421875)"/>
     <use xlink:href="#STIXGeneral-Regular-65" transform="translate(211.099945 0.421875)"/>
     <use xlink:href="#STIXGeneral-Regular-20" transform="translate(255.499939 0.421875)"/>
     <use xlink:href="#STIXGeneral-Regular-20" transform="translate(280.499924 0.421875)"/>
     <use xlink:href="#STIXGeneral-Regular-28" transform="translate(305.499908 0.421875)"/>
     <use xlink:href="#Cmr10-a2" transform="translate(338.799896 0.421875)"/>
     <use xlink:href="#Cmmi10-3c" transform="translate(439.659271 0.421875)"/>
     <use xlink:href="#Cmr10-30" transform="translate(534.903412 0.421875)"/>
     <use xlink:href="#STIXGeneral-Regular-29" transform="translate(584.903412 0.421875)"/>
    </g>
   </g>
   <g id="text_20">
    <!-- stable -->
    <g style="fill: #009e73" transform="translate(76.344761 202.1191) scale(0.09 -0.09)">
     <use xlink:href="#STIXGeneral-Regular-73"/>
     <use xlink:href="#STIXGeneral-Regular-74" x="38.899994"/>
     <use xlink:href="#STIXGeneral-Regular-61" x="66.699982"/>
     <use xlink:href="#STIXGeneral-Regular-62" x="111.099976"/>
     <use xlink:href="#STIXGeneral-Regular-6c" x="161.09996"/>
     <use xlink:href="#STIXGeneral-Regular-65" x="188.899948"/>
    </g>
    <!-- node -->
    <g style="fill: #009e73" transform="translate(78.095542 211.448444) scale(0.09 -0.09)">
     <use xlink:href="#STIXGeneral-Regular-6e"/>
     <use xlink:href="#STIXGeneral-Regular-6f" x="49.999985"/>
     <use xlink:href="#STIXGeneral-Regular-64" x="99.999969"/>
     <use xlink:href="#STIXGeneral-Regular-65" x="149.999954"/>
    </g>
   </g>
   <g id="text_21">
    <!-- unstable -->
    <g style="fill: #d55e00" transform="translate(387.607114 202.1191) scale(0.09 -0.09)">
     <use xlink:href="#STIXGeneral-Regular-75"/>
     <use xlink:href="#STIXGeneral-Regular-6e" x="49.999985"/>
     <use xlink:href="#STIXGeneral-Regular-73" x="99.999969"/>
     <use xlink:href="#STIXGeneral-Regular-74" x="138.899963"/>
     <use xlink:href="#STIXGeneral-Regular-61" x="166.699951"/>
     <use xlink:href="#STIXGeneral-Regular-62" x="211.099945"/>
     <use xlink:href="#STIXGeneral-Regular-6c" x="261.09993"/>
     <use xlink:href="#STIXGeneral-Regular-65" x="288.899918"/>
    </g>
    <!-- node -->
    <g style="fill: #d55e00" transform="translate(393.857895 211.448444) scale(0.09 -0.09)">
     <use xlink:href="#STIXGeneral-Regular-6e"/>
     <use xlink:href="#STIXGeneral-Regular-6f" x="49.999985"/>
     <use xlink:href="#STIXGeneral-Regular-64" x="99.999969"/>
     <use xlink:href="#STIXGeneral-Regular-65" x="149.999954"/>
    </g>
   </g>
   <g id="text_22">
    <!-- centers -->
    <g style="fill: #d55e00" transform="translate(256.41257 55.107648) rotate(-90) scale(0.1 -0.1)">
     <use xlink:href="#STIXGeneral-Regular-63"/>
     <use xlink:href="#STIXGeneral-Regular-65" x="44.399994"/>
     <use xlink:href="#STIXGeneral-Regular-6e" x="88.799988"/>
     <use xlink:href="#STIXGeneral-Regular-74" x="138.799973"/>
     <use xlink:href="#STIXGeneral-Regular-65" x="166.59996"/>
     <use xlink:href="#STIXGeneral-Regular-72" x="210.999954"/>
     <use xlink:href="#STIXGeneral-Regular-73" x="244.299942"/>
    </g>
   </g>
   <g id="text_23">
    <!-- degenerate -->
    <g style="fill: #1f2328" transform="translate(150.603529 199.331646) scale(0.085 -0.085)">
     <defs>
      <path id="STIXGeneral-Regular-67" d="M 3008 2483 
L 2477 2483 
Q 2598 2208 2598 1946 
Q 2598 1453 2265 1203 
Q 1933 954 1600 954 
Q 1530 954 1357 973 
L 1235 986 
Q 1107 947 979 812 
Q 851 678 851 582 
Q 851 435 1350 410 
L 2176 371 
Q 2528 358 2739 172 
Q 2950 -13 2950 -314 
Q 2950 -685 2566 -986 
Q 2035 -1395 1286 -1395 
Q 826 -1395 502 -1212 
Q 179 -1030 179 -774 
Q 179 -595 320 -419 
Q 461 -243 806 6 
Q 602 102 534 172 
Q 467 243 467 346 
Q 467 531 762 787 
Q 909 915 1037 1043 
Q 717 1203 579 1401 
Q 442 1600 442 1901 
Q 442 2336 752 2640 
Q 1062 2944 1510 2944 
Q 1766 2944 2022 2848 
L 2163 2797 
Q 2349 2733 2515 2733 
L 3008 2733 
L 3008 2483 
z
M 973 2163 
L 973 2144 
Q 973 1683 1155 1398 
Q 1338 1114 1632 1114 
Q 1850 1114 1978 1270 
Q 2106 1427 2106 1690 
Q 2106 2112 1914 2464 
Q 1754 2765 1446 2765 
Q 1222 2765 1097 2605 
Q 973 2445 973 2163 
z
M 2771 -410 
Q 2771 -230 2595 -163 
Q 2419 -96 1978 -96 
Q 1344 -96 941 -13 
Q 749 -243 688 -348 
Q 627 -454 627 -563 
Q 627 -774 880 -902 
Q 1133 -1030 1555 -1030 
Q 2099 -1030 2435 -860 
Q 2771 -691 2771 -410 
z
" transform="scale(0.015625)"/>
     </defs>
     <use xlink:href="#STIXGeneral-Regular-64"/>
     <use xlink:href="#STIXGeneral-Regular-65" x="49.999985"/>
     <use xlink:href="#STIXGeneral-Regular-67" x="94.399979"/>
     <use xlink:href="#STIXGeneral-Regular-65" x="144.399963"/>
     <use xlink:href="#STIXGeneral-Regular-6e" x="188.799957"/>
     <use xlink:href="#STIXGeneral-Regular-65" x="238.799942"/>
     <use xlink:href="#STIXGeneral-Regular-72" x="283.199936"/>
     <use xlink:href="#STIXGeneral-Regular-61" x="316.499924"/>
     <use xlink:href="#STIXGeneral-Regular-74" x="360.899918"/>
     <use xlink:href="#STIXGeneral-Regular-65" x="388.699905"/>
    </g>
   </g>
   <g id="text_24">
    <!-- degenerate -->
    <g style="fill: #1f2328" transform="translate(292.089353 199.331646) scale(0.085 -0.085)">
     <use xlink:href="#STIXGeneral-Regular-64"/>
     <use xlink:href="#STIXGeneral-Regular-65" x="49.999985"/>
     <use xlink:href="#STIXGeneral-Regular-67" x="94.399979"/>
     <use xlink:href="#STIXGeneral-Regular-65" x="144.399963"/>
     <use xlink:href="#STIXGeneral-Regular-6e" x="188.799957"/>
     <use xlink:href="#STIXGeneral-Regular-65" x="238.799942"/>
     <use xlink:href="#STIXGeneral-Regular-72" x="283.199936"/>
     <use xlink:href="#STIXGeneral-Regular-61" x="316.499924"/>
     <use xlink:href="#STIXGeneral-Regular-74" x="360.899918"/>
     <use xlink:href="#STIXGeneral-Regular-65" x="388.699905"/>
    </g>
   </g>
   <g id="text_25">
    <!-- Trace- -determinant chart: above the parabola, eigenvalues are complex -->
    <g transform="translate(74.110313 15.395625) scale(0.12 -0.12)">
     <defs>
      <path id="STIXGeneral-Regular-54" d="M 3795 3149 
L 3642 3149 
Q 3539 3674 3353 3821 
Q 3168 3968 2656 3968 
L 2278 3968 
L 2278 710 
Q 2278 346 2387 243 
Q 2496 141 2893 122 
L 2893 0 
L 1024 0 
L 1024 122 
Q 1427 147 1526 256 
Q 1626 365 1626 787 
L 1626 3968 
L 1242 3968 
Q 723 3968 540 3817 
Q 358 3667 262 3149 
L 109 3149 
L 154 4237 
L 3750 4237 
L 3795 3149 
z
" transform="scale(0.015625)"/>
      <path id="STIXGeneral-Regular-2d" d="M 1824 1242 
L 250 1242 
L 250 1645 
L 1824 1645 
L 1824 1242 
z
" transform="scale(0.015625)"/>
      <path id="STIXGeneral-Regular-68" d="M 3117 0 
L 1760 0 
L 1760 96 
Q 2042 128 2118 224 
Q 2195 320 2195 653 
L 2195 1920 
Q 2195 2598 1722 2598 
Q 1530 2598 1370 2508 
Q 1210 2419 1005 2195 
L 1005 653 
Q 1005 320 1081 224 
Q 1158 128 1440 96 
L 1440 0 
L 58 0 
L 58 96 
Q 333 134 400 224 
Q 467 314 467 653 
L 467 3667 
Q 467 3872 406 3933 
Q 346 3994 141 3994 
Q 83 3994 64 3987 
L 64 4090 
L 237 4141 
Q 730 4288 973 4371 
L 1005 4352 
L 1005 2406 
Q 1229 2694 1446 2819 
Q 1664 2944 1946 2944 
Q 2733 2944 2733 1926 
L 2733 653 
Q 2733 320 2793 233 
Q 2854 147 3117 96 
L 3117 0 
z
" transform="scale(0.015625)"/>
      <path id="STIXGeneral-Regular-3a" d="M 1123 2832 
Q 1229 2726 1229 2579 
Q 1229 2432 1126 2329 
Q 1024 2227 877 2227 
Q 730 2227 624 2332 
Q 518 2438 518 2579 
Q 518 2733 620 2835 
Q 723 2938 877 2938 
Q 1018 2938 1123 2832 
z
M 1229 282 
Q 1229 141 1126 35 
Q 1024 -70 877 -70 
Q 730 -70 624 35 
Q 518 141 518 282 
Q 518 435 620 537 
Q 723 640 877 640 
Q 1018 640 1123 534 
Q 1229 429 1229 282 
z
" transform="scale(0.015625)"/>
      <path id="STIXGeneral-Regular-76" d="M 3053 2880 
L 3053 2784 
Q 2906 2771 2835 2688 
Q 2765 2605 2637 2285 
L 1818 230 
Q 1690 -90 1638 -90 
Q 1587 -90 1523 77 
Q 1510 96 1497 141 
Q 1485 186 1472 211 
L 704 2048 
Q 499 2534 403 2652 
Q 307 2771 122 2784 
L 122 2880 
L 1376 2880 
L 1376 2784 
Q 1210 2771 1146 2732 
Q 1082 2694 1082 2611 
Q 1082 2509 1139 2368 
L 1792 730 
L 2426 2387 
Q 2464 2483 2464 2579 
Q 2464 2758 2163 2784 
L 2163 2880 
L 3053 2880 
z
" transform="scale(0.015625)"/>
      <path id="STIXGeneral-Regular-2c" d="M 531 -902 
L 467 -781 
Q 998 -422 998 -96 
Q 998 -13 909 -13 
Q 883 -13 822 -25 
Q 762 -38 723 -38 
Q 352 -38 352 288 
Q 352 454 457 553 
Q 563 653 736 653 
Q 954 653 1101 496 
Q 1248 339 1248 96 
Q 1248 -198 1053 -473 
Q 858 -749 531 -902 
z
" transform="scale(0.015625)"/>
      <path id="STIXGeneral-Regular-78" d="M 3066 0 
L 1779 0 
L 1779 96 
Q 1939 109 1987 137 
Q 2035 166 2035 250 
Q 2035 307 1997 365 
L 1414 1261 
L 909 474 
Q 781 275 781 211 
Q 781 96 1037 96 
L 1037 0 
L 109 0 
L 109 96 
Q 269 109 355 169 
Q 442 230 576 422 
L 1306 1478 
L 704 2400 
Q 557 2624 454 2704 
Q 352 2784 211 2784 
L 154 2784 
L 154 2880 
L 1478 2880 
L 1478 2784 
Q 1203 2778 1203 2643 
Q 1203 2509 1498 2074 
Q 1581 1958 1587 1946 
Q 1619 1990 1779 2227 
Q 1811 2285 1856 2349 
Q 1901 2413 1923 2451 
Q 1946 2490 1971 2528 
Q 1997 2566 2006 2595 
Q 2016 2624 2016 2643 
Q 2016 2765 1760 2784 
L 1760 2880 
L 2771 2880 
L 2771 2784 
Q 2445 2771 2253 2502 
L 1722 1734 
L 2541 480 
Q 2790 96 3066 96 
L 3066 0 
z
" transform="scale(0.015625)"/>
     </defs>
     <use xlink:href="#STIXGeneral-Regular-54"/>
     <use xlink:href="#STIXGeneral-Regular-72" x="61.099991"/>
     <use xlink:href="#STIXGeneral-Regular-61" x="94.399979"/>
     <use xlink:href="#STIXGeneral-Regular-63" x="138.799973"/>
     <use xlink:href="#STIXGeneral-Regular-65" x="183.199966"/>
     <use xlink:href="#STIXGeneral-Regular-2d" x="227.59996"/>
     <use xlink:href="#STIXGeneral-Regular-2d" x="260.899948"/>
     <use xlink:href="#STIXGeneral-Regular-64" x="294.199936"/>
     <use xlink:href="#STIXGeneral-Regular-65" x="344.199921"/>
     <use xlink:href="#STIXGeneral-Regular-74" x="388.599915"/>
     <use xlink:href="#STIXGeneral-Regular-65" x="416.399902"/>
     <use xlink:href="#STIXGeneral-Regular-72" x="460.799896"/>
     <use xlink:href="#STIXGeneral-Regular-6d" x="494.099884"/>
     <use xlink:href="#STIXGeneral-Regular-69" x="571.899872"/>
     <use xlink:href="#STIXGeneral-Regular-6e" x="599.69986"/>
     <use xlink:href="#STIXGeneral-Regular-61" x="649.699844"/>
     <use xlink:href="#STIXGeneral-Regular-6e" x="694.099838"/>
     <use xlink:href="#STIXGeneral-Regular-74" x="744.099823"/>
     <use xlink:href="#STIXGeneral-Regular-20" x="771.899811"/>
     <use xlink:href="#STIXGeneral-Regular-63" x="796.899796"/>
     <use xlink:href="#STIXGeneral-Regular-68" x="841.299789"/>
     <use xlink:href="#STIXGeneral-Regular-61" x="891.299774"/>
     <use xlink:href="#STIXGeneral-Regular-72" x="935.699768"/>
     <use xlink:href="#STIXGeneral-Regular-74" x="968.999756"/>
     <use xlink:href="#STIXGeneral-Regular-3a" x="996.799744"/>
     <use xlink:href="#STIXGeneral-Regular-20" x="1024.599731"/>
     <use xlink:href="#STIXGeneral-Regular-61" x="1049.599716"/>
     <use xlink:href="#STIXGeneral-Regular-62" x="1093.99971"/>
     <use xlink:href="#STIXGeneral-Regular-6f" x="1143.999695"/>
     <use xlink:href="#STIXGeneral-Regular-76" x="1193.99968"/>
     <use xlink:href="#STIXGeneral-Regular-65" x="1243.999664"/>
     <use xlink:href="#STIXGeneral-Regular-20" x="1288.399658"/>
     <use xlink:href="#STIXGeneral-Regular-74" x="1313.399643"/>
     <use xlink:href="#STIXGeneral-Regular-68" x="1341.199631"/>
     <use xlink:href="#STIXGeneral-Regular-65" x="1391.199615"/>
     <use xlink:href="#STIXGeneral-Regular-20" x="1435.599609"/>
     <use xlink:href="#STIXGeneral-Regular-70" x="1460.599594"/>
     <use xlink:href="#STIXGeneral-Regular-61" x="1510.599579"/>
     <use xlink:href="#STIXGeneral-Regular-72" x="1554.999573"/>
     <use xlink:href="#STIXGeneral-Regular-61" x="1588.299561"/>
     <use xlink:href="#STIXGeneral-Regular-62" x="1632.699554"/>
     <use xlink:href="#STIXGeneral-Regular-6f" x="1682.699539"/>
     <use xlink:href="#STIXGeneral-Regular-6c" x="1732.699524"/>
     <use xlink:href="#STIXGeneral-Regular-61" x="1760.499512"/>
     <use xlink:href="#STIXGeneral-Regular-2c" x="1804.899506"/>
     <use xlink:href="#STIXGeneral-Regular-20" x="1829.89949"/>
     <use xlink:href="#STIXGeneral-Regular-65" x="1854.899475"/>
     <use xlink:href="#STIXGeneral-Regular-69" x="1899.299469"/>
     <use xlink:href="#STIXGeneral-Regular-67" x="1927.099457"/>
     <use xlink:href="#STIXGeneral-Regular-65" x="1977.099442"/>
     <use xlink:href="#STIXGeneral-Regular-6e" x="2021.499435"/>
     <use xlink:href="#STIXGeneral-Regular-76" x="2071.49942"/>
     <use xlink:href="#STIXGeneral-Regular-61" x="2121.499405"/>
     <use xlink:href="#STIXGeneral-Regular-6c" x="2165.899399"/>
     <use xlink:href="#STIXGeneral-Regular-75" x="2193.699387"/>
     <use xlink:href="#STIXGeneral-Regular-65" x="2243.699371"/>
     <use xlink:href="#STIXGeneral-Regular-73" x="2288.099365"/>
     <use xlink:href="#STIXGeneral-Regular-20" x="2326.999359"/>
     <use xlink:href="#STIXGeneral-Regular-61" x="2351.999344"/>
     <use xlink:href="#STIXGeneral-Regular-72" x="2396.399338"/>
     <use xlink:href="#STIXGeneral-Regular-65" x="2429.699326"/>
     <use xlink:href="#STIXGeneral-Regular-20" x="2474.099319"/>
     <use xlink:href="#STIXGeneral-Regular-63" x="2499.099304"/>
     <use xlink:href="#STIXGeneral-Regular-6f" x="2543.499298"/>
     <use xlink:href="#STIXGeneral-Regular-6d" x="2593.499283"/>
     <use xlink:href="#STIXGeneral-Regular-70" x="2671.299271"/>
     <use xlink:href="#STIXGeneral-Regular-6c" x="2721.299255"/>
     <use xlink:href="#STIXGeneral-Regular-65" x="2749.099243"/>
     <use xlink:href="#STIXGeneral-Regular-78" x="2793.499237"/>
    </g>
   </g>
  </g>
 </g>
 <defs>
  <clipPath id="pd7cf6cb578">
   <rect x="38.265" y="21.395625" width="412.92" height="299.376"/>
  </clipPath>
 </defs>
</svg>
