<?xml version="1.0" encoding="utf-8" standalone="no"?>
<!DOCTYPE svg PUBLIC "-//W3C//DTD SVG 1.1//EN"
  "http://www.w3.org/Graphics/SVG/1.1/DTD/svg11.dtd">
<svg xmlns:xlink="http://www.w3.org/1999/xlink" width="309.208696pt" height="306.6pt" viewBox="0 0 309.208696 306.6" xmlns="http://www.w3.org/2000/svg" version="1.1">
 <metadata>
  <rdf:RDF xmlns:dc="http://purl.org/dc/elements/1.1/" xmlns:cc="http://creativecommons.org/ns#" xmlns:rdf="http://www.w3.org/1999/02/22-rdf-syntax-ns#">
   <cc:Work>
    <dc:type rdf:resource="http://purl.org/dc/dcmitype/StillImage"/>
    <dc:date>2026-06-23T16:38:53.384227</dc:date>
    <dc:format>image/svg+xml</dc:format>
    <dc:creator>
     <cc:Agent>
      <dc:title>Matplotlib v3.9.4, https://matplotlib.org/</dc:title>
     </cc:Agent>
    </dc:creator>
   </cc:Work>
  </rdf:RDF>
 </metadata>
 <defs>
  <style type="text/css">*{stroke-linejoin: round; stroke-linecap: butt}</style>
 </defs>
 <g id="figure_1">
  <g id="patch_1">
   <path d="M 0 306.6 
L 309.208696 306.6 
L 309.208696 0 
L 0 0 
z
" style="fill: #ffffff"/>
  </g>
  <g id="axes_1">
   <g id="patch_2">
    <path d="M 7.2 299.4 
L 296.452174 299.4 
L 296.452174 22.2 
L 7.2 22.2 
z
" style="fill: #ffffff"/>
   </g>
   <g id="patch_3">
    <path d="M 139.773913 178.878261 
L 324.645757 233.720349 
L 325.117945 232.10272 
L 325.575979 230.481027 
L 326.019825 228.855394 
L 326.449447 227.225943 
L 326.864814 225.592801 
L 327.265893 223.956091 
L 327.652655 222.315939 
L 328.025068 220.67247 
L 328.383106 219.025809 
L 328.726741 217.376082 
L 329.055946 215.723415 
L 329.370696 214.067935 
L 329.670968 212.409767 
L 329.956738 210.749038 
L 330.227985 209.085876 
L 330.484687 207.420407 
L 330.726826 205.752758 
L 330.954382 204.083057 
L 331.167338 202.411431 
L 331.365679 200.738008 
L 331.549389 199.062916 
L 331.718453 197.386282 
L 331.87286 195.708235 
L 332.012597 194.028903 
L 332.137653 192.348413 
L 332.248019 190.666895 
L 332.343687 188.984477 
L 332.424649 187.301287 
L 332.490899 185.617454 
L 332.542432 183.933106 
L 332.579244 182.248372 
L 332.601333 180.563381 
L 332.608696 178.878261 
L 332.608696 178.878261 
L 332.601333 177.193141 
L 332.579244 175.50815 
L 332.542432 173.823416 
L 332.490899 172.139068 
L 332.424649 170.455235 
L 332.343687 168.772045 
L 332.248019 167.089626 
L 332.137653 165.408108 
L 332.012597 163.727619 
L 331.87286 162.048287 
L 331.718453 160.370239 
L 331.549389 158.693606 
L 331.365679 157.018513 
L 331.167338 155.34509 
L 330.954382 153.673465 
L 330.726826 152.003764 
L 330.484687 150.336115 
L 330.227985 148.670646 
L 329.956738 147.007483 
L 329.670968 145.346755 
L 329.370696 143.688587 
L 329.055946 142.033107 
L 328.726741 140.38044 
L 328.383106 138.730713 
L 328.025068 137.084052 
L 327.652655 135.440583 
L 327.265893 133.800431 
L 326.864814 132.163721 
L 326.449447 130.530578 
L 326.019825 128.901128 
L 325.575979 127.275494 
L 325.117945 125.653801 
L 324.645757 124.036173 
L 324.159451 122.422733 
L 323.659065 120.813603 
L 323.144635 119.208908 
L 322.616203 117.60877 
L 322.073807 116.013311 
L 321.51749 114.422652 
L 320.947294 112.836916 
L 320.363263 111.256222 
L 319.765441 109.680693 
L 319.153873 108.110449 
L 318.528607 106.545608 
L 317.889691 104.986291 
L 317.237172 103.432617 
L 316.571101 101.884705 
L 315.891529 100.342672 
L 315.198508 98.806636 
L 314.49209 97.276716 
L 313.772329 95.753027 
L 313.039281 94.235685 
L 312.293002 92.724808 
L 311.533548 91.22051 
L 310.760977 89.722906 
L 309.975349 88.23211 
L 309.176723 86.748237 
L 308.365161 85.271399 
L 307.540724 83.801709 
L 306.703475 82.339281 
L 305.853479 80.884224 
L 304.990799 79.436651 
L 304.115503 77.996672 
L 303.227657 76.564396 
L 302.327329 75.139934 
L 301.414587 73.723394 
L 300.489501 72.314884 
L 299.552142 70.914512 
L 298.602581 69.522385 
L 297.640892 68.138609 
L 296.667146 66.76329 
L 295.68142 65.396532 
L 294.683787 64.03844 
L 293.674324 62.689119 
L 292.653109 61.34867 
L 291.620219 60.017196 
L 290.575734 58.6948 
L 289.519732 57.381581 
L 288.452294 56.077641 
L 287.373503 54.783078 
L 286.28344 53.497992 
L 285.182189 52.22248 
L 284.069833 50.956641 
L 282.946458 49.700571 
L 281.81215 48.454365 
L 280.666995 47.21812 
L 279.511081 45.991928 
L 278.344495 44.775885 
L 277.167327 43.570083 
L 275.979667 42.374613 
L 274.781606 41.189568 
L 273.573235 40.015037 
L 272.354646 38.851111 
L 271.125932 37.697878 
L 269.887187 36.555426 
L 268.638507 35.423843 
L 267.379985 34.303215 
L 266.111719 33.193628 
L 264.833805 32.095166 
L 263.54634 31.007913 
L 262.249424 29.931953 
L 260.943154 28.867367 
L 259.627631 27.814236 
L 258.302956 26.772642 
L 256.969229 25.742663 
L 255.626553 24.724379 
L 254.275029 23.717867 
L 252.914761 22.723204 
L 251.545853 21.740465 
L 250.168409 20.769727 
L 248.782536 19.811063 
L 247.388337 18.864546 
L 245.985921 17.930248 
L 244.575393 17.008242 
L 243.156863 16.098597 
L 241.730437 15.201382 
L 240.296226 14.316667 
L 238.854337 13.444519 
L 237.404883 12.585005 
L 235.947973 11.738189 
L 234.483718 10.904137 
L 233.012231 10.082913 
L 231.533624 9.274579 
L 230.048009 8.479197 
L 228.555501 7.696828 
L 227.056212 6.927531 
L 225.550259 6.171365 
L 224.037755 5.428388 
L 222.518816 4.698657 
L 220.993558 3.982227 
L 219.462097 3.279153 
L 217.924552 2.589489 
L 216.381038 1.913287 
L 214.831674 1.2506 
L 213.276578 0.601477 
L 211.715869 -0.034031 
L 210.149666 -0.655877 
L 208.578089 -1.264013 
L 207.001258 -1.858392 
L 205.419292 -2.438968 
L 203.832314 -3.005698 
L 202.240444 -3.558539 
L 200.643803 -4.097448 
L 199.042514 -4.622383 
L 197.436699 -5.133305 
L 195.826481 -5.630175 
L 194.211982 -6.112955 
L 192.593325 -6.581608 
L 190.970636 -7.036098 
L 189.344036 -7.476391 
L 187.713651 -7.902453 
L 186.079605 -8.31425 
L 184.442023 -8.711753 
L 182.80103 -9.09493 
L 181.156751 -9.463753 
L 179.509312 -9.818192 
L 177.858838 -10.158222 
L 176.205456 -10.483816 
L 174.549292 -10.794949 
L 172.890472 -11.091597 
L 171.229123 -11.373738 
L 169.565372 -11.641351 
L 167.899346 -11.894414 
L 166.231173 -12.132908 
L 164.560978 -12.356816 
L 162.888891 -12.566121 
L 161.215039 -12.760805 
L 159.539549 -12.940854 
L 157.86255 -13.106256 
L 156.18417 -13.256996 
L 154.504536 -13.393063 
L 152.823778 -13.514448 
L 151.142022 -13.62114 
L 149.459399 -13.713132 
L 147.776036 -13.790417 
L 146.092062 -13.852988 
L 144.407606 -13.900841 
L 142.722796 -13.933973 
L 141.03776 -13.95238 
L 139.352628 -13.956062 
L 137.667528 -13.945017 
L 135.982589 -13.919248 
L 134.29794 -13.878755 
L 132.613708 -13.823542 
L 130.930024 -13.753613 
L 129.247015 -13.668974 
L 127.56481 -13.569631 
L 125.883537 -13.455592 
L 124.203325 -13.326864 
L 122.524302 -13.183459 
L 120.846596 -13.025387 
L 119.170335 -12.85266 
L 117.495648 -12.665291 
L 115.822663 -12.463295 
L 114.151506 -12.246687 
L 112.482306 -12.015483 
L 110.81519 -11.769702 
L 109.150286 -11.509362 
L 107.48772 -11.234482 
L 105.82762 -10.945085 
L 104.170112 -10.641191 
L 102.515323 -10.322825 
L 100.86338 -9.99001 
L 99.214408 -9.642772 
L 97.568533 -9.281138 
L 95.925881 -8.905134 
L 94.286578 -8.51479 
L 92.650748 -8.110136 
L 91.018517 -7.691203 
L 89.390009 -7.258022 
L 87.765349 -6.810626 
L 86.144661 -6.34905 
L 84.528068 -5.873329 
L 82.915693 -5.383499 
L 81.307661 -4.879598 
L 79.704094 -4.361664 
L 78.105114 -3.829737 
L 76.510843 -3.283858 
L 74.921404 -2.724067 
L 73.336917 -2.150408 
L 71.757504 -1.562925 
L 70.183284 -0.961662 
L 68.614379 -0.346665 
z
" clip-path="url(#p486bd7ec09)" style="fill: #56b4e9; opacity: 0.16; stroke: #56b4e9; stroke-linejoin: miter"/>
   </g>
   <g id="matplotlib.axis_1"/>
   <g id="matplotlib.axis_2"/>
   <g id="line2d_1">
    <path d="M 191.262609 307.6 
L 72.632938 11.025823 
" clip-path="url(#p486bd7ec09)" style="fill: none; stroke: #1f2328; stroke-width: 1.8; stroke-linecap: square"/>
   </g>
   <g id="line2d_2">
    <path d="M 310.208696 230.008696 
L -1 136.646087 
" clip-path="url(#p486bd7ec09)" style="fill: none; stroke: #1f2328; stroke-width: 1.8; stroke-linecap: square"/>
   </g>
   <g id="line2d_3">
    <path d="M 85.53913 200.572174 
L 72.884348 242.754783 
" clip-path="url(#p486bd7ec09)" style="fill: none; stroke-dasharray: 1,1.65; stroke-dashoffset: 0; stroke: #d55e00"/>
   </g>
   <g id="line2d_4">
    <path d="M 127.11913 221.06087 
L 72.884348 242.754783 
" clip-path="url(#p486bd7ec09)" style="fill: none; stroke-dasharray: 1,1.65; stroke-dashoffset: 0; stroke: #d55e00"/>
   </g>
   <g id="line2d_5">
    <path d="M 139.773913 178.878261 
L 85.53913 200.572174 
" clip-path="url(#p486bd7ec09)" style="fill: none; stroke-dasharray: 1,1.65; stroke-dashoffset: 0; stroke: #9aa3ad"/>
   </g>
   <g id="line2d_6">
    <path d="M 139.773913 178.878261 
L 127.11913 221.06087 
" clip-path="url(#p486bd7ec09)" style="fill: none; stroke-dasharray: 1,1.65; stroke-dashoffset: 0; stroke: #9aa3ad"/>
   </g>
   <g id="text_1">
    <!-- $g_1(x)=0$ -->
    <g style="fill: #1f2328" transform="translate(263.308696 274.782609) scale(0.1 -0.1)">
     <defs>
      <path id="Cmmi10-67" d="M 91 -916 
Q 91 -759 198 -642 
Q 306 -525 459 -525 
Q 563 -525 633 -589 
Q 703 -653 703 -756 
Q 703 -872 637 -964 
Q 572 -1056 469 -1094 
Q 641 -1147 1006 -1147 
Q 1300 -1147 1544 -920 
Q 1788 -694 1863 -397 
L 2047 353 
Q 1700 0 1325 0 
Q 1050 0 854 140 
Q 659 281 556 515 
Q 453 750 453 1013 
Q 453 1306 573 1628 
Q 694 1950 911 2225 
Q 1128 2500 1409 2664 
Q 1691 2828 2003 2828 
Q 2191 2828 2341 2725 
Q 2491 2622 2578 2450 
Q 2641 2700 2853 2700 
Q 2934 2700 2990 2651 
Q 3047 2603 3047 2522 
Q 3047 2503 3045 2493 
Q 3044 2484 3041 2472 
L 2309 -434 
Q 2259 -634 2125 -800 
Q 1991 -966 1809 -1077 
Q 1628 -1188 1412 -1250 
Q 1197 -1313 997 -1313 
Q 631 -1313 361 -1242 
Q 91 -1172 91 -916 
z
M 1338 166 
Q 1747 166 2144 728 
L 2497 2125 
Q 2453 2347 2322 2505 
Q 2191 2663 1991 2663 
Q 1778 2663 1589 2489 
Q 1400 2316 1275 2075 
Q 1156 1844 1045 1411 
Q 934 978 934 728 
Q 934 509 1034 337 
Q 1134 166 1338 166 
z
" transform="scale(0.015625)"/>
      <path id="Cmr10-31" d="M 594 0 
L 594 225 
Q 1394 225 1394 428 
L 1394 3788 
Q 1063 3628 556 3628 
L 556 3853 
Q 1341 3853 1741 4263 
L 1831 4263 
Q 1853 4263 1873 4245 
Q 1894 4228 1894 4206 
L 1894 428 
Q 1894 225 2694 225 
L 2694 0 
L 594 0 
z
" transform="scale(0.015625)"/>
      <path id="Cmr10-28" d="M 1984 -1588 
Q 1628 -1306 1370 -942 
Q 1113 -578 948 -165 
Q 784 247 703 697 
Q 622 1147 622 1600 
Q 622 2059 703 2509 
Q 784 2959 951 3375 
Q 1119 3791 1378 4153 
Q 1638 4516 1984 4788 
Q 1984 4800 2016 4800 
L 2075 4800 
Q 2094 4800 2109 4783 
Q 2125 4766 2125 4744 
Q 2125 4716 2113 4703 
Q 1800 4397 1592 4047 
Q 1384 3697 1257 3301 
Q 1131 2906 1075 2482 
Q 1019 2059 1019 1600 
Q 1019 -434 2106 -1491 
Q 2125 -1509 2125 -1544 
Q 2125 -1559 2108 -1579 
Q 2091 -1600 2075 -1600 
L 2016 -1600 
Q 1984 -1600 1984 -1588 
z
" transform="scale(0.015625)"/>
      <path id="Cmmi10-78" d="M 500 184 
Q 613 97 819 97 
Q 1019 97 1172 289 
Q 1325 481 1381 709 
L 1672 1844 
Q 1741 2153 1741 2266 
Q 1741 2425 1652 2544 
Q 1563 2663 1403 2663 
Q 1200 2663 1022 2536 
Q 844 2409 722 2214 
Q 600 2019 550 1819 
Q 538 1778 500 1778 
L 422 1778 
Q 372 1778 372 1838 
L 372 1856 
Q 434 2094 584 2320 
Q 734 2547 951 2687 
Q 1169 2828 1416 2828 
Q 1650 2828 1839 2703 
Q 2028 2578 2106 2363 
Q 2216 2559 2386 2693 
Q 2556 2828 2759 2828 
Q 2897 2828 3040 2779 
Q 3184 2731 3275 2631 
Q 3366 2531 3366 2381 
Q 3366 2219 3261 2101 
Q 3156 1984 2994 1984 
Q 2891 1984 2822 2050 
Q 2753 2116 2753 2216 
Q 2753 2350 2845 2451 
Q 2938 2553 3066 2572 
Q 2950 2663 2747 2663 
Q 2541 2663 2389 2472 
Q 2238 2281 2175 2047 
L 1894 916 
Q 1825 659 1825 494 
Q 1825 331 1917 214 
Q 2009 97 2163 97 
Q 2463 97 2698 361 
Q 2934 625 3009 941 
Q 3022 978 3059 978 
L 3138 978 
Q 3163 978 3178 961 
Q 3194 944 3194 922 
Q 3194 916 3188 903 
Q 3097 522 2806 225 
Q 2516 -72 2150 -72 
Q 1916 -72 1727 54 
Q 1538 181 1459 397 
Q 1359 209 1182 68 
Q 1006 -72 806 -72 
Q 669 -72 523 -23 
Q 378 25 287 125 
Q 197 225 197 378 
Q 197 528 301 651 
Q 406 775 563 775 
Q 669 775 741 711 
Q 813 647 813 544 
Q 813 409 723 309 
Q 634 209 500 184 
z
" transform="scale(0.015625)"/>
      <path id="Cmr10-29" d="M 416 -1600 
Q 359 -1600 359 -1544 
Q 359 -1516 372 -1503 
Q 1466 -434 1466 1600 
Q 1466 3634 384 4691 
Q 359 4706 359 4744 
Q 359 4766 376 4783 
Q 394 4800 416 4800 
L 475 4800 
Q 494 4800 506 4788 
Q 966 4425 1272 3906 
Q 1578 3388 1720 2800 
Q 1863 2213 1863 1600 
Q 1863 1147 1786 708 
Q 1709 269 1542 -157 
Q 1375 -584 1119 -945 
Q 863 -1306 506 -1588 
Q 494 -1600 475 -1600 
L 416 -1600 
z
" transform="scale(0.015625)"/>
      <path id="Cmr10-3d" d="M 481 850 
Q 428 850 393 890 
Q 359 931 359 978 
Q 359 1031 393 1068 
Q 428 1106 481 1106 
L 4500 1106 
Q 4547 1106 4581 1068 
Q 4616 1031 4616 978 
Q 4616 931 4581 890 
Q 4547 850 4500 850 
L 481 850 
z
M 481 2094 
Q 428 2094 393 2131 
Q 359 2169 359 2222 
Q 359 2269 393 2309 
Q 428 2350 481 2350 
L 4500 2350 
Q 4547 2350 4581 2309 
Q 4616 2269 4616 2222 
Q 4616 2169 4581 2131 
Q 4547 2094 4500 2094 
L 481 2094 
z
" transform="scale(0.015625)"/>
      <path id="Cmr10-30" d="M 1600 -141 
Q 816 -141 533 504 
Q 250 1150 250 2041 
Q 250 2597 351 3087 
Q 453 3578 754 3920 
Q 1056 4263 1600 4263 
Q 2022 4263 2290 4056 
Q 2559 3850 2700 3523 
Q 2841 3197 2892 2823 
Q 2944 2450 2944 2041 
Q 2944 1491 2842 1011 
Q 2741 531 2444 195 
Q 2147 -141 1600 -141 
z
M 1600 25 
Q 1956 25 2131 390 
Q 2306 756 2347 1200 
Q 2388 1644 2388 2144 
Q 2388 2625 2347 3031 
Q 2306 3438 2132 3767 
Q 1959 4097 1600 4097 
Q 1238 4097 1063 3765 
Q 888 3434 847 3029 
Q 806 2625 806 2144 
Q 806 1788 823 1472 
Q 841 1156 916 820 
Q 991 484 1158 254 
Q 1325 25 1600 25 
z
" transform="scale(0.015625)"/>
     </defs>
     <use xlink:href="#Cmmi10-67"/>
     <use xlink:href="#Cmr10-31" transform="translate(47.705078 -17.00625) scale(0.7)"/>
     <use xlink:href="#Cmr10-28" transform="translate(89.082422 0)"/>
     <use xlink:href="#Cmmi10-78" transform="translate(127.900781 0)"/>
     <use xlink:href="#Cmr10-29" transform="translate(184.980859 0)"/>
     <use xlink:href="#Cmr10-3d" transform="translate(241.357812 0)"/>
     <use xlink:href="#Cmr10-30" transform="translate(336.601953 0)"/>
    </g>
   </g>
   <g id="text_2">
    <!-- $g_2(x)=0$ -->
    <g style="fill: #1f2328" transform="translate(58.421739 57.843478) scale(0.1 -0.1)">
     <defs>
      <path id="Cmr10-32" d="M 319 0 
L 319 172 
Q 319 188 331 206 
L 1325 1306 
Q 1550 1550 1690 1715 
Q 1831 1881 1968 2097 
Q 2106 2313 2186 2536 
Q 2266 2759 2266 3009 
Q 2266 3272 2169 3511 
Q 2072 3750 1880 3894 
Q 1688 4038 1416 4038 
Q 1138 4038 916 3870 
Q 694 3703 603 3438 
Q 628 3444 672 3444 
Q 816 3444 917 3347 
Q 1019 3250 1019 3097 
Q 1019 2950 917 2848 
Q 816 2747 672 2747 
Q 522 2747 420 2851 
Q 319 2956 319 3097 
Q 319 3338 409 3548 
Q 500 3759 670 3923 
Q 841 4088 1055 4175 
Q 1269 4263 1509 4263 
Q 1875 4263 2190 4108 
Q 2506 3953 2690 3670 
Q 2875 3388 2875 3009 
Q 2875 2731 2753 2481 
Q 2631 2231 2440 2026 
Q 2250 1822 1953 1562 
Q 1656 1303 1563 1216 
L 838 519 
L 1453 519 
Q 1906 519 2211 526 
Q 2516 534 2534 550 
Q 2609 631 2688 1141 
L 2875 1141 
L 2694 0 
L 319 0 
z
" transform="scale(0.015625)"/>
     </defs>
     <use xlink:href="#Cmmi10-67"/>
     <use xlink:href="#Cmr10-32" transform="translate(47.705078 -17.00625) scale(0.7)"/>
     <use xlink:href="#Cmr10-28" transform="translate(89.082422 0)"/>
     <use xlink:href="#Cmmi10-78" transform="translate(127.900781 0)"/>
     <use xlink:href="#Cmr10-29" transform="translate(184.980859 0)"/>
     <use xlink:href="#Cmr10-3d" transform="translate(241.357812 0)"/>
     <use xlink:href="#Cmr10-30" transform="translate(336.601953 0)"/>
    </g>
   </g>
   <g id="text_3">
    <!-- feasible set -->
    <g style="fill: #0072b2" transform="translate(233.178261 75.751427) scale(0.1 -0.1)">
     <defs>
      <path id="STIXGeneral-Regular-66" d="M 134 2880 
L 659 2880 
Q 666 3264 710 3478 
Q 755 3693 883 3910 
Q 1152 4371 1786 4371 
Q 2074 4371 2262 4259 
Q 2451 4147 2451 3974 
Q 2451 3866 2374 3789 
Q 2298 3712 2182 3712 
Q 2029 3712 1894 3942 
Q 1741 4192 1555 4192 
Q 1197 4192 1197 3622 
L 1197 2880 
L 1978 2880 
L 1978 2675 
L 1197 2675 
L 1197 666 
Q 1197 307 1299 208 
Q 1402 109 1792 96 
L 1792 0 
L 128 0 
L 128 96 
Q 474 115 566 214 
Q 659 314 659 666 
L 659 2675 
L 134 2675 
L 134 2880 
z
" transform="scale(0.015625)"/>
      <path id="STIXGeneral-Regular-65" d="M 2611 1050 
L 2714 1005 
Q 2330 -64 1376 -64 
Q 813 -64 486 329 
Q 160 723 160 1389 
Q 160 2074 525 2509 
Q 890 2944 1485 2944 
Q 2061 2944 2374 2502 
Q 2560 2246 2592 1773 
L 621 1773 
Q 646 1370 700 1158 
Q 755 947 915 730 
Q 1184 378 1626 378 
Q 1939 378 2153 531 
Q 2368 685 2611 1050 
z
M 634 1978 
L 1939 1978 
Q 1882 2381 1750 2547 
Q 1619 2714 1312 2714 
Q 1043 2714 864 2525 
Q 685 2336 634 1978 
z
" transform="scale(0.015625)"/>
      <path id="STIXGeneral-Regular-61" d="M 2829 422 
L 2829 243 
Q 2586 -64 2253 -64 
Q 1888 -64 1843 403 
L 1837 403 
Q 1427 -64 909 -64 
Q 608 -64 422 112 
Q 237 288 237 602 
Q 237 1050 685 1350 
Q 992 1555 1837 1869 
L 1837 2214 
Q 1837 2502 1699 2646 
Q 1562 2790 1338 2790 
Q 1146 2790 1018 2697 
Q 890 2605 890 2477 
Q 890 2419 909 2348 
Q 928 2278 928 2208 
Q 928 2112 841 2029 
Q 755 1946 634 1946 
Q 525 1946 441 2029 
Q 358 2112 358 2240 
Q 358 2547 685 2752 
Q 986 2944 1421 2944 
Q 1939 2944 2176 2656 
Q 2291 2522 2323 2384 
Q 2355 2246 2355 1946 
L 2355 723 
Q 2355 301 2554 301 
Q 2682 301 2829 422 
z
M 1837 813 
L 1837 1715 
Q 1248 1510 1018 1293 
Q 800 1094 800 800 
Q 800 557 921 432 
Q 1043 307 1242 307 
Q 1453 307 1613 410 
Q 1747 506 1792 589 
Q 1837 672 1837 813 
z
" transform="scale(0.015625)"/>
      <path id="STIXGeneral-Regular-73" d="M 998 1926 
L 1664 1523 
Q 1984 1331 2105 1164 
Q 2227 998 2227 736 
Q 2227 416 1961 176 
Q 1696 -64 1331 -64 
Q 1030 -64 864 -6 
Q 691 51 570 51 
Q 461 51 416 -26 
L 333 -26 
L 333 979 
L 435 979 
Q 538 512 730 294 
Q 922 77 1248 77 
Q 1485 77 1632 211 
Q 1779 346 1779 550 
Q 1779 845 1440 1030 
L 1094 1222 
Q 326 1651 326 2150 
Q 326 2522 566 2730 
Q 806 2938 1210 2938 
Q 1491 2938 1638 2867 
Q 1754 2816 1818 2816 
Q 1862 2816 1920 2880 
L 1990 2880 
L 2022 2010 
L 1926 2010 
Q 1818 2445 1654 2621 
Q 1491 2797 1203 2797 
Q 986 2797 854 2688 
Q 723 2579 723 2362 
Q 723 2253 796 2128 
Q 870 2003 998 1926 
z
" transform="scale(0.015625)"/>
      <path id="STIXGeneral-Regular-69" d="M 1152 4045 
Q 1152 3904 1056 3811 
Q 960 3718 819 3718 
Q 685 3718 592 3811 
Q 499 3904 499 4045 
Q 499 4179 595 4275 
Q 691 4371 826 4371 
Q 966 4371 1059 4275 
Q 1152 4179 1152 4045 
z
M 1619 0 
L 102 0 
L 102 96 
Q 435 115 521 211 
Q 608 307 608 666 
L 608 2118 
Q 608 2342 563 2432 
Q 518 2522 397 2522 
Q 243 2522 128 2490 
L 128 2592 
L 1120 2944 
L 1146 2918 
L 1146 672 
Q 1146 314 1226 218 
Q 1306 122 1619 96 
L 1619 0 
z
" transform="scale(0.015625)"/>
      <path id="STIXGeneral-Regular-62" d="M 979 4358 
L 979 2406 
Q 1082 2650 1315 2797 
Q 1549 2944 1843 2944 
Q 2349 2944 2672 2541 
Q 2995 2138 2995 1536 
Q 2995 832 2566 384 
Q 2138 -64 1498 -64 
Q 1107 -64 774 67 
Q 442 198 442 358 
L 442 3622 
Q 442 3859 384 3926 
Q 326 3994 128 3994 
Q 83 3994 19 3981 
L 19 4090 
L 211 4147 
Q 864 4346 947 4371 
L 979 4358 
z
M 979 2035 
L 979 474 
Q 979 326 1161 233 
Q 1344 141 1600 141 
Q 1978 141 2195 416 
Q 2432 710 2432 1261 
Q 2432 1888 2182 2240 
Q 1971 2541 1613 2541 
Q 1357 2541 1168 2390 
Q 979 2240 979 2035 
z
" transform="scale(0.015625)"/>
      <path id="STIXGeneral-Regular-6c" d="M 1645 0 
L 134 0 
L 134 96 
Q 435 122 531 221 
Q 627 320 627 589 
L 627 3590 
Q 627 3821 569 3910 
Q 512 4000 358 4000 
Q 224 4000 122 3987 
L 122 4090 
Q 730 4237 1133 4371 
L 1165 4346 
L 1165 557 
Q 1165 288 1254 201 
Q 1344 115 1645 96 
L 1645 0 
z
" transform="scale(0.015625)"/>
      <path id="STIXGeneral-Regular-20" transform="scale(0.015625)"/>
      <path id="STIXGeneral-Regular-74" d="M 1702 493 
L 1786 422 
Q 1478 -64 1011 -64 
Q 448 -64 448 749 
L 448 2675 
L 109 2675 
Q 83 2694 83 2720 
Q 83 2771 192 2842 
Q 435 2982 813 3526 
Q 826 3546 874 3606 
Q 922 3667 941 3706 
Q 986 3706 986 3622 
L 986 2880 
L 1632 2880 
L 1632 2675 
L 986 2675 
L 986 845 
Q 986 538 1062 403 
Q 1139 269 1318 269 
Q 1510 269 1702 493 
z
" transform="scale(0.015625)"/>
     </defs>
     <use xlink:href="#STIXGeneral-Regular-66"/>
     <use xlink:href="#STIXGeneral-Regular-65" x="33.299988"/>
     <use xlink:href="#STIXGeneral-Regular-61" x="77.699982"/>
     <use xlink:href="#STIXGeneral-Regular-73" x="122.099976"/>
     <use xlink:href="#STIXGeneral-Regular-69" x="160.999969"/>
     <use xlink:href="#STIXGeneral-Regular-62" x="188.799957"/>
     <use xlink:href="#STIXGeneral-Regular-6c" x="238.799942"/>
     <use xlink:href="#STIXGeneral-Regular-65" x="266.59993"/>
     <use xlink:href="#STIXGeneral-Regular-20" x="310.999924"/>
     <use xlink:href="#STIXGeneral-Regular-73" x="335.999908"/>
     <use xlink:href="#STIXGeneral-Regular-65" x="374.899902"/>
     <use xlink:href="#STIXGeneral-Regular-74" x="419.299896"/>
    </g>
   </g>
   <g id="patch_4">
    <path d="M 141.631319 178.135298 
Q 169.904456 166.826044 195.686228 156.513335 
" style="fill: none; stroke: #9aa3ad; stroke-width: 2.4; stroke-linecap: round"/>
    <path d="M 187.664189 155.844832 
L 195.686228 156.513335 
L 190.338202 162.529864 
z
" style="fill: #9aa3ad; stroke: #9aa3ad; stroke-width: 2.4; stroke-linecap: round"/>
   </g>
   <g id="patch_5">
    <path d="M 140.348789 176.962006 
Q 148.813637 148.745847 156.50745 123.099805 
" style="fill: none; stroke: #9aa3ad; stroke-width: 2.4; stroke-linecap: round"/>
    <path d="M 150.99037 128.961702 
L 156.50745 123.099805 
L 157.88672 131.030607 
z
" style="fill: #9aa3ad; stroke: #9aa3ad; stroke-width: 2.4; stroke-linecap: round"/>
   </g>
   <g id="text_4">
    <!-- $\nabla g_1$ -->
    <g style="fill: #9aa3ad" transform="translate(203.047826 166.978308) scale(0.11 -0.11)">
     <defs>
      <path id="Cmsy10-72" d="M 2503 -141 
L 300 4300 
Q 300 4306 298 4311 
Q 297 4316 294 4319 
Q 294 4372 347 4372 
L 4978 4372 
Q 5031 4372 5031 4319 
Q 5031 4313 5029 4309 
Q 5028 4306 5025 4300 
L 2822 -141 
Q 2791 -213 2706 -213 
L 2619 -213 
Q 2534 -213 2503 -141 
z
M 2847 416 
L 4569 3891 
L 1125 3891 
L 2847 416 
z
" transform="scale(0.015625)"/>
     </defs>
     <use xlink:href="#Cmsy10-72" transform="translate(0 0.6875)"/>
     <use xlink:href="#Cmmi10-67" transform="translate(83.300781 0.6875)"/>
     <use xlink:href="#Cmr10-31" transform="translate(131.005859 -16.31875) scale(0.7)"/>
    </g>
   </g>
   <g id="text_5">
    <!-- $\nabla g_2$ -->
    <g style="fill: #9aa3ad" transform="translate(132.542609 113.948743) scale(0.11 -0.11)">
     <use xlink:href="#Cmsy10-72" transform="translate(0 0.6875)"/>
     <use xlink:href="#Cmmi10-67" transform="translate(83.300781 0.6875)"/>
     <use xlink:href="#Cmr10-32" transform="translate(131.005859 -16.31875) scale(0.7)"/>
    </g>
   </g>
   <g id="patch_6">
    <path d="M 138.326626 180.260355 
Q 106.32945 210.816216 76.757986 239.055632 
" style="fill: none; stroke: #d55e00; stroke-width: 3; stroke-linecap: round"/>
    <path d="M 84.451352 236.686639 
L 76.757986 239.055632 
L 79.478811 231.479544 
z
" style="fill: #d55e00; stroke: #d55e00; stroke-width: 3; stroke-linecap: round"/>
   </g>
   <g id="text_6">
    <!-- $\nabla f$ -->
    <g style="fill: #d55e00" transform="translate(54.806087 256.517364) scale(0.12 -0.12)">
     <defs>
      <path id="Cmmi10-66" d="M 622 -1056 
Q 741 -1147 909 -1147 
Q 1138 -1147 1281 -641 
Q 1341 -397 1606 966 
L 1900 2534 
L 1350 2534 
Q 1288 2534 1288 2619 
Q 1313 2759 1369 2759 
L 1941 2759 
L 2016 3175 
Q 2053 3369 2084 3508 
Q 2116 3647 2152 3765 
Q 2188 3884 2259 4031 
Q 2369 4241 2555 4377 
Q 2741 4513 2956 4513 
Q 3097 4513 3230 4461 
Q 3363 4409 3447 4306 
Q 3531 4203 3531 4063 
Q 3531 3900 3423 3779 
Q 3316 3659 3163 3659 
Q 3059 3659 2986 3723 
Q 2913 3788 2913 3891 
Q 2913 4031 3008 4136 
Q 3103 4241 3244 4256 
Q 3125 4347 2950 4347 
Q 2853 4347 2767 4256 
Q 2681 4166 2656 4063 
Q 2616 3900 2478 3181 
L 2400 2759 
L 3059 2759 
Q 3122 2759 3122 2675 
Q 3119 2659 3109 2620 
Q 3100 2581 3083 2557 
Q 3066 2534 3041 2534 
L 2356 2534 
L 2059 972 
Q 2003 631 1929 279 
Q 1856 -72 1723 -442 
Q 1591 -813 1384 -1063 
Q 1178 -1313 897 -1313 
Q 681 -1313 511 -1189 
Q 341 -1066 341 -863 
Q 341 -700 445 -579 
Q 550 -459 709 -459 
Q 816 -459 887 -523 
Q 959 -588 959 -691 
Q 959 -828 857 -942 
Q 756 -1056 622 -1056 
z
" transform="scale(0.015625)"/>
     </defs>
     <use xlink:href="#Cmsy10-72" transform="translate(0 0.484375)"/>
     <use xlink:href="#Cmmi10-66" transform="translate(83.300781 0.484375)"/>
    </g>
   </g>
   <g id="text_7">
    <!-- $x^\ast$ -->
    <g style="fill: #1f2328" transform="translate(144.594783 198.546929) scale(0.12 -0.12)">
     <defs>
      <path id="Cmsy10-a4" d="M 603 813 
Q 531 813 473 873 
Q 416 934 416 1006 
Q 416 1116 506 1159 
L 1428 1600 
L 506 2034 
Q 416 2072 416 2188 
Q 416 2259 473 2320 
Q 531 2381 603 2381 
Q 650 2381 691 2350 
L 1509 1753 
L 1416 2797 
Q 1416 2875 1469 2925 
Q 1522 2975 1600 2975 
Q 1675 2975 1726 2928 
Q 1778 2881 1778 2809 
L 1778 2797 
L 1684 1753 
L 2503 2350 
Q 2544 2381 2591 2381 
Q 2669 2381 2723 2320 
Q 2778 2259 2778 2188 
Q 2778 2072 2688 2034 
L 1766 1600 
L 2688 1159 
Q 2778 1116 2778 1006 
Q 2778 934 2723 873 
Q 2669 813 2591 813 
Q 2544 813 2503 844 
L 1684 1441 
L 1778 403 
L 1778 384 
Q 1778 313 1723 266 
Q 1669 219 1600 219 
Q 1525 219 1470 270 
Q 1416 322 1416 397 
L 1509 1441 
L 691 844 
Q 650 813 603 813 
z
" transform="scale(0.015625)"/>
     </defs>
     <use xlink:href="#Cmmi10-78" transform="translate(0 0.196875)"/>
     <use xlink:href="#Cmsy10-a4" transform="translate(75.674375 38.460938) scale(0.7)"/>
    </g>
   </g>
   <g id="text_8">
    <!-- KKT: $\nabla f=-(\lambda_1\nabla g_1+\lambda_2\nabla g_2)$, $\lambda_i\geq 0$ -->
    <g transform="translate(52.646087 16.2) scale(0.12 -0.12)">
     <defs>
      <path id="STIXGeneral-Regular-4b" d="M 4627 0 
L 2688 0 
L 2688 122 
L 2861 128 
Q 3130 134 3130 282 
Q 3130 397 2922 643 
Q 2714 890 2253 1370 
L 1613 2029 
L 1446 1894 
L 1446 710 
Q 1446 352 1548 253 
Q 1651 154 2016 122 
L 2016 0 
L 211 0 
L 211 122 
Q 589 141 691 262 
Q 794 384 794 800 
L 794 3514 
Q 794 3872 691 3981 
Q 589 4090 218 4115 
L 218 4237 
L 2022 4237 
L 2022 4115 
Q 1632 4090 1539 3987 
Q 1446 3885 1446 3507 
L 1446 2227 
L 2586 3277 
Q 2861 3533 2973 3667 
Q 3085 3802 3085 3910 
Q 3085 4013 3030 4057 
Q 2976 4102 2822 4109 
L 2662 4115 
L 2662 4237 
L 4320 4237 
L 4320 4115 
Q 3994 4090 3824 4003 
Q 3654 3917 3322 3597 
L 2131 2458 
L 3629 819 
Q 4026 384 4214 253 
Q 4403 122 4627 122 
L 4627 0 
z
" transform="scale(0.015625)"/>
      <path id="STIXGeneral-Regular-54" d="M 3795 3149 
L 3642 3149 
Q 3539 3674 3353 3821 
Q 3168 3968 2656 3968 
L 2278 3968 
L 2278 710 
Q 2278 346 2387 243 
Q 2496 141 2893 122 
L 2893 0 
L 1024 0 
L 1024 122 
Q 1427 147 1526 256 
Q 1626 365 1626 787 
L 1626 3968 
L 1242 3968 
Q 723 3968 540 3817 
Q 358 3667 262 3149 
L 109 3149 
L 154 4237 
L 3750 4237 
L 3795 3149 
z
" transform="scale(0.015625)"/>
      <path id="STIXGeneral-Regular-3a" d="M 1123 2832 
Q 1229 2726 1229 2579 
Q 1229 2432 1126 2329 
Q 1024 2227 877 2227 
Q 730 2227 624 2332 
Q 518 2438 518 2579 
Q 518 2733 620 2835 
Q 723 2938 877 2938 
Q 1018 2938 1123 2832 
z
M 1229 282 
Q 1229 141 1126 35 
Q 1024 -70 877 -70 
Q 730 -70 624 35 
Q 518 141 518 282 
Q 518 435 620 537 
Q 723 640 877 640 
Q 1018 640 1123 534 
Q 1229 429 1229 282 
z
" transform="scale(0.015625)"/>
      <path id="Cmsy10-a1" d="M 653 1472 
Q 600 1472 565 1512 
Q 531 1553 531 1600 
Q 531 1647 565 1687 
Q 600 1728 653 1728 
L 4325 1728 
Q 4375 1728 4408 1687 
Q 4441 1647 4441 1600 
Q 4441 1553 4408 1512 
Q 4375 1472 4325 1472 
L 653 1472 
z
" transform="scale(0.015625)"/>
      <path id="Cmmi10-b8" d="M 325 109 
Q 325 203 409 288 
L 2209 2053 
L 1575 3834 
Q 1500 4038 1417 4156 
Q 1334 4275 1178 4275 
Q 1106 4275 1106 4359 
Q 1113 4397 1138 4419 
Q 1163 4441 1203 4441 
Q 1875 4441 2016 4044 
L 3316 416 
Q 3400 144 3488 50 
Q 3519 3 3519 -13 
Q 3519 -72 3469 -72 
L 3122 -72 
Q 2963 -25 2869 206 
L 2284 1844 
L 738 25 
Q 622 -84 531 -84 
Q 450 -84 387 -28 
Q 325 28 325 109 
z
" transform="scale(0.015625)"/>
      <path id="Cmr10-2b" d="M 481 1472 
Q 428 1472 393 1512 
Q 359 1553 359 1600 
Q 359 1647 393 1687 
Q 428 1728 481 1728 
L 2363 1728 
L 2363 3616 
Q 2363 3666 2400 3698 
Q 2438 3731 2491 3731 
Q 2538 3731 2578 3698 
Q 2619 3666 2619 3616 
L 2619 1728 
L 4500 1728 
Q 4547 1728 4581 1687 
Q 4616 1647 4616 1600 
Q 4616 1553 4581 1512 
Q 4547 1472 4500 1472 
L 2619 1472 
L 2619 -416 
Q 2619 -466 2578 -498 
Q 2538 -531 2491 -531 
Q 2438 -531 2400 -498 
Q 2363 -466 2363 -416 
L 2363 1472 
L 481 1472 
z
" transform="scale(0.015625)"/>
      <path id="STIXGeneral-Regular-2c" d="M 531 -902 
L 467 -781 
Q 998 -422 998 -96 
Q 998 -13 909 -13 
Q 883 -13 822 -25 
Q 762 -38 723 -38 
Q 352 -38 352 288 
Q 352 454 457 553 
Q 563 653 736 653 
Q 954 653 1101 496 
Q 1248 339 1248 96 
Q 1248 -198 1053 -473 
Q 858 -749 531 -902 
z
" transform="scale(0.015625)"/>
      <path id="Cmmi10-69" d="M 500 459 
Q 500 578 550 709 
L 1069 2088 
Q 1153 2322 1153 2472 
Q 1153 2663 1013 2663 
Q 759 2663 595 2402 
Q 431 2141 353 1819 
Q 341 1778 300 1778 
L 225 1778 
Q 172 1778 172 1838 
L 172 1856 
Q 275 2238 487 2533 
Q 700 2828 1025 2828 
Q 1253 2828 1411 2678 
Q 1569 2528 1569 2297 
Q 1569 2178 1516 2047 
L 997 672 
Q 909 459 909 288 
Q 909 97 1056 97 
Q 1306 97 1473 364 
Q 1641 631 1709 941 
Q 1722 978 1759 978 
L 1838 978 
Q 1863 978 1878 961 
Q 1894 944 1894 922 
Q 1894 916 1888 903 
Q 1800 541 1583 234 
Q 1366 -72 1044 -72 
Q 819 -72 659 83 
Q 500 238 500 459 
z
M 1222 3878 
Q 1222 4013 1334 4122 
Q 1447 4231 1581 4231 
Q 1691 4231 1761 4164 
Q 1831 4097 1831 3994 
Q 1831 3850 1717 3742 
Q 1603 3634 1466 3634 
Q 1363 3634 1292 3704 
Q 1222 3775 1222 3878 
z
" transform="scale(0.015625)"/>
      <path id="Cmsy10-b8" d="M 653 -878 
Q 600 -878 565 -837 
Q 531 -797 531 -750 
Q 531 -697 565 -659 
Q 600 -622 653 -622 
L 4325 -622 
Q 4375 -622 4408 -659 
Q 4441 -697 4441 -750 
Q 4441 -797 4408 -837 
Q 4375 -878 4325 -878 
L 653 -878 
z
M 531 494 
Q 531 572 616 616 
L 4013 2222 
L 594 3834 
Q 531 3863 531 3944 
Q 531 3991 568 4031 
Q 606 4072 659 4072 
Q 691 4072 709 4063 
L 4384 2328 
Q 4441 2300 4441 2222 
Q 4441 2144 4366 2100 
L 709 378 
Q 691 366 659 366 
Q 606 366 568 403 
Q 531 441 531 494 
z
" transform="scale(0.015625)"/>
     </defs>
     <use xlink:href="#STIXGeneral-Regular-4b"/>
     <use xlink:href="#STIXGeneral-Regular-4b" transform="translate(72.199982 0)"/>
     <use xlink:href="#STIXGeneral-Regular-54" transform="translate(144.399963 0)"/>
     <use xlink:href="#STIXGeneral-Regular-3a" transform="translate(205.499954 0)"/>
     <use xlink:href="#STIXGeneral-Regular-20" transform="translate(233.299942 0)"/>
     <use xlink:href="#Cmsy10-72" transform="translate(258.299927 0)"/>
     <use xlink:href="#Cmmi10-66" transform="translate(341.600708 0)"/>
     <use xlink:href="#Cmr10-3d" transform="translate(408.036255 0)"/>
     <use xlink:href="#Cmsy10-a1" transform="translate(520.838989 0)"/>
     <use xlink:href="#Cmr10-28" transform="translate(616.08313 0)"/>
     <use xlink:href="#Cmmi10-b8" transform="translate(654.901489 0)"/>
     <use xlink:href="#Cmr10-31" transform="translate(713.202271 -17.00625) scale(0.7)"/>
     <use xlink:href="#Cmsy10-72" transform="translate(754.579614 0)"/>
     <use xlink:href="#Cmmi10-67" transform="translate(837.880396 0)"/>
     <use xlink:href="#Cmr10-31" transform="translate(885.585474 -17.00625) scale(0.7)"/>
     <use xlink:href="#Cmr10-2b" transform="translate(944.521411 0)"/>
     <use xlink:href="#Cmmi10-b8" transform="translate(1039.765552 0)"/>
     <use xlink:href="#Cmr10-32" transform="translate(1098.066333 -17.00625) scale(0.7)"/>
     <use xlink:href="#Cmsy10-72" transform="translate(1139.443677 0)"/>
     <use xlink:href="#Cmmi10-67" transform="translate(1222.744458 0)"/>
     <use xlink:href="#Cmr10-32" transform="translate(1270.449536 -17.00625) scale(0.7)"/>
     <use xlink:href="#Cmr10-29" transform="translate(1311.82688 0)"/>
     <use xlink:href="#STIXGeneral-Regular-2c" transform="translate(1350.645239 0)"/>
     <use xlink:href="#STIXGeneral-Regular-20" transform="translate(1375.645224 0)"/>
     <use xlink:href="#Cmmi10-b8" transform="translate(1400.645209 0)"/>
     <use xlink:href="#Cmmi10-69" transform="translate(1458.94599 -17.00625) scale(0.7)"/>
     <use xlink:href="#Cmsy10-b8" transform="translate(1506.978607 0)"/>
     <use xlink:href="#Cmr10-30" transform="translate(1602.222748 0)"/>
    </g>
   </g>
   <g id="line2d_7">
    <defs>
     <path id="m691fc64923" d="M 0 3 
C 0.795609 3 1.55874 2.683901 2.12132 2.12132 
C 2.683901 1.55874 3 0.795609 3 0 
C 3 -0.795609 2.683901 -1.55874 2.12132 -2.12132 
C 1.55874 -2.683901 0.795609 -3 0 -3 
C -0.795609 -3 -1.55874 -2.683901 -2.12132 -2.12132 
C -2.683901 -1.55874 -3 -0.795609 -3 0 
C -3 0.795609 -2.683901 1.55874 -2.12132 2.12132 
C -1.55874 2.683901 -0.795609 3 0 3 
z
" style="stroke: #1f2328"/>
    </defs>
    <g clip-path="url(#p486bd7ec09)">
     <use xlink:href="#m691fc64923" x="139.773913" y="178.878261" style="fill: #1f2328; stroke: #1f2328"/>
    </g>
   </g>
  </g>
 </g>
 <defs>
  <clipPath id="p486bd7ec09">
   <rect x="7.2" y="22.2" width="289.252174" height="277.2"/>
  </clipPath>
 </defs>
</svg>
