<?xml version="1.0" encoding="utf-8" standalone="no"?>
<!DOCTYPE svg PUBLIC "-//W3C//DTD SVG 1.1//EN"
  "http://www.w3.org/Graphics/SVG/1.1/DTD/svg11.dtd">
<svg xmlns:xlink="http://www.w3.org/1999/xlink" width="418.94pt" height="323.207625pt" viewBox="0 0 418.94 323.207625" xmlns="http://www.w3.org/2000/svg" version="1.1">
 <metadata>
  <rdf:RDF xmlns:dc="http://purl.org/dc/elements/1.1/" xmlns:cc="http://creativecommons.org/ns#" xmlns:rdf="http://www.w3.org/1999/02/22-rdf-syntax-ns#">
   <cc:Work>
    <dc:type rdf:resource="http://purl.org/dc/dcmitype/StillImage"/>
    <dc:date>2026-06-23T16:38:53.336373</dc:date>
    <dc:format>image/svg+xml</dc:format>
    <dc:creator>
     <cc:Agent>
      <dc:title>Matplotlib v3.9.4, https://matplotlib.org/</dc:title>
     </cc:Agent>
    </dc:creator>
   </cc:Work>
  </rdf:RDF>
 </metadata>
 <defs>
  <style type="text/css">*{stroke-linejoin: round; stroke-linecap: butt}</style>
 </defs>
 <g id="figure_1">
  <g id="patch_1">
   <path d="M 0 323.207625 
L 418.94 323.207625 
L 418.94 0 
L 0 0 
z
" style="fill: #ffffff"/>
  </g>
  <g id="axes_1">
   <g id="patch_2">
    <path d="M 43.46 287.507625 
L 411.74 287.507625 
L 411.74 21.395625 
L 43.46 21.395625 
z
" style="fill: #ffffff"/>
   </g>
   <g id="matplotlib.axis_1">
    <g id="xtick_1">
     <g id="line2d_1">
      <defs>
       <path id="m5dc58f359f" d="M 0 0 
L 0 3 
" style="stroke: #1f2328; stroke-width: 0.8"/>
      </defs>
      <g>
       <use xlink:href="#m5dc58f359f" x="43.46" y="287.507625" style="fill: #1f2328; stroke: #1f2328; stroke-width: 0.8"/>
      </g>
     </g>
     <g id="text_1">
      <!-- 0.0 -->
      <g style="fill: #1f2328" transform="translate(37.835 300.154344) scale(0.09 -0.09)">
       <defs>
        <path id="STIXGeneral-Regular-30" d="M 3046 2112 
Q 3046 1683 2963 1302 
Q 2880 922 2717 602 
Q 2554 282 2266 96 
Q 1978 -90 1600 -90 
Q 1210 -90 915 108 
Q 621 307 461 640 
Q 301 973 227 1350 
Q 154 1728 154 2150 
Q 154 2746 301 3222 
Q 448 3699 790 4012 
Q 1133 4326 1626 4326 
Q 2253 4326 2649 3712 
Q 3046 3098 3046 2112 
z
M 2432 2080 
Q 2432 3091 2217 3625 
Q 2003 4160 1587 4160 
Q 1190 4160 979 3622 
Q 768 3085 768 2106 
Q 768 1120 979 598 
Q 1190 77 1600 77 
Q 2003 77 2217 598 
Q 2432 1120 2432 2080 
z
" transform="scale(0.015625)"/>
        <path id="STIXGeneral-Regular-2e" d="M 1158 275 
Q 1158 134 1052 32 
Q 947 -70 800 -70 
Q 653 -70 550 32 
Q 448 134 448 281 
Q 448 429 553 534 
Q 659 640 806 640 
Q 947 640 1052 531 
Q 1158 422 1158 275 
z
" transform="scale(0.015625)"/>
       </defs>
       <use xlink:href="#STIXGeneral-Regular-30"/>
       <use xlink:href="#STIXGeneral-Regular-2e" x="49.999985"/>
       <use xlink:href="#STIXGeneral-Regular-30" x="74.999969"/>
      </g>
     </g>
    </g>
    <g id="xtick_2">
     <g id="line2d_2">
      <g>
       <use xlink:href="#m5dc58f359f" x="114.283077" y="287.507625" style="fill: #1f2328; stroke: #1f2328; stroke-width: 0.8"/>
      </g>
     </g>
     <g id="text_2">
      <!-- 0.5 -->
      <g style="fill: #1f2328" transform="translate(108.658077 300.154344) scale(0.09 -0.09)">
       <defs>
        <path id="STIXGeneral-Regular-35" d="M 2803 4358 
L 2573 3814 
Q 2534 3731 2400 3731 
L 1158 3731 
L 902 3187 
Q 1606 3053 1920 2896 
Q 2234 2739 2502 2368 
Q 2726 2061 2726 1555 
Q 2726 1094 2576 780 
Q 2426 467 2099 224 
Q 1664 -90 1011 -90 
Q 646 -90 422 19 
Q 198 128 198 307 
Q 198 550 486 550 
Q 717 550 960 352 
Q 1210 147 1414 147 
Q 1747 147 2012 480 
Q 2278 813 2278 1229 
Q 2278 1843 1850 2189 
Q 1293 2637 486 2637 
Q 410 2637 410 2688 
L 416 2720 
L 1114 4237 
L 2438 4237 
Q 2547 4237 2608 4269 
Q 2669 4301 2746 4403 
L 2803 4358 
z
" transform="scale(0.015625)"/>
       </defs>
       <use xlink:href="#STIXGeneral-Regular-30"/>
       <use xlink:href="#STIXGeneral-Regular-2e" x="49.999985"/>
       <use xlink:href="#STIXGeneral-Regular-35" x="74.999969"/>
      </g>
     </g>
    </g>
    <g id="xtick_3">
     <g id="line2d_3">
      <g>
       <use xlink:href="#m5dc58f359f" x="185.106154" y="287.507625" style="fill: #1f2328; stroke: #1f2328; stroke-width: 0.8"/>
      </g>
     </g>
     <g id="text_3">
      <!-- 1.0 -->
      <g style="fill: #1f2328" transform="translate(179.481154 300.154344) scale(0.09 -0.09)">
       <defs>
        <path id="STIXGeneral-Regular-31" d="M 2522 0 
L 755 0 
L 755 96 
Q 1107 115 1235 227 
Q 1363 339 1363 608 
L 1363 3482 
Q 1363 3795 1171 3795 
Q 1082 3795 883 3718 
L 710 3654 
L 710 3744 
L 1856 4326 
L 1914 4307 
L 1914 486 
Q 1914 275 2042 185 
Q 2170 96 2522 96 
L 2522 0 
z
" transform="scale(0.015625)"/>
       </defs>
       <use xlink:href="#STIXGeneral-Regular-31"/>
       <use xlink:href="#STIXGeneral-Regular-2e" x="49.999985"/>
       <use xlink:href="#STIXGeneral-Regular-30" x="74.999969"/>
      </g>
     </g>
    </g>
    <g id="xtick_4">
     <g id="line2d_4">
      <g>
       <use xlink:href="#m5dc58f359f" x="255.929231" y="287.507625" style="fill: #1f2328; stroke: #1f2328; stroke-width: 0.8"/>
      </g>
     </g>
     <g id="text_4">
      <!-- 1.5 -->
      <g style="fill: #1f2328" transform="translate(250.304231 300.154344) scale(0.09 -0.09)">
       <use xlink:href="#STIXGeneral-Regular-31"/>
       <use xlink:href="#STIXGeneral-Regular-2e" x="49.999985"/>
       <use xlink:href="#STIXGeneral-Regular-35" x="74.999969"/>
      </g>
     </g>
    </g>
    <g id="xtick_5">
     <g id="line2d_5">
      <g>
       <use xlink:href="#m5dc58f359f" x="326.752308" y="287.507625" style="fill: #1f2328; stroke: #1f2328; stroke-width: 0.8"/>
      </g>
     </g>
     <g id="text_5">
      <!-- 2.0 -->
      <g style="fill: #1f2328" transform="translate(321.127308 300.154344) scale(0.09 -0.09)">
       <defs>
        <path id="STIXGeneral-Regular-32" d="M 3034 877 
L 2688 0 
L 186 0 
L 186 77 
L 1325 1286 
Q 1773 1754 1965 2144 
Q 2157 2534 2157 2950 
Q 2157 3379 1920 3616 
Q 1683 3853 1267 3853 
Q 922 3853 720 3673 
Q 518 3494 326 3021 
L 192 3053 
Q 301 3648 630 3987 
Q 960 4326 1523 4326 
Q 2054 4326 2380 4006 
Q 2707 3686 2707 3200 
Q 2707 2477 1888 1613 
L 832 486 
L 2330 486 
Q 2541 486 2665 569 
Q 2790 653 2944 915 
L 3034 877 
z
" transform="scale(0.015625)"/>
       </defs>
       <use xlink:href="#STIXGeneral-Regular-32"/>
       <use xlink:href="#STIXGeneral-Regular-2e" x="49.999985"/>
       <use xlink:href="#STIXGeneral-Regular-30" x="74.999969"/>
      </g>
     </g>
    </g>
    <g id="xtick_6">
     <g id="line2d_6">
      <g>
       <use xlink:href="#m5dc58f359f" x="397.575385" y="287.507625" style="fill: #1f2328; stroke: #1f2328; stroke-width: 0.8"/>
      </g>
     </g>
     <g id="text_6">
      <!-- 2.5 -->
      <g style="fill: #1f2328" transform="translate(391.950385 300.154344) scale(0.09 -0.09)">
       <use xlink:href="#STIXGeneral-Regular-32"/>
       <use xlink:href="#STIXGeneral-Regular-2e" x="49.999985"/>
       <use xlink:href="#STIXGeneral-Regular-35" x="74.999969"/>
      </g>
     </g>
    </g>
    <g id="text_7">
     <!-- risk  $\sigma$  (standard deviation of return) -->
     <g transform="translate(146.09 313.620281) scale(0.11 -0.11)">
      <defs>
       <path id="STIXGeneral-Regular-72" d="M 1024 2931 
L 1024 2342 
Q 1267 2688 1430 2816 
Q 1594 2944 1792 2944 
Q 1958 2944 2051 2854 
Q 2144 2765 2144 2605 
Q 2144 2470 2077 2393 
Q 2010 2317 1894 2317 
Q 1773 2317 1638 2445 
Q 1536 2541 1472 2541 
Q 1338 2541 1181 2355 
Q 1024 2170 1024 2016 
L 1024 576 
Q 1024 301 1133 205 
Q 1242 109 1568 96 
L 1568 0 
L 32 0 
L 32 96 
Q 339 154 412 224 
Q 486 294 486 538 
L 486 2138 
Q 486 2349 438 2435 
Q 390 2522 269 2522 
Q 166 2522 45 2496 
L 45 2598 
Q 448 2726 992 2944 
L 1024 2931 
z
" transform="scale(0.015625)"/>
       <path id="STIXGeneral-Regular-69" d="M 1152 4045 
Q 1152 3904 1056 3811 
Q 960 3718 819 3718 
Q 685 3718 592 3811 
Q 499 3904 499 4045 
Q 499 4179 595 4275 
Q 691 4371 826 4371 
Q 966 4371 1059 4275 
Q 1152 4179 1152 4045 
z
M 1619 0 
L 102 0 
L 102 96 
Q 435 115 521 211 
Q 608 307 608 666 
L 608 2118 
Q 608 2342 563 2432 
Q 518 2522 397 2522 
Q 243 2522 128 2490 
L 128 2592 
L 1120 2944 
L 1146 2918 
L 1146 672 
Q 1146 314 1226 218 
Q 1306 122 1619 96 
L 1619 0 
z
" transform="scale(0.015625)"/>
       <path id="STIXGeneral-Regular-73" d="M 998 1926 
L 1664 1523 
Q 1984 1331 2105 1164 
Q 2227 998 2227 736 
Q 2227 416 1961 176 
Q 1696 -64 1331 -64 
Q 1030 -64 864 -6 
Q 691 51 570 51 
Q 461 51 416 -26 
L 333 -26 
L 333 979 
L 435 979 
Q 538 512 730 294 
Q 922 77 1248 77 
Q 1485 77 1632 211 
Q 1779 346 1779 550 
Q 1779 845 1440 1030 
L 1094 1222 
Q 326 1651 326 2150 
Q 326 2522 566 2730 
Q 806 2938 1210 2938 
Q 1491 2938 1638 2867 
Q 1754 2816 1818 2816 
Q 1862 2816 1920 2880 
L 1990 2880 
L 2022 2010 
L 1926 2010 
Q 1818 2445 1654 2621 
Q 1491 2797 1203 2797 
Q 986 2797 854 2688 
Q 723 2579 723 2362 
Q 723 2253 796 2128 
Q 870 2003 998 1926 
z
" transform="scale(0.015625)"/>
       <path id="STIXGeneral-Regular-6b" d="M 3232 0 
L 1837 0 
L 1837 96 
L 1958 96 
Q 2093 96 2093 192 
Q 2093 250 2022 339 
L 1062 1606 
L 1062 429 
Q 1062 262 1142 185 
Q 1222 109 1414 102 
L 1542 96 
L 1542 0 
L 45 0 
L 45 96 
Q 390 154 457 214 
Q 525 275 525 525 
L 525 3610 
Q 525 3840 467 3920 
Q 410 4000 250 4000 
Q 211 4000 45 3987 
L 45 4090 
L 237 4141 
Q 621 4243 1037 4371 
L 1062 4358 
L 1062 1670 
L 1939 2451 
Q 2086 2586 2086 2675 
Q 2086 2739 2019 2761 
Q 1952 2784 1766 2790 
L 1766 2880 
L 3072 2880 
L 3072 2784 
Q 2752 2784 2505 2646 
Q 2259 2509 1690 1978 
L 1504 1805 
L 2483 563 
Q 2829 122 3232 96 
L 3232 0 
z
" transform="scale(0.015625)"/>
       <path id="STIXGeneral-Regular-20" transform="scale(0.015625)"/>
       <path id="Cmmi10-be" d="M 1197 -72 
Q 913 -72 692 64 
Q 472 200 351 431 
Q 231 663 231 941 
Q 231 1238 365 1566 
Q 500 1894 733 2166 
Q 966 2438 1259 2598 
Q 1553 2759 1863 2759 
L 3475 2759 
Q 3541 2759 3587 2715 
Q 3634 2672 3634 2597 
Q 3634 2503 3567 2433 
Q 3500 2363 3406 2363 
L 2625 2363 
Q 2809 2088 2809 1697 
Q 2809 1375 2684 1062 
Q 2559 750 2337 492 
Q 2116 234 1820 81 
Q 1525 -72 1197 -72 
z
M 1203 97 
Q 1553 97 1823 370 
Q 2094 644 2237 1039 
Q 2381 1434 2381 1772 
Q 2381 2047 2229 2205 
Q 2078 2363 1806 2363 
Q 1434 2363 1173 2113 
Q 913 1863 783 1484 
Q 653 1106 653 756 
Q 653 481 798 289 
Q 944 97 1203 97 
z
" transform="scale(0.015625)"/>
       <path id="STIXGeneral-Regular-28" d="M 1946 -1030 
L 1869 -1133 
Q 1126 -710 716 32 
Q 307 774 307 1613 
Q 307 3386 1888 4326 
L 1946 4224 
Q 1293 3667 1075 3126 
Q 858 2586 858 1632 
Q 858 685 1082 96 
Q 1306 -493 1946 -1030 
z
" transform="scale(0.015625)"/>
       <path id="STIXGeneral-Regular-74" d="M 1702 493 
L 1786 422 
Q 1478 -64 1011 -64 
Q 448 -64 448 749 
L 448 2675 
L 109 2675 
Q 83 2694 83 2720 
Q 83 2771 192 2842 
Q 435 2982 813 3526 
Q 826 3546 874 3606 
Q 922 3667 941 3706 
Q 986 3706 986 3622 
L 986 2880 
L 1632 2880 
L 1632 2675 
L 986 2675 
L 986 845 
Q 986 538 1062 403 
Q 1139 269 1318 269 
Q 1510 269 1702 493 
z
" transform="scale(0.015625)"/>
       <path id="STIXGeneral-Regular-61" d="M 2829 422 
L 2829 243 
Q 2586 -64 2253 -64 
Q 1888 -64 1843 403 
L 1837 403 
Q 1427 -64 909 -64 
Q 608 -64 422 112 
Q 237 288 237 602 
Q 237 1050 685 1350 
Q 992 1555 1837 1869 
L 1837 2214 
Q 1837 2502 1699 2646 
Q 1562 2790 1338 2790 
Q 1146 2790 1018 2697 
Q 890 2605 890 2477 
Q 890 2419 909 2348 
Q 928 2278 928 2208 
Q 928 2112 841 2029 
Q 755 1946 634 1946 
Q 525 1946 441 2029 
Q 358 2112 358 2240 
Q 358 2547 685 2752 
Q 986 2944 1421 2944 
Q 1939 2944 2176 2656 
Q 2291 2522 2323 2384 
Q 2355 2246 2355 1946 
L 2355 723 
Q 2355 301 2554 301 
Q 2682 301 2829 422 
z
M 1837 813 
L 1837 1715 
Q 1248 1510 1018 1293 
Q 800 1094 800 800 
Q 800 557 921 432 
Q 1043 307 1242 307 
Q 1453 307 1613 410 
Q 1747 506 1792 589 
Q 1837 672 1837 813 
z
" transform="scale(0.015625)"/>
       <path id="STIXGeneral-Regular-6e" d="M 3104 0 
L 1773 0 
L 1779 96 
Q 2016 115 2096 233 
Q 2176 352 2176 672 
L 2176 1946 
Q 2176 2592 1709 2592 
Q 1549 2592 1408 2515 
Q 1267 2438 1050 2227 
L 1050 461 
Q 1050 269 1136 192 
Q 1222 115 1466 96 
L 1466 0 
L 115 0 
L 115 96 
Q 358 115 435 214 
Q 512 314 512 602 
L 512 2157 
Q 512 2394 467 2483 
Q 422 2573 288 2573 
Q 160 2573 102 2547 
L 102 2656 
Q 550 2784 979 2944 
L 1030 2925 
L 1030 2426 
L 1037 2426 
Q 1491 2944 1958 2944 
Q 2323 2944 2518 2688 
Q 2714 2432 2714 1958 
L 2714 544 
Q 2714 288 2790 205 
Q 2867 122 3104 96 
L 3104 0 
z
" transform="scale(0.015625)"/>
       <path id="STIXGeneral-Regular-64" d="M 3142 269 
L 2202 -64 
L 2176 -45 
L 2176 365 
Q 1869 -64 1357 -64 
Q 826 -64 499 317 
Q 173 698 173 1312 
Q 173 1990 563 2467 
Q 954 2944 1504 2944 
Q 1850 2944 2176 2669 
L 2176 3667 
Q 2176 3866 2118 3930 
Q 2061 3994 1882 3994 
Q 1792 3994 1741 3987 
L 1741 4090 
Q 2323 4243 2682 4371 
L 2714 4358 
L 2714 730 
Q 2714 506 2768 435 
Q 2822 365 2995 365 
Q 3034 365 3142 371 
L 3142 269 
z
M 2176 653 
L 2176 2125 
Q 2176 2381 1981 2573 
Q 1786 2765 1523 2765 
Q 1158 2765 940 2438 
Q 723 2112 723 1568 
Q 723 979 963 624 
Q 1203 269 1606 269 
Q 1907 269 2080 474 
Q 2176 582 2176 653 
z
" transform="scale(0.015625)"/>
       <path id="STIXGeneral-Regular-65" d="M 2611 1050 
L 2714 1005 
Q 2330 -64 1376 -64 
Q 813 -64 486 329 
Q 160 723 160 1389 
Q 160 2074 525 2509 
Q 890 2944 1485 2944 
Q 2061 2944 2374 2502 
Q 2560 2246 2592 1773 
L 621 1773 
Q 646 1370 700 1158 
Q 755 947 915 730 
Q 1184 378 1626 378 
Q 1939 378 2153 531 
Q 2368 685 2611 1050 
z
M 634 1978 
L 1939 1978 
Q 1882 2381 1750 2547 
Q 1619 2714 1312 2714 
Q 1043 2714 864 2525 
Q 685 2336 634 1978 
z
" transform="scale(0.015625)"/>
       <path id="STIXGeneral-Regular-76" d="M 3053 2880 
L 3053 2784 
Q 2906 2771 2835 2688 
Q 2765 2605 2637 2285 
L 1818 230 
Q 1690 -90 1638 -90 
Q 1587 -90 1523 77 
Q 1510 96 1497 141 
Q 1485 186 1472 211 
L 704 2048 
Q 499 2534 403 2652 
Q 307 2771 122 2784 
L 122 2880 
L 1376 2880 
L 1376 2784 
Q 1210 2771 1146 2732 
Q 1082 2694 1082 2611 
Q 1082 2509 1139 2368 
L 1792 730 
L 2426 2387 
Q 2464 2483 2464 2579 
Q 2464 2758 2163 2784 
L 2163 2880 
L 3053 2880 
z
" transform="scale(0.015625)"/>
       <path id="STIXGeneral-Regular-6f" d="M 3008 1478 
Q 3008 806 2608 371 
Q 2208 -64 1568 -64 
Q 979 -64 582 368 
Q 186 800 186 1459 
Q 186 2125 582 2534 
Q 979 2944 1626 2944 
Q 2221 2944 2614 2537 
Q 3008 2131 3008 1478 
z
M 2432 1306 
Q 2432 2035 2112 2445 
Q 1856 2765 1504 2765 
Q 1171 2765 966 2493 
Q 762 2221 762 1747 
Q 762 928 1101 435 
Q 1318 115 1677 115 
Q 2029 115 2230 432 
Q 2432 749 2432 1306 
z
" transform="scale(0.015625)"/>
       <path id="STIXGeneral-Regular-66" d="M 134 2880 
L 659 2880 
Q 666 3264 710 3478 
Q 755 3693 883 3910 
Q 1152 4371 1786 4371 
Q 2074 4371 2262 4259 
Q 2451 4147 2451 3974 
Q 2451 3866 2374 3789 
Q 2298 3712 2182 3712 
Q 2029 3712 1894 3942 
Q 1741 4192 1555 4192 
Q 1197 4192 1197 3622 
L 1197 2880 
L 1978 2880 
L 1978 2675 
L 1197 2675 
L 1197 666 
Q 1197 307 1299 208 
Q 1402 109 1792 96 
L 1792 0 
L 128 0 
L 128 96 
Q 474 115 566 214 
Q 659 314 659 666 
L 659 2675 
L 134 2675 
L 134 2880 
z
" transform="scale(0.015625)"/>
       <path id="STIXGeneral-Regular-75" d="M 3072 320 
L 3072 230 
Q 2573 96 2195 -58 
L 2163 -38 
L 2163 486 
L 2150 486 
Q 1747 -64 1235 -64 
Q 870 -64 662 160 
Q 454 384 454 755 
L 454 2362 
Q 454 2598 371 2688 
Q 288 2778 58 2790 
L 58 2880 
L 992 2880 
L 992 813 
Q 992 595 1123 451 
Q 1254 307 1446 307 
Q 1760 307 1984 506 
Q 2067 582 2099 649 
Q 2131 717 2131 877 
L 2131 2355 
Q 2131 2605 2041 2678 
Q 1952 2752 1658 2771 
L 1658 2880 
L 2669 2880 
L 2669 685 
Q 2669 461 2742 390 
Q 2816 320 3034 320 
L 3072 320 
z
" transform="scale(0.015625)"/>
       <path id="STIXGeneral-Regular-29" d="M 186 4224 
L 262 4326 
Q 992 3891 1408 3148 
Q 1824 2406 1824 1581 
Q 1824 -166 243 -1133 
L 186 -1030 
Q 845 -486 1059 54 
Q 1274 595 1274 1562 
Q 1274 2534 1059 3120 
Q 845 3706 186 4224 
z
" transform="scale(0.015625)"/>
      </defs>
      <use xlink:href="#STIXGeneral-Regular-72" transform="translate(0 0.703125)"/>
      <use xlink:href="#STIXGeneral-Regular-69" transform="translate(33.299988 0.703125)"/>
      <use xlink:href="#STIXGeneral-Regular-73" transform="translate(61.099976 0.703125)"/>
      <use xlink:href="#STIXGeneral-Regular-6b" transform="translate(99.999969 0.703125)"/>
      <use xlink:href="#STIXGeneral-Regular-20" transform="translate(149.999954 0.703125)"/>
      <use xlink:href="#STIXGeneral-Regular-20" transform="translate(174.999939 0.703125)"/>
      <use xlink:href="#Cmmi10-be" transform="translate(199.999924 0.703125)"/>
      <use xlink:href="#STIXGeneral-Regular-20" transform="translate(257.080002 0.703125)"/>
      <use xlink:href="#STIXGeneral-Regular-20" transform="translate(282.079987 0.703125)"/>
      <use xlink:href="#STIXGeneral-Regular-28" transform="translate(307.079971 0.703125)"/>
      <use xlink:href="#STIXGeneral-Regular-73" transform="translate(340.379959 0.703125)"/>
      <use xlink:href="#STIXGeneral-Regular-74" transform="translate(379.279953 0.703125)"/>
      <use xlink:href="#STIXGeneral-Regular-61" transform="translate(407.079941 0.703125)"/>
      <use xlink:href="#STIXGeneral-Regular-6e" transform="translate(451.479935 0.703125)"/>
      <use xlink:href="#STIXGeneral-Regular-64" transform="translate(501.479919 0.703125)"/>
      <use xlink:href="#STIXGeneral-Regular-61" transform="translate(551.479904 0.703125)"/>
      <use xlink:href="#STIXGeneral-Regular-72" transform="translate(595.879898 0.703125)"/>
      <use xlink:href="#STIXGeneral-Regular-64" transform="translate(629.179886 0.703125)"/>
      <use xlink:href="#STIXGeneral-Regular-20" transform="translate(679.179871 0.703125)"/>
      <use xlink:href="#STIXGeneral-Regular-64" transform="translate(704.179855 0.703125)"/>
      <use xlink:href="#STIXGeneral-Regular-65" transform="translate(754.17984 0.703125)"/>
      <use xlink:href="#STIXGeneral-Regular-76" transform="translate(798.579834 0.703125)"/>
      <use xlink:href="#STIXGeneral-Regular-69" transform="translate(848.579819 0.703125)"/>
      <use xlink:href="#STIXGeneral-Regular-61" transform="translate(876.379807 0.703125)"/>
      <use xlink:href="#STIXGeneral-Regular-74" transform="translate(920.7798 0.703125)"/>
      <use xlink:href="#STIXGeneral-Regular-69" transform="translate(948.579788 0.703125)"/>
      <use xlink:href="#STIXGeneral-Regular-6f" transform="translate(976.379776 0.703125)"/>
      <use xlink:href="#STIXGeneral-Regular-6e" transform="translate(1026.379761 0.703125)"/>
      <use xlink:href="#STIXGeneral-Regular-20" transform="translate(1076.379745 0.703125)"/>
      <use xlink:href="#STIXGeneral-Regular-6f" transform="translate(1101.37973 0.703125)"/>
      <use xlink:href="#STIXGeneral-Regular-66" transform="translate(1151.379715 0.703125)"/>
      <use xlink:href="#STIXGeneral-Regular-20" transform="translate(1184.679703 0.703125)"/>
      <use xlink:href="#STIXGeneral-Regular-72" transform="translate(1209.679688 0.703125)"/>
      <use xlink:href="#STIXGeneral-Regular-65" transform="translate(1242.979675 0.703125)"/>
      <use xlink:href="#STIXGeneral-Regular-74" transform="translate(1287.379669 0.703125)"/>
      <use xlink:href="#STIXGeneral-Regular-75" transform="translate(1315.179657 0.703125)"/>
      <use xlink:href="#STIXGeneral-Regular-72" transform="translate(1365.179642 0.703125)"/>
      <use xlink:href="#STIXGeneral-Regular-6e" transform="translate(1398.47963 0.703125)"/>
      <use xlink:href="#STIXGeneral-Regular-29" transform="translate(1448.479614 0.703125)"/>
     </g>
    </g>
   </g>
   <g id="matplotlib.axis_2">
    <g id="ytick_1">
     <g id="line2d_7">
      <defs>
       <path id="m2e1f14f0ac" d="M 0 0 
L -3 0 
" style="stroke: #1f2328; stroke-width: 0.8"/>
      </defs>
      <g>
       <use xlink:href="#m2e1f14f0ac" x="43.46" y="259.495836" style="fill: #1f2328; stroke: #1f2328; stroke-width: 0.8"/>
      </g>
     </g>
     <g id="text_8">
      <!-- 0.00 -->
      <g style="fill: #1f2328" transform="translate(21.21 262.569195) scale(0.09 -0.09)">
       <use xlink:href="#STIXGeneral-Regular-30"/>
       <use xlink:href="#STIXGeneral-Regular-2e" x="49.999985"/>
       <use xlink:href="#STIXGeneral-Regular-30" x="74.999969"/>
       <use xlink:href="#STIXGeneral-Regular-30" x="124.999954"/>
      </g>
     </g>
    </g>
    <g id="ytick_2">
     <g id="line2d_8">
      <g>
       <use xlink:href="#m2e1f14f0ac" x="43.46" y="189.466362" style="fill: #1f2328; stroke: #1f2328; stroke-width: 0.8"/>
      </g>
     </g>
     <g id="text_9">
      <!-- 0.05 -->
      <g style="fill: #1f2328" transform="translate(21.21 192.539721) scale(0.09 -0.09)">
       <use xlink:href="#STIXGeneral-Regular-30"/>
       <use xlink:href="#STIXGeneral-Regular-2e" x="49.999985"/>
       <use xlink:href="#STIXGeneral-Regular-30" x="74.999969"/>
       <use xlink:href="#STIXGeneral-Regular-35" x="124.999954"/>
      </g>
     </g>
    </g>
    <g id="ytick_3">
     <g id="line2d_9">
      <g>
       <use xlink:href="#m2e1f14f0ac" x="43.46" y="119.436888" style="fill: #1f2328; stroke: #1f2328; stroke-width: 0.8"/>
      </g>
     </g>
     <g id="text_10">
      <!-- 0.10 -->
      <g style="fill: #1f2328" transform="translate(21.21 122.510248) scale(0.09 -0.09)">
       <use xlink:href="#STIXGeneral-Regular-30"/>
       <use xlink:href="#STIXGeneral-Regular-2e" x="49.999985"/>
       <use xlink:href="#STIXGeneral-Regular-31" x="74.999969"/>
       <use xlink:href="#STIXGeneral-Regular-30" x="124.999954"/>
      </g>
     </g>
    </g>
    <g id="ytick_4">
     <g id="line2d_10">
      <g>
       <use xlink:href="#m2e1f14f0ac" x="43.46" y="49.407414" style="fill: #1f2328; stroke: #1f2328; stroke-width: 0.8"/>
      </g>
     </g>
     <g id="text_11">
      <!-- 0.15 -->
      <g style="fill: #1f2328" transform="translate(21.21 52.480774) scale(0.09 -0.09)">
       <use xlink:href="#STIXGeneral-Regular-30"/>
       <use xlink:href="#STIXGeneral-Regular-2e" x="49.999985"/>
       <use xlink:href="#STIXGeneral-Regular-31" x="74.999969"/>
       <use xlink:href="#STIXGeneral-Regular-35" x="124.999954"/>
      </g>
     </g>
    </g>
    <g id="text_12">
     <!-- expected return  $r$ -->
     <g transform="translate(14.79 193.776625) rotate(-90) scale(0.11 -0.11)">
      <defs>
       <path id="STIXGeneral-Regular-78" d="M 3066 0 
L 1779 0 
L 1779 96 
Q 1939 109 1987 137 
Q 2035 166 2035 250 
Q 2035 307 1997 365 
L 1414 1261 
L 909 474 
Q 781 275 781 211 
Q 781 96 1037 96 
L 1037 0 
L 109 0 
L 109 96 
Q 269 109 355 169 
Q 442 230 576 422 
L 1306 1478 
L 704 2400 
Q 557 2624 454 2704 
Q 352 2784 211 2784 
L 154 2784 
L 154 2880 
L 1478 2880 
L 1478 2784 
Q 1203 2778 1203 2643 
Q 1203 2509 1498 2074 
Q 1581 1958 1587 1946 
Q 1619 1990 1779 2227 
Q 1811 2285 1856 2349 
Q 1901 2413 1923 2451 
Q 1946 2490 1971 2528 
Q 1997 2566 2006 2595 
Q 2016 2624 2016 2643 
Q 2016 2765 1760 2784 
L 1760 2880 
L 2771 2880 
L 2771 2784 
Q 2445 2771 2253 2502 
L 1722 1734 
L 2541 480 
Q 2790 96 3066 96 
L 3066 0 
z
" transform="scale(0.015625)"/>
       <path id="STIXGeneral-Regular-70" d="M 1018 2931 
L 1018 2438 
Q 1421 2944 1939 2944 
Q 2406 2944 2707 2560 
Q 3008 2176 3008 1581 
Q 3008 883 2621 409 
Q 2234 -64 1664 -64 
Q 1466 -64 1328 -6 
Q 1190 51 1018 211 
L 1018 -794 
Q 1018 -1094 1120 -1180 
Q 1222 -1267 1581 -1274 
L 1581 -1389 
L 32 -1389 
L 32 -1280 
Q 314 -1254 397 -1171 
Q 480 -1088 480 -838 
L 480 2157 
Q 480 2381 429 2451 
Q 378 2522 218 2522 
Q 115 2522 58 2515 
L 58 2618 
Q 506 2752 979 2944 
L 1018 2931 
z
M 1018 2138 
L 1018 563 
Q 1018 422 1238 281 
Q 1459 141 1683 141 
Q 2029 141 2243 467 
Q 2458 794 2458 1325 
Q 2458 1888 2243 2224 
Q 2029 2560 1670 2560 
Q 1446 2560 1232 2419 
Q 1018 2278 1018 2138 
z
" transform="scale(0.015625)"/>
       <path id="STIXGeneral-Regular-63" d="M 2547 998 
L 2637 941 
Q 2362 403 2112 205 
Q 1786 -64 1376 -64 
Q 845 -64 502 336 
Q 160 736 160 1357 
Q 160 2170 698 2618 
Q 1094 2944 1562 2944 
Q 1965 2944 2256 2749 
Q 2547 2554 2547 2285 
Q 2547 2176 2457 2096 
Q 2368 2016 2246 2016 
Q 2022 2016 1939 2310 
L 1901 2451 
Q 1850 2630 1773 2694 
Q 1696 2758 1523 2758 
Q 1133 2758 893 2451 
Q 653 2144 653 1645 
Q 653 1094 928 745 
Q 1203 397 1645 397 
Q 1920 397 2118 528 
Q 2317 659 2547 998 
z
" transform="scale(0.015625)"/>
       <path id="Cmmi10-72" d="M 494 109 
Q 494 147 500 166 
L 978 2075 
Q 1025 2253 1025 2388 
Q 1025 2663 838 2663 
Q 638 2663 541 2423 
Q 444 2184 353 1819 
Q 353 1800 334 1789 
Q 316 1778 300 1778 
L 225 1778 
Q 203 1778 187 1801 
Q 172 1825 172 1844 
Q 241 2122 305 2315 
Q 369 2509 505 2668 
Q 641 2828 844 2828 
Q 1066 2828 1233 2700 
Q 1400 2572 1441 2363 
Q 1603 2575 1811 2701 
Q 2019 2828 2266 2828 
Q 2469 2828 2623 2709 
Q 2778 2591 2778 2388 
Q 2778 2225 2676 2104 
Q 2575 1984 2406 1984 
Q 2303 1984 2233 2048 
Q 2163 2113 2163 2216 
Q 2163 2356 2266 2467 
Q 2369 2578 2503 2578 
Q 2400 2663 2253 2663 
Q 1978 2663 1775 2467 
Q 1572 2272 1409 1972 
L 953 141 
Q 931 53 854 -9 
Q 778 -72 684 -72 
Q 606 -72 550 -22 
Q 494 28 494 109 
z
" transform="scale(0.015625)"/>
      </defs>
      <use xlink:href="#STIXGeneral-Regular-65" transform="translate(0 0.703125)"/>
      <use xlink:href="#STIXGeneral-Regular-78" transform="translate(44.399994 0.703125)"/>
      <use xlink:href="#STIXGeneral-Regular-70" transform="translate(94.399979 0.703125)"/>
      <use xlink:href="#STIXGeneral-Regular-65" transform="translate(144.399963 0.703125)"/>
      <use xlink:href="#STIXGeneral-Regular-63" transform="translate(188.799957 0.703125)"/>
      <use xlink:href="#STIXGeneral-Regular-74" transform="translate(233.199951 0.703125)"/>
      <use xlink:href="#STIXGeneral-Regular-65" transform="translate(260.999939 0.703125)"/>
      <use xlink:href="#STIXGeneral-Regular-64" transform="translate(305.399933 0.703125)"/>
      <use xlink:href="#STIXGeneral-Regular-20" transform="translate(355.399918 0.703125)"/>
      <use xlink:href="#STIXGeneral-Regular-72" transform="translate(380.399902 0.703125)"/>
      <use xlink:href="#STIXGeneral-Regular-65" transform="translate(413.69989 0.703125)"/>
      <use xlink:href="#STIXGeneral-Regular-74" transform="translate(458.099884 0.703125)"/>
      <use xlink:href="#STIXGeneral-Regular-75" transform="translate(485.899872 0.703125)"/>
      <use xlink:href="#STIXGeneral-Regular-72" transform="translate(535.899857 0.703125)"/>
      <use xlink:href="#STIXGeneral-Regular-6e" transform="translate(569.199844 0.703125)"/>
      <use xlink:href="#STIXGeneral-Regular-20" transform="translate(619.199829 0.703125)"/>
      <use xlink:href="#STIXGeneral-Regular-20" transform="translate(644.199814 0.703125)"/>
      <use xlink:href="#Cmmi10-72" transform="translate(669.199799 0.703125)"/>
     </g>
    </g>
   </g>
   <g id="line2d_11">
    <path d="M 206.716026 287.507625 
L 201.811176 278.661797 
L 197.493845 270.447813 
L 193.425155 262.23383 
L 189.908074 254.651691 
L 186.637455 247.069553 
L 183.870631 240.119259 
L 181.338741 233.168966 
L 179.054947 226.218672 
L 177.204782 219.900223 
L 175.579236 213.581775 
L 174.186691 207.263326 
L 173.034658 200.944877 
L 172.129597 194.626428 
L 171.530561 188.939824 
L 171.138709 183.253221 
L 170.955951 177.566617 
L 170.941683 175.671082 
L 170.941683 175.671082 
" clip-path="url(#paa336b4dc8)" style="fill: none; stroke-dasharray: 6.66,2.88; stroke-dashoffset: 0; stroke: #9aa3ad; stroke-width: 1.8"/>
   </g>
   <g id="line2d_12">
    <path d="M 170.942115 175.039237 
L 171.0627 169.352633 
L 171.392752 163.666029 
L 171.930658 157.979426 
L 172.673821 152.292822 
L 173.735986 145.974373 
L 175.041165 139.655924 
L 176.582208 133.337475 
L 178.351032 127.019027 
L 180.338808 120.700578 
L 182.767033 113.750284 
L 185.435812 106.799991 
L 188.331852 99.849697 
L 191.734683 92.267559 
L 195.374991 84.68542 
L 199.56735 76.471437 
L 204.348783 67.625608 
L 209.383322 58.77978 
L 215.033005 49.302107 
L 221.322895 39.192589 
L 223.746121 35.40152 
L 223.746121 35.40152 
" clip-path="url(#paa336b4dc8)" style="fill: none; stroke: #d55e00; stroke-width: 2.8; stroke-linecap: square"/>
   </g>
   <g id="line2d_13">
    <path d="M 43.46 217.478151 
L 50.397771 210.679458 
L 57.335542 203.880764 
L 64.273312 197.082071 
L 71.211083 190.283377 
L 78.148854 183.484683 
L 85.086625 176.68599 
L 92.024396 169.887296 
L 98.962166 163.088603 
L 105.899937 156.289909 
L 112.837708 149.491215 
L 119.775479 142.692522 
L 126.71325 135.893828 
L 133.65102 129.095135 
L 140.588791 122.296441 
L 147.526562 115.497747 
L 154.464333 108.699054 
L 161.402104 101.90036 
L 168.339874 95.101667 
L 175.277645 88.302973 
L 182.215416 81.504279 
L 189.153187 74.705586 
L 196.090958 67.906892 
L 203.028728 61.108199 
L 209.966499 54.309505 
L 216.90427 47.510811 
L 223.842041 40.712118 
L 230.779812 33.913424 
L 237.717582 27.114731 
L 244.655353 20.316037 
L 251.593124 13.517343 
L 258.530895 6.71865 
L 265.468666 -0.080044 
L 266.407441 -1 
" clip-path="url(#paa336b4dc8)" style="fill: none; stroke: #0072b2; stroke-width: 2.2; stroke-linecap: square"/>
   </g>
   <g id="patch_3">
    <path d="M 43.46 287.507625 
L 43.46 21.395625 
" style="fill: none; stroke: #1f2328; stroke-width: 0.8; stroke-linejoin: miter; stroke-linecap: square"/>
   </g>
   <g id="patch_4">
    <path d="M 43.46 287.507625 
L 411.74 287.507625 
" style="fill: none; stroke: #1f2328; stroke-width: 0.8; stroke-linejoin: miter; stroke-linecap: square"/>
   </g>
   <g id="text_13">
    <!-- minimum-variance -->
    <g style="fill: #1f2328" transform="translate(179.440308 190.010723) scale(0.09 -0.09)">
     <defs>
      <path id="STIXGeneral-Regular-6d" d="M 4960 0 
L 3565 0 
L 3565 96 
Q 3834 122 3907 208 
Q 3981 294 3981 576 
L 3981 1894 
Q 3981 2278 3869 2444 
Q 3757 2611 3488 2611 
Q 3264 2611 3107 2521 
Q 2950 2432 2803 2221 
L 2803 608 
Q 2803 301 2896 201 
Q 2989 102 3264 96 
L 3264 0 
L 1830 0 
L 1830 96 
Q 2112 115 2189 188 
Q 2266 262 2266 550 
L 2266 1901 
Q 2266 2611 1850 2611 
Q 1670 2611 1468 2531 
Q 1267 2451 1171 2336 
Q 1088 2240 1088 2227 
L 1088 448 
Q 1088 243 1177 176 
Q 1267 109 1523 96 
L 1523 0 
L 102 0 
L 102 96 
Q 371 102 460 195 
Q 550 288 550 563 
L 550 2150 
Q 550 2387 499 2480 
Q 448 2573 326 2573 
Q 230 2573 122 2547 
L 122 2656 
Q 557 2778 1011 2944 
L 1062 2925 
L 1062 2451 
L 1075 2451 
Q 1363 2752 1584 2848 
Q 1805 2944 2054 2944 
Q 2560 2944 2733 2406 
Q 3232 2944 3776 2944 
Q 4518 2944 4518 1792 
L 4518 493 
Q 4518 282 4582 202 
Q 4646 122 4794 109 
L 4960 96 
L 4960 0 
z
" transform="scale(0.015625)"/>
      <path id="STIXGeneral-Regular-2d" d="M 1824 1242 
L 250 1242 
L 250 1645 
L 1824 1645 
L 1824 1242 
z
" transform="scale(0.015625)"/>
     </defs>
     <use xlink:href="#STIXGeneral-Regular-6d"/>
     <use xlink:href="#STIXGeneral-Regular-69" x="77.799988"/>
     <use xlink:href="#STIXGeneral-Regular-6e" x="105.599976"/>
     <use xlink:href="#STIXGeneral-Regular-69" x="155.59996"/>
     <use xlink:href="#STIXGeneral-Regular-6d" x="183.399948"/>
     <use xlink:href="#STIXGeneral-Regular-75" x="261.199936"/>
     <use xlink:href="#STIXGeneral-Regular-6d" x="311.199921"/>
     <use xlink:href="#STIXGeneral-Regular-2d" x="388.999908"/>
     <use xlink:href="#STIXGeneral-Regular-76" x="422.299896"/>
     <use xlink:href="#STIXGeneral-Regular-61" x="472.299881"/>
     <use xlink:href="#STIXGeneral-Regular-72" x="516.699875"/>
     <use xlink:href="#STIXGeneral-Regular-69" x="549.999863"/>
     <use xlink:href="#STIXGeneral-Regular-61" x="577.79985"/>
     <use xlink:href="#STIXGeneral-Regular-6e" x="622.199844"/>
     <use xlink:href="#STIXGeneral-Regular-63" x="672.199829"/>
     <use xlink:href="#STIXGeneral-Regular-65" x="716.599823"/>
    </g>
    <!-- portfolio -->
    <g style="fill: #1f2328" transform="translate(179.440308 199.340066) scale(0.09 -0.09)">
     <defs>
      <path id="STIXGeneral-Regular-6c" d="M 1645 0 
L 134 0 
L 134 96 
Q 435 122 531 221 
Q 627 320 627 589 
L 627 3590 
Q 627 3821 569 3910 
Q 512 4000 358 4000 
Q 224 4000 122 3987 
L 122 4090 
Q 730 4237 1133 4371 
L 1165 4346 
L 1165 557 
Q 1165 288 1254 201 
Q 1344 115 1645 96 
L 1645 0 
z
" transform="scale(0.015625)"/>
     </defs>
     <use xlink:href="#STIXGeneral-Regular-70"/>
     <use xlink:href="#STIXGeneral-Regular-6f" x="49.999985"/>
     <use xlink:href="#STIXGeneral-Regular-72" x="99.999969"/>
     <use xlink:href="#STIXGeneral-Regular-74" x="133.299957"/>
     <use xlink:href="#STIXGeneral-Regular-66" x="161.099945"/>
     <use xlink:href="#STIXGeneral-Regular-6f" x="194.399933"/>
     <use xlink:href="#STIXGeneral-Regular-6c" x="244.399918"/>
     <use xlink:href="#STIXGeneral-Regular-69" x="272.199905"/>
     <use xlink:href="#STIXGeneral-Regular-6f" x="299.999893"/>
    </g>
   </g>
   <g id="text_14">
    <!-- market portfolio $M$ -->
    <g style="fill: #0072b2" transform="translate(223.467638 45.920057) scale(0.09 -0.09)">
     <defs>
      <path id="Cmmi10-4d" d="M 325 0 
Q 263 0 263 84 
Q 266 100 275 137 
Q 284 175 300 200 
Q 316 225 347 225 
Q 956 225 1056 616 
L 1888 3956 
Q 1900 4019 1900 4044 
Q 1900 4113 1825 4122 
Q 1703 4147 1363 4147 
Q 1300 4147 1300 4231 
Q 1303 4247 1312 4286 
Q 1322 4325 1339 4348 
Q 1356 4372 1381 4372 
L 2509 4372 
Q 2581 4372 2591 4300 
L 3091 634 
L 5422 4300 
Q 5466 4372 5544 4372 
L 6631 4372 
Q 6694 4372 6694 4288 
Q 6691 4272 6681 4233 
Q 6672 4194 6655 4170 
Q 6638 4147 6613 4147 
Q 6222 4147 6069 4103 
Q 5984 4075 5947 3928 
L 5069 416 
Q 5056 353 5056 325 
Q 5056 300 5064 283 
Q 5072 266 5086 261 
Q 5100 256 5131 250 
Q 5253 225 5594 225 
Q 5656 225 5656 141 
Q 5634 50 5621 25 
Q 5609 0 5550 0 
L 3878 0 
Q 3816 0 3816 84 
Q 3819 100 3828 139 
Q 3838 178 3855 201 
Q 3872 225 3897 225 
Q 4288 225 4441 269 
Q 4525 297 4563 441 
L 5484 4147 
L 2900 72 
Q 2863 0 2772 0 
Q 2691 0 2681 72 
L 2138 4097 
L 1259 588 
Q 1253 572 1250 548 
Q 1247 525 1241 494 
Q 1241 328 1386 276 
Q 1531 225 1741 225 
Q 1806 225 1806 141 
Q 1784 56 1770 28 
Q 1756 0 1697 0 
L 325 0 
z
" transform="scale(0.015625)"/>
     </defs>
     <use xlink:href="#STIXGeneral-Regular-6d" transform="translate(0 0.6875)"/>
     <use xlink:href="#STIXGeneral-Regular-61" transform="translate(77.799988 0.6875)"/>
     <use xlink:href="#STIXGeneral-Regular-72" transform="translate(122.199982 0.6875)"/>
     <use xlink:href="#STIXGeneral-Regular-6b" transform="translate(155.499969 0.6875)"/>
     <use xlink:href="#STIXGeneral-Regular-65" transform="translate(205.499954 0.6875)"/>
     <use xlink:href="#STIXGeneral-Regular-74" transform="translate(249.899948 0.6875)"/>
     <use xlink:href="#STIXGeneral-Regular-20" transform="translate(277.699936 0.6875)"/>
     <use xlink:href="#STIXGeneral-Regular-70" transform="translate(302.699921 0.6875)"/>
     <use xlink:href="#STIXGeneral-Regular-6f" transform="translate(352.699905 0.6875)"/>
     <use xlink:href="#STIXGeneral-Regular-72" transform="translate(402.69989 0.6875)"/>
     <use xlink:href="#STIXGeneral-Regular-74" transform="translate(435.999878 0.6875)"/>
     <use xlink:href="#STIXGeneral-Regular-66" transform="translate(463.799866 0.6875)"/>
     <use xlink:href="#STIXGeneral-Regular-6f" transform="translate(497.099854 0.6875)"/>
     <use xlink:href="#STIXGeneral-Regular-6c" transform="translate(547.099838 0.6875)"/>
     <use xlink:href="#STIXGeneral-Regular-69" transform="translate(574.899826 0.6875)"/>
     <use xlink:href="#STIXGeneral-Regular-6f" transform="translate(602.699814 0.6875)"/>
     <use xlink:href="#STIXGeneral-Regular-20" transform="translate(652.699799 0.6875)"/>
     <use xlink:href="#Cmmi10-4d" transform="translate(677.699783 0.6875)"/>
    </g>
   </g>
   <g id="text_15">
    <!-- risk-free $r_f$ -->
    <g style="fill: #1f2328" transform="translate(51.958769 229.290509) scale(0.09 -0.09)">
     <defs>
      <path id="Cmmi10-66" d="M 622 -1056 
Q 741 -1147 909 -1147 
Q 1138 -1147 1281 -641 
Q 1341 -397 1606 966 
L 1900 2534 
L 1350 2534 
Q 1288 2534 1288 2619 
Q 1313 2759 1369 2759 
L 1941 2759 
L 2016 3175 
Q 2053 3369 2084 3508 
Q 2116 3647 2152 3765 
Q 2188 3884 2259 4031 
Q 2369 4241 2555 4377 
Q 2741 4513 2956 4513 
Q 3097 4513 3230 4461 
Q 3363 4409 3447 4306 
Q 3531 4203 3531 4063 
Q 3531 3900 3423 3779 
Q 3316 3659 3163 3659 
Q 3059 3659 2986 3723 
Q 2913 3788 2913 3891 
Q 2913 4031 3008 4136 
Q 3103 4241 3244 4256 
Q 3125 4347 2950 4347 
Q 2853 4347 2767 4256 
Q 2681 4166 2656 4063 
Q 2616 3900 2478 3181 
L 2400 2759 
L 3059 2759 
Q 3122 2759 3122 2675 
Q 3119 2659 3109 2620 
Q 3100 2581 3083 2557 
Q 3066 2534 3041 2534 
L 2356 2534 
L 2059 972 
Q 2003 631 1929 279 
Q 1856 -72 1723 -442 
Q 1591 -813 1384 -1063 
Q 1178 -1313 897 -1313 
Q 681 -1313 511 -1189 
Q 341 -1066 341 -863 
Q 341 -700 445 -579 
Q 550 -459 709 -459 
Q 816 -459 887 -523 
Q 959 -588 959 -691 
Q 959 -828 857 -942 
Q 756 -1056 622 -1056 
z
" transform="scale(0.015625)"/>
     </defs>
     <use xlink:href="#STIXGeneral-Regular-72" transform="translate(0 0.703125)"/>
     <use xlink:href="#STIXGeneral-Regular-69" transform="translate(33.299988 0.703125)"/>
     <use xlink:href="#STIXGeneral-Regular-73" transform="translate(61.099976 0.703125)"/>
     <use xlink:href="#STIXGeneral-Regular-6b" transform="translate(99.999969 0.703125)"/>
     <use xlink:href="#STIXGeneral-Regular-2d" transform="translate(149.999954 0.703125)"/>
     <use xlink:href="#STIXGeneral-Regular-66" transform="translate(183.299942 0.703125)"/>
     <use xlink:href="#STIXGeneral-Regular-72" transform="translate(216.59993 0.703125)"/>
     <use xlink:href="#STIXGeneral-Regular-65" transform="translate(249.899918 0.703125)"/>
     <use xlink:href="#STIXGeneral-Regular-65" transform="translate(294.299911 0.703125)"/>
     <use xlink:href="#STIXGeneral-Regular-20" transform="translate(338.699905 0.703125)"/>
     <use xlink:href="#Cmmi10-72" transform="translate(363.69989 0.703125)"/>
     <use xlink:href="#Cmmi10-66" transform="translate(408.817078 -16.303125) scale(0.7)"/>
    </g>
   </g>
   <g id="text_16">
    <!-- efficient frontier -->
    <g style="fill: #d55e00" transform="translate(333.834615 51.737102) scale(0.1 -0.1)">
     <use xlink:href="#STIXGeneral-Regular-65"/>
     <use xlink:href="#STIXGeneral-Regular-66" x="44.399994"/>
     <use xlink:href="#STIXGeneral-Regular-66" x="77.699982"/>
     <use xlink:href="#STIXGeneral-Regular-69" x="110.999969"/>
     <use xlink:href="#STIXGeneral-Regular-63" x="138.799957"/>
     <use xlink:href="#STIXGeneral-Regular-69" x="183.199951"/>
     <use xlink:href="#STIXGeneral-Regular-65" x="210.999939"/>
     <use xlink:href="#STIXGeneral-Regular-6e" x="255.399933"/>
     <use xlink:href="#STIXGeneral-Regular-74" x="305.399918"/>
     <use xlink:href="#STIXGeneral-Regular-20" x="333.199905"/>
     <use xlink:href="#STIXGeneral-Regular-66" x="358.19989"/>
     <use xlink:href="#STIXGeneral-Regular-72" x="391.499878"/>
     <use xlink:href="#STIXGeneral-Regular-6f" x="424.799866"/>
     <use xlink:href="#STIXGeneral-Regular-6e" x="474.79985"/>
     <use xlink:href="#STIXGeneral-Regular-74" x="524.799835"/>
     <use xlink:href="#STIXGeneral-Regular-69" x="552.599823"/>
     <use xlink:href="#STIXGeneral-Regular-65" x="580.399811"/>
     <use xlink:href="#STIXGeneral-Regular-72" x="624.799805"/>
    </g>
   </g>
   <g id="text_17">
    <!-- inefficient branch -->
    <g style="fill: #9aa3ad" transform="translate(333.834615 247.58666) scale(0.09 -0.09)">
     <defs>
      <path id="STIXGeneral-Regular-62" d="M 979 4358 
L 979 2406 
Q 1082 2650 1315 2797 
Q 1549 2944 1843 2944 
Q 2349 2944 2672 2541 
Q 2995 2138 2995 1536 
Q 2995 832 2566 384 
Q 2138 -64 1498 -64 
Q 1107 -64 774 67 
Q 442 198 442 358 
L 442 3622 
Q 442 3859 384 3926 
Q 326 3994 128 3994 
Q 83 3994 19 3981 
L 19 4090 
L 211 4147 
Q 864 4346 947 4371 
L 979 4358 
z
M 979 2035 
L 979 474 
Q 979 326 1161 233 
Q 1344 141 1600 141 
Q 1978 141 2195 416 
Q 2432 710 2432 1261 
Q 2432 1888 2182 2240 
Q 1971 2541 1613 2541 
Q 1357 2541 1168 2390 
Q 979 2240 979 2035 
z
" transform="scale(0.015625)"/>
      <path id="STIXGeneral-Regular-68" d="M 3117 0 
L 1760 0 
L 1760 96 
Q 2042 128 2118 224 
Q 2195 320 2195 653 
L 2195 1920 
Q 2195 2598 1722 2598 
Q 1530 2598 1370 2508 
Q 1210 2419 1005 2195 
L 1005 653 
Q 1005 320 1081 224 
Q 1158 128 1440 96 
L 1440 0 
L 58 0 
L 58 96 
Q 333 134 400 224 
Q 467 314 467 653 
L 467 3667 
Q 467 3872 406 3933 
Q 346 3994 141 3994 
Q 83 3994 64 3987 
L 64 4090 
L 237 4141 
Q 730 4288 973 4371 
L 1005 4352 
L 1005 2406 
Q 1229 2694 1446 2819 
Q 1664 2944 1946 2944 
Q 2733 2944 2733 1926 
L 2733 653 
Q 2733 320 2793 233 
Q 2854 147 3117 96 
L 3117 0 
z
" transform="scale(0.015625)"/>
     </defs>
     <use xlink:href="#STIXGeneral-Regular-69"/>
     <use xlink:href="#STIXGeneral-Regular-6e" x="27.799988"/>
     <use xlink:href="#STIXGeneral-Regular-65" x="77.799973"/>
     <use xlink:href="#STIXGeneral-Regular-66" x="122.199966"/>
     <use xlink:href="#STIXGeneral-Regular-66" x="155.499954"/>
     <use xlink:href="#STIXGeneral-Regular-69" x="188.799942"/>
     <use xlink:href="#STIXGeneral-Regular-63" x="216.59993"/>
     <use xlink:href="#STIXGeneral-Regular-69" x="260.999924"/>
     <use xlink:href="#STIXGeneral-Regular-65" x="288.799911"/>
     <use xlink:href="#STIXGeneral-Regular-6e" x="333.199905"/>
     <use xlink:href="#STIXGeneral-Regular-74" x="383.19989"/>
     <use xlink:href="#STIXGeneral-Regular-20" x="410.999878"/>
     <use xlink:href="#STIXGeneral-Regular-62" x="435.999863"/>
     <use xlink:href="#STIXGeneral-Regular-72" x="485.999847"/>
     <use xlink:href="#STIXGeneral-Regular-61" x="519.299835"/>
     <use xlink:href="#STIXGeneral-Regular-6e" x="563.699829"/>
     <use xlink:href="#STIXGeneral-Regular-63" x="613.699814"/>
     <use xlink:href="#STIXGeneral-Regular-68" x="658.099808"/>
    </g>
   </g>
   <g id="text_18">
    <!-- capital market line -->
    <g style="fill: #0072b2" transform="translate(208.688968 109.143961) rotate(-20) scale(0.1 -0.1)">
     <use xlink:href="#STIXGeneral-Regular-63"/>
     <use xlink:href="#STIXGeneral-Regular-61" x="44.399994"/>
     <use xlink:href="#STIXGeneral-Regular-70" x="88.799988"/>
     <use xlink:href="#STIXGeneral-Regular-69" x="138.799973"/>
     <use xlink:href="#STIXGeneral-Regular-74" x="166.59996"/>
     <use xlink:href="#STIXGeneral-Regular-61" x="194.399948"/>
     <use xlink:href="#STIXGeneral-Regular-6c" x="238.799942"/>
     <use xlink:href="#STIXGeneral-Regular-20" x="266.59993"/>
     <use xlink:href="#STIXGeneral-Regular-6d" x="291.599915"/>
     <use xlink:href="#STIXGeneral-Regular-61" x="369.399902"/>
     <use xlink:href="#STIXGeneral-Regular-72" x="413.799896"/>
     <use xlink:href="#STIXGeneral-Regular-6b" x="447.099884"/>
     <use xlink:href="#STIXGeneral-Regular-65" x="497.099869"/>
     <use xlink:href="#STIXGeneral-Regular-74" x="541.499863"/>
     <use xlink:href="#STIXGeneral-Regular-20" x="569.29985"/>
     <use xlink:href="#STIXGeneral-Regular-6c" x="594.299835"/>
     <use xlink:href="#STIXGeneral-Regular-69" x="622.099823"/>
     <use xlink:href="#STIXGeneral-Regular-6e" x="649.899811"/>
     <use xlink:href="#STIXGeneral-Regular-65" x="699.899796"/>
    </g>
   </g>
   <g id="text_19">
    <!-- The efficient frontier is the upper branch; the CML dominates it -->
    <g transform="translate(73.956875 15.395625) scale(0.12 -0.12)">
     <defs>
      <path id="STIXGeneral-Regular-54" d="M 3795 3149 
L 3642 3149 
Q 3539 3674 3353 3821 
Q 3168 3968 2656 3968 
L 2278 3968 
L 2278 710 
Q 2278 346 2387 243 
Q 2496 141 2893 122 
L 2893 0 
L 1024 0 
L 1024 122 
Q 1427 147 1526 256 
Q 1626 365 1626 787 
L 1626 3968 
L 1242 3968 
Q 723 3968 540 3817 
Q 358 3667 262 3149 
L 109 3149 
L 154 4237 
L 3750 4237 
L 3795 3149 
z
" transform="scale(0.015625)"/>
      <path id="STIXGeneral-Regular-3b" d="M 1116 2832 
Q 1222 2726 1222 2579 
Q 1222 2432 1116 2329 
Q 1011 2227 870 2227 
Q 723 2227 617 2332 
Q 512 2438 512 2579 
Q 512 2733 614 2835 
Q 717 2938 870 2938 
Q 1011 2938 1116 2832 
z
M 685 -902 
L 621 -781 
Q 1152 -435 1152 -102 
Q 1152 -70 1126 -41 
Q 1101 -13 1062 -13 
Q 1043 -13 979 -25 
Q 915 -38 883 -38 
Q 512 -38 512 294 
Q 512 448 621 550 
Q 730 653 890 653 
Q 1107 653 1254 496 
Q 1402 339 1402 83 
Q 1402 -218 1210 -480 
Q 1018 -742 685 -902 
z
" transform="scale(0.015625)"/>
      <path id="STIXGeneral-Regular-43" d="M 3930 838 
L 4051 723 
Q 3482 -90 2304 -90 
Q 1376 -90 794 480 
Q 179 1082 179 2080 
Q 179 3014 755 3661 
Q 1357 4326 2310 4326 
Q 2720 4326 3072 4230 
Q 3475 4115 3514 4115 
Q 3725 4115 3782 4326 
L 3910 4326 
L 3968 2874 
L 3821 2874 
Q 3718 3334 3488 3584 
Q 3034 4070 2458 4070 
Q 1747 4070 1334 3548 
Q 922 3027 922 2182 
Q 922 1152 1382 653 
Q 1811 192 2522 192 
Q 2944 192 3251 339 
Q 3558 486 3930 838 
z
" transform="scale(0.015625)"/>
      <path id="STIXGeneral-Regular-4d" d="M 5530 0 
L 3738 0 
L 3738 122 
Q 4115 147 4214 265 
Q 4314 384 4314 787 
L 4314 3661 
L 2682 0 
L 2592 0 
L 979 3514 
L 979 966 
Q 979 448 1088 294 
Q 1197 141 1574 122 
L 1574 0 
L 77 0 
L 77 122 
Q 358 141 480 205 
Q 602 269 650 432 
Q 698 595 698 966 
L 698 3514 
Q 698 3878 589 3984 
Q 480 4090 90 4115 
L 90 4237 
L 1357 4237 
L 2835 1024 
L 4250 4237 
L 5523 4237 
L 5523 4115 
Q 5178 4109 5072 3993 
Q 4966 3878 4966 3520 
L 4966 717 
Q 4966 378 5072 262 
Q 5178 147 5530 122 
L 5530 0 
z
" transform="scale(0.015625)"/>
      <path id="STIXGeneral-Regular-4c" d="M 3827 1114 
L 3520 0 
L 77 0 
L 77 122 
Q 429 141 531 256 
Q 634 371 634 736 
L 634 3494 
Q 634 3872 541 3981 
Q 448 4090 77 4115 
L 77 4237 
L 1888 4237 
L 1888 4115 
Q 1498 4090 1392 3984 
Q 1286 3878 1286 3507 
L 1286 538 
Q 1286 358 1398 304 
Q 1510 250 1862 250 
L 2310 250 
Q 3085 250 3392 640 
Q 3520 813 3661 1114 
L 3827 1114 
z
" transform="scale(0.015625)"/>
     </defs>
     <use xlink:href="#STIXGeneral-Regular-54"/>
     <use xlink:href="#STIXGeneral-Regular-68" x="61.099991"/>
     <use xlink:href="#STIXGeneral-Regular-65" x="111.099976"/>
     <use xlink:href="#STIXGeneral-Regular-20" x="155.499969"/>
     <use xlink:href="#STIXGeneral-Regular-65" x="180.499954"/>
     <use xlink:href="#STIXGeneral-Regular-66" x="224.899948"/>
     <use xlink:href="#STIXGeneral-Regular-66" x="258.199936"/>
     <use xlink:href="#STIXGeneral-Regular-69" x="291.499924"/>
     <use xlink:href="#STIXGeneral-Regular-63" x="319.299911"/>
     <use xlink:href="#STIXGeneral-Regular-69" x="363.699905"/>
     <use xlink:href="#STIXGeneral-Regular-65" x="391.499893"/>
     <use xlink:href="#STIXGeneral-Regular-6e" x="435.899887"/>
     <use xlink:href="#STIXGeneral-Regular-74" x="485.899872"/>
     <use xlink:href="#STIXGeneral-Regular-20" x="513.69986"/>
     <use xlink:href="#STIXGeneral-Regular-66" x="538.699844"/>
     <use xlink:href="#STIXGeneral-Regular-72" x="571.999832"/>
     <use xlink:href="#STIXGeneral-Regular-6f" x="605.29982"/>
     <use xlink:href="#STIXGeneral-Regular-6e" x="655.299805"/>
     <use xlink:href="#STIXGeneral-Regular-74" x="705.299789"/>
     <use xlink:href="#STIXGeneral-Regular-69" x="733.099777"/>
     <use xlink:href="#STIXGeneral-Regular-65" x="760.899765"/>
     <use xlink:href="#STIXGeneral-Regular-72" x="805.299759"/>
     <use xlink:href="#STIXGeneral-Regular-20" x="838.599747"/>
     <use xlink:href="#STIXGeneral-Regular-69" x="863.599731"/>
     <use xlink:href="#STIXGeneral-Regular-73" x="891.399719"/>
     <use xlink:href="#STIXGeneral-Regular-20" x="930.299713"/>
     <use xlink:href="#STIXGeneral-Regular-74" x="955.299698"/>
     <use xlink:href="#STIXGeneral-Regular-68" x="983.099686"/>
     <use xlink:href="#STIXGeneral-Regular-65" x="1033.09967"/>
     <use xlink:href="#STIXGeneral-Regular-20" x="1077.499664"/>
     <use xlink:href="#STIXGeneral-Regular-75" x="1102.499649"/>
     <use xlink:href="#STIXGeneral-Regular-70" x="1152.499634"/>
     <use xlink:href="#STIXGeneral-Regular-70" x="1202.499619"/>
     <use xlink:href="#STIXGeneral-Regular-65" x="1252.499603"/>
     <use xlink:href="#STIXGeneral-Regular-72" x="1296.899597"/>
     <use xlink:href="#STIXGeneral-Regular-20" x="1330.199585"/>
     <use xlink:href="#STIXGeneral-Regular-62" x="1355.19957"/>
     <use xlink:href="#STIXGeneral-Regular-72" x="1405.199554"/>
     <use xlink:href="#STIXGeneral-Regular-61" x="1438.499542"/>
     <use xlink:href="#STIXGeneral-Regular-6e" x="1482.899536"/>
     <use xlink:href="#STIXGeneral-Regular-63" x="1532.899521"/>
     <use xlink:href="#STIXGeneral-Regular-68" x="1577.299515"/>
     <use xlink:href="#STIXGeneral-Regular-3b" x="1627.2995"/>
     <use xlink:href="#STIXGeneral-Regular-20" x="1655.099487"/>
     <use xlink:href="#STIXGeneral-Regular-74" x="1680.099472"/>
     <use xlink:href="#STIXGeneral-Regular-68" x="1707.89946"/>
     <use xlink:href="#STIXGeneral-Regular-65" x="1757.899445"/>
     <use xlink:href="#STIXGeneral-Regular-20" x="1802.299438"/>
     <use xlink:href="#STIXGeneral-Regular-43" x="1827.299423"/>
     <use xlink:href="#STIXGeneral-Regular-4d" x="1893.99942"/>
     <use xlink:href="#STIXGeneral-Regular-4c" x="1982.899414"/>
     <use xlink:href="#STIXGeneral-Regular-20" x="2043.999405"/>
     <use xlink:href="#STIXGeneral-Regular-64" x="2068.99939"/>
     <use xlink:href="#STIXGeneral-Regular-6f" x="2118.999374"/>
     <use xlink:href="#STIXGeneral-Regular-6d" x="2168.999359"/>
     <use xlink:href="#STIXGeneral-Regular-69" x="2246.799347"/>
     <use xlink:href="#STIXGeneral-Regular-6e" x="2274.599335"/>
     <use xlink:href="#STIXGeneral-Regular-61" x="2324.599319"/>
     <use xlink:href="#STIXGeneral-Regular-74" x="2368.999313"/>
     <use xlink:href="#STIXGeneral-Regular-65" x="2396.799301"/>
     <use xlink:href="#STIXGeneral-Regular-73" x="2441.199295"/>
     <use xlink:href="#STIXGeneral-Regular-20" x="2480.099289"/>
     <use xlink:href="#STIXGeneral-Regular-69" x="2505.099274"/>
     <use xlink:href="#STIXGeneral-Regular-74" x="2532.899261"/>
    </g>
   </g>
   <g id="line2d_14">
    <defs>
     <path id="mf3bab4d24d" d="M 0 3 
C 0.795609 3 1.55874 2.683901 2.12132 2.12132 
C 2.683901 1.55874 3 0.795609 3 0 
C 3 -0.795609 2.683901 -1.55874 2.12132 -2.12132 
C 1.55874 -2.683901 0.795609 -3 0 -3 
C -0.795609 -3 -1.55874 -2.683901 -2.12132 -2.12132 
C -2.683901 -1.55874 -3 -0.795609 -3 0 
C -3 0.795609 -2.683901 1.55874 -2.12132 2.12132 
C -1.55874 2.683901 -0.795609 3 0 3 
z
" style="stroke: #1f2328"/>
    </defs>
    <g clip-path="url(#paa336b4dc8)">
     <use xlink:href="#mf3bab4d24d" x="170.941538" y="175.460467" style="fill: #1f2328; stroke: #1f2328"/>
    </g>
   </g>
   <g id="line2d_15">
    <defs>
     <path id="m619008e84c" d="M 0 3 
C 0.795609 3 1.55874 2.683901 2.12132 2.12132 
C 2.683901 1.55874 3 0.795609 3 0 
C 3 -0.795609 2.683901 -1.55874 2.12132 -2.12132 
C 1.55874 -2.683901 0.795609 -3 0 -3 
C -0.795609 -3 -1.55874 -2.683901 -2.12132 -2.12132 
C -2.683901 -1.55874 -3 -0.795609 -3 0 
C -3 0.795609 -2.683901 1.55874 -2.12132 2.12132 
C -1.55874 2.683901 -0.795609 3 0 3 
z
" style="stroke: #0072b2"/>
    </defs>
    <g clip-path="url(#paa336b4dc8)">
     <use xlink:href="#m619008e84c" x="214.968869" y="49.407414" style="fill: #0072b2; stroke: #0072b2"/>
    </g>
   </g>
   <g id="line2d_16">
    <defs>
     <path id="m30d310d826" d="M 0 2.5 
C 0.663008 2.5 1.29895 2.236584 1.767767 1.767767 
C 2.236584 1.29895 2.5 0.663008 2.5 0 
C 2.5 -0.663008 2.236584 -1.29895 1.767767 -1.767767 
C 1.29895 -2.236584 0.663008 -2.5 0 -2.5 
C -0.663008 -2.5 -1.29895 -2.236584 -1.767767 -1.767767 
C -2.236584 -1.29895 -2.5 -0.663008 -2.5 0 
C -2.5 0.663008 -2.236584 1.29895 -1.767767 1.767767 
C -1.29895 2.236584 -0.663008 2.5 0 2.5 
z
" style="stroke: #1f2328"/>
    </defs>
    <g clip-path="url(#paa336b4dc8)">
     <use xlink:href="#m30d310d826" x="43.46" y="217.478151" style="fill: #1f2328; stroke: #1f2328"/>
    </g>
   </g>
  </g>
 </g>
 <defs>
  <clipPath id="paa336b4dc8">
   <rect x="43.46" y="21.395625" width="368.28" height="266.112"/>
  </clipPath>
 </defs>
</svg>
