<?xml version="1.0" encoding="utf-8" standalone="no"?>
<!DOCTYPE svg PUBLIC "-//W3C//DTD SVG 1.1//EN"
  "http://www.w3.org/Graphics/SVG/1.1/DTD/svg11.dtd">
<svg xmlns:xlink="http://www.w3.org/1999/xlink" width="396.62pt" height="301.031625pt" viewBox="0 0 396.62 301.031625" xmlns="http://www.w3.org/2000/svg" version="1.1">
 <metadata>
  <rdf:RDF xmlns:dc="http://purl.org/dc/elements/1.1/" xmlns:cc="http://creativecommons.org/ns#" xmlns:rdf="http://www.w3.org/1999/02/22-rdf-syntax-ns#">
   <cc:Work>
    <dc:type rdf:resource="http://purl.org/dc/dcmitype/StillImage"/>
    <dc:date>2026-06-23T16:02:21.556121</dc:date>
    <dc:format>image/svg+xml</dc:format>
    <dc:creator>
     <cc:Agent>
      <dc:title>Matplotlib v3.9.4, https://matplotlib.org/</dc:title>
     </cc:Agent>
    </dc:creator>
   </cc:Work>
  </rdf:RDF>
 </metadata>
 <defs>
  <style type="text/css">*{stroke-linejoin: round; stroke-linecap: butt}</style>
 </defs>
 <g id="figure_1">
  <g id="patch_1">
   <path d="M 0 301.031625 
L 396.62 301.031625 
L 396.62 0 
L 0 0 
z
" style="fill: #ffffff"/>
  </g>
  <g id="axes_1">
   <g id="patch_2">
    <path d="M 43.46 265.331625 
L 389.42 265.331625 
L 389.42 21.395625 
L 43.46 21.395625 
z
" style="fill: #ffffff"/>
   </g>
   <g id="matplotlib.axis_1">
    <g id="xtick_1">
     <g id="line2d_1">
      <defs>
       <path id="mb94d4635bd" d="M 0 0 
L 0 3 
" style="stroke: #1f2328; stroke-width: 0.8"/>
      </defs>
      <g>
       <use xlink:href="#mb94d4635bd" x="51.148" y="265.331625" style="fill: #1f2328; stroke: #1f2328; stroke-width: 0.8"/>
      </g>
     </g>
     <g id="text_1">
      <!-- 0.00 -->
      <g style="fill: #1f2328" transform="translate(43.273 277.978344) scale(0.09 -0.09)">
       <defs>
        <path id="STIXGeneral-Regular-30" d="M 3046 2112 
Q 3046 1683 2963 1302 
Q 2880 922 2717 602 
Q 2554 282 2266 96 
Q 1978 -90 1600 -90 
Q 1210 -90 915 108 
Q 621 307 461 640 
Q 301 973 227 1350 
Q 154 1728 154 2150 
Q 154 2746 301 3222 
Q 448 3699 790 4012 
Q 1133 4326 1626 4326 
Q 2253 4326 2649 3712 
Q 3046 3098 3046 2112 
z
M 2432 2080 
Q 2432 3091 2217 3625 
Q 2003 4160 1587 4160 
Q 1190 4160 979 3622 
Q 768 3085 768 2106 
Q 768 1120 979 598 
Q 1190 77 1600 77 
Q 2003 77 2217 598 
Q 2432 1120 2432 2080 
z
" transform="scale(0.015625)"/>
        <path id="STIXGeneral-Regular-2e" d="M 1158 275 
Q 1158 134 1052 32 
Q 947 -70 800 -70 
Q 653 -70 550 32 
Q 448 134 448 281 
Q 448 429 553 534 
Q 659 640 806 640 
Q 947 640 1052 531 
Q 1158 422 1158 275 
z
" transform="scale(0.015625)"/>
       </defs>
       <use xlink:href="#STIXGeneral-Regular-30"/>
       <use xlink:href="#STIXGeneral-Regular-2e" x="49.999985"/>
       <use xlink:href="#STIXGeneral-Regular-30" x="74.999969"/>
       <use xlink:href="#STIXGeneral-Regular-30" x="124.999954"/>
      </g>
     </g>
    </g>
    <g id="xtick_2">
     <g id="line2d_2">
      <g>
       <use xlink:href="#mb94d4635bd" x="89.588" y="265.331625" style="fill: #1f2328; stroke: #1f2328; stroke-width: 0.8"/>
      </g>
     </g>
     <g id="text_2">
      <!-- 0.25 -->
      <g style="fill: #1f2328" transform="translate(81.713 277.978344) scale(0.09 -0.09)">
       <defs>
        <path id="STIXGeneral-Regular-32" d="M 3034 877 
L 2688 0 
L 186 0 
L 186 77 
L 1325 1286 
Q 1773 1754 1965 2144 
Q 2157 2534 2157 2950 
Q 2157 3379 1920 3616 
Q 1683 3853 1267 3853 
Q 922 3853 720 3673 
Q 518 3494 326 3021 
L 192 3053 
Q 301 3648 630 3987 
Q 960 4326 1523 4326 
Q 2054 4326 2380 4006 
Q 2707 3686 2707 3200 
Q 2707 2477 1888 1613 
L 832 486 
L 2330 486 
Q 2541 486 2665 569 
Q 2790 653 2944 915 
L 3034 877 
z
" transform="scale(0.015625)"/>
        <path id="STIXGeneral-Regular-35" d="M 2803 4358 
L 2573 3814 
Q 2534 3731 2400 3731 
L 1158 3731 
L 902 3187 
Q 1606 3053 1920 2896 
Q 2234 2739 2502 2368 
Q 2726 2061 2726 1555 
Q 2726 1094 2576 780 
Q 2426 467 2099 224 
Q 1664 -90 1011 -90 
Q 646 -90 422 19 
Q 198 128 198 307 
Q 198 550 486 550 
Q 717 550 960 352 
Q 1210 147 1414 147 
Q 1747 147 2012 480 
Q 2278 813 2278 1229 
Q 2278 1843 1850 2189 
Q 1293 2637 486 2637 
Q 410 2637 410 2688 
L 416 2720 
L 1114 4237 
L 2438 4237 
Q 2547 4237 2608 4269 
Q 2669 4301 2746 4403 
L 2803 4358 
z
" transform="scale(0.015625)"/>
       </defs>
       <use xlink:href="#STIXGeneral-Regular-30"/>
       <use xlink:href="#STIXGeneral-Regular-2e" x="49.999985"/>
       <use xlink:href="#STIXGeneral-Regular-32" x="74.999969"/>
       <use xlink:href="#STIXGeneral-Regular-35" x="124.999954"/>
      </g>
     </g>
    </g>
    <g id="xtick_3">
     <g id="line2d_3">
      <g>
       <use xlink:href="#mb94d4635bd" x="128.028" y="265.331625" style="fill: #1f2328; stroke: #1f2328; stroke-width: 0.8"/>
      </g>
     </g>
     <g id="text_3">
      <!-- 0.50 -->
      <g style="fill: #1f2328" transform="translate(120.153 277.978344) scale(0.09 -0.09)">
       <use xlink:href="#STIXGeneral-Regular-30"/>
       <use xlink:href="#STIXGeneral-Regular-2e" x="49.999985"/>
       <use xlink:href="#STIXGeneral-Regular-35" x="74.999969"/>
       <use xlink:href="#STIXGeneral-Regular-30" x="124.999954"/>
      </g>
     </g>
    </g>
    <g id="xtick_4">
     <g id="line2d_4">
      <g>
       <use xlink:href="#mb94d4635bd" x="166.468" y="265.331625" style="fill: #1f2328; stroke: #1f2328; stroke-width: 0.8"/>
      </g>
     </g>
     <g id="text_4">
      <!-- 0.75 -->
      <g style="fill: #1f2328" transform="translate(158.593 277.978344) scale(0.09 -0.09)">
       <defs>
        <path id="STIXGeneral-Regular-37" d="M 2874 4134 
L 1517 -51 
L 1101 -51 
L 2368 3763 
L 992 3763 
Q 717 3763 582 3667 
Q 448 3571 243 3238 
L 128 3296 
L 512 4237 
L 2874 4237 
L 2874 4134 
z
" transform="scale(0.015625)"/>
       </defs>
       <use xlink:href="#STIXGeneral-Regular-30"/>
       <use xlink:href="#STIXGeneral-Regular-2e" x="49.999985"/>
       <use xlink:href="#STIXGeneral-Regular-37" x="74.999969"/>
       <use xlink:href="#STIXGeneral-Regular-35" x="124.999954"/>
      </g>
     </g>
    </g>
    <g id="xtick_5">
     <g id="line2d_5">
      <g>
       <use xlink:href="#mb94d4635bd" x="204.908" y="265.331625" style="fill: #1f2328; stroke: #1f2328; stroke-width: 0.8"/>
      </g>
     </g>
     <g id="text_5">
      <!-- 1.00 -->
      <g style="fill: #1f2328" transform="translate(197.033 277.978344) scale(0.09 -0.09)">
       <defs>
        <path id="STIXGeneral-Regular-31" d="M 2522 0 
L 755 0 
L 755 96 
Q 1107 115 1235 227 
Q 1363 339 1363 608 
L 1363 3482 
Q 1363 3795 1171 3795 
Q 1082 3795 883 3718 
L 710 3654 
L 710 3744 
L 1856 4326 
L 1914 4307 
L 1914 486 
Q 1914 275 2042 185 
Q 2170 96 2522 96 
L 2522 0 
z
" transform="scale(0.015625)"/>
       </defs>
       <use xlink:href="#STIXGeneral-Regular-31"/>
       <use xlink:href="#STIXGeneral-Regular-2e" x="49.999985"/>
       <use xlink:href="#STIXGeneral-Regular-30" x="74.999969"/>
       <use xlink:href="#STIXGeneral-Regular-30" x="124.999954"/>
      </g>
     </g>
    </g>
    <g id="xtick_6">
     <g id="line2d_6">
      <g>
       <use xlink:href="#mb94d4635bd" x="243.348" y="265.331625" style="fill: #1f2328; stroke: #1f2328; stroke-width: 0.8"/>
      </g>
     </g>
     <g id="text_6">
      <!-- 1.25 -->
      <g style="fill: #1f2328" transform="translate(235.473 277.978344) scale(0.09 -0.09)">
       <use xlink:href="#STIXGeneral-Regular-31"/>
       <use xlink:href="#STIXGeneral-Regular-2e" x="49.999985"/>
       <use xlink:href="#STIXGeneral-Regular-32" x="74.999969"/>
       <use xlink:href="#STIXGeneral-Regular-35" x="124.999954"/>
      </g>
     </g>
    </g>
    <g id="xtick_7">
     <g id="line2d_7">
      <g>
       <use xlink:href="#mb94d4635bd" x="281.788" y="265.331625" style="fill: #1f2328; stroke: #1f2328; stroke-width: 0.8"/>
      </g>
     </g>
     <g id="text_7">
      <!-- 1.50 -->
      <g style="fill: #1f2328" transform="translate(273.913 277.978344) scale(0.09 -0.09)">
       <use xlink:href="#STIXGeneral-Regular-31"/>
       <use xlink:href="#STIXGeneral-Regular-2e" x="49.999985"/>
       <use xlink:href="#STIXGeneral-Regular-35" x="74.999969"/>
       <use xlink:href="#STIXGeneral-Regular-30" x="124.999954"/>
      </g>
     </g>
    </g>
    <g id="xtick_8">
     <g id="line2d_8">
      <g>
       <use xlink:href="#mb94d4635bd" x="320.228" y="265.331625" style="fill: #1f2328; stroke: #1f2328; stroke-width: 0.8"/>
      </g>
     </g>
     <g id="text_8">
      <!-- 1.75 -->
      <g style="fill: #1f2328" transform="translate(312.353 277.978344) scale(0.09 -0.09)">
       <use xlink:href="#STIXGeneral-Regular-31"/>
       <use xlink:href="#STIXGeneral-Regular-2e" x="49.999985"/>
       <use xlink:href="#STIXGeneral-Regular-37" x="74.999969"/>
       <use xlink:href="#STIXGeneral-Regular-35" x="124.999954"/>
      </g>
     </g>
    </g>
    <g id="xtick_9">
     <g id="line2d_9">
      <g>
       <use xlink:href="#mb94d4635bd" x="358.668" y="265.331625" style="fill: #1f2328; stroke: #1f2328; stroke-width: 0.8"/>
      </g>
     </g>
     <g id="text_9">
      <!-- 2.00 -->
      <g style="fill: #1f2328" transform="translate(350.793 277.978344) scale(0.09 -0.09)">
       <use xlink:href="#STIXGeneral-Regular-32"/>
       <use xlink:href="#STIXGeneral-Regular-2e" x="49.999985"/>
       <use xlink:href="#STIXGeneral-Regular-30" x="74.999969"/>
       <use xlink:href="#STIXGeneral-Regular-30" x="124.999954"/>
      </g>
     </g>
    </g>
    <g id="text_10">
     <!-- $x$ -->
     <g transform="translate(213.25 291.444281) scale(0.11 -0.11)">
      <defs>
       <path id="Cmmi10-78" d="M 500 184 
Q 613 97 819 97 
Q 1019 97 1172 289 
Q 1325 481 1381 709 
L 1672 1844 
Q 1741 2153 1741 2266 
Q 1741 2425 1652 2544 
Q 1563 2663 1403 2663 
Q 1200 2663 1022 2536 
Q 844 2409 722 2214 
Q 600 2019 550 1819 
Q 538 1778 500 1778 
L 422 1778 
Q 372 1778 372 1838 
L 372 1856 
Q 434 2094 584 2320 
Q 734 2547 951 2687 
Q 1169 2828 1416 2828 
Q 1650 2828 1839 2703 
Q 2028 2578 2106 2363 
Q 2216 2559 2386 2693 
Q 2556 2828 2759 2828 
Q 2897 2828 3040 2779 
Q 3184 2731 3275 2631 
Q 3366 2531 3366 2381 
Q 3366 2219 3261 2101 
Q 3156 1984 2994 1984 
Q 2891 1984 2822 2050 
Q 2753 2116 2753 2216 
Q 2753 2350 2845 2451 
Q 2938 2553 3066 2572 
Q 2950 2663 2747 2663 
Q 2541 2663 2389 2472 
Q 2238 2281 2175 2047 
L 1894 916 
Q 1825 659 1825 494 
Q 1825 331 1917 214 
Q 2009 97 2163 97 
Q 2463 97 2698 361 
Q 2934 625 3009 941 
Q 3022 978 3059 978 
L 3138 978 
Q 3163 978 3178 961 
Q 3194 944 3194 922 
Q 3194 916 3188 903 
Q 3097 522 2806 225 
Q 2516 -72 2150 -72 
Q 1916 -72 1727 54 
Q 1538 181 1459 397 
Q 1359 209 1182 68 
Q 1006 -72 806 -72 
Q 669 -72 523 -23 
Q 378 25 287 125 
Q 197 225 197 378 
Q 197 528 301 651 
Q 406 775 563 775 
Q 669 775 741 711 
Q 813 647 813 544 
Q 813 409 723 309 
Q 634 209 500 184 
z
" transform="scale(0.015625)"/>
      </defs>
      <use xlink:href="#Cmmi10-78" transform="translate(0 0.8125)"/>
     </g>
    </g>
   </g>
   <g id="matplotlib.axis_2">
    <g id="ytick_1">
     <g id="line2d_10">
      <defs>
       <path id="m4c9a706c3d" d="M 0 0 
L -3 0 
" style="stroke: #1f2328; stroke-width: 0.8"/>
      </defs>
      <g>
       <use xlink:href="#m4c9a706c3d" x="43.46" y="21.395625" style="fill: #1f2328; stroke: #1f2328; stroke-width: 0.8"/>
      </g>
     </g>
     <g id="text_11">
      <!-- 0.00 -->
      <g style="fill: #1f2328" transform="translate(21.21 24.468984) scale(0.09 -0.09)">
       <use xlink:href="#STIXGeneral-Regular-30"/>
       <use xlink:href="#STIXGeneral-Regular-2e" x="49.999985"/>
       <use xlink:href="#STIXGeneral-Regular-30" x="74.999969"/>
       <use xlink:href="#STIXGeneral-Regular-30" x="124.999954"/>
      </g>
     </g>
    </g>
    <g id="ytick_2">
     <g id="line2d_11">
      <g>
       <use xlink:href="#m4c9a706c3d" x="43.46" y="51.143918" style="fill: #1f2328; stroke: #1f2328; stroke-width: 0.8"/>
      </g>
     </g>
     <g id="text_12">
      <!-- 0.25 -->
      <g style="fill: #1f2328" transform="translate(21.21 54.217277) scale(0.09 -0.09)">
       <use xlink:href="#STIXGeneral-Regular-30"/>
       <use xlink:href="#STIXGeneral-Regular-2e" x="49.999985"/>
       <use xlink:href="#STIXGeneral-Regular-32" x="74.999969"/>
       <use xlink:href="#STIXGeneral-Regular-35" x="124.999954"/>
      </g>
     </g>
    </g>
    <g id="ytick_3">
     <g id="line2d_12">
      <g>
       <use xlink:href="#m4c9a706c3d" x="43.46" y="80.89221" style="fill: #1f2328; stroke: #1f2328; stroke-width: 0.8"/>
      </g>
     </g>
     <g id="text_13">
      <!-- 0.50 -->
      <g style="fill: #1f2328" transform="translate(21.21 83.96557) scale(0.09 -0.09)">
       <use xlink:href="#STIXGeneral-Regular-30"/>
       <use xlink:href="#STIXGeneral-Regular-2e" x="49.999985"/>
       <use xlink:href="#STIXGeneral-Regular-35" x="74.999969"/>
       <use xlink:href="#STIXGeneral-Regular-30" x="124.999954"/>
      </g>
     </g>
    </g>
    <g id="ytick_4">
     <g id="line2d_13">
      <g>
       <use xlink:href="#m4c9a706c3d" x="43.46" y="110.640503" style="fill: #1f2328; stroke: #1f2328; stroke-width: 0.8"/>
      </g>
     </g>
     <g id="text_14">
      <!-- 0.75 -->
      <g style="fill: #1f2328" transform="translate(21.21 113.713862) scale(0.09 -0.09)">
       <use xlink:href="#STIXGeneral-Regular-30"/>
       <use xlink:href="#STIXGeneral-Regular-2e" x="49.999985"/>
       <use xlink:href="#STIXGeneral-Regular-37" x="74.999969"/>
       <use xlink:href="#STIXGeneral-Regular-35" x="124.999954"/>
      </g>
     </g>
    </g>
    <g id="ytick_5">
     <g id="line2d_14">
      <g>
       <use xlink:href="#m4c9a706c3d" x="43.46" y="140.388796" style="fill: #1f2328; stroke: #1f2328; stroke-width: 0.8"/>
      </g>
     </g>
     <g id="text_15">
      <!-- 1.00 -->
      <g style="fill: #1f2328" transform="translate(21.21 143.462155) scale(0.09 -0.09)">
       <use xlink:href="#STIXGeneral-Regular-31"/>
       <use xlink:href="#STIXGeneral-Regular-2e" x="49.999985"/>
       <use xlink:href="#STIXGeneral-Regular-30" x="74.999969"/>
       <use xlink:href="#STIXGeneral-Regular-30" x="124.999954"/>
      </g>
     </g>
    </g>
    <g id="ytick_6">
     <g id="line2d_15">
      <g>
       <use xlink:href="#m4c9a706c3d" x="43.46" y="170.137088" style="fill: #1f2328; stroke: #1f2328; stroke-width: 0.8"/>
      </g>
     </g>
     <g id="text_16">
      <!-- 1.25 -->
      <g style="fill: #1f2328" transform="translate(21.21 173.210448) scale(0.09 -0.09)">
       <use xlink:href="#STIXGeneral-Regular-31"/>
       <use xlink:href="#STIXGeneral-Regular-2e" x="49.999985"/>
       <use xlink:href="#STIXGeneral-Regular-32" x="74.999969"/>
       <use xlink:href="#STIXGeneral-Regular-35" x="124.999954"/>
      </g>
     </g>
    </g>
    <g id="ytick_7">
     <g id="line2d_16">
      <g>
       <use xlink:href="#m4c9a706c3d" x="43.46" y="199.885381" style="fill: #1f2328; stroke: #1f2328; stroke-width: 0.8"/>
      </g>
     </g>
     <g id="text_17">
      <!-- 1.50 -->
      <g style="fill: #1f2328" transform="translate(21.21 202.95874) scale(0.09 -0.09)">
       <use xlink:href="#STIXGeneral-Regular-31"/>
       <use xlink:href="#STIXGeneral-Regular-2e" x="49.999985"/>
       <use xlink:href="#STIXGeneral-Regular-35" x="74.999969"/>
       <use xlink:href="#STIXGeneral-Regular-30" x="124.999954"/>
      </g>
     </g>
    </g>
    <g id="ytick_8">
     <g id="line2d_17">
      <g>
       <use xlink:href="#m4c9a706c3d" x="43.46" y="229.633674" style="fill: #1f2328; stroke: #1f2328; stroke-width: 0.8"/>
      </g>
     </g>
     <g id="text_18">
      <!-- 1.75 -->
      <g style="fill: #1f2328" transform="translate(21.21 232.707033) scale(0.09 -0.09)">
       <use xlink:href="#STIXGeneral-Regular-31"/>
       <use xlink:href="#STIXGeneral-Regular-2e" x="49.999985"/>
       <use xlink:href="#STIXGeneral-Regular-37" x="74.999969"/>
       <use xlink:href="#STIXGeneral-Regular-35" x="124.999954"/>
      </g>
     </g>
    </g>
    <g id="ytick_9">
     <g id="line2d_18">
      <g>
       <use xlink:href="#m4c9a706c3d" x="43.46" y="259.381966" style="fill: #1f2328; stroke: #1f2328; stroke-width: 0.8"/>
      </g>
     </g>
     <g id="text_19">
      <!-- 2.00 -->
      <g style="fill: #1f2328" transform="translate(21.21 262.455326) scale(0.09 -0.09)">
       <use xlink:href="#STIXGeneral-Regular-32"/>
       <use xlink:href="#STIXGeneral-Regular-2e" x="49.999985"/>
       <use xlink:href="#STIXGeneral-Regular-30" x="74.999969"/>
       <use xlink:href="#STIXGeneral-Regular-30" x="124.999954"/>
      </g>
     </g>
    </g>
    <g id="text_20">
     <!-- $y$  (depth) -->
     <g transform="translate(14.79 164.703625) rotate(-90) scale(0.11 -0.11)">
      <defs>
       <path id="Cmmi10-79" d="M 538 -916 
Q 672 -1147 1006 -1147 
Q 1309 -1147 1531 -934 
Q 1753 -722 1889 -420 
Q 2025 -119 2100 197 
Q 1816 -72 1484 -72 
Q 1231 -72 1053 15 
Q 875 103 776 276 
Q 678 450 678 697 
Q 678 906 734 1126 
Q 791 1347 892 1617 
Q 994 1888 1069 2088 
Q 1153 2322 1153 2472 
Q 1153 2663 1013 2663 
Q 759 2663 595 2402 
Q 431 2141 353 1819 
Q 341 1778 300 1778 
L 225 1778 
Q 172 1778 172 1838 
L 172 1856 
Q 275 2238 487 2533 
Q 700 2828 1025 2828 
Q 1253 2828 1411 2678 
Q 1569 2528 1569 2297 
Q 1569 2178 1516 2047 
Q 1488 1969 1388 1706 
Q 1288 1444 1234 1272 
Q 1181 1100 1147 934 
Q 1113 769 1113 603 
Q 1113 391 1203 244 
Q 1294 97 1491 97 
Q 1888 97 2203 581 
L 2688 2553 
Q 2709 2638 2787 2698 
Q 2866 2759 2956 2759 
Q 3034 2759 3092 2709 
Q 3150 2659 3150 2578 
Q 3150 2541 3144 2528 
L 2509 -19 
Q 2425 -347 2200 -647 
Q 1975 -947 1658 -1130 
Q 1341 -1313 997 -1313 
Q 831 -1313 668 -1248 
Q 506 -1184 406 -1056 
Q 306 -928 306 -756 
Q 306 -581 409 -453 
Q 513 -325 684 -325 
Q 788 -325 858 -389 
Q 928 -453 928 -556 
Q 928 -703 818 -812 
Q 709 -922 563 -922 
Q 556 -919 550 -917 
Q 544 -916 538 -916 
z
" transform="scale(0.015625)"/>
       <path id="STIXGeneral-Regular-20" transform="scale(0.015625)"/>
       <path id="STIXGeneral-Regular-28" d="M 1946 -1030 
L 1869 -1133 
Q 1126 -710 716 32 
Q 307 774 307 1613 
Q 307 3386 1888 4326 
L 1946 4224 
Q 1293 3667 1075 3126 
Q 858 2586 858 1632 
Q 858 685 1082 96 
Q 1306 -493 1946 -1030 
z
" transform="scale(0.015625)"/>
       <path id="STIXGeneral-Regular-64" d="M 3142 269 
L 2202 -64 
L 2176 -45 
L 2176 365 
Q 1869 -64 1357 -64 
Q 826 -64 499 317 
Q 173 698 173 1312 
Q 173 1990 563 2467 
Q 954 2944 1504 2944 
Q 1850 2944 2176 2669 
L 2176 3667 
Q 2176 3866 2118 3930 
Q 2061 3994 1882 3994 
Q 1792 3994 1741 3987 
L 1741 4090 
Q 2323 4243 2682 4371 
L 2714 4358 
L 2714 730 
Q 2714 506 2768 435 
Q 2822 365 2995 365 
Q 3034 365 3142 371 
L 3142 269 
z
M 2176 653 
L 2176 2125 
Q 2176 2381 1981 2573 
Q 1786 2765 1523 2765 
Q 1158 2765 940 2438 
Q 723 2112 723 1568 
Q 723 979 963 624 
Q 1203 269 1606 269 
Q 1907 269 2080 474 
Q 2176 582 2176 653 
z
" transform="scale(0.015625)"/>
       <path id="STIXGeneral-Regular-65" d="M 2611 1050 
L 2714 1005 
Q 2330 -64 1376 -64 
Q 813 -64 486 329 
Q 160 723 160 1389 
Q 160 2074 525 2509 
Q 890 2944 1485 2944 
Q 2061 2944 2374 2502 
Q 2560 2246 2592 1773 
L 621 1773 
Q 646 1370 700 1158 
Q 755 947 915 730 
Q 1184 378 1626 378 
Q 1939 378 2153 531 
Q 2368 685 2611 1050 
z
M 634 1978 
L 1939 1978 
Q 1882 2381 1750 2547 
Q 1619 2714 1312 2714 
Q 1043 2714 864 2525 
Q 685 2336 634 1978 
z
" transform="scale(0.015625)"/>
       <path id="STIXGeneral-Regular-70" d="M 1018 2931 
L 1018 2438 
Q 1421 2944 1939 2944 
Q 2406 2944 2707 2560 
Q 3008 2176 3008 1581 
Q 3008 883 2621 409 
Q 2234 -64 1664 -64 
Q 1466 -64 1328 -6 
Q 1190 51 1018 211 
L 1018 -794 
Q 1018 -1094 1120 -1180 
Q 1222 -1267 1581 -1274 
L 1581 -1389 
L 32 -1389 
L 32 -1280 
Q 314 -1254 397 -1171 
Q 480 -1088 480 -838 
L 480 2157 
Q 480 2381 429 2451 
Q 378 2522 218 2522 
Q 115 2522 58 2515 
L 58 2618 
Q 506 2752 979 2944 
L 1018 2931 
z
M 1018 2138 
L 1018 563 
Q 1018 422 1238 281 
Q 1459 141 1683 141 
Q 2029 141 2243 467 
Q 2458 794 2458 1325 
Q 2458 1888 2243 2224 
Q 2029 2560 1670 2560 
Q 1446 2560 1232 2419 
Q 1018 2278 1018 2138 
z
" transform="scale(0.015625)"/>
       <path id="STIXGeneral-Regular-74" d="M 1702 493 
L 1786 422 
Q 1478 -64 1011 -64 
Q 448 -64 448 749 
L 448 2675 
L 109 2675 
Q 83 2694 83 2720 
Q 83 2771 192 2842 
Q 435 2982 813 3526 
Q 826 3546 874 3606 
Q 922 3667 941 3706 
Q 986 3706 986 3622 
L 986 2880 
L 1632 2880 
L 1632 2675 
L 986 2675 
L 986 845 
Q 986 538 1062 403 
Q 1139 269 1318 269 
Q 1510 269 1702 493 
z
" transform="scale(0.015625)"/>
       <path id="STIXGeneral-Regular-68" d="M 3117 0 
L 1760 0 
L 1760 96 
Q 2042 128 2118 224 
Q 2195 320 2195 653 
L 2195 1920 
Q 2195 2598 1722 2598 
Q 1530 2598 1370 2508 
Q 1210 2419 1005 2195 
L 1005 653 
Q 1005 320 1081 224 
Q 1158 128 1440 96 
L 1440 0 
L 58 0 
L 58 96 
Q 333 134 400 224 
Q 467 314 467 653 
L 467 3667 
Q 467 3872 406 3933 
Q 346 3994 141 3994 
Q 83 3994 64 3987 
L 64 4090 
L 237 4141 
Q 730 4288 973 4371 
L 1005 4352 
L 1005 2406 
Q 1229 2694 1446 2819 
Q 1664 2944 1946 2944 
Q 2733 2944 2733 1926 
L 2733 653 
Q 2733 320 2793 233 
Q 2854 147 3117 96 
L 3117 0 
z
" transform="scale(0.015625)"/>
       <path id="STIXGeneral-Regular-29" d="M 186 4224 
L 262 4326 
Q 992 3891 1408 3148 
Q 1824 2406 1824 1581 
Q 1824 -166 243 -1133 
L 186 -1030 
Q 845 -486 1059 54 
Q 1274 595 1274 1562 
Q 1274 2534 1059 3120 
Q 845 3706 186 4224 
z
" transform="scale(0.015625)"/>
      </defs>
      <use xlink:href="#Cmmi10-79" transform="translate(0 0.703125)"/>
      <use xlink:href="#STIXGeneral-Regular-20" transform="translate(49.023438 0.703125)"/>
      <use xlink:href="#STIXGeneral-Regular-20" transform="translate(74.023422 0.703125)"/>
      <use xlink:href="#STIXGeneral-Regular-28" transform="translate(99.023407 0.703125)"/>
      <use xlink:href="#STIXGeneral-Regular-64" transform="translate(132.323395 0.703125)"/>
      <use xlink:href="#STIXGeneral-Regular-65" transform="translate(182.32338 0.703125)"/>
      <use xlink:href="#STIXGeneral-Regular-70" transform="translate(226.723373 0.703125)"/>
      <use xlink:href="#STIXGeneral-Regular-74" transform="translate(276.723358 0.703125)"/>
      <use xlink:href="#STIXGeneral-Regular-68" transform="translate(304.523346 0.703125)"/>
      <use xlink:href="#STIXGeneral-Regular-29" transform="translate(354.523331 0.703125)"/>
     </g>
    </g>
   </g>
   <g id="line2d_19">
    <path d="M 51.148 21.395625 
L 51.259914 22.695425 
L 51.680704 25.060143 
L 52.434657 27.962351 
L 53.544526 31.283697 
L 54.962576 34.798022 
L 56.605969 38.31334 
L 58.650023 42.171329 
L 61.1305 46.344749 
L 63.684691 50.232126 
L 66.617908 54.317453 
L 69.947923 58.578639 
L 73.690362 62.992646 
L 77.858619 67.535605 
L 82.463788 72.182954 
L 86.765505 76.230446 
L 91.398763 80.320097 
L 96.366335 84.435659 
L 101.669667 88.56078 
L 107.30887 92.679073 
L 113.28272 96.774174 
L 119.588665 100.829814 
L 126.222833 104.829881 
L 133.180048 108.758482 
L 140.45385 112.600008 
L 148.036522 116.339198 
L 155.919119 119.961196 
L 164.091505 123.451612 
L 172.542393 126.796577 
L 181.259389 129.982804 
L 190.229041 132.997633 
L 199.436895 135.829086 
L 208.867549 138.465914 
L 218.504718 140.897641 
L 228.331293 143.114605 
L 238.329416 145.107999 
L 248.480545 146.869903 
L 258.765532 148.393318 
L 269.164695 149.672189 
L 279.6579 150.701438 
L 290.224641 151.476973 
L 300.844115 151.995715 
L 311.495314 152.255603 
L 316.826208 152.288113 
L 316.826208 152.288113 
" clip-path="url(#p1767f88ffc)" style="fill: none; stroke: #9aa3ad; stroke-opacity: 0.8; stroke-width: 0.9; stroke-linecap: square"/>
   </g>
   <g id="line2d_20">
    <path d="M 51.148 21.395625 
L 51.250066 22.720852 
L 51.653131 25.232527 
L 52.371977 28.291528 
L 53.420087 31.76625 
L 54.739447 35.403026 
L 56.480634 39.529062 
L 58.39084 43.517864 
L 60.696029 47.837431 
L 63.426541 52.464404 
L 66.610416 57.373767 
L 69.719756 61.786467 
L 73.195625 66.369626 
L 77.051171 71.105034 
L 81.298034 75.973878 
L 85.946299 80.956814 
L 91.004457 86.034044 
L 96.47937 91.185397 
L 102.376244 96.390408 
L 108.698608 101.628395 
L 115.448303 106.87855 
L 121.399635 111.247924 
L 127.647034 115.599205 
L 134.188862 119.920387 
L 141.022673 124.199546 
L 148.145211 128.424875 
L 155.552425 132.584715 
L 163.239479 136.667588 
L 171.200766 140.662227 
L 179.429918 144.557611 
L 187.919833 148.342991 
L 196.662686 152.007922 
L 205.649955 155.542292 
L 214.872444 158.936347 
L 224.320308 162.180723 
L 233.983079 165.266469 
L 243.849699 168.185068 
L 253.908543 170.928468 
L 264.147459 173.489099 
L 274.553797 175.859896 
L 285.114446 178.034317 
L 295.815867 180.006362 
L 306.644134 181.77059 
L 317.584972 183.322132 
L 328.623793 184.656707 
L 339.745742 185.770633 
L 350.93573 186.660837 
L 362.178485 187.324861 
L 373.458585 187.760875 
L 384.76051 187.967674 
L 389.2839 187.986064 
L 389.2839 187.986064 
" clip-path="url(#p1767f88ffc)" style="fill: none; stroke: #9aa3ad; stroke-opacity: 0.8; stroke-width: 0.9; stroke-linecap: square"/>
   </g>
   <g id="line2d_21">
    <path d="M 51.148 21.395625 
L 51.251346 22.821512 
L 51.643325 25.438416 
L 52.318435 28.545346 
L 53.277428 32.013186 
L 54.648038 36.120257 
L 56.238431 40.215622 
L 58.239378 44.756115 
L 60.692033 49.717186 
L 63.18325 54.284004 
L 66.057657 59.122 
L 69.33657 64.211953 
L 73.039697 69.533642 
L 77.185059 75.065923 
L 81.788922 80.786817 
L 86.86573 86.673594 
L 91.466803 91.689103 
L 96.411318 96.789738 
L 101.70458 101.961425 
L 107.350926 107.189894 
L 113.353724 112.460718 
L 119.715355 117.759353 
L 126.437212 123.071179 
L 133.519691 128.381538 
L 140.962197 133.675779 
L 148.763139 138.939292 
L 156.919937 144.157554 
L 165.42903 149.316167 
L 174.285885 154.400895 
L 183.485008 159.39771 
L 193.019963 164.292824 
L 202.883384 169.072728 
L 213.067002 173.724235 
L 223.561662 178.234509 
L 234.357353 182.591105 
L 245.443231 186.782002 
L 256.807653 190.795637 
L 268.438207 194.620933 
L 280.321747 198.247337 
L 292.444427 201.664842 
L 304.791743 204.864018 
L 317.348572 207.836038 
L 330.099211 210.5727 
L 343.027422 213.066454 
L 356.116479 215.310419 
L 369.34921 217.298403 
L 382.708049 219.02492 
L 393.473889 220.214652 
L 397.62 220.623963 
L 397.62 220.623963 
" clip-path="url(#p1767f88ffc)" style="fill: none; stroke: #9aa3ad; stroke-opacity: 0.8; stroke-width: 0.9; stroke-linecap: square"/>
   </g>
   <g id="line2d_22">
    <path d="M 51.148 21.395625 
L 51.263229 23.091644 
L 51.680289 26.08947 
L 52.369116 29.539288 
L 53.482248 33.897878 
L 54.880715 38.43308 
L 56.74119 43.616069 
L 58.749356 48.553063 
L 61.177584 53.925833 
L 64.060516 59.713032 
L 67.430985 65.891667 
L 70.634486 71.321878 
L 74.21484 76.991915 
L 78.187802 82.886134 
L 82.568039 88.988269 
L 87.369099 95.281484 
L 92.603365 101.748414 
L 98.282029 108.371214 
L 104.415052 115.131611 
L 111.011144 122.01095 
L 118.077737 128.990249 
L 124.073938 134.632727 
L 130.377745 140.316893 
L 136.99115 146.032709 
L 143.915598 151.770081 
L 151.151985 157.518875 
L 158.700655 163.268938 
L 166.561401 169.010116 
L 174.733466 174.732269 
L 183.215541 180.425292 
L 192.005771 186.079129 
L 201.101758 191.683796 
L 210.50056 197.229394 
L 220.198705 202.706129 
L 230.192188 208.104329 
L 240.476485 213.41446 
L 251.046559 218.627143 
L 261.896866 223.733174 
L 273.021368 228.723534 
L 284.413543 233.589409 
L 296.066397 238.322206 
L 307.972474 242.913567 
L 320.123872 247.355383 
L 332.512255 251.639808 
L 345.128869 255.759277 
L 357.964557 259.706514 
L 371.009774 263.474548 
L 384.254606 267.056724 
L 397.62 270.42982 
L 397.62 270.42982 
" clip-path="url(#p1767f88ffc)" style="fill: none; stroke: #9aa3ad; stroke-opacity: 0.8; stroke-width: 0.9; stroke-linecap: square"/>
   </g>
   <g id="line2d_23">
    <path d="M 51.148 21.395625 
L 51.257996 23.130451 
L 51.63483 26.063554 
L 52.337167 29.841868 
L 53.332492 34.030569 
L 54.764128 39.01954 
L 56.395291 43.912417 
L 58.447525 49.354057 
L 60.964666 55.322841 
L 63.447775 60.682459 
L 66.306171 66.376928 
L 69.562056 72.390536 
L 73.236536 78.706688 
L 77.349563 85.307957 
L 81.919877 92.176128 
L 86.964959 99.29225 
L 92.500976 106.636686 
L 97.293266 112.663024 
L 102.416208 118.811882 
L 107.876159 125.0724 
L 113.678887 131.433521 
L 119.829549 137.884012 
L 126.33269 144.41248 
L 133.192234 151.007396 
L 140.411471 157.657112 
L 147.993061 164.349883 
L 155.939021 171.073891 
L 164.250724 177.817259 
L 172.928899 184.568079 
L 181.973627 191.314428 
L 191.384342 198.044391 
L 201.15983 204.746082 
L 211.298235 211.407666 
L 221.797058 218.017378 
L 232.653166 224.563544 
L 243.862792 231.034603 
L 255.421547 237.419127 
L 267.324425 243.705839 
L 279.56581 249.883638 
L 292.139492 255.941612 
L 305.038671 261.869063 
L 318.255974 267.655522 
L 331.783465 273.29077 
L 345.61266 278.764854 
L 359.734544 284.068107 
L 374.139583 289.191162 
L 388.817743 294.124972 
L 397.62 296.947318 
L 397.62 296.947318 
" clip-path="url(#p1767f88ffc)" style="fill: none; stroke: #9aa3ad; stroke-opacity: 0.8; stroke-width: 0.9; stroke-linecap: square"/>
   </g>
   <g id="line2d_24">
    <path d="M 51.148 21.395625 
L 51.25442 22.930771 
L 51.65817 25.74981 
L 52.353834 29.099479 
L 53.34249 32.841855 
L 54.756279 37.279091 
L 56.397775 41.709245 
L 58.464367 46.627599 
L 60.999349 52.00982 
L 63.576117 56.972229 
L 66.551491 62.237871 
L 69.94836 67.787605 
L 73.788082 73.601257 
L 78.090403 79.657693 
L 82.873389 85.934896 
L 87.238212 91.318101 
L 91.956681 96.825193 
L 97.036392 102.442267 
L 102.484026 108.155144 
L 108.305337 113.9494 
L 114.505137 119.810406 
L 121.087278 125.723365 
L 128.054651 131.67335 
L 135.409173 137.645338 
L 143.151783 143.624252 
L 151.282441 149.594998 
L 159.800127 155.542502 
L 168.702843 161.451747 
L 177.987621 167.307816 
L 187.650527 173.095924 
L 197.686671 178.801457 
L 208.090224 184.410011 
L 218.854428 189.907427 
L 218.854428 189.907427 
" clip-path="url(#p1767f88ffc)" style="fill: none; stroke: #d55e00; stroke-width: 2.8; stroke-linecap: square"/>
   </g>
   <g id="line2d_25">
    <path d="M 51.148 21.395625 
L 218.854428 189.907427 
" clip-path="url(#p1767f88ffc)" style="fill: none; stroke-dasharray: 4.44,1.92; stroke-dashoffset: 0; stroke: #1f2328; stroke-width: 1.2"/>
   </g>
   <g id="patch_3">
    <path d="M 43.46 265.331625 
L 43.46 21.395625 
" style="fill: none; stroke: #1f2328; stroke-width: 0.8; stroke-linejoin: miter; stroke-linecap: square"/>
   </g>
   <g id="patch_4">
    <path d="M 43.46 265.331625 
L 389.42 265.331625 
" style="fill: none; stroke: #1f2328; stroke-width: 0.8; stroke-linejoin: miter; stroke-linecap: square"/>
   </g>
   <g id="text_21">
    <!-- $A$ -->
    <g style="fill: #1f2328" transform="translate(57.2984 35.62463) scale(0.1 -0.1)">
     <defs>
      <path id="Cmmi10-41" d="M 288 0 
Q 225 0 225 84 
Q 250 225 306 225 
Q 566 225 755 328 
Q 944 431 1081 647 
Q 1094 659 1094 659 
L 3378 4513 
Q 3428 4581 3500 4581 
L 3584 4581 
Q 3603 4581 3622 4573 
Q 3641 4566 3655 4548 
Q 3669 4531 3669 4513 
L 4056 378 
Q 4056 350 4084 294 
Q 4147 225 4563 225 
Q 4628 225 4628 141 
Q 4606 56 4592 28 
Q 4578 0 4519 0 
L 2919 0 
Q 2859 0 2859 84 
Q 2894 225 2944 225 
Q 3450 225 3481 397 
L 3384 1453 
L 1806 1453 
L 1294 594 
Q 1247 525 1247 434 
Q 1247 322 1355 273 
Q 1463 225 1594 225 
Q 1656 225 1656 141 
Q 1634 50 1621 25 
Q 1609 0 1550 0 
L 288 0 
z
M 1931 1678 
L 3359 1678 
L 3169 3750 
L 1931 1678 
z
" transform="scale(0.015625)"/>
     </defs>
     <use xlink:href="#Cmmi10-41" transform="translate(0 0.421875)"/>
    </g>
   </g>
   <g id="text_22">
    <!-- $B$ -->
    <g style="fill: #1f2328" transform="translate(225.004828 192.237115) scale(0.1 -0.1)">
     <defs>
      <path id="Cmmi10-42" d="M 319 0 
Q 256 0 256 84 
Q 259 100 268 137 
Q 278 175 293 200 
Q 309 225 341 225 
Q 522 225 656 234 
Q 791 244 884 269 
Q 959 297 1006 441 
L 1881 3956 
Q 1894 4019 1894 4044 
Q 1894 4113 1819 4122 
Q 1697 4147 1356 4147 
Q 1294 4147 1294 4231 
Q 1297 4247 1306 4286 
Q 1316 4325 1333 4348 
Q 1350 4372 1375 4372 
L 3669 4372 
Q 3878 4372 4083 4320 
Q 4288 4269 4461 4156 
Q 4634 4044 4736 3876 
Q 4838 3709 4838 3488 
Q 4838 3247 4714 3040 
Q 4591 2834 4395 2681 
Q 4200 2528 3973 2429 
Q 3747 2331 3500 2284 
Q 3675 2284 3854 2215 
Q 4034 2147 4175 2028 
Q 4316 1909 4402 1743 
Q 4488 1578 4488 1388 
Q 4488 1003 4219 684 
Q 3950 366 3542 183 
Q 3134 0 2753 0 
L 319 0 
z
M 1497 275 
Q 1497 225 1716 225 
L 2631 225 
Q 2944 225 3231 398 
Q 3519 572 3692 859 
Q 3866 1147 3866 1459 
Q 3866 1650 3786 1820 
Q 3706 1991 3556 2089 
Q 3406 2188 3213 2188 
L 1966 2188 
L 1522 416 
Q 1497 328 1497 275 
z
M 2009 2356 
L 2981 2356 
Q 3288 2356 3577 2512 
Q 3866 2669 4048 2937 
Q 4231 3206 4231 3506 
Q 4231 3784 4057 3965 
Q 3884 4147 3609 4147 
L 2731 4147 
Q 2559 4147 2500 4115 
Q 2441 4084 2400 3928 
L 2009 2356 
z
" transform="scale(0.015625)"/>
     </defs>
     <use xlink:href="#Cmmi10-42" transform="translate(0 0.6875)"/>
    </g>
   </g>
   <g id="text_23">
    <!-- cycloid (brachistochrone) -->
    <g style="fill: #d55e00" transform="translate(197.22 216.489562) scale(0.1 -0.1)">
     <defs>
      <path id="STIXGeneral-Regular-63" d="M 2547 998 
L 2637 941 
Q 2362 403 2112 205 
Q 1786 -64 1376 -64 
Q 845 -64 502 336 
Q 160 736 160 1357 
Q 160 2170 698 2618 
Q 1094 2944 1562 2944 
Q 1965 2944 2256 2749 
Q 2547 2554 2547 2285 
Q 2547 2176 2457 2096 
Q 2368 2016 2246 2016 
Q 2022 2016 1939 2310 
L 1901 2451 
Q 1850 2630 1773 2694 
Q 1696 2758 1523 2758 
Q 1133 2758 893 2451 
Q 653 2144 653 1645 
Q 653 1094 928 745 
Q 1203 397 1645 397 
Q 1920 397 2118 528 
Q 2317 659 2547 998 
z
" transform="scale(0.015625)"/>
      <path id="STIXGeneral-Regular-79" d="M 3040 2880 
L 3040 2784 
Q 2925 2771 2854 2700 
Q 2784 2630 2720 2458 
L 1760 -160 
Q 1510 -838 1257 -1116 
Q 1005 -1395 640 -1395 
Q 435 -1395 313 -1289 
Q 192 -1184 192 -1024 
Q 192 -902 272 -816 
Q 352 -730 467 -730 
Q 653 -730 800 -813 
Q 883 -858 966 -858 
Q 1101 -858 1286 -576 
Q 1376 -448 1459 -211 
Q 1542 26 1542 115 
Q 1542 198 1274 762 
L 429 2566 
Q 346 2752 90 2790 
L 90 2880 
L 1402 2880 
L 1402 2784 
Q 1197 2778 1117 2739 
Q 1037 2701 1037 2611 
Q 1037 2541 1120 2349 
L 1837 749 
L 2458 2515 
Q 2483 2573 2483 2630 
Q 2483 2784 2189 2784 
L 2189 2880 
L 3040 2880 
z
" transform="scale(0.015625)"/>
      <path id="STIXGeneral-Regular-6c" d="M 1645 0 
L 134 0 
L 134 96 
Q 435 122 531 221 
Q 627 320 627 589 
L 627 3590 
Q 627 3821 569 3910 
Q 512 4000 358 4000 
Q 224 4000 122 3987 
L 122 4090 
Q 730 4237 1133 4371 
L 1165 4346 
L 1165 557 
Q 1165 288 1254 201 
Q 1344 115 1645 96 
L 1645 0 
z
" transform="scale(0.015625)"/>
      <path id="STIXGeneral-Regular-6f" d="M 3008 1478 
Q 3008 806 2608 371 
Q 2208 -64 1568 -64 
Q 979 -64 582 368 
Q 186 800 186 1459 
Q 186 2125 582 2534 
Q 979 2944 1626 2944 
Q 2221 2944 2614 2537 
Q 3008 2131 3008 1478 
z
M 2432 1306 
Q 2432 2035 2112 2445 
Q 1856 2765 1504 2765 
Q 1171 2765 966 2493 
Q 762 2221 762 1747 
Q 762 928 1101 435 
Q 1318 115 1677 115 
Q 2029 115 2230 432 
Q 2432 749 2432 1306 
z
" transform="scale(0.015625)"/>
      <path id="STIXGeneral-Regular-69" d="M 1152 4045 
Q 1152 3904 1056 3811 
Q 960 3718 819 3718 
Q 685 3718 592 3811 
Q 499 3904 499 4045 
Q 499 4179 595 4275 
Q 691 4371 826 4371 
Q 966 4371 1059 4275 
Q 1152 4179 1152 4045 
z
M 1619 0 
L 102 0 
L 102 96 
Q 435 115 521 211 
Q 608 307 608 666 
L 608 2118 
Q 608 2342 563 2432 
Q 518 2522 397 2522 
Q 243 2522 128 2490 
L 128 2592 
L 1120 2944 
L 1146 2918 
L 1146 672 
Q 1146 314 1226 218 
Q 1306 122 1619 96 
L 1619 0 
z
" transform="scale(0.015625)"/>
      <path id="STIXGeneral-Regular-62" d="M 979 4358 
L 979 2406 
Q 1082 2650 1315 2797 
Q 1549 2944 1843 2944 
Q 2349 2944 2672 2541 
Q 2995 2138 2995 1536 
Q 2995 832 2566 384 
Q 2138 -64 1498 -64 
Q 1107 -64 774 67 
Q 442 198 442 358 
L 442 3622 
Q 442 3859 384 3926 
Q 326 3994 128 3994 
Q 83 3994 19 3981 
L 19 4090 
L 211 4147 
Q 864 4346 947 4371 
L 979 4358 
z
M 979 2035 
L 979 474 
Q 979 326 1161 233 
Q 1344 141 1600 141 
Q 1978 141 2195 416 
Q 2432 710 2432 1261 
Q 2432 1888 2182 2240 
Q 1971 2541 1613 2541 
Q 1357 2541 1168 2390 
Q 979 2240 979 2035 
z
" transform="scale(0.015625)"/>
      <path id="STIXGeneral-Regular-72" d="M 1024 2931 
L 1024 2342 
Q 1267 2688 1430 2816 
Q 1594 2944 1792 2944 
Q 1958 2944 2051 2854 
Q 2144 2765 2144 2605 
Q 2144 2470 2077 2393 
Q 2010 2317 1894 2317 
Q 1773 2317 1638 2445 
Q 1536 2541 1472 2541 
Q 1338 2541 1181 2355 
Q 1024 2170 1024 2016 
L 1024 576 
Q 1024 301 1133 205 
Q 1242 109 1568 96 
L 1568 0 
L 32 0 
L 32 96 
Q 339 154 412 224 
Q 486 294 486 538 
L 486 2138 
Q 486 2349 438 2435 
Q 390 2522 269 2522 
Q 166 2522 45 2496 
L 45 2598 
Q 448 2726 992 2944 
L 1024 2931 
z
" transform="scale(0.015625)"/>
      <path id="STIXGeneral-Regular-61" d="M 2829 422 
L 2829 243 
Q 2586 -64 2253 -64 
Q 1888 -64 1843 403 
L 1837 403 
Q 1427 -64 909 -64 
Q 608 -64 422 112 
Q 237 288 237 602 
Q 237 1050 685 1350 
Q 992 1555 1837 1869 
L 1837 2214 
Q 1837 2502 1699 2646 
Q 1562 2790 1338 2790 
Q 1146 2790 1018 2697 
Q 890 2605 890 2477 
Q 890 2419 909 2348 
Q 928 2278 928 2208 
Q 928 2112 841 2029 
Q 755 1946 634 1946 
Q 525 1946 441 2029 
Q 358 2112 358 2240 
Q 358 2547 685 2752 
Q 986 2944 1421 2944 
Q 1939 2944 2176 2656 
Q 2291 2522 2323 2384 
Q 2355 2246 2355 1946 
L 2355 723 
Q 2355 301 2554 301 
Q 2682 301 2829 422 
z
M 1837 813 
L 1837 1715 
Q 1248 1510 1018 1293 
Q 800 1094 800 800 
Q 800 557 921 432 
Q 1043 307 1242 307 
Q 1453 307 1613 410 
Q 1747 506 1792 589 
Q 1837 672 1837 813 
z
" transform="scale(0.015625)"/>
      <path id="STIXGeneral-Regular-73" d="M 998 1926 
L 1664 1523 
Q 1984 1331 2105 1164 
Q 2227 998 2227 736 
Q 2227 416 1961 176 
Q 1696 -64 1331 -64 
Q 1030 -64 864 -6 
Q 691 51 570 51 
Q 461 51 416 -26 
L 333 -26 
L 333 979 
L 435 979 
Q 538 512 730 294 
Q 922 77 1248 77 
Q 1485 77 1632 211 
Q 1779 346 1779 550 
Q 1779 845 1440 1030 
L 1094 1222 
Q 326 1651 326 2150 
Q 326 2522 566 2730 
Q 806 2938 1210 2938 
Q 1491 2938 1638 2867 
Q 1754 2816 1818 2816 
Q 1862 2816 1920 2880 
L 1990 2880 
L 2022 2010 
L 1926 2010 
Q 1818 2445 1654 2621 
Q 1491 2797 1203 2797 
Q 986 2797 854 2688 
Q 723 2579 723 2362 
Q 723 2253 796 2128 
Q 870 2003 998 1926 
z
" transform="scale(0.015625)"/>
      <path id="STIXGeneral-Regular-6e" d="M 3104 0 
L 1773 0 
L 1779 96 
Q 2016 115 2096 233 
Q 2176 352 2176 672 
L 2176 1946 
Q 2176 2592 1709 2592 
Q 1549 2592 1408 2515 
Q 1267 2438 1050 2227 
L 1050 461 
Q 1050 269 1136 192 
Q 1222 115 1466 96 
L 1466 0 
L 115 0 
L 115 96 
Q 358 115 435 214 
Q 512 314 512 602 
L 512 2157 
Q 512 2394 467 2483 
Q 422 2573 288 2573 
Q 160 2573 102 2547 
L 102 2656 
Q 550 2784 979 2944 
L 1030 2925 
L 1030 2426 
L 1037 2426 
Q 1491 2944 1958 2944 
Q 2323 2944 2518 2688 
Q 2714 2432 2714 1958 
L 2714 544 
Q 2714 288 2790 205 
Q 2867 122 3104 96 
L 3104 0 
z
" transform="scale(0.015625)"/>
     </defs>
     <use xlink:href="#STIXGeneral-Regular-63"/>
     <use xlink:href="#STIXGeneral-Regular-79" x="44.399994"/>
     <use xlink:href="#STIXGeneral-Regular-63" x="94.399979"/>
     <use xlink:href="#STIXGeneral-Regular-6c" x="138.799973"/>
     <use xlink:href="#STIXGeneral-Regular-6f" x="166.59996"/>
     <use xlink:href="#STIXGeneral-Regular-69" x="216.599945"/>
     <use xlink:href="#STIXGeneral-Regular-64" x="244.399933"/>
     <use xlink:href="#STIXGeneral-Regular-20" x="294.399918"/>
     <use xlink:href="#STIXGeneral-Regular-28" x="319.399902"/>
     <use xlink:href="#STIXGeneral-Regular-62" x="352.69989"/>
     <use xlink:href="#STIXGeneral-Regular-72" x="402.699875"/>
     <use xlink:href="#STIXGeneral-Regular-61" x="435.999863"/>
     <use xlink:href="#STIXGeneral-Regular-63" x="480.399857"/>
     <use xlink:href="#STIXGeneral-Regular-68" x="524.79985"/>
     <use xlink:href="#STIXGeneral-Regular-69" x="574.799835"/>
     <use xlink:href="#STIXGeneral-Regular-73" x="602.599823"/>
     <use xlink:href="#STIXGeneral-Regular-74" x="641.499817"/>
     <use xlink:href="#STIXGeneral-Regular-6f" x="669.299805"/>
     <use xlink:href="#STIXGeneral-Regular-63" x="719.299789"/>
     <use xlink:href="#STIXGeneral-Regular-68" x="763.699783"/>
     <use xlink:href="#STIXGeneral-Regular-72" x="813.699768"/>
     <use xlink:href="#STIXGeneral-Regular-6f" x="846.999756"/>
     <use xlink:href="#STIXGeneral-Regular-6e" x="896.999741"/>
     <use xlink:href="#STIXGeneral-Regular-65" x="946.999725"/>
     <use xlink:href="#STIXGeneral-Regular-29" x="991.399719"/>
    </g>
   </g>
   <g id="text_24">
    <!-- straight path: slower -->
    <g style="fill: #1f2328" transform="translate(150.198914 133.638348) rotate(-33) scale(0.1 -0.1)">
     <defs>
      <path id="STIXGeneral-Regular-67" d="M 3008 2483 
L 2477 2483 
Q 2598 2208 2598 1946 
Q 2598 1453 2265 1203 
Q 1933 954 1600 954 
Q 1530 954 1357 973 
L 1235 986 
Q 1107 947 979 812 
Q 851 678 851 582 
Q 851 435 1350 410 
L 2176 371 
Q 2528 358 2739 172 
Q 2950 -13 2950 -314 
Q 2950 -685 2566 -986 
Q 2035 -1395 1286 -1395 
Q 826 -1395 502 -1212 
Q 179 -1030 179 -774 
Q 179 -595 320 -419 
Q 461 -243 806 6 
Q 602 102 534 172 
Q 467 243 467 346 
Q 467 531 762 787 
Q 909 915 1037 1043 
Q 717 1203 579 1401 
Q 442 1600 442 1901 
Q 442 2336 752 2640 
Q 1062 2944 1510 2944 
Q 1766 2944 2022 2848 
L 2163 2797 
Q 2349 2733 2515 2733 
L 3008 2733 
L 3008 2483 
z
M 973 2163 
L 973 2144 
Q 973 1683 1155 1398 
Q 1338 1114 1632 1114 
Q 1850 1114 1978 1270 
Q 2106 1427 2106 1690 
Q 2106 2112 1914 2464 
Q 1754 2765 1446 2765 
Q 1222 2765 1097 2605 
Q 973 2445 973 2163 
z
M 2771 -410 
Q 2771 -230 2595 -163 
Q 2419 -96 1978 -96 
Q 1344 -96 941 -13 
Q 749 -243 688 -348 
Q 627 -454 627 -563 
Q 627 -774 880 -902 
Q 1133 -1030 1555 -1030 
Q 2099 -1030 2435 -860 
Q 2771 -691 2771 -410 
z
" transform="scale(0.015625)"/>
      <path id="STIXGeneral-Regular-3a" d="M 1123 2832 
Q 1229 2726 1229 2579 
Q 1229 2432 1126 2329 
Q 1024 2227 877 2227 
Q 730 2227 624 2332 
Q 518 2438 518 2579 
Q 518 2733 620 2835 
Q 723 2938 877 2938 
Q 1018 2938 1123 2832 
z
M 1229 282 
Q 1229 141 1126 35 
Q 1024 -70 877 -70 
Q 730 -70 624 35 
Q 518 141 518 282 
Q 518 435 620 537 
Q 723 640 877 640 
Q 1018 640 1123 534 
Q 1229 429 1229 282 
z
" transform="scale(0.015625)"/>
      <path id="STIXGeneral-Regular-77" d="M 4442 2880 
L 4442 2784 
Q 4346 2752 4301 2691 
Q 4256 2630 4179 2438 
L 3296 224 
Q 3168 -90 3117 -90 
Q 3085 -90 3062 -48 
Q 3040 -6 2963 186 
L 2381 1696 
L 1664 160 
Q 1549 -90 1504 -90 
Q 1446 -90 1338 192 
L 474 2381 
Q 378 2630 314 2700 
Q 250 2771 134 2784 
L 134 2880 
L 1286 2880 
L 1286 2784 
Q 1120 2765 1056 2720 
Q 992 2675 992 2573 
Q 992 2477 1030 2381 
L 1664 710 
L 2246 1984 
L 2118 2342 
Q 2029 2598 1942 2681 
Q 1856 2765 1677 2784 
L 1677 2880 
L 2976 2880 
L 2976 2784 
Q 2752 2752 2678 2707 
Q 2605 2662 2605 2560 
Q 2605 2458 2714 2176 
L 3251 742 
L 3827 2163 
Q 3936 2432 3936 2592 
Q 3936 2669 3875 2710 
Q 3814 2752 3654 2784 
L 3654 2880 
L 4442 2880 
z
" transform="scale(0.015625)"/>
     </defs>
     <use xlink:href="#STIXGeneral-Regular-73"/>
     <use xlink:href="#STIXGeneral-Regular-74" x="38.899994"/>
     <use xlink:href="#STIXGeneral-Regular-72" x="66.699982"/>
     <use xlink:href="#STIXGeneral-Regular-61" x="99.999969"/>
     <use xlink:href="#STIXGeneral-Regular-69" x="144.399963"/>
     <use xlink:href="#STIXGeneral-Regular-67" x="172.199951"/>
     <use xlink:href="#STIXGeneral-Regular-68" x="222.199936"/>
     <use xlink:href="#STIXGeneral-Regular-74" x="272.199921"/>
     <use xlink:href="#STIXGeneral-Regular-20" x="299.999908"/>
     <use xlink:href="#STIXGeneral-Regular-70" x="324.999893"/>
     <use xlink:href="#STIXGeneral-Regular-61" x="374.999878"/>
     <use xlink:href="#STIXGeneral-Regular-74" x="419.399872"/>
     <use xlink:href="#STIXGeneral-Regular-68" x="447.19986"/>
     <use xlink:href="#STIXGeneral-Regular-3a" x="497.199844"/>
     <use xlink:href="#STIXGeneral-Regular-20" x="524.999832"/>
     <use xlink:href="#STIXGeneral-Regular-73" x="549.999817"/>
     <use xlink:href="#STIXGeneral-Regular-6c" x="588.899811"/>
     <use xlink:href="#STIXGeneral-Regular-6f" x="616.699799"/>
     <use xlink:href="#STIXGeneral-Regular-77" x="666.699783"/>
     <use xlink:href="#STIXGeneral-Regular-65" x="738.899765"/>
     <use xlink:href="#STIXGeneral-Regular-72" x="783.299759"/>
    </g>
   </g>
   <g id="text_25">
    <!-- field of extremals -->
    <g style="fill: #9aa3ad" transform="translate(312.54 73.702444) scale(0.1 -0.1)">
     <defs>
      <path id="STIXGeneral-Regular-66" d="M 134 2880 
L 659 2880 
Q 666 3264 710 3478 
Q 755 3693 883 3910 
Q 1152 4371 1786 4371 
Q 2074 4371 2262 4259 
Q 2451 4147 2451 3974 
Q 2451 3866 2374 3789 
Q 2298 3712 2182 3712 
Q 2029 3712 1894 3942 
Q 1741 4192 1555 4192 
Q 1197 4192 1197 3622 
L 1197 2880 
L 1978 2880 
L 1978 2675 
L 1197 2675 
L 1197 666 
Q 1197 307 1299 208 
Q 1402 109 1792 96 
L 1792 0 
L 128 0 
L 128 96 
Q 474 115 566 214 
Q 659 314 659 666 
L 659 2675 
L 134 2675 
L 134 2880 
z
" transform="scale(0.015625)"/>
      <path id="STIXGeneral-Regular-78" d="M 3066 0 
L 1779 0 
L 1779 96 
Q 1939 109 1987 137 
Q 2035 166 2035 250 
Q 2035 307 1997 365 
L 1414 1261 
L 909 474 
Q 781 275 781 211 
Q 781 96 1037 96 
L 1037 0 
L 109 0 
L 109 96 
Q 269 109 355 169 
Q 442 230 576 422 
L 1306 1478 
L 704 2400 
Q 557 2624 454 2704 
Q 352 2784 211 2784 
L 154 2784 
L 154 2880 
L 1478 2880 
L 1478 2784 
Q 1203 2778 1203 2643 
Q 1203 2509 1498 2074 
Q 1581 1958 1587 1946 
Q 1619 1990 1779 2227 
Q 1811 2285 1856 2349 
Q 1901 2413 1923 2451 
Q 1946 2490 1971 2528 
Q 1997 2566 2006 2595 
Q 2016 2624 2016 2643 
Q 2016 2765 1760 2784 
L 1760 2880 
L 2771 2880 
L 2771 2784 
Q 2445 2771 2253 2502 
L 1722 1734 
L 2541 480 
Q 2790 96 3066 96 
L 3066 0 
z
" transform="scale(0.015625)"/>
      <path id="STIXGeneral-Regular-6d" d="M 4960 0 
L 3565 0 
L 3565 96 
Q 3834 122 3907 208 
Q 3981 294 3981 576 
L 3981 1894 
Q 3981 2278 3869 2444 
Q 3757 2611 3488 2611 
Q 3264 2611 3107 2521 
Q 2950 2432 2803 2221 
L 2803 608 
Q 2803 301 2896 201 
Q 2989 102 3264 96 
L 3264 0 
L 1830 0 
L 1830 96 
Q 2112 115 2189 188 
Q 2266 262 2266 550 
L 2266 1901 
Q 2266 2611 1850 2611 
Q 1670 2611 1468 2531 
Q 1267 2451 1171 2336 
Q 1088 2240 1088 2227 
L 1088 448 
Q 1088 243 1177 176 
Q 1267 109 1523 96 
L 1523 0 
L 102 0 
L 102 96 
Q 371 102 460 195 
Q 550 288 550 563 
L 550 2150 
Q 550 2387 499 2480 
Q 448 2573 326 2573 
Q 230 2573 122 2547 
L 122 2656 
Q 557 2778 1011 2944 
L 1062 2925 
L 1062 2451 
L 1075 2451 
Q 1363 2752 1584 2848 
Q 1805 2944 2054 2944 
Q 2560 2944 2733 2406 
Q 3232 2944 3776 2944 
Q 4518 2944 4518 1792 
L 4518 493 
Q 4518 282 4582 202 
Q 4646 122 4794 109 
L 4960 96 
L 4960 0 
z
" transform="scale(0.015625)"/>
     </defs>
     <use xlink:href="#STIXGeneral-Regular-66"/>
     <use xlink:href="#STIXGeneral-Regular-69" x="33.299988"/>
     <use xlink:href="#STIXGeneral-Regular-65" x="61.099976"/>
     <use xlink:href="#STIXGeneral-Regular-6c" x="105.499969"/>
     <use xlink:href="#STIXGeneral-Regular-64" x="133.299957"/>
     <use xlink:href="#STIXGeneral-Regular-20" x="183.299942"/>
     <use xlink:href="#STIXGeneral-Regular-6f" x="208.299927"/>
     <use xlink:href="#STIXGeneral-Regular-66" x="258.299911"/>
     <use xlink:href="#STIXGeneral-Regular-20" x="291.599899"/>
     <use xlink:href="#STIXGeneral-Regular-65" x="316.599884"/>
     <use xlink:href="#STIXGeneral-Regular-78" x="360.999878"/>
     <use xlink:href="#STIXGeneral-Regular-74" x="410.999863"/>
     <use xlink:href="#STIXGeneral-Regular-72" x="438.79985"/>
     <use xlink:href="#STIXGeneral-Regular-65" x="472.099838"/>
     <use xlink:href="#STIXGeneral-Regular-6d" x="516.499832"/>
     <use xlink:href="#STIXGeneral-Regular-61" x="594.29982"/>
     <use xlink:href="#STIXGeneral-Regular-6c" x="638.699814"/>
     <use xlink:href="#STIXGeneral-Regular-73" x="666.499802"/>
    </g>
   </g>
   <g id="text_26">
    <!-- The cycloid is the brachistochrone, via the field of extremals -->
    <g transform="translate(70.799375 15.395625) scale(0.12 -0.12)">
     <defs>
      <path id="STIXGeneral-Regular-54" d="M 3795 3149 
L 3642 3149 
Q 3539 3674 3353 3821 
Q 3168 3968 2656 3968 
L 2278 3968 
L 2278 710 
Q 2278 346 2387 243 
Q 2496 141 2893 122 
L 2893 0 
L 1024 0 
L 1024 122 
Q 1427 147 1526 256 
Q 1626 365 1626 787 
L 1626 3968 
L 1242 3968 
Q 723 3968 540 3817 
Q 358 3667 262 3149 
L 109 3149 
L 154 4237 
L 3750 4237 
L 3795 3149 
z
" transform="scale(0.015625)"/>
      <path id="STIXGeneral-Regular-2c" d="M 531 -902 
L 467 -781 
Q 998 -422 998 -96 
Q 998 -13 909 -13 
Q 883 -13 822 -25 
Q 762 -38 723 -38 
Q 352 -38 352 288 
Q 352 454 457 553 
Q 563 653 736 653 
Q 954 653 1101 496 
Q 1248 339 1248 96 
Q 1248 -198 1053 -473 
Q 858 -749 531 -902 
z
" transform="scale(0.015625)"/>
      <path id="STIXGeneral-Regular-76" d="M 3053 2880 
L 3053 2784 
Q 2906 2771 2835 2688 
Q 2765 2605 2637 2285 
L 1818 230 
Q 1690 -90 1638 -90 
Q 1587 -90 1523 77 
Q 1510 96 1497 141 
Q 1485 186 1472 211 
L 704 2048 
Q 499 2534 403 2652 
Q 307 2771 122 2784 
L 122 2880 
L 1376 2880 
L 1376 2784 
Q 1210 2771 1146 2732 
Q 1082 2694 1082 2611 
Q 1082 2509 1139 2368 
L 1792 730 
L 2426 2387 
Q 2464 2483 2464 2579 
Q 2464 2758 2163 2784 
L 2163 2880 
L 3053 2880 
z
" transform="scale(0.015625)"/>
     </defs>
     <use xlink:href="#STIXGeneral-Regular-54"/>
     <use xlink:href="#STIXGeneral-Regular-68" x="61.099991"/>
     <use xlink:href="#STIXGeneral-Regular-65" x="111.099976"/>
     <use xlink:href="#STIXGeneral-Regular-20" x="155.499969"/>
     <use xlink:href="#STIXGeneral-Regular-63" x="180.499954"/>
     <use xlink:href="#STIXGeneral-Regular-79" x="224.899948"/>
     <use xlink:href="#STIXGeneral-Regular-63" x="274.899933"/>
     <use xlink:href="#STIXGeneral-Regular-6c" x="319.299927"/>
     <use xlink:href="#STIXGeneral-Regular-6f" x="347.099915"/>
     <use xlink:href="#STIXGeneral-Regular-69" x="397.099899"/>
     <use xlink:href="#STIXGeneral-Regular-64" x="424.899887"/>
     <use xlink:href="#STIXGeneral-Regular-20" x="474.899872"/>
     <use xlink:href="#STIXGeneral-Regular-69" x="499.899857"/>
     <use xlink:href="#STIXGeneral-Regular-73" x="527.699844"/>
     <use xlink:href="#STIXGeneral-Regular-20" x="566.599838"/>
     <use xlink:href="#STIXGeneral-Regular-74" x="591.599823"/>
     <use xlink:href="#STIXGeneral-Regular-68" x="619.399811"/>
     <use xlink:href="#STIXGeneral-Regular-65" x="669.399796"/>
     <use xlink:href="#STIXGeneral-Regular-20" x="713.799789"/>
     <use xlink:href="#STIXGeneral-Regular-62" x="738.799774"/>
     <use xlink:href="#STIXGeneral-Regular-72" x="788.799759"/>
     <use xlink:href="#STIXGeneral-Regular-61" x="822.099747"/>
     <use xlink:href="#STIXGeneral-Regular-63" x="866.499741"/>
     <use xlink:href="#STIXGeneral-Regular-68" x="910.899734"/>
     <use xlink:href="#STIXGeneral-Regular-69" x="960.899719"/>
     <use xlink:href="#STIXGeneral-Regular-73" x="988.699707"/>
     <use xlink:href="#STIXGeneral-Regular-74" x="1027.599701"/>
     <use xlink:href="#STIXGeneral-Regular-6f" x="1055.399689"/>
     <use xlink:href="#STIXGeneral-Regular-63" x="1105.399673"/>
     <use xlink:href="#STIXGeneral-Regular-68" x="1149.799667"/>
     <use xlink:href="#STIXGeneral-Regular-72" x="1199.799652"/>
     <use xlink:href="#STIXGeneral-Regular-6f" x="1233.09964"/>
     <use xlink:href="#STIXGeneral-Regular-6e" x="1283.099625"/>
     <use xlink:href="#STIXGeneral-Regular-65" x="1333.099609"/>
     <use xlink:href="#STIXGeneral-Regular-2c" x="1377.499603"/>
     <use xlink:href="#STIXGeneral-Regular-20" x="1402.499588"/>
     <use xlink:href="#STIXGeneral-Regular-76" x="1427.499573"/>
     <use xlink:href="#STIXGeneral-Regular-69" x="1477.499557"/>
     <use xlink:href="#STIXGeneral-Regular-61" x="1505.299545"/>
     <use xlink:href="#STIXGeneral-Regular-20" x="1549.699539"/>
     <use xlink:href="#STIXGeneral-Regular-74" x="1574.699524"/>
     <use xlink:href="#STIXGeneral-Regular-68" x="1602.499512"/>
     <use xlink:href="#STIXGeneral-Regular-65" x="1652.499496"/>
     <use xlink:href="#STIXGeneral-Regular-20" x="1696.89949"/>
     <use xlink:href="#STIXGeneral-Regular-66" x="1721.899475"/>
     <use xlink:href="#STIXGeneral-Regular-69" x="1755.199463"/>
     <use xlink:href="#STIXGeneral-Regular-65" x="1782.999451"/>
     <use xlink:href="#STIXGeneral-Regular-6c" x="1827.399445"/>
     <use xlink:href="#STIXGeneral-Regular-64" x="1855.199432"/>
     <use xlink:href="#STIXGeneral-Regular-20" x="1905.199417"/>
     <use xlink:href="#STIXGeneral-Regular-6f" x="1930.199402"/>
     <use xlink:href="#STIXGeneral-Regular-66" x="1980.199387"/>
     <use xlink:href="#STIXGeneral-Regular-20" x="2013.499374"/>
     <use xlink:href="#STIXGeneral-Regular-65" x="2038.499359"/>
     <use xlink:href="#STIXGeneral-Regular-78" x="2082.899353"/>
     <use xlink:href="#STIXGeneral-Regular-74" x="2132.899338"/>
     <use xlink:href="#STIXGeneral-Regular-72" x="2160.699326"/>
     <use xlink:href="#STIXGeneral-Regular-65" x="2193.999313"/>
     <use xlink:href="#STIXGeneral-Regular-6d" x="2238.399307"/>
     <use xlink:href="#STIXGeneral-Regular-61" x="2316.199295"/>
     <use xlink:href="#STIXGeneral-Regular-6c" x="2360.599289"/>
     <use xlink:href="#STIXGeneral-Regular-73" x="2388.399277"/>
    </g>
   </g>
   <g id="line2d_26">
    <defs>
     <path id="ma64e4769b2" d="M 0 3 
C 0.795609 3 1.55874 2.683901 2.12132 2.12132 
C 2.683901 1.55874 3 0.795609 3 0 
C 3 -0.795609 2.683901 -1.55874 2.12132 -2.12132 
C 1.55874 -2.683901 0.795609 -3 0 -3 
C -0.795609 -3 -1.55874 -2.683901 -2.12132 -2.12132 
C -2.683901 -1.55874 -3 -0.795609 -3 0 
C -3 0.795609 -2.683901 1.55874 -2.12132 2.12132 
C -1.55874 2.683901 -0.795609 3 0 3 
z
" style="stroke: #1f2328"/>
    </defs>
    <g clip-path="url(#p1767f88ffc)">
     <use xlink:href="#ma64e4769b2" x="51.148" y="21.395625" style="fill: #1f2328; stroke: #1f2328"/>
    </g>
   </g>
   <g id="line2d_27">
    <g clip-path="url(#p1767f88ffc)">
     <use xlink:href="#ma64e4769b2" x="218.854428" y="189.907427" style="fill: #1f2328; stroke: #1f2328"/>
    </g>
   </g>
  </g>
 </g>
 <defs>
  <clipPath id="p1767f88ffc">
   <rect x="43.46" y="21.395625" width="345.96" height="243.936"/>
  </clipPath>
 </defs>
</svg>
