<?xml version="1.0" encoding="utf-8" standalone="no"?>
<!DOCTYPE svg PUBLIC "-//W3C//DTD SVG 1.1//EN"
  "http://www.w3.org/Graphics/SVG/1.1/DTD/svg11.dtd">
<svg xmlns:xlink="http://www.w3.org/1999/xlink" width="415.43pt" height="291.948pt" viewBox="0 0 415.43 291.948" xmlns="http://www.w3.org/2000/svg" version="1.1">
 <metadata>
  <rdf:RDF xmlns:dc="http://purl.org/dc/elements/1.1/" xmlns:cc="http://creativecommons.org/ns#" xmlns:rdf="http://www.w3.org/1999/02/22-rdf-syntax-ns#">
   <cc:Work>
    <dc:type rdf:resource="http://purl.org/dc/dcmitype/StillImage"/>
    <dc:date>2026-06-23T16:40:46.843542</dc:date>
    <dc:format>image/svg+xml</dc:format>
    <dc:creator>
     <cc:Agent>
      <dc:title>Matplotlib v3.9.4, https://matplotlib.org/</dc:title>
     </cc:Agent>
    </dc:creator>
   </cc:Work>
  </rdf:RDF>
 </metadata>
 <defs>
  <style type="text/css">*{stroke-linejoin: round; stroke-linecap: butt}</style>
 </defs>
 <g id="figure_1">
  <g id="patch_1">
   <path d="M 0 291.948 
L 415.43 291.948 
L 415.43 0 
L 0 0 
z
" style="fill: #ffffff"/>
  </g>
  <g id="axes_1">
   <g id="patch_2">
    <path d="M 39.95 256.248 
L 408.23 256.248 
L 408.23 23.4 
L 39.95 23.4 
z
" style="fill: #ffffff"/>
   </g>
   <g id="matplotlib.axis_1">
    <g id="xtick_1">
     <g id="line2d_1">
      <defs>
       <path id="m4777dc38bb" d="M 0 0 
L 0 3 
" style="stroke: #1f2328; stroke-width: 0.8"/>
      </defs>
      <g>
       <use xlink:href="#m4777dc38bb" x="39.95" y="256.248" style="fill: #1f2328; stroke: #1f2328; stroke-width: 0.8"/>
      </g>
     </g>
     <g id="text_1">
      <!-- 0 -->
      <g style="fill: #1f2328" transform="translate(37.7 268.894719) scale(0.09 -0.09)">
       <defs>
        <path id="STIXGeneral-Regular-30" d="M 3046 2112 
Q 3046 1683 2963 1302 
Q 2880 922 2717 602 
Q 2554 282 2266 96 
Q 1978 -90 1600 -90 
Q 1210 -90 915 108 
Q 621 307 461 640 
Q 301 973 227 1350 
Q 154 1728 154 2150 
Q 154 2746 301 3222 
Q 448 3699 790 4012 
Q 1133 4326 1626 4326 
Q 2253 4326 2649 3712 
Q 3046 3098 3046 2112 
z
M 2432 2080 
Q 2432 3091 2217 3625 
Q 2003 4160 1587 4160 
Q 1190 4160 979 3622 
Q 768 3085 768 2106 
Q 768 1120 979 598 
Q 1190 77 1600 77 
Q 2003 77 2217 598 
Q 2432 1120 2432 2080 
z
" transform="scale(0.015625)"/>
       </defs>
       <use xlink:href="#STIXGeneral-Regular-30"/>
      </g>
     </g>
    </g>
    <g id="xtick_2">
     <g id="line2d_2">
      <g>
       <use xlink:href="#m4777dc38bb" x="111.00796" y="256.248" style="fill: #1f2328; stroke: #1f2328; stroke-width: 0.8"/>
      </g>
     </g>
     <g id="text_2">
      <!-- 1 -->
      <g style="fill: #1f2328" transform="translate(108.75796 268.894719) scale(0.09 -0.09)">
       <defs>
        <path id="STIXGeneral-Regular-31" d="M 2522 0 
L 755 0 
L 755 96 
Q 1107 115 1235 227 
Q 1363 339 1363 608 
L 1363 3482 
Q 1363 3795 1171 3795 
Q 1082 3795 883 3718 
L 710 3654 
L 710 3744 
L 1856 4326 
L 1914 4307 
L 1914 486 
Q 1914 275 2042 185 
Q 2170 96 2522 96 
L 2522 0 
z
" transform="scale(0.015625)"/>
       </defs>
       <use xlink:href="#STIXGeneral-Regular-31"/>
      </g>
     </g>
    </g>
    <g id="xtick_3">
     <g id="line2d_3">
      <g>
       <use xlink:href="#m4777dc38bb" x="182.06592" y="256.248" style="fill: #1f2328; stroke: #1f2328; stroke-width: 0.8"/>
      </g>
     </g>
     <g id="text_3">
      <!-- 2 -->
      <g style="fill: #1f2328" transform="translate(179.81592 268.894719) scale(0.09 -0.09)">
       <defs>
        <path id="STIXGeneral-Regular-32" d="M 3034 877 
L 2688 0 
L 186 0 
L 186 77 
L 1325 1286 
Q 1773 1754 1965 2144 
Q 2157 2534 2157 2950 
Q 2157 3379 1920 3616 
Q 1683 3853 1267 3853 
Q 922 3853 720 3673 
Q 518 3494 326 3021 
L 192 3053 
Q 301 3648 630 3987 
Q 960 4326 1523 4326 
Q 2054 4326 2380 4006 
Q 2707 3686 2707 3200 
Q 2707 2477 1888 1613 
L 832 486 
L 2330 486 
Q 2541 486 2665 569 
Q 2790 653 2944 915 
L 3034 877 
z
" transform="scale(0.015625)"/>
       </defs>
       <use xlink:href="#STIXGeneral-Regular-32"/>
      </g>
     </g>
    </g>
    <g id="xtick_4">
     <g id="line2d_4">
      <g>
       <use xlink:href="#m4777dc38bb" x="253.12388" y="256.248" style="fill: #1f2328; stroke: #1f2328; stroke-width: 0.8"/>
      </g>
     </g>
     <g id="text_4">
      <!-- 3 -->
      <g style="fill: #1f2328" transform="translate(250.87388 268.894719) scale(0.09 -0.09)">
       <defs>
        <path id="STIXGeneral-Regular-33" d="M 390 3264 
L 288 3290 
Q 435 3770 748 4048 
Q 1062 4326 1542 4326 
Q 1990 4326 2265 4083 
Q 2541 3840 2541 3450 
Q 2541 2925 1946 2566 
Q 2298 2413 2477 2227 
Q 2758 1914 2758 1402 
Q 2758 890 2464 506 
Q 2246 211 1840 60 
Q 1434 -90 979 -90 
Q 262 -90 262 275 
Q 262 378 339 442 
Q 416 506 525 506 
Q 685 506 915 339 
Q 1197 141 1466 141 
Q 1818 141 2058 425 
Q 2298 710 2298 1120 
Q 2298 1856 1632 2048 
Q 1434 2112 979 2112 
L 979 2202 
Q 1338 2323 1517 2432 
Q 2035 2726 2035 3290 
Q 2035 3610 1852 3776 
Q 1670 3942 1344 3942 
Q 768 3942 390 3264 
z
" transform="scale(0.015625)"/>
       </defs>
       <use xlink:href="#STIXGeneral-Regular-33"/>
      </g>
     </g>
    </g>
    <g id="xtick_5">
     <g id="line2d_5">
      <g>
       <use xlink:href="#m4777dc38bb" x="324.18184" y="256.248" style="fill: #1f2328; stroke: #1f2328; stroke-width: 0.8"/>
      </g>
     </g>
     <g id="text_5">
      <!-- 4 -->
      <g style="fill: #1f2328" transform="translate(321.93184 268.894719) scale(0.09 -0.09)">
       <defs>
        <path id="STIXGeneral-Regular-34" d="M 3027 1069 
L 2368 1069 
L 2368 0 
L 1869 0 
L 1869 1069 
L 77 1069 
L 77 1478 
L 2086 4326 
L 2368 4326 
L 2368 1478 
L 3027 1478 
L 3027 1069 
z
M 1869 1478 
L 1869 3674 
L 333 1478 
L 1869 1478 
z
" transform="scale(0.015625)"/>
       </defs>
       <use xlink:href="#STIXGeneral-Regular-34"/>
      </g>
     </g>
    </g>
    <g id="xtick_6">
     <g id="line2d_6">
      <g>
       <use xlink:href="#m4777dc38bb" x="395.2398" y="256.248" style="fill: #1f2328; stroke: #1f2328; stroke-width: 0.8"/>
      </g>
     </g>
     <g id="text_6">
      <!-- 5 -->
      <g style="fill: #1f2328" transform="translate(392.9898 268.894719) scale(0.09 -0.09)">
       <defs>
        <path id="STIXGeneral-Regular-35" d="M 2803 4358 
L 2573 3814 
Q 2534 3731 2400 3731 
L 1158 3731 
L 902 3187 
Q 1606 3053 1920 2896 
Q 2234 2739 2502 2368 
Q 2726 2061 2726 1555 
Q 2726 1094 2576 780 
Q 2426 467 2099 224 
Q 1664 -90 1011 -90 
Q 646 -90 422 19 
Q 198 128 198 307 
Q 198 550 486 550 
Q 717 550 960 352 
Q 1210 147 1414 147 
Q 1747 147 2012 480 
Q 2278 813 2278 1229 
Q 2278 1843 1850 2189 
Q 1293 2637 486 2637 
Q 410 2637 410 2688 
L 416 2720 
L 1114 4237 
L 2438 4237 
Q 2547 4237 2608 4269 
Q 2669 4301 2746 4403 
L 2803 4358 
z
" transform="scale(0.015625)"/>
       </defs>
       <use xlink:href="#STIXGeneral-Regular-35"/>
      </g>
     </g>
    </g>
    <g id="text_7">
     <!-- $t$ -->
     <g transform="translate(222.055 282.360656) scale(0.11 -0.11)">
      <defs>
       <path id="Cmmi10-74" d="M 397 519 
Q 397 613 416 697 
L 878 2534 
L 206 2534 
Q 141 2534 141 2619 
Q 166 2759 225 2759 
L 934 2759 
L 1191 3803 
Q 1216 3888 1291 3947 
Q 1366 4006 1459 4006 
Q 1541 4006 1595 3957 
Q 1650 3909 1650 3828 
Q 1650 3809 1648 3798 
Q 1647 3788 1644 3775 
L 1388 2759 
L 2047 2759 
Q 2113 2759 2113 2675 
Q 2109 2659 2100 2621 
Q 2091 2584 2075 2559 
Q 2059 2534 2028 2534 
L 1331 2534 
L 872 684 
Q 825 503 825 372 
Q 825 97 1013 97 
Q 1294 97 1511 361 
Q 1728 625 1844 941 
Q 1869 978 1894 978 
L 1972 978 
Q 1997 978 2012 961 
Q 2028 944 2028 922 
Q 2028 909 2022 903 
Q 1881 516 1612 222 
Q 1344 -72 997 -72 
Q 744 -72 570 93 
Q 397 259 397 519 
z
" transform="scale(0.015625)"/>
      </defs>
      <use xlink:href="#Cmmi10-74" transform="translate(0 0.40625)"/>
     </g>
    </g>
   </g>
   <g id="matplotlib.axis_2">
    <g id="ytick_1">
     <g id="line2d_7">
      <defs>
       <path id="m2991f5823f" d="M 0 0 
L -3 0 
" style="stroke: #1f2328; stroke-width: 0.8"/>
      </defs>
      <g>
       <use xlink:href="#m2991f5823f" x="39.95" y="256.248" style="fill: #1f2328; stroke: #1f2328; stroke-width: 0.8"/>
      </g>
     </g>
     <g id="text_8">
      <!-- 0.0 -->
      <g style="fill: #1f2328" transform="translate(22.2 259.321359) scale(0.09 -0.09)">
       <defs>
        <path id="STIXGeneral-Regular-2e" d="M 1158 275 
Q 1158 134 1052 32 
Q 947 -70 800 -70 
Q 653 -70 550 32 
Q 448 134 448 281 
Q 448 429 553 534 
Q 659 640 806 640 
Q 947 640 1052 531 
Q 1158 422 1158 275 
z
" transform="scale(0.015625)"/>
       </defs>
       <use xlink:href="#STIXGeneral-Regular-30"/>
       <use xlink:href="#STIXGeneral-Regular-2e" x="49.999985"/>
       <use xlink:href="#STIXGeneral-Regular-30" x="74.999969"/>
      </g>
     </g>
    </g>
    <g id="ytick_2">
     <g id="line2d_8">
      <g>
       <use xlink:href="#m2991f5823f" x="39.95" y="216.101793" style="fill: #1f2328; stroke: #1f2328; stroke-width: 0.8"/>
      </g>
     </g>
     <g id="text_9">
      <!-- 0.1 -->
      <g style="fill: #1f2328" transform="translate(22.2 219.175152) scale(0.09 -0.09)">
       <use xlink:href="#STIXGeneral-Regular-30"/>
       <use xlink:href="#STIXGeneral-Regular-2e" x="49.999985"/>
       <use xlink:href="#STIXGeneral-Regular-31" x="74.999969"/>
      </g>
     </g>
    </g>
    <g id="ytick_3">
     <g id="line2d_9">
      <g>
       <use xlink:href="#m2991f5823f" x="39.95" y="175.955586" style="fill: #1f2328; stroke: #1f2328; stroke-width: 0.8"/>
      </g>
     </g>
     <g id="text_10">
      <!-- 0.2 -->
      <g style="fill: #1f2328" transform="translate(22.2 179.028946) scale(0.09 -0.09)">
       <use xlink:href="#STIXGeneral-Regular-30"/>
       <use xlink:href="#STIXGeneral-Regular-2e" x="49.999985"/>
       <use xlink:href="#STIXGeneral-Regular-32" x="74.999969"/>
      </g>
     </g>
    </g>
    <g id="ytick_4">
     <g id="line2d_10">
      <g>
       <use xlink:href="#m2991f5823f" x="39.95" y="135.809379" style="fill: #1f2328; stroke: #1f2328; stroke-width: 0.8"/>
      </g>
     </g>
     <g id="text_11">
      <!-- 0.3 -->
      <g style="fill: #1f2328" transform="translate(22.2 138.882739) scale(0.09 -0.09)">
       <use xlink:href="#STIXGeneral-Regular-30"/>
       <use xlink:href="#STIXGeneral-Regular-2e" x="49.999985"/>
       <use xlink:href="#STIXGeneral-Regular-33" x="74.999969"/>
      </g>
     </g>
    </g>
    <g id="ytick_5">
     <g id="line2d_11">
      <g>
       <use xlink:href="#m2991f5823f" x="39.95" y="95.663172" style="fill: #1f2328; stroke: #1f2328; stroke-width: 0.8"/>
      </g>
     </g>
     <g id="text_12">
      <!-- 0.4 -->
      <g style="fill: #1f2328" transform="translate(22.2 98.736532) scale(0.09 -0.09)">
       <use xlink:href="#STIXGeneral-Regular-30"/>
       <use xlink:href="#STIXGeneral-Regular-2e" x="49.999985"/>
       <use xlink:href="#STIXGeneral-Regular-34" x="74.999969"/>
      </g>
     </g>
    </g>
    <g id="ytick_6">
     <g id="line2d_12">
      <g>
       <use xlink:href="#m2991f5823f" x="39.95" y="55.516966" style="fill: #1f2328; stroke: #1f2328; stroke-width: 0.8"/>
      </g>
     </g>
     <g id="text_13">
      <!-- 0.5 -->
      <g style="fill: #1f2328" transform="translate(22.2 58.590325) scale(0.09 -0.09)">
       <use xlink:href="#STIXGeneral-Regular-30"/>
       <use xlink:href="#STIXGeneral-Regular-2e" x="49.999985"/>
       <use xlink:href="#STIXGeneral-Regular-35" x="74.999969"/>
      </g>
     </g>
    </g>
    <g id="text_14">
     <!-- extraction rate $q(t)$ -->
     <g transform="translate(15.45 181.569) rotate(-90) scale(0.11 -0.11)">
      <defs>
       <path id="STIXGeneral-Regular-65" d="M 2611 1050 
L 2714 1005 
Q 2330 -64 1376 -64 
Q 813 -64 486 329 
Q 160 723 160 1389 
Q 160 2074 525 2509 
Q 890 2944 1485 2944 
Q 2061 2944 2374 2502 
Q 2560 2246 2592 1773 
L 621 1773 
Q 646 1370 700 1158 
Q 755 947 915 730 
Q 1184 378 1626 378 
Q 1939 378 2153 531 
Q 2368 685 2611 1050 
z
M 634 1978 
L 1939 1978 
Q 1882 2381 1750 2547 
Q 1619 2714 1312 2714 
Q 1043 2714 864 2525 
Q 685 2336 634 1978 
z
" transform="scale(0.015625)"/>
       <path id="STIXGeneral-Regular-78" d="M 3066 0 
L 1779 0 
L 1779 96 
Q 1939 109 1987 137 
Q 2035 166 2035 250 
Q 2035 307 1997 365 
L 1414 1261 
L 909 474 
Q 781 275 781 211 
Q 781 96 1037 96 
L 1037 0 
L 109 0 
L 109 96 
Q 269 109 355 169 
Q 442 230 576 422 
L 1306 1478 
L 704 2400 
Q 557 2624 454 2704 
Q 352 2784 211 2784 
L 154 2784 
L 154 2880 
L 1478 2880 
L 1478 2784 
Q 1203 2778 1203 2643 
Q 1203 2509 1498 2074 
Q 1581 1958 1587 1946 
Q 1619 1990 1779 2227 
Q 1811 2285 1856 2349 
Q 1901 2413 1923 2451 
Q 1946 2490 1971 2528 
Q 1997 2566 2006 2595 
Q 2016 2624 2016 2643 
Q 2016 2765 1760 2784 
L 1760 2880 
L 2771 2880 
L 2771 2784 
Q 2445 2771 2253 2502 
L 1722 1734 
L 2541 480 
Q 2790 96 3066 96 
L 3066 0 
z
" transform="scale(0.015625)"/>
       <path id="STIXGeneral-Regular-74" d="M 1702 493 
L 1786 422 
Q 1478 -64 1011 -64 
Q 448 -64 448 749 
L 448 2675 
L 109 2675 
Q 83 2694 83 2720 
Q 83 2771 192 2842 
Q 435 2982 813 3526 
Q 826 3546 874 3606 
Q 922 3667 941 3706 
Q 986 3706 986 3622 
L 986 2880 
L 1632 2880 
L 1632 2675 
L 986 2675 
L 986 845 
Q 986 538 1062 403 
Q 1139 269 1318 269 
Q 1510 269 1702 493 
z
" transform="scale(0.015625)"/>
       <path id="STIXGeneral-Regular-72" d="M 1024 2931 
L 1024 2342 
Q 1267 2688 1430 2816 
Q 1594 2944 1792 2944 
Q 1958 2944 2051 2854 
Q 2144 2765 2144 2605 
Q 2144 2470 2077 2393 
Q 2010 2317 1894 2317 
Q 1773 2317 1638 2445 
Q 1536 2541 1472 2541 
Q 1338 2541 1181 2355 
Q 1024 2170 1024 2016 
L 1024 576 
Q 1024 301 1133 205 
Q 1242 109 1568 96 
L 1568 0 
L 32 0 
L 32 96 
Q 339 154 412 224 
Q 486 294 486 538 
L 486 2138 
Q 486 2349 438 2435 
Q 390 2522 269 2522 
Q 166 2522 45 2496 
L 45 2598 
Q 448 2726 992 2944 
L 1024 2931 
z
" transform="scale(0.015625)"/>
       <path id="STIXGeneral-Regular-61" d="M 2829 422 
L 2829 243 
Q 2586 -64 2253 -64 
Q 1888 -64 1843 403 
L 1837 403 
Q 1427 -64 909 -64 
Q 608 -64 422 112 
Q 237 288 237 602 
Q 237 1050 685 1350 
Q 992 1555 1837 1869 
L 1837 2214 
Q 1837 2502 1699 2646 
Q 1562 2790 1338 2790 
Q 1146 2790 1018 2697 
Q 890 2605 890 2477 
Q 890 2419 909 2348 
Q 928 2278 928 2208 
Q 928 2112 841 2029 
Q 755 1946 634 1946 
Q 525 1946 441 2029 
Q 358 2112 358 2240 
Q 358 2547 685 2752 
Q 986 2944 1421 2944 
Q 1939 2944 2176 2656 
Q 2291 2522 2323 2384 
Q 2355 2246 2355 1946 
L 2355 723 
Q 2355 301 2554 301 
Q 2682 301 2829 422 
z
M 1837 813 
L 1837 1715 
Q 1248 1510 1018 1293 
Q 800 1094 800 800 
Q 800 557 921 432 
Q 1043 307 1242 307 
Q 1453 307 1613 410 
Q 1747 506 1792 589 
Q 1837 672 1837 813 
z
" transform="scale(0.015625)"/>
       <path id="STIXGeneral-Regular-63" d="M 2547 998 
L 2637 941 
Q 2362 403 2112 205 
Q 1786 -64 1376 -64 
Q 845 -64 502 336 
Q 160 736 160 1357 
Q 160 2170 698 2618 
Q 1094 2944 1562 2944 
Q 1965 2944 2256 2749 
Q 2547 2554 2547 2285 
Q 2547 2176 2457 2096 
Q 2368 2016 2246 2016 
Q 2022 2016 1939 2310 
L 1901 2451 
Q 1850 2630 1773 2694 
Q 1696 2758 1523 2758 
Q 1133 2758 893 2451 
Q 653 2144 653 1645 
Q 653 1094 928 745 
Q 1203 397 1645 397 
Q 1920 397 2118 528 
Q 2317 659 2547 998 
z
" transform="scale(0.015625)"/>
       <path id="STIXGeneral-Regular-69" d="M 1152 4045 
Q 1152 3904 1056 3811 
Q 960 3718 819 3718 
Q 685 3718 592 3811 
Q 499 3904 499 4045 
Q 499 4179 595 4275 
Q 691 4371 826 4371 
Q 966 4371 1059 4275 
Q 1152 4179 1152 4045 
z
M 1619 0 
L 102 0 
L 102 96 
Q 435 115 521 211 
Q 608 307 608 666 
L 608 2118 
Q 608 2342 563 2432 
Q 518 2522 397 2522 
Q 243 2522 128 2490 
L 128 2592 
L 1120 2944 
L 1146 2918 
L 1146 672 
Q 1146 314 1226 218 
Q 1306 122 1619 96 
L 1619 0 
z
" transform="scale(0.015625)"/>
       <path id="STIXGeneral-Regular-6f" d="M 3008 1478 
Q 3008 806 2608 371 
Q 2208 -64 1568 -64 
Q 979 -64 582 368 
Q 186 800 186 1459 
Q 186 2125 582 2534 
Q 979 2944 1626 2944 
Q 2221 2944 2614 2537 
Q 3008 2131 3008 1478 
z
M 2432 1306 
Q 2432 2035 2112 2445 
Q 1856 2765 1504 2765 
Q 1171 2765 966 2493 
Q 762 2221 762 1747 
Q 762 928 1101 435 
Q 1318 115 1677 115 
Q 2029 115 2230 432 
Q 2432 749 2432 1306 
z
" transform="scale(0.015625)"/>
       <path id="STIXGeneral-Regular-6e" d="M 3104 0 
L 1773 0 
L 1779 96 
Q 2016 115 2096 233 
Q 2176 352 2176 672 
L 2176 1946 
Q 2176 2592 1709 2592 
Q 1549 2592 1408 2515 
Q 1267 2438 1050 2227 
L 1050 461 
Q 1050 269 1136 192 
Q 1222 115 1466 96 
L 1466 0 
L 115 0 
L 115 96 
Q 358 115 435 214 
Q 512 314 512 602 
L 512 2157 
Q 512 2394 467 2483 
Q 422 2573 288 2573 
Q 160 2573 102 2547 
L 102 2656 
Q 550 2784 979 2944 
L 1030 2925 
L 1030 2426 
L 1037 2426 
Q 1491 2944 1958 2944 
Q 2323 2944 2518 2688 
Q 2714 2432 2714 1958 
L 2714 544 
Q 2714 288 2790 205 
Q 2867 122 3104 96 
L 3104 0 
z
" transform="scale(0.015625)"/>
       <path id="STIXGeneral-Regular-20" transform="scale(0.015625)"/>
       <path id="Cmmi10-71" d="M 941 -1159 
Q 963 -1019 1025 -1019 
Q 1256 -1019 1389 -981 
Q 1522 -944 1563 -800 
L 1838 288 
Q 1472 -72 1106 -72 
Q 703 -72 473 233 
Q 244 538 244 953 
Q 244 1363 455 1803 
Q 666 2244 1027 2536 
Q 1388 2828 1806 2828 
Q 2000 2828 2156 2712 
Q 2313 2597 2394 2406 
Q 2431 2481 2601 2654 
Q 2772 2828 2841 2828 
Q 2913 2828 2913 2747 
L 2016 -825 
Q 2000 -919 1997 -934 
Q 1997 -1019 2419 -1019 
Q 2450 -1019 2467 -1044 
Q 2484 -1069 2484 -1100 
Q 2463 -1184 2448 -1212 
Q 2434 -1241 2375 -1241 
L 1006 -1241 
Q 941 -1241 941 -1159 
z
M 1119 97 
Q 1344 97 1558 267 
Q 1772 438 1931 672 
L 2291 2113 
Q 2253 2338 2126 2500 
Q 2000 2663 1791 2663 
Q 1575 2663 1389 2486 
Q 1203 2309 1075 2069 
Q 950 1813 836 1366 
Q 722 919 722 672 
Q 722 450 817 273 
Q 913 97 1119 97 
z
" transform="scale(0.015625)"/>
       <path id="Cmr10-28" d="M 1984 -1588 
Q 1628 -1306 1370 -942 
Q 1113 -578 948 -165 
Q 784 247 703 697 
Q 622 1147 622 1600 
Q 622 2059 703 2509 
Q 784 2959 951 3375 
Q 1119 3791 1378 4153 
Q 1638 4516 1984 4788 
Q 1984 4800 2016 4800 
L 2075 4800 
Q 2094 4800 2109 4783 
Q 2125 4766 2125 4744 
Q 2125 4716 2113 4703 
Q 1800 4397 1592 4047 
Q 1384 3697 1257 3301 
Q 1131 2906 1075 2482 
Q 1019 2059 1019 1600 
Q 1019 -434 2106 -1491 
Q 2125 -1509 2125 -1544 
Q 2125 -1559 2108 -1579 
Q 2091 -1600 2075 -1600 
L 2016 -1600 
Q 1984 -1600 1984 -1588 
z
" transform="scale(0.015625)"/>
       <path id="Cmr10-29" d="M 416 -1600 
Q 359 -1600 359 -1544 
Q 359 -1516 372 -1503 
Q 1466 -434 1466 1600 
Q 1466 3634 384 4691 
Q 359 4706 359 4744 
Q 359 4766 376 4783 
Q 394 4800 416 4800 
L 475 4800 
Q 494 4800 506 4788 
Q 966 4425 1272 3906 
Q 1578 3388 1720 2800 
Q 1863 2213 1863 1600 
Q 1863 1147 1786 708 
Q 1709 269 1542 -157 
Q 1375 -584 1119 -945 
Q 863 -1306 506 -1588 
Q 494 -1600 475 -1600 
L 416 -1600 
z
" transform="scale(0.015625)"/>
      </defs>
      <use xlink:href="#STIXGeneral-Regular-65"/>
      <use xlink:href="#STIXGeneral-Regular-78" transform="translate(44.399994 0)"/>
      <use xlink:href="#STIXGeneral-Regular-74" transform="translate(94.399979 0)"/>
      <use xlink:href="#STIXGeneral-Regular-72" transform="translate(122.199966 0)"/>
      <use xlink:href="#STIXGeneral-Regular-61" transform="translate(155.499954 0)"/>
      <use xlink:href="#STIXGeneral-Regular-63" transform="translate(199.899948 0)"/>
      <use xlink:href="#STIXGeneral-Regular-74" transform="translate(244.299942 0)"/>
      <use xlink:href="#STIXGeneral-Regular-69" transform="translate(272.09993 0)"/>
      <use xlink:href="#STIXGeneral-Regular-6f" transform="translate(299.899918 0)"/>
      <use xlink:href="#STIXGeneral-Regular-6e" transform="translate(349.899902 0)"/>
      <use xlink:href="#STIXGeneral-Regular-20" transform="translate(399.899887 0)"/>
      <use xlink:href="#STIXGeneral-Regular-72" transform="translate(424.899872 0)"/>
      <use xlink:href="#STIXGeneral-Regular-61" transform="translate(458.19986 0)"/>
      <use xlink:href="#STIXGeneral-Regular-74" transform="translate(502.599854 0)"/>
      <use xlink:href="#STIXGeneral-Regular-65" transform="translate(530.399841 0)"/>
      <use xlink:href="#STIXGeneral-Regular-20" transform="translate(574.799835 0)"/>
      <use xlink:href="#Cmmi10-71" transform="translate(599.79982 0)"/>
      <use xlink:href="#Cmr10-28" transform="translate(644.379898 0)"/>
      <use xlink:href="#Cmmi10-74" transform="translate(683.198257 0)"/>
      <use xlink:href="#Cmr10-29" transform="translate(719.282242 0)"/>
     </g>
    </g>
   </g>
   <g id="line2d_13">
    <path d="M 39.95 55.516966 
L 408.23 55.516966 
" clip-path="url(#pa3426b481e)" style="fill: none; stroke-dasharray: 4.07,1.76; stroke-dashoffset: 0; stroke: #9aa3ad; stroke-width: 1.1"/>
   </g>
   <g id="line2d_14">
    <path d="M 39.95 87.351771 
L 51.631669 90.079089 
L 63.313339 93.040059 
L 74.380184 96.078838 
L 84.832204 99.174429 
L 95.284224 102.506269 
L 105.121419 105.87406 
L 114.958614 109.483225 
L 124.180985 113.101402 
L 133.403356 116.96216 
L 142.010902 120.798728 
L 150.618447 124.874846 
L 159.225993 129.205473 
L 167.218715 133.468534 
L 175.211436 137.978222 
L 183.204157 142.748808 
L 191.196878 147.795383 
L 198.574775 152.712515 
L 205.952671 157.89166 
L 213.330568 163.346781 
L 220.708464 169.092582 
L 227.471536 174.628135 
L 234.234608 180.433485 
L 240.997679 186.521782 
L 247.760751 192.906816 
L 254.523823 199.603049 
L 261.286895 206.62565 
L 268.049967 213.990525 
L 274.813038 221.714356 
L 280.961285 229.062216 
L 287.109533 236.734938 
L 293.25778 244.746883 
L 299.406027 253.11305 
L 301.250501 255.694297 
L 301.865326 256.248 
L 408.23 256.248 
L 408.23 256.248 
" clip-path="url(#pa3426b481e)" style="fill: none; stroke: #d55e00; stroke-width: 2.8; stroke-linecap: square"/>
   </g>
   <g id="line2d_15">
    <path d="M 301.64306 256.248 
L 301.64306 23.4 
" clip-path="url(#pa3426b481e)" style="fill: none; stroke-dasharray: 0.7,1.155; stroke-dashoffset: 0; stroke: #1f2328; stroke-width: 0.7"/>
   </g>
   <g id="patch_3">
    <path d="M 39.95 256.248 
L 39.95 23.4 
" style="fill: none; stroke: #1f2328; stroke-width: 0.8; stroke-linejoin: miter; stroke-linecap: square"/>
   </g>
   <g id="patch_4">
    <path d="M 39.95 256.248 
L 408.23 256.248 
" style="fill: none; stroke: #1f2328; stroke-width: 0.8; stroke-linejoin: miter; stroke-linecap: square"/>
   </g>
   <g id="text_15">
    <!-- static-profit rate $q=\frac{1}{2}$ -->
    <g style="fill: #9aa3ad" transform="translate(125.219552 51.695034) scale(0.1 -0.1)">
     <defs>
      <path id="STIXGeneral-Regular-73" d="M 998 1926 
L 1664 1523 
Q 1984 1331 2105 1164 
Q 2227 998 2227 736 
Q 2227 416 1961 176 
Q 1696 -64 1331 -64 
Q 1030 -64 864 -6 
Q 691 51 570 51 
Q 461 51 416 -26 
L 333 -26 
L 333 979 
L 435 979 
Q 538 512 730 294 
Q 922 77 1248 77 
Q 1485 77 1632 211 
Q 1779 346 1779 550 
Q 1779 845 1440 1030 
L 1094 1222 
Q 326 1651 326 2150 
Q 326 2522 566 2730 
Q 806 2938 1210 2938 
Q 1491 2938 1638 2867 
Q 1754 2816 1818 2816 
Q 1862 2816 1920 2880 
L 1990 2880 
L 2022 2010 
L 1926 2010 
Q 1818 2445 1654 2621 
Q 1491 2797 1203 2797 
Q 986 2797 854 2688 
Q 723 2579 723 2362 
Q 723 2253 796 2128 
Q 870 2003 998 1926 
z
" transform="scale(0.015625)"/>
      <path id="STIXGeneral-Regular-2d" d="M 1824 1242 
L 250 1242 
L 250 1645 
L 1824 1645 
L 1824 1242 
z
" transform="scale(0.015625)"/>
      <path id="STIXGeneral-Regular-70" d="M 1018 2931 
L 1018 2438 
Q 1421 2944 1939 2944 
Q 2406 2944 2707 2560 
Q 3008 2176 3008 1581 
Q 3008 883 2621 409 
Q 2234 -64 1664 -64 
Q 1466 -64 1328 -6 
Q 1190 51 1018 211 
L 1018 -794 
Q 1018 -1094 1120 -1180 
Q 1222 -1267 1581 -1274 
L 1581 -1389 
L 32 -1389 
L 32 -1280 
Q 314 -1254 397 -1171 
Q 480 -1088 480 -838 
L 480 2157 
Q 480 2381 429 2451 
Q 378 2522 218 2522 
Q 115 2522 58 2515 
L 58 2618 
Q 506 2752 979 2944 
L 1018 2931 
z
M 1018 2138 
L 1018 563 
Q 1018 422 1238 281 
Q 1459 141 1683 141 
Q 2029 141 2243 467 
Q 2458 794 2458 1325 
Q 2458 1888 2243 2224 
Q 2029 2560 1670 2560 
Q 1446 2560 1232 2419 
Q 1018 2278 1018 2138 
z
" transform="scale(0.015625)"/>
      <path id="STIXGeneral-Regular-66" d="M 134 2880 
L 659 2880 
Q 666 3264 710 3478 
Q 755 3693 883 3910 
Q 1152 4371 1786 4371 
Q 2074 4371 2262 4259 
Q 2451 4147 2451 3974 
Q 2451 3866 2374 3789 
Q 2298 3712 2182 3712 
Q 2029 3712 1894 3942 
Q 1741 4192 1555 4192 
Q 1197 4192 1197 3622 
L 1197 2880 
L 1978 2880 
L 1978 2675 
L 1197 2675 
L 1197 666 
Q 1197 307 1299 208 
Q 1402 109 1792 96 
L 1792 0 
L 128 0 
L 128 96 
Q 474 115 566 214 
Q 659 314 659 666 
L 659 2675 
L 134 2675 
L 134 2880 
z
" transform="scale(0.015625)"/>
      <path id="Cmr10-3d" d="M 481 850 
Q 428 850 393 890 
Q 359 931 359 978 
Q 359 1031 393 1068 
Q 428 1106 481 1106 
L 4500 1106 
Q 4547 1106 4581 1068 
Q 4616 1031 4616 978 
Q 4616 931 4581 890 
Q 4547 850 4500 850 
L 481 850 
z
M 481 2094 
Q 428 2094 393 2131 
Q 359 2169 359 2222 
Q 359 2269 393 2309 
Q 428 2350 481 2350 
L 4500 2350 
Q 4547 2350 4581 2309 
Q 4616 2269 4616 2222 
Q 4616 2169 4581 2131 
Q 4547 2094 4500 2094 
L 481 2094 
z
" transform="scale(0.015625)"/>
      <path id="Cmr10-31" d="M 594 0 
L 594 225 
Q 1394 225 1394 428 
L 1394 3788 
Q 1063 3628 556 3628 
L 556 3853 
Q 1341 3853 1741 4263 
L 1831 4263 
Q 1853 4263 1873 4245 
Q 1894 4228 1894 4206 
L 1894 428 
Q 1894 225 2694 225 
L 2694 0 
L 594 0 
z
" transform="scale(0.015625)"/>
      <path id="Cmr10-32" d="M 319 0 
L 319 172 
Q 319 188 331 206 
L 1325 1306 
Q 1550 1550 1690 1715 
Q 1831 1881 1968 2097 
Q 2106 2313 2186 2536 
Q 2266 2759 2266 3009 
Q 2266 3272 2169 3511 
Q 2072 3750 1880 3894 
Q 1688 4038 1416 4038 
Q 1138 4038 916 3870 
Q 694 3703 603 3438 
Q 628 3444 672 3444 
Q 816 3444 917 3347 
Q 1019 3250 1019 3097 
Q 1019 2950 917 2848 
Q 816 2747 672 2747 
Q 522 2747 420 2851 
Q 319 2956 319 3097 
Q 319 3338 409 3548 
Q 500 3759 670 3923 
Q 841 4088 1055 4175 
Q 1269 4263 1509 4263 
Q 1875 4263 2190 4108 
Q 2506 3953 2690 3670 
Q 2875 3388 2875 3009 
Q 2875 2731 2753 2481 
Q 2631 2231 2440 2026 
Q 2250 1822 1953 1562 
Q 1656 1303 1563 1216 
L 838 519 
L 1453 519 
Q 1906 519 2211 526 
Q 2516 534 2534 550 
Q 2609 631 2688 1141 
L 2875 1141 
L 2694 0 
L 319 0 
z
" transform="scale(0.015625)"/>
     </defs>
     <use xlink:href="#STIXGeneral-Regular-73" transform="translate(0 0.873437)"/>
     <use xlink:href="#STIXGeneral-Regular-74" transform="translate(38.899994 0.873437)"/>
     <use xlink:href="#STIXGeneral-Regular-61" transform="translate(66.699982 0.873437)"/>
     <use xlink:href="#STIXGeneral-Regular-74" transform="translate(111.099976 0.873437)"/>
     <use xlink:href="#STIXGeneral-Regular-69" transform="translate(138.899963 0.873437)"/>
     <use xlink:href="#STIXGeneral-Regular-63" transform="translate(166.699951 0.873437)"/>
     <use xlink:href="#STIXGeneral-Regular-2d" transform="translate(211.099945 0.873437)"/>
     <use xlink:href="#STIXGeneral-Regular-70" transform="translate(244.399933 0.873437)"/>
     <use xlink:href="#STIXGeneral-Regular-72" transform="translate(294.399918 0.873437)"/>
     <use xlink:href="#STIXGeneral-Regular-6f" transform="translate(327.699905 0.873437)"/>
     <use xlink:href="#STIXGeneral-Regular-66" transform="translate(377.69989 0.873437)"/>
     <use xlink:href="#STIXGeneral-Regular-69" transform="translate(410.999878 0.873437)"/>
     <use xlink:href="#STIXGeneral-Regular-74" transform="translate(438.799866 0.873437)"/>
     <use xlink:href="#STIXGeneral-Regular-20" transform="translate(466.599854 0.873437)"/>
     <use xlink:href="#STIXGeneral-Regular-72" transform="translate(491.599838 0.873437)"/>
     <use xlink:href="#STIXGeneral-Regular-61" transform="translate(524.899826 0.873437)"/>
     <use xlink:href="#STIXGeneral-Regular-74" transform="translate(569.29982 0.873437)"/>
     <use xlink:href="#STIXGeneral-Regular-65" transform="translate(597.099808 0.873437)"/>
     <use xlink:href="#STIXGeneral-Regular-20" transform="translate(641.499802 0.873437)"/>
     <use xlink:href="#Cmmi10-71" transform="translate(666.499786 0.873437)"/>
     <use xlink:href="#Cmr10-3d" transform="translate(728.638458 0.873437)"/>
     <use xlink:href="#Cmr10-31" transform="translate(823.882599 38.373438) scale(0.7)"/>
     <use xlink:href="#Cmr10-32" transform="translate(823.882599 -39.503125) scale(0.7)"/>
     <path d="M 823.882599 13.373437 
L 823.882599 19.623437 
L 858.882599 19.623437 
L 858.882599 13.373437 
L 823.882599 13.373437 
z
"/>
    </g>
   </g>
   <g id="text_16">
    <!-- extraction $q(t)$ -->
    <g style="fill: #d55e00" transform="translate(158.648393 139.232688) rotate(-338) scale(0.1 -0.1)">
     <use xlink:href="#STIXGeneral-Regular-65"/>
     <use xlink:href="#STIXGeneral-Regular-78" transform="translate(44.399994 0)"/>
     <use xlink:href="#STIXGeneral-Regular-74" transform="translate(94.399979 0)"/>
     <use xlink:href="#STIXGeneral-Regular-72" transform="translate(122.199966 0)"/>
     <use xlink:href="#STIXGeneral-Regular-61" transform="translate(155.499954 0)"/>
     <use xlink:href="#STIXGeneral-Regular-63" transform="translate(199.899948 0)"/>
     <use xlink:href="#STIXGeneral-Regular-74" transform="translate(244.299942 0)"/>
     <use xlink:href="#STIXGeneral-Regular-69" transform="translate(272.09993 0)"/>
     <use xlink:href="#STIXGeneral-Regular-6f" transform="translate(299.899918 0)"/>
     <use xlink:href="#STIXGeneral-Regular-6e" transform="translate(349.899902 0)"/>
     <use xlink:href="#STIXGeneral-Regular-20" transform="translate(399.899887 0)"/>
     <use xlink:href="#Cmmi10-71" transform="translate(424.899872 0)"/>
     <use xlink:href="#Cmr10-28" transform="translate(469.47995 0)"/>
     <use xlink:href="#Cmmi10-74" transform="translate(508.298309 0)"/>
     <use xlink:href="#Cmr10-29" transform="translate(544.382294 0)"/>
    </g>
   </g>
   <g id="text_17">
    <!-- $T^\ast$ (exhaustion) -->
    <g style="fill: #1f2328" transform="translate(305.195958 238.504584) scale(0.1 -0.1)">
     <defs>
      <path id="Cmmi10-54" d="M 294 84 
Q 297 100 308 140 
Q 319 181 336 203 
Q 353 225 384 225 
Q 934 225 1113 256 
Q 1284 300 1319 441 
L 2194 3956 
Q 2222 4034 2222 4097 
Q 2222 4147 1997 4147 
L 1625 4147 
Q 1197 4147 964 4015 
Q 731 3884 622 3668 
Q 513 3453 341 2963 
Q 319 2906 275 2906 
L 219 2906 
Q 153 2906 153 2988 
L 609 4313 
Q 622 4372 672 4372 
L 4453 4372 
Q 4519 4372 4519 4288 
L 4306 2963 
Q 4306 2944 4284 2925 
Q 4263 2906 4244 2906 
L 4184 2906 
Q 4122 2906 4122 2988 
Q 4191 3441 4191 3628 
Q 4191 3853 4097 3968 
Q 4003 4084 3853 4115 
Q 3703 4147 3463 4147 
L 3084 4147 
Q 2913 4147 2853 4115 
Q 2794 4084 2753 3928 
L 1875 416 
Q 1872 403 1870 390 
Q 1869 378 1863 359 
Q 1863 278 1959 256 
Q 2125 225 2669 225 
Q 2731 225 2731 141 
Q 2709 50 2696 25 
Q 2684 0 2625 0 
L 359 0 
Q 294 0 294 84 
z
" transform="scale(0.015625)"/>
      <path id="Cmsy10-a4" d="M 603 813 
Q 531 813 473 873 
Q 416 934 416 1006 
Q 416 1116 506 1159 
L 1428 1600 
L 506 2034 
Q 416 2072 416 2188 
Q 416 2259 473 2320 
Q 531 2381 603 2381 
Q 650 2381 691 2350 
L 1509 1753 
L 1416 2797 
Q 1416 2875 1469 2925 
Q 1522 2975 1600 2975 
Q 1675 2975 1726 2928 
Q 1778 2881 1778 2809 
L 1778 2797 
L 1684 1753 
L 2503 2350 
Q 2544 2381 2591 2381 
Q 2669 2381 2723 2320 
Q 2778 2259 2778 2188 
Q 2778 2072 2688 2034 
L 1766 1600 
L 2688 1159 
Q 2778 1116 2778 1006 
Q 2778 934 2723 873 
Q 2669 813 2591 813 
Q 2544 813 2503 844 
L 1684 1441 
L 1778 403 
L 1778 384 
Q 1778 313 1723 266 
Q 1669 219 1600 219 
Q 1525 219 1470 270 
Q 1416 322 1416 397 
L 1509 1441 
L 691 844 
Q 650 813 603 813 
z
" transform="scale(0.015625)"/>
      <path id="STIXGeneral-Regular-28" d="M 1946 -1030 
L 1869 -1133 
Q 1126 -710 716 32 
Q 307 774 307 1613 
Q 307 3386 1888 4326 
L 1946 4224 
Q 1293 3667 1075 3126 
Q 858 2586 858 1632 
Q 858 685 1082 96 
Q 1306 -493 1946 -1030 
z
" transform="scale(0.015625)"/>
      <path id="STIXGeneral-Regular-68" d="M 3117 0 
L 1760 0 
L 1760 96 
Q 2042 128 2118 224 
Q 2195 320 2195 653 
L 2195 1920 
Q 2195 2598 1722 2598 
Q 1530 2598 1370 2508 
Q 1210 2419 1005 2195 
L 1005 653 
Q 1005 320 1081 224 
Q 1158 128 1440 96 
L 1440 0 
L 58 0 
L 58 96 
Q 333 134 400 224 
Q 467 314 467 653 
L 467 3667 
Q 467 3872 406 3933 
Q 346 3994 141 3994 
Q 83 3994 64 3987 
L 64 4090 
L 237 4141 
Q 730 4288 973 4371 
L 1005 4352 
L 1005 2406 
Q 1229 2694 1446 2819 
Q 1664 2944 1946 2944 
Q 2733 2944 2733 1926 
L 2733 653 
Q 2733 320 2793 233 
Q 2854 147 3117 96 
L 3117 0 
z
" transform="scale(0.015625)"/>
      <path id="STIXGeneral-Regular-75" d="M 3072 320 
L 3072 230 
Q 2573 96 2195 -58 
L 2163 -38 
L 2163 486 
L 2150 486 
Q 1747 -64 1235 -64 
Q 870 -64 662 160 
Q 454 384 454 755 
L 454 2362 
Q 454 2598 371 2688 
Q 288 2778 58 2790 
L 58 2880 
L 992 2880 
L 992 813 
Q 992 595 1123 451 
Q 1254 307 1446 307 
Q 1760 307 1984 506 
Q 2067 582 2099 649 
Q 2131 717 2131 877 
L 2131 2355 
Q 2131 2605 2041 2678 
Q 1952 2752 1658 2771 
L 1658 2880 
L 2669 2880 
L 2669 685 
Q 2669 461 2742 390 
Q 2816 320 3034 320 
L 3072 320 
z
" transform="scale(0.015625)"/>
      <path id="STIXGeneral-Regular-29" d="M 186 4224 
L 262 4326 
Q 992 3891 1408 3148 
Q 1824 2406 1824 1581 
Q 1824 -166 243 -1133 
L 186 -1030 
Q 845 -486 1059 54 
Q 1274 595 1274 1562 
Q 1274 2534 1059 3120 
Q 845 3706 186 4224 
z
" transform="scale(0.015625)"/>
     </defs>
     <use xlink:href="#Cmmi10-54" transform="translate(0 0.196875)"/>
     <use xlink:href="#Cmsy10-a4" transform="translate(82.058984 38.460938) scale(0.7)"/>
     <use xlink:href="#STIXGeneral-Regular-20" transform="translate(135.727344 0.196875)"/>
     <use xlink:href="#STIXGeneral-Regular-28" transform="translate(160.727328 0.196875)"/>
     <use xlink:href="#STIXGeneral-Regular-65" transform="translate(194.027316 0.196875)"/>
     <use xlink:href="#STIXGeneral-Regular-78" transform="translate(238.42731 0.196875)"/>
     <use xlink:href="#STIXGeneral-Regular-68" transform="translate(288.427295 0.196875)"/>
     <use xlink:href="#STIXGeneral-Regular-61" transform="translate(338.42728 0.196875)"/>
     <use xlink:href="#STIXGeneral-Regular-75" transform="translate(382.827274 0.196875)"/>
     <use xlink:href="#STIXGeneral-Regular-73" transform="translate(432.827258 0.196875)"/>
     <use xlink:href="#STIXGeneral-Regular-74" transform="translate(471.727252 0.196875)"/>
     <use xlink:href="#STIXGeneral-Regular-69" transform="translate(499.52724 0.196875)"/>
     <use xlink:href="#STIXGeneral-Regular-6f" transform="translate(527.327228 0.196875)"/>
     <use xlink:href="#STIXGeneral-Regular-6e" transform="translate(577.327213 0.196875)"/>
     <use xlink:href="#STIXGeneral-Regular-29" transform="translate(627.327197 0.196875)"/>
    </g>
   </g>
   <g id="text_18">
    <!-- Optimal extraction starts below $\frac{1}{2}$ and declines to zero at exhaustion -->
    <g transform="translate(61.55 17.4) scale(0.12 -0.12)">
     <defs>
      <path id="STIXGeneral-Regular-4f" d="M 4403 2118 
Q 4403 1133 3820 521 
Q 3238 -90 2310 -90 
Q 1376 -90 797 524 
Q 218 1139 218 2138 
Q 218 3110 797 3718 
Q 1376 4326 2310 4326 
Q 3245 4326 3824 3702 
Q 4403 3078 4403 2118 
z
M 3674 2157 
Q 3674 2701 3520 3133 
Q 3366 3565 3091 3795 
Q 2733 4096 2304 4096 
Q 1760 4096 1389 3667 
Q 1184 3437 1065 3011 
Q 947 2586 947 2125 
Q 947 960 1523 429 
Q 1837 141 2317 141 
Q 2816 141 3142 448 
Q 3674 960 3674 2157 
z
" transform="scale(0.015625)"/>
      <path id="STIXGeneral-Regular-6d" d="M 4960 0 
L 3565 0 
L 3565 96 
Q 3834 122 3907 208 
Q 3981 294 3981 576 
L 3981 1894 
Q 3981 2278 3869 2444 
Q 3757 2611 3488 2611 
Q 3264 2611 3107 2521 
Q 2950 2432 2803 2221 
L 2803 608 
Q 2803 301 2896 201 
Q 2989 102 3264 96 
L 3264 0 
L 1830 0 
L 1830 96 
Q 2112 115 2189 188 
Q 2266 262 2266 550 
L 2266 1901 
Q 2266 2611 1850 2611 
Q 1670 2611 1468 2531 
Q 1267 2451 1171 2336 
Q 1088 2240 1088 2227 
L 1088 448 
Q 1088 243 1177 176 
Q 1267 109 1523 96 
L 1523 0 
L 102 0 
L 102 96 
Q 371 102 460 195 
Q 550 288 550 563 
L 550 2150 
Q 550 2387 499 2480 
Q 448 2573 326 2573 
Q 230 2573 122 2547 
L 122 2656 
Q 557 2778 1011 2944 
L 1062 2925 
L 1062 2451 
L 1075 2451 
Q 1363 2752 1584 2848 
Q 1805 2944 2054 2944 
Q 2560 2944 2733 2406 
Q 3232 2944 3776 2944 
Q 4518 2944 4518 1792 
L 4518 493 
Q 4518 282 4582 202 
Q 4646 122 4794 109 
L 4960 96 
L 4960 0 
z
" transform="scale(0.015625)"/>
      <path id="STIXGeneral-Regular-6c" d="M 1645 0 
L 134 0 
L 134 96 
Q 435 122 531 221 
Q 627 320 627 589 
L 627 3590 
Q 627 3821 569 3910 
Q 512 4000 358 4000 
Q 224 4000 122 3987 
L 122 4090 
Q 730 4237 1133 4371 
L 1165 4346 
L 1165 557 
Q 1165 288 1254 201 
Q 1344 115 1645 96 
L 1645 0 
z
" transform="scale(0.015625)"/>
      <path id="STIXGeneral-Regular-62" d="M 979 4358 
L 979 2406 
Q 1082 2650 1315 2797 
Q 1549 2944 1843 2944 
Q 2349 2944 2672 2541 
Q 2995 2138 2995 1536 
Q 2995 832 2566 384 
Q 2138 -64 1498 -64 
Q 1107 -64 774 67 
Q 442 198 442 358 
L 442 3622 
Q 442 3859 384 3926 
Q 326 3994 128 3994 
Q 83 3994 19 3981 
L 19 4090 
L 211 4147 
Q 864 4346 947 4371 
L 979 4358 
z
M 979 2035 
L 979 474 
Q 979 326 1161 233 
Q 1344 141 1600 141 
Q 1978 141 2195 416 
Q 2432 710 2432 1261 
Q 2432 1888 2182 2240 
Q 1971 2541 1613 2541 
Q 1357 2541 1168 2390 
Q 979 2240 979 2035 
z
" transform="scale(0.015625)"/>
      <path id="STIXGeneral-Regular-77" d="M 4442 2880 
L 4442 2784 
Q 4346 2752 4301 2691 
Q 4256 2630 4179 2438 
L 3296 224 
Q 3168 -90 3117 -90 
Q 3085 -90 3062 -48 
Q 3040 -6 2963 186 
L 2381 1696 
L 1664 160 
Q 1549 -90 1504 -90 
Q 1446 -90 1338 192 
L 474 2381 
Q 378 2630 314 2700 
Q 250 2771 134 2784 
L 134 2880 
L 1286 2880 
L 1286 2784 
Q 1120 2765 1056 2720 
Q 992 2675 992 2573 
Q 992 2477 1030 2381 
L 1664 710 
L 2246 1984 
L 2118 2342 
Q 2029 2598 1942 2681 
Q 1856 2765 1677 2784 
L 1677 2880 
L 2976 2880 
L 2976 2784 
Q 2752 2752 2678 2707 
Q 2605 2662 2605 2560 
Q 2605 2458 2714 2176 
L 3251 742 
L 3827 2163 
Q 3936 2432 3936 2592 
Q 3936 2669 3875 2710 
Q 3814 2752 3654 2784 
L 3654 2880 
L 4442 2880 
z
" transform="scale(0.015625)"/>
      <path id="STIXGeneral-Regular-64" d="M 3142 269 
L 2202 -64 
L 2176 -45 
L 2176 365 
Q 1869 -64 1357 -64 
Q 826 -64 499 317 
Q 173 698 173 1312 
Q 173 1990 563 2467 
Q 954 2944 1504 2944 
Q 1850 2944 2176 2669 
L 2176 3667 
Q 2176 3866 2118 3930 
Q 2061 3994 1882 3994 
Q 1792 3994 1741 3987 
L 1741 4090 
Q 2323 4243 2682 4371 
L 2714 4358 
L 2714 730 
Q 2714 506 2768 435 
Q 2822 365 2995 365 
Q 3034 365 3142 371 
L 3142 269 
z
M 2176 653 
L 2176 2125 
Q 2176 2381 1981 2573 
Q 1786 2765 1523 2765 
Q 1158 2765 940 2438 
Q 723 2112 723 1568 
Q 723 979 963 624 
Q 1203 269 1606 269 
Q 1907 269 2080 474 
Q 2176 582 2176 653 
z
" transform="scale(0.015625)"/>
      <path id="STIXGeneral-Regular-7a" d="M 2675 870 
L 2579 0 
L 173 0 
L 173 96 
L 1875 2688 
L 1011 2688 
Q 710 2688 604 2582 
Q 499 2477 454 2125 
L 339 2125 
L 365 2880 
L 2579 2880 
L 2579 2784 
L 858 192 
L 1709 192 
Q 2246 192 2387 365 
Q 2477 474 2560 896 
L 2675 870 
z
" transform="scale(0.015625)"/>
     </defs>
     <use xlink:href="#STIXGeneral-Regular-4f" transform="translate(0 0.873437)"/>
     <use xlink:href="#STIXGeneral-Regular-70" transform="translate(72.199982 0.873437)"/>
     <use xlink:href="#STIXGeneral-Regular-74" transform="translate(122.199966 0.873437)"/>
     <use xlink:href="#STIXGeneral-Regular-69" transform="translate(149.999954 0.873437)"/>
     <use xlink:href="#STIXGeneral-Regular-6d" transform="translate(177.799942 0.873437)"/>
     <use xlink:href="#STIXGeneral-Regular-61" transform="translate(255.59993 0.873437)"/>
     <use xlink:href="#STIXGeneral-Regular-6c" transform="translate(299.999924 0.873437)"/>
     <use xlink:href="#STIXGeneral-Regular-20" transform="translate(327.799911 0.873437)"/>
     <use xlink:href="#STIXGeneral-Regular-65" transform="translate(352.799896 0.873437)"/>
     <use xlink:href="#STIXGeneral-Regular-78" transform="translate(397.19989 0.873437)"/>
     <use xlink:href="#STIXGeneral-Regular-74" transform="translate(447.199875 0.873437)"/>
     <use xlink:href="#STIXGeneral-Regular-72" transform="translate(474.999863 0.873437)"/>
     <use xlink:href="#STIXGeneral-Regular-61" transform="translate(508.29985 0.873437)"/>
     <use xlink:href="#STIXGeneral-Regular-63" transform="translate(552.699844 0.873437)"/>
     <use xlink:href="#STIXGeneral-Regular-74" transform="translate(597.099838 0.873437)"/>
     <use xlink:href="#STIXGeneral-Regular-69" transform="translate(624.899826 0.873437)"/>
     <use xlink:href="#STIXGeneral-Regular-6f" transform="translate(652.699814 0.873437)"/>
     <use xlink:href="#STIXGeneral-Regular-6e" transform="translate(702.699799 0.873437)"/>
     <use xlink:href="#STIXGeneral-Regular-20" transform="translate(752.699783 0.873437)"/>
     <use xlink:href="#STIXGeneral-Regular-73" transform="translate(777.699768 0.873437)"/>
     <use xlink:href="#STIXGeneral-Regular-74" transform="translate(816.599762 0.873437)"/>
     <use xlink:href="#STIXGeneral-Regular-61" transform="translate(844.39975 0.873437)"/>
     <use xlink:href="#STIXGeneral-Regular-72" transform="translate(888.799744 0.873437)"/>
     <use xlink:href="#STIXGeneral-Regular-74" transform="translate(922.099731 0.873437)"/>
     <use xlink:href="#STIXGeneral-Regular-73" transform="translate(949.899719 0.873437)"/>
     <use xlink:href="#STIXGeneral-Regular-20" transform="translate(988.799713 0.873437)"/>
     <use xlink:href="#STIXGeneral-Regular-62" transform="translate(1013.799698 0.873437)"/>
     <use xlink:href="#STIXGeneral-Regular-65" transform="translate(1063.799683 0.873437)"/>
     <use xlink:href="#STIXGeneral-Regular-6c" transform="translate(1108.199677 0.873437)"/>
     <use xlink:href="#STIXGeneral-Regular-6f" transform="translate(1135.999664 0.873437)"/>
     <use xlink:href="#STIXGeneral-Regular-77" transform="translate(1185.999649 0.873437)"/>
     <use xlink:href="#STIXGeneral-Regular-20" transform="translate(1258.199631 0.873437)"/>
     <use xlink:href="#Cmr10-31" transform="translate(1283.199615 38.373438) scale(0.7)"/>
     <use xlink:href="#Cmr10-32" transform="translate(1283.199615 -39.503125) scale(0.7)"/>
     <use xlink:href="#STIXGeneral-Regular-20" transform="translate(1330.699615 0.873437)"/>
     <use xlink:href="#STIXGeneral-Regular-61" transform="translate(1355.6996 0.873437)"/>
     <use xlink:href="#STIXGeneral-Regular-6e" transform="translate(1400.099594 0.873437)"/>
     <use xlink:href="#STIXGeneral-Regular-64" transform="translate(1450.099579 0.873437)"/>
     <use xlink:href="#STIXGeneral-Regular-20" transform="translate(1500.099564 0.873437)"/>
     <use xlink:href="#STIXGeneral-Regular-64" transform="translate(1525.099548 0.873437)"/>
     <use xlink:href="#STIXGeneral-Regular-65" transform="translate(1575.099533 0.873437)"/>
     <use xlink:href="#STIXGeneral-Regular-63" transform="translate(1619.499527 0.873437)"/>
     <use xlink:href="#STIXGeneral-Regular-6c" transform="translate(1663.899521 0.873437)"/>
     <use xlink:href="#STIXGeneral-Regular-69" transform="translate(1691.699509 0.873437)"/>
     <use xlink:href="#STIXGeneral-Regular-6e" transform="translate(1719.499496 0.873437)"/>
     <use xlink:href="#STIXGeneral-Regular-65" transform="translate(1769.499481 0.873437)"/>
     <use xlink:href="#STIXGeneral-Regular-73" transform="translate(1813.899475 0.873437)"/>
     <use xlink:href="#STIXGeneral-Regular-20" transform="translate(1852.799469 0.873437)"/>
     <use xlink:href="#STIXGeneral-Regular-74" transform="translate(1877.799454 0.873437)"/>
     <use xlink:href="#STIXGeneral-Regular-6f" transform="translate(1905.599442 0.873437)"/>
     <use xlink:href="#STIXGeneral-Regular-20" transform="translate(1955.599426 0.873437)"/>
     <use xlink:href="#STIXGeneral-Regular-7a" transform="translate(1980.599411 0.873437)"/>
     <use xlink:href="#STIXGeneral-Regular-65" transform="translate(2024.999405 0.873437)"/>
     <use xlink:href="#STIXGeneral-Regular-72" transform="translate(2069.399399 0.873437)"/>
     <use xlink:href="#STIXGeneral-Regular-6f" transform="translate(2102.699387 0.873437)"/>
     <use xlink:href="#STIXGeneral-Regular-20" transform="translate(2152.699371 0.873437)"/>
     <use xlink:href="#STIXGeneral-Regular-61" transform="translate(2177.699356 0.873437)"/>
     <use xlink:href="#STIXGeneral-Regular-74" transform="translate(2222.09935 0.873437)"/>
     <use xlink:href="#STIXGeneral-Regular-20" transform="translate(2249.899338 0.873437)"/>
     <use xlink:href="#STIXGeneral-Regular-65" transform="translate(2274.899323 0.873437)"/>
     <use xlink:href="#STIXGeneral-Regular-78" transform="translate(2319.299316 0.873437)"/>
     <use xlink:href="#STIXGeneral-Regular-68" transform="translate(2369.299301 0.873437)"/>
     <use xlink:href="#STIXGeneral-Regular-61" transform="translate(2419.299286 0.873437)"/>
     <use xlink:href="#STIXGeneral-Regular-75" transform="translate(2463.69928 0.873437)"/>
     <use xlink:href="#STIXGeneral-Regular-73" transform="translate(2513.699265 0.873437)"/>
     <use xlink:href="#STIXGeneral-Regular-74" transform="translate(2552.599258 0.873437)"/>
     <use xlink:href="#STIXGeneral-Regular-69" transform="translate(2580.399246 0.873437)"/>
     <use xlink:href="#STIXGeneral-Regular-6f" transform="translate(2608.199234 0.873437)"/>
     <use xlink:href="#STIXGeneral-Regular-6e" transform="translate(2658.199219 0.873437)"/>
     <path d="M 1283.199615 13.373437 
L 1283.199615 19.623437 
L 1318.199615 19.623437 
L 1318.199615 13.373437 
L 1283.199615 13.373437 
z
"/>
    </g>
   </g>
   <g id="line2d_16">
    <defs>
     <path id="m0ec8bb24ae" d="M 0 2.5 
C 0.663008 2.5 1.29895 2.236584 1.767767 1.767767 
C 2.236584 1.29895 2.5 0.663008 2.5 0 
C 2.5 -0.663008 2.236584 -1.29895 1.767767 -1.767767 
C 1.29895 -2.236584 0.663008 -2.5 0 -2.5 
C -0.663008 -2.5 -1.29895 -2.236584 -1.767767 -1.767767 
C -2.236584 -1.29895 -2.5 -0.663008 -2.5 0 
C -2.5 0.663008 -2.236584 1.29895 -1.767767 1.767767 
C -1.29895 2.236584 -0.663008 2.5 0 2.5 
z
" style="stroke: #1f2328"/>
    </defs>
    <g clip-path="url(#pa3426b481e)">
     <use xlink:href="#m0ec8bb24ae" x="301.64306" y="256.248" style="fill: #1f2328; stroke: #1f2328"/>
    </g>
   </g>
  </g>
 </g>
 <defs>
  <clipPath id="pa3426b481e">
   <rect x="39.95" y="23.4" width="368.28" height="232.848"/>
  </clipPath>
 </defs>
</svg>
