<?xml version="1.0" encoding="utf-8" standalone="no"?>
<!DOCTYPE svg PUBLIC "-//W3C//DTD SVG 1.1//EN"
  "http://www.w3.org/Graphics/SVG/1.1/DTD/svg11.dtd">
<svg xmlns:xlink="http://www.w3.org/1999/xlink" width="440.246pt" height="301.031625pt" viewBox="0 0 440.246 301.031625" xmlns="http://www.w3.org/2000/svg" version="1.1">
 <metadata>
  <rdf:RDF xmlns:dc="http://purl.org/dc/elements/1.1/" xmlns:cc="http://creativecommons.org/ns#" xmlns:rdf="http://www.w3.org/1999/02/22-rdf-syntax-ns#">
   <cc:Work>
    <dc:type rdf:resource="http://purl.org/dc/dcmitype/StillImage"/>
    <dc:date>2026-06-23T16:02:25.470586</dc:date>
    <dc:format>image/svg+xml</dc:format>
    <dc:creator>
     <cc:Agent>
      <dc:title>Matplotlib v3.9.4, https://matplotlib.org/</dc:title>
     </cc:Agent>
    </dc:creator>
   </cc:Work>
  </rdf:RDF>
 </metadata>
 <defs>
  <style type="text/css">*{stroke-linejoin: round; stroke-linecap: butt}</style>
 </defs>
 <g id="figure_1">
  <g id="patch_1">
   <path d="M 0 301.031625 
L 440.246 301.031625 
L 440.246 0 
L 0 0 
z
" style="fill: #ffffff"/>
  </g>
  <g id="axes_1">
   <g id="patch_2">
    <path d="M 38.85 265.331625 
L 395.97 265.331625 
L 395.97 21.395625 
L 38.85 21.395625 
z
" style="fill: #ffffff"/>
   </g>
   <g id="matplotlib.axis_1">
    <g id="xtick_1">
     <g id="line2d_1">
      <defs>
       <path id="mc981acd187" d="M 0 0 
L 0 3 
" style="stroke: #1f2328; stroke-width: 0.8"/>
      </defs>
      <g>
       <use xlink:href="#mc981acd187" x="38.85" y="265.331625" style="fill: #1f2328; stroke: #1f2328; stroke-width: 0.8"/>
      </g>
     </g>
     <g id="text_1">
      <!-- 0 -->
      <g style="fill: #1f2328" transform="translate(36.6 277.978344) scale(0.09 -0.09)">
       <defs>
        <path id="STIXGeneral-Regular-30" d="M 3046 2112 
Q 3046 1683 2963 1302 
Q 2880 922 2717 602 
Q 2554 282 2266 96 
Q 1978 -90 1600 -90 
Q 1210 -90 915 108 
Q 621 307 461 640 
Q 301 973 227 1350 
Q 154 1728 154 2150 
Q 154 2746 301 3222 
Q 448 3699 790 4012 
Q 1133 4326 1626 4326 
Q 2253 4326 2649 3712 
Q 3046 3098 3046 2112 
z
M 2432 2080 
Q 2432 3091 2217 3625 
Q 2003 4160 1587 4160 
Q 1190 4160 979 3622 
Q 768 3085 768 2106 
Q 768 1120 979 598 
Q 1190 77 1600 77 
Q 2003 77 2217 598 
Q 2432 1120 2432 2080 
z
" transform="scale(0.015625)"/>
       </defs>
       <use xlink:href="#STIXGeneral-Regular-30"/>
      </g>
     </g>
    </g>
    <g id="xtick_2">
     <g id="line2d_2">
      <g>
       <use xlink:href="#mc981acd187" x="98.37" y="265.331625" style="fill: #1f2328; stroke: #1f2328; stroke-width: 0.8"/>
      </g>
     </g>
     <g id="text_2">
      <!-- 5 -->
      <g style="fill: #1f2328" transform="translate(96.12 277.978344) scale(0.09 -0.09)">
       <defs>
        <path id="STIXGeneral-Regular-35" d="M 2803 4358 
L 2573 3814 
Q 2534 3731 2400 3731 
L 1158 3731 
L 902 3187 
Q 1606 3053 1920 2896 
Q 2234 2739 2502 2368 
Q 2726 2061 2726 1555 
Q 2726 1094 2576 780 
Q 2426 467 2099 224 
Q 1664 -90 1011 -90 
Q 646 -90 422 19 
Q 198 128 198 307 
Q 198 550 486 550 
Q 717 550 960 352 
Q 1210 147 1414 147 
Q 1747 147 2012 480 
Q 2278 813 2278 1229 
Q 2278 1843 1850 2189 
Q 1293 2637 486 2637 
Q 410 2637 410 2688 
L 416 2720 
L 1114 4237 
L 2438 4237 
Q 2547 4237 2608 4269 
Q 2669 4301 2746 4403 
L 2803 4358 
z
" transform="scale(0.015625)"/>
       </defs>
       <use xlink:href="#STIXGeneral-Regular-35"/>
      </g>
     </g>
    </g>
    <g id="xtick_3">
     <g id="line2d_3">
      <g>
       <use xlink:href="#mc981acd187" x="157.89" y="265.331625" style="fill: #1f2328; stroke: #1f2328; stroke-width: 0.8"/>
      </g>
     </g>
     <g id="text_3">
      <!-- 10 -->
      <g style="fill: #1f2328" transform="translate(153.39 277.978344) scale(0.09 -0.09)">
       <defs>
        <path id="STIXGeneral-Regular-31" d="M 2522 0 
L 755 0 
L 755 96 
Q 1107 115 1235 227 
Q 1363 339 1363 608 
L 1363 3482 
Q 1363 3795 1171 3795 
Q 1082 3795 883 3718 
L 710 3654 
L 710 3744 
L 1856 4326 
L 1914 4307 
L 1914 486 
Q 1914 275 2042 185 
Q 2170 96 2522 96 
L 2522 0 
z
" transform="scale(0.015625)"/>
       </defs>
       <use xlink:href="#STIXGeneral-Regular-31"/>
       <use xlink:href="#STIXGeneral-Regular-30" x="49.999985"/>
      </g>
     </g>
    </g>
    <g id="xtick_4">
     <g id="line2d_4">
      <g>
       <use xlink:href="#mc981acd187" x="217.41" y="265.331625" style="fill: #1f2328; stroke: #1f2328; stroke-width: 0.8"/>
      </g>
     </g>
     <g id="text_4">
      <!-- 15 -->
      <g style="fill: #1f2328" transform="translate(212.91 277.978344) scale(0.09 -0.09)">
       <use xlink:href="#STIXGeneral-Regular-31"/>
       <use xlink:href="#STIXGeneral-Regular-35" x="49.999985"/>
      </g>
     </g>
    </g>
    <g id="xtick_5">
     <g id="line2d_5">
      <g>
       <use xlink:href="#mc981acd187" x="276.93" y="265.331625" style="fill: #1f2328; stroke: #1f2328; stroke-width: 0.8"/>
      </g>
     </g>
     <g id="text_5">
      <!-- 20 -->
      <g style="fill: #1f2328" transform="translate(272.43 277.978344) scale(0.09 -0.09)">
       <defs>
        <path id="STIXGeneral-Regular-32" d="M 3034 877 
L 2688 0 
L 186 0 
L 186 77 
L 1325 1286 
Q 1773 1754 1965 2144 
Q 2157 2534 2157 2950 
Q 2157 3379 1920 3616 
Q 1683 3853 1267 3853 
Q 922 3853 720 3673 
Q 518 3494 326 3021 
L 192 3053 
Q 301 3648 630 3987 
Q 960 4326 1523 4326 
Q 2054 4326 2380 4006 
Q 2707 3686 2707 3200 
Q 2707 2477 1888 1613 
L 832 486 
L 2330 486 
Q 2541 486 2665 569 
Q 2790 653 2944 915 
L 3034 877 
z
" transform="scale(0.015625)"/>
       </defs>
       <use xlink:href="#STIXGeneral-Regular-32"/>
       <use xlink:href="#STIXGeneral-Regular-30" x="49.999985"/>
      </g>
     </g>
    </g>
    <g id="xtick_6">
     <g id="line2d_6">
      <g>
       <use xlink:href="#mc981acd187" x="336.45" y="265.331625" style="fill: #1f2328; stroke: #1f2328; stroke-width: 0.8"/>
      </g>
     </g>
     <g id="text_6">
      <!-- 25 -->
      <g style="fill: #1f2328" transform="translate(331.95 277.978344) scale(0.09 -0.09)">
       <use xlink:href="#STIXGeneral-Regular-32"/>
       <use xlink:href="#STIXGeneral-Regular-35" x="49.999985"/>
      </g>
     </g>
    </g>
    <g id="xtick_7">
     <g id="line2d_7">
      <g>
       <use xlink:href="#mc981acd187" x="395.97" y="265.331625" style="fill: #1f2328; stroke: #1f2328; stroke-width: 0.8"/>
      </g>
     </g>
     <g id="text_7">
      <!-- 30 -->
      <g style="fill: #1f2328" transform="translate(391.47 277.978344) scale(0.09 -0.09)">
       <defs>
        <path id="STIXGeneral-Regular-33" d="M 390 3264 
L 288 3290 
Q 435 3770 748 4048 
Q 1062 4326 1542 4326 
Q 1990 4326 2265 4083 
Q 2541 3840 2541 3450 
Q 2541 2925 1946 2566 
Q 2298 2413 2477 2227 
Q 2758 1914 2758 1402 
Q 2758 890 2464 506 
Q 2246 211 1840 60 
Q 1434 -90 979 -90 
Q 262 -90 262 275 
Q 262 378 339 442 
Q 416 506 525 506 
Q 685 506 915 339 
Q 1197 141 1466 141 
Q 1818 141 2058 425 
Q 2298 710 2298 1120 
Q 2298 1856 1632 2048 
Q 1434 2112 979 2112 
L 979 2202 
Q 1338 2323 1517 2432 
Q 2035 2726 2035 3290 
Q 2035 3610 1852 3776 
Q 1670 3942 1344 3942 
Q 768 3942 390 3264 
z
" transform="scale(0.015625)"/>
       </defs>
       <use xlink:href="#STIXGeneral-Regular-33"/>
       <use xlink:href="#STIXGeneral-Regular-30" x="49.999985"/>
      </g>
     </g>
    </g>
    <g id="text_8">
     <!-- time $t$ -->
     <g transform="translate(204.265 291.444281) scale(0.11 -0.11)">
      <defs>
       <path id="STIXGeneral-Regular-74" d="M 1702 493 
L 1786 422 
Q 1478 -64 1011 -64 
Q 448 -64 448 749 
L 448 2675 
L 109 2675 
Q 83 2694 83 2720 
Q 83 2771 192 2842 
Q 435 2982 813 3526 
Q 826 3546 874 3606 
Q 922 3667 941 3706 
Q 986 3706 986 3622 
L 986 2880 
L 1632 2880 
L 1632 2675 
L 986 2675 
L 986 845 
Q 986 538 1062 403 
Q 1139 269 1318 269 
Q 1510 269 1702 493 
z
" transform="scale(0.015625)"/>
       <path id="STIXGeneral-Regular-69" d="M 1152 4045 
Q 1152 3904 1056 3811 
Q 960 3718 819 3718 
Q 685 3718 592 3811 
Q 499 3904 499 4045 
Q 499 4179 595 4275 
Q 691 4371 826 4371 
Q 966 4371 1059 4275 
Q 1152 4179 1152 4045 
z
M 1619 0 
L 102 0 
L 102 96 
Q 435 115 521 211 
Q 608 307 608 666 
L 608 2118 
Q 608 2342 563 2432 
Q 518 2522 397 2522 
Q 243 2522 128 2490 
L 128 2592 
L 1120 2944 
L 1146 2918 
L 1146 672 
Q 1146 314 1226 218 
Q 1306 122 1619 96 
L 1619 0 
z
" transform="scale(0.015625)"/>
       <path id="STIXGeneral-Regular-6d" d="M 4960 0 
L 3565 0 
L 3565 96 
Q 3834 122 3907 208 
Q 3981 294 3981 576 
L 3981 1894 
Q 3981 2278 3869 2444 
Q 3757 2611 3488 2611 
Q 3264 2611 3107 2521 
Q 2950 2432 2803 2221 
L 2803 608 
Q 2803 301 2896 201 
Q 2989 102 3264 96 
L 3264 0 
L 1830 0 
L 1830 96 
Q 2112 115 2189 188 
Q 2266 262 2266 550 
L 2266 1901 
Q 2266 2611 1850 2611 
Q 1670 2611 1468 2531 
Q 1267 2451 1171 2336 
Q 1088 2240 1088 2227 
L 1088 448 
Q 1088 243 1177 176 
Q 1267 109 1523 96 
L 1523 0 
L 102 0 
L 102 96 
Q 371 102 460 195 
Q 550 288 550 563 
L 550 2150 
Q 550 2387 499 2480 
Q 448 2573 326 2573 
Q 230 2573 122 2547 
L 122 2656 
Q 557 2778 1011 2944 
L 1062 2925 
L 1062 2451 
L 1075 2451 
Q 1363 2752 1584 2848 
Q 1805 2944 2054 2944 
Q 2560 2944 2733 2406 
Q 3232 2944 3776 2944 
Q 4518 2944 4518 1792 
L 4518 493 
Q 4518 282 4582 202 
Q 4646 122 4794 109 
L 4960 96 
L 4960 0 
z
" transform="scale(0.015625)"/>
       <path id="STIXGeneral-Regular-65" d="M 2611 1050 
L 2714 1005 
Q 2330 -64 1376 -64 
Q 813 -64 486 329 
Q 160 723 160 1389 
Q 160 2074 525 2509 
Q 890 2944 1485 2944 
Q 2061 2944 2374 2502 
Q 2560 2246 2592 1773 
L 621 1773 
Q 646 1370 700 1158 
Q 755 947 915 730 
Q 1184 378 1626 378 
Q 1939 378 2153 531 
Q 2368 685 2611 1050 
z
M 634 1978 
L 1939 1978 
Q 1882 2381 1750 2547 
Q 1619 2714 1312 2714 
Q 1043 2714 864 2525 
Q 685 2336 634 1978 
z
" transform="scale(0.015625)"/>
       <path id="STIXGeneral-Regular-20" transform="scale(0.015625)"/>
       <path id="Cmmi10-74" d="M 397 519 
Q 397 613 416 697 
L 878 2534 
L 206 2534 
Q 141 2534 141 2619 
Q 166 2759 225 2759 
L 934 2759 
L 1191 3803 
Q 1216 3888 1291 3947 
Q 1366 4006 1459 4006 
Q 1541 4006 1595 3957 
Q 1650 3909 1650 3828 
Q 1650 3809 1648 3798 
Q 1647 3788 1644 3775 
L 1388 2759 
L 2047 2759 
Q 2113 2759 2113 2675 
Q 2109 2659 2100 2621 
Q 2091 2584 2075 2559 
Q 2059 2534 2028 2534 
L 1331 2534 
L 872 684 
Q 825 503 825 372 
Q 825 97 1013 97 
Q 1294 97 1511 361 
Q 1728 625 1844 941 
Q 1869 978 1894 978 
L 1972 978 
Q 1997 978 2012 961 
Q 2028 944 2028 922 
Q 2028 909 2022 903 
Q 1881 516 1612 222 
Q 1344 -72 997 -72 
Q 744 -72 570 93 
Q 397 259 397 519 
z
" transform="scale(0.015625)"/>
      </defs>
      <use xlink:href="#STIXGeneral-Regular-74" transform="translate(0 0.703125)"/>
      <use xlink:href="#STIXGeneral-Regular-69" transform="translate(27.799988 0.703125)"/>
      <use xlink:href="#STIXGeneral-Regular-6d" transform="translate(55.599976 0.703125)"/>
      <use xlink:href="#STIXGeneral-Regular-65" transform="translate(133.399963 0.703125)"/>
      <use xlink:href="#STIXGeneral-Regular-20" transform="translate(177.799957 0.703125)"/>
      <use xlink:href="#Cmmi10-74" transform="translate(202.799942 0.703125)"/>
     </g>
    </g>
   </g>
   <g id="matplotlib.axis_2">
    <g id="ytick_1">
     <g id="line2d_8">
      <defs>
       <path id="maf6890fb1a" d="M 0 0 
L -3 0 
" style="stroke: #1f2328; stroke-width: 0.8"/>
      </defs>
      <g>
       <use xlink:href="#maf6890fb1a" x="38.85" y="255.440103" style="fill: #1f2328; stroke: #1f2328; stroke-width: 0.8"/>
      </g>
     </g>
     <g id="text_9">
      <!-- 0.0 -->
      <g style="fill: #1f2328" transform="translate(21.1 258.513462) scale(0.09 -0.09)">
       <defs>
        <path id="STIXGeneral-Regular-2e" d="M 1158 275 
Q 1158 134 1052 32 
Q 947 -70 800 -70 
Q 653 -70 550 32 
Q 448 134 448 281 
Q 448 429 553 534 
Q 659 640 806 640 
Q 947 640 1052 531 
Q 1158 422 1158 275 
z
" transform="scale(0.015625)"/>
       </defs>
       <use xlink:href="#STIXGeneral-Regular-30"/>
       <use xlink:href="#STIXGeneral-Regular-2e" x="49.999985"/>
       <use xlink:href="#STIXGeneral-Regular-30" x="74.999969"/>
      </g>
     </g>
    </g>
    <g id="ytick_2">
     <g id="line2d_9">
      <g>
       <use xlink:href="#maf6890fb1a" x="38.85" y="227.007437" style="fill: #1f2328; stroke: #1f2328; stroke-width: 0.8"/>
      </g>
     </g>
     <g id="text_10">
      <!-- 0.2 -->
      <g style="fill: #1f2328" transform="translate(21.1 230.080797) scale(0.09 -0.09)">
       <use xlink:href="#STIXGeneral-Regular-30"/>
       <use xlink:href="#STIXGeneral-Regular-2e" x="49.999985"/>
       <use xlink:href="#STIXGeneral-Regular-32" x="74.999969"/>
      </g>
     </g>
    </g>
    <g id="ytick_3">
     <g id="line2d_10">
      <g>
       <use xlink:href="#maf6890fb1a" x="38.85" y="198.574772" style="fill: #1f2328; stroke: #1f2328; stroke-width: 0.8"/>
      </g>
     </g>
     <g id="text_11">
      <!-- 0.4 -->
      <g style="fill: #1f2328" transform="translate(21.1 201.648131) scale(0.09 -0.09)">
       <defs>
        <path id="STIXGeneral-Regular-34" d="M 3027 1069 
L 2368 1069 
L 2368 0 
L 1869 0 
L 1869 1069 
L 77 1069 
L 77 1478 
L 2086 4326 
L 2368 4326 
L 2368 1478 
L 3027 1478 
L 3027 1069 
z
M 1869 1478 
L 1869 3674 
L 333 1478 
L 1869 1478 
z
" transform="scale(0.015625)"/>
       </defs>
       <use xlink:href="#STIXGeneral-Regular-30"/>
       <use xlink:href="#STIXGeneral-Regular-2e" x="49.999985"/>
       <use xlink:href="#STIXGeneral-Regular-34" x="74.999969"/>
      </g>
     </g>
    </g>
    <g id="ytick_4">
     <g id="line2d_11">
      <g>
       <use xlink:href="#maf6890fb1a" x="38.85" y="170.142107" style="fill: #1f2328; stroke: #1f2328; stroke-width: 0.8"/>
      </g>
     </g>
     <g id="text_12">
      <!-- 0.6 -->
      <g style="fill: #1f2328" transform="translate(21.1 173.215466) scale(0.09 -0.09)">
       <defs>
        <path id="STIXGeneral-Regular-36" d="M 2854 4378 
L 2867 4275 
Q 2112 4154 1606 3664 
Q 1101 3174 973 2451 
Q 1344 2739 1786 2739 
Q 2349 2739 2672 2380 
Q 2995 2022 2995 1402 
Q 2995 774 2669 378 
Q 2291 -90 1651 -90 
Q 870 -90 518 557 
Q 218 1107 218 1786 
Q 218 2835 915 3552 
Q 1312 3962 1731 4131 
Q 2150 4301 2854 4378 
z
M 2419 1203 
Q 2419 2445 1555 2445 
Q 1235 2445 1024 2275 
Q 813 2106 813 1702 
Q 813 954 1046 522 
Q 1280 90 1722 90 
Q 2061 90 2240 394 
Q 2419 698 2419 1203 
z
" transform="scale(0.015625)"/>
       </defs>
       <use xlink:href="#STIXGeneral-Regular-30"/>
       <use xlink:href="#STIXGeneral-Regular-2e" x="49.999985"/>
       <use xlink:href="#STIXGeneral-Regular-36" x="74.999969"/>
      </g>
     </g>
    </g>
    <g id="ytick_5">
     <g id="line2d_12">
      <g>
       <use xlink:href="#maf6890fb1a" x="38.85" y="141.709441" style="fill: #1f2328; stroke: #1f2328; stroke-width: 0.8"/>
      </g>
     </g>
     <g id="text_13">
      <!-- 0.8 -->
      <g style="fill: #1f2328" transform="translate(21.1 144.782801) scale(0.09 -0.09)">
       <defs>
        <path id="STIXGeneral-Regular-38" d="M 2848 992 
Q 2848 499 2505 204 
Q 2163 -90 1587 -90 
Q 1050 -90 704 204 
Q 358 499 358 954 
Q 358 1293 524 1533 
Q 691 1773 1190 2125 
Q 710 2522 553 2765 
Q 397 3008 397 3328 
Q 397 3782 745 4054 
Q 1094 4326 1638 4326 
Q 2106 4326 2410 4060 
Q 2714 3795 2714 3411 
Q 2714 3059 2531 2848 
Q 2349 2637 1856 2374 
Q 2432 1990 2640 1689 
Q 2848 1389 2848 992 
z
M 2272 3411 
Q 2272 3744 2086 3945 
Q 1901 4147 1574 4147 
Q 1248 4147 1059 3977 
Q 870 3808 870 3513 
Q 870 3219 1059 2979 
Q 1248 2739 1670 2490 
Q 1997 2682 2134 2896 
Q 2272 3110 2272 3411 
z
M 1734 1741 
L 1357 1997 
Q 1075 1766 960 1545 
Q 845 1325 845 1011 
Q 845 576 1065 333 
Q 1286 90 1658 90 
Q 1971 90 2166 285 
Q 2362 480 2362 794 
Q 2362 1082 2214 1299 
Q 2067 1517 1734 1741 
z
" transform="scale(0.015625)"/>
       </defs>
       <use xlink:href="#STIXGeneral-Regular-30"/>
       <use xlink:href="#STIXGeneral-Regular-2e" x="49.999985"/>
       <use xlink:href="#STIXGeneral-Regular-38" x="74.999969"/>
      </g>
     </g>
    </g>
    <g id="ytick_6">
     <g id="line2d_13">
      <g>
       <use xlink:href="#maf6890fb1a" x="38.85" y="113.276776" style="fill: #1f2328; stroke: #1f2328; stroke-width: 0.8"/>
      </g>
     </g>
     <g id="text_14">
      <!-- 1.0 -->
      <g style="fill: #1f2328" transform="translate(21.1 116.350135) scale(0.09 -0.09)">
       <use xlink:href="#STIXGeneral-Regular-31"/>
       <use xlink:href="#STIXGeneral-Regular-2e" x="49.999985"/>
       <use xlink:href="#STIXGeneral-Regular-30" x="74.999969"/>
      </g>
     </g>
    </g>
    <g id="ytick_7">
     <g id="line2d_14">
      <g>
       <use xlink:href="#maf6890fb1a" x="38.85" y="84.844111" style="fill: #1f2328; stroke: #1f2328; stroke-width: 0.8"/>
      </g>
     </g>
     <g id="text_15">
      <!-- 1.2 -->
      <g style="fill: #1f2328" transform="translate(21.1 87.91747) scale(0.09 -0.09)">
       <use xlink:href="#STIXGeneral-Regular-31"/>
       <use xlink:href="#STIXGeneral-Regular-2e" x="49.999985"/>
       <use xlink:href="#STIXGeneral-Regular-32" x="74.999969"/>
      </g>
     </g>
    </g>
    <g id="ytick_8">
     <g id="line2d_15">
      <g>
       <use xlink:href="#maf6890fb1a" x="38.85" y="56.411445" style="fill: #1f2328; stroke: #1f2328; stroke-width: 0.8"/>
      </g>
     </g>
     <g id="text_16">
      <!-- 1.4 -->
      <g style="fill: #1f2328" transform="translate(21.1 59.484805) scale(0.09 -0.09)">
       <use xlink:href="#STIXGeneral-Regular-31"/>
       <use xlink:href="#STIXGeneral-Regular-2e" x="49.999985"/>
       <use xlink:href="#STIXGeneral-Regular-34" x="74.999969"/>
      </g>
     </g>
    </g>
    <g id="ytick_9">
     <g id="line2d_16">
      <g>
       <use xlink:href="#maf6890fb1a" x="38.85" y="27.97878" style="fill: #1f2328; stroke: #1f2328; stroke-width: 0.8"/>
      </g>
     </g>
     <g id="text_17">
      <!-- 1.6 -->
      <g style="fill: #1f2328" transform="translate(21.1 31.052139) scale(0.09 -0.09)">
       <use xlink:href="#STIXGeneral-Regular-31"/>
       <use xlink:href="#STIXGeneral-Regular-2e" x="49.999985"/>
       <use xlink:href="#STIXGeneral-Regular-36" x="74.999969"/>
      </g>
     </g>
    </g>
    <g id="text_18">
     <!-- wealth / consumption -->
     <g transform="translate(14.712656 190.724641) rotate(-90) scale(0.11 -0.11)">
      <defs>
       <path id="STIXGeneral-Regular-77" d="M 4442 2880 
L 4442 2784 
Q 4346 2752 4301 2691 
Q 4256 2630 4179 2438 
L 3296 224 
Q 3168 -90 3117 -90 
Q 3085 -90 3062 -48 
Q 3040 -6 2963 186 
L 2381 1696 
L 1664 160 
Q 1549 -90 1504 -90 
Q 1446 -90 1338 192 
L 474 2381 
Q 378 2630 314 2700 
Q 250 2771 134 2784 
L 134 2880 
L 1286 2880 
L 1286 2784 
Q 1120 2765 1056 2720 
Q 992 2675 992 2573 
Q 992 2477 1030 2381 
L 1664 710 
L 2246 1984 
L 2118 2342 
Q 2029 2598 1942 2681 
Q 1856 2765 1677 2784 
L 1677 2880 
L 2976 2880 
L 2976 2784 
Q 2752 2752 2678 2707 
Q 2605 2662 2605 2560 
Q 2605 2458 2714 2176 
L 3251 742 
L 3827 2163 
Q 3936 2432 3936 2592 
Q 3936 2669 3875 2710 
Q 3814 2752 3654 2784 
L 3654 2880 
L 4442 2880 
z
" transform="scale(0.015625)"/>
       <path id="STIXGeneral-Regular-61" d="M 2829 422 
L 2829 243 
Q 2586 -64 2253 -64 
Q 1888 -64 1843 403 
L 1837 403 
Q 1427 -64 909 -64 
Q 608 -64 422 112 
Q 237 288 237 602 
Q 237 1050 685 1350 
Q 992 1555 1837 1869 
L 1837 2214 
Q 1837 2502 1699 2646 
Q 1562 2790 1338 2790 
Q 1146 2790 1018 2697 
Q 890 2605 890 2477 
Q 890 2419 909 2348 
Q 928 2278 928 2208 
Q 928 2112 841 2029 
Q 755 1946 634 1946 
Q 525 1946 441 2029 
Q 358 2112 358 2240 
Q 358 2547 685 2752 
Q 986 2944 1421 2944 
Q 1939 2944 2176 2656 
Q 2291 2522 2323 2384 
Q 2355 2246 2355 1946 
L 2355 723 
Q 2355 301 2554 301 
Q 2682 301 2829 422 
z
M 1837 813 
L 1837 1715 
Q 1248 1510 1018 1293 
Q 800 1094 800 800 
Q 800 557 921 432 
Q 1043 307 1242 307 
Q 1453 307 1613 410 
Q 1747 506 1792 589 
Q 1837 672 1837 813 
z
" transform="scale(0.015625)"/>
       <path id="STIXGeneral-Regular-6c" d="M 1645 0 
L 134 0 
L 134 96 
Q 435 122 531 221 
Q 627 320 627 589 
L 627 3590 
Q 627 3821 569 3910 
Q 512 4000 358 4000 
Q 224 4000 122 3987 
L 122 4090 
Q 730 4237 1133 4371 
L 1165 4346 
L 1165 557 
Q 1165 288 1254 201 
Q 1344 115 1645 96 
L 1645 0 
z
" transform="scale(0.015625)"/>
       <path id="STIXGeneral-Regular-68" d="M 3117 0 
L 1760 0 
L 1760 96 
Q 2042 128 2118 224 
Q 2195 320 2195 653 
L 2195 1920 
Q 2195 2598 1722 2598 
Q 1530 2598 1370 2508 
Q 1210 2419 1005 2195 
L 1005 653 
Q 1005 320 1081 224 
Q 1158 128 1440 96 
L 1440 0 
L 58 0 
L 58 96 
Q 333 134 400 224 
Q 467 314 467 653 
L 467 3667 
Q 467 3872 406 3933 
Q 346 3994 141 3994 
Q 83 3994 64 3987 
L 64 4090 
L 237 4141 
Q 730 4288 973 4371 
L 1005 4352 
L 1005 2406 
Q 1229 2694 1446 2819 
Q 1664 2944 1946 2944 
Q 2733 2944 2733 1926 
L 2733 653 
Q 2733 320 2793 233 
Q 2854 147 3117 96 
L 3117 0 
z
" transform="scale(0.015625)"/>
       <path id="STIXGeneral-Regular-2f" d="M 1837 4326 
L 378 -90 
L -58 -90 
L 1408 4326 
L 1837 4326 
z
" transform="scale(0.015625)"/>
       <path id="STIXGeneral-Regular-63" d="M 2547 998 
L 2637 941 
Q 2362 403 2112 205 
Q 1786 -64 1376 -64 
Q 845 -64 502 336 
Q 160 736 160 1357 
Q 160 2170 698 2618 
Q 1094 2944 1562 2944 
Q 1965 2944 2256 2749 
Q 2547 2554 2547 2285 
Q 2547 2176 2457 2096 
Q 2368 2016 2246 2016 
Q 2022 2016 1939 2310 
L 1901 2451 
Q 1850 2630 1773 2694 
Q 1696 2758 1523 2758 
Q 1133 2758 893 2451 
Q 653 2144 653 1645 
Q 653 1094 928 745 
Q 1203 397 1645 397 
Q 1920 397 2118 528 
Q 2317 659 2547 998 
z
" transform="scale(0.015625)"/>
       <path id="STIXGeneral-Regular-6f" d="M 3008 1478 
Q 3008 806 2608 371 
Q 2208 -64 1568 -64 
Q 979 -64 582 368 
Q 186 800 186 1459 
Q 186 2125 582 2534 
Q 979 2944 1626 2944 
Q 2221 2944 2614 2537 
Q 3008 2131 3008 1478 
z
M 2432 1306 
Q 2432 2035 2112 2445 
Q 1856 2765 1504 2765 
Q 1171 2765 966 2493 
Q 762 2221 762 1747 
Q 762 928 1101 435 
Q 1318 115 1677 115 
Q 2029 115 2230 432 
Q 2432 749 2432 1306 
z
" transform="scale(0.015625)"/>
       <path id="STIXGeneral-Regular-6e" d="M 3104 0 
L 1773 0 
L 1779 96 
Q 2016 115 2096 233 
Q 2176 352 2176 672 
L 2176 1946 
Q 2176 2592 1709 2592 
Q 1549 2592 1408 2515 
Q 1267 2438 1050 2227 
L 1050 461 
Q 1050 269 1136 192 
Q 1222 115 1466 96 
L 1466 0 
L 115 0 
L 115 96 
Q 358 115 435 214 
Q 512 314 512 602 
L 512 2157 
Q 512 2394 467 2483 
Q 422 2573 288 2573 
Q 160 2573 102 2547 
L 102 2656 
Q 550 2784 979 2944 
L 1030 2925 
L 1030 2426 
L 1037 2426 
Q 1491 2944 1958 2944 
Q 2323 2944 2518 2688 
Q 2714 2432 2714 1958 
L 2714 544 
Q 2714 288 2790 205 
Q 2867 122 3104 96 
L 3104 0 
z
" transform="scale(0.015625)"/>
       <path id="STIXGeneral-Regular-73" d="M 998 1926 
L 1664 1523 
Q 1984 1331 2105 1164 
Q 2227 998 2227 736 
Q 2227 416 1961 176 
Q 1696 -64 1331 -64 
Q 1030 -64 864 -6 
Q 691 51 570 51 
Q 461 51 416 -26 
L 333 -26 
L 333 979 
L 435 979 
Q 538 512 730 294 
Q 922 77 1248 77 
Q 1485 77 1632 211 
Q 1779 346 1779 550 
Q 1779 845 1440 1030 
L 1094 1222 
Q 326 1651 326 2150 
Q 326 2522 566 2730 
Q 806 2938 1210 2938 
Q 1491 2938 1638 2867 
Q 1754 2816 1818 2816 
Q 1862 2816 1920 2880 
L 1990 2880 
L 2022 2010 
L 1926 2010 
Q 1818 2445 1654 2621 
Q 1491 2797 1203 2797 
Q 986 2797 854 2688 
Q 723 2579 723 2362 
Q 723 2253 796 2128 
Q 870 2003 998 1926 
z
" transform="scale(0.015625)"/>
       <path id="STIXGeneral-Regular-75" d="M 3072 320 
L 3072 230 
Q 2573 96 2195 -58 
L 2163 -38 
L 2163 486 
L 2150 486 
Q 1747 -64 1235 -64 
Q 870 -64 662 160 
Q 454 384 454 755 
L 454 2362 
Q 454 2598 371 2688 
Q 288 2778 58 2790 
L 58 2880 
L 992 2880 
L 992 813 
Q 992 595 1123 451 
Q 1254 307 1446 307 
Q 1760 307 1984 506 
Q 2067 582 2099 649 
Q 2131 717 2131 877 
L 2131 2355 
Q 2131 2605 2041 2678 
Q 1952 2752 1658 2771 
L 1658 2880 
L 2669 2880 
L 2669 685 
Q 2669 461 2742 390 
Q 2816 320 3034 320 
L 3072 320 
z
" transform="scale(0.015625)"/>
       <path id="STIXGeneral-Regular-70" d="M 1018 2931 
L 1018 2438 
Q 1421 2944 1939 2944 
Q 2406 2944 2707 2560 
Q 3008 2176 3008 1581 
Q 3008 883 2621 409 
Q 2234 -64 1664 -64 
Q 1466 -64 1328 -6 
Q 1190 51 1018 211 
L 1018 -794 
Q 1018 -1094 1120 -1180 
Q 1222 -1267 1581 -1274 
L 1581 -1389 
L 32 -1389 
L 32 -1280 
Q 314 -1254 397 -1171 
Q 480 -1088 480 -838 
L 480 2157 
Q 480 2381 429 2451 
Q 378 2522 218 2522 
Q 115 2522 58 2515 
L 58 2618 
Q 506 2752 979 2944 
L 1018 2931 
z
M 1018 2138 
L 1018 563 
Q 1018 422 1238 281 
Q 1459 141 1683 141 
Q 2029 141 2243 467 
Q 2458 794 2458 1325 
Q 2458 1888 2243 2224 
Q 2029 2560 1670 2560 
Q 1446 2560 1232 2419 
Q 1018 2278 1018 2138 
z
" transform="scale(0.015625)"/>
      </defs>
      <use xlink:href="#STIXGeneral-Regular-77"/>
      <use xlink:href="#STIXGeneral-Regular-65" x="72.199982"/>
      <use xlink:href="#STIXGeneral-Regular-61" x="116.599976"/>
      <use xlink:href="#STIXGeneral-Regular-6c" x="160.999969"/>
      <use xlink:href="#STIXGeneral-Regular-74" x="188.799957"/>
      <use xlink:href="#STIXGeneral-Regular-68" x="216.599945"/>
      <use xlink:href="#STIXGeneral-Regular-20" x="266.59993"/>
      <use xlink:href="#STIXGeneral-Regular-2f" x="291.599915"/>
      <use xlink:href="#STIXGeneral-Regular-20" x="319.399902"/>
      <use xlink:href="#STIXGeneral-Regular-63" x="344.399887"/>
      <use xlink:href="#STIXGeneral-Regular-6f" x="388.799881"/>
      <use xlink:href="#STIXGeneral-Regular-6e" x="438.799866"/>
      <use xlink:href="#STIXGeneral-Regular-73" x="488.79985"/>
      <use xlink:href="#STIXGeneral-Regular-75" x="527.699844"/>
      <use xlink:href="#STIXGeneral-Regular-6d" x="577.699829"/>
      <use xlink:href="#STIXGeneral-Regular-70" x="655.499817"/>
      <use xlink:href="#STIXGeneral-Regular-74" x="705.499802"/>
      <use xlink:href="#STIXGeneral-Regular-69" x="733.299789"/>
      <use xlink:href="#STIXGeneral-Regular-6f" x="761.099777"/>
      <use xlink:href="#STIXGeneral-Regular-6e" x="811.099762"/>
     </g>
    </g>
   </g>
   <g id="line2d_17">
    <path d="M 38.85 113.276776 
L 70.27656 107.534155 
L 100.98888 101.697993 
L 131.22504 95.727401 
L 160.98504 89.62446 
L 190.26888 83.391573 
L 218.83848 77.084989 
L 246.93192 70.658133 
L 274.5492 64.114522 
L 301.9284 57.398607 
L 328.83144 50.569907 
L 355.25832 43.632869 
L 381.20904 36.592286 
L 395.97 32.483625 
L 395.97 32.483625 
" clip-path="url(#p4224a222fc)" style="fill: none; stroke-dasharray: 5.18,2.24; stroke-dashoffset: 0; stroke: #9aa3ad; stroke-width: 1.4"/>
   </g>
   <g id="line2d_18">
    <path d="M 38.85 113.276776 
L 39.08808 113.230417 
L 39.32616 112.286522 
L 39.56424 113.076063 
L 39.80232 115.722938 
L 40.0404 117.028599 
L 40.27848 119.8987 
L 40.51656 119.685108 
L 40.75464 115.784832 
L 41.2308 118.979181 
L 41.70696 116.434733 
L 41.94504 116.082191 
L 42.18312 118.791059 
L 42.4212 118.834858 
L 42.65928 116.779003 
L 42.89736 120.691339 
L 43.13544 121.958988 
L 43.84968 135.602549 
L 44.08776 136.164232 
L 44.32584 139.335372 
L 44.802 138.208978 
L 45.04008 138.638678 
L 45.27816 144.839494 
L 45.51624 146.070192 
L 45.75432 146.149907 
L 45.9924 145.854425 
L 46.23048 149.3786 
L 46.46856 150.421681 
L 46.94472 154.304283 
L 47.1828 151.997875 
L 47.42088 153.738849 
L 47.65896 153.778501 
L 47.89704 151.840755 
L 48.13512 153.092239 
L 48.3732 153.304054 
L 48.84936 152.864799 
L 49.08744 155.499687 
L 49.32552 155.308284 
L 49.5636 152.391945 
L 49.80168 155.74306 
L 50.03976 153.895648 
L 50.27784 153.608086 
L 50.51592 154.96323 
L 50.754 150.669326 
L 50.99208 148.943755 
L 51.23016 151.621154 
L 51.46824 151.425899 
L 51.70632 150.122244 
L 51.9444 150.512412 
L 52.18248 148.960876 
L 52.42056 149.079179 
L 52.65864 147.54179 
L 52.89672 144.216831 
L 53.1348 145.777623 
L 53.37288 145.272164 
L 53.61096 146.32187 
L 53.84904 145.994541 
L 54.08712 148.718006 
L 54.3252 149.99748 
L 54.56328 150.404694 
L 55.03944 145.737365 
L 55.5156 150.550385 
L 55.75368 149.079527 
L 55.99176 153.543013 
L 56.22984 154.513615 
L 56.46792 154.691626 
L 56.94408 150.430749 
L 57.65832 152.430839 
L 57.8964 149.070786 
L 58.37256 150.652273 
L 58.61064 149.837072 
L 58.84872 150.075938 
L 59.0868 150.485281 
L 59.32488 152.934185 
L 59.56296 152.928487 
L 59.80104 153.862345 
L 60.2772 149.845372 
L 60.51528 149.867776 
L 60.75336 148.339247 
L 60.99144 149.079284 
L 61.22952 146.673511 
L 61.4676 146.65334 
L 61.70568 145.274423 
L 61.94376 148.258148 
L 62.18184 147.437757 
L 62.658 155.739405 
L 62.89608 156.353455 
L 63.13416 158.215328 
L 63.37224 157.84781 
L 63.61032 153.171335 
L 64.08648 156.245023 
L 64.32456 155.783045 
L 64.56264 154.710895 
L 65.0388 155.466019 
L 65.51496 152.79645 
L 65.75304 155.016383 
L 65.99112 155.154937 
L 66.2292 155.049783 
L 66.46728 157.265297 
L 66.70536 156.694703 
L 66.94344 158.462246 
L 67.18152 156.433406 
L 67.65768 155.780669 
L 67.89576 157.000261 
L 68.13384 157.218413 
L 68.61 163.581419 
L 68.84808 162.846825 
L 69.08616 166.999979 
L 69.32424 165.385126 
L 69.56232 168.693773 
L 69.8004 167.275223 
L 70.03848 168.830072 
L 70.27656 167.372868 
L 70.51464 167.101806 
L 70.75272 169.955238 
L 71.22888 164.953579 
L 71.46696 165.052746 
L 71.94312 165.828712 
L 72.1812 167.65554 
L 72.41928 165.583425 
L 72.65736 166.5913 
L 72.89544 166.661128 
L 73.60968 171.571868 
L 73.84776 169.310238 
L 74.08584 169.565931 
L 74.32392 167.780582 
L 74.562 167.729506 
L 74.80008 168.995216 
L 75.03816 169.568349 
L 75.27624 170.563113 
L 75.51432 170.523319 
L 75.99048 171.684681 
L 76.46664 175.476545 
L 76.70472 172.646806 
L 76.9428 173.800863 
L 77.18088 175.601882 
L 77.41896 175.006626 
L 77.65704 172.581336 
L 77.89512 175.112216 
L 78.1332 175.443442 
L 78.37128 176.492027 
L 78.60936 179.417595 
L 78.84744 178.209586 
L 79.08552 178.224825 
L 79.3236 178.08464 
L 79.56168 179.295944 
L 79.79976 178.538505 
L 80.03784 179.395206 
L 80.27592 179.602918 
L 80.75208 183.251855 
L 80.99016 181.18504 
L 81.22824 181.961549 
L 81.46632 181.484858 
L 81.7044 181.515683 
L 82.18056 182.952677 
L 82.41864 181.962059 
L 82.8948 182.623244 
L 83.13288 182.567074 
L 83.60904 179.625517 
L 83.84712 178.987448 
L 84.0852 179.878515 
L 84.32328 182.071009 
L 84.79944 179.013774 
L 85.03752 179.218969 
L 85.51368 177.018384 
L 85.98984 174.027893 
L 86.22792 174.790327 
L 86.466 172.174256 
L 86.70408 174.351178 
L 87.41832 170.382122 
L 87.89448 164.153641 
L 88.37064 169.508754 
L 88.60872 167.993884 
L 88.8468 169.850513 
L 89.08488 169.84736 
L 89.32296 168.296992 
L 89.79912 175.049945 
L 90.0372 174.583637 
L 90.27528 174.483248 
L 90.51336 174.881092 
L 90.75144 174.791072 
L 90.98952 176.239068 
L 91.2276 178.758141 
L 91.46568 179.006229 
L 91.70376 180.558835 
L 91.94184 183.146994 
L 92.17992 182.349809 
L 92.418 182.423079 
L 92.65608 181.771492 
L 93.37032 185.767595 
L 93.6084 187.05713 
L 93.84648 186.753152 
L 94.08456 187.873395 
L 94.56072 186.831545 
L 94.7988 183.863528 
L 95.03688 185.956822 
L 95.27496 184.627242 
L 95.75112 184.740255 
L 95.9892 186.893508 
L 96.22728 187.542109 
L 96.46536 186.451287 
L 96.70344 186.551295 
L 96.94152 186.41218 
L 97.1796 186.817169 
L 97.41768 185.11586 
L 97.65576 185.126796 
L 97.89384 188.387777 
L 98.13192 189.352062 
L 98.37 192.092368 
L 98.60808 196.442674 
L 98.84616 197.088427 
L 99.08424 195.420207 
L 99.32232 195.342207 
L 99.79848 197.971232 
L 100.03656 196.575662 
L 100.51272 196.283295 
L 100.7508 196.332637 
L 100.98888 196.266757 
L 101.46504 194.514281 
L 101.70312 194.21722 
L 101.9412 195.553261 
L 102.17928 194.885987 
L 102.41736 195.746768 
L 102.65544 194.343738 
L 102.89352 195.972754 
L 103.1316 196.128521 
L 103.36968 196.119986 
L 103.60776 197.769084 
L 104.08392 193.774764 
L 104.322 194.362687 
L 104.56008 193.344485 
L 104.79816 192.827047 
L 105.03624 196.279654 
L 105.27432 195.947661 
L 105.5124 196.007231 
L 105.75048 195.884484 
L 105.98856 197.227103 
L 106.46472 197.74382 
L 106.7028 196.272375 
L 106.94088 195.834873 
L 107.17896 195.824015 
L 107.41704 193.872521 
L 107.8932 195.063747 
L 108.13128 197.372491 
L 108.60744 194.17648 
L 109.0836 192.061359 
L 109.32168 191.894254 
L 109.55976 191.584709 
L 110.03592 192.162256 
L 110.274 192.070379 
L 110.51208 190.019054 
L 110.75016 189.228249 
L 110.98824 189.290497 
L 111.4644 190.944448 
L 111.70248 188.732343 
L 111.94056 187.995325 
L 112.17864 187.878446 
L 112.41672 188.354325 
L 112.6548 189.912498 
L 112.89288 189.985781 
L 113.13096 188.753074 
L 113.60712 189.58741 
L 113.8452 189.876428 
L 114.08328 189.704333 
L 114.32136 191.906012 
L 114.55944 192.204213 
L 114.79752 193.331359 
L 115.0356 192.147263 
L 115.27368 193.162915 
L 115.51176 192.381896 
L 115.74984 190.323789 
L 115.98792 190.737433 
L 116.226 191.543716 
L 116.46408 191.265071 
L 116.70216 191.248581 
L 116.94024 192.582338 
L 117.17832 191.948885 
L 117.4164 189.215235 
L 117.89256 189.821743 
L 118.13064 191.256578 
L 118.36872 190.802872 
L 118.84488 193.952493 
L 119.08296 192.264913 
L 119.32104 193.459402 
L 120.03528 189.569264 
L 120.27336 188.776231 
L 120.51144 185.995448 
L 120.74952 186.264424 
L 120.9876 187.11387 
L 121.22568 189.05477 
L 121.46376 188.976121 
L 121.93992 185.45434 
L 122.41608 188.056323 
L 122.65416 188.756783 
L 122.89224 188.323345 
L 123.13032 188.595525 
L 123.60648 187.828415 
L 123.84456 188.23665 
L 124.08264 188.273761 
L 124.32072 187.959256 
L 124.5588 188.059213 
L 124.79688 187.319284 
L 125.03496 184.595318 
L 125.27304 183.684422 
L 125.51112 183.577943 
L 125.7492 186.126748 
L 125.98728 185.535518 
L 126.46344 190.384964 
L 126.9396 188.173559 
L 127.17768 188.367333 
L 127.41576 190.780263 
L 127.65384 191.270223 
L 127.89192 192.174903 
L 128.13 191.301247 
L 128.36808 188.210158 
L 128.60616 187.880611 
L 128.84424 188.977216 
L 129.08232 190.607626 
L 129.3204 190.665323 
L 129.55848 190.888819 
L 129.79656 192.446274 
L 130.03464 192.271891 
L 130.27272 193.795164 
L 130.98696 189.375685 
L 131.22504 190.020218 
L 131.46312 189.286558 
L 131.7012 189.452049 
L 132.17736 190.427849 
L 132.65352 194.118789 
L 132.8916 193.067131 
L 133.12968 193.301448 
L 133.36776 192.997524 
L 133.60584 191.651919 
L 133.84392 193.977974 
L 134.082 194.981891 
L 134.32008 194.738884 
L 134.55816 194.215786 
L 134.79624 194.687149 
L 135.03432 193.342554 
L 135.2724 193.046774 
L 135.74856 195.816385 
L 136.22472 194.164673 
L 136.4628 196.614782 
L 136.70088 194.91536 
L 136.93896 194.129381 
L 137.17704 192.36384 
L 137.6532 193.232121 
L 137.89128 194.699966 
L 138.12936 191.412928 
L 138.36744 191.632026 
L 138.60552 189.46404 
L 138.8436 190.350175 
L 139.08168 190.104421 
L 139.31976 192.40128 
L 139.55784 192.89436 
L 139.79592 191.570354 
L 140.034 193.247158 
L 140.27208 191.813898 
L 140.51016 191.339635 
L 140.74824 192.739945 
L 141.2244 193.973956 
L 141.46248 194.020084 
L 141.70056 194.700208 
L 141.93864 195.747936 
L 142.17672 196.115716 
L 142.65288 198.960758 
L 142.89096 199.001535 
L 143.12904 197.927589 
L 143.36712 199.776206 
L 143.6052 199.755364 
L 143.84328 200.506421 
L 144.08136 201.628627 
L 144.31944 200.638273 
L 144.55752 201.224216 
L 144.7956 199.484766 
L 145.03368 200.393642 
L 145.27176 199.925805 
L 145.50984 200.176808 
L 145.74792 201.044177 
L 145.986 200.349733 
L 146.22408 200.514325 
L 146.46216 199.795016 
L 146.70024 199.834146 
L 146.93832 201.098272 
L 147.1764 201.199631 
L 147.41448 201.123578 
L 147.65256 200.002916 
L 147.89064 201.052057 
L 148.12872 201.081118 
L 148.3668 203.050357 
L 148.60488 202.3106 
L 148.84296 203.513544 
L 149.08104 205.487722 
L 149.31912 205.535486 
L 149.5572 204.349996 
L 150.03336 207.113422 
L 150.27144 207.860902 
L 150.50952 208.986638 
L 150.7476 208.598803 
L 151.22376 210.078051 
L 151.46184 209.503143 
L 151.69992 210.225588 
L 151.938 209.796925 
L 152.41416 211.860156 
L 152.65224 213.5439 
L 152.89032 211.877182 
L 153.1284 212.160067 
L 153.36648 211.923126 
L 153.60456 211.938734 
L 154.08072 211.718952 
L 154.3188 209.936029 
L 155.03304 213.293996 
L 155.27112 214.474654 
L 155.74728 213.076334 
L 156.46152 215.430743 
L 156.6996 214.238056 
L 156.93768 216.690077 
L 157.17576 216.245558 
L 157.41384 217.128228 
L 157.65192 216.271209 
L 157.89 217.155103 
L 158.12808 217.375417 
L 158.60424 219.333354 
L 159.0804 217.602719 
L 159.31848 217.913768 
L 159.55656 218.595214 
L 159.79464 220.064356 
L 160.03272 220.349157 
L 160.74696 220.472839 
L 160.98504 221.294471 
L 161.4612 221.349981 
L 161.69928 220.40647 
L 161.93736 219.008649 
L 162.17544 219.103589 
L 162.41352 219.683367 
L 162.6516 219.72193 
L 163.12776 220.716484 
L 163.36584 220.749269 
L 163.60392 221.506633 
L 163.842 221.060155 
L 164.08008 221.125627 
L 164.31816 220.933347 
L 164.55624 221.056907 
L 165.27048 222.404949 
L 165.50856 222.7796 
L 165.74664 222.607747 
L 165.98472 222.600984 
L 166.2228 223.540146 
L 166.46088 223.485155 
L 166.69896 224.385849 
L 167.17512 224.964877 
L 167.4132 226.297351 
L 167.88936 226.129726 
L 168.12744 226.219187 
L 168.6036 226.694323 
L 168.84168 227.281183 
L 169.07976 227.433838 
L 169.31784 227.753745 
L 169.55592 227.69159 
L 169.794 228.392062 
L 170.27016 228.158004 
L 170.50824 228.231748 
L 170.74632 228.477084 
L 170.9844 228.153072 
L 171.22248 229.108433 
L 171.69864 228.698232 
L 172.1748 228.302564 
L 172.41288 228.670709 
L 172.65096 228.810016 
L 173.12712 228.187415 
L 173.3652 228.059735 
L 173.60328 228.931077 
L 173.84136 228.620648 
L 174.31752 227.350159 
L 174.5556 227.202369 
L 174.79368 228.126967 
L 175.03176 227.572664 
L 175.26984 227.651354 
L 175.50792 229.135909 
L 175.746 228.917537 
L 176.22216 230.447956 
L 176.46024 230.77709 
L 176.69832 230.103895 
L 176.9364 230.29561 
L 177.17448 230.143521 
L 177.65064 228.302697 
L 178.1268 228.484701 
L 178.60296 229.576317 
L 179.07912 229.108208 
L 179.3172 229.038732 
L 179.55528 228.473665 
L 179.79336 228.907404 
L 180.03144 228.931006 
L 180.98376 227.299049 
L 181.22184 227.475308 
L 181.45992 227.252058 
L 181.698 227.843112 
L 181.93608 228.794606 
L 182.17416 228.458396 
L 182.41224 228.481862 
L 182.65032 228.297404 
L 182.8884 229.26676 
L 183.36456 229.784406 
L 183.60264 230.247048 
L 183.84072 231.444627 
L 184.0788 231.607886 
L 184.31688 231.147098 
L 184.55496 230.943469 
L 184.79304 231.248403 
L 185.03112 231.24878 
L 185.2692 230.853151 
L 185.50728 232.285521 
L 185.74536 232.339745 
L 186.22152 231.7214 
L 186.69768 230.259314 
L 187.17384 229.91477 
L 187.41192 229.481002 
L 187.65 229.770209 
L 187.88808 229.784392 
L 188.12616 229.283484 
L 188.36424 228.189518 
L 188.8404 228.293153 
L 189.07848 228.17071 
L 189.31656 227.385524 
L 189.55464 227.395148 
L 189.79272 226.512579 
L 190.0308 227.097085 
L 190.50696 227.310676 
L 190.98312 226.190019 
L 191.45928 227.659147 
L 191.69736 227.452298 
L 191.93544 227.834975 
L 192.17352 228.718217 
L 192.4116 228.121531 
L 192.88776 227.529905 
L 193.12584 227.803026 
L 193.36392 227.191498 
L 193.602 227.326818 
L 193.84008 226.6645 
L 194.31624 227.715357 
L 194.55432 227.586671 
L 194.7924 227.993295 
L 195.03048 227.59179 
L 195.26856 227.429788 
L 195.50664 227.969804 
L 195.74472 227.919102 
L 195.9828 228.115924 
L 196.22088 227.57688 
L 196.69704 228.19033 
L 196.93512 227.481993 
L 197.41128 224.89492 
L 197.88744 224.69357 
L 198.12552 223.684174 
L 198.3636 223.758472 
L 198.60168 224.405142 
L 198.83976 224.318886 
L 199.07784 224.011467 
L 199.31592 224.554834 
L 199.79208 226.523914 
L 200.03016 226.107062 
L 200.26824 226.57016 
L 200.50632 226.648063 
L 200.7444 226.509601 
L 200.98248 226.12095 
L 201.22056 226.320448 
L 201.45864 226.003645 
L 201.69672 226.550604 
L 201.9348 226.76361 
L 202.17288 227.37818 
L 202.41096 226.696039 
L 202.64904 226.70393 
L 202.88712 227.145981 
L 203.36328 227.47269 
L 203.60136 227.048697 
L 204.07752 228.596679 
L 204.3156 228.803934 
L 204.55368 227.365093 
L 204.79176 226.787505 
L 205.02984 226.846651 
L 205.26792 226.406204 
L 205.506 225.130315 
L 205.98216 225.496955 
L 206.22024 224.718158 
L 206.6964 223.935333 
L 206.93448 224.265535 
L 207.41064 221.796885 
L 207.8868 220.878296 
L 208.12488 222.354247 
L 208.36296 221.89674 
L 208.60104 222.024798 
L 209.0772 221.208725 
L 209.31528 221.446287 
L 209.55336 222.655125 
L 209.79144 222.389442 
L 210.02952 222.899319 
L 210.2676 223.117488 
L 210.74376 223.74398 
L 210.98184 225.287339 
L 211.21992 224.499889 
L 211.458 224.324325 
L 211.69608 223.581394 
L 211.93416 222.23381 
L 212.17224 222.207933 
L 212.41032 223.46861 
L 213.12456 225.175526 
L 213.36264 225.115312 
L 213.60072 226.394194 
L 213.8388 226.174461 
L 214.07688 227.103338 
L 214.31496 226.916087 
L 214.55304 226.973781 
L 214.79112 227.154631 
L 215.0292 227.189973 
L 215.50536 227.85954 
L 215.74344 228.8358 
L 215.98152 228.844539 
L 216.69576 225.809028 
L 216.93384 225.356493 
L 217.17192 225.779178 
L 217.41 224.862496 
L 217.88616 224.925201 
L 218.12424 225.104563 
L 218.36232 225.036284 
L 218.6004 225.30786 
L 218.83848 225.352374 
L 219.07656 226.0356 
L 219.31464 226.259857 
L 219.55272 224.839424 
L 220.02888 225.020992 
L 220.50504 224.196861 
L 220.74312 224.92566 
L 220.9812 225.050601 
L 221.21928 224.44951 
L 221.69544 224.172809 
L 221.93352 223.132681 
L 222.1716 223.587496 
L 222.40968 223.522029 
L 222.64776 223.864578 
L 222.88584 222.85687 
L 223.12392 224.19621 
L 223.60008 224.967589 
L 224.07624 224.122706 
L 224.31432 223.186425 
L 224.5524 224.253708 
L 224.79048 223.747865 
L 225.02856 223.935528 
L 225.26664 224.370922 
L 225.50472 224.005984 
L 225.7428 224.61012 
L 225.98088 225.959178 
L 226.21896 226.181863 
L 226.45704 227.102693 
L 226.69512 227.484273 
L 227.17128 227.060547 
L 227.40936 226.096686 
L 227.64744 226.212161 
L 227.88552 227.154087 
L 228.36168 228.133916 
L 228.59976 228.831152 
L 228.83784 228.577421 
L 229.07592 228.937044 
L 229.314 230.040801 
L 229.55208 229.657679 
L 229.79016 229.710887 
L 230.5044 229.086318 
L 230.74248 229.057157 
L 230.98056 228.357381 
L 231.6948 227.621567 
L 231.93288 228.472813 
L 232.40904 228.698712 
L 232.64712 228.572954 
L 232.8852 229.339266 
L 233.12328 228.426655 
L 233.36136 228.358732 
L 234.0756 230.13956 
L 234.31368 230.180099 
L 234.55176 230.557415 
L 234.78984 230.501328 
L 235.02792 230.833049 
L 235.266 230.537704 
L 235.50408 230.912979 
L 235.74216 230.925653 
L 235.98024 230.409273 
L 236.21832 229.036248 
L 236.4564 229.592719 
L 236.69448 229.839657 
L 236.93256 230.288064 
L 237.17064 229.862036 
L 237.40872 230.477313 
L 237.6468 230.726311 
L 237.88488 230.734415 
L 238.36104 231.724112 
L 238.59912 231.956279 
L 239.07528 233.677092 
L 239.31336 233.861245 
L 239.55144 233.786918 
L 239.78952 233.865748 
L 240.0276 234.671152 
L 240.26568 234.869255 
L 240.74184 234.261642 
L 240.97992 234.290667 
L 241.218 234.682439 
L 241.45608 234.398264 
L 241.69416 234.650365 
L 242.17032 235.498811 
L 242.4084 234.880151 
L 242.64648 234.777953 
L 242.88456 234.263645 
L 243.12264 234.47262 
L 243.36072 234.049052 
L 243.5988 234.315581 
L 243.83688 234.37979 
L 244.07496 233.262678 
L 244.31304 232.895117 
L 244.55112 233.128039 
L 244.7892 233.161491 
L 245.02728 233.000634 
L 245.26536 232.417708 
L 245.50344 232.649684 
L 245.74152 233.484701 
L 245.9796 233.608356 
L 246.45576 233.537366 
L 246.69384 232.919025 
L 246.93192 232.760974 
L 247.17 232.363078 
L 247.40808 232.895191 
L 247.64616 232.473354 
L 247.88424 231.44519 
L 248.12232 231.044573 
L 248.59848 230.818535 
L 248.83656 229.87772 
L 249.07464 230.372825 
L 249.31272 230.424384 
L 249.78888 229.766297 
L 250.02696 229.996774 
L 250.26504 229.823269 
L 250.50312 229.96661 
L 250.7412 229.893869 
L 250.97928 229.957788 
L 251.21736 230.567244 
L 251.45544 230.570923 
L 251.69352 230.100716 
L 251.9316 230.612916 
L 252.16968 230.732442 
L 252.40776 230.376599 
L 252.64584 230.937903 
L 252.88392 230.835622 
L 253.122 231.381565 
L 253.36008 230.795279 
L 253.83624 228.461581 
L 254.07432 228.578924 
L 254.3124 228.149092 
L 254.78856 228.003363 
L 255.02664 227.094305 
L 255.26472 227.879031 
L 255.5028 227.253775 
L 255.74088 227.274603 
L 255.97896 226.424578 
L 256.21704 226.300629 
L 256.45512 226.707694 
L 256.6932 226.530155 
L 256.93128 226.070134 
L 257.16936 226.039041 
L 257.40744 225.725835 
L 257.64552 226.045751 
L 257.8836 227.367513 
L 258.35976 226.390103 
L 258.83592 226.239026 
L 259.074 225.588334 
L 259.78824 226.410979 
L 260.02632 225.670024 
L 260.2644 226.537081 
L 260.50248 225.797668 
L 260.74056 226.190745 
L 260.97864 226.864951 
L 261.21672 226.092566 
L 261.4548 226.144081 
L 261.69288 226.943339 
L 261.93096 227.151647 
L 262.40712 225.846096 
L 262.6452 226.105344 
L 262.88328 225.843696 
L 263.12136 225.38649 
L 263.35944 225.788445 
L 263.59752 225.55623 
L 263.8356 225.567473 
L 264.31176 226.197743 
L 264.78792 226.120048 
L 265.26408 226.716106 
L 265.50216 226.029101 
L 265.74024 225.886871 
L 266.45448 224.1511 
L 266.69256 222.634435 
L 266.93064 223.198934 
L 267.16872 222.636359 
L 267.4068 222.847905 
L 267.88296 220.322608 
L 268.12104 221.767871 
L 268.35912 222.449827 
L 269.07336 220.862239 
L 269.31144 220.903846 
L 269.7876 220.066407 
L 270.02568 220.114228 
L 270.26376 219.333796 
L 270.50184 221.053582 
L 270.73992 220.580946 
L 270.978 221.335144 
L 271.21608 220.631333 
L 271.45416 220.789752 
L 271.69224 221.432655 
L 271.93032 221.152718 
L 272.40648 222.446457 
L 272.64456 223.53351 
L 272.88264 223.542015 
L 273.12072 223.196264 
L 273.3588 222.486846 
L 273.59688 222.576034 
L 273.83496 221.835661 
L 274.31112 221.869234 
L 274.5492 221.450703 
L 274.78728 220.677379 
L 275.26344 221.086886 
L 275.50152 221.193785 
L 275.7396 221.123381 
L 275.97768 221.768554 
L 276.21576 221.024167 
L 276.45384 221.30617 
L 276.69192 220.96108 
L 276.93 221.554495 
L 277.40616 220.992454 
L 277.64424 221.289531 
L 277.88232 219.815266 
L 278.1204 219.524178 
L 278.59656 217.389866 
L 279.07272 218.206007 
L 279.3108 217.85038 
L 279.78696 217.739526 
L 280.02504 217.957108 
L 280.26312 219.383845 
L 280.5012 219.545454 
L 280.73928 221.223653 
L 280.97736 220.943507 
L 281.45352 221.969906 
L 281.6916 222.115573 
L 281.92968 221.912818 
L 283.12008 226.726104 
L 283.35816 225.748458 
L 283.59624 226.405046 
L 283.83432 225.995118 
L 284.0724 226.843038 
L 284.31048 226.653002 
L 284.54856 226.839617 
L 284.78664 226.867326 
L 285.02472 226.514006 
L 285.2628 225.427673 
L 285.73896 225.206139 
L 285.97704 225.821347 
L 286.21512 225.445944 
L 286.4532 225.593515 
L 286.69128 225.057782 
L 286.92936 225.076837 
L 287.16744 223.946439 
L 287.40552 225.26174 
L 287.6436 225.442564 
L 287.88168 224.872639 
L 288.11976 225.09087 
L 288.35784 225.591769 
L 288.59592 225.751165 
L 288.834 226.611334 
L 289.07208 226.529939 
L 289.31016 225.024586 
L 289.54824 224.276675 
L 290.0244 225.55527 
L 290.26248 225.802882 
L 290.50056 225.162515 
L 290.97672 226.107864 
L 291.45288 224.991307 
L 291.69096 225.223625 
L 292.4052 227.30703 
L 292.64328 228.629753 
L 292.88136 228.195263 
L 293.11944 228.551216 
L 293.35752 228.268619 
L 293.83368 226.471992 
L 294.07176 227.170682 
L 294.54792 225.924924 
L 295.02408 226.962254 
L 295.26216 227.019977 
L 295.50024 227.97692 
L 295.73832 227.111857 
L 295.9764 228.54882 
L 296.21448 229.172132 
L 296.69064 229.432476 
L 297.1668 229.174858 
L 297.40488 229.285997 
L 297.64296 228.647392 
L 297.88104 229.855288 
L 298.11912 229.847702 
L 298.3572 230.22797 
L 298.83336 230.023511 
L 299.30952 230.839032 
L 299.5476 230.418027 
L 299.78568 230.225242 
L 300.02376 230.581534 
L 300.49992 228.219842 
L 300.738 229.056144 
L 300.97608 228.879317 
L 301.21416 227.457683 
L 301.45224 226.983969 
L 301.69032 226.84199 
L 301.9284 226.95963 
L 302.16648 227.278055 
L 302.40456 227.396564 
L 302.64264 227.715776 
L 302.88072 227.269362 
L 303.35688 227.751942 
L 303.59496 228.449731 
L 303.83304 228.470026 
L 304.07112 228.973482 
L 304.3092 229.067022 
L 304.54728 228.476259 
L 305.4996 227.700782 
L 305.97576 227.939774 
L 306.21384 227.488678 
L 306.45192 228.123181 
L 306.69 227.338065 
L 306.92808 227.309319 
L 307.64232 228.412165 
L 307.8804 228.312202 
L 308.11848 228.717161 
L 308.35656 228.061693 
L 308.59464 228.507443 
L 308.83272 229.797719 
L 309.0708 230.187658 
L 309.30888 231.256017 
L 309.54696 231.269215 
L 310.02312 230.371777 
L 310.49928 231.462222 
L 310.73736 230.550331 
L 310.97544 230.374692 
L 311.21352 230.364983 
L 311.4516 229.795716 
L 311.92776 227.70339 
L 312.16584 227.61304 
L 312.40392 227.395319 
L 312.642 227.019792 
L 312.88008 227.380653 
L 313.11816 228.002418 
L 313.35624 227.963659 
L 313.59432 228.507511 
L 314.07048 228.471612 
L 314.30856 227.124242 
L 314.54664 227.626948 
L 315.0228 227.778853 
L 315.26088 227.513948 
L 315.49896 226.885487 
L 315.73704 227.174024 
L 315.97512 227.658038 
L 316.45128 229.135625 
L 316.68936 228.828398 
L 316.92744 228.794646 
L 317.16552 229.360612 
L 317.4036 229.559014 
L 317.64168 229.53397 
L 317.87976 229.249401 
L 318.11784 229.571227 
L 318.35592 229.700898 
L 318.83208 231.283242 
L 319.07016 230.447006 
L 319.30824 231.599625 
L 319.54632 231.76331 
L 319.7844 231.646113 
L 320.02248 231.827926 
L 320.26056 232.22564 
L 320.9748 232.277687 
L 321.21288 233.193351 
L 321.45096 233.25624 
L 321.92712 233.898618 
L 322.1652 233.788436 
L 322.64136 233.063454 
L 322.87944 233.292379 
L 323.3556 232.282419 
L 323.83176 231.010595 
L 324.30792 231.161443 
L 324.546 230.729235 
L 324.78408 231.438149 
L 325.02216 231.324316 
L 325.49832 231.767941 
L 325.7364 232.635363 
L 325.97448 233.059333 
L 326.21256 233.062348 
L 326.68872 232.148073 
L 327.16488 232.267193 
L 327.40296 232.668579 
L 327.64104 232.467386 
L 327.87912 232.581146 
L 328.1172 232.280487 
L 328.35528 231.412954 
L 328.59336 231.422247 
L 329.06952 232.595758 
L 329.54568 233.851233 
L 329.78376 233.246983 
L 330.02184 233.133617 
L 330.25992 233.846259 
L 330.498 233.540369 
L 330.73608 232.948275 
L 330.97416 233.113232 
L 331.45032 233.577642 
L 331.6884 233.439091 
L 331.92648 233.133809 
L 333.11688 230.31801 
L 333.35496 231.126325 
L 333.59304 231.186578 
L 333.83112 231.017792 
L 334.0692 231.208953 
L 334.30728 230.733277 
L 334.54536 230.914657 
L 334.78344 231.388932 
L 335.02152 230.644832 
L 335.2596 230.287084 
L 335.49768 230.162549 
L 336.21192 228.870501 
L 336.45 230.247733 
L 337.16424 231.340682 
L 337.40232 231.231883 
L 337.6404 230.612384 
L 337.87848 230.860324 
L 338.11656 231.44467 
L 338.35464 230.405161 
L 338.59272 230.637396 
L 338.8308 231.278673 
L 339.30696 230.922973 
L 339.54504 231.282305 
L 339.78312 230.869979 
L 340.0212 231.116604 
L 340.25928 231.58553 
L 340.49736 231.488001 
L 340.73544 231.089187 
L 340.97352 231.409305 
L 341.2116 231.233553 
L 341.44968 231.274298 
L 341.68776 229.819148 
L 341.92584 230.196565 
L 342.16392 229.447774 
L 342.64008 229.530885 
L 343.11624 228.619556 
L 343.35432 227.890641 
L 343.5924 227.690308 
L 344.06856 228.339748 
L 344.54472 227.692744 
L 344.7828 226.861513 
L 345.02088 226.599269 
L 345.73512 224.868421 
L 346.44936 227.427051 
L 346.68744 226.47285 
L 346.92552 226.984883 
L 347.1636 226.232774 
L 347.40168 225.861104 
L 347.87784 224.114262 
L 348.59208 224.230576 
L 348.83016 224.105181 
L 349.06824 224.448574 
L 349.30632 224.460727 
L 349.5444 223.393833 
L 349.78248 224.54134 
L 350.02056 224.362641 
L 350.25864 224.951229 
L 350.49672 224.821113 
L 350.7348 224.266418 
L 350.97288 224.295164 
L 351.21096 223.77512 
L 351.44904 224.833541 
L 351.68712 224.105631 
L 351.9252 224.497134 
L 352.16328 224.079303 
L 352.40136 223.948518 
L 352.63944 225.666323 
L 352.87752 226.134919 
L 353.1156 225.989047 
L 353.35368 225.009363 
L 353.82984 224.63819 
L 354.06792 225.552007 
L 354.54408 223.445567 
L 354.78216 223.416574 
L 355.02024 223.556253 
L 355.25832 224.641746 
L 355.4964 224.055405 
L 355.73448 222.246893 
L 355.97256 221.731991 
L 356.21064 220.818258 
L 356.44872 220.409741 
L 356.6868 221.131203 
L 356.92488 220.148078 
L 357.16296 221.061764 
L 357.40104 221.205083 
L 357.63912 220.992301 
L 357.8772 220.336781 
L 358.35336 219.715172 
L 358.59144 220.281541 
L 358.82952 221.23264 
L 359.0676 221.177764 
L 359.30568 221.683665 
L 359.78184 223.481815 
L 360.01992 223.804504 
L 360.49608 225.898155 
L 360.73416 226.913999 
L 360.97224 226.79515 
L 361.21032 226.538645 
L 361.4484 225.299411 
L 361.68648 226.24786 
L 361.92456 226.659951 
L 362.16264 226.09415 
L 362.6388 226.414215 
L 362.87688 225.353116 
L 363.11496 225.560075 
L 363.59112 227.08974 
L 364.06728 226.685845 
L 364.54344 228.08929 
L 365.0196 227.423716 
L 365.25768 227.797589 
L 365.73384 227.076178 
L 365.97192 228.140531 
L 366.21 228.313061 
L 366.44808 228.066038 
L 366.68616 228.390606 
L 366.92424 229.609824 
L 367.16232 229.757151 
L 367.4004 229.339693 
L 367.63848 228.456834 
L 367.87656 229.702746 
L 368.11464 228.268226 
L 368.35272 228.909758 
L 369.30504 226.959673 
L 369.54312 227.652812 
L 369.7812 227.275146 
L 370.01928 227.694026 
L 370.25736 229.170518 
L 370.49544 227.5862 
L 370.73352 227.159447 
L 370.9716 226.060256 
L 371.20968 226.619602 
L 371.92392 223.679425 
L 372.162 223.684184 
L 372.40008 224.48469 
L 372.63816 224.591838 
L 373.11432 227.0773 
L 373.3524 227.013475 
L 373.59048 227.60278 
L 374.06664 227.747374 
L 374.5428 225.802465 
L 374.78088 225.821786 
L 375.01896 225.053349 
L 375.25704 225.546837 
L 375.49512 225.751506 
L 375.7332 225.169349 
L 375.97128 225.957587 
L 376.20936 226.123222 
L 376.44744 226.935868 
L 376.68552 226.856285 
L 376.9236 225.857827 
L 377.16168 226.320919 
L 377.39976 226.172655 
L 377.87592 227.4127 
L 378.114 228.139068 
L 378.35208 227.288369 
L 378.59016 225.869104 
L 378.82824 225.557221 
L 379.06632 226.002323 
L 379.3044 225.553308 
L 379.54248 225.756302 
L 379.78056 225.242765 
L 380.25672 224.857849 
L 380.4948 224.454706 
L 380.97096 225.07973 
L 381.20904 226.179174 
L 381.44712 226.444672 
L 381.6852 227.310831 
L 381.92328 227.388725 
L 382.16136 227.950157 
L 382.39944 227.882875 
L 382.63752 227.609655 
L 383.11368 228.897425 
L 383.35176 229.420599 
L 383.58984 229.000761 
L 384.066 227.532546 
L 384.30408 227.731032 
L 384.54216 226.861592 
L 384.78024 227.770933 
L 385.01832 226.882582 
L 385.2564 227.271547 
L 385.49448 228.924447 
L 385.97064 226.479271 
L 386.20872 227.104522 
L 386.4468 226.994432 
L 386.68488 227.115333 
L 386.92296 227.045415 
L 387.16104 227.930343 
L 387.39912 228.319789 
L 387.87528 227.904782 
L 388.11336 227.196032 
L 388.35144 227.139776 
L 388.58952 225.720953 
L 388.8276 226.163262 
L 389.06568 225.993419 
L 389.54184 227.924346 
L 389.77992 227.140634 
L 390.018 227.69813 
L 390.25608 227.377507 
L 390.49416 227.40586 
L 390.73224 228.018639 
L 391.2084 228.501828 
L 391.44648 228.772251 
L 391.92264 227.954747 
L 392.3988 228.797593 
L 392.63688 228.63003 
L 392.87496 228.678869 
L 393.11304 228.087093 
L 393.35112 226.538167 
L 393.5892 226.012697 
L 394.06536 226.124076 
L 395.01768 228.009581 
L 395.25576 228.249902 
L 395.49384 227.812768 
L 395.97 228.144872 
L 395.97 228.144872 
" clip-path="url(#p4224a222fc)" style="fill: none; stroke: #d55e00; stroke-width: 1.8; stroke-linecap: square"/>
   </g>
   <g id="line2d_19">
    <path d="M 38.85 246.910303 
L 39.56424 246.89826 
L 40.27848 247.307618 
L 40.51656 247.294803 
L 40.75464 247.060786 
L 41.2308 247.252447 
L 41.94504 247.078628 
L 42.18312 247.24116 
L 42.4212 247.243788 
L 42.65928 247.120437 
L 42.89736 247.355177 
L 43.13544 247.431236 
L 43.84968 248.249849 
L 44.08776 248.28355 
L 44.32584 248.473819 
L 45.04008 248.432017 
L 45.27816 248.804066 
L 45.75432 248.882691 
L 45.9924 248.864962 
L 46.23048 249.076412 
L 47.65896 249.340406 
L 47.89704 249.224142 
L 48.3732 249.31194 
L 48.84936 249.285584 
L 49.08744 249.443678 
L 49.32552 249.432193 
L 49.5636 249.257213 
L 49.80168 249.45828 
L 50.27784 249.330182 
L 50.51592 249.41149 
L 50.99208 249.050322 
L 51.23016 249.210966 
L 51.9444 249.144441 
L 52.89672 248.766706 
L 53.1348 248.860354 
L 53.84904 248.873369 
L 54.3252 249.113545 
L 54.56328 249.137978 
L 55.03944 248.857938 
L 55.5156 249.146719 
L 55.75368 249.058468 
L 55.99176 249.326277 
L 56.46792 249.395194 
L 56.94408 249.139541 
L 57.65832 249.259547 
L 57.8964 249.057944 
L 58.37256 249.152833 
L 58.84872 249.118253 
L 59.0868 249.142813 
L 59.32488 249.289747 
L 60.03912 249.192843 
L 60.75336 249.014051 
L 60.99144 249.058453 
L 61.22952 248.914107 
L 62.18184 248.959962 
L 62.658 249.458061 
L 63.37224 249.584565 
L 63.61032 249.303976 
L 64.08648 249.488398 
L 65.51496 249.281483 
L 65.99112 249.422993 
L 66.2292 249.416683 
L 66.46728 249.549614 
L 66.70536 249.515379 
L 66.94344 249.621431 
L 67.4196 249.47363 
L 67.89576 249.533712 
L 68.13384 249.546801 
L 68.61 249.928581 
L 68.84808 249.884506 
L 69.08616 250.133695 
L 69.32424 250.036804 
L 69.56232 250.235323 
L 69.8004 250.15021 
L 70.03848 250.243501 
L 70.51464 250.139805 
L 70.75272 250.311011 
L 71.46696 250.016861 
L 73.3716 250.26941 
L 73.60968 250.408008 
L 73.84776 250.272311 
L 74.08584 250.287652 
L 74.562 250.177467 
L 75.27624 250.347483 
L 75.99048 250.414777 
L 76.46664 250.642289 
L 76.70472 250.472505 
L 77.41896 250.614094 
L 77.65704 250.468576 
L 77.89512 250.620429 
L 78.37128 250.703218 
L 78.60936 250.878752 
L 79.08552 250.807186 
L 80.03784 250.877409 
L 80.514 250.995481 
L 80.75208 251.108808 
L 80.99016 250.984799 
L 81.46632 251.002788 
L 83.37096 250.957285 
L 83.84712 250.852943 
L 84.56136 250.947966 
L 85.03752 250.866835 
L 87.41832 250.336624 
L 87.89448 249.962915 
L 88.37064 250.284222 
L 88.60872 250.193329 
L 89.08488 250.304538 
L 89.32296 250.211516 
L 89.79912 250.616693 
L 90.75144 250.601161 
L 92.17992 251.054685 
L 93.13224 251.170549 
L 93.6084 251.337124 
L 95.75112 251.198112 
L 96.22728 251.366223 
L 96.70344 251.306774 
L 97.65576 251.221304 
L 98.13192 251.47482 
L 98.84616 251.939002 
L 99.32232 251.834229 
L 99.79848 251.99197 
L 100.27464 251.895367 
L 103.36968 251.880896 
L 103.60776 251.979841 
L 104.08392 251.740182 
L 104.56008 251.714365 
L 104.79816 251.683319 
L 105.03624 251.890476 
L 105.75048 251.866765 
L 106.22664 251.966231 
L 106.7028 251.890039 
L 107.8932 251.817521 
L 108.13128 251.956046 
L 108.84552 251.69169 
L 109.55976 251.608779 
L 110.274 251.637919 
L 110.75016 251.467391 
L 114.32136 251.628057 
L 115.51176 251.65661 
L 115.74984 251.533124 
L 117.17832 251.630629 
L 117.4164 251.46661 
L 118.6068 251.663294 
L 118.84488 251.750846 
L 119.08296 251.649591 
L 119.32104 251.72126 
L 120.74952 251.289562 
L 121.46376 251.452264 
L 121.93992 251.240957 
L 122.65416 251.439103 
L 123.84456 251.407895 
L 124.79688 251.352853 
L 125.27304 251.134762 
L 125.51112 251.128373 
L 125.7492 251.281301 
L 125.98728 251.245827 
L 126.46344 251.536794 
L 127.17768 251.415736 
L 127.65384 251.58991 
L 128.13 251.591771 
L 128.36808 251.406306 
L 128.84424 251.452329 
L 129.3204 251.553616 
L 130.03464 251.65001 
L 130.27272 251.741406 
L 130.98696 251.476237 
L 131.7012 251.480819 
L 132.41544 251.645745 
L 132.65352 251.760824 
L 133.12968 251.711783 
L 133.84392 251.752375 
L 134.32008 251.798029 
L 135.2724 251.696503 
L 135.74856 251.862679 
L 136.22472 251.763577 
L 136.4628 251.910583 
L 137.17704 251.655527 
L 137.89128 251.795694 
L 138.12936 251.598472 
L 138.36744 251.611618 
L 138.60552 251.481539 
L 139.55784 251.687358 
L 139.79592 251.607918 
L 140.034 251.708526 
L 140.51016 251.594074 
L 141.2244 251.752134 
L 141.93864 251.858573 
L 142.4148 251.957109 
L 142.89096 252.053788 
L 143.12904 251.989352 
L 143.6052 252.099018 
L 144.55752 252.187149 
L 144.7956 252.082782 
L 145.27176 252.109245 
L 147.41448 252.181111 
L 147.65256 252.113871 
L 149.31912 252.445825 
L 149.5572 252.374696 
L 150.50952 252.652895 
L 150.98568 252.676916 
L 151.69992 252.727232 
L 152.17608 252.757122 
L 152.65224 252.92633 
L 153.1284 252.8433 
L 154.55688 252.769211 
L 155.27112 252.982176 
L 155.98536 252.949348 
L 156.46152 253.039541 
L 156.6996 252.96798 
L 156.93768 253.115101 
L 157.65192 253.089969 
L 158.60424 253.273698 
L 159.31848 253.188522 
L 160.98504 253.391365 
L 161.69928 253.338085 
L 162.17544 253.259912 
L 163.60392 253.404094 
L 164.55624 253.377111 
L 167.65128 253.687619 
L 169.07976 253.759727 
L 171.46056 253.844296 
L 175.26984 253.772778 
L 175.746 253.848749 
L 176.46024 253.960322 
L 177.88872 253.81494 
L 180.5076 253.803901 
L 181.45992 253.74882 
L 182.41224 253.822608 
L 183.12648 253.881394 
L 185.98344 254.037694 
L 190.98312 253.685097 
L 191.69736 253.760834 
L 192.88776 253.765491 
L 193.602 253.753305 
L 194.07816 253.746438 
L 195.03048 253.769204 
L 199.554 253.651145 
L 200.26824 253.707906 
L 205.26792 253.698069 
L 205.74408 253.629987 
L 206.45832 253.576909 
L 209.0772 253.38622 
L 210.74376 253.538335 
L 210.98184 253.630937 
L 212.17224 253.446172 
L 212.88648 253.605244 
L 216.2196 253.781418 
L 216.93384 253.635086 
L 217.64808 253.60708 
L 221.69544 253.564065 
L 222.1716 253.528946 
L 225.50472 253.554055 
L 227.17128 253.737329 
L 227.64744 253.686426 
L 228.59976 253.843565 
L 229.07592 253.849919 
L 229.55208 253.893157 
L 230.98056 253.815139 
L 232.40904 253.835619 
L 233.59944 253.856486 
L 234.31368 253.924502 
L 235.74216 253.969236 
L 236.69448 253.904076 
L 240.26568 254.205852 
L 241.45608 254.177592 
L 243.12264 254.182054 
L 244.7892 254.103386 
L 251.21736 253.947731 
L 253.59816 253.888422 
L 254.3124 253.802642 
L 265.026 253.701475 
L 265.74024 253.666909 
L 268.12104 253.419769 
L 268.5972 253.432198 
L 270.26376 253.273724 
L 270.50184 253.376911 
L 271.45416 253.361081 
L 272.88264 253.526217 
L 275.7396 253.381099 
L 276.45384 253.392067 
L 280.02504 253.191123 
L 280.73928 253.387116 
L 281.45352 253.431891 
L 282.40584 253.560759 
L 283.59624 253.697999 
L 284.31048 253.712876 
L 285.02472 253.704537 
L 285.50088 253.631379 
L 288.59592 253.658766 
L 289.07208 253.705493 
L 289.54824 253.570297 
L 290.26248 253.661869 
L 290.73864 253.65456 
L 291.2148 253.646609 
L 291.69096 253.627114 
L 293.11944 253.826769 
L 295.26216 253.734895 
L 296.21448 253.864024 
L 300.02376 253.948588 
L 300.738 253.857065 
L 303.83304 253.821898 
L 304.54728 253.822272 
L 307.16616 253.778556 
L 310.97544 253.936178 
L 311.4516 253.901439 
L 312.16584 253.770479 
L 313.35624 253.791516 
L 314.07048 253.821993 
L 314.54664 253.771313 
L 318.35592 253.89575 
L 318.83208 253.990691 
L 319.07016 253.940517 
L 319.54632 254.019495 
L 320.9748 254.050358 
L 321.68904 254.132816 
L 322.87944 254.111239 
L 324.78408 253.999985 
L 325.7364 254.071818 
L 326.45064 254.071729 
L 327.16488 254.049728 
L 328.1172 254.050526 
L 328.59336 253.999031 
L 329.54568 254.14477 
L 330.25992 254.144472 
L 333.83112 253.974764 
L 335.02152 253.952386 
L 336.45 253.92856 
L 338.11656 254.000377 
L 338.59272 253.95194 
L 339.30696 253.969075 
L 340.49736 254.002976 
L 343.5924 253.775115 
L 344.54472 253.775261 
L 345.73512 253.605802 
L 346.44936 253.759319 
L 347.1636 253.687663 
L 349.5444 253.517326 
L 350.25864 253.61077 
L 352.40136 253.550607 
L 352.87752 253.681791 
L 355.4964 253.557021 
L 355.97256 253.417616 
L 356.44872 253.338281 
L 357.16296 253.377402 
L 358.11528 253.314685 
L 358.59144 253.330589 
L 359.78184 253.522605 
L 360.49608 253.667586 
L 360.97224 253.721405 
L 363.11496 253.647301 
L 364.54344 253.799054 
L 365.73384 253.738267 
L 366.21 253.81248 
L 366.68616 253.817133 
L 367.16232 253.899125 
L 369.30504 253.731277 
L 370.25736 253.863927 
L 370.9716 253.677312 
L 371.44776 253.656522 
L 372.162 253.534747 
L 373.82856 253.775189 
L 374.30472 253.709988 
L 375.01896 253.616897 
L 376.68552 253.725073 
L 377.16168 253.692951 
L 377.87592 253.758458 
L 378.35208 253.750998 
L 378.82824 253.64713 
L 379.54248 253.659074 
L 380.73288 253.603275 
L 384.30408 253.777558 
L 385.01832 253.726651 
L 385.73256 253.759224 
L 386.20872 253.739968 
L 389.30376 253.744594 
L 390.018 253.775584 
L 390.97032 253.806476 
L 392.87496 253.834428 
L 394.30344 253.712579 
L 395.49384 253.782462 
L 395.97 253.802389 
L 395.97 253.802389 
" clip-path="url(#p4224a222fc)" style="fill: none; stroke: #0072b2; stroke-width: 1.8; stroke-linecap: square"/>
   </g>
   <g id="patch_3">
    <path d="M 38.85 265.331625 
L 38.85 21.395625 
" style="fill: none; stroke: #1f2328; stroke-width: 0.8; stroke-linejoin: miter; stroke-linecap: square"/>
   </g>
   <g id="patch_4">
    <path d="M 38.85 265.331625 
L 395.97 265.331625 
" style="fill: none; stroke: #1f2328; stroke-width: 0.8; stroke-linejoin: miter; stroke-linecap: square"/>
   </g>
   <g id="text_19">
    <!-- trend $e^{r^\ast t}$ -->
    <g style="fill: #9aa3ad" transform="translate(288.834 25.667218) scale(0.1 -0.1)">
     <defs>
      <path id="STIXGeneral-Regular-72" d="M 1024 2931 
L 1024 2342 
Q 1267 2688 1430 2816 
Q 1594 2944 1792 2944 
Q 1958 2944 2051 2854 
Q 2144 2765 2144 2605 
Q 2144 2470 2077 2393 
Q 2010 2317 1894 2317 
Q 1773 2317 1638 2445 
Q 1536 2541 1472 2541 
Q 1338 2541 1181 2355 
Q 1024 2170 1024 2016 
L 1024 576 
Q 1024 301 1133 205 
Q 1242 109 1568 96 
L 1568 0 
L 32 0 
L 32 96 
Q 339 154 412 224 
Q 486 294 486 538 
L 486 2138 
Q 486 2349 438 2435 
Q 390 2522 269 2522 
Q 166 2522 45 2496 
L 45 2598 
Q 448 2726 992 2944 
L 1024 2931 
z
" transform="scale(0.015625)"/>
      <path id="STIXGeneral-Regular-64" d="M 3142 269 
L 2202 -64 
L 2176 -45 
L 2176 365 
Q 1869 -64 1357 -64 
Q 826 -64 499 317 
Q 173 698 173 1312 
Q 173 1990 563 2467 
Q 954 2944 1504 2944 
Q 1850 2944 2176 2669 
L 2176 3667 
Q 2176 3866 2118 3930 
Q 2061 3994 1882 3994 
Q 1792 3994 1741 3987 
L 1741 4090 
Q 2323 4243 2682 4371 
L 2714 4358 
L 2714 730 
Q 2714 506 2768 435 
Q 2822 365 2995 365 
Q 3034 365 3142 371 
L 3142 269 
z
M 2176 653 
L 2176 2125 
Q 2176 2381 1981 2573 
Q 1786 2765 1523 2765 
Q 1158 2765 940 2438 
Q 723 2112 723 1568 
Q 723 979 963 624 
Q 1203 269 1606 269 
Q 1907 269 2080 474 
Q 2176 582 2176 653 
z
" transform="scale(0.015625)"/>
      <path id="Cmmi10-65" d="M 1288 -72 
Q 981 -72 751 87 
Q 522 247 401 517 
Q 281 788 281 1088 
Q 281 1544 511 1945 
Q 741 2347 1134 2587 
Q 1528 2828 1978 2828 
Q 2253 2828 2458 2686 
Q 2663 2544 2663 2278 
Q 2663 1909 2369 1729 
Q 2075 1550 1706 1508 
Q 1338 1466 891 1466 
L 872 1466 
Q 769 1084 769 813 
Q 769 528 900 312 
Q 1031 97 1300 97 
Q 1681 97 2032 272 
Q 2384 447 2606 756 
Q 2625 775 2656 775 
Q 2688 775 2720 739 
Q 2753 703 2753 672 
Q 2753 647 2741 634 
Q 2506 306 2109 117 
Q 1713 -72 1288 -72 
z
M 909 1631 
Q 1281 1631 1597 1665 
Q 1913 1700 2169 1839 
Q 2425 1978 2425 2272 
Q 2425 2391 2359 2480 
Q 2294 2569 2189 2616 
Q 2084 2663 1972 2663 
Q 1700 2663 1483 2516 
Q 1266 2369 1125 2133 
Q 984 1897 909 1631 
z
" transform="scale(0.015625)"/>
      <path id="Cmmi10-72" d="M 494 109 
Q 494 147 500 166 
L 978 2075 
Q 1025 2253 1025 2388 
Q 1025 2663 838 2663 
Q 638 2663 541 2423 
Q 444 2184 353 1819 
Q 353 1800 334 1789 
Q 316 1778 300 1778 
L 225 1778 
Q 203 1778 187 1801 
Q 172 1825 172 1844 
Q 241 2122 305 2315 
Q 369 2509 505 2668 
Q 641 2828 844 2828 
Q 1066 2828 1233 2700 
Q 1400 2572 1441 2363 
Q 1603 2575 1811 2701 
Q 2019 2828 2266 2828 
Q 2469 2828 2623 2709 
Q 2778 2591 2778 2388 
Q 2778 2225 2676 2104 
Q 2575 1984 2406 1984 
Q 2303 1984 2233 2048 
Q 2163 2113 2163 2216 
Q 2163 2356 2266 2467 
Q 2369 2578 2503 2578 
Q 2400 2663 2253 2663 
Q 1978 2663 1775 2467 
Q 1572 2272 1409 1972 
L 953 141 
Q 931 53 854 -9 
Q 778 -72 684 -72 
Q 606 -72 550 -22 
Q 494 28 494 109 
z
" transform="scale(0.015625)"/>
      <path id="Cmsy10-a4" d="M 603 813 
Q 531 813 473 873 
Q 416 934 416 1006 
Q 416 1116 506 1159 
L 1428 1600 
L 506 2034 
Q 416 2072 416 2188 
Q 416 2259 473 2320 
Q 531 2381 603 2381 
Q 650 2381 691 2350 
L 1509 1753 
L 1416 2797 
Q 1416 2875 1469 2925 
Q 1522 2975 1600 2975 
Q 1675 2975 1726 2928 
Q 1778 2881 1778 2809 
L 1778 2797 
L 1684 1753 
L 2503 2350 
Q 2544 2381 2591 2381 
Q 2669 2381 2723 2320 
Q 2778 2259 2778 2188 
Q 2778 2072 2688 2034 
L 1766 1600 
L 2688 1159 
Q 2778 1116 2778 1006 
Q 2778 934 2723 873 
Q 2669 813 2591 813 
Q 2544 813 2503 844 
L 1684 1441 
L 1778 403 
L 1778 384 
Q 1778 313 1723 266 
Q 1669 219 1600 219 
Q 1525 219 1470 270 
Q 1416 322 1416 397 
L 1509 1441 
L 691 844 
Q 650 813 603 813 
z
" transform="scale(0.015625)"/>
     </defs>
     <use xlink:href="#STIXGeneral-Regular-74" transform="translate(0 0.17375)"/>
     <use xlink:href="#STIXGeneral-Regular-72" transform="translate(27.799988 0.17375)"/>
     <use xlink:href="#STIXGeneral-Regular-65" transform="translate(61.099976 0.17375)"/>
     <use xlink:href="#STIXGeneral-Regular-6e" transform="translate(105.499969 0.17375)"/>
     <use xlink:href="#STIXGeneral-Regular-64" transform="translate(155.499954 0.17375)"/>
     <use xlink:href="#STIXGeneral-Regular-20" transform="translate(205.499939 0.17375)"/>
     <use xlink:href="#Cmmi10-65" transform="translate(230.499924 0.17375)"/>
     <use xlink:href="#Cmmi10-72" transform="translate(283.28758 38.437813) scale(0.7)"/>
     <use xlink:href="#Cmsy10-a4" transform="translate(327.885619 65.222656) scale(0.49)"/>
     <use xlink:href="#Cmmi10-74" transform="translate(365.453471 38.437813) scale(0.7)"/>
    </g>
   </g>
   <g id="text_20">
    <!-- wealth $x(t)$ -->
    <g style="fill: #d55e00" transform="translate(324.546 186.181927) scale(0.1 -0.1)">
     <defs>
      <path id="Cmmi10-78" d="M 500 184 
Q 613 97 819 97 
Q 1019 97 1172 289 
Q 1325 481 1381 709 
L 1672 1844 
Q 1741 2153 1741 2266 
Q 1741 2425 1652 2544 
Q 1563 2663 1403 2663 
Q 1200 2663 1022 2536 
Q 844 2409 722 2214 
Q 600 2019 550 1819 
Q 538 1778 500 1778 
L 422 1778 
Q 372 1778 372 1838 
L 372 1856 
Q 434 2094 584 2320 
Q 734 2547 951 2687 
Q 1169 2828 1416 2828 
Q 1650 2828 1839 2703 
Q 2028 2578 2106 2363 
Q 2216 2559 2386 2693 
Q 2556 2828 2759 2828 
Q 2897 2828 3040 2779 
Q 3184 2731 3275 2631 
Q 3366 2531 3366 2381 
Q 3366 2219 3261 2101 
Q 3156 1984 2994 1984 
Q 2891 1984 2822 2050 
Q 2753 2116 2753 2216 
Q 2753 2350 2845 2451 
Q 2938 2553 3066 2572 
Q 2950 2663 2747 2663 
Q 2541 2663 2389 2472 
Q 2238 2281 2175 2047 
L 1894 916 
Q 1825 659 1825 494 
Q 1825 331 1917 214 
Q 2009 97 2163 97 
Q 2463 97 2698 361 
Q 2934 625 3009 941 
Q 3022 978 3059 978 
L 3138 978 
Q 3163 978 3178 961 
Q 3194 944 3194 922 
Q 3194 916 3188 903 
Q 3097 522 2806 225 
Q 2516 -72 2150 -72 
Q 1916 -72 1727 54 
Q 1538 181 1459 397 
Q 1359 209 1182 68 
Q 1006 -72 806 -72 
Q 669 -72 523 -23 
Q 378 25 287 125 
Q 197 225 197 378 
Q 197 528 301 651 
Q 406 775 563 775 
Q 669 775 741 711 
Q 813 647 813 544 
Q 813 409 723 309 
Q 634 209 500 184 
z
" transform="scale(0.015625)"/>
      <path id="Cmr10-28" d="M 1984 -1588 
Q 1628 -1306 1370 -942 
Q 1113 -578 948 -165 
Q 784 247 703 697 
Q 622 1147 622 1600 
Q 622 2059 703 2509 
Q 784 2959 951 3375 
Q 1119 3791 1378 4153 
Q 1638 4516 1984 4788 
Q 1984 4800 2016 4800 
L 2075 4800 
Q 2094 4800 2109 4783 
Q 2125 4766 2125 4744 
Q 2125 4716 2113 4703 
Q 1800 4397 1592 4047 
Q 1384 3697 1257 3301 
Q 1131 2906 1075 2482 
Q 1019 2059 1019 1600 
Q 1019 -434 2106 -1491 
Q 2125 -1509 2125 -1544 
Q 2125 -1559 2108 -1579 
Q 2091 -1600 2075 -1600 
L 2016 -1600 
Q 1984 -1600 1984 -1588 
z
" transform="scale(0.015625)"/>
      <path id="Cmr10-29" d="M 416 -1600 
Q 359 -1600 359 -1544 
Q 359 -1516 372 -1503 
Q 1466 -434 1466 1600 
Q 1466 3634 384 4691 
Q 359 4706 359 4744 
Q 359 4766 376 4783 
Q 394 4800 416 4800 
L 475 4800 
Q 494 4800 506 4788 
Q 966 4425 1272 3906 
Q 1578 3388 1720 2800 
Q 1863 2213 1863 1600 
Q 1863 1147 1786 708 
Q 1709 269 1542 -157 
Q 1375 -584 1119 -945 
Q 863 -1306 506 -1588 
Q 494 -1600 475 -1600 
L 416 -1600 
z
" transform="scale(0.015625)"/>
     </defs>
     <use xlink:href="#STIXGeneral-Regular-77"/>
     <use xlink:href="#STIXGeneral-Regular-65" transform="translate(72.199982 0)"/>
     <use xlink:href="#STIXGeneral-Regular-61" transform="translate(116.599976 0)"/>
     <use xlink:href="#STIXGeneral-Regular-6c" transform="translate(160.999969 0)"/>
     <use xlink:href="#STIXGeneral-Regular-74" transform="translate(188.799957 0)"/>
     <use xlink:href="#STIXGeneral-Regular-68" transform="translate(216.599945 0)"/>
     <use xlink:href="#STIXGeneral-Regular-20" transform="translate(266.59993 0)"/>
     <use xlink:href="#Cmmi10-78" transform="translate(291.599915 0)"/>
     <use xlink:href="#Cmr10-28" transform="translate(348.679993 0)"/>
     <use xlink:href="#Cmmi10-74" transform="translate(387.498352 0)"/>
     <use xlink:href="#Cmr10-29" transform="translate(423.582336 0)"/>
    </g>
   </g>
   <g id="text_21">
    <!-- consumption $c(t)=m\,x(t)$ -->
    <g style="fill: #0072b2" transform="translate(324.546 239.560443) scale(0.1 -0.1)">
     <defs>
      <path id="Cmmi10-63" d="M 750 763 
Q 750 484 892 290 
Q 1034 97 1300 97 
Q 1681 97 2032 272 
Q 2384 447 2606 756 
Q 2625 775 2656 775 
Q 2688 775 2720 739 
Q 2753 703 2753 672 
Q 2753 647 2741 634 
Q 2506 306 2109 117 
Q 1713 -72 1288 -72 
Q 981 -72 747 73 
Q 513 219 384 462 
Q 256 706 256 1013 
Q 256 1444 497 1869 
Q 738 2294 1138 2561 
Q 1538 2828 1978 2828 
Q 2266 2828 2495 2689 
Q 2725 2550 2725 2278 
Q 2725 2103 2623 1979 
Q 2522 1856 2350 1856 
Q 2247 1856 2176 1920 
Q 2106 1984 2106 2088 
Q 2106 2238 2215 2344 
Q 2325 2450 2472 2450 
L 2484 2450 
Q 2409 2559 2267 2611 
Q 2125 2663 1972 2663 
Q 1597 2663 1315 2342 
Q 1034 2022 892 1576 
Q 750 1131 750 763 
z
" transform="scale(0.015625)"/>
      <path id="Cmr10-3d" d="M 481 850 
Q 428 850 393 890 
Q 359 931 359 978 
Q 359 1031 393 1068 
Q 428 1106 481 1106 
L 4500 1106 
Q 4547 1106 4581 1068 
Q 4616 1031 4616 978 
Q 4616 931 4581 890 
Q 4547 850 4500 850 
L 481 850 
z
M 481 2094 
Q 428 2094 393 2131 
Q 359 2169 359 2222 
Q 359 2269 393 2309 
Q 428 2350 481 2350 
L 4500 2350 
Q 4547 2350 4581 2309 
Q 4616 2269 4616 2222 
Q 4616 2169 4581 2131 
Q 4547 2094 4500 2094 
L 481 2094 
z
" transform="scale(0.015625)"/>
      <path id="Cmmi10-6d" d="M 494 109 
Q 494 147 500 166 
L 978 2075 
Q 1025 2253 1025 2388 
Q 1025 2663 838 2663 
Q 638 2663 541 2423 
Q 444 2184 353 1819 
Q 353 1800 334 1789 
Q 316 1778 300 1778 
L 225 1778 
Q 203 1778 187 1801 
Q 172 1825 172 1844 
Q 241 2122 305 2315 
Q 369 2509 505 2668 
Q 641 2828 844 2828 
Q 1084 2828 1268 2676 
Q 1453 2525 1453 2291 
Q 1644 2541 1900 2684 
Q 2156 2828 2444 2828 
Q 2747 2828 2967 2673 
Q 3188 2519 3188 2234 
Q 3384 2513 3648 2670 
Q 3913 2828 4225 2828 
Q 4556 2828 4757 2648 
Q 4959 2469 4959 2138 
Q 4959 1875 4842 1503 
Q 4725 1131 4550 672 
Q 4459 450 4459 288 
Q 4459 97 4609 97 
Q 4859 97 5025 365 
Q 5191 634 5259 941 
Q 5278 978 5313 978 
L 5388 978 
Q 5413 978 5430 961 
Q 5447 944 5447 922 
Q 5447 916 5441 903 
Q 5353 541 5136 234 
Q 4919 -72 4594 -72 
Q 4369 -72 4209 83 
Q 4050 238 4050 459 
Q 4050 572 4103 709 
Q 4284 1191 4404 1569 
Q 4525 1947 4525 2234 
Q 4525 2413 4453 2538 
Q 4381 2663 4213 2663 
Q 3863 2663 3606 2448 
Q 3350 2234 3163 1881 
Q 3150 1819 3144 1784 
L 2731 141 
Q 2709 53 2632 -9 
Q 2556 -72 2463 -72 
Q 2388 -72 2330 -22 
Q 2272 28 2272 109 
Q 2272 147 2278 166 
L 2688 1797 
Q 2753 2059 2753 2234 
Q 2753 2413 2679 2538 
Q 2606 2663 2431 2663 
Q 2197 2663 2000 2559 
Q 1803 2456 1656 2286 
Q 1509 2116 1388 1881 
L 953 141 
Q 931 53 854 -9 
Q 778 -72 684 -72 
Q 606 -72 550 -22 
Q 494 28 494 109 
z
" transform="scale(0.015625)"/>
     </defs>
     <use xlink:href="#STIXGeneral-Regular-63"/>
     <use xlink:href="#STIXGeneral-Regular-6f" transform="translate(44.399994 0)"/>
     <use xlink:href="#STIXGeneral-Regular-6e" transform="translate(94.399979 0)"/>
     <use xlink:href="#STIXGeneral-Regular-73" transform="translate(144.399963 0)"/>
     <use xlink:href="#STIXGeneral-Regular-75" transform="translate(183.299957 0)"/>
     <use xlink:href="#STIXGeneral-Regular-6d" transform="translate(233.299942 0)"/>
     <use xlink:href="#STIXGeneral-Regular-70" transform="translate(311.09993 0)"/>
     <use xlink:href="#STIXGeneral-Regular-74" transform="translate(361.099915 0)"/>
     <use xlink:href="#STIXGeneral-Regular-69" transform="translate(388.899902 0)"/>
     <use xlink:href="#STIXGeneral-Regular-6f" transform="translate(416.69989 0)"/>
     <use xlink:href="#STIXGeneral-Regular-6e" transform="translate(466.699875 0)"/>
     <use xlink:href="#STIXGeneral-Regular-20" transform="translate(516.69986 0)"/>
     <use xlink:href="#Cmmi10-63" transform="translate(541.699844 0)"/>
     <use xlink:href="#Cmr10-28" transform="translate(584.912735 0)"/>
     <use xlink:href="#Cmmi10-74" transform="translate(623.731094 0)"/>
     <use xlink:href="#Cmr10-29" transform="translate(659.815079 0)"/>
     <use xlink:href="#Cmr10-3d" transform="translate(716.192032 0)"/>
     <use xlink:href="#Cmmi10-6d" transform="translate(811.436172 0)"/>
     <use xlink:href="#Cmmi10-78" transform="translate(913.861595 0)"/>
     <use xlink:href="#Cmr10-28" transform="translate(970.941673 0)"/>
     <use xlink:href="#Cmmi10-74" transform="translate(1009.760033 0)"/>
     <use xlink:href="#Cmr10-29" transform="translate(1045.844017 0)"/>
    </g>
   </g>
   <g id="text_22">
    <!-- Merton solution: consume a fixed fraction of a randomly drifting wealth -->
    <g transform="translate(44.099063 15.395625) scale(0.12 -0.12)">
     <defs>
      <path id="STIXGeneral-Regular-4d" d="M 5530 0 
L 3738 0 
L 3738 122 
Q 4115 147 4214 265 
Q 4314 384 4314 787 
L 4314 3661 
L 2682 0 
L 2592 0 
L 979 3514 
L 979 966 
Q 979 448 1088 294 
Q 1197 141 1574 122 
L 1574 0 
L 77 0 
L 77 122 
Q 358 141 480 205 
Q 602 269 650 432 
Q 698 595 698 966 
L 698 3514 
Q 698 3878 589 3984 
Q 480 4090 90 4115 
L 90 4237 
L 1357 4237 
L 2835 1024 
L 4250 4237 
L 5523 4237 
L 5523 4115 
Q 5178 4109 5072 3993 
Q 4966 3878 4966 3520 
L 4966 717 
Q 4966 378 5072 262 
Q 5178 147 5530 122 
L 5530 0 
z
" transform="scale(0.015625)"/>
      <path id="STIXGeneral-Regular-3a" d="M 1123 2832 
Q 1229 2726 1229 2579 
Q 1229 2432 1126 2329 
Q 1024 2227 877 2227 
Q 730 2227 624 2332 
Q 518 2438 518 2579 
Q 518 2733 620 2835 
Q 723 2938 877 2938 
Q 1018 2938 1123 2832 
z
M 1229 282 
Q 1229 141 1126 35 
Q 1024 -70 877 -70 
Q 730 -70 624 35 
Q 518 141 518 282 
Q 518 435 620 537 
Q 723 640 877 640 
Q 1018 640 1123 534 
Q 1229 429 1229 282 
z
" transform="scale(0.015625)"/>
      <path id="STIXGeneral-Regular-66" d="M 134 2880 
L 659 2880 
Q 666 3264 710 3478 
Q 755 3693 883 3910 
Q 1152 4371 1786 4371 
Q 2074 4371 2262 4259 
Q 2451 4147 2451 3974 
Q 2451 3866 2374 3789 
Q 2298 3712 2182 3712 
Q 2029 3712 1894 3942 
Q 1741 4192 1555 4192 
Q 1197 4192 1197 3622 
L 1197 2880 
L 1978 2880 
L 1978 2675 
L 1197 2675 
L 1197 666 
Q 1197 307 1299 208 
Q 1402 109 1792 96 
L 1792 0 
L 128 0 
L 128 96 
Q 474 115 566 214 
Q 659 314 659 666 
L 659 2675 
L 134 2675 
L 134 2880 
z
" transform="scale(0.015625)"/>
      <path id="STIXGeneral-Regular-78" d="M 3066 0 
L 1779 0 
L 1779 96 
Q 1939 109 1987 137 
Q 2035 166 2035 250 
Q 2035 307 1997 365 
L 1414 1261 
L 909 474 
Q 781 275 781 211 
Q 781 96 1037 96 
L 1037 0 
L 109 0 
L 109 96 
Q 269 109 355 169 
Q 442 230 576 422 
L 1306 1478 
L 704 2400 
Q 557 2624 454 2704 
Q 352 2784 211 2784 
L 154 2784 
L 154 2880 
L 1478 2880 
L 1478 2784 
Q 1203 2778 1203 2643 
Q 1203 2509 1498 2074 
Q 1581 1958 1587 1946 
Q 1619 1990 1779 2227 
Q 1811 2285 1856 2349 
Q 1901 2413 1923 2451 
Q 1946 2490 1971 2528 
Q 1997 2566 2006 2595 
Q 2016 2624 2016 2643 
Q 2016 2765 1760 2784 
L 1760 2880 
L 2771 2880 
L 2771 2784 
Q 2445 2771 2253 2502 
L 1722 1734 
L 2541 480 
Q 2790 96 3066 96 
L 3066 0 
z
" transform="scale(0.015625)"/>
      <path id="STIXGeneral-Regular-79" d="M 3040 2880 
L 3040 2784 
Q 2925 2771 2854 2700 
Q 2784 2630 2720 2458 
L 1760 -160 
Q 1510 -838 1257 -1116 
Q 1005 -1395 640 -1395 
Q 435 -1395 313 -1289 
Q 192 -1184 192 -1024 
Q 192 -902 272 -816 
Q 352 -730 467 -730 
Q 653 -730 800 -813 
Q 883 -858 966 -858 
Q 1101 -858 1286 -576 
Q 1376 -448 1459 -211 
Q 1542 26 1542 115 
Q 1542 198 1274 762 
L 429 2566 
Q 346 2752 90 2790 
L 90 2880 
L 1402 2880 
L 1402 2784 
Q 1197 2778 1117 2739 
Q 1037 2701 1037 2611 
Q 1037 2541 1120 2349 
L 1837 749 
L 2458 2515 
Q 2483 2573 2483 2630 
Q 2483 2784 2189 2784 
L 2189 2880 
L 3040 2880 
z
" transform="scale(0.015625)"/>
      <path id="STIXGeneral-Regular-67" d="M 3008 2483 
L 2477 2483 
Q 2598 2208 2598 1946 
Q 2598 1453 2265 1203 
Q 1933 954 1600 954 
Q 1530 954 1357 973 
L 1235 986 
Q 1107 947 979 812 
Q 851 678 851 582 
Q 851 435 1350 410 
L 2176 371 
Q 2528 358 2739 172 
Q 2950 -13 2950 -314 
Q 2950 -685 2566 -986 
Q 2035 -1395 1286 -1395 
Q 826 -1395 502 -1212 
Q 179 -1030 179 -774 
Q 179 -595 320 -419 
Q 461 -243 806 6 
Q 602 102 534 172 
Q 467 243 467 346 
Q 467 531 762 787 
Q 909 915 1037 1043 
Q 717 1203 579 1401 
Q 442 1600 442 1901 
Q 442 2336 752 2640 
Q 1062 2944 1510 2944 
Q 1766 2944 2022 2848 
L 2163 2797 
Q 2349 2733 2515 2733 
L 3008 2733 
L 3008 2483 
z
M 973 2163 
L 973 2144 
Q 973 1683 1155 1398 
Q 1338 1114 1632 1114 
Q 1850 1114 1978 1270 
Q 2106 1427 2106 1690 
Q 2106 2112 1914 2464 
Q 1754 2765 1446 2765 
Q 1222 2765 1097 2605 
Q 973 2445 973 2163 
z
M 2771 -410 
Q 2771 -230 2595 -163 
Q 2419 -96 1978 -96 
Q 1344 -96 941 -13 
Q 749 -243 688 -348 
Q 627 -454 627 -563 
Q 627 -774 880 -902 
Q 1133 -1030 1555 -1030 
Q 2099 -1030 2435 -860 
Q 2771 -691 2771 -410 
z
" transform="scale(0.015625)"/>
     </defs>
     <use xlink:href="#STIXGeneral-Regular-4d"/>
     <use xlink:href="#STIXGeneral-Regular-65" x="88.899994"/>
     <use xlink:href="#STIXGeneral-Regular-72" x="133.299988"/>
     <use xlink:href="#STIXGeneral-Regular-74" x="166.599976"/>
     <use xlink:href="#STIXGeneral-Regular-6f" x="194.399963"/>
     <use xlink:href="#STIXGeneral-Regular-6e" x="244.399948"/>
     <use xlink:href="#STIXGeneral-Regular-20" x="294.399933"/>
     <use xlink:href="#STIXGeneral-Regular-73" x="319.399918"/>
     <use xlink:href="#STIXGeneral-Regular-6f" x="358.299911"/>
     <use xlink:href="#STIXGeneral-Regular-6c" x="408.299896"/>
     <use xlink:href="#STIXGeneral-Regular-75" x="436.099884"/>
     <use xlink:href="#STIXGeneral-Regular-74" x="486.099869"/>
     <use xlink:href="#STIXGeneral-Regular-69" x="513.899857"/>
     <use xlink:href="#STIXGeneral-Regular-6f" x="541.699844"/>
     <use xlink:href="#STIXGeneral-Regular-6e" x="591.699829"/>
     <use xlink:href="#STIXGeneral-Regular-3a" x="641.699814"/>
     <use xlink:href="#STIXGeneral-Regular-20" x="669.499802"/>
     <use xlink:href="#STIXGeneral-Regular-63" x="694.499786"/>
     <use xlink:href="#STIXGeneral-Regular-6f" x="738.89978"/>
     <use xlink:href="#STIXGeneral-Regular-6e" x="788.899765"/>
     <use xlink:href="#STIXGeneral-Regular-73" x="838.89975"/>
     <use xlink:href="#STIXGeneral-Regular-75" x="877.799744"/>
     <use xlink:href="#STIXGeneral-Regular-6d" x="927.799728"/>
     <use xlink:href="#STIXGeneral-Regular-65" x="1005.599716"/>
     <use xlink:href="#STIXGeneral-Regular-20" x="1049.99971"/>
     <use xlink:href="#STIXGeneral-Regular-61" x="1074.999695"/>
     <use xlink:href="#STIXGeneral-Regular-20" x="1119.399689"/>
     <use xlink:href="#STIXGeneral-Regular-66" x="1144.399673"/>
     <use xlink:href="#STIXGeneral-Regular-69" x="1177.699661"/>
     <use xlink:href="#STIXGeneral-Regular-78" x="1205.499649"/>
     <use xlink:href="#STIXGeneral-Regular-65" x="1255.499634"/>
     <use xlink:href="#STIXGeneral-Regular-64" x="1299.899628"/>
     <use xlink:href="#STIXGeneral-Regular-20" x="1349.899612"/>
     <use xlink:href="#STIXGeneral-Regular-66" x="1374.899597"/>
     <use xlink:href="#STIXGeneral-Regular-72" x="1408.199585"/>
     <use xlink:href="#STIXGeneral-Regular-61" x="1441.499573"/>
     <use xlink:href="#STIXGeneral-Regular-63" x="1485.899567"/>
     <use xlink:href="#STIXGeneral-Regular-74" x="1530.299561"/>
     <use xlink:href="#STIXGeneral-Regular-69" x="1558.099548"/>
     <use xlink:href="#STIXGeneral-Regular-6f" x="1585.899536"/>
     <use xlink:href="#STIXGeneral-Regular-6e" x="1635.899521"/>
     <use xlink:href="#STIXGeneral-Regular-20" x="1685.899506"/>
     <use xlink:href="#STIXGeneral-Regular-6f" x="1710.89949"/>
     <use xlink:href="#STIXGeneral-Regular-66" x="1760.899475"/>
     <use xlink:href="#STIXGeneral-Regular-20" x="1794.199463"/>
     <use xlink:href="#STIXGeneral-Regular-61" x="1819.199448"/>
     <use xlink:href="#STIXGeneral-Regular-20" x="1863.599442"/>
     <use xlink:href="#STIXGeneral-Regular-72" x="1888.599426"/>
     <use xlink:href="#STIXGeneral-Regular-61" x="1921.899414"/>
     <use xlink:href="#STIXGeneral-Regular-6e" x="1966.299408"/>
     <use xlink:href="#STIXGeneral-Regular-64" x="2016.299393"/>
     <use xlink:href="#STIXGeneral-Regular-6f" x="2066.299377"/>
     <use xlink:href="#STIXGeneral-Regular-6d" x="2116.299362"/>
     <use xlink:href="#STIXGeneral-Regular-6c" x="2194.09935"/>
     <use xlink:href="#STIXGeneral-Regular-79" x="2221.899338"/>
     <use xlink:href="#STIXGeneral-Regular-20" x="2271.899323"/>
     <use xlink:href="#STIXGeneral-Regular-64" x="2296.899307"/>
     <use xlink:href="#STIXGeneral-Regular-72" x="2346.899292"/>
     <use xlink:href="#STIXGeneral-Regular-69" x="2380.19928"/>
     <use xlink:href="#STIXGeneral-Regular-66" x="2407.999268"/>
     <use xlink:href="#STIXGeneral-Regular-74" x="2441.299255"/>
     <use xlink:href="#STIXGeneral-Regular-69" x="2469.099243"/>
     <use xlink:href="#STIXGeneral-Regular-6e" x="2496.899231"/>
     <use xlink:href="#STIXGeneral-Regular-67" x="2546.899216"/>
     <use xlink:href="#STIXGeneral-Regular-20" x="2596.8992"/>
     <use xlink:href="#STIXGeneral-Regular-77" x="2621.899185"/>
     <use xlink:href="#STIXGeneral-Regular-65" x="2694.099167"/>
     <use xlink:href="#STIXGeneral-Regular-61" x="2738.499161"/>
     <use xlink:href="#STIXGeneral-Regular-6c" x="2782.899155"/>
     <use xlink:href="#STIXGeneral-Regular-74" x="2810.699142"/>
     <use xlink:href="#STIXGeneral-Regular-68" x="2838.49913"/>
    </g>
   </g>
  </g>
 </g>
 <defs>
  <clipPath id="p4224a222fc">
   <rect x="38.85" y="21.395625" width="357.12" height="243.936"/>
  </clipPath>
 </defs>
</svg>
