<?xml version="1.0" encoding="UTF-8"?>
<svg xmlns="http://www.w3.org/2000/svg" xmlns:xlink="http://www.w3.org/1999/xlink" width="415.738pt" height="172.205pt" viewBox="0 0 415.738 172.205">
<defs>
<g>
<g id="glyph-0-0">
<path d="M 2.109375 -5.984375 C 2.03125 -6.09375 2 -6.09375 1.84375 -6.09375 L 0.34375 -6.09375 L 0.34375 -5.8125 L 0.59375 -5.8125 C 1.015625 -5.8125 1.234375 -5.75 1.25 -5.75 L 1.25 -0.953125 C 1.25 -0.703125 1.25 -0.28125 0.34375 -0.28125 L 0.34375 0 C 0.828125 -0.015625 0.953125 -0.03125 1.390625 -0.03125 C 1.8125 -0.03125 1.953125 -0.015625 2.4375 0 L 2.4375 -0.28125 C 1.53125 -0.28125 1.53125 -0.703125 1.53125 -0.953125 L 1.53125 -5.546875 L 5.3125 -0.109375 C 5.390625 0 5.4375 0 5.484375 0 C 5.625 0 5.625 -0.078125 5.625 -0.234375 L 5.625 -5.140625 C 5.625 -5.390625 5.625 -5.8125 6.53125 -5.8125 L 6.53125 -6.09375 C 6.046875 -6.078125 5.921875 -6.0625 5.484375 -6.0625 C 5.046875 -6.0625 4.9375 -6.078125 4.4375 -6.09375 L 4.4375 -5.8125 C 5.34375 -5.8125 5.34375 -5.390625 5.34375 -5.140625 L 5.34375 -1.34375 Z M 2.109375 -5.984375 "/>
</g>
<g id="glyph-0-1">
<path d="M 3.046875 -0.640625 C 3.09375 -0.265625 3.359375 0.046875 3.734375 0.046875 C 3.96875 0.046875 4.515625 -0.078125 4.515625 -0.796875 L 4.515625 -1.296875 L 4.28125 -1.296875 L 4.28125 -0.796875 C 4.28125 -0.703125 4.28125 -0.265625 3.953125 -0.265625 C 3.625 -0.265625 3.625 -0.6875 3.625 -0.828125 L 3.625 -2.390625 C 3.625 -2.90625 3.625 -3.203125 3.234375 -3.5625 C 2.90625 -3.859375 2.46875 -4 2.03125 -4 C 1.28125 -4 0.65625 -3.625 0.65625 -3.046875 C 0.65625 -2.78125 0.84375 -2.625 1.078125 -2.625 C 1.3125 -2.625 1.484375 -2.796875 1.484375 -3.03125 C 1.484375 -3.421875 1.09375 -3.46875 1.078125 -3.46875 C 1.328125 -3.6875 1.75 -3.78125 2 -3.78125 C 2.46875 -3.78125 2.96875 -3.4375 2.96875 -2.65625 L 2.96875 -2.359375 C 2.484375 -2.34375 1.8125 -2.296875 1.21875 -2 C 0.578125 -1.6875 0.390625 -1.234375 0.390625 -0.875 C 0.390625 -0.140625 1.25 0.09375 1.84375 0.09375 C 2.59375 0.09375 2.921875 -0.390625 3.046875 -0.640625 Z M 2.96875 -1.265625 C 2.96875 -0.390625 2.296875 -0.125 1.90625 -0.125 C 1.484375 -0.125 1.09375 -0.421875 1.09375 -0.875 C 1.09375 -1.46875 1.609375 -2.09375 2.96875 -2.140625 Z M 2.96875 -1.265625 "/>
</g>
<g id="glyph-0-2">
<path d="M 2.90625 -3.5625 L 2.90625 -3.84375 L 1.609375 -3.84375 L 1.609375 -5.484375 L 1.359375 -5.484375 C 1.34375 -4.734375 1.03125 -3.8125 0.171875 -3.796875 L 0.171875 -3.5625 L 0.953125 -3.5625 L 0.953125 -1.109375 C 0.953125 -0.109375 1.671875 0.09375 2.140625 0.09375 C 2.734375 0.09375 3.046875 -0.46875 3.046875 -1.109375 L 3.046875 -1.609375 L 2.796875 -1.609375 L 2.796875 -1.140625 C 2.796875 -0.46875 2.53125 -0.15625 2.203125 -0.15625 C 1.609375 -0.15625 1.609375 -0.9375 1.609375 -1.09375 L 1.609375 -3.5625 Z M 2.90625 -3.5625 "/>
</g>
<g id="glyph-0-3">
<path d="M 3.53125 -1.484375 C 3.53125 -0.703125 3.09375 -0.125 2.4375 -0.125 C 1.703125 -0.125 1.65625 -0.515625 1.65625 -0.984375 L 1.65625 -3.9375 L 0.3125 -3.84375 L 0.3125 -3.5625 C 1 -3.5625 1 -3.546875 1 -2.75 L 1 -1.40625 C 1 -0.828125 1 -0.453125 1.40625 -0.140625 C 1.671875 0.03125 2.03125 0.09375 2.390625 0.09375 C 2.859375 0.09375 3.296875 -0.109375 3.546875 -0.640625 L 3.5625 -0.640625 L 3.5625 0.09375 L 4.875 0 L 4.875 -0.28125 C 4.28125 -0.28125 4.1875 -0.34375 4.1875 -0.78125 L 4.1875 -3.9375 L 2.84375 -3.84375 L 2.84375 -3.5625 C 3.453125 -3.5625 3.53125 -3.5 3.53125 -3.0625 Z M 3.53125 -1.484375 "/>
</g>
<g id="glyph-0-4">
<path d="M 1.59375 -2.046875 C 1.59375 -2.40625 1.6875 -3.71875 2.703125 -3.71875 C 2.6875 -3.703125 2.546875 -3.59375 2.546875 -3.375 C 2.546875 -3.140625 2.734375 -2.984375 2.9375 -2.984375 C 3.125 -2.984375 3.328125 -3.125 3.328125 -3.390625 C 3.328125 -3.671875 3.0625 -3.9375 2.65625 -3.9375 C 2.125 -3.9375 1.75 -3.5625 1.546875 -3.015625 L 1.53125 -3.015625 L 1.53125 -3.9375 L 0.265625 -3.84375 L 0.265625 -3.5625 C 0.875 -3.5625 0.953125 -3.5 0.953125 -3.0625 L 0.953125 -0.6875 C 0.953125 -0.28125 0.859375 -0.28125 0.265625 -0.28125 L 0.265625 0 C 0.734375 -0.015625 0.859375 -0.03125 1.3125 -0.03125 C 1.671875 -0.03125 1.875 -0.015625 2.4375 0 L 2.4375 -0.28125 L 2.265625 -0.28125 C 1.609375 -0.28125 1.59375 -0.375 1.59375 -0.703125 Z M 1.59375 -2.046875 "/>
</g>
<g id="glyph-0-5">
<path d="M 3.5625 -2.046875 C 3.765625 -2.046875 3.8125 -2.046875 3.8125 -2.234375 C 3.8125 -3.15625 3.3125 -4 2.171875 -4 C 1.09375 -4 0.265625 -3.0625 0.265625 -1.96875 C 0.265625 -0.796875 1.203125 0.09375 2.28125 0.09375 C 3.375 0.09375 3.8125 -0.859375 3.8125 -1.0625 C 3.8125 -1.125 3.765625 -1.171875 3.6875 -1.171875 C 3.59375 -1.171875 3.5625 -1.109375 3.5625 -1.078125 C 3.25 -0.171875 2.46875 -0.15625 2.328125 -0.15625 C 1.90625 -0.15625 1.53125 -0.390625 1.328125 -0.703125 C 1.03125 -1.140625 1.03125 -1.671875 1.03125 -2.046875 Z M 1.03125 -2.25 C 1.109375 -3.625 1.921875 -3.78125 2.171875 -3.78125 C 2.65625 -3.78125 3.1875 -3.40625 3.203125 -2.25 Z M 1.03125 -2.25 "/>
</g>
<g id="glyph-0-6">
<path d="M 2.71875 -5.703125 C 2.71875 -5.921875 2.703125 -5.9375 2.484375 -5.9375 C 1.921875 -5.375 1.109375 -5.375 0.828125 -5.375 L 0.828125 -5.09375 C 1 -5.09375 1.546875 -5.09375 2.03125 -5.328125 L 2.03125 -0.71875 C 2.03125 -0.390625 2 -0.28125 1.171875 -0.28125 L 0.890625 -0.28125 L 0.890625 0 C 1.203125 -0.03125 2 -0.03125 2.359375 -0.03125 C 2.734375 -0.03125 3.53125 -0.03125 3.859375 0 L 3.859375 -0.28125 L 3.5625 -0.28125 C 2.734375 -0.28125 2.71875 -0.390625 2.71875 -0.71875 Z M 2.71875 -5.703125 "/>
</g>
<g id="glyph-0-7">
<path d="M 3.046875 2.125 C 3.046875 2.078125 3.015625 2.046875 2.96875 1.984375 C 1.8125 0.9375 1.46875 -0.671875 1.46875 -2.234375 C 1.46875 -3.609375 1.734375 -5.296875 2.984375 -6.484375 C 3.03125 -6.515625 3.046875 -6.546875 3.046875 -6.59375 C 3.046875 -6.65625 3 -6.6875 2.9375 -6.6875 C 2.828125 -6.6875 2.03125 -6.046875 1.546875 -5.078125 C 1.109375 -4.21875 0.90625 -3.296875 0.90625 -2.234375 C 0.90625 -1.59375 0.984375 -0.578125 1.46875 0.46875 C 2 1.5625 2.828125 2.21875 2.9375 2.21875 C 3 2.21875 3.046875 2.1875 3.046875 2.125 Z M 3.046875 2.125 "/>
</g>
<g id="glyph-0-8">
<path d="M 2.65625 -2.234375 C 2.65625 -2.96875 2.546875 -3.953125 2.09375 -4.9375 C 1.5625 -6.046875 0.734375 -6.6875 0.625 -6.6875 C 0.53125 -6.6875 0.515625 -6.625 0.515625 -6.59375 C 0.515625 -6.546875 0.53125 -6.515625 0.59375 -6.453125 C 1.109375 -6 2.09375 -4.78125 2.09375 -2.234375 C 2.09375 -0.96875 1.859375 0.8125 0.578125 2.015625 C 0.546875 2.046875 0.515625 2.078125 0.515625 2.125 C 0.515625 2.15625 0.53125 2.21875 0.625 2.21875 C 0.734375 2.21875 1.53125 1.578125 2.015625 0.609375 C 2.4375 -0.25 2.65625 -1.171875 2.65625 -2.234375 Z M 2.65625 -2.234375 "/>
</g>
<g id="glyph-0-9">
<path d="M 1.53125 -4.046875 C 1.265625 -4.21875 1.0625 -4.453125 1.0625 -4.796875 C 1.0625 -5.375 1.6875 -5.71875 2.28125 -5.71875 C 2.96875 -5.71875 3.515625 -5.234375 3.515625 -4.609375 C 3.515625 -3.984375 2.984375 -3.578125 2.625 -3.375 Z M 2.84375 -3.234375 C 3.296875 -3.4375 3.9375 -3.890625 3.9375 -4.609375 C 3.9375 -5.453125 3.109375 -5.9375 2.296875 -5.9375 C 1.359375 -5.9375 0.640625 -5.265625 0.640625 -4.453125 C 0.640625 -4.109375 0.765625 -3.796875 0.96875 -3.53125 C 1.125 -3.359375 1.171875 -3.328125 1.6875 -3 C 0.90625 -2.625 0.390625 -2.078125 0.390625 -1.34375 C 0.390625 -0.40625 1.328125 0.203125 2.28125 0.203125 C 3.3125 0.203125 4.1875 -0.53125 4.1875 -1.5 C 4.1875 -2.359375 3.53125 -2.796875 3.3125 -2.9375 C 3.21875 -3 2.953125 -3.171875 2.84375 -3.234375 Z M 1.9375 -2.84375 L 3.0625 -2.15625 C 3.265625 -2.015625 3.71875 -1.734375 3.71875 -1.1875 C 3.71875 -0.484375 3 -0.046875 2.296875 -0.046875 C 1.515625 -0.046875 0.859375 -0.609375 0.859375 -1.34375 C 0.859375 -1.984375 1.3125 -2.53125 1.9375 -2.84375 Z M 1.9375 -2.84375 "/>
</g>
<g id="glyph-0-10">
<path d="M 4.21875 -2.859375 C 4.21875 -3.453125 4.1875 -4.21875 3.875 -4.890625 C 3.484375 -5.734375 2.8125 -5.9375 2.296875 -5.9375 C 1.75 -5.9375 1.078125 -5.734375 0.6875 -4.875 C 0.40625 -4.25 0.359375 -3.53125 0.359375 -2.859375 C 0.359375 -2.28125 0.375 -1.40625 0.765625 -0.703125 C 1.171875 0.046875 1.875 0.203125 2.28125 0.203125 C 2.859375 0.203125 3.53125 -0.046875 3.90625 -0.875 C 4.171875 -1.46875 4.21875 -2.140625 4.21875 -2.859375 Z M 2.296875 -0.03125 C 2.03125 -0.03125 1.390625 -0.15625 1.21875 -1.15625 C 1.125 -1.6875 1.125 -2.453125 1.125 -2.96875 C 1.125 -3.5625 1.125 -4.28125 1.234375 -4.765625 C 1.40625 -5.5625 1.984375 -5.71875 2.28125 -5.71875 C 2.625 -5.71875 3.1875 -5.546875 3.359375 -4.703125 C 3.453125 -4.21875 3.453125 -3.53125 3.453125 -2.96875 C 3.453125 -2.40625 3.453125 -1.65625 3.359375 -1.140625 C 3.171875 -0.109375 2.515625 -0.03125 2.296875 -0.03125 Z M 2.296875 -0.03125 "/>
</g>
<g id="glyph-0-11">
<path d="M 0.265625 -1.75 L 0.265625 -1.46875 L 2.6875 -1.46875 L 2.6875 -0.703125 C 2.6875 -0.375 2.671875 -0.28125 2 -0.28125 L 1.796875 -0.28125 L 1.796875 0 C 2.359375 -0.03125 2.984375 -0.03125 3.046875 -0.03125 C 3.09375 -0.03125 3.734375 -0.03125 4.296875 0 L 4.296875 -0.28125 L 4.109375 -0.28125 C 3.4375 -0.28125 3.40625 -0.375 3.40625 -0.703125 L 3.40625 -1.46875 L 4.3125 -1.46875 L 4.3125 -1.75 L 3.40625 -1.75 L 3.40625 -5.796875 C 3.40625 -5.984375 3.40625 -6.046875 3.234375 -6.046875 C 3.125 -6.046875 3.125 -6.03125 3.046875 -5.90625 Z M 0.546875 -1.75 L 2.75 -5.046875 L 2.75 -1.75 Z M 0.546875 -1.75 "/>
</g>
<g id="glyph-0-12">
<path d="M 0.921875 -3.078125 C 0.921875 -2.921875 0.921875 -2.8125 1.046875 -2.8125 C 1.125 -2.8125 1.15625 -2.859375 1.203125 -2.9375 C 1.46875 -3.3125 1.90625 -3.53125 2.359375 -3.53125 C 3.3125 -3.53125 3.3125 -2.15625 3.3125 -1.828125 C 3.3125 -1.546875 3.3125 -1 3.0625 -0.59375 C 2.828125 -0.21875 2.453125 -0.046875 2.109375 -0.046875 C 1.578125 -0.046875 0.984375 -0.390625 0.765625 -1.046875 C 0.78125 -1.046875 0.828125 -1.03125 0.890625 -1.03125 C 1.078125 -1.03125 1.328125 -1.140625 1.328125 -1.46875 C 1.328125 -1.734375 1.140625 -1.90625 0.890625 -1.90625 C 0.703125 -1.90625 0.453125 -1.796875 0.453125 -1.4375 C 0.453125 -0.625 1.140625 0.203125 2.125 0.203125 C 3.203125 0.203125 4.125 -0.671875 4.125 -1.78125 C 4.125 -2.859375 3.359375 -3.75 2.375 -3.75 C 1.953125 -3.75 1.515625 -3.609375 1.203125 -3.28125 L 1.203125 -5.046875 C 1.46875 -4.953125 1.75 -4.921875 2.03125 -4.921875 C 3.125 -4.921875 3.765625 -5.703125 3.765625 -5.828125 C 3.765625 -5.90625 3.71875 -5.9375 3.671875 -5.9375 C 3.65625 -5.9375 3.625 -5.9375 3.546875 -5.890625 C 3.125 -5.734375 2.71875 -5.65625 2.34375 -5.65625 C 1.96875 -5.65625 1.5625 -5.734375 1.15625 -5.890625 C 1.0625 -5.9375 1.046875 -5.9375 1.03125 -5.9375 C 0.921875 -5.9375 0.921875 -5.859375 0.921875 -5.703125 Z M 0.921875 -3.078125 "/>
</g>
<g id="glyph-0-13">
<path d="M 1.203125 -2.953125 C 1.203125 -3.859375 1.296875 -4.375 1.53125 -4.828125 C 1.71875 -5.203125 2.15625 -5.71875 2.8125 -5.71875 C 2.984375 -5.71875 3.40625 -5.6875 3.609375 -5.359375 C 3.28125 -5.359375 3.125 -5.1875 3.125 -4.953125 C 3.125 -4.71875 3.296875 -4.546875 3.546875 -4.546875 C 3.796875 -4.546875 3.96875 -4.703125 3.96875 -4.96875 C 3.96875 -5.46875 3.609375 -5.9375 2.796875 -5.9375 C 1.640625 -5.9375 0.390625 -4.8125 0.390625 -2.8125 C 0.390625 -0.40625 1.46875 0.203125 2.3125 0.203125 C 3.296875 0.203125 4.1875 -0.640625 4.1875 -1.8125 C 4.1875 -2.9375 3.375 -3.796875 2.359375 -3.796875 C 1.828125 -3.796875 1.453125 -3.484375 1.203125 -2.953125 Z M 2.296875 -0.046875 C 1.796875 -0.046875 1.5 -0.46875 1.390625 -0.734375 C 1.21875 -1.140625 1.21875 -1.875 1.21875 -2.015625 C 1.21875 -2.609375 1.484375 -3.578125 2.34375 -3.578125 C 2.484375 -3.578125 2.921875 -3.578125 3.21875 -3.03125 C 3.375 -2.6875 3.375 -2.25 3.375 -1.8125 C 3.375 -1.390625 3.375 -0.953125 3.21875 -0.625 C 2.9375 -0.109375 2.546875 -0.046875 2.296875 -0.046875 Z M 2.296875 -0.046875 "/>
</g>
<g id="glyph-0-14">
<path d="M 2.71875 -3.140625 C 3.546875 -3.453125 3.9375 -4.109375 3.9375 -4.71875 C 3.9375 -5.40625 3.1875 -5.9375 2.25 -5.9375 C 1.328125 -5.9375 0.640625 -5.421875 0.640625 -4.734375 C 0.640625 -4.4375 0.828125 -4.28125 1.09375 -4.28125 C 1.34375 -4.28125 1.53125 -4.453125 1.53125 -4.71875 C 1.53125 -5.03125 1.328125 -5.171875 1.015625 -5.171875 C 1.25 -5.546875 1.796875 -5.71875 2.234375 -5.71875 C 2.96875 -5.71875 3.109375 -5.125 3.109375 -4.703125 C 3.109375 -4.4375 3.0625 -4.015625 2.84375 -3.671875 C 2.5625 -3.28125 2.25 -3.25 1.984375 -3.234375 C 1.765625 -3.21875 1.75 -3.21875 1.671875 -3.21875 C 1.59375 -3.21875 1.53125 -3.203125 1.53125 -3.109375 C 1.53125 -2.984375 1.59375 -2.984375 1.75 -2.984375 L 2.171875 -2.984375 C 2.9375 -2.984375 3.28125 -2.359375 3.28125 -1.515625 C 3.28125 -0.375 2.671875 -0.046875 2.21875 -0.046875 C 2.046875 -0.046875 1.1875 -0.09375 0.78125 -0.765625 C 1.109375 -0.71875 1.359375 -0.9375 1.359375 -1.234375 C 1.359375 -1.53125 1.140625 -1.71875 0.875 -1.71875 C 0.65625 -1.71875 0.390625 -1.59375 0.390625 -1.21875 C 0.390625 -0.421875 1.21875 0.203125 2.25 0.203125 C 3.359375 0.203125 4.1875 -0.609375 4.1875 -1.515625 C 4.1875 -2.296875 3.578125 -2.953125 2.71875 -3.140625 Z M 2.71875 -3.140625 "/>
</g>
<g id="glyph-0-15">
<path d="M 4.125 -1.578125 L 3.875 -1.578125 C 3.859375 -1.46875 3.78125 -0.9375 3.671875 -0.796875 C 3.609375 -0.71875 3 -0.71875 2.8125 -0.71875 L 1.234375 -0.71875 L 2.109375 -1.546875 C 3.578125 -2.8125 4.125 -3.296875 4.125 -4.203125 C 4.125 -5.234375 3.28125 -5.9375 2.171875 -5.9375 C 1.15625 -5.9375 0.453125 -5.125 0.453125 -4.3125 C 0.453125 -3.875 0.84375 -3.828125 0.921875 -3.828125 C 1.109375 -3.828125 1.390625 -3.96875 1.390625 -4.296875 C 1.390625 -4.5625 1.203125 -4.75 0.921875 -4.75 C 0.875 -4.75 0.84375 -4.75 0.8125 -4.75 C 1.03125 -5.375 1.59375 -5.671875 2.078125 -5.671875 C 2.984375 -5.671875 3.296875 -4.8125 3.296875 -4.203125 C 3.296875 -3.296875 2.609375 -2.546875 2.1875 -2.09375 L 0.546875 -0.328125 C 0.453125 -0.21875 0.453125 -0.203125 0.453125 0 L 3.875 0 Z M 4.125 -1.578125 "/>
</g>
<g id="glyph-1-0">
<path d="M 6.953125 -5.40625 C 7.046875 -5.734375 7.0625 -5.8125 7.765625 -5.8125 C 7.90625 -5.8125 8 -5.8125 8 -5.984375 C 8 -6.0625 7.9375 -6.09375 7.875 -6.09375 L 7.3125 -6.078125 C 7.046875 -6.0625 7.015625 -6.0625 6.734375 -6.0625 C 6.453125 -6.0625 6.4375 -6.0625 6.171875 -6.078125 C 5.984375 -6.078125 5.75 -6.09375 5.578125 -6.09375 C 5.53125 -6.09375 5.40625 -6.09375 5.40625 -5.9375 C 5.40625 -5.8125 5.5 -5.8125 5.671875 -5.8125 C 5.703125 -5.8125 5.875 -5.8125 6.015625 -5.796875 C 6.1875 -5.78125 6.234375 -5.75 6.234375 -5.671875 C 6.234375 -5.625 6.21875 -5.59375 6.1875 -5.484375 L 5.640625 -3.3125 L 2.875 -3.3125 L 3.40625 -5.40625 C 3.484375 -5.75 3.5 -5.8125 4.203125 -5.8125 C 4.34375 -5.8125 4.4375 -5.8125 4.4375 -5.984375 C 4.4375 -6.0625 4.375 -6.09375 4.3125 -6.09375 L 3.75 -6.078125 C 3.484375 -6.0625 3.46875 -6.0625 3.171875 -6.0625 C 2.890625 -6.0625 2.875 -6.0625 2.609375 -6.078125 C 2.421875 -6.078125 2.1875 -6.09375 2.03125 -6.09375 C 1.96875 -6.09375 1.84375 -6.09375 1.84375 -5.9375 C 1.84375 -5.8125 1.9375 -5.8125 2.109375 -5.8125 C 2.15625 -5.8125 2.3125 -5.8125 2.453125 -5.796875 C 2.625 -5.78125 2.671875 -5.75 2.671875 -5.671875 C 2.671875 -5.625 2.65625 -5.578125 2.625 -5.484375 L 1.421875 -0.671875 C 1.34375 -0.359375 1.328125 -0.28125 0.65625 -0.28125 C 0.484375 -0.28125 0.390625 -0.28125 0.390625 -0.109375 C 0.390625 -0.03125 0.453125 0 0.53125 0 C 0.703125 0 0.921875 -0.015625 1.09375 -0.015625 C 1.359375 -0.03125 1.375 -0.03125 1.65625 -0.03125 C 1.9375 -0.03125 1.96875 -0.03125 2.234375 -0.015625 C 2.40625 -0.015625 2.640625 0 2.8125 0 C 2.875 0 2.984375 0 2.984375 -0.15625 C 2.984375 -0.28125 2.90625 -0.28125 2.71875 -0.28125 C 2.671875 -0.28125 2.515625 -0.28125 2.375 -0.296875 C 2.171875 -0.328125 2.171875 -0.359375 2.171875 -0.4375 C 2.171875 -0.46875 2.171875 -0.484375 2.21875 -0.640625 L 2.796875 -3.03125 L 5.578125 -3.03125 C 5.5 -2.71875 4.984375 -0.59375 4.9375 -0.5 C 4.875 -0.34375 4.84375 -0.28125 4.171875 -0.28125 C 4.0625 -0.28125 3.953125 -0.28125 3.953125 -0.109375 C 3.953125 -0.03125 4.015625 0 4.09375 0 C 4.25 0 4.484375 -0.015625 4.640625 -0.015625 C 4.921875 -0.03125 4.9375 -0.03125 5.21875 -0.03125 C 5.5 -0.03125 5.515625 -0.03125 5.796875 -0.015625 C 5.96875 -0.015625 6.203125 0 6.375 0 C 6.4375 0 6.546875 0 6.546875 -0.15625 C 6.546875 -0.28125 6.453125 -0.28125 6.265625 -0.28125 C 6.234375 -0.28125 6.078125 -0.28125 5.9375 -0.296875 C 5.734375 -0.328125 5.734375 -0.359375 5.734375 -0.4375 C 5.734375 -0.515625 5.75 -0.59375 5.765625 -0.65625 Z M 6.953125 -5.40625 "/>
</g>
<g id="glyph-1-1">
<path d="M 0.40625 1.109375 C 0.34375 1.375 0.328125 1.453125 -0.046875 1.453125 C -0.15625 1.453125 -0.265625 1.453125 -0.265625 1.609375 C -0.265625 1.65625 -0.234375 1.734375 -0.140625 1.734375 L 0.234375 1.71875 C 0.296875 1.703125 0.5 1.703125 0.625 1.703125 C 0.78125 1.703125 0.921875 1.71875 1.078125 1.71875 C 1.21875 1.71875 1.375 1.734375 1.5 1.734375 C 1.5625 1.734375 1.671875 1.734375 1.671875 1.5625 C 1.671875 1.453125 1.59375 1.453125 1.4375 1.453125 C 1.015625 1.453125 1.015625 1.390625 1.015625 1.3125 C 1.015625 1.265625 1.078125 1.015625 1.109375 0.875 L 1.453125 -0.453125 C 1.53125 -0.265625 1.78125 0.09375 2.296875 0.09375 C 3.34375 0.09375 4.484375 -1.15625 4.484375 -2.5 C 4.484375 -3.40625 3.921875 -3.9375 3.25 -3.9375 C 3.0625 -3.9375 2.609375 -3.90625 2.0625 -3.296875 C 1.9375 -3.796875 1.53125 -3.9375 1.21875 -3.9375 C 0.84375 -3.9375 0.65625 -3.671875 0.53125 -3.421875 C 0.390625 -3.109375 0.265625 -2.609375 0.265625 -2.5625 C 0.265625 -2.484375 0.328125 -2.46875 0.390625 -2.46875 C 0.484375 -2.46875 0.5 -2.5 0.546875 -2.6875 C 0.71875 -3.390625 0.90625 -3.71875 1.203125 -3.71875 C 1.46875 -3.71875 1.46875 -3.4375 1.46875 -3.296875 C 1.46875 -3.234375 1.46875 -3.09375 1.453125 -3.03125 Z M 2.03125 -2.75 C 2.0625 -2.921875 2.0625 -2.9375 2.1875 -3.078125 C 2.421875 -3.375 2.828125 -3.71875 3.234375 -3.71875 C 3.65625 -3.71875 3.8125 -3.296875 3.8125 -2.875 C 3.8125 -2.484375 3.5625 -1.375 3.296875 -0.90625 C 2.984375 -0.390625 2.609375 -0.125 2.28125 -0.125 C 1.703125 -0.125 1.5625 -0.828125 1.5625 -0.890625 C 1.5625 -0.953125 1.578125 -0.984375 1.59375 -1.03125 Z M 2.03125 -2.75 "/>
</g>
<g id="glyph-1-2">
<path d="M 3.40625 -5.390625 C 3.484375 -5.734375 3.5 -5.8125 4.34375 -5.8125 C 4.578125 -5.8125 4.671875 -5.8125 4.671875 -5.984375 C 4.671875 -6.09375 4.546875 -6.09375 4.515625 -6.09375 C 4.3125 -6.09375 4.09375 -6.078125 3.875 -6.078125 C 3.65625 -6.078125 3.4375 -6.0625 3.234375 -6.0625 C 3.03125 -6.0625 2.8125 -6.0625 2.609375 -6.078125 C 2.453125 -6.078125 2.171875 -6.09375 2.03125 -6.09375 C 1.96875 -6.09375 1.84375 -6.09375 1.84375 -5.9375 C 1.84375 -5.8125 1.921875 -5.8125 2.109375 -5.8125 C 2.15625 -5.8125 2.3125 -5.8125 2.453125 -5.796875 C 2.609375 -5.78125 2.671875 -5.765625 2.671875 -5.671875 C 2.671875 -5.625 2.65625 -5.578125 2.625 -5.484375 L 1.421875 -0.671875 C 1.34375 -0.359375 1.328125 -0.28125 0.65625 -0.28125 C 0.484375 -0.28125 0.390625 -0.28125 0.390625 -0.109375 C 0.390625 0 0.484375 0 0.640625 0 L 4.859375 0 C 5.0625 0 5.078125 -0.015625 5.140625 -0.203125 C 5.234375 -0.421875 5.875 -2.109375 5.875 -2.1875 C 5.875 -2.25 5.8125 -2.296875 5.75 -2.296875 C 5.671875 -2.296875 5.65625 -2.265625 5.578125 -2.09375 C 5.28125 -1.296875 4.890625 -0.28125 3.328125 -0.28125 L 2.4375 -0.28125 C 2.3125 -0.28125 2.296875 -0.28125 2.265625 -0.28125 C 2.171875 -0.296875 2.15625 -0.296875 2.15625 -0.359375 C 2.15625 -0.390625 2.15625 -0.40625 2.1875 -0.578125 Z M 3.40625 -5.390625 "/>
</g>
<g id="glyph-1-3">
<path d="M 1.4375 -0.671875 C 1.359375 -0.359375 1.34375 -0.28125 0.671875 -0.28125 C 0.5 -0.28125 0.40625 -0.28125 0.40625 -0.109375 C 0.40625 0 0.484375 0 0.65625 0 L 3.65625 0 C 5.5625 0 7.34375 -1.890625 7.34375 -3.8125 C 7.34375 -5.046875 6.578125 -6.09375 5.1875 -6.09375 L 2.125 -6.09375 C 1.96875 -6.09375 1.859375 -6.09375 1.859375 -5.9375 C 1.859375 -5.8125 1.9375 -5.8125 2.125 -5.8125 C 2.15625 -5.8125 2.3125 -5.8125 2.46875 -5.796875 C 2.609375 -5.78125 2.671875 -5.765625 2.671875 -5.671875 C 2.671875 -5.625 2.671875 -5.578125 2.640625 -5.484375 Z M 3.40625 -5.46875 C 3.484375 -5.796875 3.5 -5.8125 3.875 -5.8125 L 4.875 -5.8125 C 5.8125 -5.8125 6.546875 -5.296875 6.546875 -4.15625 C 6.546875 -3.625 6.328125 -2.203125 5.625 -1.328125 C 5.21875 -0.8125 4.484375 -0.28125 3.5 -0.28125 L 2.421875 -0.28125 C 2.296875 -0.28125 2.28125 -0.28125 2.25 -0.28125 C 2.15625 -0.296875 2.125 -0.296875 2.125 -0.359375 C 2.125 -0.390625 2.125 -0.40625 2.171875 -0.578125 Z M 3.40625 -5.46875 "/>
</g>
<g id="glyph-1-4">
<path d="M 5.796875 -5.125 C 5.875 -5.5 6.046875 -5.796875 6.75 -5.8125 C 6.796875 -5.8125 6.90625 -5.828125 6.90625 -5.984375 C 6.90625 -6.046875 6.859375 -6.09375 6.78125 -6.09375 C 6.578125 -6.09375 6.078125 -6.0625 5.890625 -6.0625 C 5.671875 -6.0625 5.640625 -6.0625 5.4375 -6.078125 C 5.296875 -6.078125 5.109375 -6.09375 4.96875 -6.09375 C 4.9375 -6.09375 4.8125 -6.09375 4.8125 -5.9375 C 4.8125 -5.8125 4.921875 -5.8125 4.96875 -5.8125 C 5.3125 -5.8125 5.5625 -5.734375 5.5625 -5.4375 C 5.5625 -5.390625 5.546875 -5.265625 5.546875 -5.25 L 4.734375 -2.0625 C 4.421875 -0.828125 3.34375 -0.078125 2.46875 -0.078125 C 2 -0.078125 1.34375 -0.328125 1.34375 -1.265625 C 1.34375 -1.5 1.390625 -1.734375 1.4375 -1.96875 L 2.296875 -5.40625 C 2.375 -5.75 2.40625 -5.8125 3.109375 -5.8125 C 3.25 -5.8125 3.34375 -5.8125 3.34375 -5.984375 C 3.34375 -6.0625 3.28125 -6.09375 3.21875 -6.09375 L 2.65625 -6.078125 C 2.375 -6.0625 2.359375 -6.0625 2.078125 -6.0625 C 1.796875 -6.0625 1.78125 -6.0625 1.5 -6.078125 C 1.328125 -6.078125 1.09375 -6.09375 0.921875 -6.09375 C 0.875 -6.09375 0.75 -6.09375 0.75 -5.9375 C 0.75 -5.8125 0.84375 -5.8125 1.015625 -5.8125 C 1.046875 -5.8125 1.21875 -5.8125 1.359375 -5.796875 C 1.53125 -5.78125 1.5625 -5.75 1.5625 -5.671875 C 1.5625 -5.609375 1.484375 -5.296875 1.4375 -5.109375 L 1.234375 -4.3125 C 1.15625 -3.96875 0.734375 -2.296875 0.703125 -2.109375 C 0.625 -1.828125 0.609375 -1.734375 0.609375 -1.53125 C 0.609375 -0.5 1.390625 0.203125 2.4375 0.203125 C 3.59375 0.203125 4.71875 -0.828125 5 -1.984375 Z M 5.796875 -5.125 "/>
</g>
<g id="glyph-1-5">
<path d="M 1.625 -0.140625 C 1.625 0.15625 1.625 0.890625 0.96875 1.515625 C 0.90625 1.5625 0.90625 1.578125 0.90625 1.609375 C 0.90625 1.671875 0.96875 1.71875 1.03125 1.71875 C 1.125 1.71875 1.84375 1.03125 1.84375 -0.015625 C 1.84375 -0.578125 1.65625 -0.96875 1.265625 -0.96875 C 0.96875 -0.96875 0.78125 -0.734375 0.78125 -0.484375 C 0.78125 -0.234375 0.96875 0 1.265625 0 C 1.40625 0 1.53125 -0.046875 1.625 -0.140625 Z M 1.625 -0.140625 "/>
</g>
<g id="glyph-1-6">
<path d="M 8.453125 -5.40625 C 8.53125 -5.734375 8.5625 -5.8125 9.25 -5.8125 C 9.390625 -5.8125 9.5 -5.8125 9.5 -5.984375 C 9.5 -6.09375 9.40625 -6.09375 9.234375 -6.09375 L 8.0625 -6.09375 C 7.84375 -6.09375 7.8125 -6.09375 7.703125 -5.921875 L 4.40625 -0.84375 L 3.671875 -5.859375 C 3.625 -6.09375 3.625 -6.09375 3.375 -6.09375 L 2.15625 -6.09375 C 1.984375 -6.09375 1.875 -6.09375 1.875 -5.9375 C 1.875 -5.8125 1.96875 -5.8125 2.15625 -5.8125 C 2.1875 -5.8125 2.34375 -5.8125 2.484375 -5.796875 C 2.65625 -5.78125 2.703125 -5.75 2.703125 -5.671875 C 2.703125 -5.625 2.6875 -5.578125 2.671875 -5.484375 L 1.53125 -0.953125 C 1.421875 -0.484375 1.171875 -0.296875 0.578125 -0.28125 C 0.546875 -0.28125 0.421875 -0.265625 0.421875 -0.109375 C 0.421875 -0.09375 0.421875 0 0.546875 0 C 0.65625 0 0.890625 -0.015625 1 -0.015625 C 1.140625 -0.03125 1.15625 -0.03125 1.453125 -0.03125 C 1.671875 -0.03125 1.6875 -0.03125 1.90625 -0.015625 C 2.046875 -0.015625 2.234375 0 2.359375 0 C 2.40625 0 2.53125 0 2.53125 -0.15625 C 2.53125 -0.265625 2.421875 -0.28125 2.34375 -0.28125 C 1.921875 -0.28125 1.765625 -0.421875 1.765625 -0.65625 C 1.765625 -0.71875 1.78125 -0.734375 1.796875 -0.859375 L 3 -5.703125 L 3.015625 -5.703125 L 3.828125 -0.234375 C 3.84375 -0.09375 3.859375 0 3.984375 0 C 4.09375 0 4.140625 -0.09375 4.1875 -0.171875 L 7.828125 -5.765625 L 6.5625 -0.671875 C 6.484375 -0.359375 6.453125 -0.28125 5.796875 -0.28125 C 5.625 -0.28125 5.515625 -0.28125 5.515625 -0.109375 C 5.515625 -0.03125 5.578125 0 5.65625 0 C 5.765625 0 6.109375 -0.015625 6.21875 -0.015625 C 6.359375 -0.03125 6.578125 -0.03125 6.75 -0.03125 C 6.78125 -0.03125 7.140625 -0.015625 7.328125 -0.015625 C 7.5 -0.015625 7.703125 0 7.875 0 C 7.921875 0 8.03125 0 8.03125 -0.15625 C 8.03125 -0.28125 7.953125 -0.28125 7.765625 -0.28125 C 7.71875 -0.28125 7.5625 -0.28125 7.421875 -0.296875 C 7.234375 -0.328125 7.21875 -0.359375 7.21875 -0.4375 C 7.21875 -0.515625 7.234375 -0.59375 7.25 -0.65625 Z M 8.453125 -5.40625 "/>
</g>
<g id="glyph-1-7">
<path d="M 1.453125 -0.671875 C 1.375 -0.359375 1.359375 -0.28125 0.6875 -0.28125 C 0.515625 -0.28125 0.421875 -0.28125 0.421875 -0.109375 C 0.421875 0 0.515625 0 0.671875 0 L 3.921875 0 C 5.359375 0 6.421875 -1.046875 6.421875 -1.921875 C 6.421875 -2.546875 5.890625 -3.09375 5.015625 -3.1875 C 6.03125 -3.375 6.890625 -4.0625 6.890625 -4.859375 C 6.890625 -5.546875 6.25 -6.09375 5.1875 -6.09375 L 2.140625 -6.09375 C 1.984375 -6.09375 1.875 -6.09375 1.875 -5.9375 C 1.875 -5.8125 1.953125 -5.8125 2.140625 -5.8125 C 2.171875 -5.8125 2.34375 -5.8125 2.484375 -5.796875 C 2.625 -5.78125 2.6875 -5.765625 2.6875 -5.671875 C 2.6875 -5.625 2.6875 -5.578125 2.65625 -5.484375 Z M 2.84375 -3.28125 L 3.390625 -5.46875 C 3.46875 -5.796875 3.484375 -5.8125 3.859375 -5.8125 L 5.0625 -5.8125 C 6 -5.8125 6.078125 -5.109375 6.078125 -4.890625 C 6.078125 -4.09375 5.25 -3.28125 4.234375 -3.28125 Z M 2.421875 -0.28125 C 2.296875 -0.28125 2.28125 -0.28125 2.234375 -0.28125 C 2.15625 -0.296875 2.125 -0.296875 2.125 -0.359375 C 2.125 -0.390625 2.125 -0.40625 2.171875 -0.578125 L 2.78125 -3.0625 L 4.453125 -3.0625 C 5.015625 -3.0625 5.578125 -2.8125 5.578125 -2 C 5.578125 -1.125 4.765625 -0.28125 3.6875 -0.28125 Z M 2.421875 -0.28125 "/>
</g>
<g id="glyph-2-0">
<path d="M 6.015625 -2.046875 C 6.1875 -2.046875 6.359375 -2.046875 6.359375 -2.234375 C 6.359375 -2.421875 6.171875 -2.421875 6.015625 -2.421875 L 1.09375 -2.421875 C 0.953125 -2.421875 0.765625 -2.421875 0.765625 -2.234375 C 0.765625 -2.046875 0.9375 -2.046875 1.09375 -2.046875 Z M 6.015625 -2.046875 "/>
</g>
</g>
</defs>
<path fill-rule="nonzero" fill="rgb(0%, 0%, 0%)" fill-opacity="1" stroke-width="0.3985" stroke-linecap="butt" stroke-linejoin="miter" stroke="rgb(0%, 0%, 0%)" stroke-opacity="1" stroke-miterlimit="10" d="M 2.253956 0.000417809 C 2.253956 1.244416 1.245415 2.252957 0.00141714 2.252957 C -1.246505 2.252957 -2.255046 1.244416 -2.255046 0.000417809 C -2.255046 -1.24358 -1.246505 -2.256045 0.00141714 -2.256045 C 1.245415 -2.256045 2.253956 -1.24358 2.253956 0.000417809 Z M 2.253956 0.000417809 " transform="matrix(0.995405, 0, 0, -0.995405, 208.885308, 19.316822)"/>
<g fill="rgb(0%, 0%, 0%)" fill-opacity="1">
<use xlink:href="#glyph-0-0" x="194.986473" y="13.37127"/>
<use xlink:href="#glyph-0-1" x="201.865122" y="13.37127"/>
<use xlink:href="#glyph-0-2" x="206.45178" y="13.37127"/>
<use xlink:href="#glyph-0-3" x="210.019181" y="13.37127"/>
<use xlink:href="#glyph-0-4" x="215.115468" y="13.37127"/>
<use xlink:href="#glyph-0-5" x="218.703397" y="13.37127"/>
</g>
<path fill-rule="nonzero" fill="rgb(0%, 0%, 0%)" fill-opacity="1" stroke-width="0.3985" stroke-linecap="butt" stroke-linejoin="miter" stroke="rgb(0%, 0%, 0%)" stroke-opacity="1" stroke-miterlimit="10" d="M -111.134293 -42.519195 C -111.134293 -41.275197 -112.142834 -40.266656 -113.386832 -40.266656 C -114.63083 -40.266656 -115.643295 -41.275197 -115.643295 -42.519195 C -115.643295 -43.767117 -114.63083 -44.775658 -113.386832 -44.775658 C -112.142834 -44.775658 -111.134293 -43.767117 -111.134293 -42.519195 Z M -111.134293 -42.519195 " transform="matrix(0.995405, 0, 0, -0.995405, 208.885308, 19.316822)"/>
<g fill="rgb(0%, 0%, 0%)" fill-opacity="1">
<use xlink:href="#glyph-0-6" x="93.726947" y="55.69488"/>
</g>
<path fill-rule="nonzero" fill="rgb(0%, 0%, 0%)" fill-opacity="1" stroke-width="0.3985" stroke-linecap="butt" stroke-linejoin="miter" stroke="rgb(0%, 0%, 0%)" stroke-opacity="1" stroke-miterlimit="10" d="M 115.642205 -42.519195 C 115.642205 -41.275197 114.633664 -40.266656 113.385742 -40.266656 C 112.141744 -40.266656 111.133203 -41.275197 111.133203 -42.519195 C 111.133203 -43.767117 112.141744 -44.775658 113.385742 -44.775658 C 114.633664 -44.775658 115.642205 -43.767117 115.642205 -42.519195 Z M 115.642205 -42.519195 " transform="matrix(0.995405, 0, 0, -0.995405, 208.885308, 19.316822)"/>
<g fill="rgb(0%, 0%, 0%)" fill-opacity="1">
<use xlink:href="#glyph-0-6" x="319.456845" y="55.69488"/>
</g>
<path fill="none" stroke-width="0.3985" stroke-linecap="butt" stroke-linejoin="miter" stroke="rgb(0%, 0%, 0%)" stroke-opacity="1" stroke-miterlimit="10" d="M -2.298213 -0.862925 L -111.091126 -41.659776 " transform="matrix(0.995405, 0, 0, -0.995405, 208.885308, 19.316822)"/>
<g fill="rgb(0%, 0%, 0%)" fill-opacity="1">
<use xlink:href="#glyph-1-0" x="125.855622" y="34.744598"/>
</g>
<g fill="rgb(0%, 0%, 0%)" fill-opacity="1">
<use xlink:href="#glyph-0-7" x="137.209364" y="34.744598"/>
</g>
<g fill="rgb(0%, 0%, 0%)" fill-opacity="1">
<use xlink:href="#glyph-1-1" x="140.776765" y="34.744598"/>
</g>
<g fill="rgb(0%, 0%, 0%)" fill-opacity="1">
<use xlink:href="#glyph-0-8" x="145.381274" y="34.744598"/>
</g>
<path fill="none" stroke-width="0.3985" stroke-linecap="butt" stroke-linejoin="miter" stroke="rgb(0%, 0%, 0%)" stroke-opacity="1" stroke-miterlimit="10" d="M 2.297123 -0.862925 L 111.090036 -41.659776 " transform="matrix(0.995405, 0, 0, -0.995405, 208.885308, 19.316822)"/>
<g fill="rgb(0%, 0%, 0%)" fill-opacity="1">
<use xlink:href="#glyph-1-2" x="268.821607" y="34.744598"/>
</g>
<g fill="rgb(0%, 0%, 0%)" fill-opacity="1">
<use xlink:href="#glyph-0-7" x="278.125231" y="34.744598"/>
<use xlink:href="#glyph-0-6" x="281.692632" y="34.744598"/>
</g>
<g fill="rgb(0%, 0%, 0%)" fill-opacity="1">
<use xlink:href="#glyph-2-0" x="288.314235" y="34.744598"/>
</g>
<g fill="rgb(0%, 0%, 0%)" fill-opacity="1">
<use xlink:href="#glyph-1-1" x="297.483981" y="34.744598"/>
</g>
<g fill="rgb(0%, 0%, 0%)" fill-opacity="1">
<use xlink:href="#glyph-0-8" x="302.08849" y="34.744598"/>
</g>
<path fill-rule="nonzero" fill="rgb(0%, 0%, 0%)" fill-opacity="1" stroke-width="0.3985" stroke-linecap="butt" stroke-linejoin="miter" stroke="rgb(0%, 0%, 0%)" stroke-opacity="1" stroke-miterlimit="10" d="M -167.824493 -93.542729 C -167.824493 -92.298731 -168.836959 -91.290191 -170.080957 -91.290191 C -171.324954 -91.290191 -172.333495 -92.298731 -172.333495 -93.542729 C -172.333495 -94.790652 -171.324954 -95.799192 -170.080957 -95.799192 C -168.836959 -95.799192 -167.824493 -94.790652 -167.824493 -93.542729 Z M -167.824493 -93.542729 " transform="matrix(0.995405, 0, 0, -0.995405, 208.885308, 19.316822)"/>
<path fill-rule="nonzero" fill="rgb(0%, 0%, 0%)" fill-opacity="1" stroke-width="0.3985" stroke-linecap="butt" stroke-linejoin="miter" stroke="rgb(0%, 0%, 0%)" stroke-opacity="1" stroke-miterlimit="10" d="M -54.440169 -93.542729 C -54.440169 -92.298731 -55.44871 -91.290191 -56.692707 -91.290191 C -57.94063 -91.290191 -58.94917 -92.298731 -58.94917 -93.542729 C -58.94917 -94.790652 -57.94063 -95.799192 -56.692707 -95.799192 C -55.44871 -95.799192 -54.440169 -94.790652 -54.440169 -93.542729 Z M -54.440169 -93.542729 " transform="matrix(0.995405, 0, 0, -0.995405, 208.885308, 19.316822)"/>
<path fill-rule="nonzero" fill="rgb(0%, 0%, 0%)" fill-opacity="1" stroke-width="0.3985" stroke-linecap="butt" stroke-linejoin="miter" stroke="rgb(0%, 0%, 0%)" stroke-opacity="1" stroke-miterlimit="10" d="M 58.94808 -93.542729 C 58.94808 -92.298731 57.93954 -91.290191 56.695542 -91.290191 C 55.44762 -91.290191 54.439079 -92.298731 54.439079 -93.542729 C 54.439079 -94.790652 55.44762 -95.799192 56.695542 -95.799192 C 57.93954 -95.799192 58.94808 -94.790652 58.94808 -93.542729 Z M 58.94808 -93.542729 " transform="matrix(0.995405, 0, 0, -0.995405, 208.885308, 19.316822)"/>
<path fill-rule="nonzero" fill="rgb(0%, 0%, 0%)" fill-opacity="1" stroke-width="0.3985" stroke-linecap="butt" stroke-linejoin="miter" stroke="rgb(0%, 0%, 0%)" stroke-opacity="1" stroke-miterlimit="10" d="M 172.33633 -93.542729 C 172.33633 -92.298731 171.327789 -91.290191 170.079867 -91.290191 C 168.835869 -91.290191 167.827328 -92.298731 167.827328 -93.542729 C 167.827328 -94.790652 168.835869 -95.799192 170.079867 -95.799192 C 171.327789 -95.799192 172.33633 -94.790652 172.33633 -93.542729 Z M 172.33633 -93.542729 " transform="matrix(0.995405, 0, 0, -0.995405, 208.885308, 19.316822)"/>
<path fill="none" stroke-width="0.3985" stroke-linecap="butt" stroke-linejoin="miter" stroke="rgb(0%, 0%, 0%)" stroke-opacity="1" stroke-miterlimit="10" d="M -115.211624 -44.163469 L -168.256165 -91.902379 " transform="matrix(0.995405, 0, 0, -0.995405, 208.885308, 19.316822)"/>
<g fill="rgb(0%, 0%, 0%)" fill-opacity="1">
<use xlink:href="#glyph-1-3" x="56.481892" y="83.532365"/>
</g>
<path fill="none" stroke-width="0.3985" stroke-linecap="butt" stroke-linejoin="miter" stroke="rgb(0%, 0%, 0%)" stroke-opacity="1" stroke-miterlimit="10" d="M -111.56204 -44.163469 L -58.517499 -91.902379 " transform="matrix(0.995405, 0, 0, -0.995405, 208.885308, 19.316822)"/>
<g fill="rgb(0%, 0%, 0%)" fill-opacity="1">
<use xlink:href="#glyph-1-4" x="127.739923" y="83.532365"/>
</g>
<path fill="none" stroke-width="0.3985" stroke-linecap="butt" stroke-linejoin="miter" stroke="rgb(0%, 0%, 0%)" stroke-opacity="1" stroke-miterlimit="10" d="M 111.564874 -44.163469 L 58.516409 -91.902379 " transform="matrix(0.995405, 0, 0, -0.995405, 208.885308, 19.316822)"/>
<g fill="rgb(0%, 0%, 0%)" fill-opacity="1">
<use xlink:href="#glyph-1-4" x="282.82695" y="83.532365"/>
</g>
<path fill="none" stroke-width="0.3985" stroke-linecap="butt" stroke-linejoin="miter" stroke="rgb(0%, 0%, 0%)" stroke-opacity="1" stroke-miterlimit="10" d="M 115.210534 -44.163469 L 168.255075 -91.902379 " transform="matrix(0.995405, 0, 0, -0.995405, 208.885308, 19.316822)"/>
<g fill="rgb(0%, 0%, 0%)" fill-opacity="1">
<use xlink:href="#glyph-1-3" x="353.469821" y="83.532365"/>
</g>
<g fill="rgb(0%, 0%, 0%)" fill-opacity="1">
<use xlink:href="#glyph-0-9" x="8.097264" y="162.406237"/>
</g>
<g fill="rgb(0%, 0%, 0%)" fill-opacity="1">
<use xlink:href="#glyph-1-5" x="12.683923" y="162.406237"/>
</g>
<g fill="rgb(0%, 0%, 0%)" fill-opacity="1">
<use xlink:href="#glyph-0-6" x="16.758275" y="162.406237"/>
<use xlink:href="#glyph-0-10" x="21.344933" y="162.406237"/>
</g>
<g fill="rgb(0%, 0%, 0%)" fill-opacity="1">
<use xlink:href="#glyph-0-11" x="55.536258" y="162.406237"/>
</g>
<g fill="rgb(0%, 0%, 0%)" fill-opacity="1">
<use xlink:href="#glyph-1-5" x="60.122916" y="162.406237"/>
</g>
<g fill="rgb(0%, 0%, 0%)" fill-opacity="1">
<use xlink:href="#glyph-0-12" x="64.197268" y="162.406237"/>
</g>
<g fill="rgb(0%, 0%, 0%)" fill-opacity="1">
<use xlink:href="#glyph-0-6" x="118.668801" y="162.406237"/>
<use xlink:href="#glyph-0-10" x="123.255459" y="162.406237"/>
</g>
<g fill="rgb(0%, 0%, 0%)" fill-opacity="1">
<use xlink:href="#glyph-1-5" x="127.842117" y="162.406237"/>
</g>
<g fill="rgb(0%, 0%, 0%)" fill-opacity="1">
<use xlink:href="#glyph-0-6" x="131.916469" y="162.406237"/>
<use xlink:href="#glyph-0-10" x="136.503128" y="162.406237"/>
</g>
<g fill="rgb(0%, 0%, 0%)" fill-opacity="1">
<use xlink:href="#glyph-0-13" x="168.401207" y="162.406237"/>
</g>
<g fill="rgb(0%, 0%, 0%)" fill-opacity="1">
<use xlink:href="#glyph-1-5" x="172.987865" y="162.406237"/>
</g>
<g fill="rgb(0%, 0%, 0%)" fill-opacity="1">
<use xlink:href="#glyph-0-12" x="177.062217" y="162.406237"/>
</g>
<g fill="rgb(0%, 0%, 0%)" fill-opacity="1">
<use xlink:href="#glyph-0-6" x="233.826166" y="162.406237"/>
<use xlink:href="#glyph-0-10" x="238.412825" y="162.406237"/>
</g>
<g fill="rgb(0%, 0%, 0%)" fill-opacity="1">
<use xlink:href="#glyph-1-5" x="242.999483" y="162.406237"/>
</g>
<g fill="rgb(0%, 0%, 0%)" fill-opacity="1">
<use xlink:href="#glyph-0-10" x="247.073835" y="162.406237"/>
</g>
<g fill="rgb(0%, 0%, 0%)" fill-opacity="1">
<use xlink:href="#glyph-0-13" x="281.266155" y="162.406237"/>
</g>
<g fill="rgb(0%, 0%, 0%)" fill-opacity="1">
<use xlink:href="#glyph-1-5" x="285.852814" y="162.406237"/>
</g>
<g fill="rgb(0%, 0%, 0%)" fill-opacity="1">
<use xlink:href="#glyph-0-14" x="289.927166" y="162.406237"/>
</g>
<g fill="rgb(0%, 0%, 0%)" fill-opacity="1">
<use xlink:href="#glyph-0-12" x="348.984527" y="162.406237"/>
</g>
<g fill="rgb(0%, 0%, 0%)" fill-opacity="1">
<use xlink:href="#glyph-1-5" x="353.571186" y="162.406237"/>
</g>
<g fill="rgb(0%, 0%, 0%)" fill-opacity="1">
<use xlink:href="#glyph-0-10" x="357.645538" y="162.406237"/>
</g>
<g fill="rgb(0%, 0%, 0%)" fill-opacity="1">
<use xlink:href="#glyph-0-6" x="394.130109" y="162.406237"/>
</g>
<g fill="rgb(0%, 0%, 0%)" fill-opacity="1">
<use xlink:href="#glyph-1-5" x="398.716767" y="162.406237"/>
</g>
<g fill="rgb(0%, 0%, 0%)" fill-opacity="1">
<use xlink:href="#glyph-0-14" x="402.791119" y="162.406237"/>
</g>
<path fill="none" stroke-width="0.3985" stroke-linecap="butt" stroke-linejoin="miter" stroke="rgb(0%, 0%, 0%)" stroke-opacity="1" stroke-miterlimit="10" d="M -171.124816 -95.763874 L -189.333492 -134.453385 " transform="matrix(0.995405, 0, 0, -0.995405, 208.885308, 19.316822)"/>
<g fill="rgb(0%, 0%, 0%)" fill-opacity="1">
<use xlink:href="#glyph-1-6" x="16.15606" y="136.944782"/>
</g>
<path fill="none" stroke-width="0.3985" stroke-linecap="butt" stroke-linejoin="miter" stroke="rgb(0%, 0%, 0%)" stroke-opacity="1" stroke-miterlimit="10" d="M -169.037097 -95.763874 L -150.828421 -134.453385 " transform="matrix(0.995405, 0, 0, -0.995405, 208.885308, 19.316822)"/>
<g fill="rgb(0%, 0%, 0%)" fill-opacity="1">
<use xlink:href="#glyph-1-7" x="53.194071" y="136.944782"/>
</g>
<path fill="none" stroke-width="0.3985" stroke-linecap="butt" stroke-linejoin="miter" stroke="rgb(0%, 0%, 0%)" stroke-opacity="1" stroke-miterlimit="10" d="M -57.736567 -95.763874 L -75.945243 -134.453385 " transform="matrix(0.995405, 0, 0, -0.995405, 208.885308, 19.316822)"/>
<g fill="rgb(0%, 0%, 0%)" fill-opacity="1">
<use xlink:href="#glyph-1-6" x="129.021009" y="136.944782"/>
</g>
<path fill="none" stroke-width="0.3985" stroke-linecap="butt" stroke-linejoin="miter" stroke="rgb(0%, 0%, 0%)" stroke-opacity="1" stroke-miterlimit="10" d="M -55.648848 -95.763874 L -37.440172 -134.453385 " transform="matrix(0.995405, 0, 0, -0.995405, 208.885308, 19.316822)"/>
<g fill="rgb(0%, 0%, 0%)" fill-opacity="1">
<use xlink:href="#glyph-1-7" x="166.05902" y="136.944782"/>
</g>
<path fill="none" stroke-width="0.3985" stroke-linecap="butt" stroke-linejoin="miter" stroke="rgb(0%, 0%, 0%)" stroke-opacity="1" stroke-miterlimit="10" d="M 55.647758 -95.763874 L 37.439082 -134.453385 " transform="matrix(0.995405, 0, 0, -0.995405, 208.885308, 19.316822)"/>
<g fill="rgb(0%, 0%, 0%)" fill-opacity="1">
<use xlink:href="#glyph-1-6" x="241.885958" y="136.944782"/>
</g>
<path fill="none" stroke-width="0.3985" stroke-linecap="butt" stroke-linejoin="miter" stroke="rgb(0%, 0%, 0%)" stroke-opacity="1" stroke-miterlimit="10" d="M 57.739401 -95.763874 L 75.948077 -134.453385 " transform="matrix(0.995405, 0, 0, -0.995405, 208.885308, 19.316822)"/>
<g fill="rgb(0%, 0%, 0%)" fill-opacity="1">
<use xlink:href="#glyph-1-7" x="278.923968" y="136.944782"/>
</g>
<path fill="none" stroke-width="0.3985" stroke-linecap="butt" stroke-linejoin="miter" stroke="rgb(0%, 0%, 0%)" stroke-opacity="1" stroke-miterlimit="10" d="M 169.036007 -95.763874 L 150.827331 -134.453385 " transform="matrix(0.995405, 0, 0, -0.995405, 208.885308, 19.316822)"/>
<g fill="rgb(0%, 0%, 0%)" fill-opacity="1">
<use xlink:href="#glyph-1-6" x="354.750906" y="136.944782"/>
</g>
<path fill="none" stroke-width="0.3985" stroke-linecap="butt" stroke-linejoin="miter" stroke="rgb(0%, 0%, 0%)" stroke-opacity="1" stroke-miterlimit="10" d="M 171.12765 -95.763874 L 189.336326 -134.453385 " transform="matrix(0.995405, 0, 0, -0.995405, 208.885308, 19.316822)"/>
<g fill="rgb(0%, 0%, 0%)" fill-opacity="1">
<use xlink:href="#glyph-1-7" x="391.788917" y="136.944782"/>
</g>
<path fill="none" stroke-width="0.3985" stroke-linecap="butt" stroke-linejoin="miter" stroke="rgb(0%, 0%, 0%)" stroke-opacity="1" stroke-dasharray="2.98883 2.98883" stroke-miterlimit="10" d="M -54.56967 -92.318353 C -17.708875 -71.036963 17.711709 -71.036963 54.56858 -92.318353 " transform="matrix(0.995405, 0, 0, -0.995405, 208.885308, 19.316822)"/>
<g fill="rgb(0%, 0%, 0%)" fill-opacity="1">
<use xlink:href="#glyph-1-4" x="197.89405" y="89.587412"/>
</g>
<g fill="rgb(0%, 0%, 0%)" fill-opacity="1">
<use xlink:href="#glyph-0-7" x="208.158918" y="89.587412"/>
<use xlink:href="#glyph-0-15" x="211.726319" y="89.587412"/>
<use xlink:href="#glyph-0-8" x="216.312977" y="89.587412"/>
</g>
<path fill="none" stroke-width="0.3985" stroke-linecap="butt" stroke-linejoin="miter" stroke="rgb(0%, 0%, 0%)" stroke-opacity="1" stroke-dasharray="2.98883 2.98883" stroke-miterlimit="10" d="M -167.773478 -94.382526 C -44.809977 -139.13898 44.812811 -139.13898 167.776312 -94.382526 " transform="matrix(0.995405, 0, 0, -0.995405, 208.885308, 19.316822)"/>
<g fill="rgb(0%, 0%, 0%)" fill-opacity="1">
<use xlink:href="#glyph-1-3" x="197.58647" y="158.858615"/>
</g>
<g fill="rgb(0%, 0%, 0%)" fill-opacity="1">
<use xlink:href="#glyph-0-7" x="208.461822" y="158.858615"/>
<use xlink:href="#glyph-0-15" x="212.029222" y="158.858615"/>
<use xlink:href="#glyph-0-8" x="216.615881" y="158.858615"/>
</g>
</svg>
