<?xml version="1.0" encoding="UTF-8"?>
<svg xmlns="http://www.w3.org/2000/svg" xmlns:xlink="http://www.w3.org/1999/xlink" width="118.465pt" height="167.965pt" viewBox="0 0 118.465 167.965">
<defs>
<g>
<g id="glyph-0-0">
<path d="M 5.34375 -6.0625 L 0.34375 -6.0625 L 0.34375 -5.796875 L 0.546875 -5.796875 C 1.234375 -5.796875 1.25 -5.6875 1.25 -5.359375 L 1.25 -0.703125 C 1.25 -0.375 1.234375 -0.28125 0.546875 -0.28125 L 0.34375 -0.28125 L 0.34375 0 C 0.734375 -0.03125 1.296875 -0.03125 1.703125 -0.03125 C 2.0625 -0.03125 2.875 -0.03125 3.1875 0 L 3.1875 -0.28125 L 2.90625 -0.28125 C 2.09375 -0.28125 2.046875 -0.390625 2.046875 -0.71875 L 2.046875 -2.90625 L 2.859375 -2.90625 C 3.71875 -2.90625 3.8125 -2.609375 3.8125 -1.859375 L 4.0625 -1.859375 L 4.0625 -4.21875 L 3.8125 -4.21875 C 3.8125 -3.46875 3.71875 -3.171875 2.859375 -3.171875 L 2.046875 -3.171875 L 2.046875 -5.421875 C 2.046875 -5.734375 2.0625 -5.796875 2.484375 -5.796875 L 3.609375 -5.796875 C 4.984375 -5.796875 5.203125 -5.296875 5.34375 -4.0625 L 5.59375 -4.0625 Z M 5.34375 -6.0625 "/>
</g>
<g id="glyph-0-1">
<path d="M 1.640625 -3.9375 L 0.359375 -3.84375 L 0.359375 -3.5625 C 0.921875 -3.5625 1.015625 -3.515625 1.015625 -3.078125 L 1.015625 -0.6875 C 1.015625 -0.28125 0.90625 -0.28125 0.328125 -0.28125 L 0.328125 0 C 0.71875 -0.015625 0.90625 -0.03125 1.296875 -0.03125 C 1.453125 -0.03125 1.8125 -0.03125 2.25 0 L 2.25 -0.28125 C 1.671875 -0.28125 1.640625 -0.328125 1.640625 -0.671875 Z M 1.671875 -5.5 C 1.671875 -5.765625 1.453125 -5.984375 1.1875 -5.984375 C 0.90625 -5.984375 0.703125 -5.75 0.703125 -5.5 C 0.703125 -5.234375 0.90625 -5.015625 1.1875 -5.015625 C 1.453125 -5.015625 1.671875 -5.234375 1.671875 -5.5 Z M 1.671875 -5.5 "/>
</g>
<g id="glyph-0-2">
<path d="M 1.59375 -2.046875 C 1.59375 -2.40625 1.6875 -3.71875 2.703125 -3.71875 C 2.6875 -3.703125 2.546875 -3.59375 2.546875 -3.375 C 2.546875 -3.140625 2.734375 -2.984375 2.9375 -2.984375 C 3.125 -2.984375 3.328125 -3.125 3.328125 -3.390625 C 3.328125 -3.671875 3.0625 -3.9375 2.65625 -3.9375 C 2.125 -3.9375 1.75 -3.5625 1.546875 -3.015625 L 1.53125 -3.015625 L 1.53125 -3.9375 L 0.265625 -3.84375 L 0.265625 -3.5625 C 0.875 -3.5625 0.953125 -3.5 0.953125 -3.0625 L 0.953125 -0.6875 C 0.953125 -0.28125 0.859375 -0.28125 0.265625 -0.28125 L 0.265625 0 C 0.734375 -0.015625 0.859375 -0.03125 1.3125 -0.03125 C 1.671875 -0.03125 1.875 -0.015625 2.4375 0 L 2.4375 -0.28125 L 2.265625 -0.28125 C 1.609375 -0.28125 1.59375 -0.375 1.59375 -0.703125 Z M 1.59375 -2.046875 "/>
</g>
<g id="glyph-0-3">
<path d="M 1.65625 -2.3125 C 1.65625 -3.28125 2.359375 -3.71875 2.890625 -3.71875 C 3.375 -3.71875 3.546875 -3.375 3.546875 -2.75 L 3.546875 -0.6875 C 3.546875 -0.28125 3.4375 -0.28125 2.859375 -0.28125 L 2.859375 0 C 3.28125 -0.015625 3.4375 -0.03125 3.875 -0.03125 C 4.296875 -0.03125 4.421875 -0.015625 4.890625 0 L 4.890625 -0.28125 C 4.296875 -0.28125 4.203125 -0.28125 4.203125 -0.6875 L 4.203125 -2.3125 C 4.203125 -3.28125 4.890625 -3.71875 5.4375 -3.71875 C 5.921875 -3.71875 6.078125 -3.375 6.078125 -2.75 L 6.078125 -0.6875 C 6.078125 -0.28125 5.984375 -0.28125 5.390625 -0.28125 L 5.390625 0 C 5.8125 -0.015625 5.984375 -0.03125 6.421875 -0.03125 C 6.84375 -0.03125 6.953125 -0.015625 7.4375 0 L 7.4375 -0.28125 C 6.984375 -0.28125 6.75 -0.28125 6.75 -0.546875 L 6.75 -2.265625 C 6.75 -3.046875 6.75 -3.296875 6.453125 -3.625 C 6.265625 -3.84375 5.90625 -3.9375 5.5 -3.9375 C 4.859375 -3.9375 4.421875 -3.5625 4.171875 -3.09375 C 4.0625 -3.625 3.703125 -3.9375 2.953125 -3.9375 C 2.234375 -3.9375 1.796875 -3.484375 1.609375 -3.0625 L 1.609375 -3.9375 L 0.3125 -3.84375 L 0.3125 -3.5625 C 0.921875 -3.5625 1 -3.5 1 -3.0625 L 1 -0.6875 C 1 -0.28125 0.90625 -0.28125 0.3125 -0.28125 L 0.3125 0 C 0.734375 -0.015625 0.90625 -0.03125 1.328125 -0.03125 C 1.75 -0.03125 1.875 -0.015625 2.34375 0 L 2.34375 -0.28125 C 1.75 -0.28125 1.65625 -0.28125 1.65625 -0.6875 Z M 1.65625 -2.3125 "/>
</g>
<g id="glyph-0-4">
<path d="M 2.71875 -5.703125 C 2.71875 -5.921875 2.703125 -5.9375 2.484375 -5.9375 C 1.921875 -5.375 1.109375 -5.375 0.828125 -5.375 L 0.828125 -5.09375 C 1 -5.09375 1.546875 -5.09375 2.03125 -5.328125 L 2.03125 -0.71875 C 2.03125 -0.390625 2 -0.28125 1.171875 -0.28125 L 0.890625 -0.28125 L 0.890625 0 C 1.203125 -0.03125 2 -0.03125 2.359375 -0.03125 C 2.734375 -0.03125 3.53125 -0.03125 3.859375 0 L 3.859375 -0.28125 L 3.5625 -0.28125 C 2.734375 -0.28125 2.71875 -0.390625 2.71875 -0.71875 Z M 2.71875 -5.703125 "/>
</g>
<g id="glyph-0-5">
<path d="M 4.125 -1.578125 L 3.875 -1.578125 C 3.859375 -1.46875 3.78125 -0.9375 3.671875 -0.796875 C 3.609375 -0.71875 3 -0.71875 2.8125 -0.71875 L 1.234375 -0.71875 L 2.109375 -1.546875 C 3.578125 -2.8125 4.125 -3.296875 4.125 -4.203125 C 4.125 -5.234375 3.28125 -5.9375 2.171875 -5.9375 C 1.15625 -5.9375 0.453125 -5.125 0.453125 -4.3125 C 0.453125 -3.875 0.84375 -3.828125 0.921875 -3.828125 C 1.109375 -3.828125 1.390625 -3.96875 1.390625 -4.296875 C 1.390625 -4.5625 1.203125 -4.75 0.921875 -4.75 C 0.875 -4.75 0.84375 -4.75 0.8125 -4.75 C 1.03125 -5.375 1.59375 -5.671875 2.078125 -5.671875 C 2.984375 -5.671875 3.296875 -4.8125 3.296875 -4.203125 C 3.296875 -3.296875 2.609375 -2.546875 2.1875 -2.09375 L 0.546875 -0.328125 C 0.453125 -0.21875 0.453125 -0.203125 0.453125 0 L 3.875 0 Z M 4.125 -1.578125 "/>
</g>
<g id="glyph-0-6">
<path d="M 3.046875 2.125 C 3.046875 2.078125 3.015625 2.046875 2.96875 1.984375 C 1.8125 0.9375 1.46875 -0.671875 1.46875 -2.234375 C 1.46875 -3.609375 1.734375 -5.296875 2.984375 -6.484375 C 3.03125 -6.515625 3.046875 -6.546875 3.046875 -6.59375 C 3.046875 -6.65625 3 -6.6875 2.9375 -6.6875 C 2.828125 -6.6875 2.03125 -6.046875 1.546875 -5.078125 C 1.109375 -4.21875 0.90625 -3.296875 0.90625 -2.234375 C 0.90625 -1.59375 0.984375 -0.578125 1.46875 0.46875 C 2 1.5625 2.828125 2.21875 2.9375 2.21875 C 3 2.21875 3.046875 2.1875 3.046875 2.125 Z M 3.046875 2.125 "/>
</g>
<g id="glyph-0-7">
<path d="M 4.21875 -2.859375 C 4.21875 -3.453125 4.1875 -4.21875 3.875 -4.890625 C 3.484375 -5.734375 2.8125 -5.9375 2.296875 -5.9375 C 1.75 -5.9375 1.078125 -5.734375 0.6875 -4.875 C 0.40625 -4.25 0.359375 -3.53125 0.359375 -2.859375 C 0.359375 -2.28125 0.375 -1.40625 0.765625 -0.703125 C 1.171875 0.046875 1.875 0.203125 2.28125 0.203125 C 2.859375 0.203125 3.53125 -0.046875 3.90625 -0.875 C 4.171875 -1.46875 4.21875 -2.140625 4.21875 -2.859375 Z M 2.296875 -0.03125 C 2.03125 -0.03125 1.390625 -0.15625 1.21875 -1.15625 C 1.125 -1.6875 1.125 -2.453125 1.125 -2.96875 C 1.125 -3.5625 1.125 -4.28125 1.234375 -4.765625 C 1.40625 -5.5625 1.984375 -5.71875 2.28125 -5.71875 C 2.625 -5.71875 3.1875 -5.546875 3.359375 -4.703125 C 3.453125 -4.21875 3.453125 -3.53125 3.453125 -2.96875 C 3.453125 -2.40625 3.453125 -1.65625 3.359375 -1.140625 C 3.171875 -0.109375 2.515625 -0.03125 2.296875 -0.03125 Z M 2.296875 -0.03125 "/>
</g>
<g id="glyph-0-8">
<path d="M 2.65625 -2.234375 C 2.65625 -2.96875 2.546875 -3.953125 2.09375 -4.9375 C 1.5625 -6.046875 0.734375 -6.6875 0.625 -6.6875 C 0.53125 -6.6875 0.515625 -6.625 0.515625 -6.59375 C 0.515625 -6.546875 0.53125 -6.515625 0.59375 -6.453125 C 1.109375 -6 2.09375 -4.78125 2.09375 -2.234375 C 2.09375 -0.96875 1.859375 0.8125 0.578125 2.015625 C 0.546875 2.046875 0.515625 2.078125 0.515625 2.125 C 0.515625 2.15625 0.53125 2.21875 0.625 2.21875 C 0.734375 2.21875 1.53125 1.578125 2.015625 0.609375 C 2.4375 -0.25 2.65625 -1.171875 2.65625 -2.234375 Z M 2.65625 -2.234375 "/>
</g>
<g id="glyph-1-0">
<path d="M 4.109375 -3.640625 C 4.15625 -3.765625 4.15625 -3.78125 4.15625 -3.8125 C 4.15625 -3.921875 4.0625 -3.9375 4.046875 -3.9375 C 3.953125 -3.9375 3.609375 -3.640625 3.4375 -3.328125 C 3.296875 -3.65625 3.015625 -3.9375 2.5625 -3.9375 C 1.53125 -3.9375 0.375 -2.71875 0.375 -1.34375 C 0.375 -0.359375 1 0.09375 1.59375 0.09375 C 1.984375 0.09375 2.328125 -0.09375 2.65625 -0.40625 L 2.3125 0.96875 C 2.203125 1.421875 2.1875 1.453125 1.625 1.453125 C 1.53125 1.453125 1.421875 1.453125 1.421875 1.609375 C 1.421875 1.625 1.421875 1.734375 1.546875 1.734375 C 1.734375 1.734375 2.25 1.703125 2.4375 1.703125 C 2.734375 1.703125 2.75 1.703125 2.90625 1.71875 C 3.015625 1.71875 3.265625 1.734375 3.375 1.734375 C 3.421875 1.734375 3.546875 1.734375 3.546875 1.5625 C 3.546875 1.453125 3.453125 1.453125 3.296875 1.453125 C 2.875 1.453125 2.875 1.390625 2.875 1.3125 C 2.875 1.296875 2.875 1.25 2.921875 1.109375 Z M 2.828125 -1.09375 C 2.78125 -0.921875 2.78125 -0.90625 2.640625 -0.734375 C 2.3125 -0.359375 1.953125 -0.125 1.625 -0.125 C 1.1875 -0.125 1.03125 -0.578125 1.03125 -0.96875 C 1.03125 -1.40625 1.296875 -2.421875 1.5 -2.859375 C 1.796875 -3.390625 2.203125 -3.71875 2.5625 -3.71875 C 3.15625 -3.71875 3.296875 -3 3.296875 -2.9375 C 3.296875 -2.90625 3.28125 -2.84375 3.265625 -2.8125 Z M 2.828125 -1.09375 "/>
</g>
<g id="glyph-1-1">
<path d="M 1.625 -0.140625 C 1.625 0.15625 1.625 0.890625 0.96875 1.515625 C 0.90625 1.5625 0.90625 1.578125 0.90625 1.609375 C 0.90625 1.671875 0.96875 1.71875 1.03125 1.71875 C 1.125 1.71875 1.84375 1.03125 1.84375 -0.015625 C 1.84375 -0.578125 1.65625 -0.96875 1.265625 -0.96875 C 0.96875 -0.96875 0.78125 -0.734375 0.78125 -0.484375 C 0.78125 -0.234375 0.96875 0 1.265625 0 C 1.40625 0 1.53125 -0.046875 1.625 -0.140625 Z M 1.625 -0.140625 "/>
</g>
<g id="glyph-2-0">
<path d="M 2.140625 -3.78125 C 2.140625 -3.953125 2.109375 -3.953125 1.9375 -3.953125 C 1.546875 -3.578125 0.9375 -3.578125 0.71875 -3.578125 L 0.71875 -3.34375 C 0.875 -3.34375 1.265625 -3.34375 1.625 -3.515625 L 1.625 -0.5 C 1.625 -0.3125 1.625 -0.234375 1.015625 -0.234375 L 0.75 -0.234375 L 0.75 0 C 1.078125 -0.03125 1.546875 -0.03125 1.875 -0.03125 C 2.21875 -0.03125 2.671875 -0.03125 3 0 L 3 -0.234375 L 2.75 -0.234375 C 2.140625 -0.234375 2.140625 -0.3125 2.140625 -0.5 Z M 2.140625 -3.78125 "/>
</g>
<g id="glyph-2-1">
<path d="M 3.203125 -1.109375 L 2.984375 -1.109375 C 2.96875 -1.03125 2.90625 -0.640625 2.828125 -0.578125 C 2.78125 -0.53125 2.296875 -0.53125 2.21875 -0.53125 L 1.09375 -0.53125 L 1.859375 -1.15625 C 2.0625 -1.3125 2.59375 -1.703125 2.78125 -1.875 C 2.953125 -2.046875 3.203125 -2.359375 3.203125 -2.78125 C 3.203125 -3.53125 2.53125 -3.953125 1.734375 -3.953125 C 0.96875 -3.953125 0.421875 -3.453125 0.421875 -2.890625 C 0.421875 -2.59375 0.6875 -2.546875 0.75 -2.546875 C 0.90625 -2.546875 1.078125 -2.65625 1.078125 -2.875 C 1.078125 -3 1 -3.203125 0.734375 -3.203125 C 0.875 -3.5 1.234375 -3.734375 1.640625 -3.734375 C 2.265625 -3.734375 2.59375 -3.265625 2.59375 -2.78125 C 2.59375 -2.359375 2.328125 -1.921875 1.90625 -1.546875 L 0.5 -0.25 C 0.4375 -0.1875 0.421875 -0.1875 0.421875 0 L 3.015625 0 Z M 3.203125 -1.109375 "/>
</g>
<g id="glyph-3-0">
<path d="M 3.796875 10.21875 C 3.796875 10.1875 3.78125 10.15625 3.765625 10.140625 C 3.328125 9.6875 2.734375 8.953125 2.40625 7.703125 C 2.21875 7.015625 2.0625 6.171875 2.0625 4.984375 C 2.0625 2.25 2.828125 0.78125 3.78125 -0.203125 C 3.796875 -0.21875 3.796875 -0.25 3.796875 -0.28125 C 3.796875 -0.34375 3.75 -0.375 3.6875 -0.375 C 3.53125 -0.375 2.984375 0.234375 2.96875 0.25 C 1.921875 1.4375 1.40625 3.125 1.40625 4.96875 C 1.40625 6.78125 1.90625 8.8125 3.4375 10.1875 C 3.609375 10.328125 3.625 10.328125 3.6875 10.328125 C 3.75 10.328125 3.796875 10.28125 3.796875 10.21875 Z M 3.796875 10.21875 "/>
</g>
<g id="glyph-3-1">
<path d="M 2.796875 4.984375 C 2.796875 3.171875 2.296875 1.140625 0.75 -0.234375 C 0.59375 -0.375 0.578125 -0.375 0.515625 -0.375 C 0.390625 -0.375 0.390625 -0.296875 0.390625 -0.28125 C 0.390625 -0.25 0.390625 -0.234375 0.4375 -0.171875 C 0.9375 0.34375 1.46875 1.09375 1.796875 2.25 C 1.984375 2.9375 2.125 3.78125 2.125 4.96875 C 2.125 7.609375 1.40625 9.125 0.421875 10.140625 C 0.40625 10.15625 0.390625 10.1875 0.390625 10.21875 C 0.390625 10.25 0.390625 10.328125 0.515625 10.328125 C 0.671875 10.328125 1.21875 9.71875 1.234375 9.703125 C 2.28125 8.515625 2.796875 6.8125 2.796875 4.984375 Z M 2.796875 4.984375 "/>
</g>
<g id="glyph-4-0">
<path d="M 6.015625 -2.046875 C 6.1875 -2.046875 6.359375 -2.046875 6.359375 -2.234375 C 6.359375 -2.421875 6.171875 -2.421875 6.015625 -2.421875 L 1.09375 -2.421875 C 0.953125 -2.421875 0.765625 -2.421875 0.765625 -2.234375 C 0.765625 -2.046875 0.9375 -2.046875 1.09375 -2.046875 Z M 6.015625 -2.046875 "/>
</g>
</g>
</defs>
<path fill-rule="nonzero" fill="rgb(0%, 0%, 0%)" fill-opacity="1" stroke-width="0.3985" stroke-linecap="butt" stroke-linejoin="miter" stroke="rgb(0%, 0%, 0%)" stroke-opacity="1" stroke-miterlimit="10" d="M 2.255372 -0.000789453 C 2.255372 1.247008 1.246932 2.255448 -0.000865013 2.255448 C -1.244738 2.255448 -2.253178 1.247008 -2.253178 -0.000789453 C -2.253178 -1.244663 -1.244738 -2.253103 -0.000865013 -2.253103 C 1.246932 -2.253103 2.255372 -1.244663 2.255372 -0.000789453 Z M 2.255372 -0.000789453 " transform="matrix(0.995504, 0, 0, -0.995504, 58.965705, 19.678902)"/>
<g fill="rgb(0%, 0%, 0%)" fill-opacity="1">
<use xlink:href="#glyph-0-0" x="45.258608" y="13.732755"/>
<use xlink:href="#glyph-0-1" x="51.246228" y="13.732755"/>
<use xlink:href="#glyph-0-2" x="53.794626" y="13.732755"/>
<use xlink:href="#glyph-0-3" x="57.382914" y="13.732755"/>
</g>
<g fill="rgb(0%, 0%, 0%)" fill-opacity="1">
<use xlink:href="#glyph-0-4" x="68.089758" y="13.732755"/>
</g>
<path fill-rule="nonzero" fill="rgb(0%, 0%, 0%)" fill-opacity="1" stroke-width="0.3985" stroke-linecap="butt" stroke-linejoin="miter" stroke="rgb(0%, 0%, 0%)" stroke-opacity="1" stroke-miterlimit="10" d="M 2.255372 -62.363189 C 2.255372 -61.119316 1.246932 -60.106952 -0.000865013 -60.106952 C -1.244738 -60.106952 -2.253178 -61.119316 -2.253178 -62.363189 C -2.253178 -63.607063 -1.244738 -64.615503 -0.000865013 -64.615503 C 1.246932 -64.615503 2.255372 -63.607063 2.255372 -62.363189 Z M 2.255372 -62.363189 " transform="matrix(0.995504, 0, 0, -0.995504, 58.965705, 19.678902)"/>
<g fill="rgb(0%, 0%, 0%)" fill-opacity="1">
<use xlink:href="#glyph-0-0" x="25.605364" y="84.810759"/>
<use xlink:href="#glyph-0-1" x="31.592984" y="84.810759"/>
<use xlink:href="#glyph-0-2" x="34.141382" y="84.810759"/>
<use xlink:href="#glyph-0-3" x="37.72967" y="84.810759"/>
</g>
<g fill="rgb(0%, 0%, 0%)" fill-opacity="1">
<use xlink:href="#glyph-0-5" x="48.436514" y="84.810759"/>
</g>
<path fill="none" stroke-width="0.3985" stroke-linecap="butt" stroke-linejoin="miter" stroke="rgb(0%, 0%, 0%)" stroke-opacity="1" stroke-miterlimit="10" d="M -0.000865013 -2.453221 L -0.000865013 -59.910758 " transform="matrix(0.995504, 0, 0, -0.995504, 58.965705, 19.678902)"/>
<g fill="rgb(0%, 0%, 0%)" fill-opacity="1">
<use xlink:href="#glyph-1-0" x="62.46988" y="51.773957"/>
</g>
<g fill="rgb(0%, 0%, 0%)" fill-opacity="1">
<use xlink:href="#glyph-2-0" x="66.569366" y="52.765479"/>
</g>
<g fill="rgb(0%, 0%, 0%)" fill-opacity="1">
<use xlink:href="#glyph-3-0" x="7.273154" y="139.052797"/>
</g>
<g fill="rgb(0%, 0%, 0%)" fill-opacity="1">
<use xlink:href="#glyph-0-6" x="11.477168" y="146.263234"/>
<use xlink:href="#glyph-0-4" x="15.044926" y="146.263234"/>
<use xlink:href="#glyph-0-7" x="19.632043" y="146.263234"/>
<use xlink:href="#glyph-0-7" x="24.21916" y="146.263234"/>
</g>
<g fill="rgb(0%, 0%, 0%)" fill-opacity="1">
<use xlink:href="#glyph-4-0" x="30.841425" y="146.263234"/>
</g>
<g fill="rgb(0%, 0%, 0%)" fill-opacity="1">
<use xlink:href="#glyph-1-0" x="40.021015" y="146.263234"/>
</g>
<g fill="rgb(0%, 0%, 0%)" fill-opacity="1">
<use xlink:href="#glyph-2-0" x="44.11776" y="147.254756"/>
</g>
<g fill="rgb(0%, 0%, 0%)" fill-opacity="1">
<use xlink:href="#glyph-4-0" x="50.28889" y="146.263234"/>
</g>
<g fill="rgb(0%, 0%, 0%)" fill-opacity="1">
<use xlink:href="#glyph-1-0" x="59.459554" y="146.263234"/>
</g>
<g fill="rgb(0%, 0%, 0%)" fill-opacity="1">
<use xlink:href="#glyph-2-1" x="63.561948" y="147.254756"/>
</g>
<g fill="rgb(0%, 0%, 0%)" fill-opacity="1">
<use xlink:href="#glyph-0-8" x="67.694286" y="146.263234"/>
</g>
<g fill="rgb(0%, 0%, 0%)" fill-opacity="1">
<use xlink:href="#glyph-1-0" x="71.262043" y="146.263234"/>
</g>
<g fill="rgb(0%, 0%, 0%)" fill-opacity="1">
<use xlink:href="#glyph-2-0" x="75.360664" y="147.254756"/>
</g>
<g fill="rgb(0%, 0%, 0%)" fill-opacity="1">
<use xlink:href="#glyph-4-0" x="81.531794" y="146.263234"/>
</g>
<g fill="rgb(0%, 0%, 0%)" fill-opacity="1">
<use xlink:href="#glyph-0-4" x="90.702458" y="146.263234"/>
<use xlink:href="#glyph-0-7" x="95.289575" y="146.263234"/>
</g>
<g fill="rgb(0%, 0%, 0%)" fill-opacity="1">
<use xlink:href="#glyph-1-0" x="99.876692" y="146.263234"/>
</g>
<g fill="rgb(0%, 0%, 0%)" fill-opacity="1">
<use xlink:href="#glyph-2-0" x="103.978423" y="147.254756"/>
</g>
<g fill="rgb(0%, 0%, 0%)" fill-opacity="1">
<use xlink:href="#glyph-1-1" x="108.110761" y="146.263234"/>
</g>
<g fill="rgb(0%, 0%, 0%)" fill-opacity="1">
<use xlink:href="#glyph-0-6" x="8.546404" y="157.172964"/>
<use xlink:href="#glyph-0-4" x="12.114161" y="157.172964"/>
<use xlink:href="#glyph-0-7" x="16.701278" y="157.172964"/>
<use xlink:href="#glyph-0-7" x="21.288395" y="157.172964"/>
</g>
<g fill="rgb(0%, 0%, 0%)" fill-opacity="1">
<use xlink:href="#glyph-4-0" x="27.910661" y="157.172964"/>
</g>
<g fill="rgb(0%, 0%, 0%)" fill-opacity="1">
<use xlink:href="#glyph-1-0" x="37.090251" y="157.172964"/>
</g>
<g fill="rgb(0%, 0%, 0%)" fill-opacity="1">
<use xlink:href="#glyph-2-0" x="41.186995" y="158.164487"/>
</g>
<g fill="rgb(0%, 0%, 0%)" fill-opacity="1">
<use xlink:href="#glyph-4-0" x="47.358126" y="157.172964"/>
</g>
<g fill="rgb(0%, 0%, 0%)" fill-opacity="1">
<use xlink:href="#glyph-1-0" x="56.52879" y="157.172964"/>
</g>
<g fill="rgb(0%, 0%, 0%)" fill-opacity="1">
<use xlink:href="#glyph-2-1" x="60.631183" y="158.164487"/>
</g>
<g fill="rgb(0%, 0%, 0%)" fill-opacity="1">
<use xlink:href="#glyph-0-8" x="64.763521" y="157.172964"/>
</g>
<g fill="rgb(0%, 0%, 0%)" fill-opacity="1">
<use xlink:href="#glyph-1-0" x="68.331279" y="157.172964"/>
</g>
<g fill="rgb(0%, 0%, 0%)" fill-opacity="1">
<use xlink:href="#glyph-2-1" x="72.429899" y="158.164487"/>
</g>
<g fill="rgb(0%, 0%, 0%)" fill-opacity="1">
<use xlink:href="#glyph-4-0" x="78.60103" y="157.172964"/>
</g>
<g fill="rgb(0%, 0%, 0%)" fill-opacity="1">
<use xlink:href="#glyph-0-4" x="87.771693" y="157.172964"/>
<use xlink:href="#glyph-0-7" x="92.358811" y="157.172964"/>
</g>
<g fill="rgb(0%, 0%, 0%)" fill-opacity="1">
<use xlink:href="#glyph-1-0" x="96.945928" y="157.172964"/>
</g>
<g fill="rgb(0%, 0%, 0%)" fill-opacity="1">
<use xlink:href="#glyph-2-1" x="101.047658" y="158.164487"/>
</g>
<g fill="rgb(0%, 0%, 0%)" fill-opacity="1">
<use xlink:href="#glyph-3-1" x="105.179996" y="149.962527"/>
</g>
<path fill="none" stroke-width="0.3985" stroke-linecap="butt" stroke-linejoin="miter" stroke="rgb(0%, 0%, 0%)" stroke-opacity="1" stroke-miterlimit="10" d="M -0.000865013 -64.815621 L -0.000865013 -116.014551 " transform="matrix(0.995504, 0, 0, -0.995504, 58.965705, 19.678902)"/>
<g fill="rgb(0%, 0%, 0%)" fill-opacity="1">
<use xlink:href="#glyph-1-0" x="62.46988" y="110.741653"/>
</g>
<g fill="rgb(0%, 0%, 0%)" fill-opacity="1">
<use xlink:href="#glyph-2-1" x="66.569366" y="111.733175"/>
</g>
</svg>
