<?xml version="1.0" encoding="utf-8" standalone="no"?>
<!DOCTYPE svg PUBLIC "-//W3C//DTD SVG 1.1//EN"
  "http://www.w3.org/Graphics/SVG/1.1/DTD/svg11.dtd">
<svg xmlns:xlink="http://www.w3.org/1999/xlink" width="399.935pt" height="301.836pt" viewBox="0 0 399.935 301.836" xmlns="http://www.w3.org/2000/svg" version="1.1">
 <metadata>
  <rdf:RDF xmlns:dc="http://purl.org/dc/elements/1.1/" xmlns:cc="http://creativecommons.org/ns#" xmlns:rdf="http://www.w3.org/1999/02/22-rdf-syntax-ns#">
   <cc:Work>
    <dc:type rdf:resource="http://purl.org/dc/dcmitype/StillImage"/>
    <dc:date>2026-07-17T17:40:40.876344</dc:date>
    <dc:format>image/svg+xml</dc:format>
    <dc:creator>
     <cc:Agent>
      <dc:title>Matplotlib v3.9.4, https://matplotlib.org/</dc:title>
     </cc:Agent>
    </dc:creator>
   </cc:Work>
  </rdf:RDF>
 </metadata>
 <defs>
  <style type="text/css">*{stroke-linejoin: round; stroke-linecap: butt}</style>
 </defs>
 <g id="figure_1">
  <g id="patch_1">
   <path d="M 0 301.836 
L 399.935 301.836 
L 399.935 0 
L 0 0 
z
" style="fill: #ffffff"/>
  </g>
  <g id="axes_1">
   <g id="patch_2">
    <path d="M 35.615 266.136 
L 392.735 266.136 
L 392.735 22.2 
L 35.615 22.2 
z
" style="fill: #ffffff"/>
   </g>
   <g id="line2d_1">
    <path d="M 35.615 195.522947 
L 392.735 195.522947 
" clip-path="url(#pa691f48f11)" style="fill: none; stroke: #9aa3ad; stroke-width: 0.8; stroke-linecap: square"/>
   </g>
   <g id="line2d_2">
    <path d="M 35.615 67.135579 
L 392.735 67.135579 
" clip-path="url(#pa691f48f11)" style="fill: none; stroke-dasharray: 0.8,1.32; stroke-dashoffset: 0; stroke: #9aa3ad; stroke-width: 0.8"/>
   </g>
   <g id="line2d_3">
    <path d="M 51.847727 266.136 
L 51.847727 22.2 
" clip-path="url(#pa691f48f11)" style="fill: none; stroke-dasharray: 0.6,0.99; stroke-dashoffset: 0; stroke: #9aa3ad; stroke-width: 0.6"/>
   </g>
   <g id="line2d_4">
    <path d="M 133.011364 266.136 
L 133.011364 22.2 
" clip-path="url(#pa691f48f11)" style="fill: none; stroke-dasharray: 0.6,0.99; stroke-dashoffset: 0; stroke: #9aa3ad; stroke-width: 0.6"/>
   </g>
   <g id="line2d_5">
    <path d="M 214.175 266.136 
L 214.175 22.2 
" clip-path="url(#pa691f48f11)" style="fill: none; stroke-dasharray: 0.6,0.99; stroke-dashoffset: 0; stroke: #9aa3ad; stroke-width: 0.6"/>
   </g>
   <g id="line2d_6">
    <path d="M 295.338636 266.136 
L 295.338636 22.2 
" clip-path="url(#pa691f48f11)" style="fill: none; stroke-dasharray: 0.6,0.99; stroke-dashoffset: 0; stroke: #9aa3ad; stroke-width: 0.6"/>
   </g>
   <g id="line2d_7">
    <path d="M 376.502273 266.136 
L 376.502273 22.2 
" clip-path="url(#pa691f48f11)" style="fill: none; stroke-dasharray: 0.6,0.99; stroke-dashoffset: 0; stroke: #9aa3ad; stroke-width: 0.6"/>
   </g>
   <g id="matplotlib.axis_1">
    <g id="xtick_1">
     <g id="line2d_8">
      <defs>
       <path id="mbd89dfb02a" d="M 0 0 
L 0 3 
" style="stroke: #1f2328; stroke-width: 0.8"/>
      </defs>
      <g>
       <use xlink:href="#mbd89dfb02a" x="51.847727" y="266.136" style="fill: #1f2328; stroke: #1f2328; stroke-width: 0.8"/>
      </g>
     </g>
     <g id="text_1">
      <!-- $x_0$ -->
      <g style="fill: #1f2328" transform="translate(47.392727 278.782719) scale(0.09 -0.09)">
       <defs>
        <path id="Cmmi10-78" d="M 500 184 
Q 613 97 819 97 
Q 1019 97 1172 289 
Q 1325 481 1381 709 
L 1672 1844 
Q 1741 2153 1741 2266 
Q 1741 2425 1652 2544 
Q 1563 2663 1403 2663 
Q 1200 2663 1022 2536 
Q 844 2409 722 2214 
Q 600 2019 550 1819 
Q 538 1778 500 1778 
L 422 1778 
Q 372 1778 372 1838 
L 372 1856 
Q 434 2094 584 2320 
Q 734 2547 951 2687 
Q 1169 2828 1416 2828 
Q 1650 2828 1839 2703 
Q 2028 2578 2106 2363 
Q 2216 2559 2386 2693 
Q 2556 2828 2759 2828 
Q 2897 2828 3040 2779 
Q 3184 2731 3275 2631 
Q 3366 2531 3366 2381 
Q 3366 2219 3261 2101 
Q 3156 1984 2994 1984 
Q 2891 1984 2822 2050 
Q 2753 2116 2753 2216 
Q 2753 2350 2845 2451 
Q 2938 2553 3066 2572 
Q 2950 2663 2747 2663 
Q 2541 2663 2389 2472 
Q 2238 2281 2175 2047 
L 1894 916 
Q 1825 659 1825 494 
Q 1825 331 1917 214 
Q 2009 97 2163 97 
Q 2463 97 2698 361 
Q 2934 625 3009 941 
Q 3022 978 3059 978 
L 3138 978 
Q 3163 978 3178 961 
Q 3194 944 3194 922 
Q 3194 916 3188 903 
Q 3097 522 2806 225 
Q 2516 -72 2150 -72 
Q 1916 -72 1727 54 
Q 1538 181 1459 397 
Q 1359 209 1182 68 
Q 1006 -72 806 -72 
Q 669 -72 523 -23 
Q 378 25 287 125 
Q 197 225 197 378 
Q 197 528 301 651 
Q 406 775 563 775 
Q 669 775 741 711 
Q 813 647 813 544 
Q 813 409 723 309 
Q 634 209 500 184 
z
" transform="scale(0.015625)"/>
        <path id="Cmr10-30" d="M 1600 -141 
Q 816 -141 533 504 
Q 250 1150 250 2041 
Q 250 2597 351 3087 
Q 453 3578 754 3920 
Q 1056 4263 1600 4263 
Q 2022 4263 2290 4056 
Q 2559 3850 2700 3523 
Q 2841 3197 2892 2823 
Q 2944 2450 2944 2041 
Q 2944 1491 2842 1011 
Q 2741 531 2444 195 
Q 2147 -141 1600 -141 
z
M 1600 25 
Q 1956 25 2131 390 
Q 2306 756 2347 1200 
Q 2388 1644 2388 2144 
Q 2388 2625 2347 3031 
Q 2306 3438 2132 3767 
Q 1959 4097 1600 4097 
Q 1238 4097 1063 3765 
Q 888 3434 847 3029 
Q 806 2625 806 2144 
Q 806 1788 823 1472 
Q 841 1156 916 820 
Q 991 484 1158 254 
Q 1325 25 1600 25 
z
" transform="scale(0.015625)"/>
       </defs>
       <use xlink:href="#Cmmi10-78" transform="translate(0 0.8125)"/>
       <use xlink:href="#Cmr10-30" transform="translate(57.080078 -16.19375) scale(0.7)"/>
      </g>
     </g>
    </g>
    <g id="xtick_2">
     <g id="line2d_9">
      <g>
       <use xlink:href="#mbd89dfb02a" x="133.011364" y="266.136" style="fill: #1f2328; stroke: #1f2328; stroke-width: 0.8"/>
      </g>
     </g>
     <g id="text_2">
      <!-- $x_1$ -->
      <g style="fill: #1f2328" transform="translate(128.556364 278.782719) scale(0.09 -0.09)">
       <defs>
        <path id="Cmr10-31" d="M 594 0 
L 594 225 
Q 1394 225 1394 428 
L 1394 3788 
Q 1063 3628 556 3628 
L 556 3853 
Q 1341 3853 1741 4263 
L 1831 4263 
Q 1853 4263 1873 4245 
Q 1894 4228 1894 4206 
L 1894 428 
Q 1894 225 2694 225 
L 2694 0 
L 594 0 
z
" transform="scale(0.015625)"/>
       </defs>
       <use xlink:href="#Cmmi10-78" transform="translate(0 0.8125)"/>
       <use xlink:href="#Cmr10-31" transform="translate(57.080078 -16.19375) scale(0.7)"/>
      </g>
     </g>
    </g>
    <g id="xtick_3">
     <g id="line2d_10">
      <g>
       <use xlink:href="#mbd89dfb02a" x="214.175" y="266.136" style="fill: #1f2328; stroke: #1f2328; stroke-width: 0.8"/>
      </g>
     </g>
     <g id="text_3">
      <!-- $x_2$ -->
      <g style="fill: #1f2328" transform="translate(209.72 278.782719) scale(0.09 -0.09)">
       <defs>
        <path id="Cmr10-32" d="M 319 0 
L 319 172 
Q 319 188 331 206 
L 1325 1306 
Q 1550 1550 1690 1715 
Q 1831 1881 1968 2097 
Q 2106 2313 2186 2536 
Q 2266 2759 2266 3009 
Q 2266 3272 2169 3511 
Q 2072 3750 1880 3894 
Q 1688 4038 1416 4038 
Q 1138 4038 916 3870 
Q 694 3703 603 3438 
Q 628 3444 672 3444 
Q 816 3444 917 3347 
Q 1019 3250 1019 3097 
Q 1019 2950 917 2848 
Q 816 2747 672 2747 
Q 522 2747 420 2851 
Q 319 2956 319 3097 
Q 319 3338 409 3548 
Q 500 3759 670 3923 
Q 841 4088 1055 4175 
Q 1269 4263 1509 4263 
Q 1875 4263 2190 4108 
Q 2506 3953 2690 3670 
Q 2875 3388 2875 3009 
Q 2875 2731 2753 2481 
Q 2631 2231 2440 2026 
Q 2250 1822 1953 1562 
Q 1656 1303 1563 1216 
L 838 519 
L 1453 519 
Q 1906 519 2211 526 
Q 2516 534 2534 550 
Q 2609 631 2688 1141 
L 2875 1141 
L 2694 0 
L 319 0 
z
" transform="scale(0.015625)"/>
       </defs>
       <use xlink:href="#Cmmi10-78" transform="translate(0 0.8125)"/>
       <use xlink:href="#Cmr10-32" transform="translate(57.080078 -16.19375) scale(0.7)"/>
      </g>
     </g>
    </g>
    <g id="xtick_4">
     <g id="line2d_11">
      <g>
       <use xlink:href="#mbd89dfb02a" x="295.338636" y="266.136" style="fill: #1f2328; stroke: #1f2328; stroke-width: 0.8"/>
      </g>
     </g>
     <g id="text_4">
      <!-- $x_3$ -->
      <g style="fill: #1f2328" transform="translate(290.883636 278.782719) scale(0.09 -0.09)">
       <defs>
        <path id="Cmr10-33" d="M 609 494 
Q 759 275 1012 169 
Q 1266 63 1556 63 
Q 1928 63 2084 380 
Q 2241 697 2241 1100 
Q 2241 1281 2208 1462 
Q 2175 1644 2097 1800 
Q 2019 1956 1883 2050 
Q 1747 2144 1550 2144 
L 1125 2144 
Q 1069 2144 1069 2203 
L 1069 2259 
Q 1069 2309 1125 2309 
L 1478 2338 
Q 1703 2338 1851 2506 
Q 2000 2675 2069 2917 
Q 2138 3159 2138 3378 
Q 2138 3684 1994 3881 
Q 1850 4078 1556 4078 
Q 1313 4078 1091 3986 
Q 869 3894 738 3706 
Q 750 3709 759 3711 
Q 769 3713 781 3713 
Q 925 3713 1022 3613 
Q 1119 3513 1119 3372 
Q 1119 3234 1022 3134 
Q 925 3034 781 3034 
Q 641 3034 541 3134 
Q 441 3234 441 3372 
Q 441 3647 606 3850 
Q 772 4053 1033 4158 
Q 1294 4263 1556 4263 
Q 1750 4263 1965 4205 
Q 2181 4147 2356 4039 
Q 2531 3931 2642 3762 
Q 2753 3594 2753 3378 
Q 2753 3109 2633 2881 
Q 2513 2653 2303 2487 
Q 2094 2322 1844 2241 
Q 2122 2188 2372 2031 
Q 2622 1875 2773 1631 
Q 2925 1388 2925 1106 
Q 2925 753 2731 467 
Q 2538 181 2222 20 
Q 1906 -141 1556 -141 
Q 1256 -141 954 -26 
Q 653 88 461 316 
Q 269 544 269 863 
Q 269 1022 375 1128 
Q 481 1234 641 1234 
Q 744 1234 830 1186 
Q 916 1138 964 1050 
Q 1013 963 1013 863 
Q 1013 706 903 600 
Q 794 494 641 494 
L 609 494 
z
" transform="scale(0.015625)"/>
       </defs>
       <use xlink:href="#Cmmi10-78" transform="translate(0 0.8125)"/>
       <use xlink:href="#Cmr10-33" transform="translate(57.080078 -16.19375) scale(0.7)"/>
      </g>
     </g>
    </g>
    <g id="xtick_5">
     <g id="line2d_12">
      <g>
       <use xlink:href="#mbd89dfb02a" x="376.502273" y="266.136" style="fill: #1f2328; stroke: #1f2328; stroke-width: 0.8"/>
      </g>
     </g>
     <g id="text_5">
      <!-- $x_4$ -->
      <g style="fill: #1f2328" transform="translate(372.047273 278.782719) scale(0.09 -0.09)">
       <defs>
        <path id="Cmr10-34" d="M 178 1056 
L 178 1281 
L 2156 4231 
Q 2178 4263 2222 4263 
L 2316 4263 
Q 2388 4263 2388 4191 
L 2388 1281 
L 3016 1281 
L 3016 1056 
L 2388 1056 
L 2388 428 
Q 2388 297 2575 261 
Q 2763 225 3009 225 
L 3009 0 
L 1247 0 
L 1247 225 
Q 1494 225 1681 261 
Q 1869 297 1869 428 
L 1869 1056 
L 178 1056 
z
M 391 1281 
L 1906 1281 
L 1906 3547 
L 391 1281 
z
" transform="scale(0.015625)"/>
       </defs>
       <use xlink:href="#Cmmi10-78" transform="translate(0 0.8125)"/>
       <use xlink:href="#Cmr10-34" transform="translate(57.080078 -16.19375) scale(0.7)"/>
      </g>
     </g>
    </g>
    <g id="text_6">
     <!-- $x$ -->
     <g transform="translate(210.985 292.248656) scale(0.11 -0.11)">
      <use xlink:href="#Cmmi10-78" transform="translate(0 0.8125)"/>
     </g>
    </g>
   </g>
   <g id="matplotlib.axis_2">
    <g id="ytick_1">
     <g id="line2d_13">
      <defs>
       <path id="mbd0bdff48d" d="M 0 0 
L -3 0 
" style="stroke: #1f2328; stroke-width: 0.8"/>
      </defs>
      <g>
       <use xlink:href="#mbd0bdff48d" x="35.615" y="259.716632" style="fill: #1f2328; stroke: #1f2328; stroke-width: 0.8"/>
      </g>
     </g>
     <g id="text_7">
      <!-- −0.50 -->
      <g style="fill: #1f2328" transform="translate(7.2 262.789991) scale(0.09 -0.09)">
       <defs>
        <path id="STIXGeneral-Regular-2212" d="M 3974 1408 
L 410 1408 
L 410 1830 
L 3974 1830 
L 3974 1408 
z
" transform="scale(0.015625)"/>
        <path id="STIXGeneral-Regular-30" d="M 3046 2112 
Q 3046 1683 2963 1302 
Q 2880 922 2717 602 
Q 2554 282 2266 96 
Q 1978 -90 1600 -90 
Q 1210 -90 915 108 
Q 621 307 461 640 
Q 301 973 227 1350 
Q 154 1728 154 2150 
Q 154 2746 301 3222 
Q 448 3699 790 4012 
Q 1133 4326 1626 4326 
Q 2253 4326 2649 3712 
Q 3046 3098 3046 2112 
z
M 2432 2080 
Q 2432 3091 2217 3625 
Q 2003 4160 1587 4160 
Q 1190 4160 979 3622 
Q 768 3085 768 2106 
Q 768 1120 979 598 
Q 1190 77 1600 77 
Q 2003 77 2217 598 
Q 2432 1120 2432 2080 
z
" transform="scale(0.015625)"/>
        <path id="STIXGeneral-Regular-2e" d="M 1158 275 
Q 1158 134 1052 32 
Q 947 -70 800 -70 
Q 653 -70 550 32 
Q 448 134 448 281 
Q 448 429 553 534 
Q 659 640 806 640 
Q 947 640 1052 531 
Q 1158 422 1158 275 
z
" transform="scale(0.015625)"/>
        <path id="STIXGeneral-Regular-35" d="M 2803 4358 
L 2573 3814 
Q 2534 3731 2400 3731 
L 1158 3731 
L 902 3187 
Q 1606 3053 1920 2896 
Q 2234 2739 2502 2368 
Q 2726 2061 2726 1555 
Q 2726 1094 2576 780 
Q 2426 467 2099 224 
Q 1664 -90 1011 -90 
Q 646 -90 422 19 
Q 198 128 198 307 
Q 198 550 486 550 
Q 717 550 960 352 
Q 1210 147 1414 147 
Q 1747 147 2012 480 
Q 2278 813 2278 1229 
Q 2278 1843 1850 2189 
Q 1293 2637 486 2637 
Q 410 2637 410 2688 
L 416 2720 
L 1114 4237 
L 2438 4237 
Q 2547 4237 2608 4269 
Q 2669 4301 2746 4403 
L 2803 4358 
z
" transform="scale(0.015625)"/>
       </defs>
       <use xlink:href="#STIXGeneral-Regular-2212"/>
       <use xlink:href="#STIXGeneral-Regular-30" x="68.499985"/>
       <use xlink:href="#STIXGeneral-Regular-2e" x="118.499969"/>
       <use xlink:href="#STIXGeneral-Regular-35" x="143.499954"/>
       <use xlink:href="#STIXGeneral-Regular-30" x="193.499939"/>
      </g>
     </g>
    </g>
    <g id="ytick_2">
     <g id="line2d_14">
      <g>
       <use xlink:href="#mbd0bdff48d" x="35.615" y="227.619789" style="fill: #1f2328; stroke: #1f2328; stroke-width: 0.8"/>
      </g>
     </g>
     <g id="text_8">
      <!-- −0.25 -->
      <g style="fill: #1f2328" transform="translate(7.2 230.693149) scale(0.09 -0.09)">
       <defs>
        <path id="STIXGeneral-Regular-32" d="M 3034 877 
L 2688 0 
L 186 0 
L 186 77 
L 1325 1286 
Q 1773 1754 1965 2144 
Q 2157 2534 2157 2950 
Q 2157 3379 1920 3616 
Q 1683 3853 1267 3853 
Q 922 3853 720 3673 
Q 518 3494 326 3021 
L 192 3053 
Q 301 3648 630 3987 
Q 960 4326 1523 4326 
Q 2054 4326 2380 4006 
Q 2707 3686 2707 3200 
Q 2707 2477 1888 1613 
L 832 486 
L 2330 486 
Q 2541 486 2665 569 
Q 2790 653 2944 915 
L 3034 877 
z
" transform="scale(0.015625)"/>
       </defs>
       <use xlink:href="#STIXGeneral-Regular-2212"/>
       <use xlink:href="#STIXGeneral-Regular-30" x="68.499985"/>
       <use xlink:href="#STIXGeneral-Regular-2e" x="118.499969"/>
       <use xlink:href="#STIXGeneral-Regular-32" x="143.499954"/>
       <use xlink:href="#STIXGeneral-Regular-35" x="193.499939"/>
      </g>
     </g>
    </g>
    <g id="ytick_3">
     <g id="line2d_15">
      <g>
       <use xlink:href="#mbd0bdff48d" x="35.615" y="195.522947" style="fill: #1f2328; stroke: #1f2328; stroke-width: 0.8"/>
      </g>
     </g>
     <g id="text_9">
      <!-- 0.00 -->
      <g style="fill: #1f2328" transform="translate(13.365 198.596307) scale(0.09 -0.09)">
       <use xlink:href="#STIXGeneral-Regular-30"/>
       <use xlink:href="#STIXGeneral-Regular-2e" x="49.999985"/>
       <use xlink:href="#STIXGeneral-Regular-30" x="74.999969"/>
       <use xlink:href="#STIXGeneral-Regular-30" x="124.999954"/>
      </g>
     </g>
    </g>
    <g id="ytick_4">
     <g id="line2d_16">
      <g>
       <use xlink:href="#mbd0bdff48d" x="35.615" y="163.426105" style="fill: #1f2328; stroke: #1f2328; stroke-width: 0.8"/>
      </g>
     </g>
     <g id="text_10">
      <!-- 0.25 -->
      <g style="fill: #1f2328" transform="translate(13.365 166.499465) scale(0.09 -0.09)">
       <use xlink:href="#STIXGeneral-Regular-30"/>
       <use xlink:href="#STIXGeneral-Regular-2e" x="49.999985"/>
       <use xlink:href="#STIXGeneral-Regular-32" x="74.999969"/>
       <use xlink:href="#STIXGeneral-Regular-35" x="124.999954"/>
      </g>
     </g>
    </g>
    <g id="ytick_5">
     <g id="line2d_17">
      <g>
       <use xlink:href="#mbd0bdff48d" x="35.615" y="131.329263" style="fill: #1f2328; stroke: #1f2328; stroke-width: 0.8"/>
      </g>
     </g>
     <g id="text_11">
      <!-- 0.50 -->
      <g style="fill: #1f2328" transform="translate(13.365 134.402623) scale(0.09 -0.09)">
       <use xlink:href="#STIXGeneral-Regular-30"/>
       <use xlink:href="#STIXGeneral-Regular-2e" x="49.999985"/>
       <use xlink:href="#STIXGeneral-Regular-35" x="74.999969"/>
       <use xlink:href="#STIXGeneral-Regular-30" x="124.999954"/>
      </g>
     </g>
    </g>
    <g id="ytick_6">
     <g id="line2d_18">
      <g>
       <use xlink:href="#mbd0bdff48d" x="35.615" y="99.232421" style="fill: #1f2328; stroke: #1f2328; stroke-width: 0.8"/>
      </g>
     </g>
     <g id="text_12">
      <!-- 0.75 -->
      <g style="fill: #1f2328" transform="translate(13.365 102.30578) scale(0.09 -0.09)">
       <defs>
        <path id="STIXGeneral-Regular-37" d="M 2874 4134 
L 1517 -51 
L 1101 -51 
L 2368 3763 
L 992 3763 
Q 717 3763 582 3667 
Q 448 3571 243 3238 
L 128 3296 
L 512 4237 
L 2874 4237 
L 2874 4134 
z
" transform="scale(0.015625)"/>
       </defs>
       <use xlink:href="#STIXGeneral-Regular-30"/>
       <use xlink:href="#STIXGeneral-Regular-2e" x="49.999985"/>
       <use xlink:href="#STIXGeneral-Regular-37" x="74.999969"/>
       <use xlink:href="#STIXGeneral-Regular-35" x="124.999954"/>
      </g>
     </g>
    </g>
    <g id="ytick_7">
     <g id="line2d_19">
      <g>
       <use xlink:href="#mbd0bdff48d" x="35.615" y="67.135579" style="fill: #1f2328; stroke: #1f2328; stroke-width: 0.8"/>
      </g>
     </g>
     <g id="text_13">
      <!-- 1.00 -->
      <g style="fill: #1f2328" transform="translate(13.365 70.208938) scale(0.09 -0.09)">
       <defs>
        <path id="STIXGeneral-Regular-31" d="M 2522 0 
L 755 0 
L 755 96 
Q 1107 115 1235 227 
Q 1363 339 1363 608 
L 1363 3482 
Q 1363 3795 1171 3795 
Q 1082 3795 883 3718 
L 710 3654 
L 710 3744 
L 1856 4326 
L 1914 4307 
L 1914 486 
Q 1914 275 2042 185 
Q 2170 96 2522 96 
L 2522 0 
z
" transform="scale(0.015625)"/>
       </defs>
       <use xlink:href="#STIXGeneral-Regular-31"/>
       <use xlink:href="#STIXGeneral-Regular-2e" x="49.999985"/>
       <use xlink:href="#STIXGeneral-Regular-30" x="74.999969"/>
       <use xlink:href="#STIXGeneral-Regular-30" x="124.999954"/>
      </g>
     </g>
    </g>
    <g id="ytick_8">
     <g id="line2d_20">
      <g>
       <use xlink:href="#mbd0bdff48d" x="35.615" y="35.038737" style="fill: #1f2328; stroke: #1f2328; stroke-width: 0.8"/>
      </g>
     </g>
     <g id="text_14">
      <!-- 1.25 -->
      <g style="fill: #1f2328" transform="translate(13.365 38.112096) scale(0.09 -0.09)">
       <use xlink:href="#STIXGeneral-Regular-31"/>
       <use xlink:href="#STIXGeneral-Regular-2e" x="49.999985"/>
       <use xlink:href="#STIXGeneral-Regular-32" x="74.999969"/>
       <use xlink:href="#STIXGeneral-Regular-35" x="124.999954"/>
      </g>
     </g>
    </g>
   </g>
   <g id="patch_3">
    <path d="M 35.615 266.136 
L 35.615 22.2 
" style="fill: none; stroke: #1f2328; stroke-width: 0.8; stroke-linejoin: miter; stroke-linecap: square"/>
   </g>
   <g id="patch_4">
    <path d="M 35.615 266.136 
L 392.735 266.136 
" style="fill: none; stroke: #1f2328; stroke-width: 0.8; stroke-linejoin: miter; stroke-linecap: square"/>
   </g>
   <g id="text_15">
    <!-- $L_{4,0}$ -->
    <g style="fill: #0072b2" transform="translate(71.405 56.332337) scale(0.1 -0.1)">
     <defs>
      <path id="Cmmi10-4c" d="M 300 0 
Q 238 0 238 84 
Q 241 100 250 139 
Q 259 178 276 201 
Q 294 225 319 225 
Q 709 225 863 269 
Q 947 297 984 441 
L 1863 3956 
Q 1875 4019 1875 4044 
Q 1875 4113 1797 4122 
Q 1678 4147 1338 4147 
Q 1275 4147 1275 4231 
Q 1297 4313 1309 4342 
Q 1322 4372 1381 4372 
L 3272 4372 
Q 3328 4372 3328 4288 
Q 3319 4222 3306 4184 
Q 3294 4147 3244 4147 
Q 2772 4147 2613 4116 
Q 2456 4088 2419 3928 
L 1544 416 
Q 1516 338 1516 275 
Q 1516 225 1734 225 
L 2328 225 
Q 2831 225 3143 425 
Q 3456 625 3606 876 
Q 3756 1128 3857 1398 
Q 3959 1669 4006 1678 
L 4063 1678 
Q 4128 1678 4128 1594 
L 3559 44 
Q 3550 0 3500 0 
L 300 0 
z
" transform="scale(0.015625)"/>
      <path id="Cmmi10-3b" d="M 634 -1153 
Q 634 -1125 659 -1100 
Q 891 -878 1019 -587 
Q 1147 -297 1147 25 
L 1147 103 
Q 1044 0 891 0 
Q 744 0 641 103 
Q 538 206 538 353 
Q 538 503 641 603 
Q 744 703 891 703 
Q 1119 703 1216 492 
Q 1313 281 1313 25 
Q 1313 -331 1170 -651 
Q 1028 -972 769 -1228 
Q 744 -1241 728 -1241 
Q 697 -1241 665 -1212 
Q 634 -1184 634 -1153 
z
" transform="scale(0.015625)"/>
     </defs>
     <use xlink:href="#Cmmi10-4c" transform="translate(0 0.6875)"/>
     <use xlink:href="#Cmr10-34" transform="translate(68.017578 -16.31875) scale(0.7)"/>
     <use xlink:href="#Cmmi10-3b" transform="translate(103.017578 -16.31875) scale(0.7)"/>
     <use xlink:href="#Cmr10-30" transform="translate(134.688477 -16.31875) scale(0.7)"/>
    </g>
   </g>
   <g id="text_16">
    <!-- $L_{4,1}$ -->
    <g style="fill: #d55e00" transform="translate(124.161364 48.629095) scale(0.1 -0.1)">
     <use xlink:href="#Cmmi10-4c" transform="translate(0 0.6875)"/>
     <use xlink:href="#Cmr10-34" transform="translate(68.017578 -16.31875) scale(0.7)"/>
     <use xlink:href="#Cmmi10-3b" transform="translate(103.017578 -16.31875) scale(0.7)"/>
     <use xlink:href="#Cmr10-31" transform="translate(134.688477 -16.31875) scale(0.7)"/>
    </g>
   </g>
   <g id="text_17">
    <!-- $L_{4,2}$ -->
    <g style="fill: #009e73" transform="translate(205.325 48.629095) scale(0.1 -0.1)">
     <use xlink:href="#Cmmi10-4c" transform="translate(0 0.6875)"/>
     <use xlink:href="#Cmr10-34" transform="translate(68.017578 -16.31875) scale(0.7)"/>
     <use xlink:href="#Cmmi10-3b" transform="translate(103.017578 -16.31875) scale(0.7)"/>
     <use xlink:href="#Cmr10-32" transform="translate(134.688477 -16.31875) scale(0.7)"/>
    </g>
   </g>
   <g id="text_18">
    <!-- $L_{4,3}$ -->
    <g style="fill: #e69f00" transform="translate(286.488636 48.629095) scale(0.1 -0.1)">
     <use xlink:href="#Cmmi10-4c" transform="translate(0 0.6875)"/>
     <use xlink:href="#Cmr10-34" transform="translate(68.017578 -16.31875) scale(0.7)"/>
     <use xlink:href="#Cmmi10-3b" transform="translate(103.017578 -16.31875) scale(0.7)"/>
     <use xlink:href="#Cmr10-33" transform="translate(134.688477 -16.31875) scale(0.7)"/>
    </g>
   </g>
   <g id="text_19">
    <!-- $L_{4,4}$ -->
    <g style="fill: #cc79a7" transform="translate(339.245 56.332337) scale(0.1 -0.1)">
     <use xlink:href="#Cmmi10-4c" transform="translate(0 0.6875)"/>
     <use xlink:href="#Cmr10-34" transform="translate(68.017578 -16.31875) scale(0.7)"/>
     <use xlink:href="#Cmmi10-3b" transform="translate(103.017578 -16.31875) scale(0.7)"/>
     <use xlink:href="#Cmr10-34" transform="translate(134.688477 -16.31875) scale(0.7)"/>
    </g>
   </g>
   <g id="text_20">
    <!-- Lagrange basis on 5 nodes: $L_{4,k}(x_i)=\delta_{ik}$ -->
    <g transform="translate(113.315 16.2) scale(0.12 -0.12)">
     <defs>
      <path id="STIXGeneral-Regular-4c" d="M 3827 1114 
L 3520 0 
L 77 0 
L 77 122 
Q 429 141 531 256 
Q 634 371 634 736 
L 634 3494 
Q 634 3872 541 3981 
Q 448 4090 77 4115 
L 77 4237 
L 1888 4237 
L 1888 4115 
Q 1498 4090 1392 3984 
Q 1286 3878 1286 3507 
L 1286 538 
Q 1286 358 1398 304 
Q 1510 250 1862 250 
L 2310 250 
Q 3085 250 3392 640 
Q 3520 813 3661 1114 
L 3827 1114 
z
" transform="scale(0.015625)"/>
      <path id="STIXGeneral-Regular-61" d="M 2829 422 
L 2829 243 
Q 2586 -64 2253 -64 
Q 1888 -64 1843 403 
L 1837 403 
Q 1427 -64 909 -64 
Q 608 -64 422 112 
Q 237 288 237 602 
Q 237 1050 685 1350 
Q 992 1555 1837 1869 
L 1837 2214 
Q 1837 2502 1699 2646 
Q 1562 2790 1338 2790 
Q 1146 2790 1018 2697 
Q 890 2605 890 2477 
Q 890 2419 909 2348 
Q 928 2278 928 2208 
Q 928 2112 841 2029 
Q 755 1946 634 1946 
Q 525 1946 441 2029 
Q 358 2112 358 2240 
Q 358 2547 685 2752 
Q 986 2944 1421 2944 
Q 1939 2944 2176 2656 
Q 2291 2522 2323 2384 
Q 2355 2246 2355 1946 
L 2355 723 
Q 2355 301 2554 301 
Q 2682 301 2829 422 
z
M 1837 813 
L 1837 1715 
Q 1248 1510 1018 1293 
Q 800 1094 800 800 
Q 800 557 921 432 
Q 1043 307 1242 307 
Q 1453 307 1613 410 
Q 1747 506 1792 589 
Q 1837 672 1837 813 
z
" transform="scale(0.015625)"/>
      <path id="STIXGeneral-Regular-67" d="M 3008 2483 
L 2477 2483 
Q 2598 2208 2598 1946 
Q 2598 1453 2265 1203 
Q 1933 954 1600 954 
Q 1530 954 1357 973 
L 1235 986 
Q 1107 947 979 812 
Q 851 678 851 582 
Q 851 435 1350 410 
L 2176 371 
Q 2528 358 2739 172 
Q 2950 -13 2950 -314 
Q 2950 -685 2566 -986 
Q 2035 -1395 1286 -1395 
Q 826 -1395 502 -1212 
Q 179 -1030 179 -774 
Q 179 -595 320 -419 
Q 461 -243 806 6 
Q 602 102 534 172 
Q 467 243 467 346 
Q 467 531 762 787 
Q 909 915 1037 1043 
Q 717 1203 579 1401 
Q 442 1600 442 1901 
Q 442 2336 752 2640 
Q 1062 2944 1510 2944 
Q 1766 2944 2022 2848 
L 2163 2797 
Q 2349 2733 2515 2733 
L 3008 2733 
L 3008 2483 
z
M 973 2163 
L 973 2144 
Q 973 1683 1155 1398 
Q 1338 1114 1632 1114 
Q 1850 1114 1978 1270 
Q 2106 1427 2106 1690 
Q 2106 2112 1914 2464 
Q 1754 2765 1446 2765 
Q 1222 2765 1097 2605 
Q 973 2445 973 2163 
z
M 2771 -410 
Q 2771 -230 2595 -163 
Q 2419 -96 1978 -96 
Q 1344 -96 941 -13 
Q 749 -243 688 -348 
Q 627 -454 627 -563 
Q 627 -774 880 -902 
Q 1133 -1030 1555 -1030 
Q 2099 -1030 2435 -860 
Q 2771 -691 2771 -410 
z
" transform="scale(0.015625)"/>
      <path id="STIXGeneral-Regular-72" d="M 1024 2931 
L 1024 2342 
Q 1267 2688 1430 2816 
Q 1594 2944 1792 2944 
Q 1958 2944 2051 2854 
Q 2144 2765 2144 2605 
Q 2144 2470 2077 2393 
Q 2010 2317 1894 2317 
Q 1773 2317 1638 2445 
Q 1536 2541 1472 2541 
Q 1338 2541 1181 2355 
Q 1024 2170 1024 2016 
L 1024 576 
Q 1024 301 1133 205 
Q 1242 109 1568 96 
L 1568 0 
L 32 0 
L 32 96 
Q 339 154 412 224 
Q 486 294 486 538 
L 486 2138 
Q 486 2349 438 2435 
Q 390 2522 269 2522 
Q 166 2522 45 2496 
L 45 2598 
Q 448 2726 992 2944 
L 1024 2931 
z
" transform="scale(0.015625)"/>
      <path id="STIXGeneral-Regular-6e" d="M 3104 0 
L 1773 0 
L 1779 96 
Q 2016 115 2096 233 
Q 2176 352 2176 672 
L 2176 1946 
Q 2176 2592 1709 2592 
Q 1549 2592 1408 2515 
Q 1267 2438 1050 2227 
L 1050 461 
Q 1050 269 1136 192 
Q 1222 115 1466 96 
L 1466 0 
L 115 0 
L 115 96 
Q 358 115 435 214 
Q 512 314 512 602 
L 512 2157 
Q 512 2394 467 2483 
Q 422 2573 288 2573 
Q 160 2573 102 2547 
L 102 2656 
Q 550 2784 979 2944 
L 1030 2925 
L 1030 2426 
L 1037 2426 
Q 1491 2944 1958 2944 
Q 2323 2944 2518 2688 
Q 2714 2432 2714 1958 
L 2714 544 
Q 2714 288 2790 205 
Q 2867 122 3104 96 
L 3104 0 
z
" transform="scale(0.015625)"/>
      <path id="STIXGeneral-Regular-65" d="M 2611 1050 
L 2714 1005 
Q 2330 -64 1376 -64 
Q 813 -64 486 329 
Q 160 723 160 1389 
Q 160 2074 525 2509 
Q 890 2944 1485 2944 
Q 2061 2944 2374 2502 
Q 2560 2246 2592 1773 
L 621 1773 
Q 646 1370 700 1158 
Q 755 947 915 730 
Q 1184 378 1626 378 
Q 1939 378 2153 531 
Q 2368 685 2611 1050 
z
M 634 1978 
L 1939 1978 
Q 1882 2381 1750 2547 
Q 1619 2714 1312 2714 
Q 1043 2714 864 2525 
Q 685 2336 634 1978 
z
" transform="scale(0.015625)"/>
      <path id="STIXGeneral-Regular-20" transform="scale(0.015625)"/>
      <path id="STIXGeneral-Regular-62" d="M 979 4358 
L 979 2406 
Q 1082 2650 1315 2797 
Q 1549 2944 1843 2944 
Q 2349 2944 2672 2541 
Q 2995 2138 2995 1536 
Q 2995 832 2566 384 
Q 2138 -64 1498 -64 
Q 1107 -64 774 67 
Q 442 198 442 358 
L 442 3622 
Q 442 3859 384 3926 
Q 326 3994 128 3994 
Q 83 3994 19 3981 
L 19 4090 
L 211 4147 
Q 864 4346 947 4371 
L 979 4358 
z
M 979 2035 
L 979 474 
Q 979 326 1161 233 
Q 1344 141 1600 141 
Q 1978 141 2195 416 
Q 2432 710 2432 1261 
Q 2432 1888 2182 2240 
Q 1971 2541 1613 2541 
Q 1357 2541 1168 2390 
Q 979 2240 979 2035 
z
" transform="scale(0.015625)"/>
      <path id="STIXGeneral-Regular-73" d="M 998 1926 
L 1664 1523 
Q 1984 1331 2105 1164 
Q 2227 998 2227 736 
Q 2227 416 1961 176 
Q 1696 -64 1331 -64 
Q 1030 -64 864 -6 
Q 691 51 570 51 
Q 461 51 416 -26 
L 333 -26 
L 333 979 
L 435 979 
Q 538 512 730 294 
Q 922 77 1248 77 
Q 1485 77 1632 211 
Q 1779 346 1779 550 
Q 1779 845 1440 1030 
L 1094 1222 
Q 326 1651 326 2150 
Q 326 2522 566 2730 
Q 806 2938 1210 2938 
Q 1491 2938 1638 2867 
Q 1754 2816 1818 2816 
Q 1862 2816 1920 2880 
L 1990 2880 
L 2022 2010 
L 1926 2010 
Q 1818 2445 1654 2621 
Q 1491 2797 1203 2797 
Q 986 2797 854 2688 
Q 723 2579 723 2362 
Q 723 2253 796 2128 
Q 870 2003 998 1926 
z
" transform="scale(0.015625)"/>
      <path id="STIXGeneral-Regular-69" d="M 1152 4045 
Q 1152 3904 1056 3811 
Q 960 3718 819 3718 
Q 685 3718 592 3811 
Q 499 3904 499 4045 
Q 499 4179 595 4275 
Q 691 4371 826 4371 
Q 966 4371 1059 4275 
Q 1152 4179 1152 4045 
z
M 1619 0 
L 102 0 
L 102 96 
Q 435 115 521 211 
Q 608 307 608 666 
L 608 2118 
Q 608 2342 563 2432 
Q 518 2522 397 2522 
Q 243 2522 128 2490 
L 128 2592 
L 1120 2944 
L 1146 2918 
L 1146 672 
Q 1146 314 1226 218 
Q 1306 122 1619 96 
L 1619 0 
z
" transform="scale(0.015625)"/>
      <path id="STIXGeneral-Regular-6f" d="M 3008 1478 
Q 3008 806 2608 371 
Q 2208 -64 1568 -64 
Q 979 -64 582 368 
Q 186 800 186 1459 
Q 186 2125 582 2534 
Q 979 2944 1626 2944 
Q 2221 2944 2614 2537 
Q 3008 2131 3008 1478 
z
M 2432 1306 
Q 2432 2035 2112 2445 
Q 1856 2765 1504 2765 
Q 1171 2765 966 2493 
Q 762 2221 762 1747 
Q 762 928 1101 435 
Q 1318 115 1677 115 
Q 2029 115 2230 432 
Q 2432 749 2432 1306 
z
" transform="scale(0.015625)"/>
      <path id="STIXGeneral-Regular-64" d="M 3142 269 
L 2202 -64 
L 2176 -45 
L 2176 365 
Q 1869 -64 1357 -64 
Q 826 -64 499 317 
Q 173 698 173 1312 
Q 173 1990 563 2467 
Q 954 2944 1504 2944 
Q 1850 2944 2176 2669 
L 2176 3667 
Q 2176 3866 2118 3930 
Q 2061 3994 1882 3994 
Q 1792 3994 1741 3987 
L 1741 4090 
Q 2323 4243 2682 4371 
L 2714 4358 
L 2714 730 
Q 2714 506 2768 435 
Q 2822 365 2995 365 
Q 3034 365 3142 371 
L 3142 269 
z
M 2176 653 
L 2176 2125 
Q 2176 2381 1981 2573 
Q 1786 2765 1523 2765 
Q 1158 2765 940 2438 
Q 723 2112 723 1568 
Q 723 979 963 624 
Q 1203 269 1606 269 
Q 1907 269 2080 474 
Q 2176 582 2176 653 
z
" transform="scale(0.015625)"/>
      <path id="STIXGeneral-Regular-3a" d="M 1123 2832 
Q 1229 2726 1229 2579 
Q 1229 2432 1126 2329 
Q 1024 2227 877 2227 
Q 730 2227 624 2332 
Q 518 2438 518 2579 
Q 518 2733 620 2835 
Q 723 2938 877 2938 
Q 1018 2938 1123 2832 
z
M 1229 282 
Q 1229 141 1126 35 
Q 1024 -70 877 -70 
Q 730 -70 624 35 
Q 518 141 518 282 
Q 518 435 620 537 
Q 723 640 877 640 
Q 1018 640 1123 534 
Q 1229 429 1229 282 
z
" transform="scale(0.015625)"/>
      <path id="Cmmi10-6b" d="M 341 116 
Q 341 153 347 172 
L 1275 3872 
Q 1300 3981 1306 4044 
Q 1306 4147 891 4147 
Q 825 4147 825 4231 
Q 828 4247 839 4287 
Q 850 4328 867 4350 
Q 884 4372 916 4372 
L 1778 4441 
L 1797 4441 
Q 1797 4434 1819 4423 
Q 1841 4413 1844 4409 
Q 1856 4378 1856 4359 
L 1184 1684 
Q 1416 1781 1767 2145 
Q 2119 2509 2317 2668 
Q 2516 2828 2816 2828 
Q 2994 2828 3119 2706 
Q 3244 2584 3244 2406 
Q 3244 2294 3197 2198 
Q 3150 2103 3065 2043 
Q 2981 1984 2869 1984 
Q 2766 1984 2695 2048 
Q 2625 2113 2625 2216 
Q 2625 2369 2733 2473 
Q 2841 2578 2994 2578 
Q 2931 2663 2803 2663 
Q 2613 2663 2436 2553 
Q 2259 2444 2054 2239 
Q 1850 2034 1681 1864 
Q 1513 1694 1369 1606 
Q 1747 1563 2025 1408 
Q 2303 1253 2303 934 
Q 2303 869 2278 769 
Q 2222 528 2222 384 
Q 2222 97 2419 97 
Q 2650 97 2770 350 
Q 2891 603 2969 941 
Q 2981 978 3022 978 
L 3097 978 
Q 3122 978 3139 962 
Q 3156 947 3156 922 
Q 3156 916 3150 903 
Q 2909 -72 2406 -72 
Q 2225 -72 2086 12 
Q 1947 97 1872 242 
Q 1797 388 1797 569 
Q 1797 672 1825 781 
Q 1844 856 1844 922 
Q 1844 1169 1625 1297 
Q 1406 1425 1125 1453 
L 800 147 
Q 775 50 703 -11 
Q 631 -72 538 -72 
Q 456 -72 398 -17 
Q 341 38 341 116 
z
" transform="scale(0.015625)"/>
      <path id="Cmr10-28" d="M 1984 -1588 
Q 1628 -1306 1370 -942 
Q 1113 -578 948 -165 
Q 784 247 703 697 
Q 622 1147 622 1600 
Q 622 2059 703 2509 
Q 784 2959 951 3375 
Q 1119 3791 1378 4153 
Q 1638 4516 1984 4788 
Q 1984 4800 2016 4800 
L 2075 4800 
Q 2094 4800 2109 4783 
Q 2125 4766 2125 4744 
Q 2125 4716 2113 4703 
Q 1800 4397 1592 4047 
Q 1384 3697 1257 3301 
Q 1131 2906 1075 2482 
Q 1019 2059 1019 1600 
Q 1019 -434 2106 -1491 
Q 2125 -1509 2125 -1544 
Q 2125 -1559 2108 -1579 
Q 2091 -1600 2075 -1600 
L 2016 -1600 
Q 1984 -1600 1984 -1588 
z
" transform="scale(0.015625)"/>
      <path id="Cmmi10-69" d="M 500 459 
Q 500 578 550 709 
L 1069 2088 
Q 1153 2322 1153 2472 
Q 1153 2663 1013 2663 
Q 759 2663 595 2402 
Q 431 2141 353 1819 
Q 341 1778 300 1778 
L 225 1778 
Q 172 1778 172 1838 
L 172 1856 
Q 275 2238 487 2533 
Q 700 2828 1025 2828 
Q 1253 2828 1411 2678 
Q 1569 2528 1569 2297 
Q 1569 2178 1516 2047 
L 997 672 
Q 909 459 909 288 
Q 909 97 1056 97 
Q 1306 97 1473 364 
Q 1641 631 1709 941 
Q 1722 978 1759 978 
L 1838 978 
Q 1863 978 1878 961 
Q 1894 944 1894 922 
Q 1894 916 1888 903 
Q 1800 541 1583 234 
Q 1366 -72 1044 -72 
Q 819 -72 659 83 
Q 500 238 500 459 
z
M 1222 3878 
Q 1222 4013 1334 4122 
Q 1447 4231 1581 4231 
Q 1691 4231 1761 4164 
Q 1831 4097 1831 3994 
Q 1831 3850 1717 3742 
Q 1603 3634 1466 3634 
Q 1363 3634 1292 3704 
Q 1222 3775 1222 3878 
z
" transform="scale(0.015625)"/>
      <path id="Cmr10-29" d="M 416 -1600 
Q 359 -1600 359 -1544 
Q 359 -1516 372 -1503 
Q 1466 -434 1466 1600 
Q 1466 3634 384 4691 
Q 359 4706 359 4744 
Q 359 4766 376 4783 
Q 394 4800 416 4800 
L 475 4800 
Q 494 4800 506 4788 
Q 966 4425 1272 3906 
Q 1578 3388 1720 2800 
Q 1863 2213 1863 1600 
Q 1863 1147 1786 708 
Q 1709 269 1542 -157 
Q 1375 -584 1119 -945 
Q 863 -1306 506 -1588 
Q 494 -1600 475 -1600 
L 416 -1600 
z
" transform="scale(0.015625)"/>
      <path id="Cmr10-3d" d="M 481 850 
Q 428 850 393 890 
Q 359 931 359 978 
Q 359 1031 393 1068 
Q 428 1106 481 1106 
L 4500 1106 
Q 4547 1106 4581 1068 
Q 4616 1031 4616 978 
Q 4616 931 4581 890 
Q 4547 850 4500 850 
L 481 850 
z
M 481 2094 
Q 428 2094 393 2131 
Q 359 2169 359 2222 
Q 359 2269 393 2309 
Q 428 2350 481 2350 
L 4500 2350 
Q 4547 2350 4581 2309 
Q 4616 2269 4616 2222 
Q 4616 2169 4581 2131 
Q 4547 2094 4500 2094 
L 481 2094 
z
" transform="scale(0.015625)"/>
      <path id="Cmmi10-b1" d="M 1281 -97 
Q 1059 -97 868 -14 
Q 678 69 536 225 
Q 394 381 325 573 
Q 256 766 256 991 
Q 256 1391 445 1767 
Q 634 2144 961 2419 
Q 1288 2694 1672 2791 
Q 1484 3138 1386 3389 
Q 1288 3641 1288 3903 
Q 1288 4097 1378 4245 
Q 1469 4394 1628 4478 
Q 1788 4563 1984 4563 
Q 2175 4563 2741 4434 
Q 2888 4400 2888 4263 
Q 2888 4156 2809 4068 
Q 2731 3981 2625 3981 
Q 2547 3981 2484 4017 
Q 2422 4053 2287 4143 
Q 2153 4234 2047 4282 
Q 1941 4331 1825 4331 
Q 1694 4331 1589 4251 
Q 1484 4172 1484 4044 
Q 1484 3841 1664 3577 
Q 1844 3313 2175 2900 
Q 2553 2419 2553 1838 
Q 2553 1550 2470 1215 
Q 2388 881 2230 584 
Q 2072 288 1826 95 
Q 1581 -97 1281 -97 
z
M 1294 78 
Q 1544 78 1723 337 
Q 1903 597 1995 955 
Q 2088 1313 2088 1556 
Q 2088 2034 1753 2631 
Q 1416 2538 1172 2238 
Q 928 1938 803 1547 
Q 678 1156 678 806 
Q 678 500 837 289 
Q 997 78 1294 78 
z
" transform="scale(0.015625)"/>
     </defs>
     <use xlink:href="#STIXGeneral-Regular-4c"/>
     <use xlink:href="#STIXGeneral-Regular-61" transform="translate(61.099991 0)"/>
     <use xlink:href="#STIXGeneral-Regular-67" transform="translate(105.499985 0)"/>
     <use xlink:href="#STIXGeneral-Regular-72" transform="translate(155.499969 0)"/>
     <use xlink:href="#STIXGeneral-Regular-61" transform="translate(188.799957 0)"/>
     <use xlink:href="#STIXGeneral-Regular-6e" transform="translate(233.199951 0)"/>
     <use xlink:href="#STIXGeneral-Regular-67" transform="translate(283.199936 0)"/>
     <use xlink:href="#STIXGeneral-Regular-65" transform="translate(333.199921 0)"/>
     <use xlink:href="#STIXGeneral-Regular-20" transform="translate(377.599915 0)"/>
     <use xlink:href="#STIXGeneral-Regular-62" transform="translate(402.599899 0)"/>
     <use xlink:href="#STIXGeneral-Regular-61" transform="translate(452.599884 0)"/>
     <use xlink:href="#STIXGeneral-Regular-73" transform="translate(496.999878 0)"/>
     <use xlink:href="#STIXGeneral-Regular-69" transform="translate(535.899872 0)"/>
     <use xlink:href="#STIXGeneral-Regular-73" transform="translate(563.69986 0)"/>
     <use xlink:href="#STIXGeneral-Regular-20" transform="translate(602.599854 0)"/>
     <use xlink:href="#STIXGeneral-Regular-6f" transform="translate(627.599838 0)"/>
     <use xlink:href="#STIXGeneral-Regular-6e" transform="translate(677.599823 0)"/>
     <use xlink:href="#STIXGeneral-Regular-20" transform="translate(727.599808 0)"/>
     <use xlink:href="#STIXGeneral-Regular-35" transform="translate(752.599792 0)"/>
     <use xlink:href="#STIXGeneral-Regular-20" transform="translate(802.599777 0)"/>
     <use xlink:href="#STIXGeneral-Regular-6e" transform="translate(827.599762 0)"/>
     <use xlink:href="#STIXGeneral-Regular-6f" transform="translate(877.599747 0)"/>
     <use xlink:href="#STIXGeneral-Regular-64" transform="translate(927.599731 0)"/>
     <use xlink:href="#STIXGeneral-Regular-65" transform="translate(977.599716 0)"/>
     <use xlink:href="#STIXGeneral-Regular-73" transform="translate(1021.99971 0)"/>
     <use xlink:href="#STIXGeneral-Regular-3a" transform="translate(1060.899704 0)"/>
     <use xlink:href="#STIXGeneral-Regular-20" transform="translate(1088.699692 0)"/>
     <use xlink:href="#Cmmi10-4c" transform="translate(1113.699677 0)"/>
     <use xlink:href="#Cmr10-34" transform="translate(1181.717255 -17.00625) scale(0.7)"/>
     <use xlink:href="#Cmmi10-3b" transform="translate(1216.717255 -17.00625) scale(0.7)"/>
     <use xlink:href="#Cmmi10-6b" transform="translate(1248.388153 -17.00625) scale(0.7)"/>
     <use xlink:href="#Cmr10-28" transform="translate(1291.166864 0)"/>
     <use xlink:href="#Cmmi10-78" transform="translate(1329.985223 0)"/>
     <use xlink:href="#Cmmi10-69" transform="translate(1387.065302 -17.00625) scale(0.7)"/>
     <use xlink:href="#Cmr10-29" transform="translate(1417.539325 0)"/>
     <use xlink:href="#Cmr10-3d" transform="translate(1473.916278 0)"/>
     <use xlink:href="#Cmmi10-b1" transform="translate(1569.160419 0)"/>
     <use xlink:href="#Cmmi10-69" transform="translate(1613.545184 -17.00625) scale(0.7)"/>
     <use xlink:href="#Cmmi10-6b" transform="translate(1637.641864 -17.00625) scale(0.7)"/>
    </g>
   </g>
   <g id="line2d_21">
    <path d="M 51.847727 67.135579 
L 55.504662 78.811736 
L 59.161597 89.756756 
L 62.818532 99.999203 
L 66.475466 109.567112 
L 70.132401 118.48799 
L 73.789336 126.788813 
L 77.446271 134.496031 
L 81.103206 141.635562 
L 84.353814 147.525772 
L 87.604423 153.004988 
L 90.855032 158.090363 
L 94.105641 162.798716 
L 97.356249 167.146537 
L 100.606858 171.149986 
L 103.857467 174.824893 
L 107.108075 178.186757 
L 110.358684 181.250747 
L 113.609293 184.031702 
L 116.859902 186.544129 
L 120.11051 188.802207 
L 123.767445 191.055748 
L 127.42438 193.024111 
L 131.081315 194.725985 
L 134.73825 196.179529 
L 138.395184 197.402371 
L 142.458445 198.511291 
L 146.521706 199.379186 
L 150.584967 200.027939 
L 155.054554 200.513594 
L 159.930467 200.801665 
L 164.80638 200.869888 
L 170.494945 200.713799 
L 176.589837 200.316114 
L 183.903706 199.598841 
L 192.84288 198.484695 
L 226.567946 194.049216 
L 235.100794 193.279834 
L 242.820989 192.80059 
L 250.541185 192.549908 
L 257.855055 192.533345 
L 265.168924 192.732512 
L 272.88912 193.168017 
L 281.015642 193.8551 
L 289.954816 194.839812 
L 301.331946 196.337684 
L 324.898859 199.518153 
L 332.619055 200.290932 
L 339.120272 200.718553 
L 344.808838 200.870493 
L 350.091077 200.782474 
L 354.96699 200.469613 
L 359.436577 199.958101 
L 363.499838 199.283124 
L 367.563099 198.386315 
L 371.62636 197.245688 
L 375.283294 195.991838 
L 376.502273 195.522947 
L 376.502273 195.522947 
" clip-path="url(#pa691f48f11)" style="fill: none; stroke: #0072b2; stroke-width: 1.8; stroke-linecap: square"/>
   </g>
   <g id="line2d_22">
    <path d="M 51.847727 195.522947 
L 54.69201 178.201194 
L 57.536293 162.196625 
L 60.380575 147.460674 
L 63.224858 133.945549 
L 66.06914 121.604234 
L 68.507097 111.925147 
L 70.945053 103.045797 
L 73.38301 94.937933 
L 75.820967 87.573725 
L 78.258923 80.925758 
L 80.69688 74.967038 
L 83.134836 69.670987 
L 85.166467 65.744931 
L 87.198097 62.245971 
L 89.229728 59.159393 
L 91.261358 56.470683 
L 93.292988 54.165528 
L 95.324619 52.22982 
L 97.356249 50.649648 
L 98.981554 49.632279 
L 100.606858 48.826752 
L 102.232162 48.226226 
L 103.857467 47.823938 
L 105.482771 47.613213 
L 107.108075 47.587456 
L 109.139706 47.805456 
L 111.171336 48.289762 
L 113.202967 49.028036 
L 115.234597 50.008144 
L 117.266228 51.218154 
L 119.704184 52.957132 
L 122.142141 54.990396 
L 124.580097 57.298478 
L 127.42438 60.313183 
L 130.268663 63.646494 
L 133.519271 67.809264 
L 137.176206 72.893063 
L 141.239467 78.972168 
L 145.709054 86.095348 
L 150.991293 94.975469 
L 157.492511 106.38142 
L 170.494945 129.800298 
L 179.027793 144.897823 
L 185.122685 155.25176 
L 190.404924 163.809756 
L 195.280837 171.292432 
L 199.750424 177.749465 
L 203.813685 183.25168 
L 207.876946 188.3767 
L 211.53388 192.647868 
L 215.190815 196.580733 
L 218.84775 200.163079 
L 222.098359 203.044914 
L 225.348967 205.636102 
L 228.599576 207.932275 
L 231.850185 209.93039 
L 234.694468 211.432851 
L 237.53875 212.705446 
L 240.383033 213.748624 
L 243.227315 214.56361 
L 246.071598 215.152402 
L 248.915881 215.517772 
L 251.760163 215.663269 
L 254.604446 215.593215 
L 257.448729 215.312705 
L 260.293011 214.827612 
L 263.54362 214.031269 
L 266.794229 212.987579 
L 270.044837 211.709022 
L 273.701772 210.00714 
L 277.358707 208.047158 
L 281.421968 205.595668 
L 285.891555 202.607606 
L 290.767468 199.059235 
L 296.456033 194.635292 
L 306.207859 186.703603 
L 314.334381 180.213963 
L 319.210294 176.584808 
L 323.273555 173.811507 
L 326.93049 171.571278 
L 330.181099 169.8273 
L 333.025381 168.523582 
L 335.869664 167.45499 
L 338.30762 166.746813 
L 340.745577 166.248969 
L 343.183533 165.979474 
L 345.62149 165.956763 
L 347.65312 166.139941 
L 349.684751 166.518711 
L 351.716381 167.104408 
L 353.748012 167.908565 
L 355.779642 168.94292 
L 357.811273 170.21941 
L 359.842903 171.750174 
L 361.874534 173.547554 
L 363.906164 175.624093 
L 365.937794 177.992534 
L 367.969425 180.665824 
L 370.001055 183.657111 
L 372.439012 187.68522 
L 374.876968 192.213928 
L 376.502273 195.522947 
L 376.502273 195.522947 
" clip-path="url(#pa691f48f11)" style="fill: none; stroke: #d55e00; stroke-width: 1.8; stroke-linecap: square"/>
   </g>
   <g id="line2d_23">
    <path d="M 51.847727 195.522947 
L 54.285684 206.548974 
L 56.72364 216.515928 
L 59.161597 225.464621 
L 61.193227 232.17304 
L 63.224858 238.225174 
L 65.256488 243.643646 
L 67.288119 248.450773 
L 69.319749 252.668571 
L 71.35138 256.318755 
L 72.976684 258.844617 
L 74.601988 261.031738 
L 76.227293 262.890817 
L 77.852597 264.432429 
L 79.477901 265.667025 
L 81.103206 266.604934 
L 82.72851 267.256359 
L 84.353814 267.63138 
L 85.979119 267.739954 
L 87.604423 267.591911 
L 89.229728 267.196962 
L 90.855032 266.564689 
L 92.480336 265.704554 
L 94.105641 264.625894 
L 96.137271 262.98429 
L 98.168901 261.033347 
L 100.200532 258.790485 
L 102.638488 255.737796 
L 105.076445 252.318378 
L 107.920728 247.903375 
L 110.76501 243.071791 
L 114.015619 237.094759 
L 117.672554 229.864219 
L 121.735815 221.301362 
L 126.611728 210.44396 
L 132.300293 197.20759 
L 142.052119 173.845746 
L 151.397619 151.657815 
L 157.492511 137.772657 
L 162.368424 127.192828 
L 166.838011 118.011461 
L 170.901271 110.162196 
L 174.558206 103.549246 
L 178.215141 97.401329 
L 181.46575 92.353505 
L 184.716359 87.720012 
L 187.560641 84.020536 
L 190.404924 80.664274 
L 193.249206 77.661516 
L 195.687163 75.376035 
L 198.125119 73.362065 
L 200.563076 71.62405 
L 203.001033 70.165803 
L 205.438989 68.990512 
L 207.876946 68.100738 
L 209.908576 67.578776 
L 211.940207 67.257231 
L 213.971837 67.136584 
L 216.003467 67.217019 
L 218.035098 67.498414 
L 220.066728 67.980346 
L 222.098359 68.662088 
L 224.536315 69.74246 
L 226.974272 71.106712 
L 229.412228 72.751864 
L 231.850185 74.674311 
L 234.288141 76.869821 
L 236.726098 79.333532 
L 239.570381 82.539485 
L 242.414663 86.093204 
L 245.258946 89.983736 
L 248.509555 94.826888 
L 251.760163 100.074152 
L 255.417098 106.432988 
L 259.074033 113.24126 
L 263.137294 121.287538 
L 267.606881 130.659054 
L 272.482794 141.411641 
L 278.171359 154.503985 
L 285.891555 172.8691 
L 299.300316 204.83144 
L 304.582555 216.845042 
L 309.052142 226.499943 
L 313.115403 234.740233 
L 316.772338 241.620845 
L 320.022946 247.237643 
L 322.867229 251.714823 
L 325.305185 255.192586 
L 327.743142 258.308394 
L 330.181099 261.033347 
L 332.212729 262.98429 
L 334.244359 264.625894 
L 336.27599 265.940437 
L 337.901294 266.744487 
L 339.526599 267.31832 
L 341.151903 267.652447 
L 342.777207 267.73725 
L 344.402512 267.562991 
L 346.027816 267.119808 
L 347.65312 266.397711 
L 349.278425 265.386592 
L 350.903729 264.076215 
L 352.529033 262.456221 
L 354.154338 260.516128 
L 355.779642 258.245329 
L 357.404947 255.633095 
L 359.030251 252.668571 
L 361.061881 248.450773 
L 363.093512 243.643646 
L 365.125142 238.225174 
L 367.156773 232.17304 
L 369.188403 225.464621 
L 371.220034 218.076996 
L 373.65799 208.28257 
L 376.095947 197.435916 
L 376.502273 195.522947 
L 376.502273 195.522947 
" clip-path="url(#pa691f48f11)" style="fill: none; stroke: #009e73; stroke-width: 1.8; stroke-linecap: square"/>
   </g>
   <g id="line2d_24">
    <path d="M 51.847727 195.522947 
L 54.285684 190.647272 
L 56.72364 186.288062 
L 59.161597 182.421587 
L 61.599553 179.024537 
L 63.631184 176.53572 
L 65.662814 174.343961 
L 67.694445 172.436434 
L 69.726075 170.800516 
L 71.757706 169.423784 
L 73.789336 168.294019 
L 75.820967 167.399203 
L 77.852597 166.727517 
L 79.884227 166.267348 
L 81.915858 166.00728 
L 84.353814 165.943561 
L 86.791771 166.132863 
L 89.229728 166.556613 
L 91.667684 167.196656 
L 94.511967 168.193102 
L 97.356249 169.432374 
L 100.606858 171.111843 
L 103.857467 173.035088 
L 107.514402 175.44379 
L 111.983989 178.668484 
L 117.266228 182.763539 
L 126.205402 190.028444 
L 135.144576 197.194204 
L 140.426815 201.161868 
L 144.896402 204.272473 
L 148.959663 206.855416 
L 153.022924 209.166538 
L 156.679858 210.985929 
L 159.930467 212.376827 
L 163.181076 213.539593 
L 166.431684 214.461087 
L 169.682293 215.129489 
L 172.526576 215.498442 
L 175.370858 215.65936 
L 178.215141 215.606817 
L 181.059424 215.336158 
L 183.903706 214.843503 
L 186.747989 214.125747 
L 189.592272 213.180561 
L 192.436554 212.006387 
L 195.280837 210.602446 
L 198.125119 208.968729 
L 201.375728 206.821287 
L 204.626337 204.377143 
L 207.876946 201.640003 
L 211.127554 198.614894 
L 214.378163 195.308165 
L 218.035098 191.261071 
L 221.692033 186.880214 
L 225.755294 181.639503 
L 229.818554 176.029042 
L 234.288141 169.462693 
L 239.164054 161.873887 
L 244.446294 153.218258 
L 250.541185 142.776787 
L 258.261381 129.070127 
L 276.952381 95.675242 
L 282.640946 86.095348 
L 287.110533 78.972168 
L 291.173794 72.893063 
L 294.830729 67.809264 
L 298.081337 63.646494 
L 301.331946 59.862324 
L 304.176229 56.895527 
L 306.614185 54.631914 
L 309.052142 52.646333 
L 311.490098 50.958326 
L 313.521729 49.793352 
L 315.553359 48.860649 
L 317.58499 48.172191 
L 319.61662 47.740154 
L 321.648251 47.576912 
L 323.273555 47.648298 
L 324.898859 47.906292 
L 326.524164 48.35751 
L 328.149468 49.00865 
L 329.774772 49.866492 
L 331.400077 50.9379 
L 333.025381 52.22982 
L 335.057012 54.165528 
L 337.088642 56.470683 
L 339.120272 59.159393 
L 341.151903 62.245971 
L 343.183533 65.744931 
L 345.215164 69.670987 
L 347.246794 74.039056 
L 349.278425 78.864257 
L 351.716381 85.279495 
L 354.154338 92.401931 
L 356.592294 100.258838 
L 359.030251 108.877908 
L 361.468207 118.287251 
L 363.906164 128.515396 
L 366.34412 139.59129 
L 369.188403 153.623823 
L 372.032686 168.897571 
L 374.876968 185.460656 
L 376.502273 195.522947 
L 376.502273 195.522947 
" clip-path="url(#pa691f48f11)" style="fill: none; stroke: #e69f00; stroke-width: 1.8; stroke-linecap: square"/>
   </g>
   <g id="line2d_25">
    <path d="M 51.847727 195.522947 
L 55.504662 196.852569 
L 59.161597 197.96058 
L 63.224858 198.952233 
L 67.288119 199.713357 
L 71.757706 200.309969 
L 76.227293 200.681132 
L 81.103206 200.8598 
L 86.385445 200.823614 
L 92.07401 200.561151 
L 98.575228 200.034784 
L 106.295423 199.179867 
L 117.266228 197.714096 
L 138.80151 194.790664 
L 148.14701 193.776722 
L 156.273532 193.111761 
L 163.993728 192.699899 
L 171.307598 192.52447 
L 178.621467 192.565119 
L 185.935337 192.820258 
L 193.655532 193.311029 
L 201.782054 194.049216 
L 211.127554 195.129332 
L 223.723663 196.837242 
L 242.008337 199.315568 
L 250.134859 200.176625 
L 256.636076 200.651636 
L 262.324642 200.856343 
L 267.606881 200.827426 
L 272.482794 200.578268 
L 276.952381 200.133262 
L 281.421968 199.453568 
L 285.485229 198.608559 
L 289.54849 197.52475 
L 293.205424 196.326475 
L 296.862359 194.899426 
L 300.519294 193.226031 
L 304.176229 191.288191 
L 307.426838 189.328615 
L 310.677446 187.131947 
L 313.928055 184.684423 
L 317.178664 181.971948 
L 320.429272 178.980095 
L 323.679881 175.694108 
L 326.93049 172.098902 
L 330.181099 168.17906 
L 333.431707 163.918834 
L 336.682316 159.302147 
L 339.932925 154.312592 
L 343.183533 148.933431 
L 346.434142 143.147595 
L 349.684751 136.937686 
L 352.93536 130.285975 
L 356.185968 123.174403 
L 359.842903 114.601296 
L 363.499838 105.396211 
L 367.156773 95.531935 
L 370.813707 84.980726 
L 374.470642 73.714314 
L 376.502273 67.135579 
L 376.502273 67.135579 
" clip-path="url(#pa691f48f11)" style="fill: none; stroke: #cc79a7; stroke-width: 1.8; stroke-linecap: square"/>
   </g>
   <g id="line2d_26">
    <defs>
     <path id="m8cd8d0648c" d="M 0 2 
C 0.530406 2 1.03916 1.789267 1.414214 1.414214 
C 1.789267 1.03916 2 0.530406 2 0 
C 2 -0.530406 1.789267 -1.03916 1.414214 -1.414214 
C 1.03916 -1.789267 0.530406 -2 0 -2 
C -0.530406 -2 -1.03916 -1.789267 -1.414214 -1.414214 
C -1.789267 -1.03916 -2 -0.530406 -2 0 
C -2 0.530406 -1.789267 1.03916 -1.414214 1.414214 
C -1.03916 1.789267 -0.530406 2 0 2 
z
" style="stroke: #0072b2; stroke-width: 1.2"/>
    </defs>
    <g clip-path="url(#pa691f48f11)">
     <use xlink:href="#m8cd8d0648c" x="133.011364" y="195.522947" style="fill: #ffffff; stroke: #0072b2; stroke-width: 1.2"/>
     <use xlink:href="#m8cd8d0648c" x="214.175" y="195.522947" style="fill: #ffffff; stroke: #0072b2; stroke-width: 1.2"/>
     <use xlink:href="#m8cd8d0648c" x="295.338636" y="195.522947" style="fill: #ffffff; stroke: #0072b2; stroke-width: 1.2"/>
     <use xlink:href="#m8cd8d0648c" x="376.502273" y="195.522947" style="fill: #ffffff; stroke: #0072b2; stroke-width: 1.2"/>
    </g>
   </g>
   <g id="line2d_27">
    <defs>
     <path id="mc72d8ad5e4" d="M 0 2 
C 0.530406 2 1.03916 1.789267 1.414214 1.414214 
C 1.789267 1.03916 2 0.530406 2 0 
C 2 -0.530406 1.789267 -1.03916 1.414214 -1.414214 
C 1.03916 -1.789267 0.530406 -2 0 -2 
C -0.530406 -2 -1.03916 -1.789267 -1.414214 -1.414214 
C -1.789267 -1.03916 -2 -0.530406 -2 0 
C -2 0.530406 -1.789267 1.03916 -1.414214 1.414214 
C -1.03916 1.789267 -0.530406 2 0 2 
z
" style="stroke: #d55e00; stroke-width: 1.2"/>
    </defs>
    <g clip-path="url(#pa691f48f11)">
     <use xlink:href="#mc72d8ad5e4" x="51.847727" y="195.522947" style="fill: #ffffff; stroke: #d55e00; stroke-width: 1.2"/>
     <use xlink:href="#mc72d8ad5e4" x="214.175" y="195.522947" style="fill: #ffffff; stroke: #d55e00; stroke-width: 1.2"/>
     <use xlink:href="#mc72d8ad5e4" x="295.338636" y="195.522947" style="fill: #ffffff; stroke: #d55e00; stroke-width: 1.2"/>
     <use xlink:href="#mc72d8ad5e4" x="376.502273" y="195.522947" style="fill: #ffffff; stroke: #d55e00; stroke-width: 1.2"/>
    </g>
   </g>
   <g id="line2d_28">
    <defs>
     <path id="m8071ce9721" d="M 0 2 
C 0.530406 2 1.03916 1.789267 1.414214 1.414214 
C 1.789267 1.03916 2 0.530406 2 0 
C 2 -0.530406 1.789267 -1.03916 1.414214 -1.414214 
C 1.03916 -1.789267 0.530406 -2 0 -2 
C -0.530406 -2 -1.03916 -1.789267 -1.414214 -1.414214 
C -1.789267 -1.03916 -2 -0.530406 -2 0 
C -2 0.530406 -1.789267 1.03916 -1.414214 1.414214 
C -1.03916 1.789267 -0.530406 2 0 2 
z
" style="stroke: #009e73; stroke-width: 1.2"/>
    </defs>
    <g clip-path="url(#pa691f48f11)">
     <use xlink:href="#m8071ce9721" x="51.847727" y="195.522947" style="fill: #ffffff; stroke: #009e73; stroke-width: 1.2"/>
     <use xlink:href="#m8071ce9721" x="133.011364" y="195.522947" style="fill: #ffffff; stroke: #009e73; stroke-width: 1.2"/>
     <use xlink:href="#m8071ce9721" x="295.338636" y="195.522947" style="fill: #ffffff; stroke: #009e73; stroke-width: 1.2"/>
     <use xlink:href="#m8071ce9721" x="376.502273" y="195.522947" style="fill: #ffffff; stroke: #009e73; stroke-width: 1.2"/>
    </g>
   </g>
   <g id="line2d_29">
    <defs>
     <path id="m9817fadf1a" d="M 0 2 
C 0.530406 2 1.03916 1.789267 1.414214 1.414214 
C 1.789267 1.03916 2 0.530406 2 0 
C 2 -0.530406 1.789267 -1.03916 1.414214 -1.414214 
C 1.03916 -1.789267 0.530406 -2 0 -2 
C -0.530406 -2 -1.03916 -1.789267 -1.414214 -1.414214 
C -1.789267 -1.03916 -2 -0.530406 -2 0 
C -2 0.530406 -1.789267 1.03916 -1.414214 1.414214 
C -1.03916 1.789267 -0.530406 2 0 2 
z
" style="stroke: #e69f00; stroke-width: 1.2"/>
    </defs>
    <g clip-path="url(#pa691f48f11)">
     <use xlink:href="#m9817fadf1a" x="51.847727" y="195.522947" style="fill: #ffffff; stroke: #e69f00; stroke-width: 1.2"/>
     <use xlink:href="#m9817fadf1a" x="133.011364" y="195.522947" style="fill: #ffffff; stroke: #e69f00; stroke-width: 1.2"/>
     <use xlink:href="#m9817fadf1a" x="214.175" y="195.522947" style="fill: #ffffff; stroke: #e69f00; stroke-width: 1.2"/>
     <use xlink:href="#m9817fadf1a" x="376.502273" y="195.522947" style="fill: #ffffff; stroke: #e69f00; stroke-width: 1.2"/>
    </g>
   </g>
   <g id="line2d_30">
    <defs>
     <path id="mf101e4c03c" d="M 0 2 
C 0.530406 2 1.03916 1.789267 1.414214 1.414214 
C 1.789267 1.03916 2 0.530406 2 0 
C 2 -0.530406 1.789267 -1.03916 1.414214 -1.414214 
C 1.03916 -1.789267 0.530406 -2 0 -2 
C -0.530406 -2 -1.03916 -1.789267 -1.414214 -1.414214 
C -1.789267 -1.03916 -2 -0.530406 -2 0 
C -2 0.530406 -1.789267 1.03916 -1.414214 1.414214 
C -1.03916 1.789267 -0.530406 2 0 2 
z
" style="stroke: #cc79a7; stroke-width: 1.2"/>
    </defs>
    <g clip-path="url(#pa691f48f11)">
     <use xlink:href="#mf101e4c03c" x="51.847727" y="195.522947" style="fill: #ffffff; stroke: #cc79a7; stroke-width: 1.2"/>
     <use xlink:href="#mf101e4c03c" x="133.011364" y="195.522947" style="fill: #ffffff; stroke: #cc79a7; stroke-width: 1.2"/>
     <use xlink:href="#mf101e4c03c" x="214.175" y="195.522947" style="fill: #ffffff; stroke: #cc79a7; stroke-width: 1.2"/>
     <use xlink:href="#mf101e4c03c" x="295.338636" y="195.522947" style="fill: #ffffff; stroke: #cc79a7; stroke-width: 1.2"/>
    </g>
   </g>
   <g id="line2d_31">
    <defs>
     <path id="m56b0718ee3" d="M 0 3 
C 0.795609 3 1.55874 2.683901 2.12132 2.12132 
C 2.683901 1.55874 3 0.795609 3 0 
C 3 -0.795609 2.683901 -1.55874 2.12132 -2.12132 
C 1.55874 -2.683901 0.795609 -3 0 -3 
C -0.795609 -3 -1.55874 -2.683901 -2.12132 -2.12132 
C -2.683901 -1.55874 -3 -0.795609 -3 0 
C -3 0.795609 -2.683901 1.55874 -2.12132 2.12132 
C -1.55874 2.683901 -0.795609 3 0 3 
z
" style="stroke: #0072b2"/>
    </defs>
    <g clip-path="url(#pa691f48f11)">
     <use xlink:href="#m56b0718ee3" x="51.847727" y="67.135579" style="fill: #0072b2; stroke: #0072b2"/>
    </g>
   </g>
   <g id="line2d_32">
    <defs>
     <path id="m10e5aa1f71" d="M 0 3 
C 0.795609 3 1.55874 2.683901 2.12132 2.12132 
C 2.683901 1.55874 3 0.795609 3 0 
C 3 -0.795609 2.683901 -1.55874 2.12132 -2.12132 
C 1.55874 -2.683901 0.795609 -3 0 -3 
C -0.795609 -3 -1.55874 -2.683901 -2.12132 -2.12132 
C -2.683901 -1.55874 -3 -0.795609 -3 0 
C -3 0.795609 -2.683901 1.55874 -2.12132 2.12132 
C -1.55874 2.683901 -0.795609 3 0 3 
z
" style="stroke: #d55e00"/>
    </defs>
    <g clip-path="url(#pa691f48f11)">
     <use xlink:href="#m10e5aa1f71" x="133.011364" y="67.135579" style="fill: #d55e00; stroke: #d55e00"/>
    </g>
   </g>
   <g id="line2d_33">
    <defs>
     <path id="me59e393435" d="M 0 3 
C 0.795609 3 1.55874 2.683901 2.12132 2.12132 
C 2.683901 1.55874 3 0.795609 3 0 
C 3 -0.795609 2.683901 -1.55874 2.12132 -2.12132 
C 1.55874 -2.683901 0.795609 -3 0 -3 
C -0.795609 -3 -1.55874 -2.683901 -2.12132 -2.12132 
C -2.683901 -1.55874 -3 -0.795609 -3 0 
C -3 0.795609 -2.683901 1.55874 -2.12132 2.12132 
C -1.55874 2.683901 -0.795609 3 0 3 
z
" style="stroke: #009e73"/>
    </defs>
    <g clip-path="url(#pa691f48f11)">
     <use xlink:href="#me59e393435" x="214.175" y="67.135579" style="fill: #009e73; stroke: #009e73"/>
    </g>
   </g>
   <g id="line2d_34">
    <defs>
     <path id="m2d7f4dcbff" d="M 0 3 
C 0.795609 3 1.55874 2.683901 2.12132 2.12132 
C 2.683901 1.55874 3 0.795609 3 0 
C 3 -0.795609 2.683901 -1.55874 2.12132 -2.12132 
C 1.55874 -2.683901 0.795609 -3 0 -3 
C -0.795609 -3 -1.55874 -2.683901 -2.12132 -2.12132 
C -2.683901 -1.55874 -3 -0.795609 -3 0 
C -3 0.795609 -2.683901 1.55874 -2.12132 2.12132 
C -1.55874 2.683901 -0.795609 3 0 3 
z
" style="stroke: #e69f00"/>
    </defs>
    <g clip-path="url(#pa691f48f11)">
     <use xlink:href="#m2d7f4dcbff" x="295.338636" y="67.135579" style="fill: #e69f00; stroke: #e69f00"/>
    </g>
   </g>
   <g id="line2d_35">
    <defs>
     <path id="m9855bdf0c2" d="M 0 3 
C 0.795609 3 1.55874 2.683901 2.12132 2.12132 
C 2.683901 1.55874 3 0.795609 3 0 
C 3 -0.795609 2.683901 -1.55874 2.12132 -2.12132 
C 1.55874 -2.683901 0.795609 -3 0 -3 
C -0.795609 -3 -1.55874 -2.683901 -2.12132 -2.12132 
C -2.683901 -1.55874 -3 -0.795609 -3 0 
C -3 0.795609 -2.683901 1.55874 -2.12132 2.12132 
C -1.55874 2.683901 -0.795609 3 0 3 
z
" style="stroke: #cc79a7"/>
    </defs>
    <g clip-path="url(#pa691f48f11)">
     <use xlink:href="#m9855bdf0c2" x="376.502273" y="67.135579" style="fill: #cc79a7; stroke: #cc79a7"/>
    </g>
   </g>
  </g>
 </g>
 <defs>
  <clipPath id="pa691f48f11">
   <rect x="35.615" y="22.2" width="357.12" height="243.936"/>
  </clipPath>
 </defs>
</svg>
