<?xml version="1.0" encoding="utf-8" standalone="no"?>
<!DOCTYPE svg PUBLIC "-//W3C//DTD SVG 1.1//EN"
  "http://www.w3.org/Graphics/SVG/1.1/DTD/svg11.dtd">
<svg xmlns:xlink="http://www.w3.org/1999/xlink" width="399.935pt" height="301.031625pt" viewBox="0 0 399.935 301.031625" xmlns="http://www.w3.org/2000/svg" version="1.1">
 <metadata>
  <rdf:RDF xmlns:dc="http://purl.org/dc/elements/1.1/" xmlns:cc="http://creativecommons.org/ns#" xmlns:rdf="http://www.w3.org/1999/02/22-rdf-syntax-ns#">
   <cc:Work>
    <dc:type rdf:resource="http://purl.org/dc/dcmitype/StillImage"/>
    <dc:date>2026-07-17T21:04:23.692372</dc:date>
    <dc:format>image/svg+xml</dc:format>
    <dc:creator>
     <cc:Agent>
      <dc:title>Matplotlib v3.9.4, https://matplotlib.org/</dc:title>
     </cc:Agent>
    </dc:creator>
   </cc:Work>
  </rdf:RDF>
 </metadata>
 <defs>
  <style type="text/css">*{stroke-linejoin: round; stroke-linecap: butt}</style>
 </defs>
 <g id="figure_1">
  <g id="patch_1">
   <path d="M 0 301.031625 
L 399.935 301.031625 
L 399.935 0 
L 0 0 
z
" style="fill: #ffffff"/>
  </g>
  <g id="axes_1">
   <g id="patch_2">
    <path d="M 35.615 265.331625 
L 392.735 265.331625 
L 392.735 21.395625 
L 35.615 21.395625 
z
" style="fill: #ffffff"/>
   </g>
   <g id="matplotlib.axis_1">
    <g id="xtick_1">
     <g id="line2d_1">
      <defs>
       <path id="m55cde1b341" d="M 0 0 
L 0 3 
" style="stroke: #1f2328; stroke-width: 0.8"/>
      </defs>
      <g>
       <use xlink:href="#m55cde1b341" x="44.117857" y="265.331625" style="fill: #1f2328; stroke: #1f2328; stroke-width: 0.8"/>
      </g>
     </g>
     <g id="text_1">
      <!-- −1.00 -->
      <g style="fill: #1f2328" transform="translate(33.160357 277.978344) scale(0.09 -0.09)">
       <defs>
        <path id="STIXGeneral-Regular-2212" d="M 3974 1408 
L 410 1408 
L 410 1830 
L 3974 1830 
L 3974 1408 
z
" transform="scale(0.015625)"/>
        <path id="STIXGeneral-Regular-31" d="M 2522 0 
L 755 0 
L 755 96 
Q 1107 115 1235 227 
Q 1363 339 1363 608 
L 1363 3482 
Q 1363 3795 1171 3795 
Q 1082 3795 883 3718 
L 710 3654 
L 710 3744 
L 1856 4326 
L 1914 4307 
L 1914 486 
Q 1914 275 2042 185 
Q 2170 96 2522 96 
L 2522 0 
z
" transform="scale(0.015625)"/>
        <path id="STIXGeneral-Regular-2e" d="M 1158 275 
Q 1158 134 1052 32 
Q 947 -70 800 -70 
Q 653 -70 550 32 
Q 448 134 448 281 
Q 448 429 553 534 
Q 659 640 806 640 
Q 947 640 1052 531 
Q 1158 422 1158 275 
z
" transform="scale(0.015625)"/>
        <path id="STIXGeneral-Regular-30" d="M 3046 2112 
Q 3046 1683 2963 1302 
Q 2880 922 2717 602 
Q 2554 282 2266 96 
Q 1978 -90 1600 -90 
Q 1210 -90 915 108 
Q 621 307 461 640 
Q 301 973 227 1350 
Q 154 1728 154 2150 
Q 154 2746 301 3222 
Q 448 3699 790 4012 
Q 1133 4326 1626 4326 
Q 2253 4326 2649 3712 
Q 3046 3098 3046 2112 
z
M 2432 2080 
Q 2432 3091 2217 3625 
Q 2003 4160 1587 4160 
Q 1190 4160 979 3622 
Q 768 3085 768 2106 
Q 768 1120 979 598 
Q 1190 77 1600 77 
Q 2003 77 2217 598 
Q 2432 1120 2432 2080 
z
" transform="scale(0.015625)"/>
       </defs>
       <use xlink:href="#STIXGeneral-Regular-2212"/>
       <use xlink:href="#STIXGeneral-Regular-31" x="68.499985"/>
       <use xlink:href="#STIXGeneral-Regular-2e" x="118.499969"/>
       <use xlink:href="#STIXGeneral-Regular-30" x="143.499954"/>
       <use xlink:href="#STIXGeneral-Regular-30" x="193.499939"/>
      </g>
     </g>
    </g>
    <g id="xtick_2">
     <g id="line2d_2">
      <g>
       <use xlink:href="#m55cde1b341" x="86.632143" y="265.331625" style="fill: #1f2328; stroke: #1f2328; stroke-width: 0.8"/>
      </g>
     </g>
     <g id="text_2">
      <!-- −0.75 -->
      <g style="fill: #1f2328" transform="translate(75.674643 277.978344) scale(0.09 -0.09)">
       <defs>
        <path id="STIXGeneral-Regular-37" d="M 2874 4134 
L 1517 -51 
L 1101 -51 
L 2368 3763 
L 992 3763 
Q 717 3763 582 3667 
Q 448 3571 243 3238 
L 128 3296 
L 512 4237 
L 2874 4237 
L 2874 4134 
z
" transform="scale(0.015625)"/>
        <path id="STIXGeneral-Regular-35" d="M 2803 4358 
L 2573 3814 
Q 2534 3731 2400 3731 
L 1158 3731 
L 902 3187 
Q 1606 3053 1920 2896 
Q 2234 2739 2502 2368 
Q 2726 2061 2726 1555 
Q 2726 1094 2576 780 
Q 2426 467 2099 224 
Q 1664 -90 1011 -90 
Q 646 -90 422 19 
Q 198 128 198 307 
Q 198 550 486 550 
Q 717 550 960 352 
Q 1210 147 1414 147 
Q 1747 147 2012 480 
Q 2278 813 2278 1229 
Q 2278 1843 1850 2189 
Q 1293 2637 486 2637 
Q 410 2637 410 2688 
L 416 2720 
L 1114 4237 
L 2438 4237 
Q 2547 4237 2608 4269 
Q 2669 4301 2746 4403 
L 2803 4358 
z
" transform="scale(0.015625)"/>
       </defs>
       <use xlink:href="#STIXGeneral-Regular-2212"/>
       <use xlink:href="#STIXGeneral-Regular-30" x="68.499985"/>
       <use xlink:href="#STIXGeneral-Regular-2e" x="118.499969"/>
       <use xlink:href="#STIXGeneral-Regular-37" x="143.499954"/>
       <use xlink:href="#STIXGeneral-Regular-35" x="193.499939"/>
      </g>
     </g>
    </g>
    <g id="xtick_3">
     <g id="line2d_3">
      <g>
       <use xlink:href="#m55cde1b341" x="129.146429" y="265.331625" style="fill: #1f2328; stroke: #1f2328; stroke-width: 0.8"/>
      </g>
     </g>
     <g id="text_3">
      <!-- −0.50 -->
      <g style="fill: #1f2328" transform="translate(118.188929 277.978344) scale(0.09 -0.09)">
       <use xlink:href="#STIXGeneral-Regular-2212"/>
       <use xlink:href="#STIXGeneral-Regular-30" x="68.499985"/>
       <use xlink:href="#STIXGeneral-Regular-2e" x="118.499969"/>
       <use xlink:href="#STIXGeneral-Regular-35" x="143.499954"/>
       <use xlink:href="#STIXGeneral-Regular-30" x="193.499939"/>
      </g>
     </g>
    </g>
    <g id="xtick_4">
     <g id="line2d_4">
      <g>
       <use xlink:href="#m55cde1b341" x="171.660714" y="265.331625" style="fill: #1f2328; stroke: #1f2328; stroke-width: 0.8"/>
      </g>
     </g>
     <g id="text_4">
      <!-- −0.25 -->
      <g style="fill: #1f2328" transform="translate(160.703214 277.978344) scale(0.09 -0.09)">
       <defs>
        <path id="STIXGeneral-Regular-32" d="M 3034 877 
L 2688 0 
L 186 0 
L 186 77 
L 1325 1286 
Q 1773 1754 1965 2144 
Q 2157 2534 2157 2950 
Q 2157 3379 1920 3616 
Q 1683 3853 1267 3853 
Q 922 3853 720 3673 
Q 518 3494 326 3021 
L 192 3053 
Q 301 3648 630 3987 
Q 960 4326 1523 4326 
Q 2054 4326 2380 4006 
Q 2707 3686 2707 3200 
Q 2707 2477 1888 1613 
L 832 486 
L 2330 486 
Q 2541 486 2665 569 
Q 2790 653 2944 915 
L 3034 877 
z
" transform="scale(0.015625)"/>
       </defs>
       <use xlink:href="#STIXGeneral-Regular-2212"/>
       <use xlink:href="#STIXGeneral-Regular-30" x="68.499985"/>
       <use xlink:href="#STIXGeneral-Regular-2e" x="118.499969"/>
       <use xlink:href="#STIXGeneral-Regular-32" x="143.499954"/>
       <use xlink:href="#STIXGeneral-Regular-35" x="193.499939"/>
      </g>
     </g>
    </g>
    <g id="xtick_5">
     <g id="line2d_5">
      <g>
       <use xlink:href="#m55cde1b341" x="214.175" y="265.331625" style="fill: #1f2328; stroke: #1f2328; stroke-width: 0.8"/>
      </g>
     </g>
     <g id="text_5">
      <!-- 0.00 -->
      <g style="fill: #1f2328" transform="translate(206.3 277.978344) scale(0.09 -0.09)">
       <use xlink:href="#STIXGeneral-Regular-30"/>
       <use xlink:href="#STIXGeneral-Regular-2e" x="49.999985"/>
       <use xlink:href="#STIXGeneral-Regular-30" x="74.999969"/>
       <use xlink:href="#STIXGeneral-Regular-30" x="124.999954"/>
      </g>
     </g>
    </g>
    <g id="xtick_6">
     <g id="line2d_6">
      <g>
       <use xlink:href="#m55cde1b341" x="256.689286" y="265.331625" style="fill: #1f2328; stroke: #1f2328; stroke-width: 0.8"/>
      </g>
     </g>
     <g id="text_6">
      <!-- 0.25 -->
      <g style="fill: #1f2328" transform="translate(248.814286 277.978344) scale(0.09 -0.09)">
       <use xlink:href="#STIXGeneral-Regular-30"/>
       <use xlink:href="#STIXGeneral-Regular-2e" x="49.999985"/>
       <use xlink:href="#STIXGeneral-Regular-32" x="74.999969"/>
       <use xlink:href="#STIXGeneral-Regular-35" x="124.999954"/>
      </g>
     </g>
    </g>
    <g id="xtick_7">
     <g id="line2d_7">
      <g>
       <use xlink:href="#m55cde1b341" x="299.203571" y="265.331625" style="fill: #1f2328; stroke: #1f2328; stroke-width: 0.8"/>
      </g>
     </g>
     <g id="text_7">
      <!-- 0.50 -->
      <g style="fill: #1f2328" transform="translate(291.328571 277.978344) scale(0.09 -0.09)">
       <use xlink:href="#STIXGeneral-Regular-30"/>
       <use xlink:href="#STIXGeneral-Regular-2e" x="49.999985"/>
       <use xlink:href="#STIXGeneral-Regular-35" x="74.999969"/>
       <use xlink:href="#STIXGeneral-Regular-30" x="124.999954"/>
      </g>
     </g>
    </g>
    <g id="xtick_8">
     <g id="line2d_8">
      <g>
       <use xlink:href="#m55cde1b341" x="341.717857" y="265.331625" style="fill: #1f2328; stroke: #1f2328; stroke-width: 0.8"/>
      </g>
     </g>
     <g id="text_8">
      <!-- 0.75 -->
      <g style="fill: #1f2328" transform="translate(333.842857 277.978344) scale(0.09 -0.09)">
       <use xlink:href="#STIXGeneral-Regular-30"/>
       <use xlink:href="#STIXGeneral-Regular-2e" x="49.999985"/>
       <use xlink:href="#STIXGeneral-Regular-37" x="74.999969"/>
       <use xlink:href="#STIXGeneral-Regular-35" x="124.999954"/>
      </g>
     </g>
    </g>
    <g id="xtick_9">
     <g id="line2d_9">
      <g>
       <use xlink:href="#m55cde1b341" x="384.232143" y="265.331625" style="fill: #1f2328; stroke: #1f2328; stroke-width: 0.8"/>
      </g>
     </g>
     <g id="text_9">
      <!-- 1.00 -->
      <g style="fill: #1f2328" transform="translate(376.357143 277.978344) scale(0.09 -0.09)">
       <use xlink:href="#STIXGeneral-Regular-31"/>
       <use xlink:href="#STIXGeneral-Regular-2e" x="49.999985"/>
       <use xlink:href="#STIXGeneral-Regular-30" x="74.999969"/>
       <use xlink:href="#STIXGeneral-Regular-30" x="124.999954"/>
      </g>
     </g>
    </g>
    <g id="text_10">
     <!-- $x$ -->
     <g transform="translate(210.985 291.444281) scale(0.11 -0.11)">
      <defs>
       <path id="Cmmi10-78" d="M 500 184 
Q 613 97 819 97 
Q 1019 97 1172 289 
Q 1325 481 1381 709 
L 1672 1844 
Q 1741 2153 1741 2266 
Q 1741 2425 1652 2544 
Q 1563 2663 1403 2663 
Q 1200 2663 1022 2536 
Q 844 2409 722 2214 
Q 600 2019 550 1819 
Q 538 1778 500 1778 
L 422 1778 
Q 372 1778 372 1838 
L 372 1856 
Q 434 2094 584 2320 
Q 734 2547 951 2687 
Q 1169 2828 1416 2828 
Q 1650 2828 1839 2703 
Q 2028 2578 2106 2363 
Q 2216 2559 2386 2693 
Q 2556 2828 2759 2828 
Q 2897 2828 3040 2779 
Q 3184 2731 3275 2631 
Q 3366 2531 3366 2381 
Q 3366 2219 3261 2101 
Q 3156 1984 2994 1984 
Q 2891 1984 2822 2050 
Q 2753 2116 2753 2216 
Q 2753 2350 2845 2451 
Q 2938 2553 3066 2572 
Q 2950 2663 2747 2663 
Q 2541 2663 2389 2472 
Q 2238 2281 2175 2047 
L 1894 916 
Q 1825 659 1825 494 
Q 1825 331 1917 214 
Q 2009 97 2163 97 
Q 2463 97 2698 361 
Q 2934 625 3009 941 
Q 3022 978 3059 978 
L 3138 978 
Q 3163 978 3178 961 
Q 3194 944 3194 922 
Q 3194 916 3188 903 
Q 3097 522 2806 225 
Q 2516 -72 2150 -72 
Q 1916 -72 1727 54 
Q 1538 181 1459 397 
Q 1359 209 1182 68 
Q 1006 -72 806 -72 
Q 669 -72 523 -23 
Q 378 25 287 125 
Q 197 225 197 378 
Q 197 528 301 651 
Q 406 775 563 775 
Q 669 775 741 711 
Q 813 647 813 544 
Q 813 409 723 309 
Q 634 209 500 184 
z
" transform="scale(0.015625)"/>
      </defs>
      <use xlink:href="#Cmmi10-78" transform="translate(0 0.8125)"/>
     </g>
    </g>
   </g>
   <g id="matplotlib.axis_2">
    <g id="ytick_1">
     <g id="line2d_10">
      <defs>
       <path id="mc34c8ec1dc" d="M 0 0 
L -3 0 
" style="stroke: #1f2328; stroke-width: 0.8"/>
      </defs>
      <g>
       <use xlink:href="#mc34c8ec1dc" x="35.615" y="259.910825" style="fill: #1f2328; stroke: #1f2328; stroke-width: 0.8"/>
      </g>
     </g>
     <g id="text_11">
      <!-- −0.75 -->
      <g style="fill: #1f2328" transform="translate(7.2 262.984184) scale(0.09 -0.09)">
       <use xlink:href="#STIXGeneral-Regular-2212"/>
       <use xlink:href="#STIXGeneral-Regular-30" x="68.499985"/>
       <use xlink:href="#STIXGeneral-Regular-2e" x="118.499969"/>
       <use xlink:href="#STIXGeneral-Regular-37" x="143.499954"/>
       <use xlink:href="#STIXGeneral-Regular-35" x="193.499939"/>
      </g>
     </g>
    </g>
    <g id="ytick_2">
     <g id="line2d_11">
      <g>
       <use xlink:href="#mc34c8ec1dc" x="35.615" y="232.806825" style="fill: #1f2328; stroke: #1f2328; stroke-width: 0.8"/>
      </g>
     </g>
     <g id="text_12">
      <!-- −0.50 -->
      <g style="fill: #1f2328" transform="translate(7.2 235.880184) scale(0.09 -0.09)">
       <use xlink:href="#STIXGeneral-Regular-2212"/>
       <use xlink:href="#STIXGeneral-Regular-30" x="68.499985"/>
       <use xlink:href="#STIXGeneral-Regular-2e" x="118.499969"/>
       <use xlink:href="#STIXGeneral-Regular-35" x="143.499954"/>
       <use xlink:href="#STIXGeneral-Regular-30" x="193.499939"/>
      </g>
     </g>
    </g>
    <g id="ytick_3">
     <g id="line2d_12">
      <g>
       <use xlink:href="#mc34c8ec1dc" x="35.615" y="205.702825" style="fill: #1f2328; stroke: #1f2328; stroke-width: 0.8"/>
      </g>
     </g>
     <g id="text_13">
      <!-- −0.25 -->
      <g style="fill: #1f2328" transform="translate(7.2 208.776184) scale(0.09 -0.09)">
       <use xlink:href="#STIXGeneral-Regular-2212"/>
       <use xlink:href="#STIXGeneral-Regular-30" x="68.499985"/>
       <use xlink:href="#STIXGeneral-Regular-2e" x="118.499969"/>
       <use xlink:href="#STIXGeneral-Regular-32" x="143.499954"/>
       <use xlink:href="#STIXGeneral-Regular-35" x="193.499939"/>
      </g>
     </g>
    </g>
    <g id="ytick_4">
     <g id="line2d_13">
      <g>
       <use xlink:href="#mc34c8ec1dc" x="35.615" y="178.598825" style="fill: #1f2328; stroke: #1f2328; stroke-width: 0.8"/>
      </g>
     </g>
     <g id="text_14">
      <!-- 0.00 -->
      <g style="fill: #1f2328" transform="translate(13.365 181.672184) scale(0.09 -0.09)">
       <use xlink:href="#STIXGeneral-Regular-30"/>
       <use xlink:href="#STIXGeneral-Regular-2e" x="49.999985"/>
       <use xlink:href="#STIXGeneral-Regular-30" x="74.999969"/>
       <use xlink:href="#STIXGeneral-Regular-30" x="124.999954"/>
      </g>
     </g>
    </g>
    <g id="ytick_5">
     <g id="line2d_14">
      <g>
       <use xlink:href="#mc34c8ec1dc" x="35.615" y="151.494825" style="fill: #1f2328; stroke: #1f2328; stroke-width: 0.8"/>
      </g>
     </g>
     <g id="text_15">
      <!-- 0.25 -->
      <g style="fill: #1f2328" transform="translate(13.365 154.568184) scale(0.09 -0.09)">
       <use xlink:href="#STIXGeneral-Regular-30"/>
       <use xlink:href="#STIXGeneral-Regular-2e" x="49.999985"/>
       <use xlink:href="#STIXGeneral-Regular-32" x="74.999969"/>
       <use xlink:href="#STIXGeneral-Regular-35" x="124.999954"/>
      </g>
     </g>
    </g>
    <g id="ytick_6">
     <g id="line2d_15">
      <g>
       <use xlink:href="#mc34c8ec1dc" x="35.615" y="124.390825" style="fill: #1f2328; stroke: #1f2328; stroke-width: 0.8"/>
      </g>
     </g>
     <g id="text_16">
      <!-- 0.50 -->
      <g style="fill: #1f2328" transform="translate(13.365 127.464184) scale(0.09 -0.09)">
       <use xlink:href="#STIXGeneral-Regular-30"/>
       <use xlink:href="#STIXGeneral-Regular-2e" x="49.999985"/>
       <use xlink:href="#STIXGeneral-Regular-35" x="74.999969"/>
       <use xlink:href="#STIXGeneral-Regular-30" x="124.999954"/>
      </g>
     </g>
    </g>
    <g id="ytick_7">
     <g id="line2d_16">
      <g>
       <use xlink:href="#mc34c8ec1dc" x="35.615" y="97.286825" style="fill: #1f2328; stroke: #1f2328; stroke-width: 0.8"/>
      </g>
     </g>
     <g id="text_17">
      <!-- 0.75 -->
      <g style="fill: #1f2328" transform="translate(13.365 100.360184) scale(0.09 -0.09)">
       <use xlink:href="#STIXGeneral-Regular-30"/>
       <use xlink:href="#STIXGeneral-Regular-2e" x="49.999985"/>
       <use xlink:href="#STIXGeneral-Regular-37" x="74.999969"/>
       <use xlink:href="#STIXGeneral-Regular-35" x="124.999954"/>
      </g>
     </g>
    </g>
    <g id="ytick_8">
     <g id="line2d_17">
      <g>
       <use xlink:href="#mc34c8ec1dc" x="35.615" y="70.182825" style="fill: #1f2328; stroke: #1f2328; stroke-width: 0.8"/>
      </g>
     </g>
     <g id="text_18">
      <!-- 1.00 -->
      <g style="fill: #1f2328" transform="translate(13.365 73.256184) scale(0.09 -0.09)">
       <use xlink:href="#STIXGeneral-Regular-31"/>
       <use xlink:href="#STIXGeneral-Regular-2e" x="49.999985"/>
       <use xlink:href="#STIXGeneral-Regular-30" x="74.999969"/>
       <use xlink:href="#STIXGeneral-Regular-30" x="124.999954"/>
      </g>
     </g>
    </g>
    <g id="ytick_9">
     <g id="line2d_18">
      <g>
       <use xlink:href="#mc34c8ec1dc" x="35.615" y="43.078825" style="fill: #1f2328; stroke: #1f2328; stroke-width: 0.8"/>
      </g>
     </g>
     <g id="text_19">
      <!-- 1.25 -->
      <g style="fill: #1f2328" transform="translate(13.365 46.152184) scale(0.09 -0.09)">
       <use xlink:href="#STIXGeneral-Regular-31"/>
       <use xlink:href="#STIXGeneral-Regular-2e" x="49.999985"/>
       <use xlink:href="#STIXGeneral-Regular-32" x="74.999969"/>
       <use xlink:href="#STIXGeneral-Regular-35" x="124.999954"/>
      </g>
     </g>
    </g>
   </g>
   <g id="patch_3">
    <path d="M 35.615 265.331625 
L 35.615 21.395625 
" style="fill: none; stroke: #1f2328; stroke-width: 0.8; stroke-linejoin: miter; stroke-linecap: square"/>
   </g>
   <g id="patch_4">
    <path d="M 35.615 265.331625 
L 392.735 265.331625 
" style="fill: none; stroke: #1f2328; stroke-width: 0.8; stroke-linejoin: miter; stroke-linecap: square"/>
   </g>
   <g id="text_20">
    <!-- $f(x)=\dfrac{1}{1+25x^{2}}$ -->
    <g style="fill: #1f2328" transform="translate(44.117857 40.816345) scale(0.11 -0.11)">
     <defs>
      <path id="Cmmi10-66" d="M 622 -1056 
Q 741 -1147 909 -1147 
Q 1138 -1147 1281 -641 
Q 1341 -397 1606 966 
L 1900 2534 
L 1350 2534 
Q 1288 2534 1288 2619 
Q 1313 2759 1369 2759 
L 1941 2759 
L 2016 3175 
Q 2053 3369 2084 3508 
Q 2116 3647 2152 3765 
Q 2188 3884 2259 4031 
Q 2369 4241 2555 4377 
Q 2741 4513 2956 4513 
Q 3097 4513 3230 4461 
Q 3363 4409 3447 4306 
Q 3531 4203 3531 4063 
Q 3531 3900 3423 3779 
Q 3316 3659 3163 3659 
Q 3059 3659 2986 3723 
Q 2913 3788 2913 3891 
Q 2913 4031 3008 4136 
Q 3103 4241 3244 4256 
Q 3125 4347 2950 4347 
Q 2853 4347 2767 4256 
Q 2681 4166 2656 4063 
Q 2616 3900 2478 3181 
L 2400 2759 
L 3059 2759 
Q 3122 2759 3122 2675 
Q 3119 2659 3109 2620 
Q 3100 2581 3083 2557 
Q 3066 2534 3041 2534 
L 2356 2534 
L 2059 972 
Q 2003 631 1929 279 
Q 1856 -72 1723 -442 
Q 1591 -813 1384 -1063 
Q 1178 -1313 897 -1313 
Q 681 -1313 511 -1189 
Q 341 -1066 341 -863 
Q 341 -700 445 -579 
Q 550 -459 709 -459 
Q 816 -459 887 -523 
Q 959 -588 959 -691 
Q 959 -828 857 -942 
Q 756 -1056 622 -1056 
z
" transform="scale(0.015625)"/>
      <path id="Cmr10-28" d="M 1984 -1588 
Q 1628 -1306 1370 -942 
Q 1113 -578 948 -165 
Q 784 247 703 697 
Q 622 1147 622 1600 
Q 622 2059 703 2509 
Q 784 2959 951 3375 
Q 1119 3791 1378 4153 
Q 1638 4516 1984 4788 
Q 1984 4800 2016 4800 
L 2075 4800 
Q 2094 4800 2109 4783 
Q 2125 4766 2125 4744 
Q 2125 4716 2113 4703 
Q 1800 4397 1592 4047 
Q 1384 3697 1257 3301 
Q 1131 2906 1075 2482 
Q 1019 2059 1019 1600 
Q 1019 -434 2106 -1491 
Q 2125 -1509 2125 -1544 
Q 2125 -1559 2108 -1579 
Q 2091 -1600 2075 -1600 
L 2016 -1600 
Q 1984 -1600 1984 -1588 
z
" transform="scale(0.015625)"/>
      <path id="Cmr10-29" d="M 416 -1600 
Q 359 -1600 359 -1544 
Q 359 -1516 372 -1503 
Q 1466 -434 1466 1600 
Q 1466 3634 384 4691 
Q 359 4706 359 4744 
Q 359 4766 376 4783 
Q 394 4800 416 4800 
L 475 4800 
Q 494 4800 506 4788 
Q 966 4425 1272 3906 
Q 1578 3388 1720 2800 
Q 1863 2213 1863 1600 
Q 1863 1147 1786 708 
Q 1709 269 1542 -157 
Q 1375 -584 1119 -945 
Q 863 -1306 506 -1588 
Q 494 -1600 475 -1600 
L 416 -1600 
z
" transform="scale(0.015625)"/>
      <path id="Cmr10-3d" d="M 481 850 
Q 428 850 393 890 
Q 359 931 359 978 
Q 359 1031 393 1068 
Q 428 1106 481 1106 
L 4500 1106 
Q 4547 1106 4581 1068 
Q 4616 1031 4616 978 
Q 4616 931 4581 890 
Q 4547 850 4500 850 
L 481 850 
z
M 481 2094 
Q 428 2094 393 2131 
Q 359 2169 359 2222 
Q 359 2269 393 2309 
Q 428 2350 481 2350 
L 4500 2350 
Q 4547 2350 4581 2309 
Q 4616 2269 4616 2222 
Q 4616 2169 4581 2131 
Q 4547 2094 4500 2094 
L 481 2094 
z
" transform="scale(0.015625)"/>
      <path id="Cmr10-31" d="M 594 0 
L 594 225 
Q 1394 225 1394 428 
L 1394 3788 
Q 1063 3628 556 3628 
L 556 3853 
Q 1341 3853 1741 4263 
L 1831 4263 
Q 1853 4263 1873 4245 
Q 1894 4228 1894 4206 
L 1894 428 
Q 1894 225 2694 225 
L 2694 0 
L 594 0 
z
" transform="scale(0.015625)"/>
      <path id="Cmr10-2b" d="M 481 1472 
Q 428 1472 393 1512 
Q 359 1553 359 1600 
Q 359 1647 393 1687 
Q 428 1728 481 1728 
L 2363 1728 
L 2363 3616 
Q 2363 3666 2400 3698 
Q 2438 3731 2491 3731 
Q 2538 3731 2578 3698 
Q 2619 3666 2619 3616 
L 2619 1728 
L 4500 1728 
Q 4547 1728 4581 1687 
Q 4616 1647 4616 1600 
Q 4616 1553 4581 1512 
Q 4547 1472 4500 1472 
L 2619 1472 
L 2619 -416 
Q 2619 -466 2578 -498 
Q 2538 -531 2491 -531 
Q 2438 -531 2400 -498 
Q 2363 -466 2363 -416 
L 2363 1472 
L 481 1472 
z
" transform="scale(0.015625)"/>
      <path id="Cmr10-32" d="M 319 0 
L 319 172 
Q 319 188 331 206 
L 1325 1306 
Q 1550 1550 1690 1715 
Q 1831 1881 1968 2097 
Q 2106 2313 2186 2536 
Q 2266 2759 2266 3009 
Q 2266 3272 2169 3511 
Q 2072 3750 1880 3894 
Q 1688 4038 1416 4038 
Q 1138 4038 916 3870 
Q 694 3703 603 3438 
Q 628 3444 672 3444 
Q 816 3444 917 3347 
Q 1019 3250 1019 3097 
Q 1019 2950 917 2848 
Q 816 2747 672 2747 
Q 522 2747 420 2851 
Q 319 2956 319 3097 
Q 319 3338 409 3548 
Q 500 3759 670 3923 
Q 841 4088 1055 4175 
Q 1269 4263 1509 4263 
Q 1875 4263 2190 4108 
Q 2506 3953 2690 3670 
Q 2875 3388 2875 3009 
Q 2875 2731 2753 2481 
Q 2631 2231 2440 2026 
Q 2250 1822 1953 1562 
Q 1656 1303 1563 1216 
L 838 519 
L 1453 519 
Q 1906 519 2211 526 
Q 2516 534 2534 550 
Q 2609 631 2688 1141 
L 2875 1141 
L 2694 0 
L 319 0 
z
" transform="scale(0.015625)"/>
      <path id="Cmr10-35" d="M 556 728 
Q 622 541 758 387 
Q 894 234 1080 148 
Q 1266 63 1466 63 
Q 1928 63 2103 422 
Q 2278 781 2278 1294 
Q 2278 1516 2270 1667 
Q 2263 1819 2228 1959 
Q 2169 2184 2020 2353 
Q 1872 2522 1656 2522 
Q 1441 2522 1286 2456 
Q 1131 2391 1034 2303 
Q 938 2216 863 2119 
Q 788 2022 769 2016 
L 697 2016 
Q 681 2016 657 2036 
Q 634 2056 634 2075 
L 634 4213 
Q 634 4228 654 4245 
Q 675 4263 697 4263 
L 716 4263 
Q 1147 4056 1631 4056 
Q 2106 4056 2547 4263 
L 2566 4263 
Q 2588 4263 2606 4247 
Q 2625 4231 2625 4213 
L 2625 4153 
Q 2625 4122 2613 4122 
Q 2394 3831 2064 3668 
Q 1734 3506 1381 3506 
Q 1125 3506 856 3578 
L 856 2369 
Q 1069 2541 1236 2614 
Q 1403 2688 1663 2688 
Q 2016 2688 2295 2484 
Q 2575 2281 2725 1954 
Q 2875 1628 2875 1288 
Q 2875 903 2686 575 
Q 2497 247 2172 53 
Q 1847 -141 1466 -141 
Q 1150 -141 886 21 
Q 622 184 470 459 
Q 319 734 319 1044 
Q 319 1188 412 1278 
Q 506 1369 647 1369 
Q 788 1369 883 1276 
Q 978 1184 978 1044 
Q 978 906 883 811 
Q 788 716 647 716 
Q 625 716 597 720 
Q 569 725 556 728 
z
" transform="scale(0.015625)"/>
     </defs>
     <use xlink:href="#Cmmi10-66" transform="translate(0 0.890625)"/>
     <use xlink:href="#Cmr10-28" transform="translate(48.876953 0.890625)"/>
     <use xlink:href="#Cmmi10-78" transform="translate(87.695312 0.890625)"/>
     <use xlink:href="#Cmr10-29" transform="translate(144.775391 0.890625)"/>
     <use xlink:href="#Cmr10-3d" transform="translate(201.152344 0.890625)"/>
     <use xlink:href="#Cmr10-31" transform="translate(455.396484 38.390625)"/>
     <use xlink:href="#Cmr10-31" transform="translate(296.396484 -77.75)"/>
     <use xlink:href="#Cmr10-2b" transform="translate(363.955078 -77.75)"/>
     <use xlink:href="#Cmr10-32" transform="translate(459.199219 -77.75)"/>
     <use xlink:href="#Cmr10-35" transform="translate(509.199219 -77.75)"/>
     <use xlink:href="#Cmmi10-78" transform="translate(559.199219 -77.75)"/>
     <use xlink:href="#Cmr10-32" transform="translate(622.582578 -39.485938) scale(0.7)"/>
     <path d="M 296.396484 13.390625 
L 296.396484 19.640625 
L 663.959922 19.640625 
L 663.959922 13.390625 
L 296.396484 13.390625 
z
"/>
    </g>
   </g>
   <g id="text_21">
    <!-- degree $10$ (equispaced) -->
    <g style="fill: #d55e00" transform="translate(241.384143 39.890525) scale(0.095 -0.095)">
     <defs>
      <path id="STIXGeneral-Regular-64" d="M 3142 269 
L 2202 -64 
L 2176 -45 
L 2176 365 
Q 1869 -64 1357 -64 
Q 826 -64 499 317 
Q 173 698 173 1312 
Q 173 1990 563 2467 
Q 954 2944 1504 2944 
Q 1850 2944 2176 2669 
L 2176 3667 
Q 2176 3866 2118 3930 
Q 2061 3994 1882 3994 
Q 1792 3994 1741 3987 
L 1741 4090 
Q 2323 4243 2682 4371 
L 2714 4358 
L 2714 730 
Q 2714 506 2768 435 
Q 2822 365 2995 365 
Q 3034 365 3142 371 
L 3142 269 
z
M 2176 653 
L 2176 2125 
Q 2176 2381 1981 2573 
Q 1786 2765 1523 2765 
Q 1158 2765 940 2438 
Q 723 2112 723 1568 
Q 723 979 963 624 
Q 1203 269 1606 269 
Q 1907 269 2080 474 
Q 2176 582 2176 653 
z
" transform="scale(0.015625)"/>
      <path id="STIXGeneral-Regular-65" d="M 2611 1050 
L 2714 1005 
Q 2330 -64 1376 -64 
Q 813 -64 486 329 
Q 160 723 160 1389 
Q 160 2074 525 2509 
Q 890 2944 1485 2944 
Q 2061 2944 2374 2502 
Q 2560 2246 2592 1773 
L 621 1773 
Q 646 1370 700 1158 
Q 755 947 915 730 
Q 1184 378 1626 378 
Q 1939 378 2153 531 
Q 2368 685 2611 1050 
z
M 634 1978 
L 1939 1978 
Q 1882 2381 1750 2547 
Q 1619 2714 1312 2714 
Q 1043 2714 864 2525 
Q 685 2336 634 1978 
z
" transform="scale(0.015625)"/>
      <path id="STIXGeneral-Regular-67" d="M 3008 2483 
L 2477 2483 
Q 2598 2208 2598 1946 
Q 2598 1453 2265 1203 
Q 1933 954 1600 954 
Q 1530 954 1357 973 
L 1235 986 
Q 1107 947 979 812 
Q 851 678 851 582 
Q 851 435 1350 410 
L 2176 371 
Q 2528 358 2739 172 
Q 2950 -13 2950 -314 
Q 2950 -685 2566 -986 
Q 2035 -1395 1286 -1395 
Q 826 -1395 502 -1212 
Q 179 -1030 179 -774 
Q 179 -595 320 -419 
Q 461 -243 806 6 
Q 602 102 534 172 
Q 467 243 467 346 
Q 467 531 762 787 
Q 909 915 1037 1043 
Q 717 1203 579 1401 
Q 442 1600 442 1901 
Q 442 2336 752 2640 
Q 1062 2944 1510 2944 
Q 1766 2944 2022 2848 
L 2163 2797 
Q 2349 2733 2515 2733 
L 3008 2733 
L 3008 2483 
z
M 973 2163 
L 973 2144 
Q 973 1683 1155 1398 
Q 1338 1114 1632 1114 
Q 1850 1114 1978 1270 
Q 2106 1427 2106 1690 
Q 2106 2112 1914 2464 
Q 1754 2765 1446 2765 
Q 1222 2765 1097 2605 
Q 973 2445 973 2163 
z
M 2771 -410 
Q 2771 -230 2595 -163 
Q 2419 -96 1978 -96 
Q 1344 -96 941 -13 
Q 749 -243 688 -348 
Q 627 -454 627 -563 
Q 627 -774 880 -902 
Q 1133 -1030 1555 -1030 
Q 2099 -1030 2435 -860 
Q 2771 -691 2771 -410 
z
" transform="scale(0.015625)"/>
      <path id="STIXGeneral-Regular-72" d="M 1024 2931 
L 1024 2342 
Q 1267 2688 1430 2816 
Q 1594 2944 1792 2944 
Q 1958 2944 2051 2854 
Q 2144 2765 2144 2605 
Q 2144 2470 2077 2393 
Q 2010 2317 1894 2317 
Q 1773 2317 1638 2445 
Q 1536 2541 1472 2541 
Q 1338 2541 1181 2355 
Q 1024 2170 1024 2016 
L 1024 576 
Q 1024 301 1133 205 
Q 1242 109 1568 96 
L 1568 0 
L 32 0 
L 32 96 
Q 339 154 412 224 
Q 486 294 486 538 
L 486 2138 
Q 486 2349 438 2435 
Q 390 2522 269 2522 
Q 166 2522 45 2496 
L 45 2598 
Q 448 2726 992 2944 
L 1024 2931 
z
" transform="scale(0.015625)"/>
      <path id="STIXGeneral-Regular-20" transform="scale(0.015625)"/>
      <path id="Cmr10-30" d="M 1600 -141 
Q 816 -141 533 504 
Q 250 1150 250 2041 
Q 250 2597 351 3087 
Q 453 3578 754 3920 
Q 1056 4263 1600 4263 
Q 2022 4263 2290 4056 
Q 2559 3850 2700 3523 
Q 2841 3197 2892 2823 
Q 2944 2450 2944 2041 
Q 2944 1491 2842 1011 
Q 2741 531 2444 195 
Q 2147 -141 1600 -141 
z
M 1600 25 
Q 1956 25 2131 390 
Q 2306 756 2347 1200 
Q 2388 1644 2388 2144 
Q 2388 2625 2347 3031 
Q 2306 3438 2132 3767 
Q 1959 4097 1600 4097 
Q 1238 4097 1063 3765 
Q 888 3434 847 3029 
Q 806 2625 806 2144 
Q 806 1788 823 1472 
Q 841 1156 916 820 
Q 991 484 1158 254 
Q 1325 25 1600 25 
z
" transform="scale(0.015625)"/>
      <path id="STIXGeneral-Regular-28" d="M 1946 -1030 
L 1869 -1133 
Q 1126 -710 716 32 
Q 307 774 307 1613 
Q 307 3386 1888 4326 
L 1946 4224 
Q 1293 3667 1075 3126 
Q 858 2586 858 1632 
Q 858 685 1082 96 
Q 1306 -493 1946 -1030 
z
" transform="scale(0.015625)"/>
      <path id="STIXGeneral-Regular-71" d="M 3123 -1389 
L 1613 -1389 
L 1613 -1280 
Q 1952 -1254 2067 -1158 
Q 2182 -1062 2182 -794 
L 2182 410 
Q 1747 -64 1178 -64 
Q 730 -64 442 320 
Q 154 704 154 1312 
Q 154 2003 560 2473 
Q 966 2944 1562 2944 
Q 1920 2944 2304 2720 
L 2650 2925 
L 2720 2925 
L 2720 -902 
Q 2720 -1107 2797 -1180 
Q 2874 -1254 3123 -1280 
L 3123 -1389 
z
M 2182 813 
L 2182 2131 
Q 2182 2758 1587 2758 
Q 1178 2758 941 2432 
Q 704 2106 704 1542 
Q 704 1210 803 925 
Q 902 640 1062 499 
Q 1254 326 1542 326 
Q 1882 326 2106 531 
Q 2182 602 2182 813 
z
" transform="scale(0.015625)"/>
      <path id="STIXGeneral-Regular-75" d="M 3072 320 
L 3072 230 
Q 2573 96 2195 -58 
L 2163 -38 
L 2163 486 
L 2150 486 
Q 1747 -64 1235 -64 
Q 870 -64 662 160 
Q 454 384 454 755 
L 454 2362 
Q 454 2598 371 2688 
Q 288 2778 58 2790 
L 58 2880 
L 992 2880 
L 992 813 
Q 992 595 1123 451 
Q 1254 307 1446 307 
Q 1760 307 1984 506 
Q 2067 582 2099 649 
Q 2131 717 2131 877 
L 2131 2355 
Q 2131 2605 2041 2678 
Q 1952 2752 1658 2771 
L 1658 2880 
L 2669 2880 
L 2669 685 
Q 2669 461 2742 390 
Q 2816 320 3034 320 
L 3072 320 
z
" transform="scale(0.015625)"/>
      <path id="STIXGeneral-Regular-69" d="M 1152 4045 
Q 1152 3904 1056 3811 
Q 960 3718 819 3718 
Q 685 3718 592 3811 
Q 499 3904 499 4045 
Q 499 4179 595 4275 
Q 691 4371 826 4371 
Q 966 4371 1059 4275 
Q 1152 4179 1152 4045 
z
M 1619 0 
L 102 0 
L 102 96 
Q 435 115 521 211 
Q 608 307 608 666 
L 608 2118 
Q 608 2342 563 2432 
Q 518 2522 397 2522 
Q 243 2522 128 2490 
L 128 2592 
L 1120 2944 
L 1146 2918 
L 1146 672 
Q 1146 314 1226 218 
Q 1306 122 1619 96 
L 1619 0 
z
" transform="scale(0.015625)"/>
      <path id="STIXGeneral-Regular-73" d="M 998 1926 
L 1664 1523 
Q 1984 1331 2105 1164 
Q 2227 998 2227 736 
Q 2227 416 1961 176 
Q 1696 -64 1331 -64 
Q 1030 -64 864 -6 
Q 691 51 570 51 
Q 461 51 416 -26 
L 333 -26 
L 333 979 
L 435 979 
Q 538 512 730 294 
Q 922 77 1248 77 
Q 1485 77 1632 211 
Q 1779 346 1779 550 
Q 1779 845 1440 1030 
L 1094 1222 
Q 326 1651 326 2150 
Q 326 2522 566 2730 
Q 806 2938 1210 2938 
Q 1491 2938 1638 2867 
Q 1754 2816 1818 2816 
Q 1862 2816 1920 2880 
L 1990 2880 
L 2022 2010 
L 1926 2010 
Q 1818 2445 1654 2621 
Q 1491 2797 1203 2797 
Q 986 2797 854 2688 
Q 723 2579 723 2362 
Q 723 2253 796 2128 
Q 870 2003 998 1926 
z
" transform="scale(0.015625)"/>
      <path id="STIXGeneral-Regular-70" d="M 1018 2931 
L 1018 2438 
Q 1421 2944 1939 2944 
Q 2406 2944 2707 2560 
Q 3008 2176 3008 1581 
Q 3008 883 2621 409 
Q 2234 -64 1664 -64 
Q 1466 -64 1328 -6 
Q 1190 51 1018 211 
L 1018 -794 
Q 1018 -1094 1120 -1180 
Q 1222 -1267 1581 -1274 
L 1581 -1389 
L 32 -1389 
L 32 -1280 
Q 314 -1254 397 -1171 
Q 480 -1088 480 -838 
L 480 2157 
Q 480 2381 429 2451 
Q 378 2522 218 2522 
Q 115 2522 58 2515 
L 58 2618 
Q 506 2752 979 2944 
L 1018 2931 
z
M 1018 2138 
L 1018 563 
Q 1018 422 1238 281 
Q 1459 141 1683 141 
Q 2029 141 2243 467 
Q 2458 794 2458 1325 
Q 2458 1888 2243 2224 
Q 2029 2560 1670 2560 
Q 1446 2560 1232 2419 
Q 1018 2278 1018 2138 
z
" transform="scale(0.015625)"/>
      <path id="STIXGeneral-Regular-61" d="M 2829 422 
L 2829 243 
Q 2586 -64 2253 -64 
Q 1888 -64 1843 403 
L 1837 403 
Q 1427 -64 909 -64 
Q 608 -64 422 112 
Q 237 288 237 602 
Q 237 1050 685 1350 
Q 992 1555 1837 1869 
L 1837 2214 
Q 1837 2502 1699 2646 
Q 1562 2790 1338 2790 
Q 1146 2790 1018 2697 
Q 890 2605 890 2477 
Q 890 2419 909 2348 
Q 928 2278 928 2208 
Q 928 2112 841 2029 
Q 755 1946 634 1946 
Q 525 1946 441 2029 
Q 358 2112 358 2240 
Q 358 2547 685 2752 
Q 986 2944 1421 2944 
Q 1939 2944 2176 2656 
Q 2291 2522 2323 2384 
Q 2355 2246 2355 1946 
L 2355 723 
Q 2355 301 2554 301 
Q 2682 301 2829 422 
z
M 1837 813 
L 1837 1715 
Q 1248 1510 1018 1293 
Q 800 1094 800 800 
Q 800 557 921 432 
Q 1043 307 1242 307 
Q 1453 307 1613 410 
Q 1747 506 1792 589 
Q 1837 672 1837 813 
z
" transform="scale(0.015625)"/>
      <path id="STIXGeneral-Regular-63" d="M 2547 998 
L 2637 941 
Q 2362 403 2112 205 
Q 1786 -64 1376 -64 
Q 845 -64 502 336 
Q 160 736 160 1357 
Q 160 2170 698 2618 
Q 1094 2944 1562 2944 
Q 1965 2944 2256 2749 
Q 2547 2554 2547 2285 
Q 2547 2176 2457 2096 
Q 2368 2016 2246 2016 
Q 2022 2016 1939 2310 
L 1901 2451 
Q 1850 2630 1773 2694 
Q 1696 2758 1523 2758 
Q 1133 2758 893 2451 
Q 653 2144 653 1645 
Q 653 1094 928 745 
Q 1203 397 1645 397 
Q 1920 397 2118 528 
Q 2317 659 2547 998 
z
" transform="scale(0.015625)"/>
      <path id="STIXGeneral-Regular-29" d="M 186 4224 
L 262 4326 
Q 992 3891 1408 3148 
Q 1824 2406 1824 1581 
Q 1824 -166 243 -1133 
L 186 -1030 
Q 845 -486 1059 54 
Q 1274 595 1274 1562 
Q 1274 2534 1059 3120 
Q 845 3706 186 4224 
z
" transform="scale(0.015625)"/>
     </defs>
     <use xlink:href="#STIXGeneral-Regular-64" transform="translate(0 0.703125)"/>
     <use xlink:href="#STIXGeneral-Regular-65" transform="translate(49.999985 0.703125)"/>
     <use xlink:href="#STIXGeneral-Regular-67" transform="translate(94.399979 0.703125)"/>
     <use xlink:href="#STIXGeneral-Regular-72" transform="translate(144.399963 0.703125)"/>
     <use xlink:href="#STIXGeneral-Regular-65" transform="translate(177.699951 0.703125)"/>
     <use xlink:href="#STIXGeneral-Regular-65" transform="translate(222.099945 0.703125)"/>
     <use xlink:href="#STIXGeneral-Regular-20" transform="translate(266.499939 0.703125)"/>
     <use xlink:href="#Cmr10-31" transform="translate(291.499924 0.703125)"/>
     <use xlink:href="#Cmr10-30" transform="translate(341.499924 0.703125)"/>
     <use xlink:href="#STIXGeneral-Regular-20" transform="translate(391.499924 0.703125)"/>
     <use xlink:href="#STIXGeneral-Regular-28" transform="translate(416.499908 0.703125)"/>
     <use xlink:href="#STIXGeneral-Regular-65" transform="translate(449.799896 0.703125)"/>
     <use xlink:href="#STIXGeneral-Regular-71" transform="translate(494.19989 0.703125)"/>
     <use xlink:href="#STIXGeneral-Regular-75" transform="translate(544.199875 0.703125)"/>
     <use xlink:href="#STIXGeneral-Regular-69" transform="translate(594.19986 0.703125)"/>
     <use xlink:href="#STIXGeneral-Regular-73" transform="translate(621.999847 0.703125)"/>
     <use xlink:href="#STIXGeneral-Regular-70" transform="translate(660.899841 0.703125)"/>
     <use xlink:href="#STIXGeneral-Regular-61" transform="translate(710.899826 0.703125)"/>
     <use xlink:href="#STIXGeneral-Regular-63" transform="translate(755.29982 0.703125)"/>
     <use xlink:href="#STIXGeneral-Regular-65" transform="translate(799.699814 0.703125)"/>
     <use xlink:href="#STIXGeneral-Regular-64" transform="translate(844.099808 0.703125)"/>
     <use xlink:href="#STIXGeneral-Regular-29" transform="translate(894.099792 0.703125)"/>
    </g>
   </g>
   <g id="text_22">
    <!-- degree $6$ -->
    <g style="fill: #56b4e9" transform="translate(285.599 124.455005) scale(0.095 -0.095)">
     <defs>
      <path id="Cmr10-36" d="M 1600 -141 
Q 1203 -141 937 70 
Q 672 281 526 617 
Q 381 953 325 1322 
Q 269 1691 269 2069 
Q 269 2575 466 3084 
Q 663 3594 1045 3928 
Q 1428 4263 1953 4263 
Q 2172 4263 2361 4180 
Q 2550 4097 2658 3936 
Q 2766 3775 2766 3547 
Q 2766 3416 2677 3327 
Q 2588 3238 2456 3238 
Q 2331 3238 2240 3328 
Q 2150 3419 2150 3547 
Q 2150 3672 2240 3762 
Q 2331 3853 2456 3853 
L 2491 3853 
Q 2409 3969 2261 4023 
Q 2113 4078 1953 4078 
Q 1759 4078 1595 3993 
Q 1431 3909 1300 3765 
Q 1169 3622 1081 3448 
Q 994 3275 945 3053 
Q 897 2831 884 2637 
Q 872 2444 872 2150 
Q 984 2413 1190 2580 
Q 1397 2747 1656 2747 
Q 1941 2747 2175 2631 
Q 2409 2516 2578 2311 
Q 2747 2106 2836 1843 
Q 2925 1581 2925 1313 
Q 2925 938 2758 598 
Q 2591 259 2287 59 
Q 1984 -141 1600 -141 
z
M 1600 63 
Q 1847 63 1997 175 
Q 2147 288 2217 473 
Q 2288 659 2305 848 
Q 2322 1038 2322 1313 
Q 2322 1675 2287 1931 
Q 2253 2188 2100 2383 
Q 1947 2578 1631 2578 
Q 1372 2578 1205 2403 
Q 1038 2228 961 1961 
Q 884 1694 884 1447 
Q 884 1363 891 1319 
Q 891 1309 889 1303 
Q 888 1297 884 1288 
Q 884 1013 940 731 
Q 997 450 1156 256 
Q 1316 63 1600 63 
z
" transform="scale(0.015625)"/>
     </defs>
     <use xlink:href="#STIXGeneral-Regular-64" transform="translate(0 0.703125)"/>
     <use xlink:href="#STIXGeneral-Regular-65" transform="translate(49.999985 0.703125)"/>
     <use xlink:href="#STIXGeneral-Regular-67" transform="translate(94.399979 0.703125)"/>
     <use xlink:href="#STIXGeneral-Regular-72" transform="translate(144.399963 0.703125)"/>
     <use xlink:href="#STIXGeneral-Regular-65" transform="translate(177.699951 0.703125)"/>
     <use xlink:href="#STIXGeneral-Regular-65" transform="translate(222.099945 0.703125)"/>
     <use xlink:href="#STIXGeneral-Regular-20" transform="translate(266.499939 0.703125)"/>
     <use xlink:href="#Cmr10-36" transform="translate(291.499924 0.703125)"/>
    </g>
   </g>
   <g id="text_23">
    <!-- Runge phenomenon: equispaced interpolation need not converge -->
    <g transform="translate(58.53125 15.395625) scale(0.12 -0.12)">
     <defs>
      <path id="STIXGeneral-Regular-52" d="M 4224 0 
L 3187 0 
L 1664 1971 
L 1306 1958 
L 1306 717 
Q 1306 352 1405 249 
Q 1504 147 1875 122 
L 1875 0 
L 109 0 
L 109 122 
Q 474 154 563 262 
Q 653 371 653 794 
L 653 3526 
Q 653 3885 563 3987 
Q 474 4090 109 4115 
L 109 4237 
L 1850 4237 
Q 2726 4237 3187 3859 
Q 3501 3603 3501 3091 
Q 3501 2221 2342 2042 
L 3622 422 
Q 3757 256 3878 198 
Q 4000 141 4224 122 
L 4224 0 
z
M 1306 3731 
L 1306 2195 
Q 1766 2202 1990 2246 
Q 2214 2291 2438 2413 
Q 2803 2618 2803 3142 
Q 2803 4000 1632 4000 
Q 1459 4000 1382 3945 
Q 1306 3891 1306 3731 
z
" transform="scale(0.015625)"/>
      <path id="STIXGeneral-Regular-6e" d="M 3104 0 
L 1773 0 
L 1779 96 
Q 2016 115 2096 233 
Q 2176 352 2176 672 
L 2176 1946 
Q 2176 2592 1709 2592 
Q 1549 2592 1408 2515 
Q 1267 2438 1050 2227 
L 1050 461 
Q 1050 269 1136 192 
Q 1222 115 1466 96 
L 1466 0 
L 115 0 
L 115 96 
Q 358 115 435 214 
Q 512 314 512 602 
L 512 2157 
Q 512 2394 467 2483 
Q 422 2573 288 2573 
Q 160 2573 102 2547 
L 102 2656 
Q 550 2784 979 2944 
L 1030 2925 
L 1030 2426 
L 1037 2426 
Q 1491 2944 1958 2944 
Q 2323 2944 2518 2688 
Q 2714 2432 2714 1958 
L 2714 544 
Q 2714 288 2790 205 
Q 2867 122 3104 96 
L 3104 0 
z
" transform="scale(0.015625)"/>
      <path id="STIXGeneral-Regular-68" d="M 3117 0 
L 1760 0 
L 1760 96 
Q 2042 128 2118 224 
Q 2195 320 2195 653 
L 2195 1920 
Q 2195 2598 1722 2598 
Q 1530 2598 1370 2508 
Q 1210 2419 1005 2195 
L 1005 653 
Q 1005 320 1081 224 
Q 1158 128 1440 96 
L 1440 0 
L 58 0 
L 58 96 
Q 333 134 400 224 
Q 467 314 467 653 
L 467 3667 
Q 467 3872 406 3933 
Q 346 3994 141 3994 
Q 83 3994 64 3987 
L 64 4090 
L 237 4141 
Q 730 4288 973 4371 
L 1005 4352 
L 1005 2406 
Q 1229 2694 1446 2819 
Q 1664 2944 1946 2944 
Q 2733 2944 2733 1926 
L 2733 653 
Q 2733 320 2793 233 
Q 2854 147 3117 96 
L 3117 0 
z
" transform="scale(0.015625)"/>
      <path id="STIXGeneral-Regular-6f" d="M 3008 1478 
Q 3008 806 2608 371 
Q 2208 -64 1568 -64 
Q 979 -64 582 368 
Q 186 800 186 1459 
Q 186 2125 582 2534 
Q 979 2944 1626 2944 
Q 2221 2944 2614 2537 
Q 3008 2131 3008 1478 
z
M 2432 1306 
Q 2432 2035 2112 2445 
Q 1856 2765 1504 2765 
Q 1171 2765 966 2493 
Q 762 2221 762 1747 
Q 762 928 1101 435 
Q 1318 115 1677 115 
Q 2029 115 2230 432 
Q 2432 749 2432 1306 
z
" transform="scale(0.015625)"/>
      <path id="STIXGeneral-Regular-6d" d="M 4960 0 
L 3565 0 
L 3565 96 
Q 3834 122 3907 208 
Q 3981 294 3981 576 
L 3981 1894 
Q 3981 2278 3869 2444 
Q 3757 2611 3488 2611 
Q 3264 2611 3107 2521 
Q 2950 2432 2803 2221 
L 2803 608 
Q 2803 301 2896 201 
Q 2989 102 3264 96 
L 3264 0 
L 1830 0 
L 1830 96 
Q 2112 115 2189 188 
Q 2266 262 2266 550 
L 2266 1901 
Q 2266 2611 1850 2611 
Q 1670 2611 1468 2531 
Q 1267 2451 1171 2336 
Q 1088 2240 1088 2227 
L 1088 448 
Q 1088 243 1177 176 
Q 1267 109 1523 96 
L 1523 0 
L 102 0 
L 102 96 
Q 371 102 460 195 
Q 550 288 550 563 
L 550 2150 
Q 550 2387 499 2480 
Q 448 2573 326 2573 
Q 230 2573 122 2547 
L 122 2656 
Q 557 2778 1011 2944 
L 1062 2925 
L 1062 2451 
L 1075 2451 
Q 1363 2752 1584 2848 
Q 1805 2944 2054 2944 
Q 2560 2944 2733 2406 
Q 3232 2944 3776 2944 
Q 4518 2944 4518 1792 
L 4518 493 
Q 4518 282 4582 202 
Q 4646 122 4794 109 
L 4960 96 
L 4960 0 
z
" transform="scale(0.015625)"/>
      <path id="STIXGeneral-Regular-3a" d="M 1123 2832 
Q 1229 2726 1229 2579 
Q 1229 2432 1126 2329 
Q 1024 2227 877 2227 
Q 730 2227 624 2332 
Q 518 2438 518 2579 
Q 518 2733 620 2835 
Q 723 2938 877 2938 
Q 1018 2938 1123 2832 
z
M 1229 282 
Q 1229 141 1126 35 
Q 1024 -70 877 -70 
Q 730 -70 624 35 
Q 518 141 518 282 
Q 518 435 620 537 
Q 723 640 877 640 
Q 1018 640 1123 534 
Q 1229 429 1229 282 
z
" transform="scale(0.015625)"/>
      <path id="STIXGeneral-Regular-74" d="M 1702 493 
L 1786 422 
Q 1478 -64 1011 -64 
Q 448 -64 448 749 
L 448 2675 
L 109 2675 
Q 83 2694 83 2720 
Q 83 2771 192 2842 
Q 435 2982 813 3526 
Q 826 3546 874 3606 
Q 922 3667 941 3706 
Q 986 3706 986 3622 
L 986 2880 
L 1632 2880 
L 1632 2675 
L 986 2675 
L 986 845 
Q 986 538 1062 403 
Q 1139 269 1318 269 
Q 1510 269 1702 493 
z
" transform="scale(0.015625)"/>
      <path id="STIXGeneral-Regular-6c" d="M 1645 0 
L 134 0 
L 134 96 
Q 435 122 531 221 
Q 627 320 627 589 
L 627 3590 
Q 627 3821 569 3910 
Q 512 4000 358 4000 
Q 224 4000 122 3987 
L 122 4090 
Q 730 4237 1133 4371 
L 1165 4346 
L 1165 557 
Q 1165 288 1254 201 
Q 1344 115 1645 96 
L 1645 0 
z
" transform="scale(0.015625)"/>
      <path id="STIXGeneral-Regular-76" d="M 3053 2880 
L 3053 2784 
Q 2906 2771 2835 2688 
Q 2765 2605 2637 2285 
L 1818 230 
Q 1690 -90 1638 -90 
Q 1587 -90 1523 77 
Q 1510 96 1497 141 
Q 1485 186 1472 211 
L 704 2048 
Q 499 2534 403 2652 
Q 307 2771 122 2784 
L 122 2880 
L 1376 2880 
L 1376 2784 
Q 1210 2771 1146 2732 
Q 1082 2694 1082 2611 
Q 1082 2509 1139 2368 
L 1792 730 
L 2426 2387 
Q 2464 2483 2464 2579 
Q 2464 2758 2163 2784 
L 2163 2880 
L 3053 2880 
z
" transform="scale(0.015625)"/>
     </defs>
     <use xlink:href="#STIXGeneral-Regular-52"/>
     <use xlink:href="#STIXGeneral-Regular-75" x="66.699997"/>
     <use xlink:href="#STIXGeneral-Regular-6e" x="116.699982"/>
     <use xlink:href="#STIXGeneral-Regular-67" x="166.699966"/>
     <use xlink:href="#STIXGeneral-Regular-65" x="216.699951"/>
     <use xlink:href="#STIXGeneral-Regular-20" x="261.099945"/>
     <use xlink:href="#STIXGeneral-Regular-70" x="286.09993"/>
     <use xlink:href="#STIXGeneral-Regular-68" x="336.099915"/>
     <use xlink:href="#STIXGeneral-Regular-65" x="386.099899"/>
     <use xlink:href="#STIXGeneral-Regular-6e" x="430.499893"/>
     <use xlink:href="#STIXGeneral-Regular-6f" x="480.499878"/>
     <use xlink:href="#STIXGeneral-Regular-6d" x="530.499863"/>
     <use xlink:href="#STIXGeneral-Regular-65" x="608.29985"/>
     <use xlink:href="#STIXGeneral-Regular-6e" x="652.699844"/>
     <use xlink:href="#STIXGeneral-Regular-6f" x="702.699829"/>
     <use xlink:href="#STIXGeneral-Regular-6e" x="752.699814"/>
     <use xlink:href="#STIXGeneral-Regular-3a" x="802.699799"/>
     <use xlink:href="#STIXGeneral-Regular-20" x="830.499786"/>
     <use xlink:href="#STIXGeneral-Regular-65" x="855.499771"/>
     <use xlink:href="#STIXGeneral-Regular-71" x="899.899765"/>
     <use xlink:href="#STIXGeneral-Regular-75" x="949.89975"/>
     <use xlink:href="#STIXGeneral-Regular-69" x="999.899734"/>
     <use xlink:href="#STIXGeneral-Regular-73" x="1027.699722"/>
     <use xlink:href="#STIXGeneral-Regular-70" x="1066.599716"/>
     <use xlink:href="#STIXGeneral-Regular-61" x="1116.599701"/>
     <use xlink:href="#STIXGeneral-Regular-63" x="1160.999695"/>
     <use xlink:href="#STIXGeneral-Regular-65" x="1205.399689"/>
     <use xlink:href="#STIXGeneral-Regular-64" x="1249.799683"/>
     <use xlink:href="#STIXGeneral-Regular-20" x="1299.799667"/>
     <use xlink:href="#STIXGeneral-Regular-69" x="1324.799652"/>
     <use xlink:href="#STIXGeneral-Regular-6e" x="1352.59964"/>
     <use xlink:href="#STIXGeneral-Regular-74" x="1402.599625"/>
     <use xlink:href="#STIXGeneral-Regular-65" x="1430.399612"/>
     <use xlink:href="#STIXGeneral-Regular-72" x="1474.799606"/>
     <use xlink:href="#STIXGeneral-Regular-70" x="1508.099594"/>
     <use xlink:href="#STIXGeneral-Regular-6f" x="1558.099579"/>
     <use xlink:href="#STIXGeneral-Regular-6c" x="1608.099564"/>
     <use xlink:href="#STIXGeneral-Regular-61" x="1635.899551"/>
     <use xlink:href="#STIXGeneral-Regular-74" x="1680.299545"/>
     <use xlink:href="#STIXGeneral-Regular-69" x="1708.099533"/>
     <use xlink:href="#STIXGeneral-Regular-6f" x="1735.899521"/>
     <use xlink:href="#STIXGeneral-Regular-6e" x="1785.899506"/>
     <use xlink:href="#STIXGeneral-Regular-20" x="1835.89949"/>
     <use xlink:href="#STIXGeneral-Regular-6e" x="1860.899475"/>
     <use xlink:href="#STIXGeneral-Regular-65" x="1910.89946"/>
     <use xlink:href="#STIXGeneral-Regular-65" x="1955.299454"/>
     <use xlink:href="#STIXGeneral-Regular-64" x="1999.699448"/>
     <use xlink:href="#STIXGeneral-Regular-20" x="2049.699432"/>
     <use xlink:href="#STIXGeneral-Regular-6e" x="2074.699417"/>
     <use xlink:href="#STIXGeneral-Regular-6f" x="2124.699402"/>
     <use xlink:href="#STIXGeneral-Regular-74" x="2174.699387"/>
     <use xlink:href="#STIXGeneral-Regular-20" x="2202.499374"/>
     <use xlink:href="#STIXGeneral-Regular-63" x="2227.499359"/>
     <use xlink:href="#STIXGeneral-Regular-6f" x="2271.899353"/>
     <use xlink:href="#STIXGeneral-Regular-6e" x="2321.899338"/>
     <use xlink:href="#STIXGeneral-Regular-76" x="2371.899323"/>
     <use xlink:href="#STIXGeneral-Regular-65" x="2421.899307"/>
     <use xlink:href="#STIXGeneral-Regular-72" x="2466.299301"/>
     <use xlink:href="#STIXGeneral-Regular-67" x="2499.599289"/>
     <use xlink:href="#STIXGeneral-Regular-65" x="2549.599274"/>
    </g>
   </g>
   <g id="line2d_19">
    <path d="M 44.117857 174.428979 
L 45.820557 161.659104 
L 47.523257 150.515463 
L 49.225957 140.888044 
L 50.928656 132.671235 
L 52.631356 125.763723 
L 53.908381 121.383741 
L 55.185406 117.646078 
L 56.462431 114.512557 
L 57.739456 111.946254 
L 59.01648 109.911472 
L 60.293505 108.373721 
L 61.57053 107.299695 
L 62.42188 106.825382 
L 63.27323 106.533616 
L 64.12458 106.415379 
L 64.97593 106.461868 
L 66.252955 106.821745 
L 67.529979 107.504921 
L 68.807004 108.484381 
L 70.084029 109.73415 
L 71.786729 111.778 
L 73.489429 114.201738 
L 75.617804 117.684645 
L 78.171853 122.400895 
L 81.151578 128.44824 
L 85.408327 137.688443 
L 93.921826 156.314775 
L 97.327226 163.207258 
L 100.306951 168.769451 
L 102.861 173.117753 
L 105.41505 177.03032 
L 107.543425 179.930744 
L 109.6718 182.485077 
L 111.800174 184.679518 
L 113.928549 186.503676 
L 115.631249 187.691478 
L 117.333949 188.635389 
L 119.036648 189.334328 
L 120.739348 189.788335 
L 122.442048 189.998517 
L 124.144748 189.966986 
L 125.847448 189.696809 
L 127.550148 189.191945 
L 129.252847 188.457197 
L 130.955547 187.498158 
L 132.658247 186.321156 
L 134.786622 184.554143 
L 136.914996 182.472654 
L 139.043371 180.093181 
L 141.597421 176.869541 
L 144.151471 173.275186 
L 147.131195 168.659676 
L 150.11092 163.644907 
L 153.51632 157.502346 
L 157.773069 149.343218 
L 163.732518 137.354097 
L 175.225742 114.093251 
L 179.908166 105.200029 
L 183.739241 98.40322 
L 187.144641 92.815957 
L 190.124365 88.333417 
L 193.10409 84.27311 
L 195.65814 81.156881 
L 198.212189 78.398509 
L 200.340564 76.386374 
L 202.468939 74.644512 
L 204.597314 73.180808 
L 206.725688 72.001866 
L 208.854063 71.112994 
L 210.556763 70.613476 
L 212.259463 70.30362 
L 213.962163 70.184317 
L 215.664862 70.255907 
L 217.367562 70.518187 
L 219.070262 70.970403 
L 220.772962 71.611255 
L 222.901336 72.674733 
L 225.029711 74.025253 
L 227.158086 75.656727 
L 229.286461 77.561779 
L 231.414836 79.731772 
L 233.968885 82.671493 
L 236.522935 85.959084 
L 239.50266 90.205096 
L 242.482384 94.856305 
L 245.887784 100.61328 
L 249.718858 107.568818 
L 253.975608 115.764674 
L 259.935057 127.767293 
L 271.002606 150.178479 
L 275.259355 158.291222 
L 279.09043 165.114958 
L 282.49583 170.690082 
L 285.475554 175.116574 
L 288.029604 178.529799 
L 290.583654 181.555656 
L 292.712028 183.758391 
L 294.840403 185.653086 
L 296.968778 187.224079 
L 298.671478 188.23823 
L 300.374178 189.029604 
L 302.076877 189.592421 
L 303.779577 189.921675 
L 305.482277 190.013191 
L 307.184977 189.863673 
L 308.887677 189.470766 
L 310.590376 188.833107 
L 312.293076 187.950382 
L 313.995776 186.823388 
L 315.698476 185.454086 
L 317.826851 183.406697 
L 319.955225 180.994859 
L 322.0836 178.230989 
L 324.211975 175.131029 
L 326.766024 170.995412 
L 329.320074 166.445859 
L 332.299799 160.682304 
L 335.705198 153.612926 
L 340.813298 142.417181 
L 347.198422 128.44824 
L 350.178147 122.400895 
L 352.732196 117.684645 
L 354.860571 114.201738 
L 356.563271 111.778 
L 358.265971 109.73415 
L 359.542996 108.484381 
L 360.820021 107.504921 
L 362.097045 106.821745 
L 363.37407 106.461868 
L 364.22542 106.415379 
L 365.07677 106.533616 
L 365.92812 106.825382 
L 366.77947 107.299695 
L 367.63082 107.965799 
L 368.48217 108.833159 
L 369.759195 110.532828 
L 371.036219 112.740893 
L 372.313244 115.492242 
L 373.590269 118.82298 
L 374.867294 122.770445 
L 376.144319 127.373236 
L 377.421344 132.671235 
L 379.124043 140.888044 
L 380.826743 150.515463 
L 382.529443 161.659104 
L 384.232143 174.428979 
L 384.232143 174.428979 
" clip-path="url(#p09dc747e0a)" style="fill: none; stroke: #56b4e9; stroke-width: 1.6; stroke-linecap: square"/>
   </g>
   <g id="line2d_20">
    <path d="M 44.117857 174.428979 
L 45.394882 116.454538 
L 46.671907 70.170793 
L 47.948932 34.147311 
L 48.800282 15.182591 
L 49.707227 -1 
M 60.253912 -1 
L 61.57053 11.980654 
L 64.12458 39.645876 
L 70.084029 105.351787 
L 72.212404 126.310629 
L 74.340779 145.066424 
L 76.043478 158.292687 
L 77.746178 169.853268 
L 79.448878 179.723134 
L 80.725903 186.024514 
L 82.002928 191.403137 
L 83.279953 195.887858 
L 84.556977 199.515151 
L 85.834002 202.327759 
L 86.685352 203.773645 
L 87.536702 204.893762 
L 88.388052 205.703903 
L 89.239402 206.220369 
L 90.090752 206.459844 
L 90.942102 206.43929 
L 91.793452 206.175841 
L 92.644802 205.686708 
L 93.496151 204.989094 
L 94.773176 203.589151 
L 96.050201 201.81555 
L 97.752901 198.965409 
L 99.455601 195.676456 
L 102.00965 190.179702 
L 111.374499 169.267168 
L 113.502874 165.209406 
L 115.631249 161.614544 
L 117.333949 159.106826 
L 119.036648 156.943875 
L 120.739348 155.132692 
L 122.442048 153.672339 
L 124.144748 152.554647 
L 125.847448 151.764947 
L 127.550148 151.282828 
L 129.252847 151.082905 
L 130.955547 151.135591 
L 132.658247 151.407861 
L 134.786622 152.002376 
L 137.340671 152.990591 
L 141.597421 154.959781 
L 145.428495 156.643365 
L 147.982545 157.505018 
L 150.11092 157.970183 
L 151.81362 158.13664 
L 153.51632 158.093408 
L 155.219019 157.81935 
L 156.921719 157.29696 
L 158.624419 156.512503 
L 160.327119 155.456096 
L 162.029819 154.121747 
L 163.732518 152.507349 
L 165.435218 150.614629 
L 167.563593 147.866021 
L 169.691968 144.709944 
L 171.820342 141.173312 
L 174.374392 136.476248 
L 177.354117 130.465128 
L 180.759516 123.063943 
L 186.718966 109.436984 
L 191.827065 97.960547 
L 195.232465 90.874883 
L 197.786514 86.033294 
L 199.914889 82.385219 
L 202.043264 79.141852 
L 204.171639 76.347494 
L 205.874338 74.461211 
L 207.577038 72.903449 
L 209.279738 71.687887 
L 210.556763 71.007328 
L 211.833788 70.528698 
L 213.110813 70.254365 
L 214.387837 70.185687 
L 215.664862 70.323005 
L 216.941887 70.665638 
L 218.218912 71.211891 
L 219.495937 71.95906 
L 221.198637 73.261292 
L 222.901336 74.902582 
L 224.604036 76.868517 
L 226.306736 79.141852 
L 228.435111 82.385219 
L 230.563486 86.033294 
L 233.117535 90.874883 
L 236.09726 97.042573 
L 239.928335 105.541386 
L 250.570208 129.566949 
L 253.549933 135.649932 
L 256.103983 140.423237 
L 258.658032 144.709944 
L 260.786407 147.866021 
L 262.914782 150.614629 
L 264.617482 152.507349 
L 266.320181 154.121747 
L 268.022881 155.456096 
L 269.725581 156.512503 
L 271.428281 157.29696 
L 273.130981 157.81935 
L 274.83368 158.093408 
L 276.53638 158.13664 
L 278.23908 157.970183 
L 280.367455 157.505018 
L 282.49583 156.805914 
L 285.475554 155.553351 
L 293.137703 152.149295 
L 295.266078 151.506101 
L 296.968778 151.184428 
L 298.671478 151.073631 
L 300.374178 151.207481 
L 302.076877 151.616494 
L 303.779577 152.327178 
L 305.482277 153.361259 
L 307.184977 154.734914 
L 308.887677 156.458007 
L 310.590376 158.533351 
L 312.293076 160.955992 
L 314.421451 164.451441 
L 316.549826 168.421814 
L 319.103875 173.713111 
L 322.509275 181.375181 
L 328.043049 193.905125 
L 330.171424 198.179503 
L 331.874124 201.150978 
L 333.151149 203.036689 
L 334.428174 204.567458 
L 335.705198 205.686708 
L 336.556548 206.175841 
L 337.407898 206.43929 
L 338.259248 206.459844 
L 339.110598 206.220369 
L 339.961948 205.703903 
L 340.813298 204.893762 
L 341.664648 203.773645 
L 342.515998 202.327759 
L 343.367348 200.540941 
L 344.644372 197.190231 
L 345.921397 192.995709 
L 347.198422 187.918664 
L 348.475447 181.927546 
L 349.752472 174.999396 
L 351.455172 164.283817 
L 353.157871 151.884362 
L 354.860571 137.849842 
L 356.988946 118.170324 
L 359.542996 91.899601 
L 362.948395 54.040233 
L 366.77947 11.980654 
L 368.096088 -1 
M 378.642773 -1 
L 379.124043 7.079406 
L 379.975393 24.19058 
L 380.826743 45.09814 
L 381.678093 70.170793 
L 382.955118 116.454538 
L 384.232143 174.428979 
L 384.232143 174.428979 
" clip-path="url(#p09dc747e0a)" style="fill: none; stroke: #d55e00; stroke-width: 1.6; stroke-linecap: square"/>
   </g>
   <g id="line2d_21">
    <path d="M 44.117857 174.428979 
L 59.86783 173.575764 
L 73.063754 172.646373 
L 84.556977 171.61498 
L 94.347501 170.515688 
L 102.861 169.34159 
L 110.523149 168.060332 
L 117.333949 166.694358 
L 123.293398 165.280013 
L 128.827172 163.741257 
L 133.935272 162.086645 
L 138.617696 160.332156 
L 142.874446 158.502321 
L 146.70552 156.630847 
L 150.536595 154.511592 
L 153.941994 152.388039 
L 157.347394 150.005857 
L 160.752794 147.329253 
L 163.732518 144.714559 
L 166.712243 141.815276 
L 169.691968 138.601227 
L 172.671692 135.042028 
L 175.651417 131.109016 
L 178.631142 126.778268 
L 181.610866 122.035069 
L 184.590591 116.880189 
L 187.995991 110.517856 
L 191.827065 102.875724 
L 200.766239 84.766879 
L 203.320289 80.204846 
L 205.448664 76.878898 
L 207.151363 74.617185 
L 208.854063 72.772936 
L 210.131088 71.694124 
L 211.408113 70.895615 
L 212.685138 70.390461 
L 213.962163 70.18707 
L 215.239187 70.288861 
L 216.516212 70.694121 
L 217.793237 71.396075 
L 219.070262 72.383169 
L 220.347287 73.639538 
L 222.049987 75.699319 
L 223.752686 78.148504 
L 225.881061 81.665544 
L 228.435111 86.391943 
L 231.84051 93.216808 
L 240.354009 110.517856 
L 243.759409 116.880189 
L 246.739134 122.035069 
L 249.718858 126.778268 
L 252.698583 131.109016 
L 255.678308 135.042028 
L 258.658032 138.601227 
L 261.637757 141.815276 
L 264.617482 144.714559 
L 267.597206 147.329253 
L 271.002606 150.005857 
L 274.408006 152.388039 
L 277.813405 154.511592 
L 281.64448 156.630847 
L 285.475554 158.502321 
L 289.732304 160.332156 
L 294.414728 162.086645 
L 299.522828 163.741257 
L 305.056602 165.280013 
L 311.016051 166.694358 
L 317.401176 167.981766 
L 324.63765 169.210751 
L 332.725474 170.353921 
L 342.090323 171.440174 
L 352.732196 172.437492 
L 365.07677 173.357579 
L 379.549718 174.199224 
L 384.232143 174.428979 
L 384.232143 174.428979 
" clip-path="url(#p09dc747e0a)" style="fill: none; stroke: #1f2328; stroke-width: 2.2; stroke-linecap: square"/>
   </g>
   <g id="line2d_22">
    <defs>
     <path id="m2dfa789938" d="M 0 2 
C 0.530406 2 1.03916 1.789267 1.414214 1.414214 
C 1.789267 1.03916 2 0.530406 2 0 
C 2 -0.530406 1.789267 -1.03916 1.414214 -1.414214 
C 1.03916 -1.789267 0.530406 -2 0 -2 
C -0.530406 -2 -1.03916 -1.789267 -1.414214 -1.414214 
C -1.789267 -1.03916 -2 -0.530406 -2 0 
C -2 0.530406 -1.789267 1.03916 -1.414214 1.414214 
C -1.03916 1.789267 -0.530406 2 0 2 
z
" style="stroke: #56b4e9"/>
    </defs>
    <g clip-path="url(#p09dc747e0a)">
     <use xlink:href="#m2dfa789938" x="44.117857" y="174.428979" style="fill: #56b4e9; stroke: #56b4e9"/>
     <use xlink:href="#m2dfa789938" x="100.803571" y="169.647045" style="fill: #56b4e9; stroke: #56b4e9"/>
     <use xlink:href="#m2dfa789938" x="157.489286" y="149.900472" style="fill: #56b4e9; stroke: #56b4e9"/>
     <use xlink:href="#m2dfa789938" x="214.175" y="70.182825" style="fill: #56b4e9; stroke: #56b4e9"/>
     <use xlink:href="#m2dfa789938" x="270.860714" y="149.900472" style="fill: #56b4e9; stroke: #56b4e9"/>
     <use xlink:href="#m2dfa789938" x="327.546429" y="169.647045" style="fill: #56b4e9; stroke: #56b4e9"/>
     <use xlink:href="#m2dfa789938" x="384.232143" y="174.428979" style="fill: #56b4e9; stroke: #56b4e9"/>
    </g>
   </g>
   <g id="line2d_23">
    <defs>
     <path id="mea3e7dc8d7" d="M 0 2 
C 0.530406 2 1.03916 1.789267 1.414214 1.414214 
C 1.789267 1.03916 2 0.530406 2 0 
C 2 -0.530406 1.789267 -1.03916 1.414214 -1.414214 
C 1.03916 -1.789267 0.530406 -2 0 -2 
C -0.530406 -2 -1.03916 -1.789267 -1.414214 -1.414214 
C -1.789267 -1.03916 -2 -0.530406 -2 0 
C -2 0.530406 -1.789267 1.03916 -1.414214 1.414214 
C -1.03916 1.789267 -0.530406 2 0 2 
z
" style="stroke: #d55e00"/>
    </defs>
    <g clip-path="url(#p09dc747e0a)">
     <use xlink:href="#mea3e7dc8d7" x="44.117857" y="174.428979" style="fill: #d55e00; stroke: #d55e00"/>
     <use xlink:href="#mea3e7dc8d7" x="78.129286" y="172.221413" style="fill: #d55e00; stroke: #d55e00"/>
     <use xlink:href="#mea3e7dc8d7" x="112.140714" y="167.757225" style="fill: #d55e00; stroke: #d55e00"/>
     <use xlink:href="#mea3e7dc8d7" x="146.152143" y="156.915625" style="fill: #d55e00; stroke: #d55e00"/>
     <use xlink:href="#mea3e7dc8d7" x="180.163571" y="124.390825" style="fill: #d55e00; stroke: #d55e00"/>
     <use xlink:href="#mea3e7dc8d7" x="214.175" y="70.182825" style="fill: #d55e00; stroke: #d55e00"/>
     <use xlink:href="#mea3e7dc8d7" x="248.186429" y="124.390825" style="fill: #d55e00; stroke: #d55e00"/>
     <use xlink:href="#mea3e7dc8d7" x="282.197857" y="156.915625" style="fill: #d55e00; stroke: #d55e00"/>
     <use xlink:href="#mea3e7dc8d7" x="316.209286" y="167.757225" style="fill: #d55e00; stroke: #d55e00"/>
     <use xlink:href="#mea3e7dc8d7" x="350.220714" y="172.221413" style="fill: #d55e00; stroke: #d55e00"/>
     <use xlink:href="#mea3e7dc8d7" x="384.232143" y="174.428979" style="fill: #d55e00; stroke: #d55e00"/>
    </g>
   </g>
  </g>
 </g>
 <defs>
  <clipPath id="p09dc747e0a">
   <rect x="35.615" y="21.395625" width="357.12" height="243.936"/>
  </clipPath>
 </defs>
</svg>
