<?xml version="1.0" encoding="utf-8" standalone="no"?>
<!DOCTYPE svg PUBLIC "-//W3C//DTD SVG 1.1//EN"
  "http://www.w3.org/Graphics/SVG/1.1/DTD/svg11.dtd">
<svg xmlns:xlink="http://www.w3.org/1999/xlink" width="550.08pt" height="309.248pt" viewBox="0 0 550.08 309.248" xmlns="http://www.w3.org/2000/svg" version="1.1">
 <metadata>
  <rdf:RDF xmlns:dc="http://purl.org/dc/elements/1.1/" xmlns:cc="http://creativecommons.org/ns#" xmlns:rdf="http://www.w3.org/1999/02/22-rdf-syntax-ns#">
   <cc:Work>
    <dc:type rdf:resource="http://purl.org/dc/dcmitype/StillImage"/>
    <dc:date>2026-07-18T00:48:24.138393</dc:date>
    <dc:format>image/svg+xml</dc:format>
    <dc:creator>
     <cc:Agent>
      <dc:title>Matplotlib v3.9.4, https://matplotlib.org/</dc:title>
     </cc:Agent>
    </dc:creator>
   </cc:Work>
  </rdf:RDF>
 </metadata>
 <defs>
  <style type="text/css">*{stroke-linejoin: round; stroke-linecap: butt}</style>
 </defs>
 <g id="figure_1">
  <g id="patch_1">
   <path d="M 0 309.248 
L 550.08 309.248 
L 550.08 0 
L 0 0 
z
" style="fill: #ffffff"/>
  </g>
  <g id="axes_1">
   <g id="patch_2">
    <path d="M 7.2 272.448 
L 250.690909 272.448 
L 250.690909 39.6 
L 7.2 39.6 
z
" style="fill: #ffffff"/>
   </g>
   <g id="line2d_1">
    <path d="M 7.2 111.245538 
L 250.690909 111.245538 
" clip-path="url(#p46f672c8df)" style="fill: none; stroke: #9aa3ad; stroke-width: 0.7; stroke-linecap: square"/>
   </g>
   <g id="line2d_2">
    <path d="M 7.2 230.654769 
L 250.690909 230.654769 
" clip-path="url(#p46f672c8df)" style="fill: none; stroke: #9aa3ad; stroke-width: 0.7; stroke-linecap: square"/>
   </g>
   <g id="line2d_3">
    <path d="M 33.01217 230.654769 
L 33.01217 244.983877 
" clip-path="url(#p46f672c8df)" style="fill: none; stroke-dasharray: 0.6,0.99; stroke-dashoffset: 0; stroke: #9aa3ad; stroke-width: 0.6"/>
   </g>
   <g id="line2d_4">
    <path d="M 71.940071 230.654769 
L 71.940071 244.983877 
" clip-path="url(#p46f672c8df)" style="fill: none; stroke-dasharray: 0.6,0.99; stroke-dashoffset: 0; stroke: #9aa3ad; stroke-width: 0.6"/>
   </g>
   <g id="line2d_5">
    <path d="M 128.945455 230.654769 
L 128.945455 244.983877 
" clip-path="url(#p46f672c8df)" style="fill: none; stroke-dasharray: 0.6,0.99; stroke-dashoffset: 0; stroke: #9aa3ad; stroke-width: 0.6"/>
   </g>
   <g id="line2d_6">
    <path d="M 185.950838 230.654769 
L 185.950838 244.983877 
" clip-path="url(#p46f672c8df)" style="fill: none; stroke-dasharray: 0.6,0.99; stroke-dashoffset: 0; stroke: #9aa3ad; stroke-width: 0.6"/>
   </g>
   <g id="line2d_7">
    <path d="M 224.878739 230.654769 
L 224.878739 244.983877 
" clip-path="url(#p46f672c8df)" style="fill: none; stroke-dasharray: 0.6,0.99; stroke-dashoffset: 0; stroke: #9aa3ad; stroke-width: 0.6"/>
   </g>
   <g id="matplotlib.axis_1">
    <g id="xtick_1">
     <g id="line2d_8">
      <defs>
       <path id="mc691e6b0a7" d="M 0 0 
L 0 3 
" style="stroke: #1f2328; stroke-width: 0.8"/>
      </defs>
      <g>
       <use xlink:href="#mc691e6b0a7" x="23.079842" y="272.448" style="fill: #1f2328; stroke: #1f2328; stroke-width: 0.8"/>
      </g>
     </g>
     <g id="text_1">
      <!-- −1.0 -->
      <g style="fill: #1f2328" transform="translate(14.372342 285.094719) scale(0.09 -0.09)">
       <defs>
        <path id="STIXGeneral-Regular-2212" d="M 3974 1408 
L 410 1408 
L 410 1830 
L 3974 1830 
L 3974 1408 
z
" transform="scale(0.015625)"/>
        <path id="STIXGeneral-Regular-31" d="M 2522 0 
L 755 0 
L 755 96 
Q 1107 115 1235 227 
Q 1363 339 1363 608 
L 1363 3482 
Q 1363 3795 1171 3795 
Q 1082 3795 883 3718 
L 710 3654 
L 710 3744 
L 1856 4326 
L 1914 4307 
L 1914 486 
Q 1914 275 2042 185 
Q 2170 96 2522 96 
L 2522 0 
z
" transform="scale(0.015625)"/>
        <path id="STIXGeneral-Regular-2e" d="M 1158 275 
Q 1158 134 1052 32 
Q 947 -70 800 -70 
Q 653 -70 550 32 
Q 448 134 448 281 
Q 448 429 553 534 
Q 659 640 806 640 
Q 947 640 1052 531 
Q 1158 422 1158 275 
z
" transform="scale(0.015625)"/>
        <path id="STIXGeneral-Regular-30" d="M 3046 2112 
Q 3046 1683 2963 1302 
Q 2880 922 2717 602 
Q 2554 282 2266 96 
Q 1978 -90 1600 -90 
Q 1210 -90 915 108 
Q 621 307 461 640 
Q 301 973 227 1350 
Q 154 1728 154 2150 
Q 154 2746 301 3222 
Q 448 3699 790 4012 
Q 1133 4326 1626 4326 
Q 2253 4326 2649 3712 
Q 3046 3098 3046 2112 
z
M 2432 2080 
Q 2432 3091 2217 3625 
Q 2003 4160 1587 4160 
Q 1190 4160 979 3622 
Q 768 3085 768 2106 
Q 768 1120 979 598 
Q 1190 77 1600 77 
Q 2003 77 2217 598 
Q 2432 1120 2432 2080 
z
" transform="scale(0.015625)"/>
       </defs>
       <use xlink:href="#STIXGeneral-Regular-2212"/>
       <use xlink:href="#STIXGeneral-Regular-31" x="68.499985"/>
       <use xlink:href="#STIXGeneral-Regular-2e" x="118.499969"/>
       <use xlink:href="#STIXGeneral-Regular-30" x="143.499954"/>
      </g>
     </g>
    </g>
    <g id="xtick_2">
     <g id="line2d_9">
      <g>
       <use xlink:href="#mc691e6b0a7" x="76.012648" y="272.448" style="fill: #1f2328; stroke: #1f2328; stroke-width: 0.8"/>
      </g>
     </g>
     <g id="text_2">
      <!-- −0.5 -->
      <g style="fill: #1f2328" transform="translate(67.305148 285.094719) scale(0.09 -0.09)">
       <defs>
        <path id="STIXGeneral-Regular-35" d="M 2803 4358 
L 2573 3814 
Q 2534 3731 2400 3731 
L 1158 3731 
L 902 3187 
Q 1606 3053 1920 2896 
Q 2234 2739 2502 2368 
Q 2726 2061 2726 1555 
Q 2726 1094 2576 780 
Q 2426 467 2099 224 
Q 1664 -90 1011 -90 
Q 646 -90 422 19 
Q 198 128 198 307 
Q 198 550 486 550 
Q 717 550 960 352 
Q 1210 147 1414 147 
Q 1747 147 2012 480 
Q 2278 813 2278 1229 
Q 2278 1843 1850 2189 
Q 1293 2637 486 2637 
Q 410 2637 410 2688 
L 416 2720 
L 1114 4237 
L 2438 4237 
Q 2547 4237 2608 4269 
Q 2669 4301 2746 4403 
L 2803 4358 
z
" transform="scale(0.015625)"/>
       </defs>
       <use xlink:href="#STIXGeneral-Regular-2212"/>
       <use xlink:href="#STIXGeneral-Regular-30" x="68.499985"/>
       <use xlink:href="#STIXGeneral-Regular-2e" x="118.499969"/>
       <use xlink:href="#STIXGeneral-Regular-35" x="143.499954"/>
      </g>
     </g>
    </g>
    <g id="xtick_3">
     <g id="line2d_10">
      <g>
       <use xlink:href="#mc691e6b0a7" x="128.945455" y="272.448" style="fill: #1f2328; stroke: #1f2328; stroke-width: 0.8"/>
      </g>
     </g>
     <g id="text_3">
      <!-- 0.0 -->
      <g style="fill: #1f2328" transform="translate(123.320455 285.094719) scale(0.09 -0.09)">
       <use xlink:href="#STIXGeneral-Regular-30"/>
       <use xlink:href="#STIXGeneral-Regular-2e" x="49.999985"/>
       <use xlink:href="#STIXGeneral-Regular-30" x="74.999969"/>
      </g>
     </g>
    </g>
    <g id="xtick_4">
     <g id="line2d_11">
      <g>
       <use xlink:href="#mc691e6b0a7" x="181.878261" y="272.448" style="fill: #1f2328; stroke: #1f2328; stroke-width: 0.8"/>
      </g>
     </g>
     <g id="text_4">
      <!-- 0.5 -->
      <g style="fill: #1f2328" transform="translate(176.253261 285.094719) scale(0.09 -0.09)">
       <use xlink:href="#STIXGeneral-Regular-30"/>
       <use xlink:href="#STIXGeneral-Regular-2e" x="49.999985"/>
       <use xlink:href="#STIXGeneral-Regular-35" x="74.999969"/>
      </g>
     </g>
    </g>
    <g id="xtick_5">
     <g id="line2d_12">
      <g>
       <use xlink:href="#mc691e6b0a7" x="234.811067" y="272.448" style="fill: #1f2328; stroke: #1f2328; stroke-width: 0.8"/>
      </g>
     </g>
     <g id="text_5">
      <!-- 1.0 -->
      <g style="fill: #1f2328" transform="translate(229.186067 285.094719) scale(0.09 -0.09)">
       <use xlink:href="#STIXGeneral-Regular-31"/>
       <use xlink:href="#STIXGeneral-Regular-2e" x="49.999985"/>
       <use xlink:href="#STIXGeneral-Regular-30" x="74.999969"/>
      </g>
     </g>
    </g>
    <g id="text_6">
     <!-- node position on $[-1,1]$ -->
     <g transform="translate(75.540455 299.298) scale(0.11 -0.11)">
      <defs>
       <path id="STIXGeneral-Regular-6e" d="M 3104 0 
L 1773 0 
L 1779 96 
Q 2016 115 2096 233 
Q 2176 352 2176 672 
L 2176 1946 
Q 2176 2592 1709 2592 
Q 1549 2592 1408 2515 
Q 1267 2438 1050 2227 
L 1050 461 
Q 1050 269 1136 192 
Q 1222 115 1466 96 
L 1466 0 
L 115 0 
L 115 96 
Q 358 115 435 214 
Q 512 314 512 602 
L 512 2157 
Q 512 2394 467 2483 
Q 422 2573 288 2573 
Q 160 2573 102 2547 
L 102 2656 
Q 550 2784 979 2944 
L 1030 2925 
L 1030 2426 
L 1037 2426 
Q 1491 2944 1958 2944 
Q 2323 2944 2518 2688 
Q 2714 2432 2714 1958 
L 2714 544 
Q 2714 288 2790 205 
Q 2867 122 3104 96 
L 3104 0 
z
" transform="scale(0.015625)"/>
       <path id="STIXGeneral-Regular-6f" d="M 3008 1478 
Q 3008 806 2608 371 
Q 2208 -64 1568 -64 
Q 979 -64 582 368 
Q 186 800 186 1459 
Q 186 2125 582 2534 
Q 979 2944 1626 2944 
Q 2221 2944 2614 2537 
Q 3008 2131 3008 1478 
z
M 2432 1306 
Q 2432 2035 2112 2445 
Q 1856 2765 1504 2765 
Q 1171 2765 966 2493 
Q 762 2221 762 1747 
Q 762 928 1101 435 
Q 1318 115 1677 115 
Q 2029 115 2230 432 
Q 2432 749 2432 1306 
z
" transform="scale(0.015625)"/>
       <path id="STIXGeneral-Regular-64" d="M 3142 269 
L 2202 -64 
L 2176 -45 
L 2176 365 
Q 1869 -64 1357 -64 
Q 826 -64 499 317 
Q 173 698 173 1312 
Q 173 1990 563 2467 
Q 954 2944 1504 2944 
Q 1850 2944 2176 2669 
L 2176 3667 
Q 2176 3866 2118 3930 
Q 2061 3994 1882 3994 
Q 1792 3994 1741 3987 
L 1741 4090 
Q 2323 4243 2682 4371 
L 2714 4358 
L 2714 730 
Q 2714 506 2768 435 
Q 2822 365 2995 365 
Q 3034 365 3142 371 
L 3142 269 
z
M 2176 653 
L 2176 2125 
Q 2176 2381 1981 2573 
Q 1786 2765 1523 2765 
Q 1158 2765 940 2438 
Q 723 2112 723 1568 
Q 723 979 963 624 
Q 1203 269 1606 269 
Q 1907 269 2080 474 
Q 2176 582 2176 653 
z
" transform="scale(0.015625)"/>
       <path id="STIXGeneral-Regular-65" d="M 2611 1050 
L 2714 1005 
Q 2330 -64 1376 -64 
Q 813 -64 486 329 
Q 160 723 160 1389 
Q 160 2074 525 2509 
Q 890 2944 1485 2944 
Q 2061 2944 2374 2502 
Q 2560 2246 2592 1773 
L 621 1773 
Q 646 1370 700 1158 
Q 755 947 915 730 
Q 1184 378 1626 378 
Q 1939 378 2153 531 
Q 2368 685 2611 1050 
z
M 634 1978 
L 1939 1978 
Q 1882 2381 1750 2547 
Q 1619 2714 1312 2714 
Q 1043 2714 864 2525 
Q 685 2336 634 1978 
z
" transform="scale(0.015625)"/>
       <path id="STIXGeneral-Regular-20" transform="scale(0.015625)"/>
       <path id="STIXGeneral-Regular-70" d="M 1018 2931 
L 1018 2438 
Q 1421 2944 1939 2944 
Q 2406 2944 2707 2560 
Q 3008 2176 3008 1581 
Q 3008 883 2621 409 
Q 2234 -64 1664 -64 
Q 1466 -64 1328 -6 
Q 1190 51 1018 211 
L 1018 -794 
Q 1018 -1094 1120 -1180 
Q 1222 -1267 1581 -1274 
L 1581 -1389 
L 32 -1389 
L 32 -1280 
Q 314 -1254 397 -1171 
Q 480 -1088 480 -838 
L 480 2157 
Q 480 2381 429 2451 
Q 378 2522 218 2522 
Q 115 2522 58 2515 
L 58 2618 
Q 506 2752 979 2944 
L 1018 2931 
z
M 1018 2138 
L 1018 563 
Q 1018 422 1238 281 
Q 1459 141 1683 141 
Q 2029 141 2243 467 
Q 2458 794 2458 1325 
Q 2458 1888 2243 2224 
Q 2029 2560 1670 2560 
Q 1446 2560 1232 2419 
Q 1018 2278 1018 2138 
z
" transform="scale(0.015625)"/>
       <path id="STIXGeneral-Regular-73" d="M 998 1926 
L 1664 1523 
Q 1984 1331 2105 1164 
Q 2227 998 2227 736 
Q 2227 416 1961 176 
Q 1696 -64 1331 -64 
Q 1030 -64 864 -6 
Q 691 51 570 51 
Q 461 51 416 -26 
L 333 -26 
L 333 979 
L 435 979 
Q 538 512 730 294 
Q 922 77 1248 77 
Q 1485 77 1632 211 
Q 1779 346 1779 550 
Q 1779 845 1440 1030 
L 1094 1222 
Q 326 1651 326 2150 
Q 326 2522 566 2730 
Q 806 2938 1210 2938 
Q 1491 2938 1638 2867 
Q 1754 2816 1818 2816 
Q 1862 2816 1920 2880 
L 1990 2880 
L 2022 2010 
L 1926 2010 
Q 1818 2445 1654 2621 
Q 1491 2797 1203 2797 
Q 986 2797 854 2688 
Q 723 2579 723 2362 
Q 723 2253 796 2128 
Q 870 2003 998 1926 
z
" transform="scale(0.015625)"/>
       <path id="STIXGeneral-Regular-69" d="M 1152 4045 
Q 1152 3904 1056 3811 
Q 960 3718 819 3718 
Q 685 3718 592 3811 
Q 499 3904 499 4045 
Q 499 4179 595 4275 
Q 691 4371 826 4371 
Q 966 4371 1059 4275 
Q 1152 4179 1152 4045 
z
M 1619 0 
L 102 0 
L 102 96 
Q 435 115 521 211 
Q 608 307 608 666 
L 608 2118 
Q 608 2342 563 2432 
Q 518 2522 397 2522 
Q 243 2522 128 2490 
L 128 2592 
L 1120 2944 
L 1146 2918 
L 1146 672 
Q 1146 314 1226 218 
Q 1306 122 1619 96 
L 1619 0 
z
" transform="scale(0.015625)"/>
       <path id="STIXGeneral-Regular-74" d="M 1702 493 
L 1786 422 
Q 1478 -64 1011 -64 
Q 448 -64 448 749 
L 448 2675 
L 109 2675 
Q 83 2694 83 2720 
Q 83 2771 192 2842 
Q 435 2982 813 3526 
Q 826 3546 874 3606 
Q 922 3667 941 3706 
Q 986 3706 986 3622 
L 986 2880 
L 1632 2880 
L 1632 2675 
L 986 2675 
L 986 845 
Q 986 538 1062 403 
Q 1139 269 1318 269 
Q 1510 269 1702 493 
z
" transform="scale(0.015625)"/>
       <path id="Cmr10-5b" d="M 756 -1600 
L 756 4800 
L 1631 4800 
L 1631 4544 
L 1013 4544 
L 1013 -1344 
L 1631 -1344 
L 1631 -1600 
L 756 -1600 
z
" transform="scale(0.015625)"/>
       <path id="Cmsy10-a1" d="M 653 1472 
Q 600 1472 565 1512 
Q 531 1553 531 1600 
Q 531 1647 565 1687 
Q 600 1728 653 1728 
L 4325 1728 
Q 4375 1728 4408 1687 
Q 4441 1647 4441 1600 
Q 4441 1553 4408 1512 
Q 4375 1472 4325 1472 
L 653 1472 
z
" transform="scale(0.015625)"/>
       <path id="Cmr10-31" d="M 594 0 
L 594 225 
Q 1394 225 1394 428 
L 1394 3788 
Q 1063 3628 556 3628 
L 556 3853 
Q 1341 3853 1741 4263 
L 1831 4263 
Q 1853 4263 1873 4245 
Q 1894 4228 1894 4206 
L 1894 428 
Q 1894 225 2694 225 
L 2694 0 
L 594 0 
z
" transform="scale(0.015625)"/>
       <path id="Cmmi10-3b" d="M 634 -1153 
Q 634 -1125 659 -1100 
Q 891 -878 1019 -587 
Q 1147 -297 1147 25 
L 1147 103 
Q 1044 0 891 0 
Q 744 0 641 103 
Q 538 206 538 353 
Q 538 503 641 603 
Q 744 703 891 703 
Q 1119 703 1216 492 
Q 1313 281 1313 25 
Q 1313 -331 1170 -651 
Q 1028 -972 769 -1228 
Q 744 -1241 728 -1241 
Q 697 -1241 665 -1212 
Q 634 -1184 634 -1153 
z
" transform="scale(0.015625)"/>
       <path id="Cmr10-5d" d="M 141 -1600 
L 141 -1344 
L 763 -1344 
L 763 4544 
L 141 4544 
L 141 4800 
L 1019 4800 
L 1019 -1600 
L 141 -1600 
z
" transform="scale(0.015625)"/>
      </defs>
      <use xlink:href="#STIXGeneral-Regular-6e"/>
      <use xlink:href="#STIXGeneral-Regular-6f" transform="translate(49.999985 0)"/>
      <use xlink:href="#STIXGeneral-Regular-64" transform="translate(99.999969 0)"/>
      <use xlink:href="#STIXGeneral-Regular-65" transform="translate(149.999954 0)"/>
      <use xlink:href="#STIXGeneral-Regular-20" transform="translate(194.399948 0)"/>
      <use xlink:href="#STIXGeneral-Regular-70" transform="translate(219.399933 0)"/>
      <use xlink:href="#STIXGeneral-Regular-6f" transform="translate(269.399918 0)"/>
      <use xlink:href="#STIXGeneral-Regular-73" transform="translate(319.399902 0)"/>
      <use xlink:href="#STIXGeneral-Regular-69" transform="translate(358.299896 0)"/>
      <use xlink:href="#STIXGeneral-Regular-74" transform="translate(386.099884 0)"/>
      <use xlink:href="#STIXGeneral-Regular-69" transform="translate(413.899872 0)"/>
      <use xlink:href="#STIXGeneral-Regular-6f" transform="translate(441.69986 0)"/>
      <use xlink:href="#STIXGeneral-Regular-6e" transform="translate(491.699844 0)"/>
      <use xlink:href="#STIXGeneral-Regular-20" transform="translate(541.699829 0)"/>
      <use xlink:href="#STIXGeneral-Regular-6f" transform="translate(566.699814 0)"/>
      <use xlink:href="#STIXGeneral-Regular-6e" transform="translate(616.699799 0)"/>
      <use xlink:href="#STIXGeneral-Regular-20" transform="translate(666.699783 0)"/>
      <use xlink:href="#Cmr10-5b" transform="translate(691.699768 0)"/>
      <use xlink:href="#Cmsy10-a1" transform="translate(719.385315 0)"/>
      <use xlink:href="#Cmr10-31" transform="translate(797.070862 0)"/>
      <use xlink:href="#Cmmi10-3b" transform="translate(847.070862 0)"/>
      <use xlink:href="#Cmr10-31" transform="translate(892.315002 0)"/>
      <use xlink:href="#Cmr10-5d" transform="translate(942.315002 0)"/>
     </g>
    </g>
   </g>
   <g id="matplotlib.axis_2"/>
   <g id="patch_3">
    <path d="M 7.2 272.448 
L 250.690909 272.448 
" style="fill: none; stroke: #1f2328; stroke-width: 0.8; stroke-linejoin: miter; stroke-linecap: square"/>
   </g>
   <g id="text_7">
    <!-- Newton–Cotes (equispaced) -->
    <g style="fill: #0072b2" transform="translate(23.079842 80.140641) scale(0.1 -0.1)">
     <defs>
      <path id="STIXGeneral-Regular-4e" d="M 4525 4237 
L 4525 4115 
Q 4198 4083 4102 4000 
Q 4000 3910 3958 3756 
Q 3917 3603 3917 3245 
L 3917 -70 
L 3802 -70 
L 979 3443 
L 979 960 
Q 979 474 1088 323 
Q 1197 173 1574 122 
L 1574 0 
L 77 0 
L 77 122 
Q 474 166 586 310 
Q 698 454 698 960 
L 698 3776 
Q 531 3981 416 4048 
Q 301 4115 77 4115 
L 77 4237 
L 1165 4237 
L 3635 1146 
L 3635 3322 
Q 3635 3808 3514 3949 
Q 3437 4032 3344 4061 
Q 3251 4090 3008 4115 
L 3008 4237 
L 4525 4237 
z
" transform="scale(0.015625)"/>
      <path id="STIXGeneral-Regular-77" d="M 4442 2880 
L 4442 2784 
Q 4346 2752 4301 2691 
Q 4256 2630 4179 2438 
L 3296 224 
Q 3168 -90 3117 -90 
Q 3085 -90 3062 -48 
Q 3040 -6 2963 186 
L 2381 1696 
L 1664 160 
Q 1549 -90 1504 -90 
Q 1446 -90 1338 192 
L 474 2381 
Q 378 2630 314 2700 
Q 250 2771 134 2784 
L 134 2880 
L 1286 2880 
L 1286 2784 
Q 1120 2765 1056 2720 
Q 992 2675 992 2573 
Q 992 2477 1030 2381 
L 1664 710 
L 2246 1984 
L 2118 2342 
Q 2029 2598 1942 2681 
Q 1856 2765 1677 2784 
L 1677 2880 
L 2976 2880 
L 2976 2784 
Q 2752 2752 2678 2707 
Q 2605 2662 2605 2560 
Q 2605 2458 2714 2176 
L 3251 742 
L 3827 2163 
Q 3936 2432 3936 2592 
Q 3936 2669 3875 2710 
Q 3814 2752 3654 2784 
L 3654 2880 
L 4442 2880 
z
" transform="scale(0.015625)"/>
      <path id="STIXGeneral-Regular-2013" d="M 3200 1286 
L 0 1286 
L 0 1600 
L 3200 1600 
L 3200 1286 
z
" transform="scale(0.015625)"/>
      <path id="STIXGeneral-Regular-43" d="M 3930 838 
L 4051 723 
Q 3482 -90 2304 -90 
Q 1376 -90 794 480 
Q 179 1082 179 2080 
Q 179 3014 755 3661 
Q 1357 4326 2310 4326 
Q 2720 4326 3072 4230 
Q 3475 4115 3514 4115 
Q 3725 4115 3782 4326 
L 3910 4326 
L 3968 2874 
L 3821 2874 
Q 3718 3334 3488 3584 
Q 3034 4070 2458 4070 
Q 1747 4070 1334 3548 
Q 922 3027 922 2182 
Q 922 1152 1382 653 
Q 1811 192 2522 192 
Q 2944 192 3251 339 
Q 3558 486 3930 838 
z
" transform="scale(0.015625)"/>
      <path id="STIXGeneral-Regular-28" d="M 1946 -1030 
L 1869 -1133 
Q 1126 -710 716 32 
Q 307 774 307 1613 
Q 307 3386 1888 4326 
L 1946 4224 
Q 1293 3667 1075 3126 
Q 858 2586 858 1632 
Q 858 685 1082 96 
Q 1306 -493 1946 -1030 
z
" transform="scale(0.015625)"/>
      <path id="STIXGeneral-Regular-71" d="M 3123 -1389 
L 1613 -1389 
L 1613 -1280 
Q 1952 -1254 2067 -1158 
Q 2182 -1062 2182 -794 
L 2182 410 
Q 1747 -64 1178 -64 
Q 730 -64 442 320 
Q 154 704 154 1312 
Q 154 2003 560 2473 
Q 966 2944 1562 2944 
Q 1920 2944 2304 2720 
L 2650 2925 
L 2720 2925 
L 2720 -902 
Q 2720 -1107 2797 -1180 
Q 2874 -1254 3123 -1280 
L 3123 -1389 
z
M 2182 813 
L 2182 2131 
Q 2182 2758 1587 2758 
Q 1178 2758 941 2432 
Q 704 2106 704 1542 
Q 704 1210 803 925 
Q 902 640 1062 499 
Q 1254 326 1542 326 
Q 1882 326 2106 531 
Q 2182 602 2182 813 
z
" transform="scale(0.015625)"/>
      <path id="STIXGeneral-Regular-75" d="M 3072 320 
L 3072 230 
Q 2573 96 2195 -58 
L 2163 -38 
L 2163 486 
L 2150 486 
Q 1747 -64 1235 -64 
Q 870 -64 662 160 
Q 454 384 454 755 
L 454 2362 
Q 454 2598 371 2688 
Q 288 2778 58 2790 
L 58 2880 
L 992 2880 
L 992 813 
Q 992 595 1123 451 
Q 1254 307 1446 307 
Q 1760 307 1984 506 
Q 2067 582 2099 649 
Q 2131 717 2131 877 
L 2131 2355 
Q 2131 2605 2041 2678 
Q 1952 2752 1658 2771 
L 1658 2880 
L 2669 2880 
L 2669 685 
Q 2669 461 2742 390 
Q 2816 320 3034 320 
L 3072 320 
z
" transform="scale(0.015625)"/>
      <path id="STIXGeneral-Regular-61" d="M 2829 422 
L 2829 243 
Q 2586 -64 2253 -64 
Q 1888 -64 1843 403 
L 1837 403 
Q 1427 -64 909 -64 
Q 608 -64 422 112 
Q 237 288 237 602 
Q 237 1050 685 1350 
Q 992 1555 1837 1869 
L 1837 2214 
Q 1837 2502 1699 2646 
Q 1562 2790 1338 2790 
Q 1146 2790 1018 2697 
Q 890 2605 890 2477 
Q 890 2419 909 2348 
Q 928 2278 928 2208 
Q 928 2112 841 2029 
Q 755 1946 634 1946 
Q 525 1946 441 2029 
Q 358 2112 358 2240 
Q 358 2547 685 2752 
Q 986 2944 1421 2944 
Q 1939 2944 2176 2656 
Q 2291 2522 2323 2384 
Q 2355 2246 2355 1946 
L 2355 723 
Q 2355 301 2554 301 
Q 2682 301 2829 422 
z
M 1837 813 
L 1837 1715 
Q 1248 1510 1018 1293 
Q 800 1094 800 800 
Q 800 557 921 432 
Q 1043 307 1242 307 
Q 1453 307 1613 410 
Q 1747 506 1792 589 
Q 1837 672 1837 813 
z
" transform="scale(0.015625)"/>
      <path id="STIXGeneral-Regular-63" d="M 2547 998 
L 2637 941 
Q 2362 403 2112 205 
Q 1786 -64 1376 -64 
Q 845 -64 502 336 
Q 160 736 160 1357 
Q 160 2170 698 2618 
Q 1094 2944 1562 2944 
Q 1965 2944 2256 2749 
Q 2547 2554 2547 2285 
Q 2547 2176 2457 2096 
Q 2368 2016 2246 2016 
Q 2022 2016 1939 2310 
L 1901 2451 
Q 1850 2630 1773 2694 
Q 1696 2758 1523 2758 
Q 1133 2758 893 2451 
Q 653 2144 653 1645 
Q 653 1094 928 745 
Q 1203 397 1645 397 
Q 1920 397 2118 528 
Q 2317 659 2547 998 
z
" transform="scale(0.015625)"/>
      <path id="STIXGeneral-Regular-29" d="M 186 4224 
L 262 4326 
Q 992 3891 1408 3148 
Q 1824 2406 1824 1581 
Q 1824 -166 243 -1133 
L 186 -1030 
Q 845 -486 1059 54 
Q 1274 595 1274 1562 
Q 1274 2534 1059 3120 
Q 845 3706 186 4224 
z
" transform="scale(0.015625)"/>
     </defs>
     <use xlink:href="#STIXGeneral-Regular-4e"/>
     <use xlink:href="#STIXGeneral-Regular-65" x="72.199982"/>
     <use xlink:href="#STIXGeneral-Regular-77" x="116.599976"/>
     <use xlink:href="#STIXGeneral-Regular-74" x="188.799957"/>
     <use xlink:href="#STIXGeneral-Regular-6f" x="216.599945"/>
     <use xlink:href="#STIXGeneral-Regular-6e" x="266.59993"/>
     <use xlink:href="#STIXGeneral-Regular-2013" x="316.599915"/>
     <use xlink:href="#STIXGeneral-Regular-43" x="366.599899"/>
     <use xlink:href="#STIXGeneral-Regular-6f" x="433.299896"/>
     <use xlink:href="#STIXGeneral-Regular-74" x="483.299881"/>
     <use xlink:href="#STIXGeneral-Regular-65" x="511.099869"/>
     <use xlink:href="#STIXGeneral-Regular-73" x="555.499863"/>
     <use xlink:href="#STIXGeneral-Regular-20" x="594.399857"/>
     <use xlink:href="#STIXGeneral-Regular-28" x="619.399841"/>
     <use xlink:href="#STIXGeneral-Regular-65" x="652.699829"/>
     <use xlink:href="#STIXGeneral-Regular-71" x="697.099823"/>
     <use xlink:href="#STIXGeneral-Regular-75" x="747.099808"/>
     <use xlink:href="#STIXGeneral-Regular-69" x="797.099792"/>
     <use xlink:href="#STIXGeneral-Regular-73" x="824.89978"/>
     <use xlink:href="#STIXGeneral-Regular-70" x="863.799774"/>
     <use xlink:href="#STIXGeneral-Regular-61" x="913.799759"/>
     <use xlink:href="#STIXGeneral-Regular-63" x="958.199753"/>
     <use xlink:href="#STIXGeneral-Regular-65" x="1002.599747"/>
     <use xlink:href="#STIXGeneral-Regular-64" x="1046.999741"/>
     <use xlink:href="#STIXGeneral-Regular-29" x="1096.999725"/>
    </g>
   </g>
   <g id="text_8">
    <!-- Gauss–Legendre (roots of $P_5$) -->
    <g style="fill: #d55e00" transform="translate(23.079842 199.570185) scale(0.1 -0.1)">
     <defs>
      <path id="STIXGeneral-Regular-47" d="M 4538 2266 
L 4538 2150 
Q 4256 2125 4173 2035 
Q 4090 1946 4090 1638 
L 4090 358 
Q 3539 -90 2464 -90 
Q 1965 -90 1507 89 
Q 1050 269 736 595 
Q 205 1152 205 2093 
Q 205 3155 890 3776 
Q 1491 4326 2419 4326 
Q 2829 4326 3270 4179 
Q 3443 4115 3552 4115 
Q 3654 4115 3731 4176 
Q 3808 4237 3840 4326 
L 3981 4326 
L 4032 2976 
L 3885 2976 
Q 3680 3475 3430 3718 
Q 3059 4070 2496 4070 
Q 1856 4070 1427 3629 
Q 934 3136 934 2074 
Q 934 1190 1395 678 
Q 1856 166 2618 166 
Q 2982 166 3225 281 
Q 3469 397 3469 557 
L 3469 1562 
Q 3469 1933 3376 2025 
Q 3283 2118 2899 2150 
L 2899 2266 
L 4538 2266 
z
" transform="scale(0.015625)"/>
      <path id="STIXGeneral-Regular-4c" d="M 3827 1114 
L 3520 0 
L 77 0 
L 77 122 
Q 429 141 531 256 
Q 634 371 634 736 
L 634 3494 
Q 634 3872 541 3981 
Q 448 4090 77 4115 
L 77 4237 
L 1888 4237 
L 1888 4115 
Q 1498 4090 1392 3984 
Q 1286 3878 1286 3507 
L 1286 538 
Q 1286 358 1398 304 
Q 1510 250 1862 250 
L 2310 250 
Q 3085 250 3392 640 
Q 3520 813 3661 1114 
L 3827 1114 
z
" transform="scale(0.015625)"/>
      <path id="STIXGeneral-Regular-67" d="M 3008 2483 
L 2477 2483 
Q 2598 2208 2598 1946 
Q 2598 1453 2265 1203 
Q 1933 954 1600 954 
Q 1530 954 1357 973 
L 1235 986 
Q 1107 947 979 812 
Q 851 678 851 582 
Q 851 435 1350 410 
L 2176 371 
Q 2528 358 2739 172 
Q 2950 -13 2950 -314 
Q 2950 -685 2566 -986 
Q 2035 -1395 1286 -1395 
Q 826 -1395 502 -1212 
Q 179 -1030 179 -774 
Q 179 -595 320 -419 
Q 461 -243 806 6 
Q 602 102 534 172 
Q 467 243 467 346 
Q 467 531 762 787 
Q 909 915 1037 1043 
Q 717 1203 579 1401 
Q 442 1600 442 1901 
Q 442 2336 752 2640 
Q 1062 2944 1510 2944 
Q 1766 2944 2022 2848 
L 2163 2797 
Q 2349 2733 2515 2733 
L 3008 2733 
L 3008 2483 
z
M 973 2163 
L 973 2144 
Q 973 1683 1155 1398 
Q 1338 1114 1632 1114 
Q 1850 1114 1978 1270 
Q 2106 1427 2106 1690 
Q 2106 2112 1914 2464 
Q 1754 2765 1446 2765 
Q 1222 2765 1097 2605 
Q 973 2445 973 2163 
z
M 2771 -410 
Q 2771 -230 2595 -163 
Q 2419 -96 1978 -96 
Q 1344 -96 941 -13 
Q 749 -243 688 -348 
Q 627 -454 627 -563 
Q 627 -774 880 -902 
Q 1133 -1030 1555 -1030 
Q 2099 -1030 2435 -860 
Q 2771 -691 2771 -410 
z
" transform="scale(0.015625)"/>
      <path id="STIXGeneral-Regular-72" d="M 1024 2931 
L 1024 2342 
Q 1267 2688 1430 2816 
Q 1594 2944 1792 2944 
Q 1958 2944 2051 2854 
Q 2144 2765 2144 2605 
Q 2144 2470 2077 2393 
Q 2010 2317 1894 2317 
Q 1773 2317 1638 2445 
Q 1536 2541 1472 2541 
Q 1338 2541 1181 2355 
Q 1024 2170 1024 2016 
L 1024 576 
Q 1024 301 1133 205 
Q 1242 109 1568 96 
L 1568 0 
L 32 0 
L 32 96 
Q 339 154 412 224 
Q 486 294 486 538 
L 486 2138 
Q 486 2349 438 2435 
Q 390 2522 269 2522 
Q 166 2522 45 2496 
L 45 2598 
Q 448 2726 992 2944 
L 1024 2931 
z
" transform="scale(0.015625)"/>
      <path id="STIXGeneral-Regular-66" d="M 134 2880 
L 659 2880 
Q 666 3264 710 3478 
Q 755 3693 883 3910 
Q 1152 4371 1786 4371 
Q 2074 4371 2262 4259 
Q 2451 4147 2451 3974 
Q 2451 3866 2374 3789 
Q 2298 3712 2182 3712 
Q 2029 3712 1894 3942 
Q 1741 4192 1555 4192 
Q 1197 4192 1197 3622 
L 1197 2880 
L 1978 2880 
L 1978 2675 
L 1197 2675 
L 1197 666 
Q 1197 307 1299 208 
Q 1402 109 1792 96 
L 1792 0 
L 128 0 
L 128 96 
Q 474 115 566 214 
Q 659 314 659 666 
L 659 2675 
L 134 2675 
L 134 2880 
z
" transform="scale(0.015625)"/>
      <path id="Cmmi10-50" d="M 313 0 
Q 250 0 250 84 
Q 253 100 262 139 
Q 272 178 289 201 
Q 306 225 331 225 
Q 722 225 878 269 
Q 959 297 997 441 
L 1875 3956 
Q 1888 4019 1888 4044 
Q 1888 4113 1813 4122 
Q 1691 4147 1350 4147 
Q 1288 4147 1288 4231 
Q 1291 4247 1300 4286 
Q 1309 4325 1326 4348 
Q 1344 4372 1369 4372 
L 3578 4372 
Q 3881 4372 4165 4264 
Q 4450 4156 4631 3934 
Q 4813 3713 4813 3397 
Q 4813 2991 4527 2672 
Q 4241 2353 3814 2175 
Q 3388 1997 2988 1997 
L 1947 1997 
L 1556 416 
Q 1544 353 1544 325 
Q 1544 300 1551 283 
Q 1559 266 1573 261 
Q 1588 256 1619 250 
Q 1741 225 2081 225 
Q 2144 225 2144 141 
Q 2122 50 2109 25 
Q 2097 0 2034 0 
L 313 0 
z
M 1978 2188 
L 2875 2188 
Q 3497 2188 3822 2522 
Q 3988 2688 4092 3000 
Q 4197 3313 4197 3566 
Q 4197 3881 3956 4014 
Q 3716 4147 3359 4147 
L 2747 4147 
Q 2572 4147 2515 4117 
Q 2459 4088 2413 3928 
L 1978 2188 
z
" transform="scale(0.015625)"/>
      <path id="Cmr10-35" d="M 556 728 
Q 622 541 758 387 
Q 894 234 1080 148 
Q 1266 63 1466 63 
Q 1928 63 2103 422 
Q 2278 781 2278 1294 
Q 2278 1516 2270 1667 
Q 2263 1819 2228 1959 
Q 2169 2184 2020 2353 
Q 1872 2522 1656 2522 
Q 1441 2522 1286 2456 
Q 1131 2391 1034 2303 
Q 938 2216 863 2119 
Q 788 2022 769 2016 
L 697 2016 
Q 681 2016 657 2036 
Q 634 2056 634 2075 
L 634 4213 
Q 634 4228 654 4245 
Q 675 4263 697 4263 
L 716 4263 
Q 1147 4056 1631 4056 
Q 2106 4056 2547 4263 
L 2566 4263 
Q 2588 4263 2606 4247 
Q 2625 4231 2625 4213 
L 2625 4153 
Q 2625 4122 2613 4122 
Q 2394 3831 2064 3668 
Q 1734 3506 1381 3506 
Q 1125 3506 856 3578 
L 856 2369 
Q 1069 2541 1236 2614 
Q 1403 2688 1663 2688 
Q 2016 2688 2295 2484 
Q 2575 2281 2725 1954 
Q 2875 1628 2875 1288 
Q 2875 903 2686 575 
Q 2497 247 2172 53 
Q 1847 -141 1466 -141 
Q 1150 -141 886 21 
Q 622 184 470 459 
Q 319 734 319 1044 
Q 319 1188 412 1278 
Q 506 1369 647 1369 
Q 788 1369 883 1276 
Q 978 1184 978 1044 
Q 978 906 883 811 
Q 788 716 647 716 
Q 625 716 597 720 
Q 569 725 556 728 
z
" transform="scale(0.015625)"/>
     </defs>
     <use xlink:href="#STIXGeneral-Regular-47" transform="translate(0 0.6875)"/>
     <use xlink:href="#STIXGeneral-Regular-61" transform="translate(72.199982 0.6875)"/>
     <use xlink:href="#STIXGeneral-Regular-75" transform="translate(116.599976 0.6875)"/>
     <use xlink:href="#STIXGeneral-Regular-73" transform="translate(166.59996 0.6875)"/>
     <use xlink:href="#STIXGeneral-Regular-73" transform="translate(205.499954 0.6875)"/>
     <use xlink:href="#STIXGeneral-Regular-2013" transform="translate(244.399948 0.6875)"/>
     <use xlink:href="#STIXGeneral-Regular-4c" transform="translate(294.399933 0.6875)"/>
     <use xlink:href="#STIXGeneral-Regular-65" transform="translate(355.499924 0.6875)"/>
     <use xlink:href="#STIXGeneral-Regular-67" transform="translate(399.899918 0.6875)"/>
     <use xlink:href="#STIXGeneral-Regular-65" transform="translate(449.899902 0.6875)"/>
     <use xlink:href="#STIXGeneral-Regular-6e" transform="translate(494.299896 0.6875)"/>
     <use xlink:href="#STIXGeneral-Regular-64" transform="translate(544.299881 0.6875)"/>
     <use xlink:href="#STIXGeneral-Regular-72" transform="translate(594.299866 0.6875)"/>
     <use xlink:href="#STIXGeneral-Regular-65" transform="translate(627.599854 0.6875)"/>
     <use xlink:href="#STIXGeneral-Regular-20" transform="translate(671.999847 0.6875)"/>
     <use xlink:href="#STIXGeneral-Regular-28" transform="translate(696.999832 0.6875)"/>
     <use xlink:href="#STIXGeneral-Regular-72" transform="translate(730.29982 0.6875)"/>
     <use xlink:href="#STIXGeneral-Regular-6f" transform="translate(763.599808 0.6875)"/>
     <use xlink:href="#STIXGeneral-Regular-6f" transform="translate(813.599792 0.6875)"/>
     <use xlink:href="#STIXGeneral-Regular-74" transform="translate(863.599777 0.6875)"/>
     <use xlink:href="#STIXGeneral-Regular-73" transform="translate(891.399765 0.6875)"/>
     <use xlink:href="#STIXGeneral-Regular-20" transform="translate(930.299759 0.6875)"/>
     <use xlink:href="#STIXGeneral-Regular-6f" transform="translate(955.299744 0.6875)"/>
     <use xlink:href="#STIXGeneral-Regular-66" transform="translate(1005.299728 0.6875)"/>
     <use xlink:href="#STIXGeneral-Regular-20" transform="translate(1038.599716 0.6875)"/>
     <use xlink:href="#Cmmi10-50" transform="translate(1063.599701 0.6875)"/>
     <use xlink:href="#Cmr10-35" transform="translate(1127.808685 -16.31875) scale(0.7)"/>
     <use xlink:href="#STIXGeneral-Regular-29" transform="translate(1169.186029 0.6875)"/>
    </g>
   </g>
   <g id="text_9">
    <!-- (a) Gauss frees the nodes -->
    <g transform="translate(68.630455 33.6) scale(0.12 -0.12)">
     <defs>
      <path id="STIXGeneral-Regular-68" d="M 3117 0 
L 1760 0 
L 1760 96 
Q 2042 128 2118 224 
Q 2195 320 2195 653 
L 2195 1920 
Q 2195 2598 1722 2598 
Q 1530 2598 1370 2508 
Q 1210 2419 1005 2195 
L 1005 653 
Q 1005 320 1081 224 
Q 1158 128 1440 96 
L 1440 0 
L 58 0 
L 58 96 
Q 333 134 400 224 
Q 467 314 467 653 
L 467 3667 
Q 467 3872 406 3933 
Q 346 3994 141 3994 
Q 83 3994 64 3987 
L 64 4090 
L 237 4141 
Q 730 4288 973 4371 
L 1005 4352 
L 1005 2406 
Q 1229 2694 1446 2819 
Q 1664 2944 1946 2944 
Q 2733 2944 2733 1926 
L 2733 653 
Q 2733 320 2793 233 
Q 2854 147 3117 96 
L 3117 0 
z
" transform="scale(0.015625)"/>
     </defs>
     <use xlink:href="#STIXGeneral-Regular-28"/>
     <use xlink:href="#STIXGeneral-Regular-61" x="33.299988"/>
     <use xlink:href="#STIXGeneral-Regular-29" x="77.699982"/>
     <use xlink:href="#STIXGeneral-Regular-20" x="110.999969"/>
     <use xlink:href="#STIXGeneral-Regular-47" x="135.999954"/>
     <use xlink:href="#STIXGeneral-Regular-61" x="208.199936"/>
     <use xlink:href="#STIXGeneral-Regular-75" x="252.59993"/>
     <use xlink:href="#STIXGeneral-Regular-73" x="302.599915"/>
     <use xlink:href="#STIXGeneral-Regular-73" x="341.499908"/>
     <use xlink:href="#STIXGeneral-Regular-20" x="380.399902"/>
     <use xlink:href="#STIXGeneral-Regular-66" x="405.399887"/>
     <use xlink:href="#STIXGeneral-Regular-72" x="438.699875"/>
     <use xlink:href="#STIXGeneral-Regular-65" x="471.999863"/>
     <use xlink:href="#STIXGeneral-Regular-65" x="516.399857"/>
     <use xlink:href="#STIXGeneral-Regular-73" x="560.79985"/>
     <use xlink:href="#STIXGeneral-Regular-20" x="599.699844"/>
     <use xlink:href="#STIXGeneral-Regular-74" x="624.699829"/>
     <use xlink:href="#STIXGeneral-Regular-68" x="652.499817"/>
     <use xlink:href="#STIXGeneral-Regular-65" x="702.499802"/>
     <use xlink:href="#STIXGeneral-Regular-20" x="746.899796"/>
     <use xlink:href="#STIXGeneral-Regular-6e" x="771.89978"/>
     <use xlink:href="#STIXGeneral-Regular-6f" x="821.899765"/>
     <use xlink:href="#STIXGeneral-Regular-64" x="871.89975"/>
     <use xlink:href="#STIXGeneral-Regular-65" x="921.899734"/>
     <use xlink:href="#STIXGeneral-Regular-73" x="966.299728"/>
    </g>
   </g>
   <g id="line2d_13">
    <defs>
     <path id="mb732bc0f13" d="M 0 4.5 
C 1.193414 4.5 2.338109 4.025852 3.181981 3.181981 
C 4.025852 2.338109 4.5 1.193414 4.5 0 
C 4.5 -1.193414 4.025852 -2.338109 3.181981 -3.181981 
C 2.338109 -4.025852 1.193414 -4.5 0 -4.5 
C -1.193414 -4.5 -2.338109 -4.025852 -3.181981 -3.181981 
C -4.025852 -2.338109 -4.5 -1.193414 -4.5 0 
C -4.5 1.193414 -4.025852 2.338109 -3.181981 3.181981 
C -2.338109 4.025852 -1.193414 4.5 0 4.5 
z
" style="stroke: #56b4e9"/>
    </defs>
    <g clip-path="url(#p46f672c8df)">
     <use xlink:href="#mb732bc0f13" x="23.079842" y="111.245538" style="fill: #56b4e9; stroke: #56b4e9"/>
     <use xlink:href="#mb732bc0f13" x="76.012648" y="111.245538" style="fill: #56b4e9; stroke: #56b4e9"/>
     <use xlink:href="#mb732bc0f13" x="128.945455" y="111.245538" style="fill: #56b4e9; stroke: #56b4e9"/>
     <use xlink:href="#mb732bc0f13" x="181.878261" y="111.245538" style="fill: #56b4e9; stroke: #56b4e9"/>
     <use xlink:href="#mb732bc0f13" x="234.811067" y="111.245538" style="fill: #56b4e9; stroke: #56b4e9"/>
    </g>
   </g>
   <g id="line2d_14">
    <defs>
     <path id="m0828bf2039" d="M 0 4.5 
C 1.193414 4.5 2.338109 4.025852 3.181981 3.181981 
C 4.025852 2.338109 4.5 1.193414 4.5 0 
C 4.5 -1.193414 4.025852 -2.338109 3.181981 -3.181981 
C 2.338109 -4.025852 1.193414 -4.5 0 -4.5 
C -1.193414 -4.5 -2.338109 -4.025852 -3.181981 -3.181981 
C -4.025852 -2.338109 -4.5 -1.193414 -4.5 0 
C -4.5 1.193414 -4.025852 2.338109 -3.181981 3.181981 
C -2.338109 4.025852 -1.193414 4.5 0 4.5 
z
" style="stroke: #d55e00"/>
    </defs>
    <g clip-path="url(#p46f672c8df)">
     <use xlink:href="#m0828bf2039" x="33.01217" y="230.654769" style="fill: #d55e00; stroke: #d55e00"/>
     <use xlink:href="#m0828bf2039" x="71.940071" y="230.654769" style="fill: #d55e00; stroke: #d55e00"/>
     <use xlink:href="#m0828bf2039" x="128.945455" y="230.654769" style="fill: #d55e00; stroke: #d55e00"/>
     <use xlink:href="#m0828bf2039" x="185.950838" y="230.654769" style="fill: #d55e00; stroke: #d55e00"/>
     <use xlink:href="#m0828bf2039" x="224.878739" y="230.654769" style="fill: #d55e00; stroke: #d55e00"/>
    </g>
   </g>
  </g>
  <g id="axes_2">
   <g id="patch_4">
    <path d="M 299.389091 272.448 
L 542.88 272.448 
L 542.88 39.6 
L 299.389091 39.6 
z
" style="fill: #ffffff"/>
   </g>
   <g id="matplotlib.axis_3">
    <g id="xtick_6">
     <g id="line2d_15">
      <g>
       <use xlink:href="#mc691e6b0a7" x="310.45686" y="272.448" style="fill: #1f2328; stroke: #1f2328; stroke-width: 0.8"/>
      </g>
     </g>
     <g id="text_10">
      <!-- 2 -->
      <g style="fill: #1f2328" transform="translate(308.20686 285.094719) scale(0.09 -0.09)">
       <defs>
        <path id="STIXGeneral-Regular-32" d="M 3034 877 
L 2688 0 
L 186 0 
L 186 77 
L 1325 1286 
Q 1773 1754 1965 2144 
Q 2157 2534 2157 2950 
Q 2157 3379 1920 3616 
Q 1683 3853 1267 3853 
Q 922 3853 720 3673 
Q 518 3494 326 3021 
L 192 3053 
Q 301 3648 630 3987 
Q 960 4326 1523 4326 
Q 2054 4326 2380 4006 
Q 2707 3686 2707 3200 
Q 2707 2477 1888 1613 
L 832 486 
L 2330 486 
Q 2541 486 2665 569 
Q 2790 653 2944 915 
L 3034 877 
z
" transform="scale(0.015625)"/>
       </defs>
       <use xlink:href="#STIXGeneral-Regular-32"/>
      </g>
     </g>
    </g>
    <g id="xtick_7">
     <g id="line2d_16">
      <g>
       <use xlink:href="#mc691e6b0a7" x="354.727934" y="272.448" style="fill: #1f2328; stroke: #1f2328; stroke-width: 0.8"/>
      </g>
     </g>
     <g id="text_11">
      <!-- 4 -->
      <g style="fill: #1f2328" transform="translate(352.477934 285.094719) scale(0.09 -0.09)">
       <defs>
        <path id="STIXGeneral-Regular-34" d="M 3027 1069 
L 2368 1069 
L 2368 0 
L 1869 0 
L 1869 1069 
L 77 1069 
L 77 1478 
L 2086 4326 
L 2368 4326 
L 2368 1478 
L 3027 1478 
L 3027 1069 
z
M 1869 1478 
L 1869 3674 
L 333 1478 
L 1869 1478 
z
" transform="scale(0.015625)"/>
       </defs>
       <use xlink:href="#STIXGeneral-Regular-34"/>
      </g>
     </g>
    </g>
    <g id="xtick_8">
     <g id="line2d_17">
      <g>
       <use xlink:href="#mc691e6b0a7" x="398.999008" y="272.448" style="fill: #1f2328; stroke: #1f2328; stroke-width: 0.8"/>
      </g>
     </g>
     <g id="text_12">
      <!-- 6 -->
      <g style="fill: #1f2328" transform="translate(396.749008 285.094719) scale(0.09 -0.09)">
       <defs>
        <path id="STIXGeneral-Regular-36" d="M 2854 4378 
L 2867 4275 
Q 2112 4154 1606 3664 
Q 1101 3174 973 2451 
Q 1344 2739 1786 2739 
Q 2349 2739 2672 2380 
Q 2995 2022 2995 1402 
Q 2995 774 2669 378 
Q 2291 -90 1651 -90 
Q 870 -90 518 557 
Q 218 1107 218 1786 
Q 218 2835 915 3552 
Q 1312 3962 1731 4131 
Q 2150 4301 2854 4378 
z
M 2419 1203 
Q 2419 2445 1555 2445 
Q 1235 2445 1024 2275 
Q 813 2106 813 1702 
Q 813 954 1046 522 
Q 1280 90 1722 90 
Q 2061 90 2240 394 
Q 2419 698 2419 1203 
z
" transform="scale(0.015625)"/>
       </defs>
       <use xlink:href="#STIXGeneral-Regular-36"/>
      </g>
     </g>
    </g>
    <g id="xtick_9">
     <g id="line2d_18">
      <g>
       <use xlink:href="#mc691e6b0a7" x="443.270083" y="272.448" style="fill: #1f2328; stroke: #1f2328; stroke-width: 0.8"/>
      </g>
     </g>
     <g id="text_13">
      <!-- 8 -->
      <g style="fill: #1f2328" transform="translate(441.020083 285.094719) scale(0.09 -0.09)">
       <defs>
        <path id="STIXGeneral-Regular-38" d="M 2848 992 
Q 2848 499 2505 204 
Q 2163 -90 1587 -90 
Q 1050 -90 704 204 
Q 358 499 358 954 
Q 358 1293 524 1533 
Q 691 1773 1190 2125 
Q 710 2522 553 2765 
Q 397 3008 397 3328 
Q 397 3782 745 4054 
Q 1094 4326 1638 4326 
Q 2106 4326 2410 4060 
Q 2714 3795 2714 3411 
Q 2714 3059 2531 2848 
Q 2349 2637 1856 2374 
Q 2432 1990 2640 1689 
Q 2848 1389 2848 992 
z
M 2272 3411 
Q 2272 3744 2086 3945 
Q 1901 4147 1574 4147 
Q 1248 4147 1059 3977 
Q 870 3808 870 3513 
Q 870 3219 1059 2979 
Q 1248 2739 1670 2490 
Q 1997 2682 2134 2896 
Q 2272 3110 2272 3411 
z
M 1734 1741 
L 1357 1997 
Q 1075 1766 960 1545 
Q 845 1325 845 1011 
Q 845 576 1065 333 
Q 1286 90 1658 90 
Q 1971 90 2166 285 
Q 2362 480 2362 794 
Q 2362 1082 2214 1299 
Q 2067 1517 1734 1741 
z
" transform="scale(0.015625)"/>
       </defs>
       <use xlink:href="#STIXGeneral-Regular-38"/>
      </g>
     </g>
    </g>
    <g id="xtick_10">
     <g id="line2d_19">
      <g>
       <use xlink:href="#mc691e6b0a7" x="487.541157" y="272.448" style="fill: #1f2328; stroke: #1f2328; stroke-width: 0.8"/>
      </g>
     </g>
     <g id="text_14">
      <!-- 10 -->
      <g style="fill: #1f2328" transform="translate(483.041157 285.094719) scale(0.09 -0.09)">
       <use xlink:href="#STIXGeneral-Regular-31"/>
       <use xlink:href="#STIXGeneral-Regular-30" x="49.999985"/>
      </g>
     </g>
    </g>
    <g id="xtick_11">
     <g id="line2d_20">
      <g>
       <use xlink:href="#mc691e6b0a7" x="531.812231" y="272.448" style="fill: #1f2328; stroke: #1f2328; stroke-width: 0.8"/>
      </g>
     </g>
     <g id="text_15">
      <!-- 12 -->
      <g style="fill: #1f2328" transform="translate(527.312231 285.094719) scale(0.09 -0.09)">
       <use xlink:href="#STIXGeneral-Regular-31"/>
       <use xlink:href="#STIXGeneral-Regular-32" x="49.999985"/>
      </g>
     </g>
    </g>
    <g id="text_16">
     <!-- number of evaluations $n$ -->
     <g transform="translate(367.234545 298.560656) scale(0.11 -0.11)">
      <defs>
       <path id="STIXGeneral-Regular-6d" d="M 4960 0 
L 3565 0 
L 3565 96 
Q 3834 122 3907 208 
Q 3981 294 3981 576 
L 3981 1894 
Q 3981 2278 3869 2444 
Q 3757 2611 3488 2611 
Q 3264 2611 3107 2521 
Q 2950 2432 2803 2221 
L 2803 608 
Q 2803 301 2896 201 
Q 2989 102 3264 96 
L 3264 0 
L 1830 0 
L 1830 96 
Q 2112 115 2189 188 
Q 2266 262 2266 550 
L 2266 1901 
Q 2266 2611 1850 2611 
Q 1670 2611 1468 2531 
Q 1267 2451 1171 2336 
Q 1088 2240 1088 2227 
L 1088 448 
Q 1088 243 1177 176 
Q 1267 109 1523 96 
L 1523 0 
L 102 0 
L 102 96 
Q 371 102 460 195 
Q 550 288 550 563 
L 550 2150 
Q 550 2387 499 2480 
Q 448 2573 326 2573 
Q 230 2573 122 2547 
L 122 2656 
Q 557 2778 1011 2944 
L 1062 2925 
L 1062 2451 
L 1075 2451 
Q 1363 2752 1584 2848 
Q 1805 2944 2054 2944 
Q 2560 2944 2733 2406 
Q 3232 2944 3776 2944 
Q 4518 2944 4518 1792 
L 4518 493 
Q 4518 282 4582 202 
Q 4646 122 4794 109 
L 4960 96 
L 4960 0 
z
" transform="scale(0.015625)"/>
       <path id="STIXGeneral-Regular-62" d="M 979 4358 
L 979 2406 
Q 1082 2650 1315 2797 
Q 1549 2944 1843 2944 
Q 2349 2944 2672 2541 
Q 2995 2138 2995 1536 
Q 2995 832 2566 384 
Q 2138 -64 1498 -64 
Q 1107 -64 774 67 
Q 442 198 442 358 
L 442 3622 
Q 442 3859 384 3926 
Q 326 3994 128 3994 
Q 83 3994 19 3981 
L 19 4090 
L 211 4147 
Q 864 4346 947 4371 
L 979 4358 
z
M 979 2035 
L 979 474 
Q 979 326 1161 233 
Q 1344 141 1600 141 
Q 1978 141 2195 416 
Q 2432 710 2432 1261 
Q 2432 1888 2182 2240 
Q 1971 2541 1613 2541 
Q 1357 2541 1168 2390 
Q 979 2240 979 2035 
z
" transform="scale(0.015625)"/>
       <path id="STIXGeneral-Regular-76" d="M 3053 2880 
L 3053 2784 
Q 2906 2771 2835 2688 
Q 2765 2605 2637 2285 
L 1818 230 
Q 1690 -90 1638 -90 
Q 1587 -90 1523 77 
Q 1510 96 1497 141 
Q 1485 186 1472 211 
L 704 2048 
Q 499 2534 403 2652 
Q 307 2771 122 2784 
L 122 2880 
L 1376 2880 
L 1376 2784 
Q 1210 2771 1146 2732 
Q 1082 2694 1082 2611 
Q 1082 2509 1139 2368 
L 1792 730 
L 2426 2387 
Q 2464 2483 2464 2579 
Q 2464 2758 2163 2784 
L 2163 2880 
L 3053 2880 
z
" transform="scale(0.015625)"/>
       <path id="STIXGeneral-Regular-6c" d="M 1645 0 
L 134 0 
L 134 96 
Q 435 122 531 221 
Q 627 320 627 589 
L 627 3590 
Q 627 3821 569 3910 
Q 512 4000 358 4000 
Q 224 4000 122 3987 
L 122 4090 
Q 730 4237 1133 4371 
L 1165 4346 
L 1165 557 
Q 1165 288 1254 201 
Q 1344 115 1645 96 
L 1645 0 
z
" transform="scale(0.015625)"/>
       <path id="Cmmi10-6e" d="M 494 109 
Q 494 147 500 166 
L 978 2075 
Q 1025 2253 1025 2388 
Q 1025 2663 838 2663 
Q 638 2663 541 2423 
Q 444 2184 353 1819 
Q 353 1800 334 1789 
Q 316 1778 300 1778 
L 225 1778 
Q 203 1778 187 1801 
Q 172 1825 172 1844 
Q 241 2122 305 2315 
Q 369 2509 505 2668 
Q 641 2828 844 2828 
Q 1084 2828 1268 2676 
Q 1453 2525 1453 2291 
Q 1644 2541 1900 2684 
Q 2156 2828 2444 2828 
Q 2672 2828 2837 2750 
Q 3003 2672 3095 2514 
Q 3188 2356 3188 2138 
Q 3188 1875 3070 1503 
Q 2953 1131 2778 672 
Q 2688 463 2688 288 
Q 2688 97 2834 97 
Q 3084 97 3251 365 
Q 3419 634 3488 941 
Q 3500 978 3541 978 
L 3616 978 
Q 3641 978 3658 962 
Q 3675 947 3675 922 
Q 3675 916 3669 903 
Q 3581 541 3364 234 
Q 3147 -72 2822 -72 
Q 2597 -72 2437 83 
Q 2278 238 2278 459 
Q 2278 578 2328 709 
Q 2409 919 2514 1209 
Q 2619 1500 2686 1765 
Q 2753 2031 2753 2234 
Q 2753 2413 2679 2538 
Q 2606 2663 2431 2663 
Q 2197 2663 2000 2559 
Q 1803 2456 1656 2286 
Q 1509 2116 1388 1881 
L 953 141 
Q 931 53 854 -9 
Q 778 -72 684 -72 
Q 606 -72 550 -22 
Q 494 28 494 109 
z
" transform="scale(0.015625)"/>
      </defs>
      <use xlink:href="#STIXGeneral-Regular-6e" transform="translate(0 0.703125)"/>
      <use xlink:href="#STIXGeneral-Regular-75" transform="translate(49.999985 0.703125)"/>
      <use xlink:href="#STIXGeneral-Regular-6d" transform="translate(99.999969 0.703125)"/>
      <use xlink:href="#STIXGeneral-Regular-62" transform="translate(177.799957 0.703125)"/>
      <use xlink:href="#STIXGeneral-Regular-65" transform="translate(227.799942 0.703125)"/>
      <use xlink:href="#STIXGeneral-Regular-72" transform="translate(272.199936 0.703125)"/>
      <use xlink:href="#STIXGeneral-Regular-20" transform="translate(305.499924 0.703125)"/>
      <use xlink:href="#STIXGeneral-Regular-6f" transform="translate(330.499908 0.703125)"/>
      <use xlink:href="#STIXGeneral-Regular-66" transform="translate(380.499893 0.703125)"/>
      <use xlink:href="#STIXGeneral-Regular-20" transform="translate(413.799881 0.703125)"/>
      <use xlink:href="#STIXGeneral-Regular-65" transform="translate(438.799866 0.703125)"/>
      <use xlink:href="#STIXGeneral-Regular-76" transform="translate(483.19986 0.703125)"/>
      <use xlink:href="#STIXGeneral-Regular-61" transform="translate(533.199844 0.703125)"/>
      <use xlink:href="#STIXGeneral-Regular-6c" transform="translate(577.599838 0.703125)"/>
      <use xlink:href="#STIXGeneral-Regular-75" transform="translate(605.399826 0.703125)"/>
      <use xlink:href="#STIXGeneral-Regular-61" transform="translate(655.399811 0.703125)"/>
      <use xlink:href="#STIXGeneral-Regular-74" transform="translate(699.799805 0.703125)"/>
      <use xlink:href="#STIXGeneral-Regular-69" transform="translate(727.599792 0.703125)"/>
      <use xlink:href="#STIXGeneral-Regular-6f" transform="translate(755.39978 0.703125)"/>
      <use xlink:href="#STIXGeneral-Regular-6e" transform="translate(805.399765 0.703125)"/>
      <use xlink:href="#STIXGeneral-Regular-73" transform="translate(855.39975 0.703125)"/>
      <use xlink:href="#STIXGeneral-Regular-20" transform="translate(894.299744 0.703125)"/>
      <use xlink:href="#Cmmi10-6e" transform="translate(919.299728 0.703125)"/>
     </g>
    </g>
   </g>
   <g id="matplotlib.axis_4">
    <g id="ytick_1">
     <g id="line2d_21">
      <defs>
       <path id="m6aad37cf59" d="M 0 0 
L -3 0 
" style="stroke: #1f2328; stroke-width: 0.8"/>
      </defs>
      <g>
       <use xlink:href="#m6aad37cf59" x="299.389091" y="247.814172" style="fill: #1f2328; stroke: #1f2328; stroke-width: 0.8"/>
      </g>
     </g>
     <g id="text_17">
      <!-- $\mathdefault{10^{-16}}$ -->
      <g style="fill: #1f2328" transform="translate(272.639091 250.887532) scale(0.09 -0.09)">
       <use xlink:href="#STIXGeneral-Regular-31" transform="translate(0 0.115625)"/>
       <use xlink:href="#STIXGeneral-Regular-30" transform="translate(49.999985 0.115625)"/>
       <use xlink:href="#STIXGeneral-Regular-2212" transform="translate(101.574969 36.115625) scale(0.7)"/>
       <use xlink:href="#STIXGeneral-Regular-31" transform="translate(149.524959 36.115625) scale(0.7)"/>
       <use xlink:href="#STIXGeneral-Regular-36" transform="translate(184.524948 36.115625) scale(0.7)"/>
      </g>
     </g>
    </g>
    <g id="ytick_2">
     <g id="line2d_22">
      <g>
       <use xlink:href="#m6aad37cf59" x="299.389091" y="219.714517" style="fill: #1f2328; stroke: #1f2328; stroke-width: 0.8"/>
      </g>
     </g>
     <g id="text_18">
      <!-- $\mathdefault{10^{-14}}$ -->
      <g style="fill: #1f2328" transform="translate(272.639091 222.787876) scale(0.09 -0.09)">
       <use xlink:href="#STIXGeneral-Regular-31" transform="translate(0 0.684375)"/>
       <use xlink:href="#STIXGeneral-Regular-30" transform="translate(49.999985 0.684375)"/>
       <use xlink:href="#STIXGeneral-Regular-2212" transform="translate(101.574969 36.684375) scale(0.7)"/>
       <use xlink:href="#STIXGeneral-Regular-31" transform="translate(149.524959 36.684375) scale(0.7)"/>
       <use xlink:href="#STIXGeneral-Regular-34" transform="translate(184.524948 36.684375) scale(0.7)"/>
      </g>
     </g>
    </g>
    <g id="ytick_3">
     <g id="line2d_23">
      <g>
       <use xlink:href="#m6aad37cf59" x="299.389091" y="191.614862" style="fill: #1f2328; stroke: #1f2328; stroke-width: 0.8"/>
      </g>
     </g>
     <g id="text_19">
      <!-- $\mathdefault{10^{-12}}$ -->
      <g style="fill: #1f2328" transform="translate(272.639091 194.688221) scale(0.09 -0.09)">
       <use xlink:href="#STIXGeneral-Regular-31" transform="translate(0 0.684375)"/>
       <use xlink:href="#STIXGeneral-Regular-30" transform="translate(49.999985 0.684375)"/>
       <use xlink:href="#STIXGeneral-Regular-2212" transform="translate(101.574969 36.684375) scale(0.7)"/>
       <use xlink:href="#STIXGeneral-Regular-31" transform="translate(149.524959 36.684375) scale(0.7)"/>
       <use xlink:href="#STIXGeneral-Regular-32" transform="translate(184.524948 36.684375) scale(0.7)"/>
      </g>
     </g>
    </g>
    <g id="ytick_4">
     <g id="line2d_24">
      <g>
       <use xlink:href="#m6aad37cf59" x="299.389091" y="163.515206" style="fill: #1f2328; stroke: #1f2328; stroke-width: 0.8"/>
      </g>
     </g>
     <g id="text_20">
      <!-- $\mathdefault{10^{-10}}$ -->
      <g style="fill: #1f2328" transform="translate(272.639091 166.588566) scale(0.09 -0.09)">
       <use xlink:href="#STIXGeneral-Regular-31" transform="translate(0 0.684375)"/>
       <use xlink:href="#STIXGeneral-Regular-30" transform="translate(49.999985 0.684375)"/>
       <use xlink:href="#STIXGeneral-Regular-2212" transform="translate(101.574969 36.684375) scale(0.7)"/>
       <use xlink:href="#STIXGeneral-Regular-31" transform="translate(149.524959 36.684375) scale(0.7)"/>
       <use xlink:href="#STIXGeneral-Regular-30" transform="translate(184.524948 36.684375) scale(0.7)"/>
      </g>
     </g>
    </g>
    <g id="ytick_5">
     <g id="line2d_25">
      <g>
       <use xlink:href="#m6aad37cf59" x="299.389091" y="135.415551" style="fill: #1f2328; stroke: #1f2328; stroke-width: 0.8"/>
      </g>
     </g>
     <g id="text_21">
      <!-- $\mathdefault{10^{-8}}$ -->
      <g style="fill: #1f2328" transform="translate(275.789091 138.48891) scale(0.09 -0.09)">
       <use xlink:href="#STIXGeneral-Regular-31" transform="translate(0 0.684375)"/>
       <use xlink:href="#STIXGeneral-Regular-30" transform="translate(49.999985 0.684375)"/>
       <use xlink:href="#STIXGeneral-Regular-2212" transform="translate(101.574969 36.684375) scale(0.7)"/>
       <use xlink:href="#STIXGeneral-Regular-38" transform="translate(149.524959 36.684375) scale(0.7)"/>
      </g>
     </g>
    </g>
    <g id="ytick_6">
     <g id="line2d_26">
      <g>
       <use xlink:href="#m6aad37cf59" x="299.389091" y="107.315896" style="fill: #1f2328; stroke: #1f2328; stroke-width: 0.8"/>
      </g>
     </g>
     <g id="text_22">
      <!-- $\mathdefault{10^{-6}}$ -->
      <g style="fill: #1f2328" transform="translate(275.789091 110.389255) scale(0.09 -0.09)">
       <use xlink:href="#STIXGeneral-Regular-31" transform="translate(0 0.115625)"/>
       <use xlink:href="#STIXGeneral-Regular-30" transform="translate(49.999985 0.115625)"/>
       <use xlink:href="#STIXGeneral-Regular-2212" transform="translate(101.574969 36.115625) scale(0.7)"/>
       <use xlink:href="#STIXGeneral-Regular-36" transform="translate(149.524959 36.115625) scale(0.7)"/>
      </g>
     </g>
    </g>
    <g id="ytick_7">
     <g id="line2d_27">
      <g>
       <use xlink:href="#m6aad37cf59" x="299.389091" y="79.21624" style="fill: #1f2328; stroke: #1f2328; stroke-width: 0.8"/>
      </g>
     </g>
     <g id="text_23">
      <!-- $\mathdefault{10^{-4}}$ -->
      <g style="fill: #1f2328" transform="translate(275.789091 82.2896) scale(0.09 -0.09)">
       <use xlink:href="#STIXGeneral-Regular-31" transform="translate(0 0.684375)"/>
       <use xlink:href="#STIXGeneral-Regular-30" transform="translate(49.999985 0.684375)"/>
       <use xlink:href="#STIXGeneral-Regular-2212" transform="translate(101.574969 36.684375) scale(0.7)"/>
       <use xlink:href="#STIXGeneral-Regular-34" transform="translate(149.524959 36.684375) scale(0.7)"/>
      </g>
     </g>
    </g>
    <g id="ytick_8">
     <g id="line2d_28">
      <g>
       <use xlink:href="#m6aad37cf59" x="299.389091" y="51.116585" style="fill: #1f2328; stroke: #1f2328; stroke-width: 0.8"/>
      </g>
     </g>
     <g id="text_24">
      <!-- $\mathdefault{10^{-2}}$ -->
      <g style="fill: #1f2328" transform="translate(275.789091 54.189944) scale(0.09 -0.09)">
       <use xlink:href="#STIXGeneral-Regular-31" transform="translate(0 0.684375)"/>
       <use xlink:href="#STIXGeneral-Regular-30" transform="translate(49.999985 0.684375)"/>
       <use xlink:href="#STIXGeneral-Regular-2212" transform="translate(101.574969 36.684375) scale(0.7)"/>
       <use xlink:href="#STIXGeneral-Regular-32" transform="translate(149.524959 36.684375) scale(0.7)"/>
      </g>
     </g>
    </g>
    <g id="text_25">
     <!-- absolute error -->
     <g transform="translate(266.251747 186.417516) rotate(-90) scale(0.11 -0.11)">
      <use xlink:href="#STIXGeneral-Regular-61"/>
      <use xlink:href="#STIXGeneral-Regular-62" x="44.399994"/>
      <use xlink:href="#STIXGeneral-Regular-73" x="94.399979"/>
      <use xlink:href="#STIXGeneral-Regular-6f" x="133.299973"/>
      <use xlink:href="#STIXGeneral-Regular-6c" x="183.299957"/>
      <use xlink:href="#STIXGeneral-Regular-75" x="211.099945"/>
      <use xlink:href="#STIXGeneral-Regular-74" x="261.09993"/>
      <use xlink:href="#STIXGeneral-Regular-65" x="288.899918"/>
      <use xlink:href="#STIXGeneral-Regular-20" x="333.299911"/>
      <use xlink:href="#STIXGeneral-Regular-65" x="358.299896"/>
      <use xlink:href="#STIXGeneral-Regular-72" x="402.69989"/>
      <use xlink:href="#STIXGeneral-Regular-72" x="435.999878"/>
      <use xlink:href="#STIXGeneral-Regular-6f" x="469.299866"/>
      <use xlink:href="#STIXGeneral-Regular-72" x="519.29985"/>
     </g>
    </g>
   </g>
   <g id="patch_5">
    <path d="M 299.389091 272.448 
L 299.389091 39.6 
" style="fill: none; stroke: #1f2328; stroke-width: 0.8; stroke-linejoin: miter; stroke-linecap: square"/>
   </g>
   <g id="patch_6">
    <path d="M 299.389091 272.448 
L 542.88 272.448 
" style="fill: none; stroke: #1f2328; stroke-width: 0.8; stroke-linejoin: miter; stroke-linecap: square"/>
   </g>
   <g id="text_26">
    <!-- composite Simpson -->
    <g style="fill: #0072b2" transform="translate(443.270083 60.792629) scale(0.1 -0.1)">
     <defs>
      <path id="STIXGeneral-Regular-53" d="M 3002 2963 
L 2842 2963 
Q 2733 3360 2579 3565 
Q 2189 4064 1651 4064 
Q 1357 4064 1181 3894 
Q 1005 3725 1005 3456 
Q 1005 3328 1069 3206 
Q 1133 3085 1206 2998 
Q 1280 2912 1465 2784 
Q 1651 2656 1766 2589 
Q 1882 2522 2150 2362 
Q 2669 2061 2905 1763 
Q 3142 1466 3142 1107 
Q 3142 576 2771 243 
Q 2400 -90 1837 -90 
Q 1421 -90 1082 58 
Q 915 128 781 128 
Q 704 128 653 70 
Q 602 13 602 -83 
L 461 -83 
L 275 1274 
L 416 1274 
Q 845 141 1734 141 
Q 2074 141 2285 342 
Q 2496 544 2496 858 
Q 2496 1158 2310 1363 
Q 2003 1696 1235 2106 
Q 454 2522 454 3206 
Q 454 3718 768 4022 
Q 1082 4326 1568 4326 
Q 1907 4326 2240 4186 
Q 2413 4109 2522 4109 
Q 2688 4109 2726 4326 
L 2861 4326 
L 3002 2963 
z
" transform="scale(0.015625)"/>
     </defs>
     <use xlink:href="#STIXGeneral-Regular-63"/>
     <use xlink:href="#STIXGeneral-Regular-6f" x="44.399994"/>
     <use xlink:href="#STIXGeneral-Regular-6d" x="94.399979"/>
     <use xlink:href="#STIXGeneral-Regular-70" x="172.199966"/>
     <use xlink:href="#STIXGeneral-Regular-6f" x="222.199951"/>
     <use xlink:href="#STIXGeneral-Regular-73" x="272.199936"/>
     <use xlink:href="#STIXGeneral-Regular-69" x="311.09993"/>
     <use xlink:href="#STIXGeneral-Regular-74" x="338.899918"/>
     <use xlink:href="#STIXGeneral-Regular-65" x="366.699905"/>
     <use xlink:href="#STIXGeneral-Regular-20" x="411.099899"/>
     <use xlink:href="#STIXGeneral-Regular-53" x="436.099884"/>
     <use xlink:href="#STIXGeneral-Regular-69" x="491.699875"/>
     <use xlink:href="#STIXGeneral-Regular-6d" x="519.499863"/>
     <use xlink:href="#STIXGeneral-Regular-70" x="597.29985"/>
     <use xlink:href="#STIXGeneral-Regular-73" x="647.299835"/>
     <use xlink:href="#STIXGeneral-Regular-6f" x="686.199829"/>
     <use xlink:href="#STIXGeneral-Regular-6e" x="736.199814"/>
    </g>
   </g>
   <g id="text_27">
    <!-- Gauss–Legendre -->
    <g style="fill: #d55e00" transform="translate(337.019504 179.890034) scale(0.1 -0.1)">
     <use xlink:href="#STIXGeneral-Regular-47"/>
     <use xlink:href="#STIXGeneral-Regular-61" x="72.199982"/>
     <use xlink:href="#STIXGeneral-Regular-75" x="116.599976"/>
     <use xlink:href="#STIXGeneral-Regular-73" x="166.59996"/>
     <use xlink:href="#STIXGeneral-Regular-73" x="205.499954"/>
     <use xlink:href="#STIXGeneral-Regular-2013" x="244.399948"/>
     <use xlink:href="#STIXGeneral-Regular-4c" x="294.399933"/>
     <use xlink:href="#STIXGeneral-Regular-65" x="355.499924"/>
     <use xlink:href="#STIXGeneral-Regular-67" x="399.899918"/>
     <use xlink:href="#STIXGeneral-Regular-65" x="449.899902"/>
     <use xlink:href="#STIXGeneral-Regular-6e" x="494.299896"/>
     <use xlink:href="#STIXGeneral-Regular-64" x="544.299881"/>
     <use xlink:href="#STIXGeneral-Regular-72" x="594.299866"/>
     <use xlink:href="#STIXGeneral-Regular-65" x="627.599854"/>
    </g>
   </g>
   <g id="text_28">
    <!-- (b) error collapse for $\int_{-1}^1 e^{x}\,dx$ -->
    <g transform="translate(347.814545 28.2) scale(0.12 -0.12)">
     <defs>
      <path id="Cmex10-5a" d="M 678 -13894 
Q 838 -14053 1069 -14053 
Q 1300 -14053 1490 -13736 
Q 1681 -13419 1825 -12944 
Q 1969 -12469 2036 -12148 
Q 2103 -11828 2203 -11322 
Q 2294 -10850 2378 -10375 
Q 2463 -9900 2552 -9364 
Q 2641 -8828 2739 -8276 
Q 2838 -7725 2963 -7103 
Q 3131 -6284 3204 -5932 
Q 3278 -5581 3428 -4917 
Q 3578 -4253 3626 -4042 
Q 3675 -3831 3903 -2888 
L 3988 -2553 
Q 4131 -1991 4209 -1702 
Q 4288 -1413 4452 -995 
Q 4616 -578 4837 -289 
Q 5059 0 5325 0 
Q 5513 0 5673 -84 
Q 5834 -169 5934 -316 
Q 6034 -463 6034 -653 
Q 6034 -791 5943 -881 
Q 5853 -972 5716 -972 
Q 5575 -972 5481 -881 
Q 5388 -791 5388 -653 
Q 5388 -513 5481 -419 
Q 5575 -325 5716 -325 
Q 5550 -166 5331 -166 
Q 5213 -166 5070 -512 
Q 4928 -859 4808 -1329 
Q 4688 -1800 4623 -2114 
Q 4559 -2428 4469 -2900 
Q 4363 -3434 4292 -3831 
Q 4222 -4228 4122 -4812 
Q 4022 -5397 3926 -5925 
Q 3831 -6453 3700 -7116 
Q 3616 -7534 3456 -8292 
Q 3297 -9050 3245 -9278 
Q 3194 -9506 2983 -10393 
Q 2772 -11281 2759 -11334 
L 2681 -11628 
Q 2516 -12306 2348 -12820 
Q 2181 -13334 1857 -13778 
Q 1534 -14222 1069 -14222 
Q 791 -14222 575 -14034 
Q 359 -13847 359 -13575 
Q 359 -13434 453 -13340 
Q 547 -13247 684 -13247 
Q 775 -13247 848 -13290 
Q 922 -13334 964 -13409 
Q 1006 -13484 1006 -13575 
Q 1006 -13713 912 -13803 
Q 819 -13894 678 -13894 
z
" transform="scale(0.015625)"/>
      <path id="Cmmi10-65" d="M 1288 -72 
Q 981 -72 751 87 
Q 522 247 401 517 
Q 281 788 281 1088 
Q 281 1544 511 1945 
Q 741 2347 1134 2587 
Q 1528 2828 1978 2828 
Q 2253 2828 2458 2686 
Q 2663 2544 2663 2278 
Q 2663 1909 2369 1729 
Q 2075 1550 1706 1508 
Q 1338 1466 891 1466 
L 872 1466 
Q 769 1084 769 813 
Q 769 528 900 312 
Q 1031 97 1300 97 
Q 1681 97 2032 272 
Q 2384 447 2606 756 
Q 2625 775 2656 775 
Q 2688 775 2720 739 
Q 2753 703 2753 672 
Q 2753 647 2741 634 
Q 2506 306 2109 117 
Q 1713 -72 1288 -72 
z
M 909 1631 
Q 1281 1631 1597 1665 
Q 1913 1700 2169 1839 
Q 2425 1978 2425 2272 
Q 2425 2391 2359 2480 
Q 2294 2569 2189 2616 
Q 2084 2663 1972 2663 
Q 1700 2663 1483 2516 
Q 1266 2369 1125 2133 
Q 984 1897 909 1631 
z
" transform="scale(0.015625)"/>
      <path id="Cmmi10-78" d="M 500 184 
Q 613 97 819 97 
Q 1019 97 1172 289 
Q 1325 481 1381 709 
L 1672 1844 
Q 1741 2153 1741 2266 
Q 1741 2425 1652 2544 
Q 1563 2663 1403 2663 
Q 1200 2663 1022 2536 
Q 844 2409 722 2214 
Q 600 2019 550 1819 
Q 538 1778 500 1778 
L 422 1778 
Q 372 1778 372 1838 
L 372 1856 
Q 434 2094 584 2320 
Q 734 2547 951 2687 
Q 1169 2828 1416 2828 
Q 1650 2828 1839 2703 
Q 2028 2578 2106 2363 
Q 2216 2559 2386 2693 
Q 2556 2828 2759 2828 
Q 2897 2828 3040 2779 
Q 3184 2731 3275 2631 
Q 3366 2531 3366 2381 
Q 3366 2219 3261 2101 
Q 3156 1984 2994 1984 
Q 2891 1984 2822 2050 
Q 2753 2116 2753 2216 
Q 2753 2350 2845 2451 
Q 2938 2553 3066 2572 
Q 2950 2663 2747 2663 
Q 2541 2663 2389 2472 
Q 2238 2281 2175 2047 
L 1894 916 
Q 1825 659 1825 494 
Q 1825 331 1917 214 
Q 2009 97 2163 97 
Q 2463 97 2698 361 
Q 2934 625 3009 941 
Q 3022 978 3059 978 
L 3138 978 
Q 3163 978 3178 961 
Q 3194 944 3194 922 
Q 3194 916 3188 903 
Q 3097 522 2806 225 
Q 2516 -72 2150 -72 
Q 1916 -72 1727 54 
Q 1538 181 1459 397 
Q 1359 209 1182 68 
Q 1006 -72 806 -72 
Q 669 -72 523 -23 
Q 378 25 287 125 
Q 197 225 197 378 
Q 197 528 301 651 
Q 406 775 563 775 
Q 669 775 741 711 
Q 813 647 813 544 
Q 813 409 723 309 
Q 634 209 500 184 
z
" transform="scale(0.015625)"/>
      <path id="Cmmi10-64" d="M 1113 -72 
Q 709 -72 476 233 
Q 244 538 244 953 
Q 244 1363 456 1803 
Q 669 2244 1030 2536 
Q 1391 2828 1806 2828 
Q 1994 2828 2145 2723 
Q 2297 2619 2381 2444 
L 2741 3872 
Q 2766 3981 2772 4044 
Q 2772 4147 2356 4147 
Q 2291 4147 2291 4231 
Q 2294 4247 2305 4287 
Q 2316 4328 2333 4350 
Q 2350 4372 2381 4372 
L 3244 4441 
Q 3322 4441 3322 4359 
L 2400 678 
Q 2356 572 2356 372 
Q 2356 97 2541 97 
Q 2741 97 2845 351 
Q 2950 606 3022 941 
Q 3034 978 3072 978 
L 3150 978 
Q 3175 978 3190 956 
Q 3206 934 3206 916 
Q 3094 469 2961 198 
Q 2828 -72 2528 -72 
Q 2313 -72 2147 54 
Q 1981 181 1941 391 
Q 1528 -72 1113 -72 
z
M 1119 97 
Q 1350 97 1567 270 
Q 1784 444 1941 678 
Q 1947 684 1947 703 
L 2297 2113 
Q 2259 2338 2131 2500 
Q 2003 2663 1791 2663 
Q 1575 2663 1389 2486 
Q 1203 2309 1075 2069 
Q 950 1813 836 1366 
Q 722 919 722 672 
Q 722 450 817 273 
Q 913 97 1119 97 
z
" transform="scale(0.015625)"/>
     </defs>
     <use xlink:href="#STIXGeneral-Regular-28" transform="translate(0 0.936979)"/>
     <use xlink:href="#STIXGeneral-Regular-62" transform="translate(33.299988 0.936979)"/>
     <use xlink:href="#STIXGeneral-Regular-29" transform="translate(83.299973 0.936979)"/>
     <use xlink:href="#STIXGeneral-Regular-20" transform="translate(116.59996 0.936979)"/>
     <use xlink:href="#STIXGeneral-Regular-65" transform="translate(141.599945 0.936979)"/>
     <use xlink:href="#STIXGeneral-Regular-72" transform="translate(185.999939 0.936979)"/>
     <use xlink:href="#STIXGeneral-Regular-72" transform="translate(219.299927 0.936979)"/>
     <use xlink:href="#STIXGeneral-Regular-6f" transform="translate(252.599915 0.936979)"/>
     <use xlink:href="#STIXGeneral-Regular-72" transform="translate(302.599899 0.936979)"/>
     <use xlink:href="#STIXGeneral-Regular-20" transform="translate(335.899887 0.936979)"/>
     <use xlink:href="#STIXGeneral-Regular-63" transform="translate(360.899872 0.936979)"/>
     <use xlink:href="#STIXGeneral-Regular-6f" transform="translate(405.299866 0.936979)"/>
     <use xlink:href="#STIXGeneral-Regular-6c" transform="translate(455.29985 0.936979)"/>
     <use xlink:href="#STIXGeneral-Regular-6c" transform="translate(483.099838 0.936979)"/>
     <use xlink:href="#STIXGeneral-Regular-61" transform="translate(510.899826 0.936979)"/>
     <use xlink:href="#STIXGeneral-Regular-70" transform="translate(555.29982 0.936979)"/>
     <use xlink:href="#STIXGeneral-Regular-73" transform="translate(605.299805 0.936979)"/>
     <use xlink:href="#STIXGeneral-Regular-65" transform="translate(644.199799 0.936979)"/>
     <use xlink:href="#STIXGeneral-Regular-20" transform="translate(688.599792 0.936979)"/>
     <use xlink:href="#STIXGeneral-Regular-66" transform="translate(713.599777 0.936979)"/>
     <use xlink:href="#STIXGeneral-Regular-6f" transform="translate(746.899765 0.936979)"/>
     <use xlink:href="#STIXGeneral-Regular-72" transform="translate(796.89975 0.936979)"/>
     <use xlink:href="#STIXGeneral-Regular-20" transform="translate(830.199738 0.936979)"/>
     <use xlink:href="#Cmex10-5a" transform="translate(855.199722 145.379688)"/>
     <use xlink:href="#Cmr10-31" transform="translate(963.799996 128.373437) scale(0.7)"/>
     <use xlink:href="#Cmsy10-a1" transform="translate(903.134058 -93.845312) scale(0.7)"/>
     <use xlink:href="#Cmr10-31" transform="translate(957.513941 -93.845312) scale(0.7)"/>
     <use xlink:href="#Cmmi10-65" transform="translate(998.799996 0.936979)"/>
     <use xlink:href="#Cmmi10-78" transform="translate(1051.587652 39.201042) scale(0.7)"/>
     <use xlink:href="#Cmmi10-64" transform="translate(1112.553505 0.936979)"/>
     <use xlink:href="#Cmmi10-78" transform="translate(1164.555458 0.936979)"/>
    </g>
   </g>
   <g id="line2d_29">
    <path d="M 310.45686 50.184 
L 332.592397 50.184 
L 354.727934 66.585882 
L 376.863471 66.585882 
L 398.999008 76.382827 
L 421.134545 76.382827 
L 443.270083 83.369263 
L 465.40562 83.369263 
L 487.541157 88.799271 
L 509.676694 88.799271 
L 531.812231 93.240352 
" clip-path="url(#p792d56e374)" style="fill: none; stroke: #56b4e9; stroke-width: 1.8; stroke-linecap: square"/>
    <defs>
     <path id="m54ad3492a1" d="M 0 2.5 
C 0.663008 2.5 1.29895 2.236584 1.767767 1.767767 
C 2.236584 1.29895 2.5 0.663008 2.5 0 
C 2.5 -0.663008 2.236584 -1.29895 1.767767 -1.767767 
C 1.29895 -2.236584 0.663008 -2.5 0 -2.5 
C -0.663008 -2.5 -1.29895 -2.236584 -1.767767 -1.767767 
C -2.236584 -1.29895 -2.5 -0.663008 -2.5 0 
C -2.5 0.663008 -2.236584 1.29895 -1.767767 1.767767 
C -1.29895 2.236584 -0.663008 2.5 0 2.5 
z
" style="stroke: #56b4e9"/>
    </defs>
    <g clip-path="url(#p792d56e374)">
     <use xlink:href="#m54ad3492a1" x="310.45686" y="50.184" style="fill: #56b4e9; stroke: #56b4e9"/>
     <use xlink:href="#m54ad3492a1" x="332.592397" y="50.184" style="fill: #56b4e9; stroke: #56b4e9"/>
     <use xlink:href="#m54ad3492a1" x="354.727934" y="66.585882" style="fill: #56b4e9; stroke: #56b4e9"/>
     <use xlink:href="#m54ad3492a1" x="376.863471" y="66.585882" style="fill: #56b4e9; stroke: #56b4e9"/>
     <use xlink:href="#m54ad3492a1" x="398.999008" y="76.382827" style="fill: #56b4e9; stroke: #56b4e9"/>
     <use xlink:href="#m54ad3492a1" x="421.134545" y="76.382827" style="fill: #56b4e9; stroke: #56b4e9"/>
     <use xlink:href="#m54ad3492a1" x="443.270083" y="83.369263" style="fill: #56b4e9; stroke: #56b4e9"/>
     <use xlink:href="#m54ad3492a1" x="465.40562" y="83.369263" style="fill: #56b4e9; stroke: #56b4e9"/>
     <use xlink:href="#m54ad3492a1" x="487.541157" y="88.799271" style="fill: #56b4e9; stroke: #56b4e9"/>
     <use xlink:href="#m54ad3492a1" x="509.676694" y="88.799271" style="fill: #56b4e9; stroke: #56b4e9"/>
     <use xlink:href="#m54ad3492a1" x="531.812231" y="93.240352" style="fill: #56b4e9; stroke: #56b4e9"/>
    </g>
   </g>
   <g id="line2d_30">
    <path d="M 310.45686 52.706381 
L 332.592397 81.801876 
L 354.727934 114.762091 
L 376.863471 150.640835 
L 398.999008 188.871704 
L 421.134545 234.487908 
L 443.270083 261.864 
L 465.40562 261.864 
L 487.541157 238.717327 
L 509.676694 234.487908 
L 531.812231 261.864 
" clip-path="url(#p792d56e374)" style="fill: none; stroke: #d55e00; stroke-width: 1.8; stroke-linecap: square"/>
    <defs>
     <path id="m619a243207" d="M 0 2.5 
C 0.663008 2.5 1.29895 2.236584 1.767767 1.767767 
C 2.236584 1.29895 2.5 0.663008 2.5 0 
C 2.5 -0.663008 2.236584 -1.29895 1.767767 -1.767767 
C 1.29895 -2.236584 0.663008 -2.5 0 -2.5 
C -0.663008 -2.5 -1.29895 -2.236584 -1.767767 -1.767767 
C -2.236584 -1.29895 -2.5 -0.663008 -2.5 0 
C -2.5 0.663008 -2.236584 1.29895 -1.767767 1.767767 
C -1.29895 2.236584 -0.663008 2.5 0 2.5 
z
" style="stroke: #d55e00"/>
    </defs>
    <g clip-path="url(#p792d56e374)">
     <use xlink:href="#m619a243207" x="310.45686" y="52.706381" style="fill: #d55e00; stroke: #d55e00"/>
     <use xlink:href="#m619a243207" x="332.592397" y="81.801876" style="fill: #d55e00; stroke: #d55e00"/>
     <use xlink:href="#m619a243207" x="354.727934" y="114.762091" style="fill: #d55e00; stroke: #d55e00"/>
     <use xlink:href="#m619a243207" x="376.863471" y="150.640835" style="fill: #d55e00; stroke: #d55e00"/>
     <use xlink:href="#m619a243207" x="398.999008" y="188.871704" style="fill: #d55e00; stroke: #d55e00"/>
     <use xlink:href="#m619a243207" x="421.134545" y="234.487908" style="fill: #d55e00; stroke: #d55e00"/>
     <use xlink:href="#m619a243207" x="443.270083" y="261.864" style="fill: #d55e00; stroke: #d55e00"/>
     <use xlink:href="#m619a243207" x="465.40562" y="261.864" style="fill: #d55e00; stroke: #d55e00"/>
     <use xlink:href="#m619a243207" x="487.541157" y="238.717327" style="fill: #d55e00; stroke: #d55e00"/>
     <use xlink:href="#m619a243207" x="509.676694" y="234.487908" style="fill: #d55e00; stroke: #d55e00"/>
     <use xlink:href="#m619a243207" x="531.812231" y="261.864" style="fill: #d55e00; stroke: #d55e00"/>
    </g>
   </g>
  </g>
 </g>
 <defs>
  <clipPath id="p46f672c8df">
   <rect x="7.2" y="39.6" width="243.490909" height="232.848"/>
  </clipPath>
  <clipPath id="p792d56e374">
   <rect x="299.389091" y="39.6" width="243.490909" height="232.848"/>
  </clipPath>
 </defs>
</svg>
