<?xml version="1.0" encoding="utf-8" standalone="no"?>
<!DOCTYPE svg PUBLIC "-//W3C//DTD SVG 1.1//EN"
  "http://www.w3.org/Graphics/SVG/1.1/DTD/svg11.dtd">
<svg xmlns:xlink="http://www.w3.org/1999/xlink" width="564.92pt" height="295.487625pt" viewBox="0 0 564.92 295.487625" xmlns="http://www.w3.org/2000/svg" version="1.1">
 <metadata>
  <rdf:RDF xmlns:dc="http://purl.org/dc/elements/1.1/" xmlns:cc="http://creativecommons.org/ns#" xmlns:rdf="http://www.w3.org/1999/02/22-rdf-syntax-ns#">
   <cc:Work>
    <dc:type rdf:resource="http://purl.org/dc/dcmitype/StillImage"/>
    <dc:date>2026-07-17T21:04:24.040460</dc:date>
    <dc:format>image/svg+xml</dc:format>
    <dc:creator>
     <cc:Agent>
      <dc:title>Matplotlib v3.9.4, https://matplotlib.org/</dc:title>
     </cc:Agent>
    </dc:creator>
   </cc:Work>
  </rdf:RDF>
 </metadata>
 <defs>
  <style type="text/css">*{stroke-linejoin: round; stroke-linecap: butt}</style>
 </defs>
 <g id="figure_1">
  <g id="patch_1">
   <path d="M 0 295.487625 
L 564.92 295.487625 
L 564.92 0 
L 0 0 
z
" style="fill: #ffffff"/>
  </g>
  <g id="axes_1">
   <g id="patch_2">
    <path d="M 33.2 259.787625 
L 271.618182 259.787625 
L 271.618182 21.395625 
L 33.2 21.395625 
z
" style="fill: #ffffff"/>
   </g>
   <g id="PolyCollection_1">
    <defs>
     <path id="mb4eb2c90c7" d="M 44.03719 -64.08 
L 44.03719 -35.7 
L 44.580408 -35.7 
L 45.123625 -35.7 
L 45.666843 -35.7 
L 46.21006 -35.7 
L 46.753278 -35.7 
L 47.296495 -35.7 
L 47.839713 -35.7 
L 48.38293 -35.7 
L 48.926148 -35.7 
L 49.469366 -35.7 
L 50.012583 -35.7 
L 50.555801 -35.7 
L 51.099018 -35.7 
L 51.642236 -35.7 
L 52.185453 -35.7 
L 52.728671 -35.7 
L 53.271888 -35.7 
L 53.815106 -35.7 
L 54.358323 -35.7 
L 54.901541 -35.7 
L 55.444759 -35.7 
L 55.987976 -35.7 
L 56.531194 -35.7 
L 57.074411 -35.7 
L 57.617629 -35.7 
L 58.160846 -35.7 
L 58.704064 -35.7 
L 59.247281 -35.7 
L 59.790499 -35.7 
L 60.333717 -35.7 
L 60.876934 -35.7 
L 61.420152 -35.7 
L 61.963369 -35.7 
L 62.506587 -35.7 
L 63.049804 -35.7 
L 63.593022 -35.7 
L 64.136239 -35.7 
L 64.679457 -35.7 
L 65.222674 -35.7 
L 65.765892 -35.7 
L 66.30911 -35.7 
L 66.852327 -35.7 
L 67.395545 -35.7 
L 67.938762 -35.7 
L 68.48198 -35.7 
L 69.025197 -35.7 
L 69.568415 -35.7 
L 70.111632 -35.7 
L 70.65485 -35.7 
L 71.198067 -35.7 
L 71.741285 -35.7 
L 72.284503 -35.7 
L 72.82772 -35.7 
L 73.370938 -35.7 
L 73.914155 -35.7 
L 74.457373 -35.7 
L 75.00059 -35.7 
L 75.543808 -35.7 
L 76.087025 -35.7 
L 76.630243 -35.7 
L 77.173461 -35.7 
L 77.716678 -35.7 
L 78.259896 -35.7 
L 78.803113 -35.7 
L 79.346331 -35.7 
L 79.889548 -35.7 
L 80.432766 -35.7 
L 80.975983 -35.7 
L 81.519201 -35.7 
L 82.062418 -35.7 
L 82.605636 -35.7 
L 83.148854 -35.7 
L 83.692071 -35.7 
L 84.235289 -35.7 
L 84.778506 -35.7 
L 85.321724 -35.7 
L 85.864941 -35.7 
L 86.408159 -35.7 
L 86.951376 -35.7 
L 87.494594 -35.7 
L 88.037811 -35.7 
L 88.581029 -35.7 
L 89.124247 -35.7 
L 89.667464 -35.7 
L 90.210682 -35.7 
L 90.753899 -35.7 
L 91.297117 -35.7 
L 91.840334 -35.7 
L 92.383552 -35.7 
L 92.926769 -35.7 
L 93.469987 -35.7 
L 94.013204 -35.7 
L 94.556422 -35.7 
L 95.09964 -35.7 
L 95.642857 -35.7 
L 96.186075 -35.7 
L 96.729292 -35.7 
L 97.27251 -35.7 
L 97.815727 -35.7 
L 98.358945 -35.7 
L 98.902162 -35.7 
L 99.44538 -35.7 
L 99.988598 -35.7 
L 100.531815 -35.7 
L 101.075033 -35.7 
L 101.61825 -35.7 
L 102.161468 -35.7 
L 102.704685 -35.7 
L 103.247903 -35.7 
L 103.79112 -35.7 
L 104.334338 -35.7 
L 104.877555 -35.7 
L 105.420773 -35.7 
L 105.963991 -35.7 
L 106.507208 -35.7 
L 107.050426 -35.7 
L 107.593643 -35.7 
L 108.136861 -35.7 
L 108.680078 -35.7 
L 109.223296 -35.7 
L 109.766513 -35.7 
L 110.309731 -35.7 
L 110.852948 -35.7 
L 111.396166 -35.7 
L 111.939384 -35.7 
L 112.482601 -35.7 
L 113.025819 -35.7 
L 113.569036 -35.7 
L 114.112254 -35.7 
L 114.655471 -35.7 
L 115.198689 -35.7 
L 115.741906 -35.7 
L 116.285124 -35.7 
L 116.828342 -35.7 
L 117.371559 -35.7 
L 117.914777 -35.7 
L 118.457994 -35.7 
L 119.001212 -35.7 
L 119.544429 -35.7 
L 120.087647 -35.7 
L 120.630864 -35.7 
L 121.174082 -35.7 
L 121.717299 -35.7 
L 122.260517 -35.7 
L 122.803735 -35.7 
L 123.346952 -35.7 
L 123.89017 -35.7 
L 124.433387 -35.7 
L 124.976605 -35.7 
L 125.519822 -35.7 
L 126.06304 -35.7 
L 126.606257 -35.7 
L 127.149475 -35.7 
L 127.692692 -35.7 
L 128.23591 -35.7 
L 128.779128 -35.7 
L 129.322345 -35.7 
L 129.865563 -35.7 
L 130.40878 -35.7 
L 130.951998 -35.7 
L 131.495215 -35.7 
L 132.038433 -35.7 
L 132.58165 -35.7 
L 133.124868 -35.7 
L 133.668086 -35.7 
L 134.211303 -35.7 
L 134.754521 -35.7 
L 135.297738 -35.7 
L 135.840956 -35.7 
L 136.384173 -35.7 
L 136.927391 -35.7 
L 137.470608 -35.7 
L 138.013826 -35.7 
L 138.557043 -35.7 
L 139.100261 -35.7 
L 139.643479 -35.7 
L 140.186696 -35.7 
L 140.729914 -35.7 
L 141.273131 -35.7 
L 141.816349 -35.7 
L 142.359566 -35.7 
L 142.902784 -35.7 
L 143.446001 -35.7 
L 143.989219 -35.7 
L 144.532436 -35.7 
L 145.075654 -35.7 
L 145.618872 -35.7 
L 146.162089 -35.7 
L 146.705307 -35.7 
L 147.248524 -35.7 
L 147.791742 -35.7 
L 148.334959 -35.7 
L 148.878177 -35.7 
L 149.421394 -35.7 
L 149.964612 -35.7 
L 150.507829 -35.7 
L 151.051047 -35.7 
L 151.594265 -35.7 
L 152.137482 -35.7 
L 152.6807 -35.7 
L 153.223917 -35.7 
L 153.767135 -35.7 
L 154.310352 -35.7 
L 154.85357 -35.7 
L 155.396787 -35.7 
L 155.940005 -35.7 
L 156.483223 -35.7 
L 157.02644 -35.7 
L 157.569658 -35.7 
L 158.112875 -35.7 
L 158.656093 -35.7 
L 159.19931 -35.7 
L 159.742528 -35.7 
L 160.285745 -35.7 
L 160.828963 -35.7 
L 161.37218 -35.7 
L 161.915398 -35.7 
L 162.458616 -35.7 
L 163.001833 -35.7 
L 163.545051 -35.7 
L 164.088268 -35.7 
L 164.631486 -35.7 
L 165.174703 -35.7 
L 165.717921 -35.7 
L 166.261138 -35.7 
L 166.804356 -35.7 
L 167.347573 -35.7 
L 167.890791 -35.7 
L 168.434009 -35.7 
L 168.977226 -35.7 
L 169.520444 -35.7 
L 170.063661 -35.7 
L 170.606879 -35.7 
L 171.150096 -35.7 
L 171.693314 -35.7 
L 172.236531 -35.7 
L 172.779749 -35.7 
L 173.322967 -35.7 
L 173.866184 -35.7 
L 174.409402 -35.7 
L 174.952619 -35.7 
L 175.495837 -35.7 
L 176.039054 -35.7 
L 176.582272 -35.7 
L 177.125489 -35.7 
L 177.668707 -35.7 
L 178.211924 -35.7 
L 178.755142 -35.7 
L 179.29836 -35.7 
L 179.841577 -35.7 
L 180.384795 -35.7 
L 180.928012 -35.7 
L 181.47123 -35.7 
L 182.014447 -35.7 
L 182.557665 -35.7 
L 183.100882 -35.7 
L 183.6441 -35.7 
L 184.187317 -35.7 
L 184.730535 -35.7 
L 185.273753 -35.7 
L 185.81697 -35.7 
L 186.360188 -35.7 
L 186.903405 -35.7 
L 187.446623 -35.7 
L 187.98984 -35.7 
L 188.533058 -35.7 
L 189.076275 -35.7 
L 189.619493 -35.7 
L 190.16271 -35.7 
L 190.705928 -35.7 
L 191.249146 -35.7 
L 191.792363 -35.7 
L 192.335581 -35.7 
L 192.878798 -35.7 
L 193.422016 -35.7 
L 193.965233 -35.7 
L 194.508451 -35.7 
L 195.051668 -35.7 
L 195.594886 -35.7 
L 196.138104 -35.7 
L 196.681321 -35.7 
L 197.224539 -35.7 
L 197.767756 -35.7 
L 198.310974 -35.7 
L 198.854191 -35.7 
L 199.397409 -35.7 
L 199.940626 -35.7 
L 200.483844 -35.7 
L 201.027061 -35.7 
L 201.570279 -35.7 
L 202.113497 -35.7 
L 202.656714 -35.7 
L 203.199932 -35.7 
L 203.743149 -35.7 
L 204.286367 -35.7 
L 204.829584 -35.7 
L 205.372802 -35.7 
L 205.916019 -35.7 
L 206.459237 -35.7 
L 207.002454 -35.7 
L 207.545672 -35.7 
L 208.08889 -35.7 
L 208.632107 -35.7 
L 209.175325 -35.7 
L 209.718542 -35.7 
L 210.26176 -35.7 
L 210.804977 -35.7 
L 211.348195 -35.7 
L 211.891412 -35.7 
L 212.43463 -35.7 
L 212.977848 -35.7 
L 213.521065 -35.7 
L 214.064283 -35.7 
L 214.6075 -35.7 
L 215.150718 -35.7 
L 215.693935 -35.7 
L 216.237153 -35.7 
L 216.78037 -35.7 
L 217.323588 -35.7 
L 217.866805 -35.7 
L 218.410023 -35.7 
L 218.953241 -35.7 
L 219.496458 -35.7 
L 220.039676 -35.7 
L 220.582893 -35.7 
L 221.126111 -35.7 
L 221.669328 -35.7 
L 222.212546 -35.7 
L 222.755763 -35.7 
L 223.298981 -35.7 
L 223.842198 -35.7 
L 224.385416 -35.7 
L 224.928634 -35.7 
L 225.471851 -35.7 
L 226.015069 -35.7 
L 226.558286 -35.7 
L 227.101504 -35.7 
L 227.644721 -35.7 
L 228.187939 -35.7 
L 228.731156 -35.7 
L 229.274374 -35.7 
L 229.817591 -35.7 
L 230.360809 -35.7 
L 230.904027 -35.7 
L 231.447244 -35.7 
L 231.990462 -35.7 
L 232.533679 -35.7 
L 233.076897 -35.7 
L 233.620114 -35.7 
L 234.163332 -35.7 
L 234.706549 -35.7 
L 235.249767 -35.7 
L 235.792985 -35.7 
L 236.336202 -35.7 
L 236.87942 -35.7 
L 237.422637 -35.7 
L 237.965855 -35.7 
L 238.509072 -35.7 
L 239.05229 -35.7 
L 239.595507 -35.7 
L 240.138725 -35.7 
L 240.681942 -35.7 
L 241.22516 -35.7 
L 241.768378 -35.7 
L 242.311595 -35.7 
L 242.854813 -35.7 
L 243.39803 -35.7 
L 243.941248 -35.7 
L 244.484465 -35.7 
L 245.027683 -35.7 
L 245.5709 -35.7 
L 246.114118 -35.7 
L 246.657335 -35.7 
L 247.200553 -35.7 
L 247.743771 -35.7 
L 248.286988 -35.7 
L 248.830206 -35.7 
L 249.373423 -35.7 
L 249.916641 -35.7 
L 250.459858 -35.7 
L 251.003076 -35.7 
L 251.546293 -35.7 
L 252.089511 -35.7 
L 252.632729 -35.7 
L 253.175946 -35.7 
L 253.719164 -35.7 
L 254.262381 -35.7 
L 254.805599 -35.7 
L 255.348816 -35.7 
L 255.892034 -35.7 
L 256.435251 -35.7 
L 256.978469 -35.7 
L 257.521686 -35.7 
L 258.064904 -35.7 
L 258.608122 -35.7 
L 259.151339 -35.7 
L 259.694557 -35.7 
L 260.237774 -35.7 
L 260.780992 -35.7 
L 260.780992 -245.401412 
L 260.780992 -245.401412 
L 260.237774 -244.946972 
L 259.694557 -244.492533 
L 259.151339 -244.038093 
L 258.608122 -243.583654 
L 258.064904 -243.129214 
L 257.521686 -242.674774 
L 256.978469 -242.220335 
L 256.435251 -241.765895 
L 255.892034 -241.311455 
L 255.348816 -240.857016 
L 254.805599 -240.402576 
L 254.262381 -239.948137 
L 253.719164 -239.493697 
L 253.175946 -239.039257 
L 252.632729 -238.584818 
L 252.089511 -238.130378 
L 251.546293 -237.675938 
L 251.003076 -237.221499 
L 250.459858 -236.767059 
L 249.916641 -236.31262 
L 249.373423 -235.85818 
L 248.830206 -235.40374 
L 248.286988 -234.949301 
L 247.743771 -234.494861 
L 247.200553 -234.040421 
L 246.657335 -233.585982 
L 246.114118 -233.131542 
L 245.5709 -232.677102 
L 245.027683 -232.222663 
L 244.484465 -231.768223 
L 243.941248 -231.313784 
L 243.39803 -230.859344 
L 242.854813 -230.404904 
L 242.311595 -229.950465 
L 241.768378 -229.496025 
L 241.22516 -229.041585 
L 240.681942 -228.587146 
L 240.138725 -228.132706 
L 239.595507 -227.678267 
L 239.05229 -227.223827 
L 238.509072 -226.769387 
L 237.965855 -226.314948 
L 237.422637 -225.860508 
L 236.87942 -225.406068 
L 236.336202 -224.951629 
L 235.792985 -224.497189 
L 235.249767 -224.04275 
L 234.706549 -223.58831 
L 234.163332 -223.13387 
L 233.620114 -222.679431 
L 233.076897 -222.224991 
L 232.533679 -221.770551 
L 231.990462 -221.316112 
L 231.447244 -220.861672 
L 230.904027 -220.407232 
L 230.360809 -219.952793 
L 229.817591 -219.498353 
L 229.274374 -219.043914 
L 228.731156 -218.589474 
L 228.187939 -218.135034 
L 227.644721 -217.680595 
L 227.101504 -217.226155 
L 226.558286 -216.771715 
L 226.015069 -216.317276 
L 225.471851 -215.862836 
L 224.928634 -215.408397 
L 224.385416 -214.953957 
L 223.842198 -214.499517 
L 223.298981 -214.045078 
L 222.755763 -213.590638 
L 222.212546 -213.136198 
L 221.669328 -212.681759 
L 221.126111 -212.227319 
L 220.582893 -211.77288 
L 220.039676 -211.31844 
L 219.496458 -210.864 
L 218.953241 -210.409561 
L 218.410023 -209.955121 
L 217.866805 -209.500681 
L 217.323588 -209.046242 
L 216.78037 -208.591802 
L 216.237153 -208.137362 
L 215.693935 -207.682923 
L 215.150718 -207.228483 
L 214.6075 -206.774044 
L 214.064283 -206.319604 
L 213.521065 -205.865164 
L 212.977848 -205.410725 
L 212.43463 -204.956285 
L 211.891412 -204.501845 
L 211.348195 -204.047406 
L 210.804977 -203.592966 
L 210.26176 -203.138527 
L 209.718542 -202.684087 
L 209.175325 -202.229647 
L 208.632107 -201.775208 
L 208.08889 -201.320768 
L 207.545672 -200.866328 
L 207.002454 -200.411889 
L 206.459237 -199.957449 
L 205.916019 -199.50301 
L 205.372802 -199.04857 
L 204.829584 -198.59413 
L 204.286367 -198.139691 
L 203.743149 -197.685251 
L 203.199932 -197.230811 
L 202.656714 -196.776372 
L 202.113497 -196.321932 
L 201.570279 -195.867492 
L 201.027061 -195.413053 
L 200.483844 -194.958613 
L 199.940626 -194.504174 
L 199.397409 -194.049734 
L 198.854191 -193.595294 
L 198.310974 -193.140855 
L 197.767756 -192.686415 
L 197.224539 -192.231975 
L 196.681321 -191.777536 
L 196.138104 -191.323096 
L 195.594886 -190.868657 
L 195.051668 -190.414217 
L 194.508451 -189.959777 
L 193.965233 -189.505338 
L 193.422016 -189.050898 
L 192.878798 -188.596458 
L 192.335581 -188.142019 
L 191.792363 -187.687579 
L 191.249146 -187.23314 
L 190.705928 -186.7787 
L 190.16271 -186.32426 
L 189.619493 -185.869821 
L 189.076275 -185.415381 
L 188.533058 -184.960941 
L 187.98984 -184.506502 
L 187.446623 -184.052062 
L 186.903405 -183.597623 
L 186.360188 -183.143183 
L 185.81697 -182.688743 
L 185.273753 -182.234304 
L 184.730535 -181.779864 
L 184.187317 -181.325424 
L 183.6441 -180.870985 
L 183.100882 -180.416545 
L 182.557665 -179.962105 
L 182.014447 -179.507666 
L 181.47123 -179.053226 
L 180.928012 -178.598787 
L 180.384795 -178.144347 
L 179.841577 -177.689907 
L 179.29836 -177.235468 
L 178.755142 -176.781028 
L 178.211924 -176.326588 
L 177.668707 -175.872149 
L 177.125489 -175.417709 
L 176.582272 -174.96327 
L 176.039054 -174.50883 
L 175.495837 -174.05439 
L 174.952619 -173.599951 
L 174.409402 -173.145511 
L 173.866184 -172.691071 
L 173.322967 -172.236632 
L 172.779749 -171.782192 
L 172.236531 -171.327753 
L 171.693314 -170.873313 
L 171.150096 -170.418873 
L 170.606879 -169.964434 
L 170.063661 -169.509994 
L 169.520444 -169.055554 
L 168.977226 -168.601115 
L 168.434009 -168.146675 
L 167.890791 -167.692235 
L 167.347573 -167.237796 
L 166.804356 -166.783356 
L 166.261138 -166.328917 
L 165.717921 -165.874477 
L 165.174703 -165.420037 
L 164.631486 -164.965598 
L 164.088268 -164.511158 
L 163.545051 -164.056718 
L 163.001833 -163.602279 
L 162.458616 -163.147839 
L 161.915398 -162.6934 
L 161.37218 -162.23896 
L 160.828963 -161.78452 
L 160.285745 -161.330081 
L 159.742528 -160.875641 
L 159.19931 -160.421201 
L 158.656093 -159.966762 
L 158.112875 -159.512322 
L 157.569658 -159.057883 
L 157.02644 -158.603443 
L 156.483223 -158.149003 
L 155.940005 -157.694564 
L 155.396787 -157.240124 
L 154.85357 -156.785684 
L 154.310352 -156.331245 
L 153.767135 -155.876805 
L 153.223917 -155.422365 
L 152.6807 -154.967926 
L 152.137482 -154.513486 
L 151.594265 -154.059047 
L 151.051047 -153.604607 
L 150.507829 -153.150167 
L 149.964612 -152.695728 
L 149.421394 -152.241288 
L 148.878177 -151.786848 
L 148.334959 -151.332409 
L 147.791742 -150.877969 
L 147.248524 -150.42353 
L 146.705307 -149.96909 
L 146.162089 -149.51465 
L 145.618872 -149.060211 
L 145.075654 -148.605771 
L 144.532436 -148.151331 
L 143.989219 -147.696892 
L 143.446001 -147.242452 
L 142.902784 -146.788013 
L 142.359566 -146.333573 
L 141.816349 -145.879133 
L 141.273131 -145.424694 
L 140.729914 -144.970254 
L 140.186696 -144.515814 
L 139.643479 -144.061375 
L 139.100261 -143.606935 
L 138.557043 -143.152495 
L 138.013826 -142.698056 
L 137.470608 -142.243616 
L 136.927391 -141.789177 
L 136.384173 -141.334737 
L 135.840956 -140.880297 
L 135.297738 -140.425858 
L 134.754521 -139.971418 
L 134.211303 -139.516978 
L 133.668086 -139.062539 
L 133.124868 -138.608099 
L 132.58165 -138.15366 
L 132.038433 -137.69922 
L 131.495215 -137.24478 
L 130.951998 -136.790341 
L 130.40878 -136.335901 
L 129.865563 -135.881461 
L 129.322345 -135.427022 
L 128.779128 -134.972582 
L 128.23591 -134.518143 
L 127.692692 -134.063703 
L 127.149475 -133.609263 
L 126.606257 -133.154824 
L 126.06304 -132.700384 
L 125.519822 -132.245944 
L 124.976605 -131.791505 
L 124.433387 -131.337065 
L 123.89017 -130.882626 
L 123.346952 -130.428186 
L 122.803735 -129.973746 
L 122.260517 -129.519307 
L 121.717299 -129.064867 
L 121.174082 -128.610427 
L 120.630864 -128.155988 
L 120.087647 -127.701548 
L 119.544429 -127.247108 
L 119.001212 -126.792669 
L 118.457994 -126.338229 
L 117.914777 -125.88379 
L 117.371559 -125.42935 
L 116.828342 -124.97491 
L 116.285124 -124.520471 
L 115.741906 -124.066031 
L 115.198689 -123.611591 
L 114.655471 -123.157152 
L 114.112254 -122.702712 
L 113.569036 -122.248273 
L 113.025819 -121.793833 
L 112.482601 -121.339393 
L 111.939384 -120.884954 
L 111.396166 -120.430514 
L 110.852948 -119.976074 
L 110.309731 -119.521635 
L 109.766513 -119.067195 
L 109.223296 -118.612756 
L 108.680078 -118.158316 
L 108.136861 -117.703876 
L 107.593643 -117.249437 
L 107.050426 -116.794997 
L 106.507208 -116.340557 
L 105.963991 -115.886118 
L 105.420773 -115.431678 
L 104.877555 -114.977238 
L 104.334338 -114.522799 
L 103.79112 -114.068359 
L 103.247903 -113.61392 
L 102.704685 -113.15948 
L 102.161468 -112.70504 
L 101.61825 -112.250601 
L 101.075033 -111.796161 
L 100.531815 -111.341721 
L 99.988598 -110.887282 
L 99.44538 -110.432842 
L 98.902162 -109.978403 
L 98.358945 -109.523963 
L 97.815727 -109.069523 
L 97.27251 -108.615084 
L 96.729292 -108.160644 
L 96.186075 -107.706204 
L 95.642857 -107.251765 
L 95.09964 -106.797325 
L 94.556422 -106.342886 
L 94.013204 -105.888446 
L 93.469987 -105.434006 
L 92.926769 -104.979567 
L 92.383552 -104.525127 
L 91.840334 -104.070687 
L 91.297117 -103.616248 
L 90.753899 -103.161808 
L 90.210682 -102.707368 
L 89.667464 -102.252929 
L 89.124247 -101.798489 
L 88.581029 -101.34405 
L 88.037811 -100.88961 
L 87.494594 -100.43517 
L 86.951376 -99.980731 
L 86.408159 -99.526291 
L 85.864941 -99.071851 
L 85.321724 -98.617412 
L 84.778506 -98.162972 
L 84.235289 -97.708533 
L 83.692071 -97.254093 
L 83.148854 -96.799653 
L 82.605636 -96.345214 
L 82.062418 -95.890774 
L 81.519201 -95.436334 
L 80.975983 -94.981895 
L 80.432766 -94.527455 
L 79.889548 -94.073016 
L 79.346331 -93.618576 
L 78.803113 -93.164136 
L 78.259896 -92.709697 
L 77.716678 -92.255257 
L 77.173461 -91.800817 
L 76.630243 -91.346378 
L 76.087025 -90.891938 
L 75.543808 -90.437498 
L 75.00059 -89.983059 
L 74.457373 -89.528619 
L 73.914155 -89.07418 
L 73.370938 -88.61974 
L 72.82772 -88.1653 
L 72.284503 -87.710861 
L 71.741285 -87.256421 
L 71.198067 -86.801981 
L 70.65485 -86.347542 
L 70.111632 -85.893102 
L 69.568415 -85.438663 
L 69.025197 -84.984223 
L 68.48198 -84.529783 
L 67.938762 -84.075344 
L 67.395545 -83.620904 
L 66.852327 -83.166464 
L 66.30911 -82.712025 
L 65.765892 -82.257585 
L 65.222674 -81.803146 
L 64.679457 -81.348706 
L 64.136239 -80.894266 
L 63.593022 -80.439827 
L 63.049804 -79.985387 
L 62.506587 -79.530947 
L 61.963369 -79.076508 
L 61.420152 -78.622068 
L 60.876934 -78.167629 
L 60.333717 -77.713189 
L 59.790499 -77.258749 
L 59.247281 -76.80431 
L 58.704064 -76.34987 
L 58.160846 -75.89543 
L 57.617629 -75.440991 
L 57.074411 -74.986551 
L 56.531194 -74.532111 
L 55.987976 -74.077672 
L 55.444759 -73.623232 
L 54.901541 -73.168793 
L 54.358323 -72.714353 
L 53.815106 -72.259913 
L 53.271888 -71.805474 
L 52.728671 -71.351034 
L 52.185453 -70.896594 
L 51.642236 -70.442155 
L 51.099018 -69.987715 
L 50.555801 -69.533276 
L 50.012583 -69.078836 
L 49.469366 -68.624396 
L 48.926148 -68.169957 
L 48.38293 -67.715517 
L 47.839713 -67.261077 
L 47.296495 -66.806638 
L 46.753278 -66.352198 
L 46.21006 -65.897759 
L 45.666843 -65.443319 
L 45.123625 -64.988879 
L 44.580408 -64.53444 
L 44.03719 -64.08 
z
" style="stroke: #56b4e9; stroke-opacity: 0.25"/>
    </defs>
    <g clip-path="url(#p2bb7140a6d)">
     <use xlink:href="#mb4eb2c90c7" x="0" y="295.487625" style="fill: #56b4e9; fill-opacity: 0.25; stroke: #56b4e9; stroke-opacity: 0.25"/>
    </g>
   </g>
   <g id="matplotlib.axis_1">
    <g id="xtick_1">
     <g id="line2d_1">
      <defs>
       <path id="m5d1f9d765a" d="M 0 0 
L 0 3 
" style="stroke: #1f2328; stroke-width: 0.8"/>
      </defs>
      <g>
       <use xlink:href="#m5d1f9d765a" x="44.03719" y="259.787625" style="fill: #1f2328; stroke: #1f2328; stroke-width: 0.8"/>
      </g>
     </g>
     <g id="text_1">
      <!-- 0.0 -->
      <g style="fill: #1f2328" transform="translate(38.41219 272.434344) scale(0.09 -0.09)">
       <defs>
        <path id="STIXGeneral-Regular-30" d="M 3046 2112 
Q 3046 1683 2963 1302 
Q 2880 922 2717 602 
Q 2554 282 2266 96 
Q 1978 -90 1600 -90 
Q 1210 -90 915 108 
Q 621 307 461 640 
Q 301 973 227 1350 
Q 154 1728 154 2150 
Q 154 2746 301 3222 
Q 448 3699 790 4012 
Q 1133 4326 1626 4326 
Q 2253 4326 2649 3712 
Q 3046 3098 3046 2112 
z
M 2432 2080 
Q 2432 3091 2217 3625 
Q 2003 4160 1587 4160 
Q 1190 4160 979 3622 
Q 768 3085 768 2106 
Q 768 1120 979 598 
Q 1190 77 1600 77 
Q 2003 77 2217 598 
Q 2432 1120 2432 2080 
z
" transform="scale(0.015625)"/>
        <path id="STIXGeneral-Regular-2e" d="M 1158 275 
Q 1158 134 1052 32 
Q 947 -70 800 -70 
Q 653 -70 550 32 
Q 448 134 448 281 
Q 448 429 553 534 
Q 659 640 806 640 
Q 947 640 1052 531 
Q 1158 422 1158 275 
z
" transform="scale(0.015625)"/>
       </defs>
       <use xlink:href="#STIXGeneral-Regular-30"/>
       <use xlink:href="#STIXGeneral-Regular-2e" x="49.999985"/>
       <use xlink:href="#STIXGeneral-Regular-30" x="74.999969"/>
      </g>
     </g>
    </g>
    <g id="xtick_2">
     <g id="line2d_2">
      <g>
       <use xlink:href="#m5d1f9d765a" x="98.22314" y="259.787625" style="fill: #1f2328; stroke: #1f2328; stroke-width: 0.8"/>
      </g>
     </g>
     <g id="text_2">
      <!-- 0.5 -->
      <g style="fill: #1f2328" transform="translate(92.59814 272.434344) scale(0.09 -0.09)">
       <defs>
        <path id="STIXGeneral-Regular-35" d="M 2803 4358 
L 2573 3814 
Q 2534 3731 2400 3731 
L 1158 3731 
L 902 3187 
Q 1606 3053 1920 2896 
Q 2234 2739 2502 2368 
Q 2726 2061 2726 1555 
Q 2726 1094 2576 780 
Q 2426 467 2099 224 
Q 1664 -90 1011 -90 
Q 646 -90 422 19 
Q 198 128 198 307 
Q 198 550 486 550 
Q 717 550 960 352 
Q 1210 147 1414 147 
Q 1747 147 2012 480 
Q 2278 813 2278 1229 
Q 2278 1843 1850 2189 
Q 1293 2637 486 2637 
Q 410 2637 410 2688 
L 416 2720 
L 1114 4237 
L 2438 4237 
Q 2547 4237 2608 4269 
Q 2669 4301 2746 4403 
L 2803 4358 
z
" transform="scale(0.015625)"/>
       </defs>
       <use xlink:href="#STIXGeneral-Regular-30"/>
       <use xlink:href="#STIXGeneral-Regular-2e" x="49.999985"/>
       <use xlink:href="#STIXGeneral-Regular-35" x="74.999969"/>
      </g>
     </g>
    </g>
    <g id="xtick_3">
     <g id="line2d_3">
      <g>
       <use xlink:href="#m5d1f9d765a" x="152.409091" y="259.787625" style="fill: #1f2328; stroke: #1f2328; stroke-width: 0.8"/>
      </g>
     </g>
     <g id="text_3">
      <!-- 1.0 -->
      <g style="fill: #1f2328" transform="translate(146.784091 272.434344) scale(0.09 -0.09)">
       <defs>
        <path id="STIXGeneral-Regular-31" d="M 2522 0 
L 755 0 
L 755 96 
Q 1107 115 1235 227 
Q 1363 339 1363 608 
L 1363 3482 
Q 1363 3795 1171 3795 
Q 1082 3795 883 3718 
L 710 3654 
L 710 3744 
L 1856 4326 
L 1914 4307 
L 1914 486 
Q 1914 275 2042 185 
Q 2170 96 2522 96 
L 2522 0 
z
" transform="scale(0.015625)"/>
       </defs>
       <use xlink:href="#STIXGeneral-Regular-31"/>
       <use xlink:href="#STIXGeneral-Regular-2e" x="49.999985"/>
       <use xlink:href="#STIXGeneral-Regular-30" x="74.999969"/>
      </g>
     </g>
    </g>
    <g id="xtick_4">
     <g id="line2d_4">
      <g>
       <use xlink:href="#m5d1f9d765a" x="206.595041" y="259.787625" style="fill: #1f2328; stroke: #1f2328; stroke-width: 0.8"/>
      </g>
     </g>
     <g id="text_4">
      <!-- 1.5 -->
      <g style="fill: #1f2328" transform="translate(200.970041 272.434344) scale(0.09 -0.09)">
       <use xlink:href="#STIXGeneral-Regular-31"/>
       <use xlink:href="#STIXGeneral-Regular-2e" x="49.999985"/>
       <use xlink:href="#STIXGeneral-Regular-35" x="74.999969"/>
      </g>
     </g>
    </g>
    <g id="xtick_5">
     <g id="line2d_5">
      <g>
       <use xlink:href="#m5d1f9d765a" x="260.780992" y="259.787625" style="fill: #1f2328; stroke: #1f2328; stroke-width: 0.8"/>
      </g>
     </g>
     <g id="text_5">
      <!-- 2.0 -->
      <g style="fill: #1f2328" transform="translate(255.155992 272.434344) scale(0.09 -0.09)">
       <defs>
        <path id="STIXGeneral-Regular-32" d="M 3034 877 
L 2688 0 
L 186 0 
L 186 77 
L 1325 1286 
Q 1773 1754 1965 2144 
Q 2157 2534 2157 2950 
Q 2157 3379 1920 3616 
Q 1683 3853 1267 3853 
Q 922 3853 720 3673 
Q 518 3494 326 3021 
L 192 3053 
Q 301 3648 630 3987 
Q 960 4326 1523 4326 
Q 2054 4326 2380 4006 
Q 2707 3686 2707 3200 
Q 2707 2477 1888 1613 
L 832 486 
L 2330 486 
Q 2541 486 2665 569 
Q 2790 653 2944 915 
L 3034 877 
z
" transform="scale(0.015625)"/>
       </defs>
       <use xlink:href="#STIXGeneral-Regular-32"/>
       <use xlink:href="#STIXGeneral-Regular-2e" x="49.999985"/>
       <use xlink:href="#STIXGeneral-Regular-30" x="74.999969"/>
      </g>
     </g>
    </g>
    <g id="text_6">
     <!-- $x$ -->
     <g transform="translate(149.219091 285.900281) scale(0.11 -0.11)">
      <defs>
       <path id="Cmmi10-78" d="M 500 184 
Q 613 97 819 97 
Q 1019 97 1172 289 
Q 1325 481 1381 709 
L 1672 1844 
Q 1741 2153 1741 2266 
Q 1741 2425 1652 2544 
Q 1563 2663 1403 2663 
Q 1200 2663 1022 2536 
Q 844 2409 722 2214 
Q 600 2019 550 1819 
Q 538 1778 500 1778 
L 422 1778 
Q 372 1778 372 1838 
L 372 1856 
Q 434 2094 584 2320 
Q 734 2547 951 2687 
Q 1169 2828 1416 2828 
Q 1650 2828 1839 2703 
Q 2028 2578 2106 2363 
Q 2216 2559 2386 2693 
Q 2556 2828 2759 2828 
Q 2897 2828 3040 2779 
Q 3184 2731 3275 2631 
Q 3366 2531 3366 2381 
Q 3366 2219 3261 2101 
Q 3156 1984 2994 1984 
Q 2891 1984 2822 2050 
Q 2753 2116 2753 2216 
Q 2753 2350 2845 2451 
Q 2938 2553 3066 2572 
Q 2950 2663 2747 2663 
Q 2541 2663 2389 2472 
Q 2238 2281 2175 2047 
L 1894 916 
Q 1825 659 1825 494 
Q 1825 331 1917 214 
Q 2009 97 2163 97 
Q 2463 97 2698 361 
Q 2934 625 3009 941 
Q 3022 978 3059 978 
L 3138 978 
Q 3163 978 3178 961 
Q 3194 944 3194 922 
Q 3194 916 3188 903 
Q 3097 522 2806 225 
Q 2516 -72 2150 -72 
Q 1916 -72 1727 54 
Q 1538 181 1459 397 
Q 1359 209 1182 68 
Q 1006 -72 806 -72 
Q 669 -72 523 -23 
Q 378 25 287 125 
Q 197 225 197 378 
Q 197 528 301 651 
Q 406 775 563 775 
Q 669 775 741 711 
Q 813 647 813 544 
Q 813 409 723 309 
Q 634 209 500 184 
z
" transform="scale(0.015625)"/>
      </defs>
      <use xlink:href="#Cmmi10-78" transform="translate(0 0.8125)"/>
     </g>
    </g>
   </g>
   <g id="matplotlib.axis_2">
    <g id="ytick_1">
     <g id="line2d_6">
      <defs>
       <path id="mcaa2a0f7b8" d="M 0 0 
L -3 0 
" style="stroke: #1f2328; stroke-width: 0.8"/>
      </defs>
      <g>
       <use xlink:href="#mcaa2a0f7b8" x="33.2" y="259.787625" style="fill: #1f2328; stroke: #1f2328; stroke-width: 0.8"/>
      </g>
     </g>
     <g id="text_7">
      <!-- 0 -->
      <g style="fill: #1f2328" transform="translate(22.2 262.860984) scale(0.09 -0.09)">
       <use xlink:href="#STIXGeneral-Regular-30"/>
      </g>
     </g>
    </g>
    <g id="ytick_2">
     <g id="line2d_7">
      <g>
       <use xlink:href="#mcaa2a0f7b8" x="33.2" y="231.407625" style="fill: #1f2328; stroke: #1f2328; stroke-width: 0.8"/>
      </g>
     </g>
     <g id="text_8">
      <!-- 1 -->
      <g style="fill: #1f2328" transform="translate(22.2 234.480984) scale(0.09 -0.09)">
       <use xlink:href="#STIXGeneral-Regular-31"/>
      </g>
     </g>
    </g>
    <g id="ytick_3">
     <g id="line2d_8">
      <g>
       <use xlink:href="#mcaa2a0f7b8" x="33.2" y="203.027625" style="fill: #1f2328; stroke: #1f2328; stroke-width: 0.8"/>
      </g>
     </g>
     <g id="text_9">
      <!-- 2 -->
      <g style="fill: #1f2328" transform="translate(22.2 206.100984) scale(0.09 -0.09)">
       <use xlink:href="#STIXGeneral-Regular-32"/>
      </g>
     </g>
    </g>
    <g id="ytick_4">
     <g id="line2d_9">
      <g>
       <use xlink:href="#mcaa2a0f7b8" x="33.2" y="174.647625" style="fill: #1f2328; stroke: #1f2328; stroke-width: 0.8"/>
      </g>
     </g>
     <g id="text_10">
      <!-- 3 -->
      <g style="fill: #1f2328" transform="translate(22.2 177.720984) scale(0.09 -0.09)">
       <defs>
        <path id="STIXGeneral-Regular-33" d="M 390 3264 
L 288 3290 
Q 435 3770 748 4048 
Q 1062 4326 1542 4326 
Q 1990 4326 2265 4083 
Q 2541 3840 2541 3450 
Q 2541 2925 1946 2566 
Q 2298 2413 2477 2227 
Q 2758 1914 2758 1402 
Q 2758 890 2464 506 
Q 2246 211 1840 60 
Q 1434 -90 979 -90 
Q 262 -90 262 275 
Q 262 378 339 442 
Q 416 506 525 506 
Q 685 506 915 339 
Q 1197 141 1466 141 
Q 1818 141 2058 425 
Q 2298 710 2298 1120 
Q 2298 1856 1632 2048 
Q 1434 2112 979 2112 
L 979 2202 
Q 1338 2323 1517 2432 
Q 2035 2726 2035 3290 
Q 2035 3610 1852 3776 
Q 1670 3942 1344 3942 
Q 768 3942 390 3264 
z
" transform="scale(0.015625)"/>
       </defs>
       <use xlink:href="#STIXGeneral-Regular-33"/>
      </g>
     </g>
    </g>
    <g id="ytick_5">
     <g id="line2d_10">
      <g>
       <use xlink:href="#mcaa2a0f7b8" x="33.2" y="146.267625" style="fill: #1f2328; stroke: #1f2328; stroke-width: 0.8"/>
      </g>
     </g>
     <g id="text_11">
      <!-- 4 -->
      <g style="fill: #1f2328" transform="translate(22.2 149.340984) scale(0.09 -0.09)">
       <defs>
        <path id="STIXGeneral-Regular-34" d="M 3027 1069 
L 2368 1069 
L 2368 0 
L 1869 0 
L 1869 1069 
L 77 1069 
L 77 1478 
L 2086 4326 
L 2368 4326 
L 2368 1478 
L 3027 1478 
L 3027 1069 
z
M 1869 1478 
L 1869 3674 
L 333 1478 
L 1869 1478 
z
" transform="scale(0.015625)"/>
       </defs>
       <use xlink:href="#STIXGeneral-Regular-34"/>
      </g>
     </g>
    </g>
    <g id="ytick_6">
     <g id="line2d_11">
      <g>
       <use xlink:href="#mcaa2a0f7b8" x="33.2" y="117.887625" style="fill: #1f2328; stroke: #1f2328; stroke-width: 0.8"/>
      </g>
     </g>
     <g id="text_12">
      <!-- 5 -->
      <g style="fill: #1f2328" transform="translate(22.2 120.960984) scale(0.09 -0.09)">
       <use xlink:href="#STIXGeneral-Regular-35"/>
      </g>
     </g>
    </g>
    <g id="ytick_7">
     <g id="line2d_12">
      <g>
       <use xlink:href="#mcaa2a0f7b8" x="33.2" y="89.507625" style="fill: #1f2328; stroke: #1f2328; stroke-width: 0.8"/>
      </g>
     </g>
     <g id="text_13">
      <!-- 6 -->
      <g style="fill: #1f2328" transform="translate(22.2 92.580984) scale(0.09 -0.09)">
       <defs>
        <path id="STIXGeneral-Regular-36" d="M 2854 4378 
L 2867 4275 
Q 2112 4154 1606 3664 
Q 1101 3174 973 2451 
Q 1344 2739 1786 2739 
Q 2349 2739 2672 2380 
Q 2995 2022 2995 1402 
Q 2995 774 2669 378 
Q 2291 -90 1651 -90 
Q 870 -90 518 557 
Q 218 1107 218 1786 
Q 218 2835 915 3552 
Q 1312 3962 1731 4131 
Q 2150 4301 2854 4378 
z
M 2419 1203 
Q 2419 2445 1555 2445 
Q 1235 2445 1024 2275 
Q 813 2106 813 1702 
Q 813 954 1046 522 
Q 1280 90 1722 90 
Q 2061 90 2240 394 
Q 2419 698 2419 1203 
z
" transform="scale(0.015625)"/>
       </defs>
       <use xlink:href="#STIXGeneral-Regular-36"/>
      </g>
     </g>
    </g>
    <g id="ytick_8">
     <g id="line2d_13">
      <g>
       <use xlink:href="#mcaa2a0f7b8" x="33.2" y="61.127625" style="fill: #1f2328; stroke: #1f2328; stroke-width: 0.8"/>
      </g>
     </g>
     <g id="text_14">
      <!-- 7 -->
      <g style="fill: #1f2328" transform="translate(22.2 64.200984) scale(0.09 -0.09)">
       <defs>
        <path id="STIXGeneral-Regular-37" d="M 2874 4134 
L 1517 -51 
L 1101 -51 
L 2368 3763 
L 992 3763 
Q 717 3763 582 3667 
Q 448 3571 243 3238 
L 128 3296 
L 512 4237 
L 2874 4237 
L 2874 4134 
z
" transform="scale(0.015625)"/>
       </defs>
       <use xlink:href="#STIXGeneral-Regular-37"/>
      </g>
     </g>
    </g>
    <g id="ytick_9">
     <g id="line2d_14">
      <g>
       <use xlink:href="#mcaa2a0f7b8" x="33.2" y="32.747625" style="fill: #1f2328; stroke: #1f2328; stroke-width: 0.8"/>
      </g>
     </g>
     <g id="text_15">
      <!-- 8 -->
      <g style="fill: #1f2328" transform="translate(22.2 35.820984) scale(0.09 -0.09)">
       <defs>
        <path id="STIXGeneral-Regular-38" d="M 2848 992 
Q 2848 499 2505 204 
Q 2163 -90 1587 -90 
Q 1050 -90 704 204 
Q 358 499 358 954 
Q 358 1293 524 1533 
Q 691 1773 1190 2125 
Q 710 2522 553 2765 
Q 397 3008 397 3328 
Q 397 3782 745 4054 
Q 1094 4326 1638 4326 
Q 2106 4326 2410 4060 
Q 2714 3795 2714 3411 
Q 2714 3059 2531 2848 
Q 2349 2637 1856 2374 
Q 2432 1990 2640 1689 
Q 2848 1389 2848 992 
z
M 2272 3411 
Q 2272 3744 2086 3945 
Q 1901 4147 1574 4147 
Q 1248 4147 1059 3977 
Q 870 3808 870 3513 
Q 870 3219 1059 2979 
Q 1248 2739 1670 2490 
Q 1997 2682 2134 2896 
Q 2272 3110 2272 3411 
z
M 1734 1741 
L 1357 1997 
Q 1075 1766 960 1545 
Q 845 1325 845 1011 
Q 845 576 1065 333 
Q 1286 90 1658 90 
Q 1971 90 2166 285 
Q 2362 480 2362 794 
Q 2362 1082 2214 1299 
Q 2067 1517 1734 1741 
z
" transform="scale(0.015625)"/>
       </defs>
       <use xlink:href="#STIXGeneral-Regular-38"/>
      </g>
     </g>
    </g>
    <g id="text_16">
     <!-- $f(x)=e^{x}$ -->
     <g transform="translate(15.45 162.371625) rotate(-90) scale(0.11 -0.11)">
      <defs>
       <path id="Cmmi10-66" d="M 622 -1056 
Q 741 -1147 909 -1147 
Q 1138 -1147 1281 -641 
Q 1341 -397 1606 966 
L 1900 2534 
L 1350 2534 
Q 1288 2534 1288 2619 
Q 1313 2759 1369 2759 
L 1941 2759 
L 2016 3175 
Q 2053 3369 2084 3508 
Q 2116 3647 2152 3765 
Q 2188 3884 2259 4031 
Q 2369 4241 2555 4377 
Q 2741 4513 2956 4513 
Q 3097 4513 3230 4461 
Q 3363 4409 3447 4306 
Q 3531 4203 3531 4063 
Q 3531 3900 3423 3779 
Q 3316 3659 3163 3659 
Q 3059 3659 2986 3723 
Q 2913 3788 2913 3891 
Q 2913 4031 3008 4136 
Q 3103 4241 3244 4256 
Q 3125 4347 2950 4347 
Q 2853 4347 2767 4256 
Q 2681 4166 2656 4063 
Q 2616 3900 2478 3181 
L 2400 2759 
L 3059 2759 
Q 3122 2759 3122 2675 
Q 3119 2659 3109 2620 
Q 3100 2581 3083 2557 
Q 3066 2534 3041 2534 
L 2356 2534 
L 2059 972 
Q 2003 631 1929 279 
Q 1856 -72 1723 -442 
Q 1591 -813 1384 -1063 
Q 1178 -1313 897 -1313 
Q 681 -1313 511 -1189 
Q 341 -1066 341 -863 
Q 341 -700 445 -579 
Q 550 -459 709 -459 
Q 816 -459 887 -523 
Q 959 -588 959 -691 
Q 959 -828 857 -942 
Q 756 -1056 622 -1056 
z
" transform="scale(0.015625)"/>
       <path id="Cmr10-28" d="M 1984 -1588 
Q 1628 -1306 1370 -942 
Q 1113 -578 948 -165 
Q 784 247 703 697 
Q 622 1147 622 1600 
Q 622 2059 703 2509 
Q 784 2959 951 3375 
Q 1119 3791 1378 4153 
Q 1638 4516 1984 4788 
Q 1984 4800 2016 4800 
L 2075 4800 
Q 2094 4800 2109 4783 
Q 2125 4766 2125 4744 
Q 2125 4716 2113 4703 
Q 1800 4397 1592 4047 
Q 1384 3697 1257 3301 
Q 1131 2906 1075 2482 
Q 1019 2059 1019 1600 
Q 1019 -434 2106 -1491 
Q 2125 -1509 2125 -1544 
Q 2125 -1559 2108 -1579 
Q 2091 -1600 2075 -1600 
L 2016 -1600 
Q 1984 -1600 1984 -1588 
z
" transform="scale(0.015625)"/>
       <path id="Cmr10-29" d="M 416 -1600 
Q 359 -1600 359 -1544 
Q 359 -1516 372 -1503 
Q 1466 -434 1466 1600 
Q 1466 3634 384 4691 
Q 359 4706 359 4744 
Q 359 4766 376 4783 
Q 394 4800 416 4800 
L 475 4800 
Q 494 4800 506 4788 
Q 966 4425 1272 3906 
Q 1578 3388 1720 2800 
Q 1863 2213 1863 1600 
Q 1863 1147 1786 708 
Q 1709 269 1542 -157 
Q 1375 -584 1119 -945 
Q 863 -1306 506 -1588 
Q 494 -1600 475 -1600 
L 416 -1600 
z
" transform="scale(0.015625)"/>
       <path id="Cmr10-3d" d="M 481 850 
Q 428 850 393 890 
Q 359 931 359 978 
Q 359 1031 393 1068 
Q 428 1106 481 1106 
L 4500 1106 
Q 4547 1106 4581 1068 
Q 4616 1031 4616 978 
Q 4616 931 4581 890 
Q 4547 850 4500 850 
L 481 850 
z
M 481 2094 
Q 428 2094 393 2131 
Q 359 2169 359 2222 
Q 359 2269 393 2309 
Q 428 2350 481 2350 
L 4500 2350 
Q 4547 2350 4581 2309 
Q 4616 2269 4616 2222 
Q 4616 2169 4581 2131 
Q 4547 2094 4500 2094 
L 481 2094 
z
" transform="scale(0.015625)"/>
       <path id="Cmmi10-65" d="M 1288 -72 
Q 981 -72 751 87 
Q 522 247 401 517 
Q 281 788 281 1088 
Q 281 1544 511 1945 
Q 741 2347 1134 2587 
Q 1528 2828 1978 2828 
Q 2253 2828 2458 2686 
Q 2663 2544 2663 2278 
Q 2663 1909 2369 1729 
Q 2075 1550 1706 1508 
Q 1338 1466 891 1466 
L 872 1466 
Q 769 1084 769 813 
Q 769 528 900 312 
Q 1031 97 1300 97 
Q 1681 97 2032 272 
Q 2384 447 2606 756 
Q 2625 775 2656 775 
Q 2688 775 2720 739 
Q 2753 703 2753 672 
Q 2753 647 2741 634 
Q 2506 306 2109 117 
Q 1713 -72 1288 -72 
z
M 909 1631 
Q 1281 1631 1597 1665 
Q 1913 1700 2169 1839 
Q 2425 1978 2425 2272 
Q 2425 2391 2359 2480 
Q 2294 2569 2189 2616 
Q 2084 2663 1972 2663 
Q 1700 2663 1483 2516 
Q 1266 2369 1125 2133 
Q 984 1897 909 1631 
z
" transform="scale(0.015625)"/>
      </defs>
      <use xlink:href="#Cmmi10-66"/>
      <use xlink:href="#Cmr10-28" transform="translate(48.876953 0)"/>
      <use xlink:href="#Cmmi10-78" transform="translate(87.695312 0)"/>
      <use xlink:href="#Cmr10-29" transform="translate(144.775391 0)"/>
      <use xlink:href="#Cmr10-3d" transform="translate(201.152344 0)"/>
      <use xlink:href="#Cmmi10-65" transform="translate(296.396484 0)"/>
      <use xlink:href="#Cmmi10-78" transform="translate(349.184141 38.264063) scale(0.7)"/>
     </g>
    </g>
   </g>
   <g id="line2d_15">
    <path d="M 44.03719 259.787625 
L 44.03719 231.407625 
" clip-path="url(#p2bb7140a6d)" style="fill: none; stroke: #9aa3ad; stroke-width: 0.8; stroke-linecap: square"/>
   </g>
   <g id="line2d_16">
    <path d="M 260.780992 259.787625 
L 260.780992 50.086213 
" clip-path="url(#p2bb7140a6d)" style="fill: none; stroke: #9aa3ad; stroke-width: 0.8; stroke-linecap: square"/>
   </g>
   <g id="patch_3">
    <path d="M 33.2 259.787625 
L 33.2 21.395625 
" style="fill: none; stroke: #1f2328; stroke-width: 0.8; stroke-linejoin: miter; stroke-linecap: square"/>
   </g>
   <g id="patch_4">
    <path d="M 33.2 259.787625 
L 271.618182 259.787625 
" style="fill: none; stroke: #1f2328; stroke-width: 0.8; stroke-linejoin: miter; stroke-linecap: square"/>
   </g>
   <g id="text_17">
    <!-- area $=8.389$ -->
    <g style="fill: #0072b2" transform="translate(146.990496 205.357312) scale(0.1 -0.1)">
     <defs>
      <path id="STIXGeneral-Regular-61" d="M 2829 422 
L 2829 243 
Q 2586 -64 2253 -64 
Q 1888 -64 1843 403 
L 1837 403 
Q 1427 -64 909 -64 
Q 608 -64 422 112 
Q 237 288 237 602 
Q 237 1050 685 1350 
Q 992 1555 1837 1869 
L 1837 2214 
Q 1837 2502 1699 2646 
Q 1562 2790 1338 2790 
Q 1146 2790 1018 2697 
Q 890 2605 890 2477 
Q 890 2419 909 2348 
Q 928 2278 928 2208 
Q 928 2112 841 2029 
Q 755 1946 634 1946 
Q 525 1946 441 2029 
Q 358 2112 358 2240 
Q 358 2547 685 2752 
Q 986 2944 1421 2944 
Q 1939 2944 2176 2656 
Q 2291 2522 2323 2384 
Q 2355 2246 2355 1946 
L 2355 723 
Q 2355 301 2554 301 
Q 2682 301 2829 422 
z
M 1837 813 
L 1837 1715 
Q 1248 1510 1018 1293 
Q 800 1094 800 800 
Q 800 557 921 432 
Q 1043 307 1242 307 
Q 1453 307 1613 410 
Q 1747 506 1792 589 
Q 1837 672 1837 813 
z
" transform="scale(0.015625)"/>
      <path id="STIXGeneral-Regular-72" d="M 1024 2931 
L 1024 2342 
Q 1267 2688 1430 2816 
Q 1594 2944 1792 2944 
Q 1958 2944 2051 2854 
Q 2144 2765 2144 2605 
Q 2144 2470 2077 2393 
Q 2010 2317 1894 2317 
Q 1773 2317 1638 2445 
Q 1536 2541 1472 2541 
Q 1338 2541 1181 2355 
Q 1024 2170 1024 2016 
L 1024 576 
Q 1024 301 1133 205 
Q 1242 109 1568 96 
L 1568 0 
L 32 0 
L 32 96 
Q 339 154 412 224 
Q 486 294 486 538 
L 486 2138 
Q 486 2349 438 2435 
Q 390 2522 269 2522 
Q 166 2522 45 2496 
L 45 2598 
Q 448 2726 992 2944 
L 1024 2931 
z
" transform="scale(0.015625)"/>
      <path id="STIXGeneral-Regular-65" d="M 2611 1050 
L 2714 1005 
Q 2330 -64 1376 -64 
Q 813 -64 486 329 
Q 160 723 160 1389 
Q 160 2074 525 2509 
Q 890 2944 1485 2944 
Q 2061 2944 2374 2502 
Q 2560 2246 2592 1773 
L 621 1773 
Q 646 1370 700 1158 
Q 755 947 915 730 
Q 1184 378 1626 378 
Q 1939 378 2153 531 
Q 2368 685 2611 1050 
z
M 634 1978 
L 1939 1978 
Q 1882 2381 1750 2547 
Q 1619 2714 1312 2714 
Q 1043 2714 864 2525 
Q 685 2336 634 1978 
z
" transform="scale(0.015625)"/>
      <path id="STIXGeneral-Regular-20" transform="scale(0.015625)"/>
      <path id="Cmr10-38" d="M 269 972 
Q 269 1356 522 1651 
Q 775 1947 1172 2144 
L 934 2297 
Q 716 2441 578 2680 
Q 441 2919 441 3181 
Q 441 3488 602 3734 
Q 763 3981 1030 4122 
Q 1297 4263 1600 4263 
Q 1884 4263 2148 4147 
Q 2413 4031 2583 3815 
Q 2753 3600 2753 3303 
Q 2753 3088 2651 2903 
Q 2550 2719 2373 2572 
Q 2197 2425 1997 2322 
L 2363 2088 
Q 2616 1922 2770 1653 
Q 2925 1384 2925 1088 
Q 2925 741 2739 456 
Q 2553 172 2247 15 
Q 1941 -141 1600 -141 
Q 1269 -141 961 -6 
Q 653 128 461 383 
Q 269 638 269 972 
z
M 616 972 
Q 616 719 755 509 
Q 894 300 1122 181 
Q 1350 63 1600 63 
Q 1972 63 2275 280 
Q 2578 497 2578 856 
Q 2578 978 2529 1098 
Q 2481 1219 2395 1317 
Q 2309 1416 2203 1478 
L 1344 2034 
Q 1144 1928 976 1765 
Q 809 1603 712 1400 
Q 616 1197 616 972 
z
M 1056 2925 
L 1831 2425 
Q 2100 2581 2272 2803 
Q 2444 3025 2444 3303 
Q 2444 3519 2323 3698 
Q 2203 3878 2009 3978 
Q 1816 4078 1594 4078 
Q 1400 4078 1203 4003 
Q 1006 3928 878 3779 
Q 750 3631 750 3431 
Q 750 3131 1056 2925 
z
" transform="scale(0.015625)"/>
      <path id="Cmmi10-3a" d="M 538 353 
Q 538 497 644 600 
Q 750 703 891 703 
Q 978 703 1062 656 
Q 1147 609 1194 525 
Q 1241 441 1241 353 
Q 1241 213 1137 106 
Q 1034 0 891 0 
Q 750 0 644 106 
Q 538 213 538 353 
z
" transform="scale(0.015625)"/>
      <path id="Cmr10-33" d="M 609 494 
Q 759 275 1012 169 
Q 1266 63 1556 63 
Q 1928 63 2084 380 
Q 2241 697 2241 1100 
Q 2241 1281 2208 1462 
Q 2175 1644 2097 1800 
Q 2019 1956 1883 2050 
Q 1747 2144 1550 2144 
L 1125 2144 
Q 1069 2144 1069 2203 
L 1069 2259 
Q 1069 2309 1125 2309 
L 1478 2338 
Q 1703 2338 1851 2506 
Q 2000 2675 2069 2917 
Q 2138 3159 2138 3378 
Q 2138 3684 1994 3881 
Q 1850 4078 1556 4078 
Q 1313 4078 1091 3986 
Q 869 3894 738 3706 
Q 750 3709 759 3711 
Q 769 3713 781 3713 
Q 925 3713 1022 3613 
Q 1119 3513 1119 3372 
Q 1119 3234 1022 3134 
Q 925 3034 781 3034 
Q 641 3034 541 3134 
Q 441 3234 441 3372 
Q 441 3647 606 3850 
Q 772 4053 1033 4158 
Q 1294 4263 1556 4263 
Q 1750 4263 1965 4205 
Q 2181 4147 2356 4039 
Q 2531 3931 2642 3762 
Q 2753 3594 2753 3378 
Q 2753 3109 2633 2881 
Q 2513 2653 2303 2487 
Q 2094 2322 1844 2241 
Q 2122 2188 2372 2031 
Q 2622 1875 2773 1631 
Q 2925 1388 2925 1106 
Q 2925 753 2731 467 
Q 2538 181 2222 20 
Q 1906 -141 1556 -141 
Q 1256 -141 954 -26 
Q 653 88 461 316 
Q 269 544 269 863 
Q 269 1022 375 1128 
Q 481 1234 641 1234 
Q 744 1234 830 1186 
Q 916 1138 964 1050 
Q 1013 963 1013 863 
Q 1013 706 903 600 
Q 794 494 641 494 
L 609 494 
z
" transform="scale(0.015625)"/>
      <path id="Cmr10-39" d="M 722 269 
Q 897 63 1331 63 
Q 1575 63 1786 228 
Q 1997 394 2113 634 
Q 2247 906 2284 1214 
Q 2322 1522 2322 1978 
Q 2213 1719 2008 1553 
Q 1803 1388 1538 1388 
Q 1166 1388 873 1589 
Q 581 1791 425 2120 
Q 269 2450 269 2822 
Q 269 3206 444 3539 
Q 619 3872 928 4067 
Q 1238 4263 1631 4263 
Q 2019 4263 2280 4052 
Q 2541 3841 2678 3508 
Q 2816 3175 2870 2803 
Q 2925 2431 2925 2069 
Q 2925 1575 2744 1061 
Q 2563 547 2202 203 
Q 1841 -141 1331 -141 
Q 953 -141 690 37 
Q 428 216 428 575 
Q 428 706 517 795 
Q 606 884 738 884 
Q 866 884 955 795 
Q 1044 706 1044 575 
Q 1044 450 953 359 
Q 863 269 738 269 
L 722 269 
z
M 1563 1556 
Q 1825 1556 1992 1732 
Q 2159 1909 2234 2171 
Q 2309 2434 2309 2694 
L 2309 2816 
L 2309 2841 
Q 2309 3322 2168 3700 
Q 2028 4078 1631 4078 
Q 1378 4078 1220 3967 
Q 1063 3856 988 3672 
Q 913 3488 892 3278 
Q 872 3069 872 2822 
Q 872 2459 906 2203 
Q 941 1947 1094 1751 
Q 1247 1556 1563 1556 
z
" transform="scale(0.015625)"/>
     </defs>
     <use xlink:href="#STIXGeneral-Regular-61" transform="translate(0 0.390625)"/>
     <use xlink:href="#STIXGeneral-Regular-72" transform="translate(44.399994 0.390625)"/>
     <use xlink:href="#STIXGeneral-Regular-65" transform="translate(77.699982 0.390625)"/>
     <use xlink:href="#STIXGeneral-Regular-61" transform="translate(122.099976 0.390625)"/>
     <use xlink:href="#STIXGeneral-Regular-20" transform="translate(166.499969 0.390625)"/>
     <use xlink:href="#Cmr10-3d" transform="translate(209.058548 0.390625)"/>
     <use xlink:href="#Cmr10-38" transform="translate(304.302689 0.390625)"/>
     <use xlink:href="#Cmmi10-3a" transform="translate(354.302689 0.390625)"/>
     <use xlink:href="#Cmr10-33" transform="translate(381.988235 0.390625)"/>
     <use xlink:href="#Cmr10-38" transform="translate(431.988235 0.390625)"/>
     <use xlink:href="#Cmr10-39" transform="translate(481.988235 0.390625)"/>
    </g>
   </g>
   <g id="text_18">
    <!-- gap -->
    <g style="fill: #1f2328" transform="translate(154.576529 86.035922) scale(0.095 -0.095)">
     <defs>
      <path id="STIXGeneral-Regular-67" d="M 3008 2483 
L 2477 2483 
Q 2598 2208 2598 1946 
Q 2598 1453 2265 1203 
Q 1933 954 1600 954 
Q 1530 954 1357 973 
L 1235 986 
Q 1107 947 979 812 
Q 851 678 851 582 
Q 851 435 1350 410 
L 2176 371 
Q 2528 358 2739 172 
Q 2950 -13 2950 -314 
Q 2950 -685 2566 -986 
Q 2035 -1395 1286 -1395 
Q 826 -1395 502 -1212 
Q 179 -1030 179 -774 
Q 179 -595 320 -419 
Q 461 -243 806 6 
Q 602 102 534 172 
Q 467 243 467 346 
Q 467 531 762 787 
Q 909 915 1037 1043 
Q 717 1203 579 1401 
Q 442 1600 442 1901 
Q 442 2336 752 2640 
Q 1062 2944 1510 2944 
Q 1766 2944 2022 2848 
L 2163 2797 
Q 2349 2733 2515 2733 
L 3008 2733 
L 3008 2483 
z
M 973 2163 
L 973 2144 
Q 973 1683 1155 1398 
Q 1338 1114 1632 1114 
Q 1850 1114 1978 1270 
Q 2106 1427 2106 1690 
Q 2106 2112 1914 2464 
Q 1754 2765 1446 2765 
Q 1222 2765 1097 2605 
Q 973 2445 973 2163 
z
M 2771 -410 
Q 2771 -230 2595 -163 
Q 2419 -96 1978 -96 
Q 1344 -96 941 -13 
Q 749 -243 688 -348 
Q 627 -454 627 -563 
Q 627 -774 880 -902 
Q 1133 -1030 1555 -1030 
Q 2099 -1030 2435 -860 
Q 2771 -691 2771 -410 
z
" transform="scale(0.015625)"/>
      <path id="STIXGeneral-Regular-70" d="M 1018 2931 
L 1018 2438 
Q 1421 2944 1939 2944 
Q 2406 2944 2707 2560 
Q 3008 2176 3008 1581 
Q 3008 883 2621 409 
Q 2234 -64 1664 -64 
Q 1466 -64 1328 -6 
Q 1190 51 1018 211 
L 1018 -794 
Q 1018 -1094 1120 -1180 
Q 1222 -1267 1581 -1274 
L 1581 -1389 
L 32 -1389 
L 32 -1280 
Q 314 -1254 397 -1171 
Q 480 -1088 480 -838 
L 480 2157 
Q 480 2381 429 2451 
Q 378 2522 218 2522 
Q 115 2522 58 2515 
L 58 2618 
Q 506 2752 979 2944 
L 1018 2931 
z
M 1018 2138 
L 1018 563 
Q 1018 422 1238 281 
Q 1459 141 1683 141 
Q 2029 141 2243 467 
Q 2458 794 2458 1325 
Q 2458 1888 2243 2224 
Q 2029 2560 1670 2560 
Q 1446 2560 1232 2419 
Q 1018 2278 1018 2138 
z
" transform="scale(0.015625)"/>
     </defs>
     <use xlink:href="#STIXGeneral-Regular-67"/>
     <use xlink:href="#STIXGeneral-Regular-61" x="49.999985"/>
     <use xlink:href="#STIXGeneral-Regular-70" x="94.399979"/>
    </g>
   </g>
   <g id="text_19">
    <!-- Trapezoidal: chord -->
    <g transform="translate(106.922528 15.395625) scale(0.12 -0.12)">
     <defs>
      <path id="STIXGeneral-Regular-54" d="M 3795 3149 
L 3642 3149 
Q 3539 3674 3353 3821 
Q 3168 3968 2656 3968 
L 2278 3968 
L 2278 710 
Q 2278 346 2387 243 
Q 2496 141 2893 122 
L 2893 0 
L 1024 0 
L 1024 122 
Q 1427 147 1526 256 
Q 1626 365 1626 787 
L 1626 3968 
L 1242 3968 
Q 723 3968 540 3817 
Q 358 3667 262 3149 
L 109 3149 
L 154 4237 
L 3750 4237 
L 3795 3149 
z
" transform="scale(0.015625)"/>
      <path id="STIXGeneral-Regular-7a" d="M 2675 870 
L 2579 0 
L 173 0 
L 173 96 
L 1875 2688 
L 1011 2688 
Q 710 2688 604 2582 
Q 499 2477 454 2125 
L 339 2125 
L 365 2880 
L 2579 2880 
L 2579 2784 
L 858 192 
L 1709 192 
Q 2246 192 2387 365 
Q 2477 474 2560 896 
L 2675 870 
z
" transform="scale(0.015625)"/>
      <path id="STIXGeneral-Regular-6f" d="M 3008 1478 
Q 3008 806 2608 371 
Q 2208 -64 1568 -64 
Q 979 -64 582 368 
Q 186 800 186 1459 
Q 186 2125 582 2534 
Q 979 2944 1626 2944 
Q 2221 2944 2614 2537 
Q 3008 2131 3008 1478 
z
M 2432 1306 
Q 2432 2035 2112 2445 
Q 1856 2765 1504 2765 
Q 1171 2765 966 2493 
Q 762 2221 762 1747 
Q 762 928 1101 435 
Q 1318 115 1677 115 
Q 2029 115 2230 432 
Q 2432 749 2432 1306 
z
" transform="scale(0.015625)"/>
      <path id="STIXGeneral-Regular-69" d="M 1152 4045 
Q 1152 3904 1056 3811 
Q 960 3718 819 3718 
Q 685 3718 592 3811 
Q 499 3904 499 4045 
Q 499 4179 595 4275 
Q 691 4371 826 4371 
Q 966 4371 1059 4275 
Q 1152 4179 1152 4045 
z
M 1619 0 
L 102 0 
L 102 96 
Q 435 115 521 211 
Q 608 307 608 666 
L 608 2118 
Q 608 2342 563 2432 
Q 518 2522 397 2522 
Q 243 2522 128 2490 
L 128 2592 
L 1120 2944 
L 1146 2918 
L 1146 672 
Q 1146 314 1226 218 
Q 1306 122 1619 96 
L 1619 0 
z
" transform="scale(0.015625)"/>
      <path id="STIXGeneral-Regular-64" d="M 3142 269 
L 2202 -64 
L 2176 -45 
L 2176 365 
Q 1869 -64 1357 -64 
Q 826 -64 499 317 
Q 173 698 173 1312 
Q 173 1990 563 2467 
Q 954 2944 1504 2944 
Q 1850 2944 2176 2669 
L 2176 3667 
Q 2176 3866 2118 3930 
Q 2061 3994 1882 3994 
Q 1792 3994 1741 3987 
L 1741 4090 
Q 2323 4243 2682 4371 
L 2714 4358 
L 2714 730 
Q 2714 506 2768 435 
Q 2822 365 2995 365 
Q 3034 365 3142 371 
L 3142 269 
z
M 2176 653 
L 2176 2125 
Q 2176 2381 1981 2573 
Q 1786 2765 1523 2765 
Q 1158 2765 940 2438 
Q 723 2112 723 1568 
Q 723 979 963 624 
Q 1203 269 1606 269 
Q 1907 269 2080 474 
Q 2176 582 2176 653 
z
" transform="scale(0.015625)"/>
      <path id="STIXGeneral-Regular-6c" d="M 1645 0 
L 134 0 
L 134 96 
Q 435 122 531 221 
Q 627 320 627 589 
L 627 3590 
Q 627 3821 569 3910 
Q 512 4000 358 4000 
Q 224 4000 122 3987 
L 122 4090 
Q 730 4237 1133 4371 
L 1165 4346 
L 1165 557 
Q 1165 288 1254 201 
Q 1344 115 1645 96 
L 1645 0 
z
" transform="scale(0.015625)"/>
      <path id="STIXGeneral-Regular-3a" d="M 1123 2832 
Q 1229 2726 1229 2579 
Q 1229 2432 1126 2329 
Q 1024 2227 877 2227 
Q 730 2227 624 2332 
Q 518 2438 518 2579 
Q 518 2733 620 2835 
Q 723 2938 877 2938 
Q 1018 2938 1123 2832 
z
M 1229 282 
Q 1229 141 1126 35 
Q 1024 -70 877 -70 
Q 730 -70 624 35 
Q 518 141 518 282 
Q 518 435 620 537 
Q 723 640 877 640 
Q 1018 640 1123 534 
Q 1229 429 1229 282 
z
" transform="scale(0.015625)"/>
      <path id="STIXGeneral-Regular-63" d="M 2547 998 
L 2637 941 
Q 2362 403 2112 205 
Q 1786 -64 1376 -64 
Q 845 -64 502 336 
Q 160 736 160 1357 
Q 160 2170 698 2618 
Q 1094 2944 1562 2944 
Q 1965 2944 2256 2749 
Q 2547 2554 2547 2285 
Q 2547 2176 2457 2096 
Q 2368 2016 2246 2016 
Q 2022 2016 1939 2310 
L 1901 2451 
Q 1850 2630 1773 2694 
Q 1696 2758 1523 2758 
Q 1133 2758 893 2451 
Q 653 2144 653 1645 
Q 653 1094 928 745 
Q 1203 397 1645 397 
Q 1920 397 2118 528 
Q 2317 659 2547 998 
z
" transform="scale(0.015625)"/>
      <path id="STIXGeneral-Regular-68" d="M 3117 0 
L 1760 0 
L 1760 96 
Q 2042 128 2118 224 
Q 2195 320 2195 653 
L 2195 1920 
Q 2195 2598 1722 2598 
Q 1530 2598 1370 2508 
Q 1210 2419 1005 2195 
L 1005 653 
Q 1005 320 1081 224 
Q 1158 128 1440 96 
L 1440 0 
L 58 0 
L 58 96 
Q 333 134 400 224 
Q 467 314 467 653 
L 467 3667 
Q 467 3872 406 3933 
Q 346 3994 141 3994 
Q 83 3994 64 3987 
L 64 4090 
L 237 4141 
Q 730 4288 973 4371 
L 1005 4352 
L 1005 2406 
Q 1229 2694 1446 2819 
Q 1664 2944 1946 2944 
Q 2733 2944 2733 1926 
L 2733 653 
Q 2733 320 2793 233 
Q 2854 147 3117 96 
L 3117 0 
z
" transform="scale(0.015625)"/>
     </defs>
     <use xlink:href="#STIXGeneral-Regular-54"/>
     <use xlink:href="#STIXGeneral-Regular-72" x="61.099991"/>
     <use xlink:href="#STIXGeneral-Regular-61" x="94.399979"/>
     <use xlink:href="#STIXGeneral-Regular-70" x="138.799973"/>
     <use xlink:href="#STIXGeneral-Regular-65" x="188.799957"/>
     <use xlink:href="#STIXGeneral-Regular-7a" x="233.199951"/>
     <use xlink:href="#STIXGeneral-Regular-6f" x="277.599945"/>
     <use xlink:href="#STIXGeneral-Regular-69" x="327.59993"/>
     <use xlink:href="#STIXGeneral-Regular-64" x="355.399918"/>
     <use xlink:href="#STIXGeneral-Regular-61" x="405.399902"/>
     <use xlink:href="#STIXGeneral-Regular-6c" x="449.799896"/>
     <use xlink:href="#STIXGeneral-Regular-3a" x="477.599884"/>
     <use xlink:href="#STIXGeneral-Regular-20" x="505.399872"/>
     <use xlink:href="#STIXGeneral-Regular-63" x="530.399857"/>
     <use xlink:href="#STIXGeneral-Regular-68" x="574.79985"/>
     <use xlink:href="#STIXGeneral-Regular-6f" x="624.799835"/>
     <use xlink:href="#STIXGeneral-Regular-72" x="674.79982"/>
     <use xlink:href="#STIXGeneral-Regular-64" x="708.099808"/>
    </g>
   </g>
   <g id="line2d_17">
    <path d="M 44.03719 231.407625 
L 53.815106 228.727954 
L 63.049804 225.965226 
L 71.741285 223.140911 
L 80.432766 220.080753 
L 88.581029 216.980171 
L 96.729292 213.637475 
L 104.334338 210.282527 
L 111.939384 206.683687 
L 119.001212 203.108046 
L 126.06304 199.291646 
L 133.124868 195.218277 
L 139.643479 191.215221 
L 146.162089 186.96399 
L 152.6807 182.449199 
L 159.19931 177.654508 
L 165.717921 172.562564 
L 171.693314 167.618101 
L 177.668707 162.393355 
L 183.6441 156.872438 
L 189.619493 151.03856 
L 195.594886 144.873982 
L 201.570279 138.359957 
L 207.002454 132.11823 
L 212.43463 125.55566 
L 217.866805 118.655756 
L 223.298981 111.401176 
L 228.731156 103.773691 
L 234.163332 95.754131 
L 239.595507 87.322343 
L 245.027683 78.457138 
L 250.459858 69.136235 
L 255.892034 59.336212 
L 260.780992 50.086213 
L 260.780992 50.086213 
" clip-path="url(#p2bb7140a6d)" style="fill: none; stroke: #1f2328; stroke-width: 2; stroke-linecap: square"/>
   </g>
   <g id="line2d_18">
    <path d="M 44.03719 231.407625 
L 260.780992 50.086213 
" clip-path="url(#p2bb7140a6d)" style="fill: none; stroke: #d55e00; stroke-width: 2; stroke-linecap: square"/>
   </g>
   <g id="line2d_19">
    <defs>
     <path id="m2ef733e3e0" d="M 0 2.5 
C 0.663008 2.5 1.29895 2.236584 1.767767 1.767767 
C 2.236584 1.29895 2.5 0.663008 2.5 0 
C 2.5 -0.663008 2.236584 -1.29895 1.767767 -1.767767 
C 1.29895 -2.236584 0.663008 -2.5 0 -2.5 
C -0.663008 -2.5 -1.29895 -2.236584 -1.767767 -1.767767 
C -2.236584 -1.29895 -2.5 -0.663008 -2.5 0 
C -2.5 0.663008 -2.236584 1.29895 -1.767767 1.767767 
C -1.29895 2.236584 -0.663008 2.5 0 2.5 
z
" style="stroke: #d55e00"/>
    </defs>
    <g clip-path="url(#p2bb7140a6d)">
     <use xlink:href="#m2ef733e3e0" x="44.03719" y="231.407625" style="fill: #d55e00; stroke: #d55e00"/>
     <use xlink:href="#m2ef733e3e0" x="260.780992" y="50.086213" style="fill: #d55e00; stroke: #d55e00"/>
    </g>
   </g>
  </g>
  <g id="axes_2">
   <g id="patch_5">
    <path d="M 319.301818 259.787625 
L 557.72 259.787625 
L 557.72 21.395625 
L 319.301818 21.395625 
z
" style="fill: #ffffff"/>
   </g>
   <g id="PolyCollection_2">
    <defs>
     <path id="mba06586565" d="M 330.139008 -64.08 
L 330.139008 -35.7 
L 330.682226 -35.7 
L 331.225443 -35.7 
L 331.768661 -35.7 
L 332.311878 -35.7 
L 332.855096 -35.7 
L 333.398314 -35.7 
L 333.941531 -35.7 
L 334.484749 -35.7 
L 335.027966 -35.7 
L 335.571184 -35.7 
L 336.114401 -35.7 
L 336.657619 -35.7 
L 337.200836 -35.7 
L 337.744054 -35.7 
L 338.287271 -35.7 
L 338.830489 -35.7 
L 339.373707 -35.7 
L 339.916924 -35.7 
L 340.460142 -35.7 
L 341.003359 -35.7 
L 341.546577 -35.7 
L 342.089794 -35.7 
L 342.633012 -35.7 
L 343.176229 -35.7 
L 343.719447 -35.7 
L 344.262665 -35.7 
L 344.805882 -35.7 
L 345.3491 -35.7 
L 345.892317 -35.7 
L 346.435535 -35.7 
L 346.978752 -35.7 
L 347.52197 -35.7 
L 348.065187 -35.7 
L 348.608405 -35.7 
L 349.151622 -35.7 
L 349.69484 -35.7 
L 350.238058 -35.7 
L 350.781275 -35.7 
L 351.324493 -35.7 
L 351.86771 -35.7 
L 352.410928 -35.7 
L 352.954145 -35.7 
L 353.497363 -35.7 
L 354.04058 -35.7 
L 354.583798 -35.7 
L 355.127015 -35.7 
L 355.670233 -35.7 
L 356.213451 -35.7 
L 356.756668 -35.7 
L 357.299886 -35.7 
L 357.843103 -35.7 
L 358.386321 -35.7 
L 358.929538 -35.7 
L 359.472756 -35.7 
L 360.015973 -35.7 
L 360.559191 -35.7 
L 361.102409 -35.7 
L 361.645626 -35.7 
L 362.188844 -35.7 
L 362.732061 -35.7 
L 363.275279 -35.7 
L 363.818496 -35.7 
L 364.361714 -35.7 
L 364.904931 -35.7 
L 365.448149 -35.7 
L 365.991366 -35.7 
L 366.534584 -35.7 
L 367.077802 -35.7 
L 367.621019 -35.7 
L 368.164237 -35.7 
L 368.707454 -35.7 
L 369.250672 -35.7 
L 369.793889 -35.7 
L 370.337107 -35.7 
L 370.880324 -35.7 
L 371.423542 -35.7 
L 371.966759 -35.7 
L 372.509977 -35.7 
L 373.053195 -35.7 
L 373.596412 -35.7 
L 374.13963 -35.7 
L 374.682847 -35.7 
L 375.226065 -35.7 
L 375.769282 -35.7 
L 376.3125 -35.7 
L 376.855717 -35.7 
L 377.398935 -35.7 
L 377.942152 -35.7 
L 378.48537 -35.7 
L 379.028588 -35.7 
L 379.571805 -35.7 
L 380.115023 -35.7 
L 380.65824 -35.7 
L 381.201458 -35.7 
L 381.744675 -35.7 
L 382.287893 -35.7 
L 382.83111 -35.7 
L 383.374328 -35.7 
L 383.917546 -35.7 
L 384.460763 -35.7 
L 385.003981 -35.7 
L 385.547198 -35.7 
L 386.090416 -35.7 
L 386.633633 -35.7 
L 387.176851 -35.7 
L 387.720068 -35.7 
L 388.263286 -35.7 
L 388.806503 -35.7 
L 389.349721 -35.7 
L 389.892939 -35.7 
L 390.436156 -35.7 
L 390.979374 -35.7 
L 391.522591 -35.7 
L 392.065809 -35.7 
L 392.609026 -35.7 
L 393.152244 -35.7 
L 393.695461 -35.7 
L 394.238679 -35.7 
L 394.781896 -35.7 
L 395.325114 -35.7 
L 395.868332 -35.7 
L 396.411549 -35.7 
L 396.954767 -35.7 
L 397.497984 -35.7 
L 398.041202 -35.7 
L 398.584419 -35.7 
L 399.127637 -35.7 
L 399.670854 -35.7 
L 400.214072 -35.7 
L 400.75729 -35.7 
L 401.300507 -35.7 
L 401.843725 -35.7 
L 402.386942 -35.7 
L 402.93016 -35.7 
L 403.473377 -35.7 
L 404.016595 -35.7 
L 404.559812 -35.7 
L 405.10303 -35.7 
L 405.646247 -35.7 
L 406.189465 -35.7 
L 406.732683 -35.7 
L 407.2759 -35.7 
L 407.819118 -35.7 
L 408.362335 -35.7 
L 408.905553 -35.7 
L 409.44877 -35.7 
L 409.991988 -35.7 
L 410.535205 -35.7 
L 411.078423 -35.7 
L 411.62164 -35.7 
L 412.164858 -35.7 
L 412.708076 -35.7 
L 413.251293 -35.7 
L 413.794511 -35.7 
L 414.337728 -35.7 
L 414.880946 -35.7 
L 415.424163 -35.7 
L 415.967381 -35.7 
L 416.510598 -35.7 
L 417.053816 -35.7 
L 417.597033 -35.7 
L 418.140251 -35.7 
L 418.683469 -35.7 
L 419.226686 -35.7 
L 419.769904 -35.7 
L 420.313121 -35.7 
L 420.856339 -35.7 
L 421.399556 -35.7 
L 421.942774 -35.7 
L 422.485991 -35.7 
L 423.029209 -35.7 
L 423.572427 -35.7 
L 424.115644 -35.7 
L 424.658862 -35.7 
L 425.202079 -35.7 
L 425.745297 -35.7 
L 426.288514 -35.7 
L 426.831732 -35.7 
L 427.374949 -35.7 
L 427.918167 -35.7 
L 428.461384 -35.7 
L 429.004602 -35.7 
L 429.54782 -35.7 
L 430.091037 -35.7 
L 430.634255 -35.7 
L 431.177472 -35.7 
L 431.72069 -35.7 
L 432.263907 -35.7 
L 432.807125 -35.7 
L 433.350342 -35.7 
L 433.89356 -35.7 
L 434.436777 -35.7 
L 434.979995 -35.7 
L 435.523213 -35.7 
L 436.06643 -35.7 
L 436.609648 -35.7 
L 437.152865 -35.7 
L 437.696083 -35.7 
L 438.2393 -35.7 
L 438.782518 -35.7 
L 439.325735 -35.7 
L 439.868953 -35.7 
L 440.412171 -35.7 
L 440.955388 -35.7 
L 441.498606 -35.7 
L 442.041823 -35.7 
L 442.585041 -35.7 
L 443.128258 -35.7 
L 443.671476 -35.7 
L 444.214693 -35.7 
L 444.757911 -35.7 
L 445.301128 -35.7 
L 445.844346 -35.7 
L 446.387564 -35.7 
L 446.930781 -35.7 
L 447.473999 -35.7 
L 448.017216 -35.7 
L 448.560434 -35.7 
L 449.103651 -35.7 
L 449.646869 -35.7 
L 450.190086 -35.7 
L 450.733304 -35.7 
L 451.276521 -35.7 
L 451.819739 -35.7 
L 452.362957 -35.7 
L 452.906174 -35.7 
L 453.449392 -35.7 
L 453.992609 -35.7 
L 454.535827 -35.7 
L 455.079044 -35.7 
L 455.622262 -35.7 
L 456.165479 -35.7 
L 456.708697 -35.7 
L 457.251914 -35.7 
L 457.795132 -35.7 
L 458.33835 -35.7 
L 458.881567 -35.7 
L 459.424785 -35.7 
L 459.968002 -35.7 
L 460.51122 -35.7 
L 461.054437 -35.7 
L 461.597655 -35.7 
L 462.140872 -35.7 
L 462.68409 -35.7 
L 463.227308 -35.7 
L 463.770525 -35.7 
L 464.313743 -35.7 
L 464.85696 -35.7 
L 465.400178 -35.7 
L 465.943395 -35.7 
L 466.486613 -35.7 
L 467.02983 -35.7 
L 467.573048 -35.7 
L 468.116265 -35.7 
L 468.659483 -35.7 
L 469.202701 -35.7 
L 469.745918 -35.7 
L 470.289136 -35.7 
L 470.832353 -35.7 
L 471.375571 -35.7 
L 471.918788 -35.7 
L 472.462006 -35.7 
L 473.005223 -35.7 
L 473.548441 -35.7 
L 474.091658 -35.7 
L 474.634876 -35.7 
L 475.178094 -35.7 
L 475.721311 -35.7 
L 476.264529 -35.7 
L 476.807746 -35.7 
L 477.350964 -35.7 
L 477.894181 -35.7 
L 478.437399 -35.7 
L 478.980616 -35.7 
L 479.523834 -35.7 
L 480.067052 -35.7 
L 480.610269 -35.7 
L 481.153487 -35.7 
L 481.696704 -35.7 
L 482.239922 -35.7 
L 482.783139 -35.7 
L 483.326357 -35.7 
L 483.869574 -35.7 
L 484.412792 -35.7 
L 484.956009 -35.7 
L 485.499227 -35.7 
L 486.042445 -35.7 
L 486.585662 -35.7 
L 487.12888 -35.7 
L 487.672097 -35.7 
L 488.215315 -35.7 
L 488.758532 -35.7 
L 489.30175 -35.7 
L 489.844967 -35.7 
L 490.388185 -35.7 
L 490.931402 -35.7 
L 491.47462 -35.7 
L 492.017838 -35.7 
L 492.561055 -35.7 
L 493.104273 -35.7 
L 493.64749 -35.7 
L 494.190708 -35.7 
L 494.733925 -35.7 
L 495.277143 -35.7 
L 495.82036 -35.7 
L 496.363578 -35.7 
L 496.906796 -35.7 
L 497.450013 -35.7 
L 497.993231 -35.7 
L 498.536448 -35.7 
L 499.079666 -35.7 
L 499.622883 -35.7 
L 500.166101 -35.7 
L 500.709318 -35.7 
L 501.252536 -35.7 
L 501.795753 -35.7 
L 502.338971 -35.7 
L 502.882189 -35.7 
L 503.425406 -35.7 
L 503.968624 -35.7 
L 504.511841 -35.7 
L 505.055059 -35.7 
L 505.598276 -35.7 
L 506.141494 -35.7 
L 506.684711 -35.7 
L 507.227929 -35.7 
L 507.771146 -35.7 
L 508.314364 -35.7 
L 508.857582 -35.7 
L 509.400799 -35.7 
L 509.944017 -35.7 
L 510.487234 -35.7 
L 511.030452 -35.7 
L 511.573669 -35.7 
L 512.116887 -35.7 
L 512.660104 -35.7 
L 513.203322 -35.7 
L 513.746539 -35.7 
L 514.289757 -35.7 
L 514.832975 -35.7 
L 515.376192 -35.7 
L 515.91941 -35.7 
L 516.462627 -35.7 
L 517.005845 -35.7 
L 517.549062 -35.7 
L 518.09228 -35.7 
L 518.635497 -35.7 
L 519.178715 -35.7 
L 519.721933 -35.7 
L 520.26515 -35.7 
L 520.808368 -35.7 
L 521.351585 -35.7 
L 521.894803 -35.7 
L 522.43802 -35.7 
L 522.981238 -35.7 
L 523.524455 -35.7 
L 524.067673 -35.7 
L 524.61089 -35.7 
L 525.154108 -35.7 
L 525.697326 -35.7 
L 526.240543 -35.7 
L 526.783761 -35.7 
L 527.326978 -35.7 
L 527.870196 -35.7 
L 528.413413 -35.7 
L 528.956631 -35.7 
L 529.499848 -35.7 
L 530.043066 -35.7 
L 530.586283 -35.7 
L 531.129501 -35.7 
L 531.672719 -35.7 
L 532.215936 -35.7 
L 532.759154 -35.7 
L 533.302371 -35.7 
L 533.845589 -35.7 
L 534.388806 -35.7 
L 534.932024 -35.7 
L 535.475241 -35.7 
L 536.018459 -35.7 
L 536.561677 -35.7 
L 537.104894 -35.7 
L 537.648112 -35.7 
L 538.191329 -35.7 
L 538.734547 -35.7 
L 539.277764 -35.7 
L 539.820982 -35.7 
L 540.364199 -35.7 
L 540.907417 -35.7 
L 541.450634 -35.7 
L 541.993852 -35.7 
L 542.53707 -35.7 
L 543.080287 -35.7 
L 543.623505 -35.7 
L 544.166722 -35.7 
L 544.70994 -35.7 
L 545.253157 -35.7 
L 545.796375 -35.7 
L 546.339592 -35.7 
L 546.88281 -35.7 
L 546.88281 -245.401412 
L 546.88281 -245.401412 
L 546.339592 -244.528016 
L 545.796375 -243.656726 
L 545.253157 -242.787541 
L 544.70994 -241.920461 
L 544.166722 -241.055487 
L 543.623505 -240.192618 
L 543.080287 -239.331854 
L 542.53707 -238.473195 
L 541.993852 -237.616642 
L 541.450634 -236.762194 
L 540.907417 -235.909852 
L 540.364199 -235.059614 
L 539.820982 -234.211482 
L 539.277764 -233.365456 
L 538.734547 -232.521534 
L 538.191329 -231.679718 
L 537.648112 -230.840007 
L 537.104894 -230.002402 
L 536.561677 -229.166902 
L 536.018459 -228.333507 
L 535.475241 -227.502217 
L 534.932024 -226.673033 
L 534.388806 -225.845954 
L 533.845589 -225.020981 
L 533.302371 -224.198112 
L 532.759154 -223.377349 
L 532.215936 -222.558692 
L 531.672719 -221.742139 
L 531.129501 -220.927692 
L 530.586283 -220.11535 
L 530.043066 -219.305114 
L 529.499848 -218.496983 
L 528.956631 -217.690957 
L 528.413413 -216.887036 
L 527.870196 -216.085221 
L 527.326978 -215.285511 
L 526.783761 -214.487906 
L 526.240543 -213.692407 
L 525.697326 -212.899013 
L 525.154108 -212.107724 
L 524.61089 -211.318541 
L 524.067673 -210.531463 
L 523.524455 -209.74649 
L 522.981238 -208.963623 
L 522.43802 -208.18286 
L 521.894803 -207.404204 
L 521.351585 -206.627652 
L 520.808368 -205.853206 
L 520.26515 -205.080865 
L 519.721933 -204.310629 
L 519.178715 -203.542499 
L 518.635497 -202.776474 
L 518.09228 -202.012554 
L 517.549062 -201.25074 
L 517.005845 -200.49103 
L 516.462627 -199.733427 
L 515.91941 -198.977928 
L 515.376192 -198.224535 
L 514.832975 -197.473247 
L 514.289757 -196.724065 
L 513.746539 -195.976987 
L 513.203322 -195.232015 
L 512.660104 -194.489149 
L 512.116887 -193.748387 
L 511.573669 -193.009731 
L 511.030452 -192.273181 
L 510.487234 -191.538735 
L 509.944017 -190.806395 
L 509.400799 -190.07616 
L 508.857582 -189.348031 
L 508.314364 -188.622006 
L 507.771146 -187.898088 
L 507.227929 -187.176274 
L 506.684711 -186.456566 
L 506.141494 -185.738963 
L 505.598276 -185.023465 
L 505.055059 -184.310073 
L 504.511841 -183.598786 
L 503.968624 -182.889604 
L 503.425406 -182.182527 
L 502.882189 -181.477556 
L 502.338971 -180.77469 
L 501.795753 -180.07393 
L 501.252536 -179.375275 
L 500.709318 -178.678725 
L 500.166101 -177.98428 
L 499.622883 -177.291941 
L 499.079666 -176.601707 
L 498.536448 -175.913578 
L 497.993231 -175.227555 
L 497.450013 -174.543637 
L 496.906796 -173.861824 
L 496.363578 -173.182117 
L 495.82036 -172.504514 
L 495.277143 -171.829018 
L 494.733925 -171.155626 
L 494.190708 -170.48434 
L 493.64749 -169.815159 
L 493.104273 -169.148083 
L 492.561055 -168.483113 
L 492.017838 -167.820248 
L 491.47462 -167.159488 
L 490.931402 -166.500834 
L 490.388185 -165.844285 
L 489.844967 -165.189841 
L 489.30175 -164.537503 
L 488.758532 -163.887269 
L 488.215315 -163.239142 
L 487.672097 -162.593119 
L 487.12888 -161.949202 
L 486.585662 -161.30739 
L 486.042445 -160.667683 
L 485.499227 -160.030082 
L 484.956009 -159.394586 
L 484.412792 -158.761195 
L 483.869574 -158.12991 
L 483.326357 -157.50073 
L 482.783139 -156.873655 
L 482.239922 -156.248686 
L 481.696704 -155.625821 
L 481.153487 -155.005062 
L 480.610269 -154.386409 
L 480.067052 -153.769861 
L 479.523834 -153.155418 
L 478.980616 -152.54308 
L 478.437399 -151.932848 
L 477.894181 -151.324721 
L 477.350964 -150.718699 
L 476.807746 -150.114783 
L 476.264529 -149.512972 
L 475.721311 -148.913266 
L 475.178094 -148.315665 
L 474.634876 -147.72017 
L 474.091658 -147.12678 
L 473.548441 -146.535496 
L 473.005223 -145.946316 
L 472.462006 -145.359242 
L 471.918788 -144.774274 
L 471.375571 -144.19141 
L 470.832353 -143.610652 
L 470.289136 -143.032 
L 469.745918 -142.455452 
L 469.202701 -141.88101 
L 468.659483 -141.308673 
L 468.116265 -140.738442 
L 467.573048 -140.170316 
L 467.02983 -139.604295 
L 466.486613 -139.040379 
L 465.943395 -138.478569 
L 465.400178 -137.918864 
L 464.85696 -137.361264 
L 464.313743 -136.80577 
L 463.770525 -136.252381 
L 463.227308 -135.701097 
L 462.68409 -135.151919 
L 462.140872 -134.604846 
L 461.597655 -134.059878 
L 461.054437 -133.517015 
L 460.51122 -132.976258 
L 459.968002 -132.437606 
L 459.424785 -131.901059 
L 458.881567 -131.366618 
L 458.33835 -130.834282 
L 457.795132 -130.304052 
L 457.251914 -129.775926 
L 456.708697 -129.249906 
L 456.165479 -128.725991 
L 455.622262 -128.204182 
L 455.079044 -127.684478 
L 454.535827 -127.166879 
L 453.992609 -126.651385 
L 453.449392 -126.137997 
L 452.906174 -125.626714 
L 452.362957 -125.117537 
L 451.819739 -124.610464 
L 451.276521 -124.105497 
L 450.733304 -123.602636 
L 450.190086 -123.101879 
L 449.646869 -122.603228 
L 449.103651 -122.106683 
L 448.560434 -121.612242 
L 448.017216 -121.119907 
L 447.473999 -120.629677 
L 446.930781 -120.141553 
L 446.387564 -119.655533 
L 445.844346 -119.171619 
L 445.301128 -118.689811 
L 444.757911 -118.210107 
L 444.214693 -117.732509 
L 443.671476 -117.257017 
L 443.128258 -116.783629 
L 442.585041 -116.312347 
L 442.041823 -115.84317 
L 441.498606 -115.376099 
L 440.955388 -114.911133 
L 440.412171 -114.448272 
L 439.868953 -113.987516 
L 439.325735 -113.528866 
L 438.782518 -113.072321 
L 438.2393 -112.617882 
L 437.696083 -112.165547 
L 437.152865 -111.715318 
L 436.609648 -111.267195 
L 436.06643 -110.821176 
L 435.523213 -110.377263 
L 434.979995 -109.935455 
L 434.436777 -109.495753 
L 433.89356 -109.058156 
L 433.350342 -108.622664 
L 432.807125 -108.189277 
L 432.263907 -107.757996 
L 431.72069 -107.32882 
L 431.177472 -106.901749 
L 430.634255 -106.476784 
L 430.091037 -106.053924 
L 429.54782 -105.633169 
L 429.004602 -105.21452 
L 428.461384 -104.797976 
L 427.918167 -104.383537 
L 427.374949 -103.971203 
L 426.831732 -103.560975 
L 426.288514 -103.152852 
L 425.745297 -102.746835 
L 425.202079 -102.342923 
L 424.658862 -101.941116 
L 424.115644 -101.541414 
L 423.572427 -101.143818 
L 423.029209 -100.748327 
L 422.485991 -100.354941 
L 421.942774 -99.96366 
L 421.399556 -99.574485 
L 420.856339 -99.187415 
L 420.313121 -98.802451 
L 419.769904 -98.419592 
L 419.226686 -98.038838 
L 418.683469 -97.660189 
L 418.140251 -97.283646 
L 417.597033 -96.909208 
L 417.053816 -96.536875 
L 416.510598 -96.166648 
L 415.967381 -95.798526 
L 415.424163 -95.432509 
L 414.880946 -95.068598 
L 414.337728 -94.706792 
L 413.794511 -94.347091 
L 413.251293 -93.989495 
L 412.708076 -93.634005 
L 412.164858 -93.28062 
L 411.62164 -92.929341 
L 411.078423 -92.580166 
L 410.535205 -92.233097 
L 409.991988 -91.888134 
L 409.44877 -91.545275 
L 408.905553 -91.204522 
L 408.362335 -90.865874 
L 407.819118 -90.529332 
L 407.2759 -90.194895 
L 406.732683 -89.862563 
L 406.189465 -89.532336 
L 405.646247 -89.204215 
L 405.10303 -88.878199 
L 404.559812 -88.554289 
L 404.016595 -88.232483 
L 403.473377 -87.912783 
L 402.93016 -87.595189 
L 402.386942 -87.279699 
L 401.843725 -86.966315 
L 401.300507 -86.655037 
L 400.75729 -86.345863 
L 400.214072 -86.038795 
L 399.670854 -85.733832 
L 399.127637 -85.430975 
L 398.584419 -85.130222 
L 398.041202 -84.831575 
L 397.497984 -84.535034 
L 396.954767 -84.240597 
L 396.411549 -83.948266 
L 395.868332 -83.658041 
L 395.325114 -83.36992 
L 394.781896 -83.083905 
L 394.238679 -82.799995 
L 393.695461 -82.518191 
L 393.152244 -82.238492 
L 392.609026 -81.960898 
L 392.065809 -81.685409 
L 391.522591 -81.412026 
L 390.979374 -81.140748 
L 390.436156 -80.871576 
L 389.892939 -80.604508 
L 389.349721 -80.339546 
L 388.806503 -80.076689 
L 388.263286 -79.815938 
L 387.720068 -79.557292 
L 387.176851 -79.300751 
L 386.633633 -79.046316 
L 386.090416 -78.793986 
L 385.547198 -78.543761 
L 385.003981 -78.295641 
L 384.460763 -78.049627 
L 383.917546 -77.805718 
L 383.374328 -77.563914 
L 382.83111 -77.324216 
L 382.287893 -77.086623 
L 381.744675 -76.851135 
L 381.201458 -76.617753 
L 380.65824 -76.386476 
L 380.115023 -76.157304 
L 379.571805 -75.930237 
L 379.028588 -75.705276 
L 378.48537 -75.48242 
L 377.942152 -75.26167 
L 377.398935 -75.043024 
L 376.855717 -74.826484 
L 376.3125 -74.61205 
L 375.769282 -74.39972 
L 375.226065 -74.189496 
L 374.682847 -73.981378 
L 374.13963 -73.775364 
L 373.596412 -73.571456 
L 373.053195 -73.369653 
L 372.509977 -73.169956 
L 371.966759 -72.972364 
L 371.423542 -72.776877 
L 370.880324 -72.583495 
L 370.337107 -72.392219 
L 369.793889 -72.203048 
L 369.250672 -72.015982 
L 368.707454 -71.831022 
L 368.164237 -71.648167 
L 367.621019 -71.467417 
L 367.077802 -71.288772 
L 366.534584 -71.112233 
L 365.991366 -70.9378 
L 365.448149 -70.765471 
L 364.904931 -70.595248 
L 364.361714 -70.42713 
L 363.818496 -70.261117 
L 363.275279 -70.09721 
L 362.732061 -69.935408 
L 362.188844 -69.775711 
L 361.645626 -69.61812 
L 361.102409 -69.462634 
L 360.559191 -69.309253 
L 360.015973 -69.157978 
L 359.472756 -69.008807 
L 358.929538 -68.861743 
L 358.386321 -68.716783 
L 357.843103 -68.573929 
L 357.299886 -68.43318 
L 356.756668 -68.294536 
L 356.213451 -68.157998 
L 355.670233 -68.023565 
L 355.127015 -67.891237 
L 354.583798 -67.761015 
L 354.04058 -67.632898 
L 353.497363 -67.506886 
L 352.954145 -67.38298 
L 352.410928 -67.261178 
L 351.86771 -67.141483 
L 351.324493 -67.023892 
L 350.781275 -66.908407 
L 350.238058 -66.795027 
L 349.69484 -66.683752 
L 349.151622 -66.574583 
L 348.608405 -66.467519 
L 348.065187 -66.36256 
L 347.52197 -66.259707 
L 346.978752 -66.158959 
L 346.435535 -66.060316 
L 345.892317 -65.963778 
L 345.3491 -65.869346 
L 344.805882 -65.777019 
L 344.262665 -65.686798 
L 343.719447 -65.598682 
L 343.176229 -65.512671 
L 342.633012 -65.428765 
L 342.089794 -65.346965 
L 341.546577 -65.26727 
L 341.003359 -65.18968 
L 340.460142 -65.114196 
L 339.916924 -65.040816 
L 339.373707 -64.969543 
L 338.830489 -64.900374 
L 338.287271 -64.833311 
L 337.744054 -64.768353 
L 337.200836 -64.705501 
L 336.657619 -64.644753 
L 336.114401 -64.586111 
L 335.571184 -64.529575 
L 335.027966 -64.475143 
L 334.484749 -64.422817 
L 333.941531 -64.372597 
L 333.398314 -64.324481 
L 332.855096 -64.278471 
L 332.311878 -64.234566 
L 331.768661 -64.192767 
L 331.225443 -64.153072 
L 330.682226 -64.115484 
L 330.139008 -64.08 
z
" style="stroke: #009e73; stroke-opacity: 0.25"/>
    </defs>
    <g clip-path="url(#p522bb8630d)">
     <use xlink:href="#mba06586565" x="0" y="295.487625" style="fill: #009e73; fill-opacity: 0.25; stroke: #009e73; stroke-opacity: 0.25"/>
    </g>
   </g>
   <g id="matplotlib.axis_3">
    <g id="xtick_6">
     <g id="line2d_20">
      <g>
       <use xlink:href="#m5d1f9d765a" x="330.139008" y="259.787625" style="fill: #1f2328; stroke: #1f2328; stroke-width: 0.8"/>
      </g>
     </g>
     <g id="text_20">
      <!-- 0.0 -->
      <g style="fill: #1f2328" transform="translate(324.514008 272.434344) scale(0.09 -0.09)">
       <use xlink:href="#STIXGeneral-Regular-30"/>
       <use xlink:href="#STIXGeneral-Regular-2e" x="49.999985"/>
       <use xlink:href="#STIXGeneral-Regular-30" x="74.999969"/>
      </g>
     </g>
    </g>
    <g id="xtick_7">
     <g id="line2d_21">
      <g>
       <use xlink:href="#m5d1f9d765a" x="384.324959" y="259.787625" style="fill: #1f2328; stroke: #1f2328; stroke-width: 0.8"/>
      </g>
     </g>
     <g id="text_21">
      <!-- 0.5 -->
      <g style="fill: #1f2328" transform="translate(378.699959 272.434344) scale(0.09 -0.09)">
       <use xlink:href="#STIXGeneral-Regular-30"/>
       <use xlink:href="#STIXGeneral-Regular-2e" x="49.999985"/>
       <use xlink:href="#STIXGeneral-Regular-35" x="74.999969"/>
      </g>
     </g>
    </g>
    <g id="xtick_8">
     <g id="line2d_22">
      <g>
       <use xlink:href="#m5d1f9d765a" x="438.510909" y="259.787625" style="fill: #1f2328; stroke: #1f2328; stroke-width: 0.8"/>
      </g>
     </g>
     <g id="text_22">
      <!-- 1.0 -->
      <g style="fill: #1f2328" transform="translate(432.885909 272.434344) scale(0.09 -0.09)">
       <use xlink:href="#STIXGeneral-Regular-31"/>
       <use xlink:href="#STIXGeneral-Regular-2e" x="49.999985"/>
       <use xlink:href="#STIXGeneral-Regular-30" x="74.999969"/>
      </g>
     </g>
    </g>
    <g id="xtick_9">
     <g id="line2d_23">
      <g>
       <use xlink:href="#m5d1f9d765a" x="492.69686" y="259.787625" style="fill: #1f2328; stroke: #1f2328; stroke-width: 0.8"/>
      </g>
     </g>
     <g id="text_23">
      <!-- 1.5 -->
      <g style="fill: #1f2328" transform="translate(487.07186 272.434344) scale(0.09 -0.09)">
       <use xlink:href="#STIXGeneral-Regular-31"/>
       <use xlink:href="#STIXGeneral-Regular-2e" x="49.999985"/>
       <use xlink:href="#STIXGeneral-Regular-35" x="74.999969"/>
      </g>
     </g>
    </g>
    <g id="xtick_10">
     <g id="line2d_24">
      <g>
       <use xlink:href="#m5d1f9d765a" x="546.88281" y="259.787625" style="fill: #1f2328; stroke: #1f2328; stroke-width: 0.8"/>
      </g>
     </g>
     <g id="text_24">
      <!-- 2.0 -->
      <g style="fill: #1f2328" transform="translate(541.25781 272.434344) scale(0.09 -0.09)">
       <use xlink:href="#STIXGeneral-Regular-32"/>
       <use xlink:href="#STIXGeneral-Regular-2e" x="49.999985"/>
       <use xlink:href="#STIXGeneral-Regular-30" x="74.999969"/>
      </g>
     </g>
    </g>
    <g id="text_25">
     <!-- $x$ -->
     <g transform="translate(435.320909 285.900281) scale(0.11 -0.11)">
      <use xlink:href="#Cmmi10-78" transform="translate(0 0.8125)"/>
     </g>
    </g>
   </g>
   <g id="matplotlib.axis_4">
    <g id="ytick_10">
     <g id="line2d_25">
      <g>
       <use xlink:href="#mcaa2a0f7b8" x="319.301818" y="259.787625" style="fill: #1f2328; stroke: #1f2328; stroke-width: 0.8"/>
      </g>
     </g>
    </g>
    <g id="ytick_11">
     <g id="line2d_26">
      <g>
       <use xlink:href="#mcaa2a0f7b8" x="319.301818" y="231.407625" style="fill: #1f2328; stroke: #1f2328; stroke-width: 0.8"/>
      </g>
     </g>
    </g>
    <g id="ytick_12">
     <g id="line2d_27">
      <g>
       <use xlink:href="#mcaa2a0f7b8" x="319.301818" y="203.027625" style="fill: #1f2328; stroke: #1f2328; stroke-width: 0.8"/>
      </g>
     </g>
    </g>
    <g id="ytick_13">
     <g id="line2d_28">
      <g>
       <use xlink:href="#mcaa2a0f7b8" x="319.301818" y="174.647625" style="fill: #1f2328; stroke: #1f2328; stroke-width: 0.8"/>
      </g>
     </g>
    </g>
    <g id="ytick_14">
     <g id="line2d_29">
      <g>
       <use xlink:href="#mcaa2a0f7b8" x="319.301818" y="146.267625" style="fill: #1f2328; stroke: #1f2328; stroke-width: 0.8"/>
      </g>
     </g>
    </g>
    <g id="ytick_15">
     <g id="line2d_30">
      <g>
       <use xlink:href="#mcaa2a0f7b8" x="319.301818" y="117.887625" style="fill: #1f2328; stroke: #1f2328; stroke-width: 0.8"/>
      </g>
     </g>
    </g>
    <g id="ytick_16">
     <g id="line2d_31">
      <g>
       <use xlink:href="#mcaa2a0f7b8" x="319.301818" y="89.507625" style="fill: #1f2328; stroke: #1f2328; stroke-width: 0.8"/>
      </g>
     </g>
    </g>
    <g id="ytick_17">
     <g id="line2d_32">
      <g>
       <use xlink:href="#mcaa2a0f7b8" x="319.301818" y="61.127625" style="fill: #1f2328; stroke: #1f2328; stroke-width: 0.8"/>
      </g>
     </g>
    </g>
    <g id="ytick_18">
     <g id="line2d_33">
      <g>
       <use xlink:href="#mcaa2a0f7b8" x="319.301818" y="32.747625" style="fill: #1f2328; stroke: #1f2328; stroke-width: 0.8"/>
      </g>
     </g>
    </g>
   </g>
   <g id="line2d_34">
    <path d="M 330.139008 259.787625 
L 330.139008 231.407625 
" clip-path="url(#p522bb8630d)" style="fill: none; stroke: #9aa3ad; stroke-width: 0.8; stroke-linecap: square"/>
   </g>
   <g id="line2d_35">
    <path d="M 546.88281 259.787625 
L 546.88281 50.086213 
" clip-path="url(#p522bb8630d)" style="fill: none; stroke: #9aa3ad; stroke-width: 0.8; stroke-linecap: square"/>
   </g>
   <g id="patch_6">
    <path d="M 319.301818 259.787625 
L 319.301818 21.395625 
" style="fill: none; stroke: #1f2328; stroke-width: 0.8; stroke-linejoin: miter; stroke-linecap: square"/>
   </g>
   <g id="patch_7">
    <path d="M 319.301818 259.787625 
L 557.72 259.787625 
" style="fill: none; stroke: #1f2328; stroke-width: 0.8; stroke-linejoin: miter; stroke-linecap: square"/>
   </g>
   <g id="text_26">
    <!-- area $=6.421$ -->
    <g style="fill: #009e73" transform="translate(422.255124 202.519312) scale(0.1 -0.1)">
     <defs>
      <path id="Cmr10-36" d="M 1600 -141 
Q 1203 -141 937 70 
Q 672 281 526 617 
Q 381 953 325 1322 
Q 269 1691 269 2069 
Q 269 2575 466 3084 
Q 663 3594 1045 3928 
Q 1428 4263 1953 4263 
Q 2172 4263 2361 4180 
Q 2550 4097 2658 3936 
Q 2766 3775 2766 3547 
Q 2766 3416 2677 3327 
Q 2588 3238 2456 3238 
Q 2331 3238 2240 3328 
Q 2150 3419 2150 3547 
Q 2150 3672 2240 3762 
Q 2331 3853 2456 3853 
L 2491 3853 
Q 2409 3969 2261 4023 
Q 2113 4078 1953 4078 
Q 1759 4078 1595 3993 
Q 1431 3909 1300 3765 
Q 1169 3622 1081 3448 
Q 994 3275 945 3053 
Q 897 2831 884 2637 
Q 872 2444 872 2150 
Q 984 2413 1190 2580 
Q 1397 2747 1656 2747 
Q 1941 2747 2175 2631 
Q 2409 2516 2578 2311 
Q 2747 2106 2836 1843 
Q 2925 1581 2925 1313 
Q 2925 938 2758 598 
Q 2591 259 2287 59 
Q 1984 -141 1600 -141 
z
M 1600 63 
Q 1847 63 1997 175 
Q 2147 288 2217 473 
Q 2288 659 2305 848 
Q 2322 1038 2322 1313 
Q 2322 1675 2287 1931 
Q 2253 2188 2100 2383 
Q 1947 2578 1631 2578 
Q 1372 2578 1205 2403 
Q 1038 2228 961 1961 
Q 884 1694 884 1447 
Q 884 1363 891 1319 
Q 891 1309 889 1303 
Q 888 1297 884 1288 
Q 884 1013 940 731 
Q 997 450 1156 256 
Q 1316 63 1600 63 
z
" transform="scale(0.015625)"/>
      <path id="Cmr10-34" d="M 178 1056 
L 178 1281 
L 2156 4231 
Q 2178 4263 2222 4263 
L 2316 4263 
Q 2388 4263 2388 4191 
L 2388 1281 
L 3016 1281 
L 3016 1056 
L 2388 1056 
L 2388 428 
Q 2388 297 2575 261 
Q 2763 225 3009 225 
L 3009 0 
L 1247 0 
L 1247 225 
Q 1494 225 1681 261 
Q 1869 297 1869 428 
L 1869 1056 
L 178 1056 
z
M 391 1281 
L 1906 1281 
L 1906 3547 
L 391 1281 
z
" transform="scale(0.015625)"/>
      <path id="Cmr10-32" d="M 319 0 
L 319 172 
Q 319 188 331 206 
L 1325 1306 
Q 1550 1550 1690 1715 
Q 1831 1881 1968 2097 
Q 2106 2313 2186 2536 
Q 2266 2759 2266 3009 
Q 2266 3272 2169 3511 
Q 2072 3750 1880 3894 
Q 1688 4038 1416 4038 
Q 1138 4038 916 3870 
Q 694 3703 603 3438 
Q 628 3444 672 3444 
Q 816 3444 917 3347 
Q 1019 3250 1019 3097 
Q 1019 2950 917 2848 
Q 816 2747 672 2747 
Q 522 2747 420 2851 
Q 319 2956 319 3097 
Q 319 3338 409 3548 
Q 500 3759 670 3923 
Q 841 4088 1055 4175 
Q 1269 4263 1509 4263 
Q 1875 4263 2190 4108 
Q 2506 3953 2690 3670 
Q 2875 3388 2875 3009 
Q 2875 2731 2753 2481 
Q 2631 2231 2440 2026 
Q 2250 1822 1953 1562 
Q 1656 1303 1563 1216 
L 838 519 
L 1453 519 
Q 1906 519 2211 526 
Q 2516 534 2534 550 
Q 2609 631 2688 1141 
L 2875 1141 
L 2694 0 
L 319 0 
z
" transform="scale(0.015625)"/>
      <path id="Cmr10-31" d="M 594 0 
L 594 225 
Q 1394 225 1394 428 
L 1394 3788 
Q 1063 3628 556 3628 
L 556 3853 
Q 1341 3853 1741 4263 
L 1831 4263 
Q 1853 4263 1873 4245 
Q 1894 4228 1894 4206 
L 1894 428 
Q 1894 225 2694 225 
L 2694 0 
L 594 0 
z
" transform="scale(0.015625)"/>
     </defs>
     <use xlink:href="#STIXGeneral-Regular-61" transform="translate(0 0.390625)"/>
     <use xlink:href="#STIXGeneral-Regular-72" transform="translate(44.399994 0.390625)"/>
     <use xlink:href="#STIXGeneral-Regular-65" transform="translate(77.699982 0.390625)"/>
     <use xlink:href="#STIXGeneral-Regular-61" transform="translate(122.099976 0.390625)"/>
     <use xlink:href="#STIXGeneral-Regular-20" transform="translate(166.499969 0.390625)"/>
     <use xlink:href="#Cmr10-3d" transform="translate(209.058548 0.390625)"/>
     <use xlink:href="#Cmr10-36" transform="translate(304.302689 0.390625)"/>
     <use xlink:href="#Cmmi10-3a" transform="translate(354.302689 0.390625)"/>
     <use xlink:href="#Cmr10-34" transform="translate(381.988235 0.390625)"/>
     <use xlink:href="#Cmr10-32" transform="translate(431.988235 0.390625)"/>
     <use xlink:href="#Cmr10-31" transform="translate(481.988235 0.390625)"/>
    </g>
   </g>
   <g id="text_27">
    <!-- exact $=6.389$ -->
    <g style="fill: #1f2328" transform="translate(422.255124 225.106828) scale(0.095 -0.095)">
     <defs>
      <path id="STIXGeneral-Regular-78" d="M 3066 0 
L 1779 0 
L 1779 96 
Q 1939 109 1987 137 
Q 2035 166 2035 250 
Q 2035 307 1997 365 
L 1414 1261 
L 909 474 
Q 781 275 781 211 
Q 781 96 1037 96 
L 1037 0 
L 109 0 
L 109 96 
Q 269 109 355 169 
Q 442 230 576 422 
L 1306 1478 
L 704 2400 
Q 557 2624 454 2704 
Q 352 2784 211 2784 
L 154 2784 
L 154 2880 
L 1478 2880 
L 1478 2784 
Q 1203 2778 1203 2643 
Q 1203 2509 1498 2074 
Q 1581 1958 1587 1946 
Q 1619 1990 1779 2227 
Q 1811 2285 1856 2349 
Q 1901 2413 1923 2451 
Q 1946 2490 1971 2528 
Q 1997 2566 2006 2595 
Q 2016 2624 2016 2643 
Q 2016 2765 1760 2784 
L 1760 2880 
L 2771 2880 
L 2771 2784 
Q 2445 2771 2253 2502 
L 1722 1734 
L 2541 480 
Q 2790 96 3066 96 
L 3066 0 
z
" transform="scale(0.015625)"/>
      <path id="STIXGeneral-Regular-74" d="M 1702 493 
L 1786 422 
Q 1478 -64 1011 -64 
Q 448 -64 448 749 
L 448 2675 
L 109 2675 
Q 83 2694 83 2720 
Q 83 2771 192 2842 
Q 435 2982 813 3526 
Q 826 3546 874 3606 
Q 922 3667 941 3706 
Q 986 3706 986 3622 
L 986 2880 
L 1632 2880 
L 1632 2675 
L 986 2675 
L 986 845 
Q 986 538 1062 403 
Q 1139 269 1318 269 
Q 1510 269 1702 493 
z
" transform="scale(0.015625)"/>
     </defs>
     <use xlink:href="#STIXGeneral-Regular-65" transform="translate(0 0.390625)"/>
     <use xlink:href="#STIXGeneral-Regular-78" transform="translate(44.399994 0.390625)"/>
     <use xlink:href="#STIXGeneral-Regular-61" transform="translate(94.399979 0.390625)"/>
     <use xlink:href="#STIXGeneral-Regular-63" transform="translate(138.799973 0.390625)"/>
     <use xlink:href="#STIXGeneral-Regular-74" transform="translate(183.199966 0.390625)"/>
     <use xlink:href="#STIXGeneral-Regular-20" transform="translate(210.999954 0.390625)"/>
     <use xlink:href="#Cmr10-3d" transform="translate(253.558533 0.390625)"/>
     <use xlink:href="#Cmr10-36" transform="translate(348.802673 0.390625)"/>
     <use xlink:href="#Cmmi10-3a" transform="translate(398.802673 0.390625)"/>
     <use xlink:href="#Cmr10-33" transform="translate(426.48822 0.390625)"/>
     <use xlink:href="#Cmr10-38" transform="translate(476.48822 0.390625)"/>
     <use xlink:href="#Cmr10-39" transform="translate(526.48822 0.390625)"/>
    </g>
   </g>
   <g id="text_28">
    <!-- Simpson: parabola -->
    <g transform="translate(393.678722 15.395625) scale(0.12 -0.12)">
     <defs>
      <path id="STIXGeneral-Regular-53" d="M 3002 2963 
L 2842 2963 
Q 2733 3360 2579 3565 
Q 2189 4064 1651 4064 
Q 1357 4064 1181 3894 
Q 1005 3725 1005 3456 
Q 1005 3328 1069 3206 
Q 1133 3085 1206 2998 
Q 1280 2912 1465 2784 
Q 1651 2656 1766 2589 
Q 1882 2522 2150 2362 
Q 2669 2061 2905 1763 
Q 3142 1466 3142 1107 
Q 3142 576 2771 243 
Q 2400 -90 1837 -90 
Q 1421 -90 1082 58 
Q 915 128 781 128 
Q 704 128 653 70 
Q 602 13 602 -83 
L 461 -83 
L 275 1274 
L 416 1274 
Q 845 141 1734 141 
Q 2074 141 2285 342 
Q 2496 544 2496 858 
Q 2496 1158 2310 1363 
Q 2003 1696 1235 2106 
Q 454 2522 454 3206 
Q 454 3718 768 4022 
Q 1082 4326 1568 4326 
Q 1907 4326 2240 4186 
Q 2413 4109 2522 4109 
Q 2688 4109 2726 4326 
L 2861 4326 
L 3002 2963 
z
" transform="scale(0.015625)"/>
      <path id="STIXGeneral-Regular-6d" d="M 4960 0 
L 3565 0 
L 3565 96 
Q 3834 122 3907 208 
Q 3981 294 3981 576 
L 3981 1894 
Q 3981 2278 3869 2444 
Q 3757 2611 3488 2611 
Q 3264 2611 3107 2521 
Q 2950 2432 2803 2221 
L 2803 608 
Q 2803 301 2896 201 
Q 2989 102 3264 96 
L 3264 0 
L 1830 0 
L 1830 96 
Q 2112 115 2189 188 
Q 2266 262 2266 550 
L 2266 1901 
Q 2266 2611 1850 2611 
Q 1670 2611 1468 2531 
Q 1267 2451 1171 2336 
Q 1088 2240 1088 2227 
L 1088 448 
Q 1088 243 1177 176 
Q 1267 109 1523 96 
L 1523 0 
L 102 0 
L 102 96 
Q 371 102 460 195 
Q 550 288 550 563 
L 550 2150 
Q 550 2387 499 2480 
Q 448 2573 326 2573 
Q 230 2573 122 2547 
L 122 2656 
Q 557 2778 1011 2944 
L 1062 2925 
L 1062 2451 
L 1075 2451 
Q 1363 2752 1584 2848 
Q 1805 2944 2054 2944 
Q 2560 2944 2733 2406 
Q 3232 2944 3776 2944 
Q 4518 2944 4518 1792 
L 4518 493 
Q 4518 282 4582 202 
Q 4646 122 4794 109 
L 4960 96 
L 4960 0 
z
" transform="scale(0.015625)"/>
      <path id="STIXGeneral-Regular-73" d="M 998 1926 
L 1664 1523 
Q 1984 1331 2105 1164 
Q 2227 998 2227 736 
Q 2227 416 1961 176 
Q 1696 -64 1331 -64 
Q 1030 -64 864 -6 
Q 691 51 570 51 
Q 461 51 416 -26 
L 333 -26 
L 333 979 
L 435 979 
Q 538 512 730 294 
Q 922 77 1248 77 
Q 1485 77 1632 211 
Q 1779 346 1779 550 
Q 1779 845 1440 1030 
L 1094 1222 
Q 326 1651 326 2150 
Q 326 2522 566 2730 
Q 806 2938 1210 2938 
Q 1491 2938 1638 2867 
Q 1754 2816 1818 2816 
Q 1862 2816 1920 2880 
L 1990 2880 
L 2022 2010 
L 1926 2010 
Q 1818 2445 1654 2621 
Q 1491 2797 1203 2797 
Q 986 2797 854 2688 
Q 723 2579 723 2362 
Q 723 2253 796 2128 
Q 870 2003 998 1926 
z
" transform="scale(0.015625)"/>
      <path id="STIXGeneral-Regular-6e" d="M 3104 0 
L 1773 0 
L 1779 96 
Q 2016 115 2096 233 
Q 2176 352 2176 672 
L 2176 1946 
Q 2176 2592 1709 2592 
Q 1549 2592 1408 2515 
Q 1267 2438 1050 2227 
L 1050 461 
Q 1050 269 1136 192 
Q 1222 115 1466 96 
L 1466 0 
L 115 0 
L 115 96 
Q 358 115 435 214 
Q 512 314 512 602 
L 512 2157 
Q 512 2394 467 2483 
Q 422 2573 288 2573 
Q 160 2573 102 2547 
L 102 2656 
Q 550 2784 979 2944 
L 1030 2925 
L 1030 2426 
L 1037 2426 
Q 1491 2944 1958 2944 
Q 2323 2944 2518 2688 
Q 2714 2432 2714 1958 
L 2714 544 
Q 2714 288 2790 205 
Q 2867 122 3104 96 
L 3104 0 
z
" transform="scale(0.015625)"/>
      <path id="STIXGeneral-Regular-62" d="M 979 4358 
L 979 2406 
Q 1082 2650 1315 2797 
Q 1549 2944 1843 2944 
Q 2349 2944 2672 2541 
Q 2995 2138 2995 1536 
Q 2995 832 2566 384 
Q 2138 -64 1498 -64 
Q 1107 -64 774 67 
Q 442 198 442 358 
L 442 3622 
Q 442 3859 384 3926 
Q 326 3994 128 3994 
Q 83 3994 19 3981 
L 19 4090 
L 211 4147 
Q 864 4346 947 4371 
L 979 4358 
z
M 979 2035 
L 979 474 
Q 979 326 1161 233 
Q 1344 141 1600 141 
Q 1978 141 2195 416 
Q 2432 710 2432 1261 
Q 2432 1888 2182 2240 
Q 1971 2541 1613 2541 
Q 1357 2541 1168 2390 
Q 979 2240 979 2035 
z
" transform="scale(0.015625)"/>
     </defs>
     <use xlink:href="#STIXGeneral-Regular-53"/>
     <use xlink:href="#STIXGeneral-Regular-69" x="55.599991"/>
     <use xlink:href="#STIXGeneral-Regular-6d" x="83.399979"/>
     <use xlink:href="#STIXGeneral-Regular-70" x="161.199966"/>
     <use xlink:href="#STIXGeneral-Regular-73" x="211.199951"/>
     <use xlink:href="#STIXGeneral-Regular-6f" x="250.099945"/>
     <use xlink:href="#STIXGeneral-Regular-6e" x="300.09993"/>
     <use xlink:href="#STIXGeneral-Regular-3a" x="350.099915"/>
     <use xlink:href="#STIXGeneral-Regular-20" x="377.899902"/>
     <use xlink:href="#STIXGeneral-Regular-70" x="402.899887"/>
     <use xlink:href="#STIXGeneral-Regular-61" x="452.899872"/>
     <use xlink:href="#STIXGeneral-Regular-72" x="497.299866"/>
     <use xlink:href="#STIXGeneral-Regular-61" x="530.599854"/>
     <use xlink:href="#STIXGeneral-Regular-62" x="574.999847"/>
     <use xlink:href="#STIXGeneral-Regular-6f" x="624.999832"/>
     <use xlink:href="#STIXGeneral-Regular-6c" x="674.999817"/>
     <use xlink:href="#STIXGeneral-Regular-61" x="702.799805"/>
    </g>
   </g>
   <g id="line2d_36">
    <path d="M 330.139008 231.407625 
L 339.916924 228.727954 
L 349.151622 225.965226 
L 357.843103 223.140911 
L 366.534584 220.080753 
L 374.682847 216.980171 
L 382.83111 213.637475 
L 390.436156 210.282527 
L 398.041202 206.683687 
L 405.10303 203.108046 
L 412.164858 199.291646 
L 419.226686 195.218277 
L 425.745297 191.215221 
L 432.263907 186.96399 
L 438.782518 182.449199 
L 445.301128 177.654508 
L 451.819739 172.562564 
L 457.795132 167.618101 
L 463.770525 162.393355 
L 469.745918 156.872438 
L 475.721311 151.03856 
L 481.696704 144.873982 
L 487.672097 138.359957 
L 493.104273 132.11823 
L 498.536448 125.55566 
L 503.968624 118.655756 
L 509.400799 111.401176 
L 514.832975 103.773691 
L 520.26515 95.754131 
L 525.697326 87.322343 
L 531.129501 78.457138 
L 536.561677 69.136235 
L 541.993852 59.336212 
L 546.88281 50.086213 
L 546.88281 50.086213 
" clip-path="url(#p522bb8630d)" style="fill: none; stroke: #1f2328; stroke-width: 2; stroke-linecap: square"/>
   </g>
   <g id="line2d_37">
    <path d="M 330.139008 231.407625 
L 335.571184 230.95805 
L 341.003359 230.297945 
L 346.435535 229.427309 
L 351.86771 228.346142 
L 357.299886 227.054445 
L 362.732061 225.552217 
L 368.707454 223.656603 
L 374.682847 221.506247 
L 380.65824 219.101149 
L 386.633633 216.441309 
L 392.609026 213.526727 
L 398.584419 210.357403 
L 404.559812 206.933336 
L 410.535205 203.254528 
L 416.510598 199.320977 
L 422.485991 195.132684 
L 428.461384 190.689649 
L 434.979995 185.55217 
L 441.498606 180.111526 
L 448.017216 174.367718 
L 454.535827 168.320746 
L 461.054437 161.97061 
L 467.573048 155.317309 
L 474.091658 148.360845 
L 481.153487 140.482563 
L 488.215315 132.248483 
L 495.277143 123.658607 
L 502.338971 114.712935 
L 509.400799 105.411465 
L 516.462627 95.754198 
L 523.524455 85.741135 
L 531.129501 74.559933 
L 538.734547 62.966091 
L 546.339592 50.959609 
L 546.88281 50.086213 
L 546.88281 50.086213 
" clip-path="url(#p522bb8630d)" style="fill: none; stroke-dasharray: 7.4,3.2; stroke-dashoffset: 0; stroke: #d55e00; stroke-width: 2"/>
   </g>
   <g id="line2d_38">
    <g clip-path="url(#p522bb8630d)">
     <use xlink:href="#m2ef733e3e0" x="330.139008" y="231.407625" style="fill: #d55e00; stroke: #d55e00"/>
     <use xlink:href="#m2ef733e3e0" x="438.510909" y="182.642787" style="fill: #d55e00; stroke: #d55e00"/>
     <use xlink:href="#m2ef733e3e0" x="546.88281" y="50.086213" style="fill: #d55e00; stroke: #d55e00"/>
    </g>
   </g>
  </g>
 </g>
 <defs>
  <clipPath id="p2bb7140a6d">
   <rect x="33.2" y="21.395625" width="238.418182" height="238.392"/>
  </clipPath>
  <clipPath id="p522bb8630d">
   <rect x="319.301818" y="21.395625" width="238.418182" height="238.392"/>
  </clipPath>
 </defs>
</svg>
