<?xml version="1.0" encoding="utf-8" standalone="no"?>
<!DOCTYPE svg PUBLIC "-//W3C//DTD SVG 1.1//EN"
  "http://www.w3.org/Graphics/SVG/1.1/DTD/svg11.dtd">
<svg xmlns:xlink="http://www.w3.org/1999/xlink" width="407.58pt" height="311.565225pt" viewBox="0 0 407.58 311.565225" xmlns="http://www.w3.org/2000/svg" version="1.1">
 <metadata>
  <rdf:RDF xmlns:dc="http://purl.org/dc/elements/1.1/" xmlns:cc="http://creativecommons.org/ns#" xmlns:rdf="http://www.w3.org/1999/02/22-rdf-syntax-ns#">
   <cc:Work>
    <dc:type rdf:resource="http://purl.org/dc/dcmitype/StillImage"/>
    <dc:date>2026-07-17T17:40:41.464488</dc:date>
    <dc:format>image/svg+xml</dc:format>
    <dc:creator>
     <cc:Agent>
      <dc:title>Matplotlib v3.9.4, https://matplotlib.org/</dc:title>
     </cc:Agent>
    </dc:creator>
   </cc:Work>
  </rdf:RDF>
 </metadata>
 <defs>
  <style type="text/css">*{stroke-linejoin: round; stroke-linecap: butt}</style>
 </defs>
 <g id="figure_1">
  <g id="patch_1">
   <path d="M 0 311.565225 
L 407.58 311.565225 
L 407.58 0 
L 0 0 
z
" style="fill: #ffffff"/>
  </g>
  <g id="axes_1">
   <g id="patch_2">
    <path d="M 32.1 275.865225 
L 400.38 275.865225 
L 400.38 21.395625 
L 32.1 21.395625 
z
" style="fill: #ffffff"/>
   </g>
   <g id="Quiver_1">
    <path d="M 38.806991 266.399066 
L 46.888678 262.764447 
L 45.8679 261.931333 
L 51.966977 261.126655 
L 47.31803 265.15574 
L 47.372054 263.83925 
L 39.290367 267.473868 
L 38.806991 266.399066 
" clip-path="url(#pe78c79a025)" style="fill: #9aa3ad; fill-opacity: 0.7"/>
    <path d="M 66.607493 266.396501 
L 74.727745 262.84888 
L 73.715973 262.004852 
L 79.823339 261.265717 
L 75.131393 265.244646 
L 75.199552 263.928812 
L 67.079299 267.476433 
L 66.607493 266.396501 
" clip-path="url(#pe78c79a025)" style="fill: #9aa3ad; fill-opacity: 0.7"/>
    <path d="M 94.420057 266.389051 
L 102.652358 263.109822 
L 101.668829 262.233045 
L 107.797162 261.694733 
L 102.977166 265.517544 
L 103.08847 264.204655 
L 94.856169 267.483884 
L 94.420057 266.389051 
" clip-path="url(#pe78c79a025)" style="fill: #9aa3ad; fill-opacity: 0.7"/>
    <path d="M 122.246114 266.377584 
L 130.650853 263.569654 
L 129.718537 262.638604 
L 135.867516 262.448087 
L 130.838836 265.991902 
L 131.024286 264.687419 
L 122.619547 267.49535 
L 122.246114 266.377584 
" clip-path="url(#pe78c79a025)" style="fill: #9aa3ad; fill-opacity: 0.7"/>
    <path d="M 150.087792 266.364032 
L 158.696331 264.262327 
L 157.844386 263.257212 
L 163.988 263.576963 
L 158.682918 266.691822 
L 158.975842 265.407196 
L 150.367303 267.508902 
L 150.087792 266.364032 
" clip-path="url(#pe78c79a025)" style="fill: #9aa3ad; fill-opacity: 0.7"/>
    <path d="M 177.947166 266.352024 
L 186.736287 265.22266 
L 186.001647 264.128872 
L 192.071371 265.131217 
L 186.452238 267.635529 
L 186.886484 266.391545 
L 178.097363 267.52091 
L 177.947166 266.352024 
" clip-path="url(#pe78c79a025)" style="fill: #9aa3ad; fill-opacity: 0.7"/>
    <path d="M 205.824552 266.347268 
L 214.685204 266.461123 
L 214.111147 265.275154 
L 219.980427 267.118461 
L 214.065721 268.81035 
L 214.670062 267.639522 
L 205.80941 267.525666 
L 205.824552 266.347268 
" clip-path="url(#pe78c79a025)" style="fill: #9aa3ad; fill-opacity: 0.7"/>
    <path d="M 233.716026 266.356528 
L 242.437412 267.925454 
L 242.066129 266.661249 
L 247.552534 269.444341 
L 241.440164 270.140882 
L 242.228757 269.085332 
L 233.507371 267.516406 
L 233.716026 266.356528 
" clip-path="url(#pe78c79a025)" style="fill: #9aa3ad; fill-opacity: 0.7"/>
    <path d="M 261.61217 266.384309 
L 269.915773 269.478545 
L 269.775125 268.168475 
L 274.679438 271.882496 
L 268.540596 271.481421 
L 269.504263 270.58286 
L 261.20066 267.488625 
L 261.61217 266.384309 
" clip-path="url(#pe78c79a025)" style="fill: #9aa3ad; fill-opacity: 0.7"/>
    <path d="M 289.500964 266.429206 
L 297.129392 270.93822 
L 297.221795 269.623866 
L 301.39491 274.143971 
L 295.422802 272.667433 
L 296.529727 271.952743 
L 288.9013 267.443728 
L 289.500964 266.429206 
" clip-path="url(#pe78c79a025)" style="fill: #9aa3ad; fill-opacity: 0.7"/>
    <path d="M 317.37358 266.484215 
L 324.174761 272.164713 
L 324.477971 270.882477 
L 327.867301 276.016547 
L 322.211583 273.595991 
L 323.419298 273.069218 
L 316.618118 267.38872 
L 317.37358 266.484215 
" clip-path="url(#pe78c79a025)" style="fill: #9aa3ad; fill-opacity: 0.7"/>
    <path d="M 38.739349 243.220171 
L 46.281519 238.568314 
L 45.161333 237.874594 
L 51.104579 236.285863 
L 47.017317 240.883746 
L 46.900181 239.571365 
L 39.35801 244.223222 
L 38.739349 243.220171 
" clip-path="url(#pe78c79a025)" style="fill: #9aa3ad; fill-opacity: 0.7"/>
    <path d="M 66.538774 243.217297 
L 74.124164 238.636252 
L 73.010521 237.932075 
L 78.96838 236.399054 
L 74.838253 240.958472 
L 74.733408 239.645051 
L 67.148018 244.226096 
L 66.538774 243.217297 
" clip-path="url(#pe78c79a025)" style="fill: #9aa3ad; fill-opacity: 0.7"/>
    <path d="M 94.348106 243.208755 
L 102.061955 238.847489 
L 100.968999 238.111614 
L 106.968435 236.750363 
L 102.709044 241.189262 
L 102.64197 239.873372 
L 94.928121 244.234638 
L 94.348106 243.208755 
" clip-path="url(#pe78c79a025)" style="fill: #9aa3ad; fill-opacity: 0.7"/>
    <path d="M 122.168833 243.194896 
L 130.0911 239.224783 
L 129.036305 238.43518 
L 135.096301 237.375608 
L 130.620289 241.595982 
L 130.619095 240.278384 
L 122.696827 244.248497 
L 122.168833 243.194896 
" clip-path="url(#pe78c79a025)" style="fill: #9aa3ad; fill-opacity: 0.7"/>
    <path d="M 150.003461 243.176721 
L 158.199055 239.806804 
L 157.205907 238.940939 
L 163.327922 238.335 
L 158.550426 242.210793 
L 158.647228 240.896755 
L 150.451634 244.266672 
L 150.003461 243.176721 
" clip-path="url(#pe78c79a025)" style="fill: #9aa3ad; fill-opacity: 0.7"/>
    <path d="M 177.855258 243.15661 
L 186.353284 240.645102 
L 185.454187 239.681935 
L 191.606065 239.707137 
L 186.456221 243.072452 
L 186.687296 241.775274 
L 178.18927 244.286783 
L 177.855258 243.15661 
" clip-path="url(#pe78c79a025)" style="fill: #9aa3ad; fill-opacity: 0.7"/>
    <path d="M 205.727183 243.139331 
L 214.485064 241.78891 
L 213.723103 240.713977 
L 219.816152 241.563096 
L 214.26189 244.20817 
L 214.66466 242.953641 
L 205.906779 244.304062 
L 205.727183 243.139331 
" clip-path="url(#pe78c79a025)" style="fill: #9aa3ad; fill-opacity: 0.7"/>
    <path d="M 233.619269 243.132497 
L 242.479921 243.246353 
L 241.905864 242.060383 
L 247.775144 243.903691 
L 241.860438 245.595579 
L 242.464779 244.424752 
L 233.604127 244.310896 
L 233.619269 243.132497 
" clip-path="url(#pe78c79a025)" style="fill: #9aa3ad; fill-opacity: 0.7"/>
    <path d="M 261.525079 243.144521 
L 270.204918 244.929037 
L 269.865069 243.656021 
L 275.280839 246.574184 
L 269.153088 247.119077 
L 269.967591 246.083389 
L 261.287752 244.298873 
L 261.525079 243.144521 
" clip-path="url(#pe78c79a025)" style="fill: #9aa3ad; fill-opacity: 0.7"/>
    <path d="M 289.431168 243.179205 
L 297.589401 246.63859 
L 297.506982 245.323572 
L 302.241787 249.251403 
L 296.126767 248.578519 
L 297.12933 247.723572 
L 288.971096 244.264188 
L 289.431168 243.179205 
" clip-path="url(#pe78c79a025)" style="fill: #9aa3ad; fill-opacity: 0.7"/>
    <path d="M 317.323217 243.231755 
L 324.691191 248.154872 
L 324.855986 246.847619 
L 328.7733 251.591129 
L 322.891775 249.787271 
L 324.036454 249.134756 
L 316.668481 244.211639 
L 317.323217 243.231755 
" clip-path="url(#pe78c79a025)" style="fill: #9aa3ad; fill-opacity: 0.7"/>
    <path d="M 38.685171 220.043164 
L 45.659439 214.576565 
L 44.468661 214.012549 
L 50.196805 211.768756 
L 46.649708 216.795121 
L 46.386455 215.504089 
L 39.412187 220.970688 
L 38.685171 220.043164 
" clip-path="url(#pe78c79a025)" style="fill: #9aa3ad; fill-opacity: 0.7"/>
    <path d="M 66.483614 220.040267 
L 73.501441 214.629702 
L 72.315219 214.056166 
L 78.06115 211.858323 
L 74.47391 216.856118 
L 74.221005 215.563019 
L 67.203178 220.973585 
L 66.483614 220.040267 
" clip-path="url(#pe78c79a025)" style="fill: #9aa3ad; fill-opacity: 0.7"/>
    <path d="M 94.289934 220.031548 
L 101.43889 214.795468 
L 100.267154 214.192891 
L 106.065473 212.137233 
L 102.356229 217.04516 
L 102.135249 215.746224 
L 94.986292 220.982304 
L 94.289934 220.031548 
" clip-path="url(#pe78c79a025)" style="fill: #9aa3ad; fill-opacity: 0.7"/>
    <path d="M 122.105462 220.016984 
L 129.473435 215.093867 
L 128.328756 214.441351 
L 134.210281 212.637493 
L 130.292967 217.381003 
L 130.128172 216.073751 
L 122.760199 220.996868 
L 122.105462 220.016984 
" clip-path="url(#pe78c79a025)" style="fill: #9aa3ad; fill-opacity: 0.7"/>
    <path d="M 149.932586 219.996817 
L 157.603843 215.56106 
L 156.503812 214.835802 
L 162.489785 213.416521 
L 158.273577 217.896457 
L 158.193764 216.581278 
L 150.522508 221.017035 
L 149.932586 219.996817 
" clip-path="url(#pe78c79a025)" style="fill: #9aa3ad; fill-opacity: 0.7"/>
    <path d="M 177.774874 219.972126 
L 185.817445 216.251755 
L 184.787864 215.429545 
L 190.878037 214.560042 
L 186.272207 218.638346 
L 186.312226 217.321355 
L 178.269655 221.041726 
L 177.774874 219.972126 
" clip-path="url(#pe78c79a025)" style="fill: #9aa3ad; fill-opacity: 0.7"/>
    <path d="M 205.636762 219.945914 
L 214.073517 217.235696 
L 213.152067 216.293892 
L 219.302843 216.174736 
L 214.233382 219.659963 
L 214.433955 218.35772 
L 205.9972 221.067938 
L 205.636762 219.945914 
" clip-path="url(#pe78c79a025)" style="fill: #9aa3ad; fill-opacity: 0.7"/>
    <path d="M 233.5219 219.924561 
L 242.279781 218.57414 
L 241.51782 217.499207 
L 247.610869 218.348325 
L 242.056607 220.9934 
L 242.459377 219.738871 
L 233.701496 221.089292 
L 233.5219 219.924561 
" clip-path="url(#pe78c79a025)" style="fill: #9aa3ad; fill-opacity: 0.7"/>
    <path d="M 261.429113 219.918115 
L 270.28392 220.259457 
L 269.740505 219.059138 
L 275.560518 221.052549 
L 269.604317 222.592002 
L 270.238524 221.437078 
L 261.383717 221.095737 
L 261.429113 219.918115 
" clip-path="url(#pe78c79a025)" style="fill: #9aa3ad; fill-opacity: 0.7"/>
    <path d="M 289.347798 219.936223 
L 297.930298 222.141852 
L 297.652927 220.85378 
L 302.919963 224.032549 
L 296.772931 224.278 
L 297.636967 223.283259 
L 289.054466 221.077629 
L 289.347798 219.936223 
" clip-path="url(#pe78c79a025)" style="fill: #9aa3ad; fill-opacity: 0.7"/>
    <path d="M 317.259846 219.980126 
L 325.182114 223.950239 
L 325.183308 222.632641 
L 329.65932 226.853015 
L 323.599324 225.793443 
L 324.654119 225.003839 
L 316.731852 221.033726 
L 317.259846 219.980126 
" clip-path="url(#pe78c79a025)" style="fill: #9aa3ad; fill-opacity: 0.7"/>
    <path d="M 38.64264 196.865136 
L 45.064352 190.758932 
L 43.825255 190.310933 
L 49.313564 187.531599 
L 46.26149 192.873048 
L 45.87643 191.61297 
L 39.454718 197.719175 
L 38.64264 196.865136 
" clip-path="url(#pe78c79a025)" style="fill: #9aa3ad; fill-opacity: 0.7"/>
    <path d="M 66.440267 196.862389 
L 72.903301 190.799939 
L 71.667275 190.343534 
L 77.174334 187.601539 
L 74.086053 192.922137 
L 73.709561 191.659473 
L 67.246526 197.721923 
L 66.440267 196.862389 
" clip-path="url(#pe78c79a025)" style="fill: #9aa3ad; fill-opacity: 0.7"/>
    <path d="M 94.244055 196.854056 
L 100.832405 190.928031 
L 99.606189 190.445889 
L 105.169362 187.81961 
L 101.970536 193.074489 
L 101.620521 191.804231 
L 95.032171 197.730255 
L 94.244055 196.854056 
" clip-path="url(#pe78c79a025)" style="fill: #9aa3ad; fill-opacity: 0.7"/>
    <path d="M 122.055099 196.839903 
L 128.856279 191.159405 
L 127.648564 190.632631 
L 133.304282 188.212075 
L 129.914952 193.346146 
L 129.611742 192.06391 
L 122.810562 197.744408 
L 122.055099 196.839903 
" clip-path="url(#pe78c79a025)" style="fill: #9aa3ad; fill-opacity: 0.7"/>
    <path d="M 149.875429 196.819688 
L 156.980616 191.524367 
L 155.803911 190.93155 
L 161.584944 188.827767 
L 157.916623 193.766356 
L 157.684853 192.469302 
L 150.579666 197.764623 
L 149.875429 196.819688 
" clip-path="url(#pe78c79a025)" style="fill: #9aa3ad; fill-opacity: 0.7"/>
    <path d="M 177.708305 196.793514 
L 185.2071 192.072054 
L 184.080541 191.388731 
L 190.008829 189.745064 
L 185.964295 194.380577 
L 185.835018 193.069336 
L 178.336223 197.790797 
L 177.708305 196.793514 
" clip-path="url(#pe78c79a025)" style="fill: #9aa3ad; fill-opacity: 0.7"/>
    <path d="M 205.558436 196.762658 
L 213.521264 192.874537 
L 212.474677 192.074087 
L 218.545287 191.077129 
L 214.025947 195.251073 
L 214.038354 193.933532 
L 206.075526 197.821653 
L 205.558436 196.762658 
" clip-path="url(#pe78c79a025)" style="fill: #9aa3ad; fill-opacity: 0.7"/>
    <path d="M 233.431479 196.731144 
L 241.868234 194.020926 
L 240.946784 193.079121 
L 247.09756 192.959966 
L 242.028099 196.445192 
L 242.228672 195.142949 
L 233.791917 197.853167 
L 233.431479 196.731144 
" clip-path="url(#pe78c79a025)" style="fill: #9aa3ad; fill-opacity: 0.7"/>
    <path d="M 261.331317 196.707713 
L 270.120438 195.578348 
L 269.385798 194.484561 
L 275.455522 195.486905 
L 269.836389 197.991218 
L 270.270635 196.747234 
L 261.481514 197.876598 
L 261.331317 196.707713 
" clip-path="url(#pe78c79a025)" style="fill: #9aa3ad; fill-opacity: 0.7"/>
    <path d="M 289.25392 196.705277 
L 298.079673 197.499127 
L 297.59837 196.272582 
L 303.308794 198.561098 
L 297.281642 199.793854 
L 297.974097 198.672885 
L 289.148344 197.879034 
L 289.25392 196.705277 
" clip-path="url(#pe78c79a025)" style="fill: #9aa3ad; fill-opacity: 0.7"/>
    <path d="M 317.182566 196.733273 
L 325.587305 199.541203 
L 325.401855 198.236721 
L 330.430534 201.780536 
L 324.281556 201.590018 
L 325.213872 200.658969 
L 316.809132 197.851038 
L 317.182566 196.733273 
" clip-path="url(#pe78c79a025)" style="fill: #9aa3ad; fill-opacity: 0.7"/>
    <path d="M 38.609501 173.684529 
L 44.517445 167.079962 
L 43.246232 166.733429 
L 48.492324 163.520212 
L 45.881303 169.090563 
L 45.395802 167.865673 
L 39.487858 174.470241 
L 38.609501 173.684529 
" clip-path="url(#pe78c79a025)" style="fill: #9aa3ad; fill-opacity: 0.7"/>
    <path d="M 66.406483 173.682011 
L 72.352294 167.111513 
L 71.083095 166.757679 
L 76.347569 163.57467 
L 73.704572 169.12992 
L 73.22612 167.90226 
L 67.280309 174.472759 
L 66.406483 173.682011 
" clip-path="url(#pe78c79a025)" style="fill: #9aa3ad; fill-opacity: 0.7"/>
    <path d="M 94.208264 173.674344 
L 100.269387 167.210065 
L 99.006647 166.833832 
L 104.326611 163.74446 
L 101.585745 169.252081 
L 101.129087 168.016148 
L 95.067963 174.480426 
L 94.208264 173.674344 
" clip-path="url(#pe78c79a025)" style="fill: #9aa3ad; fill-opacity: 0.7"/>
    <path d="M 122.015697 173.661196 
L 128.274544 167.388161 
L 127.024089 166.972916 
L 132.43738 164.050156 
L 129.526885 169.470051 
L 129.108809 168.22054 
L 122.849963 174.493574 
L 122.015697 173.661196 
" clip-path="url(#pe78c79a025)" style="fill: #9aa3ad; fill-opacity: 0.7"/>
    <path d="M 149.830407 173.642077 
L 156.376768 167.669702 
L 155.14718 167.196226 
L 160.69168 164.530749 
L 157.530021 169.808073 
L 157.171049 168.540317 
L 150.624687 174.512693 
L 149.830407 173.642077 
" clip-path="url(#pe78c79a025)" style="fill: #9aa3ad; fill-opacity: 0.7"/>
    <path d="M 177.655099 173.616513 
L 184.585909 168.094919 
L 183.390707 167.54034 
L 189.100924 165.251308 
L 185.593696 170.305573 
L 185.320238 169.016664 
L 178.389429 174.538257 
L 177.655099 173.616513 
" clip-path="url(#pe78c79a025)" style="fill: #9aa3ad; fill-opacity: 0.7"/>
    <path d="M 205.494004 173.584537 
L 212.905677 168.727458 
L 211.766875 168.064739 
L 217.664284 166.313511 
L 213.704738 171.021826 
L 213.551631 169.713153 
L 206.139958 174.570233 
L 205.494004 173.584537 
" clip-path="url(#pe78c79a025)" style="fill: #9aa3ad; fill-opacity: 0.7"/>
    <path d="M 233.353153 173.547887 
L 241.315981 169.659767 
L 240.269394 168.859317 
L 246.340004 167.862358 
L 241.820664 172.036302 
L 241.833071 170.718762 
L 233.870243 174.606883 
L 233.353153 173.547887 
" clip-path="url(#pe78c79a025)" style="fill: #9aa3ad; fill-opacity: 0.7"/>
    <path d="M 261.239409 173.512299 
L 269.737435 171.00079 
L 268.838338 170.037624 
L 274.990216 170.062825 
L 269.840372 173.42814 
L 270.071446 172.130963 
L 261.573421 174.642471 
L 261.239409 173.512299 
" clip-path="url(#pe78c79a025)" style="fill: #9aa3ad; fill-opacity: 0.7"/>
    <path d="M 289.155837 173.48988 
L 297.991001 172.808712 
L 297.312906 171.678998 
L 303.323837 172.98856 
L 297.584677 175.204025 
L 298.081591 173.983721 
L 289.246427 174.66489 
L 289.155837 173.48988 
" clip-path="url(#pe78c79a025)" style="fill: #9aa3ad; fill-opacity: 0.7"/>
    <path d="M 317.092934 173.49619 
L 325.833213 174.956205 
L 325.446189 173.69673 
L 330.966883 176.411169 
L 324.863676 177.1839 
L 325.639042 176.118595 
L 316.898764 174.65858 
L 317.092934 173.49619 
" clip-path="url(#pe78c79a025)" style="fill: #9aa3ad; fill-opacity: 0.7"/>
    <path d="M 38.583658 150.500718 
L 44.026017 143.507518 
L 42.734079 143.248747 
L 47.748102 139.684226 
L 45.524205 145.420123 
L 44.956059 144.23131 
L 39.5137 151.22451 
L 38.583658 150.500718 
" clip-path="url(#pe78c79a025)" style="fill: #9aa3ad; fill-opacity: 0.7"/>
    <path d="M 66.380146 150.498455 
L 71.856547 143.531881 
L 70.565886 143.266812 
L 75.597234 139.726787 
L 73.345389 145.45177 
L 72.783048 144.260201 
L 67.306647 151.226774 
L 66.380146 150.498455 
" clip-path="url(#pe78c79a025)" style="fill: #9aa3ad; fill-opacity: 0.7"/>
    <path d="M 94.180378 150.491546 
L 99.760678 143.607915 
L 98.474139 143.323513 
L 103.55803 139.859369 
L 101.22055 145.549925 
L 100.676148 144.350052 
L 95.095848 151.233683 
L 94.180378 150.491546 
" clip-path="url(#pe78c79a025)" style="fill: #9aa3ad; fill-opacity: 0.7"/>
    <path d="M 121.985011 150.479638 
L 127.744393 143.745127 
L 126.465778 143.426992 
L 131.639003 140.097732 
L 129.152693 145.724853 
L 128.640031 144.51108 
L 122.880649 151.245591 
L 121.985011 150.479638 
" clip-path="url(#pe78c79a025)" style="fill: #9aa3ad; fill-opacity: 0.7"/>
    <path d="M 149.795298 150.462148 
L 155.817701 143.96178 
L 154.552735 143.593097 
L 159.854151 140.472002 
L 157.146232 145.995897 
L 156.6822 144.762714 
L 150.659797 151.263081 
L 149.795298 150.462148 
" clip-path="url(#pe78c79a025)" style="fill: #9aa3ad; fill-opacity: 0.7"/>
    <path d="M 177.613371 150.438327 
L 183.993996 144.289203 
L 182.751923 143.849522 
L 188.221474 141.033451 
L 185.205282 146.395244 
L 184.811783 145.137777 
L 178.431157 151.286902 
L 177.613371 150.438327 
" clip-path="url(#pe78c79a025)" style="fill: #9aa3ad; fill-opacity: 0.7"/>
    <path d="M 205.442706 150.407498 
L 212.286958 144.77897 
L 211.083291 144.243013 
L 216.757283 141.865608 
L 213.328944 146.973712 
L 213.035509 145.689204 
L 206.191257 151.317731 
L 205.442706 150.407498 
" clip-path="url(#pe78c79a025)" style="fill: #9aa3ad; fill-opacity: 0.7"/>
    <path d="M 233.288721 150.369767 
L 240.700394 145.512687 
L 239.561592 144.849969 
L 245.459001 143.098741 
L 241.499455 147.807056 
L 241.346348 146.498383 
L 233.934675 151.355462 
L 233.288721 150.369767 
" clip-path="url(#pe78c79a025)" style="fill: #9aa3ad; fill-opacity: 0.7"/>
    <path d="M 261.159025 150.327814 
L 269.201596 146.607444 
L 268.172015 145.785234 
L 274.262188 144.91573 
L 269.656358 148.994035 
L 269.696377 147.677044 
L 261.653805 151.397415 
L 261.159025 150.327814 
" clip-path="url(#pe78c79a025)" style="fill: #9aa3ad; fill-opacity: 0.7"/>
    <path d="M 289.061377 150.29018 
L 297.669916 148.188474 
L 296.817971 147.18336 
L 302.961585 147.503111 
L 297.656503 150.617969 
L 297.949427 149.333344 
L 289.340887 151.435049 
L 289.061377 150.29018 
" clip-path="url(#pe78c79a025)" style="fill: #9aa3ad; fill-opacity: 0.7"/>
    <path d="M 316.995849 150.273366 
L 325.857232 150.273366 
L 325.267984 149.09487 
L 331.160464 150.862614 
L 325.267984 152.630358 
L 325.857232 151.451862 
L 316.995849 151.451862 
L 316.995849 150.273366 
" clip-path="url(#pe78c79a025)" style="fill: #9aa3ad; fill-opacity: 0.7"/>
    <path d="M 38.563387 127.313621 
L 43.589583 120.015575 
L 42.284776 119.832422 
L 47.082879 115.982169 
L 45.196528 121.837758 
L 44.560167 120.684021 
L 39.533971 127.982067 
L 38.563387 127.313621 
" clip-path="url(#pe78c79a025)" style="fill: #9aa3ad; fill-opacity: 0.7"/>
    <path d="M 66.359498 127.311606 
L 71.416002 120.034526 
L 70.111968 119.845948 
L 74.926043 116.015684 
L 73.015355 121.863377 
L 72.383798 120.707002 
L 67.327294 127.984082 
L 66.359498 127.311606 
" clip-path="url(#pe78c79a025)" style="fill: #9aa3ad; fill-opacity: 0.7"/>
    <path d="M 94.158553 127.305448 
L 99.307657 120.093594 
L 98.00614 119.888363 
L 102.868778 116.119944 
L 100.883504 121.942737 
L 100.266778 120.778385 
L 95.117674 127.99024 
L 94.158553 127.305448 
" clip-path="url(#pe78c79a025)" style="fill: #9aa3ad; fill-opacity: 0.7"/>
    <path d="M 121.961048 127.294808 
L 127.270172 120.199928 
L 125.973571 119.965638 
L 130.919282 116.306924 
L 128.804265 122.083856 
L 128.213737 120.906001 
L 122.904612 128.00088 
L 121.961048 127.294808 
" clip-path="url(#pe78c79a025)" style="fill: #9aa3ad; fill-opacity: 0.7"/>
    <path d="M 149.767939 127.279098 
L 155.31331 120.367298 
L 154.025348 120.089415 
L 159.091632 116.599571 
L 156.782997 122.30189 
L 156.232527 121.10479 
L 150.687155 128.01659 
L 149.767939 127.279098 
" clip-path="url(#pe78c79a025)" style="fill: #9aa3ad; fill-opacity: 0.7"/>
    <path d="M 177.580863 127.257487 
L 183.451229 120.619497 
L 182.178071 120.280184 
L 187.405841 117.037245 
L 184.826476 122.622325 
L 184.334031 121.40021 
L 178.463665 128.038201 
L 177.580863 127.257487 
" clip-path="url(#pe78c79a025)" style="fill: #9aa3ad; fill-opacity: 0.7"/>
    <path d="M 205.402542 127.228972 
L 211.701729 120.996448 
L 210.453979 120.573143 
L 215.886014 117.685369 
L 212.940613 123.086374 
L 212.530607 121.834191 
L 206.23142 128.066716 
L 205.402542 127.228972 
" clip-path="url(#pe78c79a025)" style="fill: #9aa3ad; fill-opacity: 0.7"/>
    <path d="M 233.237423 127.192727 
L 240.081675 121.5642 
L 238.878008 121.028242 
L 244.552 118.650837 
L 241.123661 123.758942 
L 240.830226 122.474433 
L 233.985974 128.10296 
L 233.237423 127.192727 
" clip-path="url(#pe78c79a025)" style="fill: #9aa3ad; fill-opacity: 0.7"/>
    <path d="M 261.092456 127.149203 
L 268.591251 122.427742 
L 267.464692 121.744419 
L 273.39298 120.100753 
L 269.348446 124.736266 
L 269.219169 123.425025 
L 261.720374 128.146485 
L 261.092456 127.149203 
" clip-path="url(#pe78c79a025)" style="fill: #9aa3ad; fill-opacity: 0.7"/>
    <path d="M 288.977046 127.102868 
L 297.17264 123.732951 
L 296.179492 122.867086 
L 302.301507 122.261148 
L 297.524011 126.13694 
L 297.620813 124.822902 
L 289.425219 128.19282 
L 288.977046 127.102868 
" clip-path="url(#pe78c79a025)" style="fill: #9aa3ad; fill-opacity: 0.7"/>
    <path d="M 316.898764 127.066649 
L 325.639042 125.606634 
L 324.863676 124.541329 
L 330.966883 125.31406 
L 325.446189 128.028499 
L 325.833213 126.769024 
L 317.092934 128.229039 
L 316.898764 127.066649 
" clip-path="url(#pe78c79a025)" style="fill: #9aa3ad; fill-opacity: 0.7"/>
    <path d="M 38.547348 104.123428 
L 43.203944 96.584182 
L 41.891637 96.466221 
L 46.492087 92.381849 
L 44.899622 98.324096 
L 44.206606 97.203473 
L 39.55001 104.742719 
L 38.547348 104.123428 
" clip-path="url(#pe78c79a025)" style="fill: #9aa3ad; fill-opacity: 0.7"/>
    <path d="M 66.343174 104.12164 
L 71.026646 96.599061 
L 69.714768 96.476418 
L 74.329765 92.40849 
L 72.716104 98.345016 
L 72.027091 97.221927 
L 67.343619 104.744506 
L 66.343174 104.12164 
" clip-path="url(#pe78c79a025)" style="fill: #9aa3ad; fill-opacity: 0.7"/>
    <path d="M 94.141333 104.116178 
L 98.90695 96.645368 
L 97.596494 96.508357 
L 102.255787 92.491241 
L 100.577176 98.409729 
L 99.90051 97.279158 
L 95.134893 104.749969 
L 94.141333 104.116178 
" clip-path="url(#pe78c79a025)" style="fill: #9aa3ad; fill-opacity: 0.7"/>
    <path d="M 121.942205 104.10673 
L 126.849911 96.728482 
L 125.542317 96.56642 
L 130.277629 92.6392 
L 128.486068 98.524482 
L 127.831162 97.38117 
L 122.923455 104.759417 
L 121.942205 104.10673 
" clip-path="url(#pe78c79a025)" style="fill: #9aa3ad; fill-opacity: 0.7"/>
    <path d="M 149.746514 104.092749 
L 154.864471 96.858757 
L 153.562081 96.659141 
L 158.408423 92.869787 
L 156.448277 98.701087 
L 155.826536 97.539406 
L 150.70858 104.773398 
L 149.746514 104.092749 
" clip-path="url(#pe78c79a025)" style="fill: #9aa3ad; fill-opacity: 0.7"/>
    <path d="M 177.555505 104.073422 
L 182.964116 97.054088 
L 181.670947 96.801543 
L 186.667742 93.212911 
L 184.471499 98.959454 
L 183.897634 97.773392 
L 178.489023 104.792725 
L 177.555505 104.073422 
" clip-path="url(#pe78c79a025)" style="fill: #9aa3ad; fill-opacity: 0.7"/>
    <path d="M 205.371261 104.047656 
L 211.167344 97.344707 
L 209.890486 97.019593 
L 215.081821 93.71864 
L 212.564809 99.332096 
L 212.058785 98.115541 
L 206.262702 104.818491 
L 205.371261 104.047656 
" clip-path="url(#pe78c79a025)" style="fill: #9aa3ad; fill-opacity: 0.7"/>
    <path d="M 233.197259 104.014202 
L 239.496446 97.781677 
L 238.248696 97.358373 
L 243.680731 94.470598 
L 240.73533 99.871603 
L 240.325324 98.619421 
L 234.026137 104.851945 
L 233.197259 104.014202 
" clip-path="url(#pe78c79a025)" style="fill: #9aa3ad; fill-opacity: 0.7"/>
    <path d="M 261.03925 103.972201 
L 267.97006 98.450608 
L 266.774858 97.896028 
L 272.485075 95.606997 
L 268.977847 100.661261 
L 268.704389 99.372352 
L 261.77358 104.893946 
L 261.03925 103.972201 
" clip-path="url(#pe78c79a025)" style="fill: #9aa3ad; fill-opacity: 0.7"/>
    <path d="M 288.906171 103.922964 
L 296.577427 99.487207 
L 295.477397 98.76195 
L 301.46337 97.342668 
L 297.247162 101.822604 
L 297.167349 100.507425 
L 289.496093 104.943183 
L 288.906171 103.922964 
" clip-path="url(#pe78c79a025)" style="fill: #9aa3ad; fill-opacity: 0.7"/>
    <path d="M 316.809132 103.874191 
L 325.213872 101.06626 
L 324.281556 100.135211 
L 330.430534 99.944693 
L 325.401855 103.488508 
L 325.587305 102.184026 
L 317.182566 104.991956 
L 316.809132 103.874191 
" clip-path="url(#pe78c79a025)" style="fill: #9aa3ad; fill-opacity: 0.7"/>
    <path d="M 38.534531 80.930441 
L 42.863537 73.198441 
L 41.547379 73.136865 
L 45.968447 68.858968 
L 44.632268 74.864039 
L 43.891834 73.774166 
L 39.562828 81.506165 
L 38.534531 80.930441 
" clip-path="url(#pe78c79a025)" style="fill: #9aa3ad; fill-opacity: 0.7"/>
    <path d="M 66.330138 80.928857 
L 70.682966 73.210242 
L 69.367003 73.144608 
L 73.801241 68.880364 
L 72.446552 74.881286 
L 71.709482 73.789135 
L 67.356654 81.507749 
L 66.330138 80.928857 
" clip-path="url(#pe78c79a025)" style="fill: #9aa3ad; fill-opacity: 0.7"/>
    <path d="M 94.127615 80.924016 
L 98.553243 73.246911 
L 97.23796 73.168835 
L 101.712327 68.946716 
L 100.300948 74.934558 
L 99.574239 73.835486 
L 95.148611 81.51259 
L 94.127615 80.924016 
" clip-path="url(#pe78c79a025)" style="fill: #9aa3ad; fill-opacity: 0.7"/>
    <path d="M 121.927252 80.915642 
L 126.478807 73.31252 
L 125.164989 73.212777 
L 129.708334 69.064975 
L 128.19846 75.028742 
L 127.489964 73.917842 
L 122.938409 81.520964 
L 121.927252 80.915642 
" clip-path="url(#pe78c79a025)" style="fill: #9aa3ad; fill-opacity: 0.7"/>
    <path d="M 149.729599 80.903245 
L 154.46758 73.414877 
L 153.156627 73.28271 
L 157.801046 69.248405 
L 156.144314 75.173055 
L 155.463476 74.044992 
L 150.725495 81.53336 
L 149.729599 80.903245 
" clip-path="url(#pe78c79a025)" style="fill: #9aa3ad; fill-opacity: 0.7"/>
    <path d="M 177.535603 80.886077 
L 182.531766 73.567439 
L 181.226218 73.389649 
L 186.008459 69.519712 
L 184.146186 75.383003 
L 183.505089 74.23189 
L 178.508926 81.550529 
L 177.535603 80.886077 
" clip-path="url(#pe78c79a025)" style="fill: #9aa3ad; fill-opacity: 0.7"/>
    <path d="M 205.346842 80.863081 
L 210.688837 73.792917 
L 209.393337 73.552612 
L 214.355975 69.916891 
L 212.21417 75.683945 
L 211.629114 74.503362 
L 206.28712 81.573525 
L 205.346842 80.863081 
" clip-path="url(#pe78c79a025)" style="fill: #9aa3ad; fill-opacity: 0.7"/>
    <path d="M 233.165978 80.832886 
L 238.962061 74.129936 
L 237.685203 73.804822 
L 242.876538 70.50387 
L 240.359526 76.117326 
L 239.853502 74.900771 
L 234.057419 81.60372 
L 233.165978 80.832886 
" clip-path="url(#pe78c79a025)" style="fill: #9aa3ad; fill-opacity: 0.7"/>
    <path d="M 260.997522 80.794016 
L 267.378147 74.644891 
L 266.136074 74.20521 
L 271.605625 71.389139 
L 268.589433 76.750933 
L 268.195934 75.493465 
L 261.815308 81.64259 
L 260.997522 80.794016 
" clip-path="url(#pe78c79a025)" style="fill: #9aa3ad; fill-opacity: 0.7"/>
    <path d="M 288.849014 80.745835 
L 295.954201 75.450514 
L 294.777496 74.857697 
L 300.558529 72.753915 
L 296.890207 77.692503 
L 296.658438 76.395449 
L 289.553251 81.690771 
L 288.849014 80.745835 
" clip-path="url(#pe78c79a025)" style="fill: #9aa3ad; fill-opacity: 0.7"/>
    <path d="M 316.731852 80.691503 
L 324.654119 76.721389 
L 323.599324 75.931786 
L 329.65932 74.872214 
L 325.183308 79.092588 
L 325.182114 77.77499 
L 317.259846 81.745103 
L 316.731852 80.691503 
" clip-path="url(#pe78c79a025)" style="fill: #9aa3ad; fill-opacity: 0.7"/>
    <path d="M 38.524181 57.734991 
L 42.562635 49.847342 
L 41.245097 49.834757 
L 45.504009 45.395398 
L 44.392087 51.446007 
L 43.611632 50.384425 
L 39.573178 58.272074 
L 38.524181 57.734991 
" clip-path="url(#pe78c79a025)" style="fill: #9aa3ad; fill-opacity: 0.7"/>
    <path d="M 66.31962 57.733584 
L 70.379221 49.856798 
L 69.061721 49.840679 
L 73.332528 45.412762 
L 72.204377 51.460366 
L 71.426773 50.396694 
L 67.367172 58.27348 
L 66.31962 57.733584 
" clip-path="url(#pe78c79a025)" style="fill: #9aa3ad; fill-opacity: 0.7"/>
    <path d="M 94.116574 57.729289 
L 98.240778 49.886135 
L 96.923455 49.859187 
L 101.230512 45.466523 
L 100.052693 51.50465 
L 99.283857 50.434623 
L 95.159653 58.277776 
L 94.116574 57.729289 
" clip-path="url(#pe78c79a025)" style="fill: #9aa3ad; fill-opacity: 0.7"/>
    <path d="M 121.915264 57.721862 
L 126.151154 49.93846 
L 124.83435 49.892685 
L 129.203754 45.562032 
L 127.939749 51.582708 
L 127.186286 50.5018 
L 122.950397 58.285203 
L 121.915264 57.721862 
" clip-path="url(#pe78c79a025)" style="fill: #9aa3ad; fill-opacity: 0.7"/>
    <path d="M 149.716114 57.710874 
L 154.11725 50.019702 
L 152.801724 49.945818 
L 157.262611 45.709461 
L 155.870325 51.70177 
L 155.140117 50.60502 
L 150.738981 58.296191 
L 149.716114 57.710874 
" clip-path="url(#pe78c79a025)" style="fill: #9aa3ad; fill-opacity: 0.7"/>
    <path d="M 177.519844 57.695657 
L 182.149812 50.14003 
L 180.837097 50.0267 
L 185.423109 45.926123 
L 183.851618 51.873951 
L 183.154653 50.75578 
L 178.524684 58.311408 
L 177.519844 57.695657 
" clip-path="url(#pe78c79a025)" style="fill: #9aa3ad; fill-opacity: 0.7"/>
    <path d="M 205.327654 57.675246 
L 210.264575 50.316515 
L 208.957634 50.14927 
L 213.708479 46.240854 
L 211.893598 52.118987 
L 211.24323 50.973087 
L 206.306309 58.331819 
L 205.327654 57.675246 
" clip-path="url(#pe78c79a025)" style="fill: #9aa3ad; fill-opacity: 0.7"/>
    <path d="M 233.141559 57.64831 
L 238.483554 50.578147 
L 237.188054 50.337841 
L 242.150692 46.70212 
L 240.008887 52.469174 
L 239.423831 51.288591 
L 234.081837 58.358755 
L 233.141559 57.64831 
" clip-path="url(#pe78c79a025)" style="fill: #9aa3ad; fill-opacity: 0.7"/>
    <path d="M 260.965014 57.613176 
L 266.83538 50.975185 
L 265.562222 50.635872 
L 270.789992 47.392934 
L 268.210627 52.978013 
L 267.718182 51.755899 
L 261.847816 58.393889 
L 260.965014 57.613176 
" clip-path="url(#pe78c79a025)" style="fill: #9aa3ad; fill-opacity: 0.7"/>
    <path d="M 288.803992 57.568224 
L 295.350353 51.595849 
L 294.120765 51.122373 
L 299.665265 48.456896 
L 296.503606 53.734221 
L 296.144633 52.466465 
L 289.598272 58.43884 
L 288.803992 57.568224 
" clip-path="url(#pe78c79a025)" style="fill: #9aa3ad; fill-opacity: 0.7"/>
    <path d="M 316.668481 57.51359 
L 324.036454 52.590473 
L 322.891775 51.937958 
L 328.7733 50.134099 
L 324.855986 54.877609 
L 324.691191 53.570357 
L 317.323217 58.493474 
L 316.668481 57.51359 
" clip-path="url(#pe78c79a025)" style="fill: #9aa3ad; fill-opacity: 0.7"/>
    <path d="M 38.515737 34.537395 
L 42.295906 26.522756 
L 40.978653 26.552965 
L 45.091149 21.977638 
L 44.17631 28.061166 
L 43.361791 27.02549 
L 39.581622 35.040129 
L 38.515737 34.537395 
" clip-path="url(#pe78c79a025)" style="fill: #9aa3ad; fill-opacity: 0.7"/>
    <path d="M 66.311046 34.536143 
L 70.110039 26.53041 
L 68.792719 26.557524 
L 72.915955 21.991873 
L 71.986822 28.073234 
L 71.17474 27.035647 
L 67.375747 35.04138 
L 66.311046 34.536143 
" clip-path="url(#pe78c79a025)" style="fill: #9aa3ad; fill-opacity: 0.7"/>
    <path d="M 94.107593 34.532321 
L 97.964067 26.554118 
L 96.646587 26.571757 
L 100.802554 22.03588 
L 99.829706 28.110401 
L 99.025107 27.067 
L 95.168633 35.045203 
L 94.107593 34.532321 
" clip-path="url(#pe78c79a025)" style="fill: #9aa3ad; fill-opacity: 0.7"/>
    <path d="M 121.905552 34.525719 
L 125.861308 26.596273 
L 124.54371 26.597466 
L 128.755969 22.113816 
L 127.707376 28.175721 
L 126.915864 27.122359 
L 122.960108 35.051804 
L 121.905552 34.525719 
" clip-path="url(#pe78c79a025)" style="fill: #9aa3ad; fill-opacity: 0.7"/>
    <path d="M 149.70525 34.515963 
L 153.807724 26.661421 
L 152.490331 26.638121 
L 156.78521 22.233548 
L 155.624113 28.274913 
L 154.852318 27.207019 
L 150.749844 35.061561 
L 149.70525 34.515963 
" clip-path="url(#pe78c79a025)" style="fill: #9aa3ad; fill-opacity: 0.7"/>
    <path d="M 177.50724 34.502469 
L 181.812645 26.757302 
L 180.496304 26.69974 
L 184.904305 22.40838 
L 183.586447 28.417498 
L 182.842692 27.329888 
L 178.537288 35.075055 
L 177.50724 34.502469 
" clip-path="url(#pe78c79a025)" style="fill: #9aa3ad; fill-opacity: 0.7"/>
    <path d="M 205.312438 34.484379 
L 209.889888 26.896819 
L 208.576418 26.792597 
L 213.133877 22.660309 
L 211.603679 28.618894 
L 210.898975 27.505585 
L 206.321525 35.093145 
L 205.312438 34.484379 
" clip-path="url(#pe78c79a025)" style="fill: #9aa3ad; fill-opacity: 0.7"/>
    <path d="M 233.122371 34.460476 
L 238.059292 27.101744 
L 236.752351 26.934499 
L 241.503196 23.026084 
L 239.688315 28.904217 
L 239.037946 27.758317 
L 234.101026 35.117048 
L 233.122371 34.460476 
" clip-path="url(#pe78c79a025)" style="fill: #9aa3ad; fill-opacity: 0.7"/>
    <path d="M 260.939656 34.42911 
L 266.348267 27.409776 
L 265.055098 27.157231 
L 270.051893 23.568599 
L 267.85565 29.315143 
L 267.281785 28.12908 
L 261.873174 35.148414 
L 260.939656 34.42911 
" clip-path="url(#pe78c79a025)" style="fill: #9aa3ad; fill-opacity: 0.7"/>
    <path d="M 288.768883 34.388295 
L 294.791286 27.887928 
L 293.52632 27.519244 
L 298.827736 24.398149 
L 296.119817 29.922044 
L 295.655785 28.688861 
L 289.633382 35.189229 
L 288.768883 34.388295 
" clip-path="url(#pe78c79a025)" style="fill: #9aa3ad; fill-opacity: 0.7"/>
    <path d="M 316.618118 34.336509 
L 323.419298 28.656011 
L 322.211583 28.129238 
L 327.867301 25.708681 
L 324.477971 30.842752 
L 324.174761 29.560516 
L 317.37358 35.241014 
L 316.618118 34.336509 
" clip-path="url(#pe78c79a025)" style="fill: #9aa3ad; fill-opacity: 0.7"/>
   </g>
   <g id="matplotlib.axis_1">
    <g id="xtick_1">
     <g id="line2d_1">
      <defs>
       <path id="me0d4956388" d="M 0 0 
L 0 3 
" style="stroke: #1f2328; stroke-width: 0.8"/>
      </defs>
      <g>
       <use xlink:href="#me0d4956388" x="39.048679" y="275.865225" style="fill: #1f2328; stroke: #1f2328; stroke-width: 0.8"/>
      </g>
     </g>
     <g id="text_1">
      <!-- 0.0 -->
      <g style="fill: #1f2328" transform="translate(33.423679 288.511944) scale(0.09 -0.09)">
       <defs>
        <path id="STIXGeneral-Regular-30" d="M 3046 2112 
Q 3046 1683 2963 1302 
Q 2880 922 2717 602 
Q 2554 282 2266 96 
Q 1978 -90 1600 -90 
Q 1210 -90 915 108 
Q 621 307 461 640 
Q 301 973 227 1350 
Q 154 1728 154 2150 
Q 154 2746 301 3222 
Q 448 3699 790 4012 
Q 1133 4326 1626 4326 
Q 2253 4326 2649 3712 
Q 3046 3098 3046 2112 
z
M 2432 2080 
Q 2432 3091 2217 3625 
Q 2003 4160 1587 4160 
Q 1190 4160 979 3622 
Q 768 3085 768 2106 
Q 768 1120 979 598 
Q 1190 77 1600 77 
Q 2003 77 2217 598 
Q 2432 1120 2432 2080 
z
" transform="scale(0.015625)"/>
        <path id="STIXGeneral-Regular-2e" d="M 1158 275 
Q 1158 134 1052 32 
Q 947 -70 800 -70 
Q 653 -70 550 32 
Q 448 134 448 281 
Q 448 429 553 534 
Q 659 640 806 640 
Q 947 640 1052 531 
Q 1158 422 1158 275 
z
" transform="scale(0.015625)"/>
       </defs>
       <use xlink:href="#STIXGeneral-Regular-30"/>
       <use xlink:href="#STIXGeneral-Regular-2e" x="49.999985"/>
       <use xlink:href="#STIXGeneral-Regular-30" x="74.999969"/>
      </g>
     </g>
    </g>
    <g id="xtick_2">
     <g id="line2d_2">
      <g>
       <use xlink:href="#me0d4956388" x="108.535472" y="275.865225" style="fill: #1f2328; stroke: #1f2328; stroke-width: 0.8"/>
      </g>
     </g>
     <g id="text_2">
      <!-- 0.5 -->
      <g style="fill: #1f2328" transform="translate(102.910472 288.511944) scale(0.09 -0.09)">
       <defs>
        <path id="STIXGeneral-Regular-35" d="M 2803 4358 
L 2573 3814 
Q 2534 3731 2400 3731 
L 1158 3731 
L 902 3187 
Q 1606 3053 1920 2896 
Q 2234 2739 2502 2368 
Q 2726 2061 2726 1555 
Q 2726 1094 2576 780 
Q 2426 467 2099 224 
Q 1664 -90 1011 -90 
Q 646 -90 422 19 
Q 198 128 198 307 
Q 198 550 486 550 
Q 717 550 960 352 
Q 1210 147 1414 147 
Q 1747 147 2012 480 
Q 2278 813 2278 1229 
Q 2278 1843 1850 2189 
Q 1293 2637 486 2637 
Q 410 2637 410 2688 
L 416 2720 
L 1114 4237 
L 2438 4237 
Q 2547 4237 2608 4269 
Q 2669 4301 2746 4403 
L 2803 4358 
z
" transform="scale(0.015625)"/>
       </defs>
       <use xlink:href="#STIXGeneral-Regular-30"/>
       <use xlink:href="#STIXGeneral-Regular-2e" x="49.999985"/>
       <use xlink:href="#STIXGeneral-Regular-35" x="74.999969"/>
      </g>
     </g>
    </g>
    <g id="xtick_3">
     <g id="line2d_3">
      <g>
       <use xlink:href="#me0d4956388" x="178.022264" y="275.865225" style="fill: #1f2328; stroke: #1f2328; stroke-width: 0.8"/>
      </g>
     </g>
     <g id="text_3">
      <!-- 1.0 -->
      <g style="fill: #1f2328" transform="translate(172.397264 288.511944) scale(0.09 -0.09)">
       <defs>
        <path id="STIXGeneral-Regular-31" d="M 2522 0 
L 755 0 
L 755 96 
Q 1107 115 1235 227 
Q 1363 339 1363 608 
L 1363 3482 
Q 1363 3795 1171 3795 
Q 1082 3795 883 3718 
L 710 3654 
L 710 3744 
L 1856 4326 
L 1914 4307 
L 1914 486 
Q 1914 275 2042 185 
Q 2170 96 2522 96 
L 2522 0 
z
" transform="scale(0.015625)"/>
       </defs>
       <use xlink:href="#STIXGeneral-Regular-31"/>
       <use xlink:href="#STIXGeneral-Regular-2e" x="49.999985"/>
       <use xlink:href="#STIXGeneral-Regular-30" x="74.999969"/>
      </g>
     </g>
    </g>
    <g id="xtick_4">
     <g id="line2d_4">
      <g>
       <use xlink:href="#me0d4956388" x="247.509057" y="275.865225" style="fill: #1f2328; stroke: #1f2328; stroke-width: 0.8"/>
      </g>
     </g>
     <g id="text_4">
      <!-- 1.5 -->
      <g style="fill: #1f2328" transform="translate(241.884057 288.511944) scale(0.09 -0.09)">
       <use xlink:href="#STIXGeneral-Regular-31"/>
       <use xlink:href="#STIXGeneral-Regular-2e" x="49.999985"/>
       <use xlink:href="#STIXGeneral-Regular-35" x="74.999969"/>
      </g>
     </g>
    </g>
    <g id="xtick_5">
     <g id="line2d_5">
      <g>
       <use xlink:href="#me0d4956388" x="316.995849" y="275.865225" style="fill: #1f2328; stroke: #1f2328; stroke-width: 0.8"/>
      </g>
     </g>
     <g id="text_5">
      <!-- 2.0 -->
      <g style="fill: #1f2328" transform="translate(311.370849 288.511944) scale(0.09 -0.09)">
       <defs>
        <path id="STIXGeneral-Regular-32" d="M 3034 877 
L 2688 0 
L 186 0 
L 186 77 
L 1325 1286 
Q 1773 1754 1965 2144 
Q 2157 2534 2157 2950 
Q 2157 3379 1920 3616 
Q 1683 3853 1267 3853 
Q 922 3853 720 3673 
Q 518 3494 326 3021 
L 192 3053 
Q 301 3648 630 3987 
Q 960 4326 1523 4326 
Q 2054 4326 2380 4006 
Q 2707 3686 2707 3200 
Q 2707 2477 1888 1613 
L 832 486 
L 2330 486 
Q 2541 486 2665 569 
Q 2790 653 2944 915 
L 3034 877 
z
" transform="scale(0.015625)"/>
       </defs>
       <use xlink:href="#STIXGeneral-Regular-32"/>
       <use xlink:href="#STIXGeneral-Regular-2e" x="49.999985"/>
       <use xlink:href="#STIXGeneral-Regular-30" x="74.999969"/>
      </g>
     </g>
    </g>
    <g id="xtick_6">
     <g id="line2d_6">
      <g>
       <use xlink:href="#me0d4956388" x="386.482642" y="275.865225" style="fill: #1f2328; stroke: #1f2328; stroke-width: 0.8"/>
      </g>
     </g>
     <g id="text_6">
      <!-- 2.5 -->
      <g style="fill: #1f2328" transform="translate(380.857642 288.511944) scale(0.09 -0.09)">
       <use xlink:href="#STIXGeneral-Regular-32"/>
       <use xlink:href="#STIXGeneral-Regular-2e" x="49.999985"/>
       <use xlink:href="#STIXGeneral-Regular-35" x="74.999969"/>
      </g>
     </g>
    </g>
    <g id="text_7">
     <!-- $t$ -->
     <g transform="translate(214.205 301.977881) scale(0.11 -0.11)">
      <defs>
       <path id="Cmmi10-74" d="M 397 519 
Q 397 613 416 697 
L 878 2534 
L 206 2534 
Q 141 2534 141 2619 
Q 166 2759 225 2759 
L 934 2759 
L 1191 3803 
Q 1216 3888 1291 3947 
Q 1366 4006 1459 4006 
Q 1541 4006 1595 3957 
Q 1650 3909 1650 3828 
Q 1650 3809 1648 3798 
Q 1647 3788 1644 3775 
L 1388 2759 
L 2047 2759 
Q 2113 2759 2113 2675 
Q 2109 2659 2100 2621 
Q 2091 2584 2075 2559 
Q 2059 2534 2028 2534 
L 1331 2534 
L 872 684 
Q 825 503 825 372 
Q 825 97 1013 97 
Q 1294 97 1511 361 
Q 1728 625 1844 941 
Q 1869 978 1894 978 
L 1972 978 
Q 1997 978 2012 961 
Q 2028 944 2028 922 
Q 2028 909 2022 903 
Q 1881 516 1612 222 
Q 1344 -72 997 -72 
Q 744 -72 570 93 
Q 397 259 397 519 
z
" transform="scale(0.015625)"/>
      </defs>
      <use xlink:href="#Cmmi10-74" transform="translate(0 0.40625)"/>
     </g>
    </g>
   </g>
   <g id="matplotlib.axis_2">
    <g id="ytick_1">
     <g id="line2d_7">
      <defs>
       <path id="m1a2f5209bc" d="M 0 0 
L -3 0 
" style="stroke: #1f2328; stroke-width: 0.8"/>
      </defs>
      <g>
       <use xlink:href="#m1a2f5209bc" x="32.1" y="240.150193" style="fill: #1f2328; stroke: #1f2328; stroke-width: 0.8"/>
      </g>
     </g>
     <g id="text_8">
      <!-- 1 -->
      <g style="fill: #1f2328" transform="translate(21.1 243.223553) scale(0.09 -0.09)">
       <use xlink:href="#STIXGeneral-Regular-31"/>
      </g>
     </g>
    </g>
    <g id="ytick_2">
     <g id="line2d_8">
      <g>
       <use xlink:href="#m1a2f5209bc" x="32.1" y="195.506404" style="fill: #1f2328; stroke: #1f2328; stroke-width: 0.8"/>
      </g>
     </g>
     <g id="text_9">
      <!-- 2 -->
      <g style="fill: #1f2328" transform="translate(21.1 198.579763) scale(0.09 -0.09)">
       <use xlink:href="#STIXGeneral-Regular-32"/>
      </g>
     </g>
    </g>
    <g id="ytick_3">
     <g id="line2d_9">
      <g>
       <use xlink:href="#m1a2f5209bc" x="32.1" y="150.862614" style="fill: #1f2328; stroke: #1f2328; stroke-width: 0.8"/>
      </g>
     </g>
     <g id="text_10">
      <!-- 3 -->
      <g style="fill: #1f2328" transform="translate(21.1 153.935974) scale(0.09 -0.09)">
       <defs>
        <path id="STIXGeneral-Regular-33" d="M 390 3264 
L 288 3290 
Q 435 3770 748 4048 
Q 1062 4326 1542 4326 
Q 1990 4326 2265 4083 
Q 2541 3840 2541 3450 
Q 2541 2925 1946 2566 
Q 2298 2413 2477 2227 
Q 2758 1914 2758 1402 
Q 2758 890 2464 506 
Q 2246 211 1840 60 
Q 1434 -90 979 -90 
Q 262 -90 262 275 
Q 262 378 339 442 
Q 416 506 525 506 
Q 685 506 915 339 
Q 1197 141 1466 141 
Q 1818 141 2058 425 
Q 2298 710 2298 1120 
Q 2298 1856 1632 2048 
Q 1434 2112 979 2112 
L 979 2202 
Q 1338 2323 1517 2432 
Q 2035 2726 2035 3290 
Q 2035 3610 1852 3776 
Q 1670 3942 1344 3942 
Q 768 3942 390 3264 
z
" transform="scale(0.015625)"/>
       </defs>
       <use xlink:href="#STIXGeneral-Regular-33"/>
      </g>
     </g>
    </g>
    <g id="ytick_4">
     <g id="line2d_10">
      <g>
       <use xlink:href="#m1a2f5209bc" x="32.1" y="106.218825" style="fill: #1f2328; stroke: #1f2328; stroke-width: 0.8"/>
      </g>
     </g>
     <g id="text_11">
      <!-- 4 -->
      <g style="fill: #1f2328" transform="translate(21.1 109.292184) scale(0.09 -0.09)">
       <defs>
        <path id="STIXGeneral-Regular-34" d="M 3027 1069 
L 2368 1069 
L 2368 0 
L 1869 0 
L 1869 1069 
L 77 1069 
L 77 1478 
L 2086 4326 
L 2368 4326 
L 2368 1478 
L 3027 1478 
L 3027 1069 
z
M 1869 1478 
L 1869 3674 
L 333 1478 
L 1869 1478 
z
" transform="scale(0.015625)"/>
       </defs>
       <use xlink:href="#STIXGeneral-Regular-34"/>
      </g>
     </g>
    </g>
    <g id="ytick_5">
     <g id="line2d_11">
      <g>
       <use xlink:href="#m1a2f5209bc" x="32.1" y="61.575036" style="fill: #1f2328; stroke: #1f2328; stroke-width: 0.8"/>
      </g>
     </g>
     <g id="text_12">
      <!-- 5 -->
      <g style="fill: #1f2328" transform="translate(21.1 64.648395) scale(0.09 -0.09)">
       <use xlink:href="#STIXGeneral-Regular-35"/>
      </g>
     </g>
    </g>
    <g id="text_13">
     <!-- $y$ -->
     <g transform="translate(14.712656 151.380425) rotate(-90) scale(0.11 -0.11)">
      <defs>
       <path id="Cmmi10-79" d="M 538 -916 
Q 672 -1147 1006 -1147 
Q 1309 -1147 1531 -934 
Q 1753 -722 1889 -420 
Q 2025 -119 2100 197 
Q 1816 -72 1484 -72 
Q 1231 -72 1053 15 
Q 875 103 776 276 
Q 678 450 678 697 
Q 678 906 734 1126 
Q 791 1347 892 1617 
Q 994 1888 1069 2088 
Q 1153 2322 1153 2472 
Q 1153 2663 1013 2663 
Q 759 2663 595 2402 
Q 431 2141 353 1819 
Q 341 1778 300 1778 
L 225 1778 
Q 172 1778 172 1838 
L 172 1856 
Q 275 2238 487 2533 
Q 700 2828 1025 2828 
Q 1253 2828 1411 2678 
Q 1569 2528 1569 2297 
Q 1569 2178 1516 2047 
Q 1488 1969 1388 1706 
Q 1288 1444 1234 1272 
Q 1181 1100 1147 934 
Q 1113 769 1113 603 
Q 1113 391 1203 244 
Q 1294 97 1491 97 
Q 1888 97 2203 581 
L 2688 2553 
Q 2709 2638 2787 2698 
Q 2866 2759 2956 2759 
Q 3034 2759 3092 2709 
Q 3150 2659 3150 2578 
Q 3150 2541 3144 2528 
L 2509 -19 
Q 2425 -347 2200 -647 
Q 1975 -947 1658 -1130 
Q 1341 -1313 997 -1313 
Q 831 -1313 668 -1248 
Q 506 -1184 406 -1056 
Q 306 -928 306 -756 
Q 306 -581 409 -453 
Q 513 -325 684 -325 
Q 788 -325 858 -389 
Q 928 -453 928 -556 
Q 928 -703 818 -812 
Q 709 -922 563 -922 
Q 556 -919 550 -917 
Q 544 -916 538 -916 
z
" transform="scale(0.015625)"/>
      </defs>
      <use xlink:href="#Cmmi10-79" transform="translate(0 0.8125)"/>
     </g>
    </g>
   </g>
   <g id="patch_3">
    <path d="M 32.1 275.865225 
L 32.1 21.395625 
" style="fill: none; stroke: #1f2328; stroke-width: 0.8; stroke-linejoin: miter; stroke-linecap: square"/>
   </g>
   <g id="patch_4">
    <path d="M 32.1 275.865225 
L 400.38 275.865225 
" style="fill: none; stroke: #1f2328; stroke-width: 0.8; stroke-linejoin: miter; stroke-linecap: square"/>
   </g>
   <g id="text_14">
    <!-- exact $y(t)$ -->
    <g style="fill: #1f2328" transform="translate(226.663019 115.692755) scale(0.1 -0.1)">
     <defs>
      <path id="STIXGeneral-Regular-65" d="M 2611 1050 
L 2714 1005 
Q 2330 -64 1376 -64 
Q 813 -64 486 329 
Q 160 723 160 1389 
Q 160 2074 525 2509 
Q 890 2944 1485 2944 
Q 2061 2944 2374 2502 
Q 2560 2246 2592 1773 
L 621 1773 
Q 646 1370 700 1158 
Q 755 947 915 730 
Q 1184 378 1626 378 
Q 1939 378 2153 531 
Q 2368 685 2611 1050 
z
M 634 1978 
L 1939 1978 
Q 1882 2381 1750 2547 
Q 1619 2714 1312 2714 
Q 1043 2714 864 2525 
Q 685 2336 634 1978 
z
" transform="scale(0.015625)"/>
      <path id="STIXGeneral-Regular-78" d="M 3066 0 
L 1779 0 
L 1779 96 
Q 1939 109 1987 137 
Q 2035 166 2035 250 
Q 2035 307 1997 365 
L 1414 1261 
L 909 474 
Q 781 275 781 211 
Q 781 96 1037 96 
L 1037 0 
L 109 0 
L 109 96 
Q 269 109 355 169 
Q 442 230 576 422 
L 1306 1478 
L 704 2400 
Q 557 2624 454 2704 
Q 352 2784 211 2784 
L 154 2784 
L 154 2880 
L 1478 2880 
L 1478 2784 
Q 1203 2778 1203 2643 
Q 1203 2509 1498 2074 
Q 1581 1958 1587 1946 
Q 1619 1990 1779 2227 
Q 1811 2285 1856 2349 
Q 1901 2413 1923 2451 
Q 1946 2490 1971 2528 
Q 1997 2566 2006 2595 
Q 2016 2624 2016 2643 
Q 2016 2765 1760 2784 
L 1760 2880 
L 2771 2880 
L 2771 2784 
Q 2445 2771 2253 2502 
L 1722 1734 
L 2541 480 
Q 2790 96 3066 96 
L 3066 0 
z
" transform="scale(0.015625)"/>
      <path id="STIXGeneral-Regular-61" d="M 2829 422 
L 2829 243 
Q 2586 -64 2253 -64 
Q 1888 -64 1843 403 
L 1837 403 
Q 1427 -64 909 -64 
Q 608 -64 422 112 
Q 237 288 237 602 
Q 237 1050 685 1350 
Q 992 1555 1837 1869 
L 1837 2214 
Q 1837 2502 1699 2646 
Q 1562 2790 1338 2790 
Q 1146 2790 1018 2697 
Q 890 2605 890 2477 
Q 890 2419 909 2348 
Q 928 2278 928 2208 
Q 928 2112 841 2029 
Q 755 1946 634 1946 
Q 525 1946 441 2029 
Q 358 2112 358 2240 
Q 358 2547 685 2752 
Q 986 2944 1421 2944 
Q 1939 2944 2176 2656 
Q 2291 2522 2323 2384 
Q 2355 2246 2355 1946 
L 2355 723 
Q 2355 301 2554 301 
Q 2682 301 2829 422 
z
M 1837 813 
L 1837 1715 
Q 1248 1510 1018 1293 
Q 800 1094 800 800 
Q 800 557 921 432 
Q 1043 307 1242 307 
Q 1453 307 1613 410 
Q 1747 506 1792 589 
Q 1837 672 1837 813 
z
" transform="scale(0.015625)"/>
      <path id="STIXGeneral-Regular-63" d="M 2547 998 
L 2637 941 
Q 2362 403 2112 205 
Q 1786 -64 1376 -64 
Q 845 -64 502 336 
Q 160 736 160 1357 
Q 160 2170 698 2618 
Q 1094 2944 1562 2944 
Q 1965 2944 2256 2749 
Q 2547 2554 2547 2285 
Q 2547 2176 2457 2096 
Q 2368 2016 2246 2016 
Q 2022 2016 1939 2310 
L 1901 2451 
Q 1850 2630 1773 2694 
Q 1696 2758 1523 2758 
Q 1133 2758 893 2451 
Q 653 2144 653 1645 
Q 653 1094 928 745 
Q 1203 397 1645 397 
Q 1920 397 2118 528 
Q 2317 659 2547 998 
z
" transform="scale(0.015625)"/>
      <path id="STIXGeneral-Regular-74" d="M 1702 493 
L 1786 422 
Q 1478 -64 1011 -64 
Q 448 -64 448 749 
L 448 2675 
L 109 2675 
Q 83 2694 83 2720 
Q 83 2771 192 2842 
Q 435 2982 813 3526 
Q 826 3546 874 3606 
Q 922 3667 941 3706 
Q 986 3706 986 3622 
L 986 2880 
L 1632 2880 
L 1632 2675 
L 986 2675 
L 986 845 
Q 986 538 1062 403 
Q 1139 269 1318 269 
Q 1510 269 1702 493 
z
" transform="scale(0.015625)"/>
      <path id="STIXGeneral-Regular-20" transform="scale(0.015625)"/>
      <path id="Cmr10-28" d="M 1984 -1588 
Q 1628 -1306 1370 -942 
Q 1113 -578 948 -165 
Q 784 247 703 697 
Q 622 1147 622 1600 
Q 622 2059 703 2509 
Q 784 2959 951 3375 
Q 1119 3791 1378 4153 
Q 1638 4516 1984 4788 
Q 1984 4800 2016 4800 
L 2075 4800 
Q 2094 4800 2109 4783 
Q 2125 4766 2125 4744 
Q 2125 4716 2113 4703 
Q 1800 4397 1592 4047 
Q 1384 3697 1257 3301 
Q 1131 2906 1075 2482 
Q 1019 2059 1019 1600 
Q 1019 -434 2106 -1491 
Q 2125 -1509 2125 -1544 
Q 2125 -1559 2108 -1579 
Q 2091 -1600 2075 -1600 
L 2016 -1600 
Q 1984 -1600 1984 -1588 
z
" transform="scale(0.015625)"/>
      <path id="Cmr10-29" d="M 416 -1600 
Q 359 -1600 359 -1544 
Q 359 -1516 372 -1503 
Q 1466 -434 1466 1600 
Q 1466 3634 384 4691 
Q 359 4706 359 4744 
Q 359 4766 376 4783 
Q 394 4800 416 4800 
L 475 4800 
Q 494 4800 506 4788 
Q 966 4425 1272 3906 
Q 1578 3388 1720 2800 
Q 1863 2213 1863 1600 
Q 1863 1147 1786 708 
Q 1709 269 1542 -157 
Q 1375 -584 1119 -945 
Q 863 -1306 506 -1588 
Q 494 -1600 475 -1600 
L 416 -1600 
z
" transform="scale(0.015625)"/>
     </defs>
     <use xlink:href="#STIXGeneral-Regular-65"/>
     <use xlink:href="#STIXGeneral-Regular-78" transform="translate(44.399994 0)"/>
     <use xlink:href="#STIXGeneral-Regular-61" transform="translate(94.399979 0)"/>
     <use xlink:href="#STIXGeneral-Regular-63" transform="translate(138.799973 0)"/>
     <use xlink:href="#STIXGeneral-Regular-74" transform="translate(183.199966 0)"/>
     <use xlink:href="#STIXGeneral-Regular-20" transform="translate(210.999954 0)"/>
     <use xlink:href="#Cmmi10-79" transform="translate(235.999939 0)"/>
     <use xlink:href="#Cmr10-28" transform="translate(285.023376 0)"/>
     <use xlink:href="#Cmmi10-74" transform="translate(323.841736 0)"/>
     <use xlink:href="#Cmr10-29" transform="translate(359.92572 0)"/>
    </g>
   </g>
   <g id="text_15">
    <!-- Euler, $h=0.5$ -->
    <g style="fill: #d55e00" transform="translate(254.457736 152.076207) scale(0.1 -0.1)">
     <defs>
      <path id="STIXGeneral-Regular-45" d="M 3821 1082 
L 3526 0 
L 77 0 
L 77 122 
Q 442 147 538 252 
Q 634 358 634 730 
L 634 3520 
Q 634 3878 534 3987 
Q 435 4096 77 4115 
L 77 4237 
L 3469 4237 
L 3494 3322 
L 3334 3322 
Q 3264 3750 3085 3872 
Q 2906 3994 2349 3994 
L 1510 3994 
Q 1370 3994 1328 3952 
Q 1286 3910 1286 3763 
L 1286 2355 
L 2253 2355 
Q 2656 2355 2787 2470 
Q 2918 2586 2976 2970 
L 3123 2970 
L 3123 1472 
L 2976 1472 
Q 2918 1875 2790 1984 
Q 2662 2093 2253 2093 
L 1286 2093 
L 1286 538 
Q 1286 346 1420 291 
Q 1555 237 1933 237 
L 2163 237 
Q 2848 237 3136 403 
Q 3424 570 3642 1082 
L 3821 1082 
z
" transform="scale(0.015625)"/>
      <path id="STIXGeneral-Regular-75" d="M 3072 320 
L 3072 230 
Q 2573 96 2195 -58 
L 2163 -38 
L 2163 486 
L 2150 486 
Q 1747 -64 1235 -64 
Q 870 -64 662 160 
Q 454 384 454 755 
L 454 2362 
Q 454 2598 371 2688 
Q 288 2778 58 2790 
L 58 2880 
L 992 2880 
L 992 813 
Q 992 595 1123 451 
Q 1254 307 1446 307 
Q 1760 307 1984 506 
Q 2067 582 2099 649 
Q 2131 717 2131 877 
L 2131 2355 
Q 2131 2605 2041 2678 
Q 1952 2752 1658 2771 
L 1658 2880 
L 2669 2880 
L 2669 685 
Q 2669 461 2742 390 
Q 2816 320 3034 320 
L 3072 320 
z
" transform="scale(0.015625)"/>
      <path id="STIXGeneral-Regular-6c" d="M 1645 0 
L 134 0 
L 134 96 
Q 435 122 531 221 
Q 627 320 627 589 
L 627 3590 
Q 627 3821 569 3910 
Q 512 4000 358 4000 
Q 224 4000 122 3987 
L 122 4090 
Q 730 4237 1133 4371 
L 1165 4346 
L 1165 557 
Q 1165 288 1254 201 
Q 1344 115 1645 96 
L 1645 0 
z
" transform="scale(0.015625)"/>
      <path id="STIXGeneral-Regular-72" d="M 1024 2931 
L 1024 2342 
Q 1267 2688 1430 2816 
Q 1594 2944 1792 2944 
Q 1958 2944 2051 2854 
Q 2144 2765 2144 2605 
Q 2144 2470 2077 2393 
Q 2010 2317 1894 2317 
Q 1773 2317 1638 2445 
Q 1536 2541 1472 2541 
Q 1338 2541 1181 2355 
Q 1024 2170 1024 2016 
L 1024 576 
Q 1024 301 1133 205 
Q 1242 109 1568 96 
L 1568 0 
L 32 0 
L 32 96 
Q 339 154 412 224 
Q 486 294 486 538 
L 486 2138 
Q 486 2349 438 2435 
Q 390 2522 269 2522 
Q 166 2522 45 2496 
L 45 2598 
Q 448 2726 992 2944 
L 1024 2931 
z
" transform="scale(0.015625)"/>
      <path id="STIXGeneral-Regular-2c" d="M 531 -902 
L 467 -781 
Q 998 -422 998 -96 
Q 998 -13 909 -13 
Q 883 -13 822 -25 
Q 762 -38 723 -38 
Q 352 -38 352 288 
Q 352 454 457 553 
Q 563 653 736 653 
Q 954 653 1101 496 
Q 1248 339 1248 96 
Q 1248 -198 1053 -473 
Q 858 -749 531 -902 
z
" transform="scale(0.015625)"/>
      <path id="Cmmi10-68" d="M 341 116 
Q 341 153 347 172 
L 1275 3872 
Q 1300 3981 1306 4044 
Q 1306 4147 891 4147 
Q 825 4147 825 4231 
Q 828 4247 839 4287 
Q 850 4328 867 4350 
Q 884 4372 916 4372 
L 1778 4441 
L 1797 4441 
Q 1797 4434 1819 4423 
Q 1841 4413 1844 4409 
Q 1856 4378 1856 4359 
L 1356 2363 
Q 1750 2828 2291 2828 
Q 2516 2828 2680 2750 
Q 2844 2672 2936 2514 
Q 3028 2356 3028 2138 
Q 3028 1875 2911 1503 
Q 2794 1131 2619 672 
Q 2528 463 2528 288 
Q 2528 97 2675 97 
Q 2925 97 3092 364 
Q 3259 631 3328 941 
Q 3341 978 3378 978 
L 3456 978 
Q 3481 978 3497 961 
Q 3513 944 3513 922 
Q 3513 916 3506 903 
Q 3450 672 3339 448 
Q 3228 225 3059 76 
Q 2891 -72 2663 -72 
Q 2438 -72 2278 83 
Q 2119 238 2119 459 
Q 2119 578 2169 709 
Q 2350 1191 2470 1569 
Q 2591 1947 2591 2234 
Q 2591 2419 2519 2541 
Q 2447 2663 2278 2663 
Q 1934 2663 1678 2452 
Q 1422 2241 1234 1894 
L 800 147 
Q 775 50 703 -11 
Q 631 -72 538 -72 
Q 456 -72 398 -17 
Q 341 38 341 116 
z
" transform="scale(0.015625)"/>
      <path id="Cmr10-3d" d="M 481 850 
Q 428 850 393 890 
Q 359 931 359 978 
Q 359 1031 393 1068 
Q 428 1106 481 1106 
L 4500 1106 
Q 4547 1106 4581 1068 
Q 4616 1031 4616 978 
Q 4616 931 4581 890 
Q 4547 850 4500 850 
L 481 850 
z
M 481 2094 
Q 428 2094 393 2131 
Q 359 2169 359 2222 
Q 359 2269 393 2309 
Q 428 2350 481 2350 
L 4500 2350 
Q 4547 2350 4581 2309 
Q 4616 2269 4616 2222 
Q 4616 2169 4581 2131 
Q 4547 2094 4500 2094 
L 481 2094 
z
" transform="scale(0.015625)"/>
      <path id="Cmr10-30" d="M 1600 -141 
Q 816 -141 533 504 
Q 250 1150 250 2041 
Q 250 2597 351 3087 
Q 453 3578 754 3920 
Q 1056 4263 1600 4263 
Q 2022 4263 2290 4056 
Q 2559 3850 2700 3523 
Q 2841 3197 2892 2823 
Q 2944 2450 2944 2041 
Q 2944 1491 2842 1011 
Q 2741 531 2444 195 
Q 2147 -141 1600 -141 
z
M 1600 25 
Q 1956 25 2131 390 
Q 2306 756 2347 1200 
Q 2388 1644 2388 2144 
Q 2388 2625 2347 3031 
Q 2306 3438 2132 3767 
Q 1959 4097 1600 4097 
Q 1238 4097 1063 3765 
Q 888 3434 847 3029 
Q 806 2625 806 2144 
Q 806 1788 823 1472 
Q 841 1156 916 820 
Q 991 484 1158 254 
Q 1325 25 1600 25 
z
" transform="scale(0.015625)"/>
      <path id="Cmmi10-3a" d="M 538 353 
Q 538 497 644 600 
Q 750 703 891 703 
Q 978 703 1062 656 
Q 1147 609 1194 525 
Q 1241 441 1241 353 
Q 1241 213 1137 106 
Q 1034 0 891 0 
Q 750 0 644 106 
Q 538 213 538 353 
z
" transform="scale(0.015625)"/>
      <path id="Cmr10-35" d="M 556 728 
Q 622 541 758 387 
Q 894 234 1080 148 
Q 1266 63 1466 63 
Q 1928 63 2103 422 
Q 2278 781 2278 1294 
Q 2278 1516 2270 1667 
Q 2263 1819 2228 1959 
Q 2169 2184 2020 2353 
Q 1872 2522 1656 2522 
Q 1441 2522 1286 2456 
Q 1131 2391 1034 2303 
Q 938 2216 863 2119 
Q 788 2022 769 2016 
L 697 2016 
Q 681 2016 657 2036 
Q 634 2056 634 2075 
L 634 4213 
Q 634 4228 654 4245 
Q 675 4263 697 4263 
L 716 4263 
Q 1147 4056 1631 4056 
Q 2106 4056 2547 4263 
L 2566 4263 
Q 2588 4263 2606 4247 
Q 2625 4231 2625 4213 
L 2625 4153 
Q 2625 4122 2613 4122 
Q 2394 3831 2064 3668 
Q 1734 3506 1381 3506 
Q 1125 3506 856 3578 
L 856 2369 
Q 1069 2541 1236 2614 
Q 1403 2688 1663 2688 
Q 2016 2688 2295 2484 
Q 2575 2281 2725 1954 
Q 2875 1628 2875 1288 
Q 2875 903 2686 575 
Q 2497 247 2172 53 
Q 1847 -141 1466 -141 
Q 1150 -141 886 21 
Q 622 184 470 459 
Q 319 734 319 1044 
Q 319 1188 412 1278 
Q 506 1369 647 1369 
Q 788 1369 883 1276 
Q 978 1184 978 1044 
Q 978 906 883 811 
Q 788 716 647 716 
Q 625 716 597 720 
Q 569 725 556 728 
z
" transform="scale(0.015625)"/>
     </defs>
     <use xlink:href="#STIXGeneral-Regular-45" transform="translate(0 0.609375)"/>
     <use xlink:href="#STIXGeneral-Regular-75" transform="translate(61.099991 0.609375)"/>
     <use xlink:href="#STIXGeneral-Regular-6c" transform="translate(111.099976 0.609375)"/>
     <use xlink:href="#STIXGeneral-Regular-65" transform="translate(138.899963 0.609375)"/>
     <use xlink:href="#STIXGeneral-Regular-72" transform="translate(183.299957 0.609375)"/>
     <use xlink:href="#STIXGeneral-Regular-2c" transform="translate(216.599945 0.609375)"/>
     <use xlink:href="#STIXGeneral-Regular-20" transform="translate(241.59993 0.609375)"/>
     <use xlink:href="#Cmmi10-68" transform="translate(266.599915 0.609375)"/>
     <use xlink:href="#Cmr10-3d" transform="translate(341.775696 0.609375)"/>
     <use xlink:href="#Cmr10-30" transform="translate(437.019836 0.609375)"/>
     <use xlink:href="#Cmmi10-3a" transform="translate(487.019836 0.609375)"/>
     <use xlink:href="#Cmr10-35" transform="translate(514.705383 0.609375)"/>
    </g>
   </g>
   <g id="text_16">
    <!-- gap $|y(t_j)-w_j|$ -->
    <g style="fill: #0072b2" transform="translate(321.165057 69.247389) scale(0.09 -0.09)">
     <defs>
      <path id="STIXGeneral-Regular-67" d="M 3008 2483 
L 2477 2483 
Q 2598 2208 2598 1946 
Q 2598 1453 2265 1203 
Q 1933 954 1600 954 
Q 1530 954 1357 973 
L 1235 986 
Q 1107 947 979 812 
Q 851 678 851 582 
Q 851 435 1350 410 
L 2176 371 
Q 2528 358 2739 172 
Q 2950 -13 2950 -314 
Q 2950 -685 2566 -986 
Q 2035 -1395 1286 -1395 
Q 826 -1395 502 -1212 
Q 179 -1030 179 -774 
Q 179 -595 320 -419 
Q 461 -243 806 6 
Q 602 102 534 172 
Q 467 243 467 346 
Q 467 531 762 787 
Q 909 915 1037 1043 
Q 717 1203 579 1401 
Q 442 1600 442 1901 
Q 442 2336 752 2640 
Q 1062 2944 1510 2944 
Q 1766 2944 2022 2848 
L 2163 2797 
Q 2349 2733 2515 2733 
L 3008 2733 
L 3008 2483 
z
M 973 2163 
L 973 2144 
Q 973 1683 1155 1398 
Q 1338 1114 1632 1114 
Q 1850 1114 1978 1270 
Q 2106 1427 2106 1690 
Q 2106 2112 1914 2464 
Q 1754 2765 1446 2765 
Q 1222 2765 1097 2605 
Q 973 2445 973 2163 
z
M 2771 -410 
Q 2771 -230 2595 -163 
Q 2419 -96 1978 -96 
Q 1344 -96 941 -13 
Q 749 -243 688 -348 
Q 627 -454 627 -563 
Q 627 -774 880 -902 
Q 1133 -1030 1555 -1030 
Q 2099 -1030 2435 -860 
Q 2771 -691 2771 -410 
z
" transform="scale(0.015625)"/>
      <path id="STIXGeneral-Regular-70" d="M 1018 2931 
L 1018 2438 
Q 1421 2944 1939 2944 
Q 2406 2944 2707 2560 
Q 3008 2176 3008 1581 
Q 3008 883 2621 409 
Q 2234 -64 1664 -64 
Q 1466 -64 1328 -6 
Q 1190 51 1018 211 
L 1018 -794 
Q 1018 -1094 1120 -1180 
Q 1222 -1267 1581 -1274 
L 1581 -1389 
L 32 -1389 
L 32 -1280 
Q 314 -1254 397 -1171 
Q 480 -1088 480 -838 
L 480 2157 
Q 480 2381 429 2451 
Q 378 2522 218 2522 
Q 115 2522 58 2515 
L 58 2618 
Q 506 2752 979 2944 
L 1018 2931 
z
M 1018 2138 
L 1018 563 
Q 1018 422 1238 281 
Q 1459 141 1683 141 
Q 2029 141 2243 467 
Q 2458 794 2458 1325 
Q 2458 1888 2243 2224 
Q 2029 2560 1670 2560 
Q 1446 2560 1232 2419 
Q 1018 2278 1018 2138 
z
" transform="scale(0.015625)"/>
      <path id="Cmsy10-6a" d="M 763 -1484 
L 763 4684 
Q 763 4734 800 4767 
Q 838 4800 891 4800 
Q 938 4800 978 4767 
Q 1019 4734 1019 4684 
L 1019 -1484 
Q 1019 -1534 978 -1567 
Q 938 -1600 891 -1600 
Q 838 -1600 800 -1567 
Q 763 -1534 763 -1484 
z
" transform="scale(0.015625)"/>
      <path id="Cmmi10-6a" d="M -84 -909 
Q -84 -753 23 -639 
Q 131 -525 288 -525 
Q 391 -525 461 -589 
Q 531 -653 531 -756 
Q 531 -878 454 -976 
Q 378 -1075 263 -1106 
Q 375 -1147 488 -1147 
Q 759 -1147 959 -895 
Q 1159 -644 1241 -331 
L 1844 2075 
Q 1888 2259 1888 2388 
Q 1888 2663 1697 2663 
Q 1416 2663 1205 2408 
Q 994 2153 863 1819 
Q 850 1778 813 1778 
L 738 1778 
Q 684 1778 684 1838 
L 684 1856 
Q 828 2241 1093 2534 
Q 1359 2828 1709 2828 
Q 1975 2828 2145 2662 
Q 2316 2497 2316 2241 
Q 2316 2150 2297 2059 
L 1691 -372 
Q 1625 -631 1440 -847 
Q 1256 -1063 1000 -1188 
Q 744 -1313 475 -1313 
Q 259 -1313 87 -1209 
Q -84 -1106 -84 -909 
z
M 1941 3878 
Q 1941 4019 2050 4125 
Q 2159 4231 2297 4231 
Q 2406 4231 2476 4164 
Q 2547 4097 2547 3994 
Q 2547 3850 2433 3742 
Q 2319 3634 2181 3634 
Q 2078 3634 2009 3706 
Q 1941 3778 1941 3878 
z
" transform="scale(0.015625)"/>
      <path id="Cmsy10-a1" d="M 653 1472 
Q 600 1472 565 1512 
Q 531 1553 531 1600 
Q 531 1647 565 1687 
Q 600 1728 653 1728 
L 4325 1728 
Q 4375 1728 4408 1687 
Q 4441 1647 4441 1600 
Q 4441 1553 4408 1512 
Q 4375 1472 4325 1472 
L 653 1472 
z
" transform="scale(0.015625)"/>
      <path id="Cmmi10-77" d="M 691 744 
Q 691 878 727 1053 
Q 763 1228 806 1364 
Q 850 1500 954 1781 
Q 1059 2063 1069 2088 
Q 1153 2322 1153 2472 
Q 1153 2663 1013 2663 
Q 759 2663 595 2402 
Q 431 2141 353 1819 
Q 341 1778 300 1778 
L 225 1778 
Q 172 1778 172 1838 
L 172 1856 
Q 275 2238 487 2533 
Q 700 2828 1025 2828 
Q 1253 2828 1411 2678 
Q 1569 2528 1569 2297 
Q 1569 2178 1516 2047 
Q 1441 1853 1339 1581 
Q 1238 1309 1181 1087 
Q 1125 866 1125 659 
Q 1125 409 1256 253 
Q 1388 97 1638 97 
Q 1978 97 2203 616 
Q 2194 653 2194 722 
Q 2194 894 2247 1113 
L 2606 2553 
Q 2628 2638 2706 2698 
Q 2784 2759 2875 2759 
Q 2950 2759 3008 2709 
Q 3066 2659 3066 2578 
Q 3066 2541 3059 2528 
L 2700 1100 
Q 2638 844 2638 641 
Q 2638 400 2748 248 
Q 2859 97 3097 97 
Q 3509 97 3775 641 
Q 3875 834 3998 1212 
Q 4122 1591 4122 1791 
Q 4122 1975 4062 2083 
Q 4003 2191 3898 2316 
Q 3794 2441 3794 2503 
Q 3794 2625 3898 2729 
Q 4003 2834 4128 2834 
Q 4281 2834 4348 2693 
Q 4416 2553 4416 2375 
Q 4416 2159 4344 1826 
Q 4272 1494 4162 1158 
Q 4053 822 3956 622 
Q 3606 -72 3084 -72 
Q 2816 -72 2594 31 
Q 2372 134 2266 359 
Q 2163 175 1995 51 
Q 1828 -72 1625 -72 
Q 1203 -72 947 129 
Q 691 331 691 744 
z
" transform="scale(0.015625)"/>
     </defs>
     <use xlink:href="#STIXGeneral-Regular-67"/>
     <use xlink:href="#STIXGeneral-Regular-61" transform="translate(49.999985 0)"/>
     <use xlink:href="#STIXGeneral-Regular-70" transform="translate(94.399979 0)"/>
     <use xlink:href="#STIXGeneral-Regular-20" transform="translate(144.399963 0)"/>
     <use xlink:href="#Cmsy10-6a" transform="translate(169.399948 0)"/>
     <use xlink:href="#Cmmi10-79" transform="translate(197.085495 0)"/>
     <use xlink:href="#Cmr10-28" transform="translate(246.108932 0)"/>
     <use xlink:href="#Cmmi10-74" transform="translate(284.927292 0)"/>
     <use xlink:href="#Cmmi10-6a" transform="translate(321.011276 -17.00625) scale(0.7)"/>
     <use xlink:href="#Cmr10-29" transform="translate(356.167917 0)"/>
     <use xlink:href="#Cmsy10-a1" transform="translate(412.54487 0)"/>
     <use xlink:href="#Cmmi10-77" transform="translate(507.789011 0)"/>
     <use xlink:href="#Cmmi10-6a" transform="translate(579.273386 -17.00625) scale(0.7)"/>
     <use xlink:href="#Cmsy10-6a" transform="translate(614.430026 0)"/>
    </g>
   </g>
   <g id="text_17">
    <!-- Euler re-tangents to the slope field at each step; the gap grows -->
    <g transform="translate(67.100625 15.395625) scale(0.12 -0.12)">
     <defs>
      <path id="STIXGeneral-Regular-2d" d="M 1824 1242 
L 250 1242 
L 250 1645 
L 1824 1645 
L 1824 1242 
z
" transform="scale(0.015625)"/>
      <path id="STIXGeneral-Regular-6e" d="M 3104 0 
L 1773 0 
L 1779 96 
Q 2016 115 2096 233 
Q 2176 352 2176 672 
L 2176 1946 
Q 2176 2592 1709 2592 
Q 1549 2592 1408 2515 
Q 1267 2438 1050 2227 
L 1050 461 
Q 1050 269 1136 192 
Q 1222 115 1466 96 
L 1466 0 
L 115 0 
L 115 96 
Q 358 115 435 214 
Q 512 314 512 602 
L 512 2157 
Q 512 2394 467 2483 
Q 422 2573 288 2573 
Q 160 2573 102 2547 
L 102 2656 
Q 550 2784 979 2944 
L 1030 2925 
L 1030 2426 
L 1037 2426 
Q 1491 2944 1958 2944 
Q 2323 2944 2518 2688 
Q 2714 2432 2714 1958 
L 2714 544 
Q 2714 288 2790 205 
Q 2867 122 3104 96 
L 3104 0 
z
" transform="scale(0.015625)"/>
      <path id="STIXGeneral-Regular-73" d="M 998 1926 
L 1664 1523 
Q 1984 1331 2105 1164 
Q 2227 998 2227 736 
Q 2227 416 1961 176 
Q 1696 -64 1331 -64 
Q 1030 -64 864 -6 
Q 691 51 570 51 
Q 461 51 416 -26 
L 333 -26 
L 333 979 
L 435 979 
Q 538 512 730 294 
Q 922 77 1248 77 
Q 1485 77 1632 211 
Q 1779 346 1779 550 
Q 1779 845 1440 1030 
L 1094 1222 
Q 326 1651 326 2150 
Q 326 2522 566 2730 
Q 806 2938 1210 2938 
Q 1491 2938 1638 2867 
Q 1754 2816 1818 2816 
Q 1862 2816 1920 2880 
L 1990 2880 
L 2022 2010 
L 1926 2010 
Q 1818 2445 1654 2621 
Q 1491 2797 1203 2797 
Q 986 2797 854 2688 
Q 723 2579 723 2362 
Q 723 2253 796 2128 
Q 870 2003 998 1926 
z
" transform="scale(0.015625)"/>
      <path id="STIXGeneral-Regular-6f" d="M 3008 1478 
Q 3008 806 2608 371 
Q 2208 -64 1568 -64 
Q 979 -64 582 368 
Q 186 800 186 1459 
Q 186 2125 582 2534 
Q 979 2944 1626 2944 
Q 2221 2944 2614 2537 
Q 3008 2131 3008 1478 
z
M 2432 1306 
Q 2432 2035 2112 2445 
Q 1856 2765 1504 2765 
Q 1171 2765 966 2493 
Q 762 2221 762 1747 
Q 762 928 1101 435 
Q 1318 115 1677 115 
Q 2029 115 2230 432 
Q 2432 749 2432 1306 
z
" transform="scale(0.015625)"/>
      <path id="STIXGeneral-Regular-68" d="M 3117 0 
L 1760 0 
L 1760 96 
Q 2042 128 2118 224 
Q 2195 320 2195 653 
L 2195 1920 
Q 2195 2598 1722 2598 
Q 1530 2598 1370 2508 
Q 1210 2419 1005 2195 
L 1005 653 
Q 1005 320 1081 224 
Q 1158 128 1440 96 
L 1440 0 
L 58 0 
L 58 96 
Q 333 134 400 224 
Q 467 314 467 653 
L 467 3667 
Q 467 3872 406 3933 
Q 346 3994 141 3994 
Q 83 3994 64 3987 
L 64 4090 
L 237 4141 
Q 730 4288 973 4371 
L 1005 4352 
L 1005 2406 
Q 1229 2694 1446 2819 
Q 1664 2944 1946 2944 
Q 2733 2944 2733 1926 
L 2733 653 
Q 2733 320 2793 233 
Q 2854 147 3117 96 
L 3117 0 
z
" transform="scale(0.015625)"/>
      <path id="STIXGeneral-Regular-66" d="M 134 2880 
L 659 2880 
Q 666 3264 710 3478 
Q 755 3693 883 3910 
Q 1152 4371 1786 4371 
Q 2074 4371 2262 4259 
Q 2451 4147 2451 3974 
Q 2451 3866 2374 3789 
Q 2298 3712 2182 3712 
Q 2029 3712 1894 3942 
Q 1741 4192 1555 4192 
Q 1197 4192 1197 3622 
L 1197 2880 
L 1978 2880 
L 1978 2675 
L 1197 2675 
L 1197 666 
Q 1197 307 1299 208 
Q 1402 109 1792 96 
L 1792 0 
L 128 0 
L 128 96 
Q 474 115 566 214 
Q 659 314 659 666 
L 659 2675 
L 134 2675 
L 134 2880 
z
" transform="scale(0.015625)"/>
      <path id="STIXGeneral-Regular-69" d="M 1152 4045 
Q 1152 3904 1056 3811 
Q 960 3718 819 3718 
Q 685 3718 592 3811 
Q 499 3904 499 4045 
Q 499 4179 595 4275 
Q 691 4371 826 4371 
Q 966 4371 1059 4275 
Q 1152 4179 1152 4045 
z
M 1619 0 
L 102 0 
L 102 96 
Q 435 115 521 211 
Q 608 307 608 666 
L 608 2118 
Q 608 2342 563 2432 
Q 518 2522 397 2522 
Q 243 2522 128 2490 
L 128 2592 
L 1120 2944 
L 1146 2918 
L 1146 672 
Q 1146 314 1226 218 
Q 1306 122 1619 96 
L 1619 0 
z
" transform="scale(0.015625)"/>
      <path id="STIXGeneral-Regular-64" d="M 3142 269 
L 2202 -64 
L 2176 -45 
L 2176 365 
Q 1869 -64 1357 -64 
Q 826 -64 499 317 
Q 173 698 173 1312 
Q 173 1990 563 2467 
Q 954 2944 1504 2944 
Q 1850 2944 2176 2669 
L 2176 3667 
Q 2176 3866 2118 3930 
Q 2061 3994 1882 3994 
Q 1792 3994 1741 3987 
L 1741 4090 
Q 2323 4243 2682 4371 
L 2714 4358 
L 2714 730 
Q 2714 506 2768 435 
Q 2822 365 2995 365 
Q 3034 365 3142 371 
L 3142 269 
z
M 2176 653 
L 2176 2125 
Q 2176 2381 1981 2573 
Q 1786 2765 1523 2765 
Q 1158 2765 940 2438 
Q 723 2112 723 1568 
Q 723 979 963 624 
Q 1203 269 1606 269 
Q 1907 269 2080 474 
Q 2176 582 2176 653 
z
" transform="scale(0.015625)"/>
      <path id="STIXGeneral-Regular-3b" d="M 1116 2832 
Q 1222 2726 1222 2579 
Q 1222 2432 1116 2329 
Q 1011 2227 870 2227 
Q 723 2227 617 2332 
Q 512 2438 512 2579 
Q 512 2733 614 2835 
Q 717 2938 870 2938 
Q 1011 2938 1116 2832 
z
M 685 -902 
L 621 -781 
Q 1152 -435 1152 -102 
Q 1152 -70 1126 -41 
Q 1101 -13 1062 -13 
Q 1043 -13 979 -25 
Q 915 -38 883 -38 
Q 512 -38 512 294 
Q 512 448 621 550 
Q 730 653 890 653 
Q 1107 653 1254 496 
Q 1402 339 1402 83 
Q 1402 -218 1210 -480 
Q 1018 -742 685 -902 
z
" transform="scale(0.015625)"/>
      <path id="STIXGeneral-Regular-77" d="M 4442 2880 
L 4442 2784 
Q 4346 2752 4301 2691 
Q 4256 2630 4179 2438 
L 3296 224 
Q 3168 -90 3117 -90 
Q 3085 -90 3062 -48 
Q 3040 -6 2963 186 
L 2381 1696 
L 1664 160 
Q 1549 -90 1504 -90 
Q 1446 -90 1338 192 
L 474 2381 
Q 378 2630 314 2700 
Q 250 2771 134 2784 
L 134 2880 
L 1286 2880 
L 1286 2784 
Q 1120 2765 1056 2720 
Q 992 2675 992 2573 
Q 992 2477 1030 2381 
L 1664 710 
L 2246 1984 
L 2118 2342 
Q 2029 2598 1942 2681 
Q 1856 2765 1677 2784 
L 1677 2880 
L 2976 2880 
L 2976 2784 
Q 2752 2752 2678 2707 
Q 2605 2662 2605 2560 
Q 2605 2458 2714 2176 
L 3251 742 
L 3827 2163 
Q 3936 2432 3936 2592 
Q 3936 2669 3875 2710 
Q 3814 2752 3654 2784 
L 3654 2880 
L 4442 2880 
z
" transform="scale(0.015625)"/>
     </defs>
     <use xlink:href="#STIXGeneral-Regular-45"/>
     <use xlink:href="#STIXGeneral-Regular-75" x="61.099991"/>
     <use xlink:href="#STIXGeneral-Regular-6c" x="111.099976"/>
     <use xlink:href="#STIXGeneral-Regular-65" x="138.899963"/>
     <use xlink:href="#STIXGeneral-Regular-72" x="183.299957"/>
     <use xlink:href="#STIXGeneral-Regular-20" x="216.599945"/>
     <use xlink:href="#STIXGeneral-Regular-72" x="241.59993"/>
     <use xlink:href="#STIXGeneral-Regular-65" x="274.899918"/>
     <use xlink:href="#STIXGeneral-Regular-2d" x="319.299911"/>
     <use xlink:href="#STIXGeneral-Regular-74" x="352.599899"/>
     <use xlink:href="#STIXGeneral-Regular-61" x="380.399887"/>
     <use xlink:href="#STIXGeneral-Regular-6e" x="424.799881"/>
     <use xlink:href="#STIXGeneral-Regular-67" x="474.799866"/>
     <use xlink:href="#STIXGeneral-Regular-65" x="524.79985"/>
     <use xlink:href="#STIXGeneral-Regular-6e" x="569.199844"/>
     <use xlink:href="#STIXGeneral-Regular-74" x="619.199829"/>
     <use xlink:href="#STIXGeneral-Regular-73" x="646.999817"/>
     <use xlink:href="#STIXGeneral-Regular-20" x="685.899811"/>
     <use xlink:href="#STIXGeneral-Regular-74" x="710.899796"/>
     <use xlink:href="#STIXGeneral-Regular-6f" x="738.699783"/>
     <use xlink:href="#STIXGeneral-Regular-20" x="788.699768"/>
     <use xlink:href="#STIXGeneral-Regular-74" x="813.699753"/>
     <use xlink:href="#STIXGeneral-Regular-68" x="841.499741"/>
     <use xlink:href="#STIXGeneral-Regular-65" x="891.499725"/>
     <use xlink:href="#STIXGeneral-Regular-20" x="935.899719"/>
     <use xlink:href="#STIXGeneral-Regular-73" x="960.899704"/>
     <use xlink:href="#STIXGeneral-Regular-6c" x="999.799698"/>
     <use xlink:href="#STIXGeneral-Regular-6f" x="1027.599686"/>
     <use xlink:href="#STIXGeneral-Regular-70" x="1077.59967"/>
     <use xlink:href="#STIXGeneral-Regular-65" x="1127.599655"/>
     <use xlink:href="#STIXGeneral-Regular-20" x="1171.999649"/>
     <use xlink:href="#STIXGeneral-Regular-66" x="1196.999634"/>
     <use xlink:href="#STIXGeneral-Regular-69" x="1230.299622"/>
     <use xlink:href="#STIXGeneral-Regular-65" x="1258.099609"/>
     <use xlink:href="#STIXGeneral-Regular-6c" x="1302.499603"/>
     <use xlink:href="#STIXGeneral-Regular-64" x="1330.299591"/>
     <use xlink:href="#STIXGeneral-Regular-20" x="1380.299576"/>
     <use xlink:href="#STIXGeneral-Regular-61" x="1405.299561"/>
     <use xlink:href="#STIXGeneral-Regular-74" x="1449.699554"/>
     <use xlink:href="#STIXGeneral-Regular-20" x="1477.499542"/>
     <use xlink:href="#STIXGeneral-Regular-65" x="1502.499527"/>
     <use xlink:href="#STIXGeneral-Regular-61" x="1546.899521"/>
     <use xlink:href="#STIXGeneral-Regular-63" x="1591.299515"/>
     <use xlink:href="#STIXGeneral-Regular-68" x="1635.699509"/>
     <use xlink:href="#STIXGeneral-Regular-20" x="1685.699493"/>
     <use xlink:href="#STIXGeneral-Regular-73" x="1710.699478"/>
     <use xlink:href="#STIXGeneral-Regular-74" x="1749.599472"/>
     <use xlink:href="#STIXGeneral-Regular-65" x="1777.39946"/>
     <use xlink:href="#STIXGeneral-Regular-70" x="1821.799454"/>
     <use xlink:href="#STIXGeneral-Regular-3b" x="1871.799438"/>
     <use xlink:href="#STIXGeneral-Regular-20" x="1899.599426"/>
     <use xlink:href="#STIXGeneral-Regular-74" x="1924.599411"/>
     <use xlink:href="#STIXGeneral-Regular-68" x="1952.399399"/>
     <use xlink:href="#STIXGeneral-Regular-65" x="2002.399384"/>
     <use xlink:href="#STIXGeneral-Regular-20" x="2046.799377"/>
     <use xlink:href="#STIXGeneral-Regular-67" x="2071.799362"/>
     <use xlink:href="#STIXGeneral-Regular-61" x="2121.799347"/>
     <use xlink:href="#STIXGeneral-Regular-70" x="2166.199341"/>
     <use xlink:href="#STIXGeneral-Regular-20" x="2216.199326"/>
     <use xlink:href="#STIXGeneral-Regular-67" x="2241.19931"/>
     <use xlink:href="#STIXGeneral-Regular-72" x="2291.199295"/>
     <use xlink:href="#STIXGeneral-Regular-6f" x="2324.499283"/>
     <use xlink:href="#STIXGeneral-Regular-77" x="2374.499268"/>
     <use xlink:href="#STIXGeneral-Regular-73" x="2446.699249"/>
    </g>
   </g>
   <g id="line2d_12">
    <path d="M 39.048679 262.472088 
L 47.407993 258.323756 
L 55.767306 253.93817 
L 64.823229 248.925561 
L 73.879152 243.647958 
L 82.935074 238.113045 
L 91.990997 232.329024 
L 101.74353 225.831547 
L 111.496062 219.06703 
L 121.945204 211.537277 
L 132.394345 203.731999 
L 143.540096 195.122872 
L 155.382457 185.68082 
L 167.921427 175.385668 
L 181.157007 164.229512 
L 196.482415 151.007499 
L 215.29087 134.459359 
L 270.323016 85.81072 
L 283.558596 74.530264 
L 294.704347 65.311027 
L 304.456879 57.512254 
L 313.512802 50.540513 
L 316.995849 47.93761 
L 316.995849 47.93761 
" clip-path="url(#pe78c79a025)" style="fill: none; stroke: #1f2328; stroke-width: 2; stroke-linecap: square"/>
   </g>
   <g id="line2d_13">
    <path d="M 39.048679 262.472088 
L 108.535472 228.989246 
L 178.022264 184.345457 
L 247.509057 134.121193 
L 316.995849 86.687167 
" clip-path="url(#pe78c79a025)" style="fill: none; stroke: #d55e00; stroke-width: 1.8; stroke-linecap: square"/>
    <defs>
     <path id="me53e26c882" d="M 0 2.5 
C 0.663008 2.5 1.29895 2.236584 1.767767 1.767767 
C 2.236584 1.29895 2.5 0.663008 2.5 0 
C 2.5 -0.663008 2.236584 -1.29895 1.767767 -1.767767 
C 1.29895 -2.236584 0.663008 -2.5 0 -2.5 
C -0.663008 -2.5 -1.29895 -2.236584 -1.767767 -1.767767 
C -2.236584 -1.29895 -2.5 -0.663008 -2.5 0 
C -2.5 0.663008 -2.236584 1.29895 -1.767767 1.767767 
C -1.29895 2.236584 -0.663008 2.5 0 2.5 
z
" style="stroke: #d55e00"/>
    </defs>
    <g clip-path="url(#pe78c79a025)">
     <use xlink:href="#me53e26c882" x="39.048679" y="262.472088" style="fill: #d55e00; stroke: #d55e00"/>
     <use xlink:href="#me53e26c882" x="108.535472" y="228.989246" style="fill: #d55e00; stroke: #d55e00"/>
     <use xlink:href="#me53e26c882" x="178.022264" y="184.345457" style="fill: #d55e00; stroke: #d55e00"/>
     <use xlink:href="#me53e26c882" x="247.509057" y="134.121193" style="fill: #d55e00; stroke: #d55e00"/>
     <use xlink:href="#me53e26c882" x="316.995849" y="86.687167" style="fill: #d55e00; stroke: #d55e00"/>
    </g>
   </g>
   <g id="line2d_14">
    <path d="M 108.535472 228.989246 
L 108.535472 221.148039 
" clip-path="url(#pe78c79a025)" style="fill: none; stroke-dasharray: 2.4,2.4; stroke-dashoffset: 0; stroke: #0072b2; stroke-width: 1.2"/>
   </g>
   <g id="line2d_15">
    <path d="M 178.022264 184.345457 
L 178.022264 166.896026 
" clip-path="url(#pe78c79a025)" style="fill: none; stroke-dasharray: 2.4,2.4; stroke-dashoffset: 0; stroke: #0072b2; stroke-width: 1.2"/>
   </g>
   <g id="line2d_16">
    <path d="M 247.509057 134.121193 
L 247.509057 105.81009 
" clip-path="url(#pe78c79a025)" style="fill: none; stroke-dasharray: 2.4,2.4; stroke-dashoffset: 0; stroke: #0072b2; stroke-width: 1.2"/>
   </g>
   <g id="line2d_17">
    <path d="M 316.995849 86.687167 
L 316.995849 47.93761 
" clip-path="url(#pe78c79a025)" style="fill: none; stroke-dasharray: 2.4,2.4; stroke-dashoffset: 0; stroke: #0072b2; stroke-width: 1.2"/>
   </g>
  </g>
 </g>
 <defs>
  <clipPath id="pe78c79a025">
   <rect x="32.1" y="21.395625" width="368.28" height="254.4696"/>
  </clipPath>
 </defs>
</svg>
