<?xml version="1.0" encoding="utf-8" standalone="no"?>
<!DOCTYPE svg PUBLIC "-//W3C//DTD SVG 1.1//EN"
  "http://www.w3.org/Graphics/SVG/1.1/DTD/svg11.dtd">
<svg xmlns:xlink="http://www.w3.org/1999/xlink" width="416.2pt" height="301.251625pt" viewBox="0 0 416.2 301.251625" xmlns="http://www.w3.org/2000/svg" version="1.1">
 <metadata>
  <rdf:RDF xmlns:dc="http://purl.org/dc/elements/1.1/" xmlns:cc="http://creativecommons.org/ns#" xmlns:rdf="http://www.w3.org/1999/02/22-rdf-syntax-ns#">
   <cc:Work>
    <dc:type rdf:resource="http://purl.org/dc/dcmitype/StillImage"/>
    <dc:date>2026-07-17T17:26:28.151747</dc:date>
    <dc:format>image/svg+xml</dc:format>
    <dc:creator>
     <cc:Agent>
      <dc:title>Matplotlib v3.9.4, https://matplotlib.org/</dc:title>
     </cc:Agent>
    </dc:creator>
   </cc:Work>
  </rdf:RDF>
 </metadata>
 <defs>
  <style type="text/css">*{stroke-linejoin: round; stroke-linecap: butt}</style>
 </defs>
 <g id="figure_1">
  <g id="patch_1">
   <path d="M 0 301.251625 
L 416.2 301.251625 
L 416.2 0 
L 0 0 
z
" style="fill: #ffffff"/>
  </g>
  <g id="axes_1">
   <g id="patch_2">
    <path d="M 40.72 265.331625 
L 409 265.331625 
L 409 21.395625 
L 40.72 21.395625 
z
" style="fill: #ffffff"/>
   </g>
   <g id="matplotlib.axis_1">
    <g id="xtick_1">
     <g id="line2d_1">
      <defs>
       <path id="med1dd296b0" d="M 0 0 
L 0 3 
" style="stroke: #1f2328; stroke-width: 0.8"/>
      </defs>
      <g>
       <use xlink:href="#med1dd296b0" x="57.46" y="265.331625" style="fill: #1f2328; stroke: #1f2328; stroke-width: 0.8"/>
      </g>
     </g>
     <g id="text_1">
      <!-- 0 -->
      <g style="fill: #1f2328" transform="translate(55.21 277.978344) scale(0.09 -0.09)">
       <defs>
        <path id="STIXGeneral-Regular-30" d="M 3046 2112 
Q 3046 1683 2963 1302 
Q 2880 922 2717 602 
Q 2554 282 2266 96 
Q 1978 -90 1600 -90 
Q 1210 -90 915 108 
Q 621 307 461 640 
Q 301 973 227 1350 
Q 154 1728 154 2150 
Q 154 2746 301 3222 
Q 448 3699 790 4012 
Q 1133 4326 1626 4326 
Q 2253 4326 2649 3712 
Q 3046 3098 3046 2112 
z
M 2432 2080 
Q 2432 3091 2217 3625 
Q 2003 4160 1587 4160 
Q 1190 4160 979 3622 
Q 768 3085 768 2106 
Q 768 1120 979 598 
Q 1190 77 1600 77 
Q 2003 77 2217 598 
Q 2432 1120 2432 2080 
z
" transform="scale(0.015625)"/>
       </defs>
       <use xlink:href="#STIXGeneral-Regular-30"/>
      </g>
     </g>
    </g>
    <g id="xtick_2">
     <g id="line2d_2">
      <g>
       <use xlink:href="#med1dd296b0" x="99.31" y="265.331625" style="fill: #1f2328; stroke: #1f2328; stroke-width: 0.8"/>
      </g>
     </g>
     <g id="text_2">
      <!-- 5 -->
      <g style="fill: #1f2328" transform="translate(97.06 277.978344) scale(0.09 -0.09)">
       <defs>
        <path id="STIXGeneral-Regular-35" d="M 2803 4358 
L 2573 3814 
Q 2534 3731 2400 3731 
L 1158 3731 
L 902 3187 
Q 1606 3053 1920 2896 
Q 2234 2739 2502 2368 
Q 2726 2061 2726 1555 
Q 2726 1094 2576 780 
Q 2426 467 2099 224 
Q 1664 -90 1011 -90 
Q 646 -90 422 19 
Q 198 128 198 307 
Q 198 550 486 550 
Q 717 550 960 352 
Q 1210 147 1414 147 
Q 1747 147 2012 480 
Q 2278 813 2278 1229 
Q 2278 1843 1850 2189 
Q 1293 2637 486 2637 
Q 410 2637 410 2688 
L 416 2720 
L 1114 4237 
L 2438 4237 
Q 2547 4237 2608 4269 
Q 2669 4301 2746 4403 
L 2803 4358 
z
" transform="scale(0.015625)"/>
       </defs>
       <use xlink:href="#STIXGeneral-Regular-35"/>
      </g>
     </g>
    </g>
    <g id="xtick_3">
     <g id="line2d_3">
      <g>
       <use xlink:href="#med1dd296b0" x="141.16" y="265.331625" style="fill: #1f2328; stroke: #1f2328; stroke-width: 0.8"/>
      </g>
     </g>
     <g id="text_3">
      <!-- 10 -->
      <g style="fill: #1f2328" transform="translate(136.66 277.978344) scale(0.09 -0.09)">
       <defs>
        <path id="STIXGeneral-Regular-31" d="M 2522 0 
L 755 0 
L 755 96 
Q 1107 115 1235 227 
Q 1363 339 1363 608 
L 1363 3482 
Q 1363 3795 1171 3795 
Q 1082 3795 883 3718 
L 710 3654 
L 710 3744 
L 1856 4326 
L 1914 4307 
L 1914 486 
Q 1914 275 2042 185 
Q 2170 96 2522 96 
L 2522 0 
z
" transform="scale(0.015625)"/>
       </defs>
       <use xlink:href="#STIXGeneral-Regular-31"/>
       <use xlink:href="#STIXGeneral-Regular-30" x="49.999985"/>
      </g>
     </g>
    </g>
    <g id="xtick_4">
     <g id="line2d_4">
      <g>
       <use xlink:href="#med1dd296b0" x="183.01" y="265.331625" style="fill: #1f2328; stroke: #1f2328; stroke-width: 0.8"/>
      </g>
     </g>
     <g id="text_4">
      <!-- 15 -->
      <g style="fill: #1f2328" transform="translate(178.51 277.978344) scale(0.09 -0.09)">
       <use xlink:href="#STIXGeneral-Regular-31"/>
       <use xlink:href="#STIXGeneral-Regular-35" x="49.999985"/>
      </g>
     </g>
    </g>
    <g id="xtick_5">
     <g id="line2d_5">
      <g>
       <use xlink:href="#med1dd296b0" x="224.86" y="265.331625" style="fill: #1f2328; stroke: #1f2328; stroke-width: 0.8"/>
      </g>
     </g>
     <g id="text_5">
      <!-- 20 -->
      <g style="fill: #1f2328" transform="translate(220.36 277.978344) scale(0.09 -0.09)">
       <defs>
        <path id="STIXGeneral-Regular-32" d="M 3034 877 
L 2688 0 
L 186 0 
L 186 77 
L 1325 1286 
Q 1773 1754 1965 2144 
Q 2157 2534 2157 2950 
Q 2157 3379 1920 3616 
Q 1683 3853 1267 3853 
Q 922 3853 720 3673 
Q 518 3494 326 3021 
L 192 3053 
Q 301 3648 630 3987 
Q 960 4326 1523 4326 
Q 2054 4326 2380 4006 
Q 2707 3686 2707 3200 
Q 2707 2477 1888 1613 
L 832 486 
L 2330 486 
Q 2541 486 2665 569 
Q 2790 653 2944 915 
L 3034 877 
z
" transform="scale(0.015625)"/>
       </defs>
       <use xlink:href="#STIXGeneral-Regular-32"/>
       <use xlink:href="#STIXGeneral-Regular-30" x="49.999985"/>
      </g>
     </g>
    </g>
    <g id="xtick_6">
     <g id="line2d_6">
      <g>
       <use xlink:href="#med1dd296b0" x="266.71" y="265.331625" style="fill: #1f2328; stroke: #1f2328; stroke-width: 0.8"/>
      </g>
     </g>
     <g id="text_6">
      <!-- 25 -->
      <g style="fill: #1f2328" transform="translate(262.21 277.978344) scale(0.09 -0.09)">
       <use xlink:href="#STIXGeneral-Regular-32"/>
       <use xlink:href="#STIXGeneral-Regular-35" x="49.999985"/>
      </g>
     </g>
    </g>
    <g id="xtick_7">
     <g id="line2d_7">
      <g>
       <use xlink:href="#med1dd296b0" x="308.56" y="265.331625" style="fill: #1f2328; stroke: #1f2328; stroke-width: 0.8"/>
      </g>
     </g>
     <g id="text_7">
      <!-- 30 -->
      <g style="fill: #1f2328" transform="translate(304.06 277.978344) scale(0.09 -0.09)">
       <defs>
        <path id="STIXGeneral-Regular-33" d="M 390 3264 
L 288 3290 
Q 435 3770 748 4048 
Q 1062 4326 1542 4326 
Q 1990 4326 2265 4083 
Q 2541 3840 2541 3450 
Q 2541 2925 1946 2566 
Q 2298 2413 2477 2227 
Q 2758 1914 2758 1402 
Q 2758 890 2464 506 
Q 2246 211 1840 60 
Q 1434 -90 979 -90 
Q 262 -90 262 275 
Q 262 378 339 442 
Q 416 506 525 506 
Q 685 506 915 339 
Q 1197 141 1466 141 
Q 1818 141 2058 425 
Q 2298 710 2298 1120 
Q 2298 1856 1632 2048 
Q 1434 2112 979 2112 
L 979 2202 
Q 1338 2323 1517 2432 
Q 2035 2726 2035 3290 
Q 2035 3610 1852 3776 
Q 1670 3942 1344 3942 
Q 768 3942 390 3264 
z
" transform="scale(0.015625)"/>
       </defs>
       <use xlink:href="#STIXGeneral-Regular-33"/>
       <use xlink:href="#STIXGeneral-Regular-30" x="49.999985"/>
      </g>
     </g>
    </g>
    <g id="xtick_8">
     <g id="line2d_8">
      <g>
       <use xlink:href="#med1dd296b0" x="350.41" y="265.331625" style="fill: #1f2328; stroke: #1f2328; stroke-width: 0.8"/>
      </g>
     </g>
     <g id="text_8">
      <!-- 35 -->
      <g style="fill: #1f2328" transform="translate(345.91 277.978344) scale(0.09 -0.09)">
       <use xlink:href="#STIXGeneral-Regular-33"/>
       <use xlink:href="#STIXGeneral-Regular-35" x="49.999985"/>
      </g>
     </g>
    </g>
    <g id="xtick_9">
     <g id="line2d_9">
      <g>
       <use xlink:href="#med1dd296b0" x="392.26" y="265.331625" style="fill: #1f2328; stroke: #1f2328; stroke-width: 0.8"/>
      </g>
     </g>
     <g id="text_9">
      <!-- 40 -->
      <g style="fill: #1f2328" transform="translate(387.76 277.978344) scale(0.09 -0.09)">
       <defs>
        <path id="STIXGeneral-Regular-34" d="M 3027 1069 
L 2368 1069 
L 2368 0 
L 1869 0 
L 1869 1069 
L 77 1069 
L 77 1478 
L 2086 4326 
L 2368 4326 
L 2368 1478 
L 3027 1478 
L 3027 1069 
z
M 1869 1478 
L 1869 3674 
L 333 1478 
L 1869 1478 
z
" transform="scale(0.015625)"/>
       </defs>
       <use xlink:href="#STIXGeneral-Regular-34"/>
       <use xlink:href="#STIXGeneral-Regular-30" x="49.999985"/>
      </g>
     </g>
    </g>
    <g id="text_10">
     <!-- number of right-hand sides $k$ -->
     <g transform="translate(161.17 291.631625) scale(0.11 -0.11)">
      <defs>
       <path id="STIXGeneral-Regular-6e" d="M 3104 0 
L 1773 0 
L 1779 96 
Q 2016 115 2096 233 
Q 2176 352 2176 672 
L 2176 1946 
Q 2176 2592 1709 2592 
Q 1549 2592 1408 2515 
Q 1267 2438 1050 2227 
L 1050 461 
Q 1050 269 1136 192 
Q 1222 115 1466 96 
L 1466 0 
L 115 0 
L 115 96 
Q 358 115 435 214 
Q 512 314 512 602 
L 512 2157 
Q 512 2394 467 2483 
Q 422 2573 288 2573 
Q 160 2573 102 2547 
L 102 2656 
Q 550 2784 979 2944 
L 1030 2925 
L 1030 2426 
L 1037 2426 
Q 1491 2944 1958 2944 
Q 2323 2944 2518 2688 
Q 2714 2432 2714 1958 
L 2714 544 
Q 2714 288 2790 205 
Q 2867 122 3104 96 
L 3104 0 
z
" transform="scale(0.015625)"/>
       <path id="STIXGeneral-Regular-75" d="M 3072 320 
L 3072 230 
Q 2573 96 2195 -58 
L 2163 -38 
L 2163 486 
L 2150 486 
Q 1747 -64 1235 -64 
Q 870 -64 662 160 
Q 454 384 454 755 
L 454 2362 
Q 454 2598 371 2688 
Q 288 2778 58 2790 
L 58 2880 
L 992 2880 
L 992 813 
Q 992 595 1123 451 
Q 1254 307 1446 307 
Q 1760 307 1984 506 
Q 2067 582 2099 649 
Q 2131 717 2131 877 
L 2131 2355 
Q 2131 2605 2041 2678 
Q 1952 2752 1658 2771 
L 1658 2880 
L 2669 2880 
L 2669 685 
Q 2669 461 2742 390 
Q 2816 320 3034 320 
L 3072 320 
z
" transform="scale(0.015625)"/>
       <path id="STIXGeneral-Regular-6d" d="M 4960 0 
L 3565 0 
L 3565 96 
Q 3834 122 3907 208 
Q 3981 294 3981 576 
L 3981 1894 
Q 3981 2278 3869 2444 
Q 3757 2611 3488 2611 
Q 3264 2611 3107 2521 
Q 2950 2432 2803 2221 
L 2803 608 
Q 2803 301 2896 201 
Q 2989 102 3264 96 
L 3264 0 
L 1830 0 
L 1830 96 
Q 2112 115 2189 188 
Q 2266 262 2266 550 
L 2266 1901 
Q 2266 2611 1850 2611 
Q 1670 2611 1468 2531 
Q 1267 2451 1171 2336 
Q 1088 2240 1088 2227 
L 1088 448 
Q 1088 243 1177 176 
Q 1267 109 1523 96 
L 1523 0 
L 102 0 
L 102 96 
Q 371 102 460 195 
Q 550 288 550 563 
L 550 2150 
Q 550 2387 499 2480 
Q 448 2573 326 2573 
Q 230 2573 122 2547 
L 122 2656 
Q 557 2778 1011 2944 
L 1062 2925 
L 1062 2451 
L 1075 2451 
Q 1363 2752 1584 2848 
Q 1805 2944 2054 2944 
Q 2560 2944 2733 2406 
Q 3232 2944 3776 2944 
Q 4518 2944 4518 1792 
L 4518 493 
Q 4518 282 4582 202 
Q 4646 122 4794 109 
L 4960 96 
L 4960 0 
z
" transform="scale(0.015625)"/>
       <path id="STIXGeneral-Regular-62" d="M 979 4358 
L 979 2406 
Q 1082 2650 1315 2797 
Q 1549 2944 1843 2944 
Q 2349 2944 2672 2541 
Q 2995 2138 2995 1536 
Q 2995 832 2566 384 
Q 2138 -64 1498 -64 
Q 1107 -64 774 67 
Q 442 198 442 358 
L 442 3622 
Q 442 3859 384 3926 
Q 326 3994 128 3994 
Q 83 3994 19 3981 
L 19 4090 
L 211 4147 
Q 864 4346 947 4371 
L 979 4358 
z
M 979 2035 
L 979 474 
Q 979 326 1161 233 
Q 1344 141 1600 141 
Q 1978 141 2195 416 
Q 2432 710 2432 1261 
Q 2432 1888 2182 2240 
Q 1971 2541 1613 2541 
Q 1357 2541 1168 2390 
Q 979 2240 979 2035 
z
" transform="scale(0.015625)"/>
       <path id="STIXGeneral-Regular-65" d="M 2611 1050 
L 2714 1005 
Q 2330 -64 1376 -64 
Q 813 -64 486 329 
Q 160 723 160 1389 
Q 160 2074 525 2509 
Q 890 2944 1485 2944 
Q 2061 2944 2374 2502 
Q 2560 2246 2592 1773 
L 621 1773 
Q 646 1370 700 1158 
Q 755 947 915 730 
Q 1184 378 1626 378 
Q 1939 378 2153 531 
Q 2368 685 2611 1050 
z
M 634 1978 
L 1939 1978 
Q 1882 2381 1750 2547 
Q 1619 2714 1312 2714 
Q 1043 2714 864 2525 
Q 685 2336 634 1978 
z
" transform="scale(0.015625)"/>
       <path id="STIXGeneral-Regular-72" d="M 1024 2931 
L 1024 2342 
Q 1267 2688 1430 2816 
Q 1594 2944 1792 2944 
Q 1958 2944 2051 2854 
Q 2144 2765 2144 2605 
Q 2144 2470 2077 2393 
Q 2010 2317 1894 2317 
Q 1773 2317 1638 2445 
Q 1536 2541 1472 2541 
Q 1338 2541 1181 2355 
Q 1024 2170 1024 2016 
L 1024 576 
Q 1024 301 1133 205 
Q 1242 109 1568 96 
L 1568 0 
L 32 0 
L 32 96 
Q 339 154 412 224 
Q 486 294 486 538 
L 486 2138 
Q 486 2349 438 2435 
Q 390 2522 269 2522 
Q 166 2522 45 2496 
L 45 2598 
Q 448 2726 992 2944 
L 1024 2931 
z
" transform="scale(0.015625)"/>
       <path id="STIXGeneral-Regular-20" transform="scale(0.015625)"/>
       <path id="STIXGeneral-Regular-6f" d="M 3008 1478 
Q 3008 806 2608 371 
Q 2208 -64 1568 -64 
Q 979 -64 582 368 
Q 186 800 186 1459 
Q 186 2125 582 2534 
Q 979 2944 1626 2944 
Q 2221 2944 2614 2537 
Q 3008 2131 3008 1478 
z
M 2432 1306 
Q 2432 2035 2112 2445 
Q 1856 2765 1504 2765 
Q 1171 2765 966 2493 
Q 762 2221 762 1747 
Q 762 928 1101 435 
Q 1318 115 1677 115 
Q 2029 115 2230 432 
Q 2432 749 2432 1306 
z
" transform="scale(0.015625)"/>
       <path id="STIXGeneral-Regular-66" d="M 134 2880 
L 659 2880 
Q 666 3264 710 3478 
Q 755 3693 883 3910 
Q 1152 4371 1786 4371 
Q 2074 4371 2262 4259 
Q 2451 4147 2451 3974 
Q 2451 3866 2374 3789 
Q 2298 3712 2182 3712 
Q 2029 3712 1894 3942 
Q 1741 4192 1555 4192 
Q 1197 4192 1197 3622 
L 1197 2880 
L 1978 2880 
L 1978 2675 
L 1197 2675 
L 1197 666 
Q 1197 307 1299 208 
Q 1402 109 1792 96 
L 1792 0 
L 128 0 
L 128 96 
Q 474 115 566 214 
Q 659 314 659 666 
L 659 2675 
L 134 2675 
L 134 2880 
z
" transform="scale(0.015625)"/>
       <path id="STIXGeneral-Regular-69" d="M 1152 4045 
Q 1152 3904 1056 3811 
Q 960 3718 819 3718 
Q 685 3718 592 3811 
Q 499 3904 499 4045 
Q 499 4179 595 4275 
Q 691 4371 826 4371 
Q 966 4371 1059 4275 
Q 1152 4179 1152 4045 
z
M 1619 0 
L 102 0 
L 102 96 
Q 435 115 521 211 
Q 608 307 608 666 
L 608 2118 
Q 608 2342 563 2432 
Q 518 2522 397 2522 
Q 243 2522 128 2490 
L 128 2592 
L 1120 2944 
L 1146 2918 
L 1146 672 
Q 1146 314 1226 218 
Q 1306 122 1619 96 
L 1619 0 
z
" transform="scale(0.015625)"/>
       <path id="STIXGeneral-Regular-67" d="M 3008 2483 
L 2477 2483 
Q 2598 2208 2598 1946 
Q 2598 1453 2265 1203 
Q 1933 954 1600 954 
Q 1530 954 1357 973 
L 1235 986 
Q 1107 947 979 812 
Q 851 678 851 582 
Q 851 435 1350 410 
L 2176 371 
Q 2528 358 2739 172 
Q 2950 -13 2950 -314 
Q 2950 -685 2566 -986 
Q 2035 -1395 1286 -1395 
Q 826 -1395 502 -1212 
Q 179 -1030 179 -774 
Q 179 -595 320 -419 
Q 461 -243 806 6 
Q 602 102 534 172 
Q 467 243 467 346 
Q 467 531 762 787 
Q 909 915 1037 1043 
Q 717 1203 579 1401 
Q 442 1600 442 1901 
Q 442 2336 752 2640 
Q 1062 2944 1510 2944 
Q 1766 2944 2022 2848 
L 2163 2797 
Q 2349 2733 2515 2733 
L 3008 2733 
L 3008 2483 
z
M 973 2163 
L 973 2144 
Q 973 1683 1155 1398 
Q 1338 1114 1632 1114 
Q 1850 1114 1978 1270 
Q 2106 1427 2106 1690 
Q 2106 2112 1914 2464 
Q 1754 2765 1446 2765 
Q 1222 2765 1097 2605 
Q 973 2445 973 2163 
z
M 2771 -410 
Q 2771 -230 2595 -163 
Q 2419 -96 1978 -96 
Q 1344 -96 941 -13 
Q 749 -243 688 -348 
Q 627 -454 627 -563 
Q 627 -774 880 -902 
Q 1133 -1030 1555 -1030 
Q 2099 -1030 2435 -860 
Q 2771 -691 2771 -410 
z
" transform="scale(0.015625)"/>
       <path id="STIXGeneral-Regular-68" d="M 3117 0 
L 1760 0 
L 1760 96 
Q 2042 128 2118 224 
Q 2195 320 2195 653 
L 2195 1920 
Q 2195 2598 1722 2598 
Q 1530 2598 1370 2508 
Q 1210 2419 1005 2195 
L 1005 653 
Q 1005 320 1081 224 
Q 1158 128 1440 96 
L 1440 0 
L 58 0 
L 58 96 
Q 333 134 400 224 
Q 467 314 467 653 
L 467 3667 
Q 467 3872 406 3933 
Q 346 3994 141 3994 
Q 83 3994 64 3987 
L 64 4090 
L 237 4141 
Q 730 4288 973 4371 
L 1005 4352 
L 1005 2406 
Q 1229 2694 1446 2819 
Q 1664 2944 1946 2944 
Q 2733 2944 2733 1926 
L 2733 653 
Q 2733 320 2793 233 
Q 2854 147 3117 96 
L 3117 0 
z
" transform="scale(0.015625)"/>
       <path id="STIXGeneral-Regular-74" d="M 1702 493 
L 1786 422 
Q 1478 -64 1011 -64 
Q 448 -64 448 749 
L 448 2675 
L 109 2675 
Q 83 2694 83 2720 
Q 83 2771 192 2842 
Q 435 2982 813 3526 
Q 826 3546 874 3606 
Q 922 3667 941 3706 
Q 986 3706 986 3622 
L 986 2880 
L 1632 2880 
L 1632 2675 
L 986 2675 
L 986 845 
Q 986 538 1062 403 
Q 1139 269 1318 269 
Q 1510 269 1702 493 
z
" transform="scale(0.015625)"/>
       <path id="STIXGeneral-Regular-2d" d="M 1824 1242 
L 250 1242 
L 250 1645 
L 1824 1645 
L 1824 1242 
z
" transform="scale(0.015625)"/>
       <path id="STIXGeneral-Regular-61" d="M 2829 422 
L 2829 243 
Q 2586 -64 2253 -64 
Q 1888 -64 1843 403 
L 1837 403 
Q 1427 -64 909 -64 
Q 608 -64 422 112 
Q 237 288 237 602 
Q 237 1050 685 1350 
Q 992 1555 1837 1869 
L 1837 2214 
Q 1837 2502 1699 2646 
Q 1562 2790 1338 2790 
Q 1146 2790 1018 2697 
Q 890 2605 890 2477 
Q 890 2419 909 2348 
Q 928 2278 928 2208 
Q 928 2112 841 2029 
Q 755 1946 634 1946 
Q 525 1946 441 2029 
Q 358 2112 358 2240 
Q 358 2547 685 2752 
Q 986 2944 1421 2944 
Q 1939 2944 2176 2656 
Q 2291 2522 2323 2384 
Q 2355 2246 2355 1946 
L 2355 723 
Q 2355 301 2554 301 
Q 2682 301 2829 422 
z
M 1837 813 
L 1837 1715 
Q 1248 1510 1018 1293 
Q 800 1094 800 800 
Q 800 557 921 432 
Q 1043 307 1242 307 
Q 1453 307 1613 410 
Q 1747 506 1792 589 
Q 1837 672 1837 813 
z
" transform="scale(0.015625)"/>
       <path id="STIXGeneral-Regular-64" d="M 3142 269 
L 2202 -64 
L 2176 -45 
L 2176 365 
Q 1869 -64 1357 -64 
Q 826 -64 499 317 
Q 173 698 173 1312 
Q 173 1990 563 2467 
Q 954 2944 1504 2944 
Q 1850 2944 2176 2669 
L 2176 3667 
Q 2176 3866 2118 3930 
Q 2061 3994 1882 3994 
Q 1792 3994 1741 3987 
L 1741 4090 
Q 2323 4243 2682 4371 
L 2714 4358 
L 2714 730 
Q 2714 506 2768 435 
Q 2822 365 2995 365 
Q 3034 365 3142 371 
L 3142 269 
z
M 2176 653 
L 2176 2125 
Q 2176 2381 1981 2573 
Q 1786 2765 1523 2765 
Q 1158 2765 940 2438 
Q 723 2112 723 1568 
Q 723 979 963 624 
Q 1203 269 1606 269 
Q 1907 269 2080 474 
Q 2176 582 2176 653 
z
" transform="scale(0.015625)"/>
       <path id="STIXGeneral-Regular-73" d="M 998 1926 
L 1664 1523 
Q 1984 1331 2105 1164 
Q 2227 998 2227 736 
Q 2227 416 1961 176 
Q 1696 -64 1331 -64 
Q 1030 -64 864 -6 
Q 691 51 570 51 
Q 461 51 416 -26 
L 333 -26 
L 333 979 
L 435 979 
Q 538 512 730 294 
Q 922 77 1248 77 
Q 1485 77 1632 211 
Q 1779 346 1779 550 
Q 1779 845 1440 1030 
L 1094 1222 
Q 326 1651 326 2150 
Q 326 2522 566 2730 
Q 806 2938 1210 2938 
Q 1491 2938 1638 2867 
Q 1754 2816 1818 2816 
Q 1862 2816 1920 2880 
L 1990 2880 
L 2022 2010 
L 1926 2010 
Q 1818 2445 1654 2621 
Q 1491 2797 1203 2797 
Q 986 2797 854 2688 
Q 723 2579 723 2362 
Q 723 2253 796 2128 
Q 870 2003 998 1926 
z
" transform="scale(0.015625)"/>
       <path id="Cmmi10-6b" d="M 341 116 
Q 341 153 347 172 
L 1275 3872 
Q 1300 3981 1306 4044 
Q 1306 4147 891 4147 
Q 825 4147 825 4231 
Q 828 4247 839 4287 
Q 850 4328 867 4350 
Q 884 4372 916 4372 
L 1778 4441 
L 1797 4441 
Q 1797 4434 1819 4423 
Q 1841 4413 1844 4409 
Q 1856 4378 1856 4359 
L 1184 1684 
Q 1416 1781 1767 2145 
Q 2119 2509 2317 2668 
Q 2516 2828 2816 2828 
Q 2994 2828 3119 2706 
Q 3244 2584 3244 2406 
Q 3244 2294 3197 2198 
Q 3150 2103 3065 2043 
Q 2981 1984 2869 1984 
Q 2766 1984 2695 2048 
Q 2625 2113 2625 2216 
Q 2625 2369 2733 2473 
Q 2841 2578 2994 2578 
Q 2931 2663 2803 2663 
Q 2613 2663 2436 2553 
Q 2259 2444 2054 2239 
Q 1850 2034 1681 1864 
Q 1513 1694 1369 1606 
Q 1747 1563 2025 1408 
Q 2303 1253 2303 934 
Q 2303 869 2278 769 
Q 2222 528 2222 384 
Q 2222 97 2419 97 
Q 2650 97 2770 350 
Q 2891 603 2969 941 
Q 2981 978 3022 978 
L 3097 978 
Q 3122 978 3139 962 
Q 3156 947 3156 922 
Q 3156 916 3150 903 
Q 2909 -72 2406 -72 
Q 2225 -72 2086 12 
Q 1947 97 1872 242 
Q 1797 388 1797 569 
Q 1797 672 1825 781 
Q 1844 856 1844 922 
Q 1844 1169 1625 1297 
Q 1406 1425 1125 1453 
L 800 147 
Q 775 50 703 -11 
Q 631 -72 538 -72 
Q 456 -72 398 -17 
Q 341 38 341 116 
z
" transform="scale(0.015625)"/>
      </defs>
      <use xlink:href="#STIXGeneral-Regular-6e" transform="translate(0 0.609375)"/>
      <use xlink:href="#STIXGeneral-Regular-75" transform="translate(49.999985 0.609375)"/>
      <use xlink:href="#STIXGeneral-Regular-6d" transform="translate(99.999969 0.609375)"/>
      <use xlink:href="#STIXGeneral-Regular-62" transform="translate(177.799957 0.609375)"/>
      <use xlink:href="#STIXGeneral-Regular-65" transform="translate(227.799942 0.609375)"/>
      <use xlink:href="#STIXGeneral-Regular-72" transform="translate(272.199936 0.609375)"/>
      <use xlink:href="#STIXGeneral-Regular-20" transform="translate(305.499924 0.609375)"/>
      <use xlink:href="#STIXGeneral-Regular-6f" transform="translate(330.499908 0.609375)"/>
      <use xlink:href="#STIXGeneral-Regular-66" transform="translate(380.499893 0.609375)"/>
      <use xlink:href="#STIXGeneral-Regular-20" transform="translate(413.799881 0.609375)"/>
      <use xlink:href="#STIXGeneral-Regular-72" transform="translate(438.799866 0.609375)"/>
      <use xlink:href="#STIXGeneral-Regular-69" transform="translate(472.099854 0.609375)"/>
      <use xlink:href="#STIXGeneral-Regular-67" transform="translate(499.899841 0.609375)"/>
      <use xlink:href="#STIXGeneral-Regular-68" transform="translate(549.899826 0.609375)"/>
      <use xlink:href="#STIXGeneral-Regular-74" transform="translate(599.899811 0.609375)"/>
      <use xlink:href="#STIXGeneral-Regular-2d" transform="translate(627.699799 0.609375)"/>
      <use xlink:href="#STIXGeneral-Regular-68" transform="translate(660.999786 0.609375)"/>
      <use xlink:href="#STIXGeneral-Regular-61" transform="translate(710.999771 0.609375)"/>
      <use xlink:href="#STIXGeneral-Regular-6e" transform="translate(755.399765 0.609375)"/>
      <use xlink:href="#STIXGeneral-Regular-64" transform="translate(805.39975 0.609375)"/>
      <use xlink:href="#STIXGeneral-Regular-20" transform="translate(855.399734 0.609375)"/>
      <use xlink:href="#STIXGeneral-Regular-73" transform="translate(880.399719 0.609375)"/>
      <use xlink:href="#STIXGeneral-Regular-69" transform="translate(919.299713 0.609375)"/>
      <use xlink:href="#STIXGeneral-Regular-64" transform="translate(947.099701 0.609375)"/>
      <use xlink:href="#STIXGeneral-Regular-65" transform="translate(997.099686 0.609375)"/>
      <use xlink:href="#STIXGeneral-Regular-73" transform="translate(1041.49968 0.609375)"/>
      <use xlink:href="#STIXGeneral-Regular-20" transform="translate(1080.399673 0.609375)"/>
      <use xlink:href="#Cmmi10-6b" transform="translate(1105.399658 0.609375)"/>
     </g>
    </g>
   </g>
   <g id="matplotlib.axis_2">
    <g id="ytick_1">
     <g id="line2d_10">
      <defs>
       <path id="m15eb08acab" d="M 0 0 
L -3 0 
" style="stroke: #1f2328; stroke-width: 0.8"/>
      </defs>
      <g>
       <use xlink:href="#m15eb08acab" x="40.72" y="254.243625" style="fill: #1f2328; stroke: #1f2328; stroke-width: 0.8"/>
      </g>
     </g>
     <g id="text_11">
      <!-- 0.0 -->
      <g style="fill: #1f2328" transform="translate(22.97 257.316984) scale(0.09 -0.09)">
       <defs>
        <path id="STIXGeneral-Regular-2e" d="M 1158 275 
Q 1158 134 1052 32 
Q 947 -70 800 -70 
Q 653 -70 550 32 
Q 448 134 448 281 
Q 448 429 553 534 
Q 659 640 806 640 
Q 947 640 1052 531 
Q 1158 422 1158 275 
z
" transform="scale(0.015625)"/>
       </defs>
       <use xlink:href="#STIXGeneral-Regular-30"/>
       <use xlink:href="#STIXGeneral-Regular-2e" x="49.999985"/>
       <use xlink:href="#STIXGeneral-Regular-30" x="74.999969"/>
      </g>
     </g>
    </g>
    <g id="ytick_2">
     <g id="line2d_11">
      <g>
       <use xlink:href="#m15eb08acab" x="40.72" y="220.979625" style="fill: #1f2328; stroke: #1f2328; stroke-width: 0.8"/>
      </g>
     </g>
     <g id="text_12">
      <!-- 0.5 -->
      <g style="fill: #1f2328" transform="translate(22.97 224.052984) scale(0.09 -0.09)">
       <use xlink:href="#STIXGeneral-Regular-30"/>
       <use xlink:href="#STIXGeneral-Regular-2e" x="49.999985"/>
       <use xlink:href="#STIXGeneral-Regular-35" x="74.999969"/>
      </g>
     </g>
    </g>
    <g id="ytick_3">
     <g id="line2d_12">
      <g>
       <use xlink:href="#m15eb08acab" x="40.72" y="187.715625" style="fill: #1f2328; stroke: #1f2328; stroke-width: 0.8"/>
      </g>
     </g>
     <g id="text_13">
      <!-- 1.0 -->
      <g style="fill: #1f2328" transform="translate(22.97 190.788984) scale(0.09 -0.09)">
       <use xlink:href="#STIXGeneral-Regular-31"/>
       <use xlink:href="#STIXGeneral-Regular-2e" x="49.999985"/>
       <use xlink:href="#STIXGeneral-Regular-30" x="74.999969"/>
      </g>
     </g>
    </g>
    <g id="ytick_4">
     <g id="line2d_13">
      <g>
       <use xlink:href="#m15eb08acab" x="40.72" y="154.451625" style="fill: #1f2328; stroke: #1f2328; stroke-width: 0.8"/>
      </g>
     </g>
     <g id="text_14">
      <!-- 1.5 -->
      <g style="fill: #1f2328" transform="translate(22.97 157.524984) scale(0.09 -0.09)">
       <use xlink:href="#STIXGeneral-Regular-31"/>
       <use xlink:href="#STIXGeneral-Regular-2e" x="49.999985"/>
       <use xlink:href="#STIXGeneral-Regular-35" x="74.999969"/>
      </g>
     </g>
    </g>
    <g id="ytick_5">
     <g id="line2d_14">
      <g>
       <use xlink:href="#m15eb08acab" x="40.72" y="121.187625" style="fill: #1f2328; stroke: #1f2328; stroke-width: 0.8"/>
      </g>
     </g>
     <g id="text_15">
      <!-- 2.0 -->
      <g style="fill: #1f2328" transform="translate(22.97 124.260984) scale(0.09 -0.09)">
       <use xlink:href="#STIXGeneral-Regular-32"/>
       <use xlink:href="#STIXGeneral-Regular-2e" x="49.999985"/>
       <use xlink:href="#STIXGeneral-Regular-30" x="74.999969"/>
      </g>
     </g>
    </g>
    <g id="ytick_6">
     <g id="line2d_15">
      <g>
       <use xlink:href="#m15eb08acab" x="40.72" y="87.923625" style="fill: #1f2328; stroke: #1f2328; stroke-width: 0.8"/>
      </g>
     </g>
     <g id="text_16">
      <!-- 2.5 -->
      <g style="fill: #1f2328" transform="translate(22.97 90.996984) scale(0.09 -0.09)">
       <use xlink:href="#STIXGeneral-Regular-32"/>
       <use xlink:href="#STIXGeneral-Regular-2e" x="49.999985"/>
       <use xlink:href="#STIXGeneral-Regular-35" x="74.999969"/>
      </g>
     </g>
    </g>
    <g id="ytick_7">
     <g id="line2d_16">
      <g>
       <use xlink:href="#m15eb08acab" x="40.72" y="54.659625" style="fill: #1f2328; stroke: #1f2328; stroke-width: 0.8"/>
      </g>
     </g>
     <g id="text_17">
      <!-- 3.0 -->
      <g style="fill: #1f2328" transform="translate(22.97 57.732984) scale(0.09 -0.09)">
       <use xlink:href="#STIXGeneral-Regular-33"/>
       <use xlink:href="#STIXGeneral-Regular-2e" x="49.999985"/>
       <use xlink:href="#STIXGeneral-Regular-30" x="74.999969"/>
      </g>
     </g>
    </g>
    <g id="ytick_8">
     <g id="line2d_17">
      <g>
       <use xlink:href="#m15eb08acab" x="40.72" y="21.395625" style="fill: #1f2328; stroke: #1f2328; stroke-width: 0.8"/>
      </g>
     </g>
     <g id="text_18">
      <!-- 3.5 -->
      <g style="fill: #1f2328" transform="translate(22.97 24.468984) scale(0.09 -0.09)">
       <use xlink:href="#STIXGeneral-Regular-33"/>
       <use xlink:href="#STIXGeneral-Regular-2e" x="49.999985"/>
       <use xlink:href="#STIXGeneral-Regular-35" x="74.999969"/>
      </g>
     </g>
    </g>
    <g id="text_19">
     <!-- total flops  ($\times 10^9$) -->
     <g transform="translate(16.55 184.228625) rotate(-90) scale(0.11 -0.11)">
      <defs>
       <path id="STIXGeneral-Regular-6c" d="M 1645 0 
L 134 0 
L 134 96 
Q 435 122 531 221 
Q 627 320 627 589 
L 627 3590 
Q 627 3821 569 3910 
Q 512 4000 358 4000 
Q 224 4000 122 3987 
L 122 4090 
Q 730 4237 1133 4371 
L 1165 4346 
L 1165 557 
Q 1165 288 1254 201 
Q 1344 115 1645 96 
L 1645 0 
z
" transform="scale(0.015625)"/>
       <path id="STIXGeneral-Regular-70" d="M 1018 2931 
L 1018 2438 
Q 1421 2944 1939 2944 
Q 2406 2944 2707 2560 
Q 3008 2176 3008 1581 
Q 3008 883 2621 409 
Q 2234 -64 1664 -64 
Q 1466 -64 1328 -6 
Q 1190 51 1018 211 
L 1018 -794 
Q 1018 -1094 1120 -1180 
Q 1222 -1267 1581 -1274 
L 1581 -1389 
L 32 -1389 
L 32 -1280 
Q 314 -1254 397 -1171 
Q 480 -1088 480 -838 
L 480 2157 
Q 480 2381 429 2451 
Q 378 2522 218 2522 
Q 115 2522 58 2515 
L 58 2618 
Q 506 2752 979 2944 
L 1018 2931 
z
M 1018 2138 
L 1018 563 
Q 1018 422 1238 281 
Q 1459 141 1683 141 
Q 2029 141 2243 467 
Q 2458 794 2458 1325 
Q 2458 1888 2243 2224 
Q 2029 2560 1670 2560 
Q 1446 2560 1232 2419 
Q 1018 2278 1018 2138 
z
" transform="scale(0.015625)"/>
       <path id="STIXGeneral-Regular-28" d="M 1946 -1030 
L 1869 -1133 
Q 1126 -710 716 32 
Q 307 774 307 1613 
Q 307 3386 1888 4326 
L 1946 4224 
Q 1293 3667 1075 3126 
Q 858 2586 858 1632 
Q 858 685 1082 96 
Q 1306 -493 1946 -1030 
z
" transform="scale(0.015625)"/>
       <path id="Cmsy10-a3" d="M 941 184 
Q 941 234 972 275 
L 2303 1600 
L 972 2931 
Q 941 2963 941 3016 
Q 941 3063 978 3103 
Q 1016 3144 1069 3144 
Q 1113 3144 1166 3103 
L 2491 1778 
L 3809 3103 
Q 3863 3144 3903 3144 
Q 3956 3144 3993 3106 
Q 4031 3069 4031 3016 
Q 4031 2963 4000 2931 
L 2669 1600 
L 4000 275 
Q 4031 234 4031 184 
Q 4031 131 3993 93 
Q 3956 56 3903 56 
Q 3856 56 3809 103 
L 2491 1422 
L 1166 103 
Q 1119 56 1069 56 
Q 1016 56 978 97 
Q 941 138 941 184 
z
" transform="scale(0.015625)"/>
       <path id="Cmr10-31" d="M 594 0 
L 594 225 
Q 1394 225 1394 428 
L 1394 3788 
Q 1063 3628 556 3628 
L 556 3853 
Q 1341 3853 1741 4263 
L 1831 4263 
Q 1853 4263 1873 4245 
Q 1894 4228 1894 4206 
L 1894 428 
Q 1894 225 2694 225 
L 2694 0 
L 594 0 
z
" transform="scale(0.015625)"/>
       <path id="Cmr10-30" d="M 1600 -141 
Q 816 -141 533 504 
Q 250 1150 250 2041 
Q 250 2597 351 3087 
Q 453 3578 754 3920 
Q 1056 4263 1600 4263 
Q 2022 4263 2290 4056 
Q 2559 3850 2700 3523 
Q 2841 3197 2892 2823 
Q 2944 2450 2944 2041 
Q 2944 1491 2842 1011 
Q 2741 531 2444 195 
Q 2147 -141 1600 -141 
z
M 1600 25 
Q 1956 25 2131 390 
Q 2306 756 2347 1200 
Q 2388 1644 2388 2144 
Q 2388 2625 2347 3031 
Q 2306 3438 2132 3767 
Q 1959 4097 1600 4097 
Q 1238 4097 1063 3765 
Q 888 3434 847 3029 
Q 806 2625 806 2144 
Q 806 1788 823 1472 
Q 841 1156 916 820 
Q 991 484 1158 254 
Q 1325 25 1600 25 
z
" transform="scale(0.015625)"/>
       <path id="Cmr10-39" d="M 722 269 
Q 897 63 1331 63 
Q 1575 63 1786 228 
Q 1997 394 2113 634 
Q 2247 906 2284 1214 
Q 2322 1522 2322 1978 
Q 2213 1719 2008 1553 
Q 1803 1388 1538 1388 
Q 1166 1388 873 1589 
Q 581 1791 425 2120 
Q 269 2450 269 2822 
Q 269 3206 444 3539 
Q 619 3872 928 4067 
Q 1238 4263 1631 4263 
Q 2019 4263 2280 4052 
Q 2541 3841 2678 3508 
Q 2816 3175 2870 2803 
Q 2925 2431 2925 2069 
Q 2925 1575 2744 1061 
Q 2563 547 2202 203 
Q 1841 -141 1331 -141 
Q 953 -141 690 37 
Q 428 216 428 575 
Q 428 706 517 795 
Q 606 884 738 884 
Q 866 884 955 795 
Q 1044 706 1044 575 
Q 1044 450 953 359 
Q 863 269 738 269 
L 722 269 
z
M 1563 1556 
Q 1825 1556 1992 1732 
Q 2159 1909 2234 2171 
Q 2309 2434 2309 2694 
L 2309 2816 
L 2309 2841 
Q 2309 3322 2168 3700 
Q 2028 4078 1631 4078 
Q 1378 4078 1220 3967 
Q 1063 3856 988 3672 
Q 913 3488 892 3278 
Q 872 3069 872 2822 
Q 872 2459 906 2203 
Q 941 1947 1094 1751 
Q 1247 1556 1563 1556 
z
" transform="scale(0.015625)"/>
       <path id="STIXGeneral-Regular-29" d="M 186 4224 
L 262 4326 
Q 992 3891 1408 3148 
Q 1824 2406 1824 1581 
Q 1824 -166 243 -1133 
L 186 -1030 
Q 845 -486 1059 54 
Q 1274 595 1274 1562 
Q 1274 2534 1059 3120 
Q 845 3706 186 4224 
z
" transform="scale(0.015625)"/>
      </defs>
      <use xlink:href="#STIXGeneral-Regular-74" transform="translate(0 0.109375)"/>
      <use xlink:href="#STIXGeneral-Regular-6f" transform="translate(27.799988 0.109375)"/>
      <use xlink:href="#STIXGeneral-Regular-74" transform="translate(77.799973 0.109375)"/>
      <use xlink:href="#STIXGeneral-Regular-61" transform="translate(105.59996 0.109375)"/>
      <use xlink:href="#STIXGeneral-Regular-6c" transform="translate(149.999954 0.109375)"/>
      <use xlink:href="#STIXGeneral-Regular-20" transform="translate(177.799942 0.109375)"/>
      <use xlink:href="#STIXGeneral-Regular-66" transform="translate(202.799927 0.109375)"/>
      <use xlink:href="#STIXGeneral-Regular-6c" transform="translate(236.099915 0.109375)"/>
      <use xlink:href="#STIXGeneral-Regular-6f" transform="translate(263.899902 0.109375)"/>
      <use xlink:href="#STIXGeneral-Regular-70" transform="translate(313.899887 0.109375)"/>
      <use xlink:href="#STIXGeneral-Regular-73" transform="translate(363.899872 0.109375)"/>
      <use xlink:href="#STIXGeneral-Regular-20" transform="translate(402.799866 0.109375)"/>
      <use xlink:href="#STIXGeneral-Regular-20" transform="translate(427.79985 0.109375)"/>
      <use xlink:href="#STIXGeneral-Regular-28" transform="translate(452.799835 0.109375)"/>
      <use xlink:href="#Cmsy10-a3" transform="translate(486.099823 0.109375)"/>
      <use xlink:href="#Cmr10-31" transform="translate(563.78537 0.109375)"/>
      <use xlink:href="#Cmr10-30" transform="translate(613.78537 0.109375)"/>
      <use xlink:href="#Cmr10-39" transform="translate(668.24951 38.373438) scale(0.7)"/>
      <use xlink:href="#STIXGeneral-Regular-29" transform="translate(709.626854 0.109375)"/>
     </g>
    </g>
   </g>
   <g id="line2d_18">
    <path d="M 57.46 254.243625 
L 65.83 248.699625 
L 74.2 243.155625 
L 82.57 237.611625 
L 90.94 232.067625 
L 99.31 226.523625 
L 107.68 220.979625 
L 116.05 215.435625 
L 124.42 209.891625 
L 132.79 204.347625 
L 141.16 198.803625 
L 149.53 193.259625 
L 157.9 187.715625 
L 166.27 182.171625 
L 174.64 176.627625 
L 183.01 171.083625 
L 191.38 165.539625 
L 199.75 159.995625 
L 208.12 154.451625 
L 216.49 148.907625 
L 224.86 143.363625 
L 233.23 137.819625 
L 241.6 132.275625 
L 249.97 126.731625 
L 258.34 121.187625 
L 266.71 115.643625 
L 275.08 110.099625 
L 283.45 104.555625 
L 291.82 99.011625 
L 300.19 93.467625 
L 308.56 87.923625 
L 316.93 82.379625 
L 325.3 76.835625 
L 333.67 71.291625 
L 342.04 65.747625 
L 350.41 60.203625 
L 358.78 54.659625 
L 367.15 49.115625 
L 375.52 43.571625 
L 383.89 38.027625 
L 392.26 32.483625 
" clip-path="url(#p5d96201d83)" style="fill: none; stroke: #d55e00; stroke-width: 1.6; stroke-linecap: square"/>
    <defs>
     <path id="m938780c008" d="M 0 1.5 
C 0.397805 1.5 0.77937 1.341951 1.06066 1.06066 
C 1.341951 0.77937 1.5 0.397805 1.5 0 
C 1.5 -0.397805 1.341951 -0.77937 1.06066 -1.06066 
C 0.77937 -1.341951 0.397805 -1.5 0 -1.5 
C -0.397805 -1.5 -0.77937 -1.341951 -1.06066 -1.06066 
C -1.341951 -0.77937 -1.5 -0.397805 -1.5 0 
C -1.5 0.397805 -1.341951 0.77937 -1.06066 1.06066 
C -0.77937 1.341951 -0.397805 1.5 0 1.5 
z
" style="stroke: #d55e00"/>
    </defs>
    <g clip-path="url(#p5d96201d83)">
     <use xlink:href="#m938780c008" x="57.46" y="254.243625" style="fill: #d55e00; stroke: #d55e00"/>
     <use xlink:href="#m938780c008" x="65.83" y="248.699625" style="fill: #d55e00; stroke: #d55e00"/>
     <use xlink:href="#m938780c008" x="74.2" y="243.155625" style="fill: #d55e00; stroke: #d55e00"/>
     <use xlink:href="#m938780c008" x="82.57" y="237.611625" style="fill: #d55e00; stroke: #d55e00"/>
     <use xlink:href="#m938780c008" x="90.94" y="232.067625" style="fill: #d55e00; stroke: #d55e00"/>
     <use xlink:href="#m938780c008" x="99.31" y="226.523625" style="fill: #d55e00; stroke: #d55e00"/>
     <use xlink:href="#m938780c008" x="107.68" y="220.979625" style="fill: #d55e00; stroke: #d55e00"/>
     <use xlink:href="#m938780c008" x="116.05" y="215.435625" style="fill: #d55e00; stroke: #d55e00"/>
     <use xlink:href="#m938780c008" x="124.42" y="209.891625" style="fill: #d55e00; stroke: #d55e00"/>
     <use xlink:href="#m938780c008" x="132.79" y="204.347625" style="fill: #d55e00; stroke: #d55e00"/>
     <use xlink:href="#m938780c008" x="141.16" y="198.803625" style="fill: #d55e00; stroke: #d55e00"/>
     <use xlink:href="#m938780c008" x="149.53" y="193.259625" style="fill: #d55e00; stroke: #d55e00"/>
     <use xlink:href="#m938780c008" x="157.9" y="187.715625" style="fill: #d55e00; stroke: #d55e00"/>
     <use xlink:href="#m938780c008" x="166.27" y="182.171625" style="fill: #d55e00; stroke: #d55e00"/>
     <use xlink:href="#m938780c008" x="174.64" y="176.627625" style="fill: #d55e00; stroke: #d55e00"/>
     <use xlink:href="#m938780c008" x="183.01" y="171.083625" style="fill: #d55e00; stroke: #d55e00"/>
     <use xlink:href="#m938780c008" x="191.38" y="165.539625" style="fill: #d55e00; stroke: #d55e00"/>
     <use xlink:href="#m938780c008" x="199.75" y="159.995625" style="fill: #d55e00; stroke: #d55e00"/>
     <use xlink:href="#m938780c008" x="208.12" y="154.451625" style="fill: #d55e00; stroke: #d55e00"/>
     <use xlink:href="#m938780c008" x="216.49" y="148.907625" style="fill: #d55e00; stroke: #d55e00"/>
     <use xlink:href="#m938780c008" x="224.86" y="143.363625" style="fill: #d55e00; stroke: #d55e00"/>
     <use xlink:href="#m938780c008" x="233.23" y="137.819625" style="fill: #d55e00; stroke: #d55e00"/>
     <use xlink:href="#m938780c008" x="241.6" y="132.275625" style="fill: #d55e00; stroke: #d55e00"/>
     <use xlink:href="#m938780c008" x="249.97" y="126.731625" style="fill: #d55e00; stroke: #d55e00"/>
     <use xlink:href="#m938780c008" x="258.34" y="121.187625" style="fill: #d55e00; stroke: #d55e00"/>
     <use xlink:href="#m938780c008" x="266.71" y="115.643625" style="fill: #d55e00; stroke: #d55e00"/>
     <use xlink:href="#m938780c008" x="275.08" y="110.099625" style="fill: #d55e00; stroke: #d55e00"/>
     <use xlink:href="#m938780c008" x="283.45" y="104.555625" style="fill: #d55e00; stroke: #d55e00"/>
     <use xlink:href="#m938780c008" x="291.82" y="99.011625" style="fill: #d55e00; stroke: #d55e00"/>
     <use xlink:href="#m938780c008" x="300.19" y="93.467625" style="fill: #d55e00; stroke: #d55e00"/>
     <use xlink:href="#m938780c008" x="308.56" y="87.923625" style="fill: #d55e00; stroke: #d55e00"/>
     <use xlink:href="#m938780c008" x="316.93" y="82.379625" style="fill: #d55e00; stroke: #d55e00"/>
     <use xlink:href="#m938780c008" x="325.3" y="76.835625" style="fill: #d55e00; stroke: #d55e00"/>
     <use xlink:href="#m938780c008" x="333.67" y="71.291625" style="fill: #d55e00; stroke: #d55e00"/>
     <use xlink:href="#m938780c008" x="342.04" y="65.747625" style="fill: #d55e00; stroke: #d55e00"/>
     <use xlink:href="#m938780c008" x="350.41" y="60.203625" style="fill: #d55e00; stroke: #d55e00"/>
     <use xlink:href="#m938780c008" x="358.78" y="54.659625" style="fill: #d55e00; stroke: #d55e00"/>
     <use xlink:href="#m938780c008" x="367.15" y="49.115625" style="fill: #d55e00; stroke: #d55e00"/>
     <use xlink:href="#m938780c008" x="375.52" y="43.571625" style="fill: #d55e00; stroke: #d55e00"/>
     <use xlink:href="#m938780c008" x="383.89" y="38.027625" style="fill: #d55e00; stroke: #d55e00"/>
     <use xlink:href="#m938780c008" x="392.26" y="32.483625" style="fill: #d55e00; stroke: #d55e00"/>
    </g>
   </g>
   <g id="line2d_19">
    <path d="M 57.46 248.699625 
L 65.83 248.666361 
L 74.2 248.633097 
L 82.57 248.599833 
L 90.94 248.566569 
L 99.31 248.533305 
L 107.68 248.500041 
L 116.05 248.466777 
L 124.42 248.433513 
L 132.79 248.400249 
L 141.16 248.366985 
L 149.53 248.333721 
L 157.9 248.300457 
L 166.27 248.267193 
L 174.64 248.233929 
L 183.01 248.200665 
L 191.38 248.167401 
L 199.75 248.134137 
L 208.12 248.100873 
L 216.49 248.067609 
L 224.86 248.034345 
L 233.23 248.001081 
L 241.6 247.967817 
L 249.97 247.934553 
L 258.34 247.901289 
L 266.71 247.868025 
L 275.08 247.834761 
L 283.45 247.801497 
L 291.82 247.768233 
L 300.19 247.734969 
L 308.56 247.701705 
L 316.93 247.668441 
L 325.3 247.635177 
L 333.67 247.601913 
L 342.04 247.568649 
L 350.41 247.535385 
L 358.78 247.502121 
L 367.15 247.468857 
L 375.52 247.435593 
L 383.89 247.402329 
L 392.26 247.369065 
" clip-path="url(#p5d96201d83)" style="fill: none; stroke: #0072b2; stroke-width: 1.6; stroke-linecap: square"/>
    <defs>
     <path id="me909a811cb" d="M -1.5 1.5 
L 1.5 1.5 
L 1.5 -1.5 
L -1.5 -1.5 
z
" style="stroke: #0072b2; stroke-linejoin: miter"/>
    </defs>
    <g clip-path="url(#p5d96201d83)">
     <use xlink:href="#me909a811cb" x="57.46" y="248.699625" style="fill: #0072b2; stroke: #0072b2; stroke-linejoin: miter"/>
     <use xlink:href="#me909a811cb" x="65.83" y="248.666361" style="fill: #0072b2; stroke: #0072b2; stroke-linejoin: miter"/>
     <use xlink:href="#me909a811cb" x="74.2" y="248.633097" style="fill: #0072b2; stroke: #0072b2; stroke-linejoin: miter"/>
     <use xlink:href="#me909a811cb" x="82.57" y="248.599833" style="fill: #0072b2; stroke: #0072b2; stroke-linejoin: miter"/>
     <use xlink:href="#me909a811cb" x="90.94" y="248.566569" style="fill: #0072b2; stroke: #0072b2; stroke-linejoin: miter"/>
     <use xlink:href="#me909a811cb" x="99.31" y="248.533305" style="fill: #0072b2; stroke: #0072b2; stroke-linejoin: miter"/>
     <use xlink:href="#me909a811cb" x="107.68" y="248.500041" style="fill: #0072b2; stroke: #0072b2; stroke-linejoin: miter"/>
     <use xlink:href="#me909a811cb" x="116.05" y="248.466777" style="fill: #0072b2; stroke: #0072b2; stroke-linejoin: miter"/>
     <use xlink:href="#me909a811cb" x="124.42" y="248.433513" style="fill: #0072b2; stroke: #0072b2; stroke-linejoin: miter"/>
     <use xlink:href="#me909a811cb" x="132.79" y="248.400249" style="fill: #0072b2; stroke: #0072b2; stroke-linejoin: miter"/>
     <use xlink:href="#me909a811cb" x="141.16" y="248.366985" style="fill: #0072b2; stroke: #0072b2; stroke-linejoin: miter"/>
     <use xlink:href="#me909a811cb" x="149.53" y="248.333721" style="fill: #0072b2; stroke: #0072b2; stroke-linejoin: miter"/>
     <use xlink:href="#me909a811cb" x="157.9" y="248.300457" style="fill: #0072b2; stroke: #0072b2; stroke-linejoin: miter"/>
     <use xlink:href="#me909a811cb" x="166.27" y="248.267193" style="fill: #0072b2; stroke: #0072b2; stroke-linejoin: miter"/>
     <use xlink:href="#me909a811cb" x="174.64" y="248.233929" style="fill: #0072b2; stroke: #0072b2; stroke-linejoin: miter"/>
     <use xlink:href="#me909a811cb" x="183.01" y="248.200665" style="fill: #0072b2; stroke: #0072b2; stroke-linejoin: miter"/>
     <use xlink:href="#me909a811cb" x="191.38" y="248.167401" style="fill: #0072b2; stroke: #0072b2; stroke-linejoin: miter"/>
     <use xlink:href="#me909a811cb" x="199.75" y="248.134137" style="fill: #0072b2; stroke: #0072b2; stroke-linejoin: miter"/>
     <use xlink:href="#me909a811cb" x="208.12" y="248.100873" style="fill: #0072b2; stroke: #0072b2; stroke-linejoin: miter"/>
     <use xlink:href="#me909a811cb" x="216.49" y="248.067609" style="fill: #0072b2; stroke: #0072b2; stroke-linejoin: miter"/>
     <use xlink:href="#me909a811cb" x="224.86" y="248.034345" style="fill: #0072b2; stroke: #0072b2; stroke-linejoin: miter"/>
     <use xlink:href="#me909a811cb" x="233.23" y="248.001081" style="fill: #0072b2; stroke: #0072b2; stroke-linejoin: miter"/>
     <use xlink:href="#me909a811cb" x="241.6" y="247.967817" style="fill: #0072b2; stroke: #0072b2; stroke-linejoin: miter"/>
     <use xlink:href="#me909a811cb" x="249.97" y="247.934553" style="fill: #0072b2; stroke: #0072b2; stroke-linejoin: miter"/>
     <use xlink:href="#me909a811cb" x="258.34" y="247.901289" style="fill: #0072b2; stroke: #0072b2; stroke-linejoin: miter"/>
     <use xlink:href="#me909a811cb" x="266.71" y="247.868025" style="fill: #0072b2; stroke: #0072b2; stroke-linejoin: miter"/>
     <use xlink:href="#me909a811cb" x="275.08" y="247.834761" style="fill: #0072b2; stroke: #0072b2; stroke-linejoin: miter"/>
     <use xlink:href="#me909a811cb" x="283.45" y="247.801497" style="fill: #0072b2; stroke: #0072b2; stroke-linejoin: miter"/>
     <use xlink:href="#me909a811cb" x="291.82" y="247.768233" style="fill: #0072b2; stroke: #0072b2; stroke-linejoin: miter"/>
     <use xlink:href="#me909a811cb" x="300.19" y="247.734969" style="fill: #0072b2; stroke: #0072b2; stroke-linejoin: miter"/>
     <use xlink:href="#me909a811cb" x="308.56" y="247.701705" style="fill: #0072b2; stroke: #0072b2; stroke-linejoin: miter"/>
     <use xlink:href="#me909a811cb" x="316.93" y="247.668441" style="fill: #0072b2; stroke: #0072b2; stroke-linejoin: miter"/>
     <use xlink:href="#me909a811cb" x="325.3" y="247.635177" style="fill: #0072b2; stroke: #0072b2; stroke-linejoin: miter"/>
     <use xlink:href="#me909a811cb" x="333.67" y="247.601913" style="fill: #0072b2; stroke: #0072b2; stroke-linejoin: miter"/>
     <use xlink:href="#me909a811cb" x="342.04" y="247.568649" style="fill: #0072b2; stroke: #0072b2; stroke-linejoin: miter"/>
     <use xlink:href="#me909a811cb" x="350.41" y="247.535385" style="fill: #0072b2; stroke: #0072b2; stroke-linejoin: miter"/>
     <use xlink:href="#me909a811cb" x="358.78" y="247.502121" style="fill: #0072b2; stroke: #0072b2; stroke-linejoin: miter"/>
     <use xlink:href="#me909a811cb" x="367.15" y="247.468857" style="fill: #0072b2; stroke: #0072b2; stroke-linejoin: miter"/>
     <use xlink:href="#me909a811cb" x="375.52" y="247.435593" style="fill: #0072b2; stroke: #0072b2; stroke-linejoin: miter"/>
     <use xlink:href="#me909a811cb" x="383.89" y="247.402329" style="fill: #0072b2; stroke: #0072b2; stroke-linejoin: miter"/>
     <use xlink:href="#me909a811cb" x="392.26" y="247.369065" style="fill: #0072b2; stroke: #0072b2; stroke-linejoin: miter"/>
    </g>
   </g>
   <g id="patch_3">
    <path d="M 40.72 265.331625 
L 40.72 21.395625 
" style="fill: none; stroke: #1f2328; stroke-width: 0.8; stroke-linejoin: miter; stroke-linecap: square"/>
   </g>
   <g id="patch_4">
    <path d="M 40.72 265.331625 
L 409 265.331625 
" style="fill: none; stroke: #1f2328; stroke-width: 0.8; stroke-linejoin: miter; stroke-linecap: square"/>
   </g>
   <g id="text_20">
    <!-- re-solve: $k\cdot\frac{2}{3}n^3$ -->
    <g style="fill: #d55e00" transform="translate(276.31 80.094425) scale(0.1 -0.1)">
     <defs>
      <path id="STIXGeneral-Regular-76" d="M 3053 2880 
L 3053 2784 
Q 2906 2771 2835 2688 
Q 2765 2605 2637 2285 
L 1818 230 
Q 1690 -90 1638 -90 
Q 1587 -90 1523 77 
Q 1510 96 1497 141 
Q 1485 186 1472 211 
L 704 2048 
Q 499 2534 403 2652 
Q 307 2771 122 2784 
L 122 2880 
L 1376 2880 
L 1376 2784 
Q 1210 2771 1146 2732 
Q 1082 2694 1082 2611 
Q 1082 2509 1139 2368 
L 1792 730 
L 2426 2387 
Q 2464 2483 2464 2579 
Q 2464 2758 2163 2784 
L 2163 2880 
L 3053 2880 
z
" transform="scale(0.015625)"/>
      <path id="STIXGeneral-Regular-3a" d="M 1123 2832 
Q 1229 2726 1229 2579 
Q 1229 2432 1126 2329 
Q 1024 2227 877 2227 
Q 730 2227 624 2332 
Q 518 2438 518 2579 
Q 518 2733 620 2835 
Q 723 2938 877 2938 
Q 1018 2938 1123 2832 
z
M 1229 282 
Q 1229 141 1126 35 
Q 1024 -70 877 -70 
Q 730 -70 624 35 
Q 518 141 518 282 
Q 518 435 620 537 
Q 723 640 877 640 
Q 1018 640 1123 534 
Q 1229 429 1229 282 
z
" transform="scale(0.015625)"/>
      <path id="Cmsy10-a2" d="M 538 1600 
Q 538 1691 584 1772 
Q 631 1853 714 1903 
Q 797 1953 891 1953 
Q 981 1953 1064 1903 
Q 1147 1853 1194 1772 
Q 1241 1691 1241 1600 
Q 1241 1456 1139 1351 
Q 1038 1247 891 1247 
Q 747 1247 642 1351 
Q 538 1456 538 1600 
z
" transform="scale(0.015625)"/>
      <path id="Cmr10-32" d="M 319 0 
L 319 172 
Q 319 188 331 206 
L 1325 1306 
Q 1550 1550 1690 1715 
Q 1831 1881 1968 2097 
Q 2106 2313 2186 2536 
Q 2266 2759 2266 3009 
Q 2266 3272 2169 3511 
Q 2072 3750 1880 3894 
Q 1688 4038 1416 4038 
Q 1138 4038 916 3870 
Q 694 3703 603 3438 
Q 628 3444 672 3444 
Q 816 3444 917 3347 
Q 1019 3250 1019 3097 
Q 1019 2950 917 2848 
Q 816 2747 672 2747 
Q 522 2747 420 2851 
Q 319 2956 319 3097 
Q 319 3338 409 3548 
Q 500 3759 670 3923 
Q 841 4088 1055 4175 
Q 1269 4263 1509 4263 
Q 1875 4263 2190 4108 
Q 2506 3953 2690 3670 
Q 2875 3388 2875 3009 
Q 2875 2731 2753 2481 
Q 2631 2231 2440 2026 
Q 2250 1822 1953 1562 
Q 1656 1303 1563 1216 
L 838 519 
L 1453 519 
Q 1906 519 2211 526 
Q 2516 534 2534 550 
Q 2609 631 2688 1141 
L 2875 1141 
L 2694 0 
L 319 0 
z
" transform="scale(0.015625)"/>
      <path id="Cmr10-33" d="M 609 494 
Q 759 275 1012 169 
Q 1266 63 1556 63 
Q 1928 63 2084 380 
Q 2241 697 2241 1100 
Q 2241 1281 2208 1462 
Q 2175 1644 2097 1800 
Q 2019 1956 1883 2050 
Q 1747 2144 1550 2144 
L 1125 2144 
Q 1069 2144 1069 2203 
L 1069 2259 
Q 1069 2309 1125 2309 
L 1478 2338 
Q 1703 2338 1851 2506 
Q 2000 2675 2069 2917 
Q 2138 3159 2138 3378 
Q 2138 3684 1994 3881 
Q 1850 4078 1556 4078 
Q 1313 4078 1091 3986 
Q 869 3894 738 3706 
Q 750 3709 759 3711 
Q 769 3713 781 3713 
Q 925 3713 1022 3613 
Q 1119 3513 1119 3372 
Q 1119 3234 1022 3134 
Q 925 3034 781 3034 
Q 641 3034 541 3134 
Q 441 3234 441 3372 
Q 441 3647 606 3850 
Q 772 4053 1033 4158 
Q 1294 4263 1556 4263 
Q 1750 4263 1965 4205 
Q 2181 4147 2356 4039 
Q 2531 3931 2642 3762 
Q 2753 3594 2753 3378 
Q 2753 3109 2633 2881 
Q 2513 2653 2303 2487 
Q 2094 2322 1844 2241 
Q 2122 2188 2372 2031 
Q 2622 1875 2773 1631 
Q 2925 1388 2925 1106 
Q 2925 753 2731 467 
Q 2538 181 2222 20 
Q 1906 -141 1556 -141 
Q 1256 -141 954 -26 
Q 653 88 461 316 
Q 269 544 269 863 
Q 269 1022 375 1128 
Q 481 1234 641 1234 
Q 744 1234 830 1186 
Q 916 1138 964 1050 
Q 1013 963 1013 863 
Q 1013 706 903 600 
Q 794 494 641 494 
L 609 494 
z
" transform="scale(0.015625)"/>
      <path id="Cmmi10-6e" d="M 494 109 
Q 494 147 500 166 
L 978 2075 
Q 1025 2253 1025 2388 
Q 1025 2663 838 2663 
Q 638 2663 541 2423 
Q 444 2184 353 1819 
Q 353 1800 334 1789 
Q 316 1778 300 1778 
L 225 1778 
Q 203 1778 187 1801 
Q 172 1825 172 1844 
Q 241 2122 305 2315 
Q 369 2509 505 2668 
Q 641 2828 844 2828 
Q 1084 2828 1268 2676 
Q 1453 2525 1453 2291 
Q 1644 2541 1900 2684 
Q 2156 2828 2444 2828 
Q 2672 2828 2837 2750 
Q 3003 2672 3095 2514 
Q 3188 2356 3188 2138 
Q 3188 1875 3070 1503 
Q 2953 1131 2778 672 
Q 2688 463 2688 288 
Q 2688 97 2834 97 
Q 3084 97 3251 365 
Q 3419 634 3488 941 
Q 3500 978 3541 978 
L 3616 978 
Q 3641 978 3658 962 
Q 3675 947 3675 922 
Q 3675 916 3669 903 
Q 3581 541 3364 234 
Q 3147 -72 2822 -72 
Q 2597 -72 2437 83 
Q 2278 238 2278 459 
Q 2278 578 2328 709 
Q 2409 919 2514 1209 
Q 2619 1500 2686 1765 
Q 2753 2031 2753 2234 
Q 2753 2413 2679 2538 
Q 2606 2663 2431 2663 
Q 2197 2663 2000 2559 
Q 1803 2456 1656 2286 
Q 1509 2116 1388 1881 
L 953 141 
Q 931 53 854 -9 
Q 778 -72 684 -72 
Q 606 -72 550 -22 
Q 494 28 494 109 
z
" transform="scale(0.015625)"/>
     </defs>
     <use xlink:href="#STIXGeneral-Regular-72" transform="translate(0 0.109375)"/>
     <use xlink:href="#STIXGeneral-Regular-65" transform="translate(33.299988 0.109375)"/>
     <use xlink:href="#STIXGeneral-Regular-2d" transform="translate(77.699982 0.109375)"/>
     <use xlink:href="#STIXGeneral-Regular-73" transform="translate(110.999969 0.109375)"/>
     <use xlink:href="#STIXGeneral-Regular-6f" transform="translate(149.899963 0.109375)"/>
     <use xlink:href="#STIXGeneral-Regular-6c" transform="translate(199.899948 0.109375)"/>
     <use xlink:href="#STIXGeneral-Regular-76" transform="translate(227.699936 0.109375)"/>
     <use xlink:href="#STIXGeneral-Regular-65" transform="translate(277.699921 0.109375)"/>
     <use xlink:href="#STIXGeneral-Regular-3a" transform="translate(322.099915 0.109375)"/>
     <use xlink:href="#STIXGeneral-Regular-20" transform="translate(349.899902 0.109375)"/>
     <use xlink:href="#Cmmi10-6b" transform="translate(374.899887 0.109375)"/>
     <use xlink:href="#Cmsy10-a2" transform="translate(444.460434 0.109375)"/>
     <use xlink:href="#Cmr10-32" transform="translate(489.704575 37.609375) scale(0.7)"/>
     <use xlink:href="#Cmr10-33" transform="translate(489.704575 -40.267187) scale(0.7)"/>
     <use xlink:href="#Cmmi10-6e" transform="translate(537.204575 0.109375)"/>
     <use xlink:href="#Cmr10-33" transform="translate(603.517621 38.373438) scale(0.7)"/>
     <path d="M 489.704575 12.609375 
L 489.704575 18.859375 
L 524.704575 18.859375 
L 524.704575 12.609375 
L 489.704575 12.609375 
z
"/>
    </g>
   </g>
   <g id="text_21">
    <!-- factor once: $\frac{2}{3}n^3+k\cdot 2n^2$ -->
    <g style="fill: #0072b2" transform="translate(281.62 232.887065) scale(0.1 -0.1)">
     <defs>
      <path id="STIXGeneral-Regular-63" d="M 2547 998 
L 2637 941 
Q 2362 403 2112 205 
Q 1786 -64 1376 -64 
Q 845 -64 502 336 
Q 160 736 160 1357 
Q 160 2170 698 2618 
Q 1094 2944 1562 2944 
Q 1965 2944 2256 2749 
Q 2547 2554 2547 2285 
Q 2547 2176 2457 2096 
Q 2368 2016 2246 2016 
Q 2022 2016 1939 2310 
L 1901 2451 
Q 1850 2630 1773 2694 
Q 1696 2758 1523 2758 
Q 1133 2758 893 2451 
Q 653 2144 653 1645 
Q 653 1094 928 745 
Q 1203 397 1645 397 
Q 1920 397 2118 528 
Q 2317 659 2547 998 
z
" transform="scale(0.015625)"/>
      <path id="Cmr10-2b" d="M 481 1472 
Q 428 1472 393 1512 
Q 359 1553 359 1600 
Q 359 1647 393 1687 
Q 428 1728 481 1728 
L 2363 1728 
L 2363 3616 
Q 2363 3666 2400 3698 
Q 2438 3731 2491 3731 
Q 2538 3731 2578 3698 
Q 2619 3666 2619 3616 
L 2619 1728 
L 4500 1728 
Q 4547 1728 4581 1687 
Q 4616 1647 4616 1600 
Q 4616 1553 4581 1512 
Q 4547 1472 4500 1472 
L 2619 1472 
L 2619 -416 
Q 2619 -466 2578 -498 
Q 2538 -531 2491 -531 
Q 2438 -531 2400 -498 
Q 2363 -466 2363 -416 
L 2363 1472 
L 481 1472 
z
" transform="scale(0.015625)"/>
     </defs>
     <use xlink:href="#STIXGeneral-Regular-66" transform="translate(0 0.109375)"/>
     <use xlink:href="#STIXGeneral-Regular-61" transform="translate(33.299988 0.109375)"/>
     <use xlink:href="#STIXGeneral-Regular-63" transform="translate(77.699982 0.109375)"/>
     <use xlink:href="#STIXGeneral-Regular-74" transform="translate(122.099976 0.109375)"/>
     <use xlink:href="#STIXGeneral-Regular-6f" transform="translate(149.899963 0.109375)"/>
     <use xlink:href="#STIXGeneral-Regular-72" transform="translate(199.899948 0.109375)"/>
     <use xlink:href="#STIXGeneral-Regular-20" transform="translate(233.199936 0.109375)"/>
     <use xlink:href="#STIXGeneral-Regular-6f" transform="translate(258.199921 0.109375)"/>
     <use xlink:href="#STIXGeneral-Regular-6e" transform="translate(308.199905 0.109375)"/>
     <use xlink:href="#STIXGeneral-Regular-63" transform="translate(358.19989 0.109375)"/>
     <use xlink:href="#STIXGeneral-Regular-65" transform="translate(402.599884 0.109375)"/>
     <use xlink:href="#STIXGeneral-Regular-3a" transform="translate(446.999878 0.109375)"/>
     <use xlink:href="#STIXGeneral-Regular-20" transform="translate(474.799866 0.109375)"/>
     <use xlink:href="#Cmr10-32" transform="translate(499.79985 37.609375) scale(0.7)"/>
     <use xlink:href="#Cmr10-33" transform="translate(499.79985 -40.267187) scale(0.7)"/>
     <use xlink:href="#Cmmi10-6e" transform="translate(547.29985 0.109375)"/>
     <use xlink:href="#Cmr10-33" transform="translate(613.612897 38.373438) scale(0.7)"/>
     <use xlink:href="#Cmr10-2b" transform="translate(672.548835 0.109375)"/>
     <use xlink:href="#Cmmi10-6b" transform="translate(767.792975 0.109375)"/>
     <use xlink:href="#Cmsy10-a2" transform="translate(837.353522 0.109375)"/>
     <use xlink:href="#Cmr10-32" transform="translate(882.597663 0.109375)"/>
     <use xlink:href="#Cmmi10-6e" transform="translate(932.597663 0.109375)"/>
     <use xlink:href="#Cmr10-32" transform="translate(998.91071 38.373438) scale(0.7)"/>
     <path d="M 499.79985 12.609375 
L 499.79985 18.859375 
L 534.79985 18.859375 
L 534.79985 12.609375 
L 499.79985 12.609375 
z
"/>
    </g>
   </g>
   <g id="patch_5">
    <path d="M 139.188552 201.153441 
Q 99.188502 224.423764 59.961568 247.244319 
" style="fill: none; stroke: #1f2328; stroke-width: 0.8; stroke-linecap: round"/>
    <path d="M 63.978442 246.989912 
L 59.961568 247.244319 
L 62.168167 243.878176 
" style="fill: none; stroke: #1f2328; stroke-width: 0.8; stroke-linecap: round"/>
   </g>
   <g id="text_22">
    <!-- one-time $\frac{2}{3}n^3\approx8.3\times10^7$ -->
    <g style="fill: #1f2328" transform="translate(107.68 194.368425) scale(0.09 -0.09)">
     <defs>
      <path id="Cmsy10-bc" d="M 447 359 
Q 378 359 359 519 
L 359 556 
Q 359 847 501 1087 
Q 644 1328 891 1464 
Q 1138 1600 1422 1600 
Q 1766 1600 2130 1379 
Q 2494 1159 2853 937 
Q 3213 716 3553 716 
Q 3881 716 4157 919 
Q 4434 1122 4434 1441 
Q 4453 1600 4525 1600 
Q 4597 1600 4616 1441 
L 4616 1403 
Q 4616 1113 4472 872 
Q 4328 631 4083 495 
Q 3838 359 3553 359 
Q 3284 359 3048 470 
Q 2813 581 2495 795 
Q 2178 1009 1937 1125 
Q 1697 1241 1422 1241 
Q 1219 1241 1009 1150 
Q 800 1059 669 895 
Q 538 731 538 519 
Q 519 359 447 359 
z
M 447 1850 
Q 378 1850 359 2009 
L 359 2047 
Q 359 2338 501 2578 
Q 644 2819 891 2955 
Q 1138 3091 1422 3091 
Q 1766 3091 2130 2870 
Q 2494 2650 2853 2429 
Q 3213 2209 3553 2209 
Q 3881 2209 4157 2412 
Q 4434 2616 4434 2931 
Q 4453 3091 4525 3091 
Q 4597 3091 4616 2931 
L 4616 2894 
Q 4616 2603 4472 2362 
Q 4328 2122 4083 1986 
Q 3838 1850 3553 1850 
Q 3284 1850 3048 1961 
Q 2813 2072 2495 2286 
Q 2178 2500 1937 2615 
Q 1697 2731 1422 2731 
Q 1219 2731 1009 2640 
Q 800 2550 669 2386 
Q 538 2222 538 2009 
Q 519 1850 447 1850 
z
" transform="scale(0.015625)"/>
      <path id="Cmr10-38" d="M 269 972 
Q 269 1356 522 1651 
Q 775 1947 1172 2144 
L 934 2297 
Q 716 2441 578 2680 
Q 441 2919 441 3181 
Q 441 3488 602 3734 
Q 763 3981 1030 4122 
Q 1297 4263 1600 4263 
Q 1884 4263 2148 4147 
Q 2413 4031 2583 3815 
Q 2753 3600 2753 3303 
Q 2753 3088 2651 2903 
Q 2550 2719 2373 2572 
Q 2197 2425 1997 2322 
L 2363 2088 
Q 2616 1922 2770 1653 
Q 2925 1384 2925 1088 
Q 2925 741 2739 456 
Q 2553 172 2247 15 
Q 1941 -141 1600 -141 
Q 1269 -141 961 -6 
Q 653 128 461 383 
Q 269 638 269 972 
z
M 616 972 
Q 616 719 755 509 
Q 894 300 1122 181 
Q 1350 63 1600 63 
Q 1972 63 2275 280 
Q 2578 497 2578 856 
Q 2578 978 2529 1098 
Q 2481 1219 2395 1317 
Q 2309 1416 2203 1478 
L 1344 2034 
Q 1144 1928 976 1765 
Q 809 1603 712 1400 
Q 616 1197 616 972 
z
M 1056 2925 
L 1831 2425 
Q 2100 2581 2272 2803 
Q 2444 3025 2444 3303 
Q 2444 3519 2323 3698 
Q 2203 3878 2009 3978 
Q 1816 4078 1594 4078 
Q 1400 4078 1203 4003 
Q 1006 3928 878 3779 
Q 750 3631 750 3431 
Q 750 3131 1056 2925 
z
" transform="scale(0.015625)"/>
      <path id="Cmmi10-3a" d="M 538 353 
Q 538 497 644 600 
Q 750 703 891 703 
Q 978 703 1062 656 
Q 1147 609 1194 525 
Q 1241 441 1241 353 
Q 1241 213 1137 106 
Q 1034 0 891 0 
Q 750 0 644 106 
Q 538 213 538 353 
z
" transform="scale(0.015625)"/>
      <path id="Cmr10-37" d="M 1113 166 
Q 1113 522 1175 862 
Q 1238 1203 1358 1536 
Q 1478 1869 1648 2189 
Q 1819 2509 2022 2791 
L 2606 3603 
L 1875 3603 
Q 738 3603 703 3572 
Q 619 3469 544 2981 
L 359 2981 
L 569 4325 
L 756 4325 
L 756 4306 
Q 756 4191 1147 4156 
Q 1538 4122 1913 4122 
L 3103 4122 
L 3103 3956 
Q 3103 3950 3101 3947 
Q 3100 3944 3097 3938 
L 2216 2700 
Q 1891 2219 1809 1631 
Q 1728 1044 1728 166 
Q 1728 41 1637 -50 
Q 1547 -141 1422 -141 
Q 1294 -141 1203 -50 
Q 1113 41 1113 166 
z
" transform="scale(0.015625)"/>
     </defs>
     <use xlink:href="#STIXGeneral-Regular-6f" transform="translate(0 0.43125)"/>
     <use xlink:href="#STIXGeneral-Regular-6e" transform="translate(49.999985 0.43125)"/>
     <use xlink:href="#STIXGeneral-Regular-65" transform="translate(99.999969 0.43125)"/>
     <use xlink:href="#STIXGeneral-Regular-2d" transform="translate(144.399963 0.43125)"/>
     <use xlink:href="#STIXGeneral-Regular-74" transform="translate(177.699951 0.43125)"/>
     <use xlink:href="#STIXGeneral-Regular-69" transform="translate(205.499939 0.43125)"/>
     <use xlink:href="#STIXGeneral-Regular-6d" transform="translate(233.299927 0.43125)"/>
     <use xlink:href="#STIXGeneral-Regular-65" transform="translate(311.099915 0.43125)"/>
     <use xlink:href="#STIXGeneral-Regular-20" transform="translate(355.499908 0.43125)"/>
     <use xlink:href="#Cmr10-32" transform="translate(380.499893 37.93125) scale(0.7)"/>
     <use xlink:href="#Cmr10-33" transform="translate(380.499893 -39.945312) scale(0.7)"/>
     <use xlink:href="#Cmmi10-6e" transform="translate(427.999893 0.43125)"/>
     <use xlink:href="#Cmr10-33" transform="translate(494.31294 38.695313) scale(0.7)"/>
     <use xlink:href="#Cmsy10-bc" transform="translate(553.248878 0.43125)"/>
     <use xlink:href="#Cmr10-38" transform="translate(648.493018 0.43125)"/>
     <use xlink:href="#Cmmi10-3a" transform="translate(698.493018 0.43125)"/>
     <use xlink:href="#Cmr10-33" transform="translate(726.178565 0.43125)"/>
     <use xlink:href="#Cmsy10-a3" transform="translate(793.737159 0.43125)"/>
     <use xlink:href="#Cmr10-31" transform="translate(888.981299 0.43125)"/>
     <use xlink:href="#Cmr10-30" transform="translate(938.981299 0.43125)"/>
     <use xlink:href="#Cmr10-37" transform="translate(993.44544 38.695313) scale(0.7)"/>
     <path d="M 380.499893 12.93125 
L 380.499893 19.18125 
L 415.499893 19.18125 
L 415.499893 12.93125 
L 380.499893 12.93125 
z
"/>
    </g>
   </g>
   <g id="text_23">
    <!-- Factor once, reuse forever  ($n=500$) -->
    <g transform="translate(135.82 15.395625) scale(0.12 -0.12)">
     <defs>
      <path id="STIXGeneral-Regular-46" d="M 3494 3322 
L 3334 3322 
Q 3264 3757 3094 3875 
Q 2925 3994 2349 3994 
L 1504 3994 
Q 1370 3994 1328 3946 
Q 1286 3898 1286 3744 
L 1286 2355 
L 2195 2355 
Q 2598 2355 2736 2470 
Q 2874 2586 2918 2963 
L 3066 2963 
L 3066 1472 
L 2918 1472 
Q 2880 1862 2745 1977 
Q 2611 2093 2195 2093 
L 1286 2093 
L 1286 717 
Q 1286 352 1392 246 
Q 1498 141 1869 122 
L 1869 0 
L 70 0 
L 70 122 
Q 435 147 534 259 
Q 634 371 634 787 
L 634 3526 
Q 634 3878 538 3984 
Q 442 4090 77 4115 
L 77 4237 
L 3462 4237 
L 3494 3322 
z
" transform="scale(0.015625)"/>
      <path id="STIXGeneral-Regular-2c" d="M 531 -902 
L 467 -781 
Q 998 -422 998 -96 
Q 998 -13 909 -13 
Q 883 -13 822 -25 
Q 762 -38 723 -38 
Q 352 -38 352 288 
Q 352 454 457 553 
Q 563 653 736 653 
Q 954 653 1101 496 
Q 1248 339 1248 96 
Q 1248 -198 1053 -473 
Q 858 -749 531 -902 
z
" transform="scale(0.015625)"/>
      <path id="Cmr10-3d" d="M 481 850 
Q 428 850 393 890 
Q 359 931 359 978 
Q 359 1031 393 1068 
Q 428 1106 481 1106 
L 4500 1106 
Q 4547 1106 4581 1068 
Q 4616 1031 4616 978 
Q 4616 931 4581 890 
Q 4547 850 4500 850 
L 481 850 
z
M 481 2094 
Q 428 2094 393 2131 
Q 359 2169 359 2222 
Q 359 2269 393 2309 
Q 428 2350 481 2350 
L 4500 2350 
Q 4547 2350 4581 2309 
Q 4616 2269 4616 2222 
Q 4616 2169 4581 2131 
Q 4547 2094 4500 2094 
L 481 2094 
z
" transform="scale(0.015625)"/>
      <path id="Cmr10-35" d="M 556 728 
Q 622 541 758 387 
Q 894 234 1080 148 
Q 1266 63 1466 63 
Q 1928 63 2103 422 
Q 2278 781 2278 1294 
Q 2278 1516 2270 1667 
Q 2263 1819 2228 1959 
Q 2169 2184 2020 2353 
Q 1872 2522 1656 2522 
Q 1441 2522 1286 2456 
Q 1131 2391 1034 2303 
Q 938 2216 863 2119 
Q 788 2022 769 2016 
L 697 2016 
Q 681 2016 657 2036 
Q 634 2056 634 2075 
L 634 4213 
Q 634 4228 654 4245 
Q 675 4263 697 4263 
L 716 4263 
Q 1147 4056 1631 4056 
Q 2106 4056 2547 4263 
L 2566 4263 
Q 2588 4263 2606 4247 
Q 2625 4231 2625 4213 
L 2625 4153 
Q 2625 4122 2613 4122 
Q 2394 3831 2064 3668 
Q 1734 3506 1381 3506 
Q 1125 3506 856 3578 
L 856 2369 
Q 1069 2541 1236 2614 
Q 1403 2688 1663 2688 
Q 2016 2688 2295 2484 
Q 2575 2281 2725 1954 
Q 2875 1628 2875 1288 
Q 2875 903 2686 575 
Q 2497 247 2172 53 
Q 1847 -141 1466 -141 
Q 1150 -141 886 21 
Q 622 184 470 459 
Q 319 734 319 1044 
Q 319 1188 412 1278 
Q 506 1369 647 1369 
Q 788 1369 883 1276 
Q 978 1184 978 1044 
Q 978 906 883 811 
Q 788 716 647 716 
Q 625 716 597 720 
Q 569 725 556 728 
z
" transform="scale(0.015625)"/>
     </defs>
     <use xlink:href="#STIXGeneral-Regular-46" transform="translate(0 0.703125)"/>
     <use xlink:href="#STIXGeneral-Regular-61" transform="translate(55.599991 0.703125)"/>
     <use xlink:href="#STIXGeneral-Regular-63" transform="translate(99.999985 0.703125)"/>
     <use xlink:href="#STIXGeneral-Regular-74" transform="translate(144.399979 0.703125)"/>
     <use xlink:href="#STIXGeneral-Regular-6f" transform="translate(172.199966 0.703125)"/>
     <use xlink:href="#STIXGeneral-Regular-72" transform="translate(222.199951 0.703125)"/>
     <use xlink:href="#STIXGeneral-Regular-20" transform="translate(255.499939 0.703125)"/>
     <use xlink:href="#STIXGeneral-Regular-6f" transform="translate(280.499924 0.703125)"/>
     <use xlink:href="#STIXGeneral-Regular-6e" transform="translate(330.499908 0.703125)"/>
     <use xlink:href="#STIXGeneral-Regular-63" transform="translate(380.499893 0.703125)"/>
     <use xlink:href="#STIXGeneral-Regular-65" transform="translate(424.899887 0.703125)"/>
     <use xlink:href="#STIXGeneral-Regular-2c" transform="translate(469.299881 0.703125)"/>
     <use xlink:href="#STIXGeneral-Regular-20" transform="translate(494.299866 0.703125)"/>
     <use xlink:href="#STIXGeneral-Regular-72" transform="translate(519.29985 0.703125)"/>
     <use xlink:href="#STIXGeneral-Regular-65" transform="translate(552.599838 0.703125)"/>
     <use xlink:href="#STIXGeneral-Regular-75" transform="translate(596.999832 0.703125)"/>
     <use xlink:href="#STIXGeneral-Regular-73" transform="translate(646.999817 0.703125)"/>
     <use xlink:href="#STIXGeneral-Regular-65" transform="translate(685.899811 0.703125)"/>
     <use xlink:href="#STIXGeneral-Regular-20" transform="translate(730.299805 0.703125)"/>
     <use xlink:href="#STIXGeneral-Regular-66" transform="translate(755.299789 0.703125)"/>
     <use xlink:href="#STIXGeneral-Regular-6f" transform="translate(788.599777 0.703125)"/>
     <use xlink:href="#STIXGeneral-Regular-72" transform="translate(838.599762 0.703125)"/>
     <use xlink:href="#STIXGeneral-Regular-65" transform="translate(871.89975 0.703125)"/>
     <use xlink:href="#STIXGeneral-Regular-76" transform="translate(916.299744 0.703125)"/>
     <use xlink:href="#STIXGeneral-Regular-65" transform="translate(966.299728 0.703125)"/>
     <use xlink:href="#STIXGeneral-Regular-72" transform="translate(1010.699722 0.703125)"/>
     <use xlink:href="#STIXGeneral-Regular-20" transform="translate(1043.99971 0.703125)"/>
     <use xlink:href="#STIXGeneral-Regular-20" transform="translate(1068.999695 0.703125)"/>
     <use xlink:href="#STIXGeneral-Regular-28" transform="translate(1093.99968 0.703125)"/>
     <use xlink:href="#Cmmi10-6e" transform="translate(1127.299667 0.703125)"/>
     <use xlink:href="#Cmr10-3d" transform="translate(1204.868027 0.703125)"/>
     <use xlink:href="#Cmr10-35" transform="translate(1300.112167 0.703125)"/>
     <use xlink:href="#Cmr10-30" transform="translate(1350.112167 0.703125)"/>
     <use xlink:href="#Cmr10-30" transform="translate(1400.112167 0.703125)"/>
     <use xlink:href="#STIXGeneral-Regular-29" transform="translate(1450.112167 0.703125)"/>
    </g>
   </g>
  </g>
 </g>
 <defs>
  <clipPath id="p5d96201d83">
   <rect x="40.72" y="21.395625" width="368.28" height="243.936"/>
  </clipPath>
 </defs>
</svg>
