<?xml version="1.0" encoding="utf-8" standalone="no"?>
<!DOCTYPE svg PUBLIC "-//W3C//DTD SVG 1.1//EN"
  "http://www.w3.org/Graphics/SVG/1.1/DTD/svg11.dtd">
<svg xmlns:xlink="http://www.w3.org/1999/xlink" width="559.638606pt" height="308.716875pt" viewBox="0 0 559.638606 308.716875" xmlns="http://www.w3.org/2000/svg" version="1.1">
 <metadata>
  <rdf:RDF xmlns:dc="http://purl.org/dc/elements/1.1/" xmlns:cc="http://creativecommons.org/ns#" xmlns:rdf="http://www.w3.org/1999/02/22-rdf-syntax-ns#">
   <cc:Work>
    <dc:type rdf:resource="http://purl.org/dc/dcmitype/StillImage"/>
    <dc:date>2026-07-17T17:26:28.325081</dc:date>
    <dc:format>image/svg+xml</dc:format>
    <dc:creator>
     <cc:Agent>
      <dc:title>Matplotlib v3.9.4, https://matplotlib.org/</dc:title>
     </cc:Agent>
    </dc:creator>
   </cc:Work>
  </rdf:RDF>
 </metadata>
 <defs>
  <style type="text/css">*{stroke-linejoin: round; stroke-linecap: butt}</style>
 </defs>
 <g id="figure_1">
  <g id="patch_1">
   <path d="M -0 308.716875 
L 559.638606 308.716875 
L 559.638606 0 
L -0 0 
z
" style="fill: #ffffff"/>
  </g>
  <g id="axes_1">
   <g id="patch_2">
    <path d="M 7.2 301.516875 
L 157.5942 301.516875 
L 157.5942 22.2 
L 7.2 22.2 
z
" style="fill: #ffffff"/>
   </g>
   <g id="QuadContourSet_1">
    <path d="M 48.445232 231.573093 
L 48.37853 231.454114 
L 48.445232 231.260291 
L 48.786864 230.519944 
L 48.948223 230.417637 
L 49.451213 230.24836 
L 49.954204 230.245088 
L 50.457195 230.445576 
L 50.545089 230.519944 
L 50.585438 231.454114 
L 50.457195 231.596599 
L 49.954204 231.969481 
L 49.451213 232.14183 
L 48.948223 232.044631 
L 48.445232 231.573093 
" clip-path="url(#p444197396b)" style="fill: none; stroke: #9aa3ad; stroke-width: 0.7"/>
    <path d="M 47.942241 232.68119 
L 47.61699 232.388284 
L 47.439251 231.85153 
L 47.346434 231.454114 
L 47.439251 231.116878 
L 47.630948 230.519944 
L 47.942241 230.160943 
L 48.445232 229.682969 
L 48.583062 229.585773 
L 48.948223 229.431233 
L 49.451213 229.302534 
L 49.954204 229.265293 
L 50.457195 229.330212 
L 50.960185 229.509724 
L 51.088029 229.585773 
L 51.463176 230.077219 
L 51.689677 230.519944 
L 51.622233 231.454114 
L 51.463176 231.729296 
L 51.016393 232.388284 
L 50.960185 232.433463 
L 50.457195 232.744886 
L 49.954204 232.966908 
L 49.451213 233.087432 
L 48.948223 233.092077 
L 48.445232 232.963607 
L 47.942241 232.68119 
z
" clip-path="url(#p444197396b)" style="fill: none; stroke: #9aa3ad; stroke-width: 0.7"/>
    <path d="M 46.93626 234.359999 
L 46.756981 234.256624 
L 46.433269 233.982237 
L 45.930279 233.432989 
L 45.847379 233.322454 
L 45.485067 232.388284 
L 45.442867 231.454114 
L 45.678718 230.519944 
L 45.930279 230.039231 
L 46.18892 229.585773 
L 46.433269 229.303215 
L 46.93626 228.777635 
L 47.073175 228.651603 
L 47.439251 228.402151 
L 47.942241 228.108177 
L 48.445232 227.864236 
L 48.835464 227.717433 
L 48.948223 227.684087 
L 49.451213 227.583139 
L 49.954204 227.53054 
L 50.457195 227.529156 
L 50.960185 227.58209 
L 51.463176 227.692696 
L 51.536848 227.717433 
L 51.966166 227.916839 
L 52.469157 228.242178 
L 52.952688 228.651603 
L 52.972148 228.678819 
L 53.475138 229.556622 
L 53.488957 229.585773 
L 53.643501 230.519944 
L 53.527702 231.454114 
L 53.475138 231.58809 
L 53.134823 232.388284 
L 52.972148 232.620598 
L 52.469157 233.277013 
L 52.430132 233.322454 
L 51.966166 233.706537 
L 51.463176 234.073894 
L 51.168439 234.256624 
L 50.960185 234.356206 
L 50.457195 234.548756 
L 49.954204 234.693276 
L 49.451213 234.786705 
L 48.948223 234.825716 
L 48.445232 234.80669 
L 47.942241 234.725674 
L 47.439251 234.578353 
L 46.93626 234.359999 
" clip-path="url(#p444197396b)" style="fill: none; stroke: #9aa3ad; stroke-width: 0.7"/>
    <path d="M 47.439251 238.008871 
L 47.313266 237.993305 
L 46.93626 237.938835 
L 46.433269 237.830194 
L 45.930279 237.683955 
L 45.427288 237.498641 
L 44.924298 237.272701 
L 44.522692 237.059135 
L 44.421307 236.993518 
L 43.918316 236.617388 
L 43.415326 236.183802 
L 43.35452 236.124964 
L 42.912335 235.573381 
L 42.639533 235.190794 
L 42.409344 234.736668 
L 42.190238 234.256624 
L 41.936504 233.322454 
L 41.906354 233.00992 
L 41.851689 232.388284 
L 41.906354 231.544556 
L 41.912476 231.454114 
L 42.119708 230.519944 
L 42.409344 229.727151 
L 42.463361 229.585773 
L 42.912335 228.741816 
L 42.962631 228.651603 
L 43.415326 228.018139 
L 43.641056 227.717433 
L 43.918316 227.414648 
L 44.421307 226.894803 
L 44.536541 226.783263 
L 44.924298 226.466026 
L 45.427288 226.081435 
L 45.755438 225.849093 
L 45.930279 225.742087 
L 46.433269 225.461559 
L 46.93626 225.206901 
L 47.439251 224.979067 
L 47.601917 224.914923 
L 47.942241 224.797266 
L 48.445232 224.649514 
L 48.948223 224.528148 
L 49.451213 224.434048 
L 49.954204 224.368133 
L 50.457195 224.331366 
L 50.960185 224.324752 
L 51.463176 224.349345 
L 51.966166 224.406247 
L 52.469157 224.496614 
L 52.972148 224.621655 
L 53.475138 224.782642 
L 53.812101 224.914923 
L 53.978129 224.992909 
L 54.48112 225.27377 
L 54.98411 225.603623 
L 55.309843 225.849093 
L 55.487101 226.016578 
L 55.990092 226.556004 
L 56.178728 226.783263 
L 56.493082 227.294141 
L 56.72665 227.717433 
L 56.996073 228.467439 
L 57.056038 228.651603 
L 57.204266 229.585773 
L 57.201687 230.519944 
L 57.058468 231.454114 
L 56.996073 231.662764 
L 56.769521 232.388284 
L 56.493082 232.993229 
L 56.335679 233.322454 
L 55.990092 233.871444 
L 55.735863 234.256624 
L 55.487101 234.56045 
L 54.98411 235.144197 
L 54.941356 235.190794 
L 54.48112 235.609777 
L 53.978129 236.041162 
L 53.872641 236.124964 
L 53.475138 236.39553 
L 52.972148 236.711547 
L 52.469157 237.001119 
L 52.356697 237.059135 
L 51.966166 237.2348 
L 51.463176 237.435131 
L 50.960185 237.60923 
L 50.457195 237.756189 
L 49.954204 237.875052 
L 49.451213 237.964823 
L 49.209481 237.993305 
L 48.948223 238.02041 
L 48.445232 238.045038 
L 47.942241 238.041494 
L 47.439251 238.008871 
" clip-path="url(#p444197396b)" style="fill: none; stroke: #9aa3ad; stroke-width: 0.7"/>
    <path d="M 43.918316 243.668517 
L 43.620301 243.598326 
L 43.415326 243.545634 
L 42.912335 243.396655 
L 42.409344 243.227063 
L 41.906354 243.036429 
L 41.403363 242.824312 
L 41.058419 242.664156 
L 40.900372 242.583164 
L 40.397382 242.301838 
L 39.894391 241.995009 
L 39.493359 241.729985 
L 39.391401 241.654671 
L 38.88841 241.255391 
L 38.385419 240.824995 
L 38.353408 240.795815 
L 37.882429 240.308044 
L 37.479784 239.861645 
L 37.379438 239.732857 
L 36.876447 239.046179 
L 36.794451 238.927475 
L 36.373457 238.202348 
L 36.25886 237.993305 
L 35.870466 237.118861 
L 35.84534 237.059135 
L 35.542016 236.124964 
L 35.367476 235.358918 
L 35.331067 235.190794 
L 35.210666 234.256624 
L 35.171173 233.322454 
L 35.209605 232.388284 
L 35.323126 231.454114 
L 35.367476 231.233304 
L 35.514106 230.519944 
L 35.778814 229.585773 
L 35.870466 229.331851 
L 36.121807 228.651603 
L 36.373457 228.088541 
L 36.543336 227.717433 
L 36.876447 227.097211 
L 37.049252 226.783263 
L 37.379438 226.260582 
L 37.646003 225.849093 
L 37.882429 225.52574 
L 38.340712 224.914923 
L 38.385419 224.861434 
L 38.88841 224.278025 
L 39.152096 223.980753 
L 39.391401 223.73622 
L 39.894391 223.23819 
L 40.094546 223.046582 
L 40.397382 222.781678 
L 40.900372 222.35678 
L 41.200505 222.112412 
L 41.403363 221.960449 
L 41.906354 221.598873 
L 42.409344 221.251251 
L 42.520112 221.178242 
L 42.912335 220.93911 
L 43.415326 220.646604 
L 43.918316 220.368092 
L 44.155229 220.244072 
L 44.421307 220.114622 
L 44.924298 219.884304 
L 45.427288 219.667932 
L 45.930279 219.465766 
L 46.348429 219.309902 
L 46.433269 219.2804 
L 46.93626 219.120174 
L 47.439251 218.974025 
L 47.942241 218.842205 
L 48.445232 218.724971 
L 48.948223 218.622588 
L 49.451213 218.535326 
L 49.954204 218.463463 
L 50.457195 218.407282 
L 50.852421 218.375732 
L 50.960185 218.367695 
L 51.463176 218.345486 
L 51.966166 218.338675 
L 52.469157 218.347533 
L 52.972148 218.372335 
L 53.014017 218.375732 
L 53.475138 218.416356 
L 53.978129 218.478527 
L 54.48112 218.558925 
L 54.98411 218.657907 
L 55.487101 218.775837 
L 55.990092 218.913091 
L 56.493082 219.070053 
L 56.996073 219.247119 
L 57.156639 219.309902 
L 57.499063 219.45702 
L 58.002054 219.695742 
L 58.505045 219.958102 
L 59.007061 220.244072 
L 59.008035 220.244689 
L 59.511026 220.588312 
L 60.014017 220.960416 
L 60.288088 221.178242 
L 60.517007 221.383434 
L 61.019998 221.866418 
L 61.259876 222.112412 
L 61.522989 222.422202 
L 62.019777 223.046582 
L 62.025979 223.055733 
L 62.52897 223.842958 
L 62.612013 223.980753 
L 63.03196 224.82659 
L 63.073454 224.914923 
L 63.42003 225.849093 
L 63.534951 226.270778 
L 63.667572 226.783263 
L 63.824204 227.717433 
L 63.897576 228.651603 
L 63.890809 229.585773 
L 63.806872 230.519944 
L 63.648588 231.454114 
L 63.534951 231.912945 
L 63.414457 232.388284 
L 63.104832 233.322454 
L 63.03196 233.500594 
L 62.71534 234.256624 
L 62.52897 234.631891 
L 62.244638 235.190794 
L 62.025979 235.562369 
L 61.686644 236.124964 
L 61.522989 236.363917 
L 61.034651 237.059135 
L 61.019998 237.077771 
L 60.517007 237.698382 
L 60.271365 237.993305 
L 60.014017 238.272263 
L 59.511026 238.801493 
L 59.387209 238.927475 
L 59.008035 239.27885 
L 58.505045 239.730225 
L 58.353013 239.861645 
L 58.002054 240.139986 
L 57.499063 240.524265 
L 57.129395 240.795815 
L 56.996073 240.886235 
L 56.493082 241.212104 
L 55.990092 241.524101 
L 55.641668 241.729985 
L 55.487101 241.814728 
L 54.98411 242.075698 
L 54.48112 242.322805 
L 53.978129 242.555783 
L 53.727929 242.664156 
L 53.475138 242.766147 
L 52.972148 242.954706 
L 52.469157 243.129236 
L 51.966166 243.289479 
L 51.463176 243.435173 
L 50.960185 243.566049 
L 50.819342 243.598326 
L 50.457195 243.675842 
L 49.954204 243.768969 
L 49.451213 243.847483 
L 48.948223 243.911124 
L 48.445232 243.959632 
L 47.942241 243.992736 
L 47.439251 244.010161 
L 46.93626 244.011624 
L 46.433269 243.996837 
L 45.930279 243.965503 
L 45.427288 243.917319 
L 44.924298 243.851973 
L 44.421307 243.769148 
L 43.918316 243.668517 
z
" clip-path="url(#p444197396b)" style="fill: none; stroke: #9aa3ad; stroke-width: 0.7"/>
    <path d="M 40.900372 254.874275 
L 40.480091 254.808367 
L 40.397382 254.794797 
L 39.894391 254.702631 
L 39.391401 254.600492 
L 38.88841 254.488274 
L 38.385419 254.365873 
L 37.882429 254.233181 
L 37.379438 254.09009 
L 36.876447 253.93649 
L 36.685234 253.874197 
L 36.373457 253.76757 
L 35.870466 253.584503 
L 35.367476 253.390022 
L 34.864485 253.184001 
L 34.361494 252.966308 
L 34.303702 252.940027 
L 33.858504 252.726797 
L 33.355513 252.473378 
L 32.852522 252.20719 
L 32.489291 252.005857 
L 32.349532 251.923998 
L 31.846541 251.61639 
L 31.34355 251.294714 
L 31.009128 251.071687 
L 30.84056 250.95245 
L 30.337569 250.582303 
L 29.834579 250.19653 
L 29.760381 250.137517 
L 29.331588 249.774238 
L 28.828597 249.331132 
L 28.688567 249.203347 
L 28.325607 248.848902 
L 27.822616 248.339168 
L 27.755799 248.269176 
L 27.319625 247.777637 
L 26.940528 247.335006 
L 26.816635 247.178481 
L 26.313644 246.521618 
L 26.224061 246.400836 
L 25.810653 245.793299 
L 25.595456 245.466666 
L 25.307663 244.986656 
L 25.043757 244.532496 
L 24.804672 244.075906 
L 24.56207 243.598326 
L 24.301682 243.022558 
L 24.144299 242.664156 
L 23.798691 241.766476 
L 23.785038 241.729985 
L 23.483293 240.795815 
L 23.2957 240.103337 
L 23.232009 239.861645 
L 23.031608 238.927475 
L 22.877293 237.993305 
L 22.79271 237.270702 
L 22.768593 237.059135 
L 22.704877 236.124964 
L 22.68363 235.190794 
L 22.70401 234.256624 
L 22.765197 233.322454 
L 22.79271 233.069691 
L 22.867806 232.388284 
L 23.0109 231.454114 
L 23.193163 230.519944 
L 23.2957 230.087381 
L 23.41609 229.585773 
L 23.679312 228.651603 
L 23.798691 228.282309 
L 23.983591 227.717433 
L 24.301682 226.854189 
L 24.328149 226.783263 
L 24.716291 225.849093 
L 24.804672 225.655734 
L 25.147622 224.914923 
L 25.307663 224.597928 
L 25.623299 223.980753 
L 25.810653 223.642502 
L 26.145069 223.046582 
L 26.313644 222.76758 
L 26.714775 222.112412 
L 26.816635 221.957106 
L 27.319625 221.200538 
L 27.33467 221.178242 
L 27.822616 220.500477 
L 28.009791 220.244072 
L 28.325607 219.836965 
L 28.740276 219.309902 
L 28.828597 219.203894 
L 29.331588 218.609879 
L 29.532946 218.375732 
L 29.834579 218.043574 
L 30.337569 217.498087 
L 30.390637 217.441561 
L 30.84056 216.986557 
L 31.321723 216.507391 
L 31.34355 216.4867 
L 31.846541 216.019173 
L 32.334157 215.573221 
L 32.349532 215.559808 
L 32.852522 215.130063 
L 33.355513 214.707763 
L 33.439124 214.639051 
L 33.858504 214.309709 
L 34.361494 213.922374 
L 34.649987 213.704881 
L 34.864485 213.550075 
L 35.367476 213.195198 
L 35.870466 212.847773 
L 35.98484 212.770711 
L 36.373457 212.519665 
L 36.876447 212.202386 
L 37.379438 211.892575 
L 37.472961 211.836541 
L 37.882429 211.600988 
L 38.385419 211.319214 
L 38.88841 211.044909 
L 39.157617 210.90237 
L 39.391401 210.783366 
L 39.894391 210.535168 
L 40.397382 210.294427 
L 40.900372 210.06122 
L 41.108185 209.9682 
L 41.403363 209.841034 
L 41.906354 209.632067 
L 42.409344 209.430608 
L 42.912335 209.236732 
L 43.415326 209.050515 
L 43.461923 209.03403 
L 43.918316 208.878486 
L 44.421307 208.714658 
L 44.924298 208.558448 
L 45.427288 208.409932 
L 45.930279 208.269183 
L 46.433269 208.136277 
L 46.580162 208.09986 
L 46.93626 208.014747 
L 47.439251 207.90235 
L 47.942241 207.797742 
L 48.445232 207.700995 
L 48.948223 207.612186 
L 49.451213 207.531389 
L 49.954204 207.458682 
L 50.457195 207.394142 
L 50.960185 207.337848 
L 51.463176 207.28988 
L 51.966166 207.250319 
L 52.469157 207.219247 
L 52.972148 207.196746 
L 53.475138 207.1829 
L 53.978129 207.177795 
L 54.48112 207.181517 
L 54.98411 207.194153 
L 55.487101 207.215792 
L 55.990092 207.246524 
L 56.493082 207.286439 
L 56.996073 207.335629 
L 57.499063 207.394188 
L 58.002054 207.462211 
L 58.505045 207.539793 
L 59.008035 207.627031 
L 59.511026 207.724024 
L 60.014017 207.830873 
L 60.517007 207.947677 
L 61.019998 208.07454 
L 61.113203 208.09986 
L 61.522989 208.216577 
L 62.025979 208.37052 
L 62.52897 208.535355 
L 63.03196 208.711202 
L 63.534951 208.89818 
L 63.88005 209.03403 
L 64.037942 209.099399 
L 64.540932 209.319094 
L 65.043923 209.550927 
L 65.546914 209.79504 
L 65.88686 209.9682 
L 66.049904 210.055836 
L 66.552895 210.338766 
L 67.055885 210.635183 
L 67.489557 210.90237 
L 67.558876 210.947596 
L 68.061867 211.289254 
L 68.564857 211.64584 
L 68.823465 211.836541 
L 69.067848 212.028145 
L 69.570839 212.437993 
L 69.963621 212.770711 
L 70.073829 212.870398 
L 70.57682 213.341832 
L 70.950016 213.704881 
L 71.079811 213.840383 
L 71.582801 214.383836 
L 71.810996 214.639051 
L 72.085792 214.970787 
L 72.567825 215.573221 
L 72.588782 215.601673 
L 73.091773 216.306487 
L 73.230575 216.507391 
L 73.594764 217.084631 
L 73.812941 217.441561 
L 74.097754 217.956446 
L 74.322679 218.375732 
L 74.600745 218.954911 
L 74.766179 219.309902 
L 75.103736 220.130547 
L 75.149102 220.244072 
L 75.473746 221.178242 
L 75.606726 221.628829 
L 75.74552 222.112412 
L 75.966729 223.046582 
L 76.109717 223.811611 
L 76.14049 223.980753 
L 76.266502 224.914923 
L 76.348515 225.849093 
L 76.387416 226.783263 
L 76.384067 227.717433 
L 76.339304 228.651603 
L 76.253947 229.585773 
L 76.12879 230.519944 
L 76.109717 230.627842 
L 75.96184 231.454114 
L 75.755569 232.388284 
L 75.606726 232.955604 
L 75.509273 233.322454 
L 75.222002 234.256624 
L 75.103736 234.595538 
L 74.893398 235.190794 
L 74.600745 235.9324 
L 74.523785 236.124964 
L 74.111301 237.059135 
L 74.097754 237.087145 
L 73.653891 237.993305 
L 73.594764 238.104473 
L 73.151335 238.927475 
L 73.091773 239.029922 
L 72.601845 239.861645 
L 72.588782 239.882308 
L 72.085792 240.666662 
L 72.001826 240.795815 
L 71.582801 241.398926 
L 71.34961 241.729985 
L 71.079811 242.089891 
L 70.643284 242.664156 
L 70.57682 242.746612 
L 70.073829 243.360704 
L 69.876236 243.598326 
L 69.570839 243.945712 
L 69.067848 244.509433 
L 69.046898 244.532496 
L 68.564857 245.035777 
L 68.14583 245.466666 
L 68.061867 245.548771 
L 67.558876 246.031512 
L 67.167639 246.400836 
L 67.055885 246.501378 
L 66.552895 246.945092 
L 66.10313 247.335006 
L 66.049904 247.379072 
L 65.546914 247.786685 
L 65.043923 248.186854 
L 64.938131 248.269176 
L 64.540932 248.564845 
L 64.037942 248.931563 
L 63.65704 249.203347 
L 63.534951 249.286823 
L 63.03196 249.622443 
L 62.52897 249.950635 
L 62.235395 250.137517 
L 62.025979 250.265445 
L 61.522989 250.564723 
L 61.019998 250.856564 
L 60.639102 251.071687 
L 60.517007 251.13795 
L 60.014017 251.402875 
L 59.511026 251.660368 
L 59.008035 251.910353 
L 58.809444 252.005857 
L 58.505045 252.146687 
L 58.002054 252.371679 
L 57.499063 252.589181 
L 56.996073 252.79912 
L 56.645368 252.940027 
L 56.493082 252.998954 
L 55.990092 253.185689 
L 55.487101 253.364893 
L 54.98411 253.536492 
L 54.48112 253.700411 
L 53.978129 253.856575 
L 53.918201 253.874197 
L 53.475138 253.999767 
L 52.972148 254.134633 
L 52.469157 254.261793 
L 51.966166 254.381173 
L 51.463176 254.492698 
L 50.960185 254.596292 
L 50.457195 254.691878 
L 49.954204 254.77938 
L 49.770053 254.808367 
L 49.451213 254.856766 
L 48.948223 254.925089 
L 48.445232 254.985395 
L 47.942241 255.03761 
L 47.439251 255.081657 
L 46.93626 255.117458 
L 46.433269 255.144934 
L 45.930279 255.164007 
L 45.427288 255.174595 
L 44.924298 255.176617 
L 44.421307 255.16999 
L 43.918316 255.154632 
L 43.415326 255.130456 
L 42.912335 255.097377 
L 42.409344 255.055308 
L 41.906354 255.004161 
L 41.403363 254.943847 
L 40.900372 254.874275 
z
" clip-path="url(#p444197396b)" style="fill: none; stroke: #9aa3ad; stroke-width: 0.7"/>
    <path d="M 7.2 213.73775 
L 8.708972 211.546163 
L 10.720934 208.929514 
L 13.235888 206.050882 
L 15.836046 203.429009 
L 18.768785 200.825142 
L 21.38819 198.758158 
L 24.804672 196.382947 
L 27.822616 194.543669 
L 30.84056 192.922458 
L 34.361494 191.282327 
L 37.882429 189.898492 
L 41.403363 188.748584 
L 44.924298 187.826058 
L 48.445232 187.124607 
L 52.206239 186.613946 
L 55.487101 186.375271 
L 59.008035 186.333081 
L 62.52897 186.519657 
L 66.049904 186.950856 
L 69.570839 187.638143 
L 72.686541 188.482287 
L 75.606726 189.496057 
L 78.62467 190.798714 
L 81.340308 192.218967 
L 83.654576 193.653752 
L 86.16953 195.483531 
L 88.181492 197.195126 
L 90.193455 199.183484 
L 91.702427 200.901816 
L 93.211398 202.874584 
L 94.789348 205.297349 
L 96.281676 208.09986 
L 97.466005 210.90237 
L 98.378035 213.704881 
L 99.042033 216.507391 
L 99.476861 219.309902 
L 99.696429 222.112412 
L 99.709777 224.914923 
L 99.52347 227.717433 
L 99.142738 230.519944 
L 98.568235 233.322454 
L 97.738314 236.318671 
L 96.732333 239.18981 
L 95.667308 241.729985 
L 94.21738 244.664941 
L 92.688614 247.335006 
L 90.696445 250.352025 
L 88.684483 253.021529 
L 86.16953 255.950704 
L 83.641838 258.545048 
L 80.530745 261.347559 
L 77.618689 263.649083 
L 74.600745 265.760951 
L 71.582801 267.625515 
L 68.564857 269.268472 
L 65.043923 270.93192 
L 61.522989 272.341356 
L 58.002054 273.514073 
L 54.48112 274.457508 
L 50.960185 275.178656 
L 47.439251 275.682146 
L 43.918316 275.967791 
L 40.397382 276.031578 
L 36.876447 275.865335 
L 33.355513 275.460483 
L 30.337569 274.906595 
L 27.319625 274.151613 
L 24.301682 273.173608 
L 21.283738 271.947342 
L 18.725055 270.68926 
L 16.253831 269.246391 
L 13.738878 267.516752 
L 11.726916 265.904575 
L 9.714953 264.038884 
L 7.702991 261.85208 
L 7.2 261.247558 
L 7.2 261.247558 
" clip-path="url(#p444197396b)" style="fill: none; stroke: #9aa3ad; stroke-width: 0.7"/>
    <path d="M 7.2 163.725943 
L 11.726916 161.164758 
L 16.253831 158.855591 
L 20.921367 156.720502 
L 25.810653 154.739411 
L 30.84056 152.959506 
L 35.870466 151.433903 
L 40.900372 150.151846 
L 45.930279 149.112223 
L 50.960185 148.309847 
L 55.990092 147.747275 
L 61.019998 147.421973 
L 65.546914 147.337989 
L 70.073829 147.45558 
L 74.600745 147.781311 
L 79.127661 148.320125 
L 83.654576 149.086517 
L 88.181492 150.090298 
L 92.205417 151.196089 
L 96.229342 152.518617 
L 100.253267 154.072951 
L 104.277192 155.883675 
L 108.301117 157.98032 
L 111.822052 160.076983 
L 115.166947 162.325523 
L 118.36093 164.744614 
L 121.378874 167.309874 
L 124.396818 170.198934 
L 126.911771 172.902965 
L 129.426724 175.938441 
L 131.438687 178.66111 
L 133.593022 181.943096 
L 135.462612 185.199113 
L 137.108761 188.482287 
L 138.710412 192.218967 
L 140.04734 195.955648 
L 141.137742 199.692329 
L 142.00149 203.449272 
L 142.637975 207.16569 
L 143.069735 210.90237 
L 143.299942 214.639051 
L 143.335249 218.375732 
L 143.180089 222.112412 
L 142.83784 225.849093 
L 142.310638 229.585773 
L 141.498499 233.78086 
L 140.452048 237.993305 
L 139.324976 241.729985 
L 137.977565 245.5515 
L 136.468593 249.28192 
L 134.45663 253.637226 
L 132.444668 257.491437 
L 130.432705 260.968251 
L 127.917752 264.908686 
L 125.402799 268.48651 
L 122.887846 271.772252 
L 119.869902 275.393005 
L 116.348968 279.243775 
L 112.748754 282.833472 
L 108.629847 286.570153 
L 104.780183 289.751981 
L 100.756258 292.797178 
L 96.732333 295.583003 
L 92.708408 298.132772 
L 88.181492 300.742432 
L 86.745039 301.516875 
L 86.745039 301.516875 
" clip-path="url(#p444197396b)" style="fill: none; stroke: #9aa3ad; stroke-width: 0.7"/>
    <path d="M 7.2 87.561377 
L 13.738878 85.269475 
L 20.277756 83.206016 
L 26.816635 81.367001 
L 33.355513 79.748523 
L 39.894391 78.347352 
L 46.433269 77.162683 
L 52.972148 76.193043 
L 59.511026 75.438015 
L 66.049904 74.900106 
L 72.588782 74.578915 
L 79.127661 74.478832 
L 85.666539 74.603502 
L 92.205417 74.957961 
L 98.744295 75.547133 
L 105.283174 76.379662 
L 111.319061 77.372278 
L 117.354949 78.588806 
L 123.390837 80.038 
L 128.923733 81.582843 
L 134.45663 83.344411 
L 139.989527 85.335928 
L 145.569666 87.591911 
L 151.055321 90.071805 
L 156.085228 92.590043 
L 157.5942 93.393892 
L 157.5942 93.393892 
" clip-path="url(#p444197396b)" style="fill: none; stroke: #9aa3ad; stroke-width: 0.7"/>
   </g>
   <g id="matplotlib.axis_1"/>
   <g id="matplotlib.axis_2"/>
   <g id="patch_3">
    <path d="M 157.5942 301.516875 
L 157.5942 22.2 
" style="fill: none; stroke: #000000; stroke-width: 0.8; stroke-linejoin: miter; stroke-linecap: square"/>
   </g>
   <g id="patch_4">
    <path d="M 7.2 22.2 
L 157.5942 22.2 
" style="fill: none; stroke: #000000; stroke-width: 0.8; stroke-linejoin: miter; stroke-linecap: square"/>
   </g>
   <g id="text_1">
    <!-- well-conditioned: $\kappa_2(A)=1.5$ -->
    <g transform="translate(9.0171 16.2) scale(0.12 -0.12)">
     <defs>
      <path id="STIXGeneral-Regular-77" d="M 4442 2880 
L 4442 2784 
Q 4346 2752 4301 2691 
Q 4256 2630 4179 2438 
L 3296 224 
Q 3168 -90 3117 -90 
Q 3085 -90 3062 -48 
Q 3040 -6 2963 186 
L 2381 1696 
L 1664 160 
Q 1549 -90 1504 -90 
Q 1446 -90 1338 192 
L 474 2381 
Q 378 2630 314 2700 
Q 250 2771 134 2784 
L 134 2880 
L 1286 2880 
L 1286 2784 
Q 1120 2765 1056 2720 
Q 992 2675 992 2573 
Q 992 2477 1030 2381 
L 1664 710 
L 2246 1984 
L 2118 2342 
Q 2029 2598 1942 2681 
Q 1856 2765 1677 2784 
L 1677 2880 
L 2976 2880 
L 2976 2784 
Q 2752 2752 2678 2707 
Q 2605 2662 2605 2560 
Q 2605 2458 2714 2176 
L 3251 742 
L 3827 2163 
Q 3936 2432 3936 2592 
Q 3936 2669 3875 2710 
Q 3814 2752 3654 2784 
L 3654 2880 
L 4442 2880 
z
" transform="scale(0.015625)"/>
      <path id="STIXGeneral-Regular-65" d="M 2611 1050 
L 2714 1005 
Q 2330 -64 1376 -64 
Q 813 -64 486 329 
Q 160 723 160 1389 
Q 160 2074 525 2509 
Q 890 2944 1485 2944 
Q 2061 2944 2374 2502 
Q 2560 2246 2592 1773 
L 621 1773 
Q 646 1370 700 1158 
Q 755 947 915 730 
Q 1184 378 1626 378 
Q 1939 378 2153 531 
Q 2368 685 2611 1050 
z
M 634 1978 
L 1939 1978 
Q 1882 2381 1750 2547 
Q 1619 2714 1312 2714 
Q 1043 2714 864 2525 
Q 685 2336 634 1978 
z
" transform="scale(0.015625)"/>
      <path id="STIXGeneral-Regular-6c" d="M 1645 0 
L 134 0 
L 134 96 
Q 435 122 531 221 
Q 627 320 627 589 
L 627 3590 
Q 627 3821 569 3910 
Q 512 4000 358 4000 
Q 224 4000 122 3987 
L 122 4090 
Q 730 4237 1133 4371 
L 1165 4346 
L 1165 557 
Q 1165 288 1254 201 
Q 1344 115 1645 96 
L 1645 0 
z
" transform="scale(0.015625)"/>
      <path id="STIXGeneral-Regular-2d" d="M 1824 1242 
L 250 1242 
L 250 1645 
L 1824 1645 
L 1824 1242 
z
" transform="scale(0.015625)"/>
      <path id="STIXGeneral-Regular-63" d="M 2547 998 
L 2637 941 
Q 2362 403 2112 205 
Q 1786 -64 1376 -64 
Q 845 -64 502 336 
Q 160 736 160 1357 
Q 160 2170 698 2618 
Q 1094 2944 1562 2944 
Q 1965 2944 2256 2749 
Q 2547 2554 2547 2285 
Q 2547 2176 2457 2096 
Q 2368 2016 2246 2016 
Q 2022 2016 1939 2310 
L 1901 2451 
Q 1850 2630 1773 2694 
Q 1696 2758 1523 2758 
Q 1133 2758 893 2451 
Q 653 2144 653 1645 
Q 653 1094 928 745 
Q 1203 397 1645 397 
Q 1920 397 2118 528 
Q 2317 659 2547 998 
z
" transform="scale(0.015625)"/>
      <path id="STIXGeneral-Regular-6f" d="M 3008 1478 
Q 3008 806 2608 371 
Q 2208 -64 1568 -64 
Q 979 -64 582 368 
Q 186 800 186 1459 
Q 186 2125 582 2534 
Q 979 2944 1626 2944 
Q 2221 2944 2614 2537 
Q 3008 2131 3008 1478 
z
M 2432 1306 
Q 2432 2035 2112 2445 
Q 1856 2765 1504 2765 
Q 1171 2765 966 2493 
Q 762 2221 762 1747 
Q 762 928 1101 435 
Q 1318 115 1677 115 
Q 2029 115 2230 432 
Q 2432 749 2432 1306 
z
" transform="scale(0.015625)"/>
      <path id="STIXGeneral-Regular-6e" d="M 3104 0 
L 1773 0 
L 1779 96 
Q 2016 115 2096 233 
Q 2176 352 2176 672 
L 2176 1946 
Q 2176 2592 1709 2592 
Q 1549 2592 1408 2515 
Q 1267 2438 1050 2227 
L 1050 461 
Q 1050 269 1136 192 
Q 1222 115 1466 96 
L 1466 0 
L 115 0 
L 115 96 
Q 358 115 435 214 
Q 512 314 512 602 
L 512 2157 
Q 512 2394 467 2483 
Q 422 2573 288 2573 
Q 160 2573 102 2547 
L 102 2656 
Q 550 2784 979 2944 
L 1030 2925 
L 1030 2426 
L 1037 2426 
Q 1491 2944 1958 2944 
Q 2323 2944 2518 2688 
Q 2714 2432 2714 1958 
L 2714 544 
Q 2714 288 2790 205 
Q 2867 122 3104 96 
L 3104 0 
z
" transform="scale(0.015625)"/>
      <path id="STIXGeneral-Regular-64" d="M 3142 269 
L 2202 -64 
L 2176 -45 
L 2176 365 
Q 1869 -64 1357 -64 
Q 826 -64 499 317 
Q 173 698 173 1312 
Q 173 1990 563 2467 
Q 954 2944 1504 2944 
Q 1850 2944 2176 2669 
L 2176 3667 
Q 2176 3866 2118 3930 
Q 2061 3994 1882 3994 
Q 1792 3994 1741 3987 
L 1741 4090 
Q 2323 4243 2682 4371 
L 2714 4358 
L 2714 730 
Q 2714 506 2768 435 
Q 2822 365 2995 365 
Q 3034 365 3142 371 
L 3142 269 
z
M 2176 653 
L 2176 2125 
Q 2176 2381 1981 2573 
Q 1786 2765 1523 2765 
Q 1158 2765 940 2438 
Q 723 2112 723 1568 
Q 723 979 963 624 
Q 1203 269 1606 269 
Q 1907 269 2080 474 
Q 2176 582 2176 653 
z
" transform="scale(0.015625)"/>
      <path id="STIXGeneral-Regular-69" d="M 1152 4045 
Q 1152 3904 1056 3811 
Q 960 3718 819 3718 
Q 685 3718 592 3811 
Q 499 3904 499 4045 
Q 499 4179 595 4275 
Q 691 4371 826 4371 
Q 966 4371 1059 4275 
Q 1152 4179 1152 4045 
z
M 1619 0 
L 102 0 
L 102 96 
Q 435 115 521 211 
Q 608 307 608 666 
L 608 2118 
Q 608 2342 563 2432 
Q 518 2522 397 2522 
Q 243 2522 128 2490 
L 128 2592 
L 1120 2944 
L 1146 2918 
L 1146 672 
Q 1146 314 1226 218 
Q 1306 122 1619 96 
L 1619 0 
z
" transform="scale(0.015625)"/>
      <path id="STIXGeneral-Regular-74" d="M 1702 493 
L 1786 422 
Q 1478 -64 1011 -64 
Q 448 -64 448 749 
L 448 2675 
L 109 2675 
Q 83 2694 83 2720 
Q 83 2771 192 2842 
Q 435 2982 813 3526 
Q 826 3546 874 3606 
Q 922 3667 941 3706 
Q 986 3706 986 3622 
L 986 2880 
L 1632 2880 
L 1632 2675 
L 986 2675 
L 986 845 
Q 986 538 1062 403 
Q 1139 269 1318 269 
Q 1510 269 1702 493 
z
" transform="scale(0.015625)"/>
      <path id="STIXGeneral-Regular-3a" d="M 1123 2832 
Q 1229 2726 1229 2579 
Q 1229 2432 1126 2329 
Q 1024 2227 877 2227 
Q 730 2227 624 2332 
Q 518 2438 518 2579 
Q 518 2733 620 2835 
Q 723 2938 877 2938 
Q 1018 2938 1123 2832 
z
M 1229 282 
Q 1229 141 1126 35 
Q 1024 -70 877 -70 
Q 730 -70 624 35 
Q 518 141 518 282 
Q 518 435 620 537 
Q 723 640 877 640 
Q 1018 640 1123 534 
Q 1229 429 1229 282 
z
" transform="scale(0.015625)"/>
      <path id="STIXGeneral-Regular-20" transform="scale(0.015625)"/>
      <path id="Cmmi10-2219" d="M 341 109 
Q 341 147 347 166 
L 959 2625 
Q 984 2716 1059 2772 
Q 1134 2828 1228 2828 
Q 1309 2828 1365 2779 
Q 1422 2731 1422 2650 
Q 1422 2631 1420 2620 
Q 1419 2609 1416 2597 
L 1184 1672 
Q 1441 1756 1866 2111 
Q 2291 2466 2508 2612 
Q 2725 2759 3041 2759 
Q 3144 2759 3214 2695 
Q 3284 2631 3284 2522 
Q 3284 2372 3176 2267 
Q 3069 2163 2919 2163 
Q 2816 2163 2745 2230 
Q 2675 2297 2675 2400 
Q 2675 2472 2700 2522 
Q 2547 2459 2386 2346 
Q 2225 2234 2094 2120 
Q 1963 2006 1778 1853 
Q 1594 1700 1447 1619 
Q 1709 1619 1984 1562 
Q 2259 1506 2461 1356 
Q 2663 1206 2663 947 
Q 2663 844 2638 769 
Q 2578 513 2578 384 
Q 2578 97 2778 97 
Q 3006 97 3128 350 
Q 3250 603 3328 941 
Q 3341 978 3378 978 
L 3456 978 
Q 3481 978 3497 961 
Q 3513 944 3513 922 
Q 3513 916 3506 903 
Q 3272 -72 2766 -72 
Q 2584 -72 2445 12 
Q 2306 97 2231 242 
Q 2156 388 2156 569 
Q 2156 684 2181 781 
Q 2203 869 2203 928 
Q 2203 1134 2020 1253 
Q 1838 1372 1589 1415 
Q 1341 1459 1125 1459 
L 800 141 
Q 778 53 701 -9 
Q 625 -72 531 -72 
Q 453 -72 397 -22 
Q 341 28 341 109 
z
" transform="scale(0.015625)"/>
      <path id="Cmr10-32" d="M 319 0 
L 319 172 
Q 319 188 331 206 
L 1325 1306 
Q 1550 1550 1690 1715 
Q 1831 1881 1968 2097 
Q 2106 2313 2186 2536 
Q 2266 2759 2266 3009 
Q 2266 3272 2169 3511 
Q 2072 3750 1880 3894 
Q 1688 4038 1416 4038 
Q 1138 4038 916 3870 
Q 694 3703 603 3438 
Q 628 3444 672 3444 
Q 816 3444 917 3347 
Q 1019 3250 1019 3097 
Q 1019 2950 917 2848 
Q 816 2747 672 2747 
Q 522 2747 420 2851 
Q 319 2956 319 3097 
Q 319 3338 409 3548 
Q 500 3759 670 3923 
Q 841 4088 1055 4175 
Q 1269 4263 1509 4263 
Q 1875 4263 2190 4108 
Q 2506 3953 2690 3670 
Q 2875 3388 2875 3009 
Q 2875 2731 2753 2481 
Q 2631 2231 2440 2026 
Q 2250 1822 1953 1562 
Q 1656 1303 1563 1216 
L 838 519 
L 1453 519 
Q 1906 519 2211 526 
Q 2516 534 2534 550 
Q 2609 631 2688 1141 
L 2875 1141 
L 2694 0 
L 319 0 
z
" transform="scale(0.015625)"/>
      <path id="Cmr10-28" d="M 1984 -1588 
Q 1628 -1306 1370 -942 
Q 1113 -578 948 -165 
Q 784 247 703 697 
Q 622 1147 622 1600 
Q 622 2059 703 2509 
Q 784 2959 951 3375 
Q 1119 3791 1378 4153 
Q 1638 4516 1984 4788 
Q 1984 4800 2016 4800 
L 2075 4800 
Q 2094 4800 2109 4783 
Q 2125 4766 2125 4744 
Q 2125 4716 2113 4703 
Q 1800 4397 1592 4047 
Q 1384 3697 1257 3301 
Q 1131 2906 1075 2482 
Q 1019 2059 1019 1600 
Q 1019 -434 2106 -1491 
Q 2125 -1509 2125 -1544 
Q 2125 -1559 2108 -1579 
Q 2091 -1600 2075 -1600 
L 2016 -1600 
Q 1984 -1600 1984 -1588 
z
" transform="scale(0.015625)"/>
      <path id="Cmmi10-41" d="M 288 0 
Q 225 0 225 84 
Q 250 225 306 225 
Q 566 225 755 328 
Q 944 431 1081 647 
Q 1094 659 1094 659 
L 3378 4513 
Q 3428 4581 3500 4581 
L 3584 4581 
Q 3603 4581 3622 4573 
Q 3641 4566 3655 4548 
Q 3669 4531 3669 4513 
L 4056 378 
Q 4056 350 4084 294 
Q 4147 225 4563 225 
Q 4628 225 4628 141 
Q 4606 56 4592 28 
Q 4578 0 4519 0 
L 2919 0 
Q 2859 0 2859 84 
Q 2894 225 2944 225 
Q 3450 225 3481 397 
L 3384 1453 
L 1806 1453 
L 1294 594 
Q 1247 525 1247 434 
Q 1247 322 1355 273 
Q 1463 225 1594 225 
Q 1656 225 1656 141 
Q 1634 50 1621 25 
Q 1609 0 1550 0 
L 288 0 
z
M 1931 1678 
L 3359 1678 
L 3169 3750 
L 1931 1678 
z
" transform="scale(0.015625)"/>
      <path id="Cmr10-29" d="M 416 -1600 
Q 359 -1600 359 -1544 
Q 359 -1516 372 -1503 
Q 1466 -434 1466 1600 
Q 1466 3634 384 4691 
Q 359 4706 359 4744 
Q 359 4766 376 4783 
Q 394 4800 416 4800 
L 475 4800 
Q 494 4800 506 4788 
Q 966 4425 1272 3906 
Q 1578 3388 1720 2800 
Q 1863 2213 1863 1600 
Q 1863 1147 1786 708 
Q 1709 269 1542 -157 
Q 1375 -584 1119 -945 
Q 863 -1306 506 -1588 
Q 494 -1600 475 -1600 
L 416 -1600 
z
" transform="scale(0.015625)"/>
      <path id="Cmr10-3d" d="M 481 850 
Q 428 850 393 890 
Q 359 931 359 978 
Q 359 1031 393 1068 
Q 428 1106 481 1106 
L 4500 1106 
Q 4547 1106 4581 1068 
Q 4616 1031 4616 978 
Q 4616 931 4581 890 
Q 4547 850 4500 850 
L 481 850 
z
M 481 2094 
Q 428 2094 393 2131 
Q 359 2169 359 2222 
Q 359 2269 393 2309 
Q 428 2350 481 2350 
L 4500 2350 
Q 4547 2350 4581 2309 
Q 4616 2269 4616 2222 
Q 4616 2169 4581 2131 
Q 4547 2094 4500 2094 
L 481 2094 
z
" transform="scale(0.015625)"/>
      <path id="Cmr10-31" d="M 594 0 
L 594 225 
Q 1394 225 1394 428 
L 1394 3788 
Q 1063 3628 556 3628 
L 556 3853 
Q 1341 3853 1741 4263 
L 1831 4263 
Q 1853 4263 1873 4245 
Q 1894 4228 1894 4206 
L 1894 428 
Q 1894 225 2694 225 
L 2694 0 
L 594 0 
z
" transform="scale(0.015625)"/>
      <path id="Cmmi10-3a" d="M 538 353 
Q 538 497 644 600 
Q 750 703 891 703 
Q 978 703 1062 656 
Q 1147 609 1194 525 
Q 1241 441 1241 353 
Q 1241 213 1137 106 
Q 1034 0 891 0 
Q 750 0 644 106 
Q 538 213 538 353 
z
" transform="scale(0.015625)"/>
      <path id="Cmr10-35" d="M 556 728 
Q 622 541 758 387 
Q 894 234 1080 148 
Q 1266 63 1466 63 
Q 1928 63 2103 422 
Q 2278 781 2278 1294 
Q 2278 1516 2270 1667 
Q 2263 1819 2228 1959 
Q 2169 2184 2020 2353 
Q 1872 2522 1656 2522 
Q 1441 2522 1286 2456 
Q 1131 2391 1034 2303 
Q 938 2216 863 2119 
Q 788 2022 769 2016 
L 697 2016 
Q 681 2016 657 2036 
Q 634 2056 634 2075 
L 634 4213 
Q 634 4228 654 4245 
Q 675 4263 697 4263 
L 716 4263 
Q 1147 4056 1631 4056 
Q 2106 4056 2547 4263 
L 2566 4263 
Q 2588 4263 2606 4247 
Q 2625 4231 2625 4213 
L 2625 4153 
Q 2625 4122 2613 4122 
Q 2394 3831 2064 3668 
Q 1734 3506 1381 3506 
Q 1125 3506 856 3578 
L 856 2369 
Q 1069 2541 1236 2614 
Q 1403 2688 1663 2688 
Q 2016 2688 2295 2484 
Q 2575 2281 2725 1954 
Q 2875 1628 2875 1288 
Q 2875 903 2686 575 
Q 2497 247 2172 53 
Q 1847 -141 1466 -141 
Q 1150 -141 886 21 
Q 622 184 470 459 
Q 319 734 319 1044 
Q 319 1188 412 1278 
Q 506 1369 647 1369 
Q 788 1369 883 1276 
Q 978 1184 978 1044 
Q 978 906 883 811 
Q 788 716 647 716 
Q 625 716 597 720 
Q 569 725 556 728 
z
" transform="scale(0.015625)"/>
     </defs>
     <use xlink:href="#STIXGeneral-Regular-77"/>
     <use xlink:href="#STIXGeneral-Regular-65" transform="translate(72.199982 0)"/>
     <use xlink:href="#STIXGeneral-Regular-6c" transform="translate(116.599976 0)"/>
     <use xlink:href="#STIXGeneral-Regular-6c" transform="translate(144.399963 0)"/>
     <use xlink:href="#STIXGeneral-Regular-2d" transform="translate(172.199951 0)"/>
     <use xlink:href="#STIXGeneral-Regular-63" transform="translate(205.499939 0)"/>
     <use xlink:href="#STIXGeneral-Regular-6f" transform="translate(249.899933 0)"/>
     <use xlink:href="#STIXGeneral-Regular-6e" transform="translate(299.899918 0)"/>
     <use xlink:href="#STIXGeneral-Regular-64" transform="translate(349.899902 0)"/>
     <use xlink:href="#STIXGeneral-Regular-69" transform="translate(399.899887 0)"/>
     <use xlink:href="#STIXGeneral-Regular-74" transform="translate(427.699875 0)"/>
     <use xlink:href="#STIXGeneral-Regular-69" transform="translate(455.499863 0)"/>
     <use xlink:href="#STIXGeneral-Regular-6f" transform="translate(483.29985 0)"/>
     <use xlink:href="#STIXGeneral-Regular-6e" transform="translate(533.299835 0)"/>
     <use xlink:href="#STIXGeneral-Regular-65" transform="translate(583.29982 0)"/>
     <use xlink:href="#STIXGeneral-Regular-64" transform="translate(627.699814 0)"/>
     <use xlink:href="#STIXGeneral-Regular-3a" transform="translate(677.699799 0)"/>
     <use xlink:href="#STIXGeneral-Regular-20" transform="translate(705.499786 0)"/>
     <use xlink:href="#Cmmi10-2219" transform="translate(730.499771 0)"/>
     <use xlink:href="#Cmr10-32" transform="translate(788.116959 -17.00625) scale(0.7)"/>
     <use xlink:href="#Cmr10-28" transform="translate(829.494302 0)"/>
     <use xlink:href="#Cmmi10-41" transform="translate(868.312662 0)"/>
     <use xlink:href="#Cmr10-29" transform="translate(943.312662 0)"/>
     <use xlink:href="#Cmr10-3d" transform="translate(999.689615 0)"/>
     <use xlink:href="#Cmr10-31" transform="translate(1094.933755 0)"/>
     <use xlink:href="#Cmmi10-3a" transform="translate(1144.933755 0)"/>
     <use xlink:href="#Cmr10-35" transform="translate(1172.619302 0)"/>
    </g>
   </g>
   <g id="line2d_1">
    <path d="M 115.252605 91.084499 
L 80.920849 232.632376 
L 52.13145 225.649646 
L 50.776311 231.236807 
L 49.63994 230.961186 
L 49.58645 231.181722 
L 49.541595 231.170842 
" clip-path="url(#p444197396b)" style="fill: none; stroke: #56b4e9; stroke-width: 1.6; stroke-linecap: square"/>
    <defs>
     <path id="mbea6d9041b" d="M 0 2.25 
C 0.596707 2.25 1.169055 2.012926 1.59099 1.59099 
C 2.012926 1.169055 2.25 0.596707 2.25 0 
C 2.25 -0.596707 2.012926 -1.169055 1.59099 -1.59099 
C 1.169055 -2.012926 0.596707 -2.25 0 -2.25 
C -0.596707 -2.25 -1.169055 -2.012926 -1.59099 -1.59099 
C -2.012926 -1.169055 -2.25 -0.596707 -2.25 0 
C -2.25 0.596707 -2.012926 1.169055 -1.59099 1.59099 
C -1.169055 2.012926 -0.596707 2.25 0 2.25 
z
" style="stroke: #56b4e9"/>
    </defs>
    <g clip-path="url(#p444197396b)">
     <use xlink:href="#mbea6d9041b" x="115.252605" y="91.084499" style="fill: #ffffff; stroke: #56b4e9"/>
     <use xlink:href="#mbea6d9041b" x="80.920849" y="232.632376" style="fill: #ffffff; stroke: #56b4e9"/>
     <use xlink:href="#mbea6d9041b" x="52.13145" y="225.649646" style="fill: #ffffff; stroke: #56b4e9"/>
     <use xlink:href="#mbea6d9041b" x="50.776311" y="231.236807" style="fill: #ffffff; stroke: #56b4e9"/>
     <use xlink:href="#mbea6d9041b" x="49.63994" y="230.961186" style="fill: #ffffff; stroke: #56b4e9"/>
     <use xlink:href="#mbea6d9041b" x="49.58645" y="231.181722" style="fill: #ffffff; stroke: #56b4e9"/>
     <use xlink:href="#mbea6d9041b" x="49.541595" y="231.170842" style="fill: #ffffff; stroke: #56b4e9"/>
    </g>
   </g>
   <g id="line2d_2">
    <path d="M 49.537554 231.179458 
" clip-path="url(#p444197396b)" style="fill: none; stroke: #1f2328; stroke-width: 1.5; stroke-linecap: square"/>
    <defs>
     <path id="m1f34657f6f" d="M 0 -6.5 
L -1.459341 -2.00861 
L -6.181867 -2.00861 
L -2.361263 0.767221 
L -3.820604 5.25861 
L -0 2.482779 
L 3.820604 5.25861 
L 2.361263 0.767221 
L 6.181867 -2.00861 
L 1.459341 -2.00861 
z
" style="stroke: #1f2328; stroke-linejoin: bevel"/>
    </defs>
    <g clip-path="url(#p444197396b)">
     <use xlink:href="#m1f34657f6f" x="49.537554" y="231.179458" style="fill: #1f2328; stroke: #1f2328; stroke-linejoin: bevel"/>
    </g>
   </g>
  </g>
  <g id="axes_2">
   <g id="patch_5">
    <path d="M 212.361619 282.877192 
L 552.438606 282.877192 
L 552.438606 40.839683 
L 212.361619 40.839683 
z
" style="fill: #ffffff"/>
   </g>
   <g id="QuadContourSet_2">
    <path clip-path="url(#p3bd9737257)" style="fill: none; stroke: #9aa3ad; stroke-width: 0.7"/>
    <path d="M 288.566162 226.460735 
L 288.175601 226.212892 
L 288.566162 225.974488 
L 289.509698 226.212892 
L 288.566162 226.460735 
z
M 289.703543 226.091547 
L 289.33137 225.403402 
L 289.703543 225.225157 
L 290.81854 224.593912 
L 290.840924 224.584583 
L 291.978305 224.535713 
L 292.02747 224.593912 
L 291.978305 224.627134 
L 290.988841 225.403402 
L 290.840924 225.4836 
L 289.703543 226.091547 
" clip-path="url(#p3bd9737257)" style="fill: none; stroke: #9aa3ad; stroke-width: 0.7"/>
    <path d="M 285.154018 228.283957 
L 284.900135 227.831872 
L 285.154018 227.594824 
L 285.704824 227.022382 
L 286.291399 226.597199 
L 286.772686 226.212892 
L 287.42878 225.810684 
L 288.037054 225.403402 
L 288.566162 225.115904 
L 289.452026 224.593912 
L 289.703543 224.469212 
L 290.840924 223.912444 
L 291.107072 223.784422 
L 291.978305 223.452814 
L 293.08599 222.974932 
L 293.115687 222.964333 
L 294.253068 222.775347 
L 294.891235 222.974932 
L 294.417256 223.784422 
L 294.253068 223.907597 
L 293.411055 224.593912 
L 293.115687 224.783993 
L 292.224156 225.403402 
L 291.978305 225.544513 
L 290.893787 226.212892 
L 290.840924 226.240646 
L 289.703543 226.793583 
L 289.271126 227.022382 
L 288.566162 227.324168 
L 287.49633 227.831872 
L 287.42878 227.85879 
L 286.291399 228.16396 
L 285.154018 228.283957 
" clip-path="url(#p3bd9737257)" style="fill: none; stroke: #9aa3ad; stroke-width: 0.7"/>
    <path d="M 278.329731 231.92224 
L 278.265829 231.879322 
L 278.258398 231.069832 
L 278.329731 230.97845 
L 278.860052 230.260342 
L 279.467112 229.628005 
L 279.628481 229.450852 
L 280.554718 228.641362 
L 280.604493 228.604531 
L 281.611271 227.831872 
L 281.741874 227.741818 
L 282.749143 227.022382 
L 282.879256 226.938018 
L 283.960175 226.212892 
L 284.016637 226.178213 
L 285.154018 225.470477 
L 285.258802 225.403402 
L 286.291399 224.806384 
L 286.644502 224.593912 
L 287.42878 224.163629 
L 288.093924 223.784422 
L 288.566162 223.537023 
L 289.600129 222.974932 
L 289.703543 222.922931 
L 290.840924 222.368523 
L 291.247642 222.165442 
L 291.978305 221.831478 
L 292.973825 221.355952 
L 293.115687 221.293476 
L 294.253068 220.825745 
L 294.915733 220.546462 
L 295.390449 220.364088 
L 296.52783 219.950027 
L 297.143809 219.736972 
L 297.665212 219.575049 
L 298.802593 219.285481 
L 299.939974 219.059383 
L 301.077355 219.109647 
L 301.526157 219.736972 
L 301.155658 220.546462 
L 301.077355 220.627269 
L 300.404456 221.355952 
L 299.939974 221.771914 
L 299.520279 222.165442 
L 298.802593 222.739125 
L 298.520275 222.974932 
L 297.665212 223.597325 
L 297.418764 223.784422 
L 296.52783 224.383762 
L 296.227801 224.593912 
L 295.390449 225.12045 
L 294.957602 225.403402 
L 294.253068 225.821234 
L 293.616888 226.212892 
L 293.115687 226.495258 
L 292.213142 227.022382 
L 291.978305 227.148805 
L 290.840924 227.770741 
L 290.728407 227.831872 
L 289.703543 228.339258 
L 289.118844 228.641362 
L 288.566162 228.903643 
L 287.459355 229.450852 
L 287.42878 229.464829 
L 286.291399 229.946073 
L 285.581798 230.260342 
L 285.154018 230.433677 
L 284.016637 230.876797 
L 283.501146 231.069832 
L 282.879256 231.279963 
L 281.741874 231.630112 
L 280.849382 231.879322 
L 280.604493 231.939864 
L 279.467112 232.076221 
L 278.329731 231.92224 
z
" clip-path="url(#p3bd9737257)" style="fill: none; stroke: #9aa3ad; stroke-width: 0.7"/>
    <path d="M 264.681156 240.258053 
L 263.897582 239.974222 
L 263.543775 239.55319 
L 263.385504 239.164732 
L 263.543775 238.283401 
L 263.924459 237.545752 
L 265.168272 235.926772 
L 266.955918 234.150086 
L 269.662104 231.879322 
L 272.945393 229.450852 
L 277.839512 226.212892 
L 283.26194 222.974932 
L 289.703543 219.504582 
L 294.253068 217.264712 
L 299.939974 214.750887 
L 304.489499 213.000042 
L 307.901643 211.88697 
L 310.176405 211.289366 
L 312.598533 210.832582 
L 313.588549 210.75185 
L 314.994411 210.832582 
L 315.863311 211.203974 
L 316.248911 211.642072 
L 316.287433 212.451562 
L 315.863311 213.457549 
L 314.846115 214.880032 
L 312.40932 217.308502 
L 309.423909 219.736972 
L 304.873517 222.974932 
L 299.771264 226.212892 
L 294.132801 229.450852 
L 287.42878 232.911275 
L 282.712029 235.117282 
L 276.818496 237.545752 
L 272.071999 239.164732 
L 268.954128 239.974222 
L 266.955918 240.290081 
L 265.818537 240.356303 
L 264.681156 240.258053 
L 264.681156 240.258053 
" clip-path="url(#p3bd9737257)" style="fill: none; stroke: #9aa3ad; stroke-width: 0.7"/>
    <path d="M 232.834482 258.732853 
L 232.325935 258.592492 
L 231.6971 258.338861 
L 230.853078 257.783002 
L 230.559719 257.424334 
L 230.293981 256.973512 
L 230.12082 256.164022 
L 230.170884 255.354532 
L 230.374941 254.545042 
L 230.559719 254.089306 
L 230.701159 253.735552 
L 231.128861 252.926062 
L 231.618748 252.116572 
L 231.6971 252.006532 
L 232.189464 251.307082 
L 232.800043 250.497592 
L 232.834482 250.456809 
L 233.476851 249.688102 
L 233.971863 249.124546 
L 234.185661 248.878612 
L 234.936659 248.069122 
L 235.109244 247.894021 
L 235.728589 247.259632 
L 236.246625 246.749363 
L 236.547548 246.450142 
L 237.384006 245.649136 
L 237.392783 245.640652 
L 238.277823 244.831162 
L 238.521388 244.615578 
L 239.186585 244.021672 
L 239.658769 243.613031 
L 240.117984 243.212182 
L 240.79615 242.637836 
L 241.071443 242.402692 
L 241.933531 241.687621 
L 242.046405 241.593202 
L 243.043771 240.783712 
L 243.070913 240.762387 
L 244.066173 239.974222 
L 244.208294 239.864481 
L 245.107435 239.164732 
L 245.345675 238.983835 
L 246.167119 238.355242 
L 246.483056 238.119221 
L 247.244801 237.545752 
L 247.620438 237.269521 
L 248.340068 236.736262 
L 248.757819 236.433722 
L 249.452523 235.926772 
L 249.8952 235.610898 
L 250.581777 235.117282 
L 251.032581 234.800206 
L 251.727456 234.307792 
L 252.169962 234.000874 
L 252.889195 233.498302 
L 253.307344 233.212191 
L 254.06664 232.688812 
L 254.444725 232.433508 
L 255.259448 231.879322 
L 255.582106 231.664227 
L 256.467286 231.069832 
L 256.719487 230.903794 
L 257.689829 230.260342 
L 257.856869 230.151701 
L 258.926763 229.450852 
L 258.99425 229.407477 
L 260.131631 228.672722 
L 260.179956 228.641362 
L 261.269012 227.948348 
L 261.450704 227.831872 
L 262.406393 227.230866 
L 262.735491 227.022382 
L 263.543775 226.519889 
L 264.034012 226.212892 
L 264.681156 225.815061 
L 265.345969 225.403402 
L 265.818537 225.116048 
L 266.671075 224.593912 
L 266.955918 224.422543 
L 268.009049 223.784422 
L 268.0933 223.734259 
L 269.230681 223.055778 
L 269.365662 222.974932 
L 270.368062 222.385266 
L 270.739013 222.165442 
L 271.505443 221.719217 
L 272.124843 221.355952 
L 272.642825 221.057399 
L 273.522884 220.546462 
L 273.780206 220.399598 
L 274.917587 219.74615 
L 274.933601 219.736972 
L 276.054968 219.1055 
L 276.368735 218.927482 
L 277.192349 218.468179 
L 277.815652 218.117992 
L 278.329731 217.83402 
L 279.274093 217.308502 
L 279.467112 217.202865 
L 280.604493 216.579143 
L 280.750569 216.499012 
L 281.741874 215.964437 
L 282.247801 215.689522 
L 282.879256 215.352113 
L 283.75609 214.880032 
L 284.016637 214.742054 
L 285.154018 214.137971 
L 285.281226 214.070542 
L 286.291399 213.544079 
L 286.83024 213.261052 
L 287.42878 212.951862 
L 288.389796 212.451562 
L 288.566162 212.36124 
L 289.703543 211.779879 
L 289.97276 211.642072 
L 290.840924 211.20508 
L 291.575043 210.832582 
L 291.978305 210.631318 
L 293.115687 210.060671 
L 293.191103 210.023092 
L 294.253068 209.502834 
L 294.838565 209.213602 
L 295.390449 208.945481 
L 296.495619 208.404112 
L 296.52783 208.38859 
L 297.665212 207.846287 
L 298.189138 207.594622 
L 298.802593 207.304865 
L 299.893563 206.785132 
L 299.939974 206.763385 
L 301.077355 206.236647 
L 301.636903 205.975642 
L 302.214736 205.710641 
L 303.352118 205.185172 
L 303.393829 205.166152 
L 304.489499 204.67516 
L 305.19364 204.356662 
L 305.62688 204.164023 
L 306.764261 203.658332 
L 307.016107 203.547172 
L 307.901643 203.16312 
L 308.873112 202.737682 
L 309.039024 202.666267 
L 310.176405 202.182914 
L 310.773641 201.928192 
L 311.313786 201.701867 
L 312.451167 201.225131 
L 312.707974 201.118702 
L 313.588549 200.76035 
L 314.685283 200.309212 
L 314.72593 200.292789 
L 315.863311 199.843643 
L 316.725838 199.499722 
L 317.000692 199.392124 
L 318.138074 198.9539 
L 318.822216 198.690232 
L 319.275455 198.518826 
L 320.412836 198.093526 
L 320.985965 197.880742 
L 321.550217 197.675293 
L 322.687599 197.265225 
L 323.232057 197.071252 
L 323.82498 196.864208 
L 324.962361 196.472042 
L 325.580249 196.261762 
L 326.099742 196.088588 
L 327.237123 195.717419 
L 328.057176 195.452272 
L 328.374505 195.351839 
L 329.511886 195.005265 
L 330.649267 194.65906 
L 330.706027 194.642782 
L 331.786648 194.340034 
L 332.92403 194.026189 
L 333.650575 193.833292 
L 334.061411 193.726826 
L 335.198792 193.451166 
L 336.336173 193.18563 
L 337.081554 193.023802 
L 337.473554 192.94095 
L 338.610936 192.727384 
L 339.748317 192.534726 
L 340.885698 192.368197 
L 342.023079 192.234909 
L 342.302667 192.214312 
L 343.160461 192.153322 
L 344.297842 192.125968 
L 345.435223 192.167067 
L 345.866007 192.214312 
L 346.572604 192.318277 
L 347.709985 192.646867 
L 348.47288 193.023802 
L 348.847367 193.331311 
L 349.270127 193.833292 
L 349.56933 194.642782 
L 349.596477 195.452272 
L 349.441823 196.261762 
L 349.159673 197.071252 
L 348.847367 197.73435 
L 348.77934 197.880742 
L 348.300707 198.690232 
L 347.77014 199.499722 
L 347.709985 199.579212 
L 347.163647 200.309212 
L 346.572604 201.053798 
L 346.521647 201.118702 
L 345.818953 201.928192 
L 345.435223 202.347892 
L 345.082407 202.737682 
L 344.315135 203.547172 
L 344.297842 203.564193 
L 343.500103 204.356662 
L 343.160461 204.681802 
L 342.659138 205.166152 
L 342.023079 205.75913 
L 341.792944 205.975642 
L 340.90131 206.785132 
L 340.885698 206.798659 
L 339.974753 207.594622 
L 339.748317 207.786665 
L 339.026373 208.404112 
L 338.610936 208.749277 
L 338.056711 209.213602 
L 337.473554 209.688609 
L 337.066293 210.023092 
L 336.336173 210.606548 
L 336.055627 210.832582 
L 335.198792 211.50478 
L 335.025204 211.642072 
L 334.061411 212.38482 
L 333.9755 212.451562 
L 332.92403 213.248031 
L 332.906976 213.261052 
L 331.818481 214.070542 
L 331.786648 214.093664 
L 330.712109 214.880032 
L 330.649267 214.925012 
L 329.589061 215.689522 
L 329.511886 215.743978 
L 328.449706 216.499012 
L 328.374505 216.551344 
L 327.294399 217.308502 
L 327.237123 217.347826 
L 326.123488 218.117992 
L 326.099742 218.134083 
L 324.962361 218.909471 
L 324.936111 218.927482 
L 323.82498 219.674013 
L 323.731973 219.736972 
L 322.687599 220.429526 
L 322.512567 220.546462 
L 321.550217 221.176551 
L 321.278233 221.355952 
L 320.412836 221.915587 
L 320.029298 222.165442 
L 319.275455 222.647095 
L 318.76608 222.974932 
L 318.138074 223.371501 
L 317.488889 223.784422 
L 317.000692 224.089199 
L 316.198025 224.593912 
L 315.863311 224.800554 
L 314.893779 225.403402 
L 314.72593 225.505907 
L 313.588549 226.205092 
L 313.575866 226.212892 
L 312.451167 226.891947 
L 312.236717 227.022382 
L 311.313786 227.573626 
L 310.884563 227.831872 
L 310.176405 228.250404 
L 309.519687 228.641362 
L 309.039024 228.922537 
L 308.142363 229.450852 
L 307.901643 229.590262 
L 306.764261 230.253392 
L 306.752316 230.260342 
L 305.62688 230.903719 
L 305.338458 231.069832 
L 304.489499 231.550352 
L 303.912566 231.879322 
L 303.352118 232.193478 
L 302.474903 232.688812 
L 302.214736 232.833272 
L 301.077355 233.468163 
L 301.023233 233.498302 
L 299.939974 234.091239 
L 299.547328 234.307792 
L 298.802593 234.711628 
L 298.060106 235.117282 
L 297.665212 235.329465 
L 296.56182 235.926772 
L 296.52783 235.944873 
L 295.390449 236.547346 
L 295.036109 236.736262 
L 294.253068 237.146781 
L 293.497897 237.545752 
L 293.115687 237.74437 
L 291.978305 238.3393 
L 291.947631 238.355242 
L 290.840924 238.920751 
L 290.367245 239.164732 
L 289.703543 239.500936 
L 288.776592 239.974222 
L 288.566162 240.079917 
L 287.42878 240.650242 
L 287.162692 240.783712 
L 286.291399 241.213465 
L 285.527796 241.593202 
L 285.154018 241.776031 
L 284.016637 242.334078 
L 283.876003 242.402692 
L 282.879256 242.880815 
L 282.194299 243.212182 
L 281.741874 243.427434 
L 280.604493 243.971045 
L 280.497671 244.021672 
L 279.467112 244.501803 
L 278.766385 244.831162 
L 278.329731 245.032976 
L 277.192349 245.559883 
L 277.016662 245.640652 
L 276.054968 246.075205 
L 275.232789 246.450142 
L 274.917587 246.591464 
L 273.780206 247.099287 
L 273.420098 247.259632 
L 272.642825 247.599752 
L 271.580383 248.069122 
L 271.505443 248.101668 
L 270.368062 248.587904 
L 269.692854 248.878612 
L 269.230681 249.074131 
L 268.0933 249.554253 
L 267.773611 249.688102 
L 266.955918 250.024332 
L 265.818537 250.496942 
L 265.816936 250.497592 
L 264.681156 250.950409 
L 263.796465 251.307082 
L 263.543775 251.407117 
L 262.406393 251.850288 
L 261.723722 252.116572 
L 261.269012 252.290644 
L 260.131631 252.72165 
L 259.588257 252.926062 
L 258.99425 253.145252 
L 257.856869 253.561894 
L 257.376456 253.735552 
L 256.719487 253.968357 
L 255.582106 254.368095 
L 255.070459 254.545042 
L 254.444725 254.757056 
L 253.307344 255.136945 
L 252.646364 255.354532 
L 252.169962 255.508076 
L 251.032581 255.864697 
L 250.071434 256.164022 
L 249.8952 256.21772 
L 248.757819 256.547084 
L 247.620438 256.873969 
L 247.255505 256.973512 
L 246.483056 257.179226 
L 245.345675 257.470051 
L 244.208294 257.752923 
L 244.075049 257.783002 
L 243.070913 258.003751 
L 241.933531 258.237692 
L 240.79615 258.454093 
L 239.968927 258.592492 
L 239.658769 258.642866 
L 238.521388 258.790728 
L 237.384006 258.903779 
L 236.246625 258.97216 
L 235.109244 258.981907 
L 233.971863 258.912552 
L 232.834482 258.732853 
z
" clip-path="url(#p3bd9737257)" style="fill: none; stroke: #9aa3ad; stroke-width: 0.7"/>
    <path d="M 212.361619 239.444283 
L 220.323288 234.185661 
L 230.314588 227.831872 
L 241.933531 220.742929 
L 252.169962 214.733929 
L 263.543775 208.296402 
L 275.231197 201.928192 
L 288.566162 194.956017 
L 299.939974 189.25056 
L 311.313786 183.770466 
L 321.550217 179.035694 
L 331.997949 174.405532 
L 343.539903 169.548592 
L 354.534273 165.199696 
L 363.633323 161.83184 
L 371.764911 159.025223 
L 380.694041 156.213074 
L 387.518328 154.287191 
L 393.205235 152.871694 
L 398.892141 151.664137 
L 403.441666 150.894877 
L 407.991191 150.361451 
L 411.403334 150.161486 
L 414.815478 150.220092 
L 417.09024 150.467731 
L 419.365003 150.959173 
L 421.332772 151.739813 
L 422.588251 152.549303 
L 423.410367 153.358793 
L 423.971414 154.168283 
L 424.323537 154.977773 
L 424.532863 155.787263 
L 424.617982 157.406243 
L 424.369207 159.025223 
L 423.875817 160.644203 
L 422.771406 163.072672 
L 421.329103 165.501142 
L 419.365003 168.272171 
L 417.028187 171.167572 
L 413.678097 174.86063 
L 410.265953 178.299843 
L 406.659223 181.690942 
L 402.078616 185.738392 
L 396.235887 190.595332 
L 389.793091 195.655807 
L 382.474627 201.118702 
L 373.869754 207.233356 
L 365.908085 212.652769 
L 356.312315 218.927482 
L 345.435223 225.747774 
L 335.198792 231.921994 
L 323.82498 238.525246 
L 312.451167 244.884537 
L 299.939974 251.608035 
L 288.566162 257.48553 
L 277.192349 263.13984 
L 265.818537 268.568258 
L 255.582106 273.254997 
L 244.208294 278.225118 
L 233.971863 282.469832 
L 232.964642 282.877192 
L 232.964642 282.877192 
" clip-path="url(#p3bd9737257)" style="fill: none; stroke: #9aa3ad; stroke-width: 0.7"/>
    <path d="M 212.361619 196.837803 
L 229.422338 187.227718 
L 246.871582 177.643492 
L 265.818537 167.508492 
L 282.879256 158.619013 
L 299.939974 149.951668 
L 317.596688 141.216443 
L 336.336173 132.209322 
L 354.534273 123.729245 
L 370.45761 116.530845 
L 386.380947 109.547821 
L 403.441666 102.31901 
L 419.365003 95.823651 
L 435.28834 89.590577 
L 448.936915 84.473897 
L 462.585489 79.588113 
L 476.234064 74.958116 
L 487.607876 71.319677 
L 498.981689 67.906873 
L 509.21812 65.054679 
L 519.454551 62.446577 
L 528.553601 60.364784 
L 536.515269 58.761797 
L 543.339557 57.580702 
L 550.163844 56.611776 
L 552.438606 56.342514 
M 552.438606 127.378387 
L 545.978528 133.121543 
L 537.436928 140.406953 
L 528.538636 147.692363 
L 518.26504 155.787263 
L 507.613608 163.882162 
L 495.492094 172.786552 
L 482.966967 181.690942 
L 469.409777 191.034966 
L 456.781001 199.499722 
L 441.887919 209.213602 
L 426.18929 219.170126 
L 410.855095 228.641362 
L 393.358588 239.164732 
L 375.373226 249.688102 
L 356.89121 260.211472 
L 338.610936 270.341773 
L 321.398522 279.639232 
L 315.300265 282.877192 
L 315.300265 282.877192 
" clip-path="url(#p3bd9737257)" style="fill: none; stroke: #9aa3ad; stroke-width: 0.7"/>
    <path d="M 552.438606 238.759928 
L 528.553601 253.099398 
L 503.531214 267.869933 
L 478.508827 282.393485 
L 477.668693 282.877192 
M 212.361619 107.012583 
L 238.521388 93.119434 
L 264.681156 79.459771 
L 291.034004 65.933873 
L 319.275455 51.700243 
L 341.193447 40.839683 
L 341.193447 40.839683 
" clip-path="url(#p3bd9737257)" style="fill: none; stroke: #9aa3ad; stroke-width: 0.7"/>
   </g>
   <g id="matplotlib.axis_3"/>
   <g id="matplotlib.axis_4"/>
   <g id="patch_6">
    <path d="M 552.438606 282.877192 
L 552.438606 40.839683 
" style="fill: none; stroke: #000000; stroke-width: 0.8; stroke-linejoin: miter; stroke-linecap: square"/>
   </g>
   <g id="patch_7">
    <path d="M 212.361619 40.839683 
L 552.438606 40.839683 
" style="fill: none; stroke: #000000; stroke-width: 0.8; stroke-linejoin: miter; stroke-linecap: square"/>
   </g>
   <g id="text_2">
    <!--   CG -->
    <g style="fill: #d55e00" transform="translate(474.937235 131.42555) scale(0.1 -0.1)">
     <defs>
      <path id="STIXGeneral-Regular-43" d="M 3930 838 
L 4051 723 
Q 3482 -90 2304 -90 
Q 1376 -90 794 480 
Q 179 1082 179 2080 
Q 179 3014 755 3661 
Q 1357 4326 2310 4326 
Q 2720 4326 3072 4230 
Q 3475 4115 3514 4115 
Q 3725 4115 3782 4326 
L 3910 4326 
L 3968 2874 
L 3821 2874 
Q 3718 3334 3488 3584 
Q 3034 4070 2458 4070 
Q 1747 4070 1334 3548 
Q 922 3027 922 2182 
Q 922 1152 1382 653 
Q 1811 192 2522 192 
Q 2944 192 3251 339 
Q 3558 486 3930 838 
z
" transform="scale(0.015625)"/>
      <path id="STIXGeneral-Regular-47" d="M 4538 2266 
L 4538 2150 
Q 4256 2125 4173 2035 
Q 4090 1946 4090 1638 
L 4090 358 
Q 3539 -90 2464 -90 
Q 1965 -90 1507 89 
Q 1050 269 736 595 
Q 205 1152 205 2093 
Q 205 3155 890 3776 
Q 1491 4326 2419 4326 
Q 2829 4326 3270 4179 
Q 3443 4115 3552 4115 
Q 3654 4115 3731 4176 
Q 3808 4237 3840 4326 
L 3981 4326 
L 4032 2976 
L 3885 2976 
Q 3680 3475 3430 3718 
Q 3059 4070 2496 4070 
Q 1856 4070 1427 3629 
Q 934 3136 934 2074 
Q 934 1190 1395 678 
Q 1856 166 2618 166 
Q 2982 166 3225 281 
Q 3469 397 3469 557 
L 3469 1562 
Q 3469 1933 3376 2025 
Q 3283 2118 2899 2150 
L 2899 2266 
L 4538 2266 
z
" transform="scale(0.015625)"/>
     </defs>
     <use xlink:href="#STIXGeneral-Regular-20"/>
     <use xlink:href="#STIXGeneral-Regular-20" x="24.999985"/>
     <use xlink:href="#STIXGeneral-Regular-43" x="49.999969"/>
     <use xlink:href="#STIXGeneral-Regular-47" x="116.699966"/>
    </g>
   </g>
   <g id="text_3">
    <!-- ill-conditioned: $\kappa_2(A)=30$ -->
    <g transform="translate(315.980113 34.839683) scale(0.12 -0.12)">
     <defs>
      <path id="Cmr10-33" d="M 609 494 
Q 759 275 1012 169 
Q 1266 63 1556 63 
Q 1928 63 2084 380 
Q 2241 697 2241 1100 
Q 2241 1281 2208 1462 
Q 2175 1644 2097 1800 
Q 2019 1956 1883 2050 
Q 1747 2144 1550 2144 
L 1125 2144 
Q 1069 2144 1069 2203 
L 1069 2259 
Q 1069 2309 1125 2309 
L 1478 2338 
Q 1703 2338 1851 2506 
Q 2000 2675 2069 2917 
Q 2138 3159 2138 3378 
Q 2138 3684 1994 3881 
Q 1850 4078 1556 4078 
Q 1313 4078 1091 3986 
Q 869 3894 738 3706 
Q 750 3709 759 3711 
Q 769 3713 781 3713 
Q 925 3713 1022 3613 
Q 1119 3513 1119 3372 
Q 1119 3234 1022 3134 
Q 925 3034 781 3034 
Q 641 3034 541 3134 
Q 441 3234 441 3372 
Q 441 3647 606 3850 
Q 772 4053 1033 4158 
Q 1294 4263 1556 4263 
Q 1750 4263 1965 4205 
Q 2181 4147 2356 4039 
Q 2531 3931 2642 3762 
Q 2753 3594 2753 3378 
Q 2753 3109 2633 2881 
Q 2513 2653 2303 2487 
Q 2094 2322 1844 2241 
Q 2122 2188 2372 2031 
Q 2622 1875 2773 1631 
Q 2925 1388 2925 1106 
Q 2925 753 2731 467 
Q 2538 181 2222 20 
Q 1906 -141 1556 -141 
Q 1256 -141 954 -26 
Q 653 88 461 316 
Q 269 544 269 863 
Q 269 1022 375 1128 
Q 481 1234 641 1234 
Q 744 1234 830 1186 
Q 916 1138 964 1050 
Q 1013 963 1013 863 
Q 1013 706 903 600 
Q 794 494 641 494 
L 609 494 
z
" transform="scale(0.015625)"/>
      <path id="Cmr10-30" d="M 1600 -141 
Q 816 -141 533 504 
Q 250 1150 250 2041 
Q 250 2597 351 3087 
Q 453 3578 754 3920 
Q 1056 4263 1600 4263 
Q 2022 4263 2290 4056 
Q 2559 3850 2700 3523 
Q 2841 3197 2892 2823 
Q 2944 2450 2944 2041 
Q 2944 1491 2842 1011 
Q 2741 531 2444 195 
Q 2147 -141 1600 -141 
z
M 1600 25 
Q 1956 25 2131 390 
Q 2306 756 2347 1200 
Q 2388 1644 2388 2144 
Q 2388 2625 2347 3031 
Q 2306 3438 2132 3767 
Q 1959 4097 1600 4097 
Q 1238 4097 1063 3765 
Q 888 3434 847 3029 
Q 806 2625 806 2144 
Q 806 1788 823 1472 
Q 841 1156 916 820 
Q 991 484 1158 254 
Q 1325 25 1600 25 
z
" transform="scale(0.015625)"/>
     </defs>
     <use xlink:href="#STIXGeneral-Regular-69"/>
     <use xlink:href="#STIXGeneral-Regular-6c" transform="translate(27.799988 0)"/>
     <use xlink:href="#STIXGeneral-Regular-6c" transform="translate(55.599976 0)"/>
     <use xlink:href="#STIXGeneral-Regular-2d" transform="translate(83.399963 0)"/>
     <use xlink:href="#STIXGeneral-Regular-63" transform="translate(116.699951 0)"/>
     <use xlink:href="#STIXGeneral-Regular-6f" transform="translate(161.099945 0)"/>
     <use xlink:href="#STIXGeneral-Regular-6e" transform="translate(211.09993 0)"/>
     <use xlink:href="#STIXGeneral-Regular-64" transform="translate(261.099915 0)"/>
     <use xlink:href="#STIXGeneral-Regular-69" transform="translate(311.099899 0)"/>
     <use xlink:href="#STIXGeneral-Regular-74" transform="translate(338.899887 0)"/>
     <use xlink:href="#STIXGeneral-Regular-69" transform="translate(366.699875 0)"/>
     <use xlink:href="#STIXGeneral-Regular-6f" transform="translate(394.499863 0)"/>
     <use xlink:href="#STIXGeneral-Regular-6e" transform="translate(444.499847 0)"/>
     <use xlink:href="#STIXGeneral-Regular-65" transform="translate(494.499832 0)"/>
     <use xlink:href="#STIXGeneral-Regular-64" transform="translate(538.899826 0)"/>
     <use xlink:href="#STIXGeneral-Regular-3a" transform="translate(588.899811 0)"/>
     <use xlink:href="#STIXGeneral-Regular-20" transform="translate(616.699799 0)"/>
     <use xlink:href="#Cmmi10-2219" transform="translate(641.699783 0)"/>
     <use xlink:href="#Cmr10-32" transform="translate(699.316971 -17.00625) scale(0.7)"/>
     <use xlink:href="#Cmr10-28" transform="translate(740.694315 0)"/>
     <use xlink:href="#Cmmi10-41" transform="translate(779.512674 0)"/>
     <use xlink:href="#Cmr10-29" transform="translate(854.512674 0)"/>
     <use xlink:href="#Cmr10-3d" transform="translate(910.889627 0)"/>
     <use xlink:href="#Cmr10-33" transform="translate(1006.133768 0)"/>
     <use xlink:href="#Cmr10-30" transform="translate(1056.133768 0)"/>
    </g>
   </g>
   <g id="line2d_3">
    <path d="M 467.13174 98.156455 
L 474.937235 129.095863 
L 396.576293 148.865019 
L 401.275091 167.490109 
L 354.102902 179.390864 
L 356.931513 190.602906 
L 328.534517 197.766994 
L 330.237301 204.516487 
L 313.142707 208.829167 
L 314.16776 212.892267 
L 303.877054 215.48844 
L 304.494121 217.934369 
L 298.29926 219.497229 
L 298.670726 220.969644 
L 294.941507 221.910464 
L 295.165124 222.796837 
L 292.920186 223.363197 
L 293.0548 223.896782 
L 291.703379 224.237723 
L 291.784415 224.558933 
L 290.970879 224.764175 
L 291.019661 224.957539 
L 290.529924 225.081091 
L 290.55929 225.197494 
L 290.264475 225.271871 
L 290.282153 225.341943 
L 290.104679 225.386717 
L 290.115321 225.4289 
L 290.008483 225.455853 
L 290.01489 225.481247 
L 289.950575 225.497472 
" clip-path="url(#p3bd9737257)" style="fill: none; stroke: #56b4e9; stroke-width: 1.6; stroke-linecap: square"/>
    <g clip-path="url(#p3bd9737257)">
     <use xlink:href="#mbea6d9041b" x="467.13174" y="98.156455" style="fill: #ffffff; stroke: #56b4e9"/>
     <use xlink:href="#mbea6d9041b" x="474.937235" y="129.095863" style="fill: #ffffff; stroke: #56b4e9"/>
     <use xlink:href="#mbea6d9041b" x="396.576293" y="148.865019" style="fill: #ffffff; stroke: #56b4e9"/>
     <use xlink:href="#mbea6d9041b" x="401.275091" y="167.490109" style="fill: #ffffff; stroke: #56b4e9"/>
     <use xlink:href="#mbea6d9041b" x="354.102902" y="179.390864" style="fill: #ffffff; stroke: #56b4e9"/>
     <use xlink:href="#mbea6d9041b" x="356.931513" y="190.602906" style="fill: #ffffff; stroke: #56b4e9"/>
     <use xlink:href="#mbea6d9041b" x="328.534517" y="197.766994" style="fill: #ffffff; stroke: #56b4e9"/>
     <use xlink:href="#mbea6d9041b" x="330.237301" y="204.516487" style="fill: #ffffff; stroke: #56b4e9"/>
     <use xlink:href="#mbea6d9041b" x="313.142707" y="208.829167" style="fill: #ffffff; stroke: #56b4e9"/>
     <use xlink:href="#mbea6d9041b" x="314.16776" y="212.892267" style="fill: #ffffff; stroke: #56b4e9"/>
     <use xlink:href="#mbea6d9041b" x="303.877054" y="215.48844" style="fill: #ffffff; stroke: #56b4e9"/>
     <use xlink:href="#mbea6d9041b" x="304.494121" y="217.934369" style="fill: #ffffff; stroke: #56b4e9"/>
     <use xlink:href="#mbea6d9041b" x="298.29926" y="219.497229" style="fill: #ffffff; stroke: #56b4e9"/>
     <use xlink:href="#mbea6d9041b" x="298.670726" y="220.969644" style="fill: #ffffff; stroke: #56b4e9"/>
     <use xlink:href="#mbea6d9041b" x="294.941507" y="221.910464" style="fill: #ffffff; stroke: #56b4e9"/>
     <use xlink:href="#mbea6d9041b" x="295.165124" y="222.796837" style="fill: #ffffff; stroke: #56b4e9"/>
     <use xlink:href="#mbea6d9041b" x="292.920186" y="223.363197" style="fill: #ffffff; stroke: #56b4e9"/>
     <use xlink:href="#mbea6d9041b" x="293.0548" y="223.896782" style="fill: #ffffff; stroke: #56b4e9"/>
     <use xlink:href="#mbea6d9041b" x="291.703379" y="224.237723" style="fill: #ffffff; stroke: #56b4e9"/>
     <use xlink:href="#mbea6d9041b" x="291.784415" y="224.558933" style="fill: #ffffff; stroke: #56b4e9"/>
     <use xlink:href="#mbea6d9041b" x="290.970879" y="224.764175" style="fill: #ffffff; stroke: #56b4e9"/>
     <use xlink:href="#mbea6d9041b" x="291.019661" y="224.957539" style="fill: #ffffff; stroke: #56b4e9"/>
     <use xlink:href="#mbea6d9041b" x="290.529924" y="225.081091" style="fill: #ffffff; stroke: #56b4e9"/>
     <use xlink:href="#mbea6d9041b" x="290.55929" y="225.197494" style="fill: #ffffff; stroke: #56b4e9"/>
     <use xlink:href="#mbea6d9041b" x="290.264475" y="225.271871" style="fill: #ffffff; stroke: #56b4e9"/>
     <use xlink:href="#mbea6d9041b" x="290.282153" y="225.341943" style="fill: #ffffff; stroke: #56b4e9"/>
     <use xlink:href="#mbea6d9041b" x="290.104679" y="225.386717" style="fill: #ffffff; stroke: #56b4e9"/>
     <use xlink:href="#mbea6d9041b" x="290.115321" y="225.4289" style="fill: #ffffff; stroke: #56b4e9"/>
     <use xlink:href="#mbea6d9041b" x="290.008483" y="225.455853" style="fill: #ffffff; stroke: #56b4e9"/>
     <use xlink:href="#mbea6d9041b" x="290.01489" y="225.481247" style="fill: #ffffff; stroke: #56b4e9"/>
     <use xlink:href="#mbea6d9041b" x="289.950575" y="225.497472" style="fill: #ffffff; stroke: #56b4e9"/>
    </g>
   </g>
   <g id="line2d_4">
    <path d="M 467.13174 98.156455 
L 474.937235 129.095863 
L 289.862991 225.56042 
" clip-path="url(#p3bd9737257)" style="fill: none; stroke: #d55e00; stroke-width: 1.6; stroke-linecap: square"/>
    <defs>
     <path id="mb8841cf77e" d="M -2.25 2.25 
L 2.25 2.25 
L 2.25 -2.25 
L -2.25 -2.25 
z
" style="stroke: #d55e00; stroke-linejoin: miter"/>
    </defs>
    <g clip-path="url(#p3bd9737257)">
     <use xlink:href="#mb8841cf77e" x="467.13174" y="98.156455" style="fill: #ffffff; stroke: #d55e00; stroke-linejoin: miter"/>
     <use xlink:href="#mb8841cf77e" x="474.937235" y="129.095863" style="fill: #ffffff; stroke: #d55e00; stroke-linejoin: miter"/>
     <use xlink:href="#mb8841cf77e" x="289.862991" y="225.56042" style="fill: #ffffff; stroke: #d55e00; stroke-linejoin: miter"/>
    </g>
   </g>
   <g id="line2d_5">
    <path d="M 289.862991 225.56042 
" clip-path="url(#p3bd9737257)" style="fill: none; stroke: #1f2328; stroke-width: 1.5; stroke-linecap: square"/>
    <g clip-path="url(#p3bd9737257)">
     <use xlink:href="#m1f34657f6f" x="289.862991" y="225.56042" style="fill: #1f2328; stroke: #1f2328; stroke-linejoin: bevel"/>
    </g>
   </g>
  </g>
 </g>
 <defs>
  <clipPath id="p444197396b">
   <rect x="7.2" y="22.2" width="150.3942" height="279.316875"/>
  </clipPath>
  <clipPath id="p3bd9737257">
   <rect x="212.361619" y="40.839683" width="340.076987" height="242.03751"/>
  </clipPath>
 </defs>
</svg>
