<?xml version="1.0" encoding="utf-8" standalone="no"?>
<!DOCTYPE svg PUBLIC "-//W3C//DTD SVG 1.1//EN"
  "http://www.w3.org/Graphics/SVG/1.1/DTD/svg11.dtd">
<svg xmlns:xlink="http://www.w3.org/1999/xlink" width="643.563443pt" height="349.145284pt" viewBox="0 0 643.563443 349.145284" xmlns="http://www.w3.org/2000/svg" version="1.1">
 <metadata>
  <rdf:RDF xmlns:dc="http://purl.org/dc/elements/1.1/" xmlns:cc="http://creativecommons.org/ns#" xmlns:rdf="http://www.w3.org/1999/02/22-rdf-syntax-ns#">
   <cc:Work>
    <dc:type rdf:resource="http://purl.org/dc/dcmitype/StillImage"/>
    <dc:date>2026-07-17T21:25:31.144073</dc:date>
    <dc:format>image/svg+xml</dc:format>
    <dc:creator>
     <cc:Agent>
      <dc:title>Matplotlib v3.9.4, https://matplotlib.org/</dc:title>
     </cc:Agent>
    </dc:creator>
   </cc:Work>
  </rdf:RDF>
 </metadata>
 <defs>
  <style type="text/css">*{stroke-linejoin: round; stroke-linecap: butt}</style>
 </defs>
 <g id="figure_1">
  <g id="patch_1">
   <path d="M 0 349.145284 
L 643.563443 349.145284 
L 643.563443 0 
L 0 0 
z
" style="fill: #ffffff"/>
  </g>
  <g id="axes_1">
   <g id="patch_2">
    <path d="M 18.2 327.345284 
L 303.363443 327.345284 
L 303.363443 42.181841 
L 18.2 42.181841 
z
" style="fill: #ffffff"/>
   </g>
   <g id="line2d_1">
    <path d="M 251.515544 266.856069 
L 251.429406 261.400192 
L 251.171076 255.949754 
L 250.740813 250.510188 
L 250.139045 245.086915 
L 249.366372 239.685343 
L 248.423564 234.310855 
L 247.311561 228.968808 
L 246.031472 223.664529 
L 244.584573 218.403304 
L 242.972305 213.190377 
L 241.196277 208.030946 
L 239.258257 202.930153 
L 237.16018 197.893082 
L 234.904134 192.924756 
L 232.492371 188.030125 
L 229.927293 183.214071 
L 227.211458 178.481392 
L 224.347572 173.836807 
L 221.338491 169.284946 
L 218.187215 164.830345 
L 214.896883 160.477447 
L 211.470777 156.230588 
L 207.912311 152.094004 
L 204.225033 148.071817 
L 200.412618 144.168037 
L 196.478866 140.386554 
L 192.4277 136.73114 
L 188.263156 133.205436 
L 183.989386 129.812959 
L 179.610651 126.557089 
L 175.131316 123.441072 
L 170.555844 120.468014 
L 165.888799 117.64088 
L 161.13483 114.962486 
L 156.298678 112.435503 
L 151.385164 110.062449 
L 146.399184 107.845691 
L 141.345709 105.787438 
L 136.229778 103.889742 
L 131.056488 102.154494 
L 125.830998 100.583424 
L 120.558516 99.178099 
L 115.244297 97.939918 
L 109.89364 96.870117 
L 104.511877 95.969761 
L 99.104374 95.239749 
L 93.676521 94.680807 
L 88.233727 94.293494 
L 82.78142 94.078194 
L 77.325034 94.035124 
L 71.870007 94.164325 
L 66.421778 94.465669 
L 60.985777 94.938855 
L 55.567424 95.583413 
L 50.172118 96.398698 
L 44.80524 97.383899 
L 39.472137 98.538034 
L 34.178127 99.859952 
L 28.928487 101.348335 
L 23.728449 103.0017 
L 18.583197 104.818398 
L 13.49786 106.79662 
L 8.477508 108.934392 
L 3.527144 111.229583 
L -1 113.504858 
M 230.115189 350.145284 
L 232.492371 345.682012 
L 234.904134 340.787382 
L 237.16018 335.819055 
L 239.258257 330.781985 
L 241.196277 325.681192 
L 242.972305 320.52176 
L 244.584573 315.308834 
L 246.031472 310.047609 
L 247.311561 304.743329 
L 248.423564 299.401283 
L 249.366372 294.026795 
L 250.139045 288.625222 
L 250.740813 283.20195 
L 251.171076 277.762383 
L 251.429406 272.311945 
L 251.515544 266.856069 
L 251.515544 266.856069 
" clip-path="url(#p396a37967d)" style="fill: none; stroke: #9aa3ad; stroke-width: 0.8; stroke-linecap: square"/>
   </g>
   <g id="matplotlib.axis_1">
    <g id="xtick_1">
     <g id="line2d_2">
      <defs>
       <path id="mebd8c5743e" d="M 0 0 
L 0 3 
" style="stroke: #1f2328; stroke-width: 0.8"/>
      </defs>
      <g>
       <use xlink:href="#mebd8c5743e" x="78.689215" y="327.345284" style="fill: #1f2328; stroke: #1f2328; stroke-width: 0.8"/>
      </g>
     </g>
     <g id="text_1">
      <!-- 0 -->
      <g style="fill: #1f2328" transform="translate(76.439215 339.992003) scale(0.09 -0.09)">
       <defs>
        <path id="STIXGeneral-Regular-30" d="M 3046 2112 
Q 3046 1683 2963 1302 
Q 2880 922 2717 602 
Q 2554 282 2266 96 
Q 1978 -90 1600 -90 
Q 1210 -90 915 108 
Q 621 307 461 640 
Q 301 973 227 1350 
Q 154 1728 154 2150 
Q 154 2746 301 3222 
Q 448 3699 790 4012 
Q 1133 4326 1626 4326 
Q 2253 4326 2649 3712 
Q 3046 3098 3046 2112 
z
M 2432 2080 
Q 2432 3091 2217 3625 
Q 2003 4160 1587 4160 
Q 1190 4160 979 3622 
Q 768 3085 768 2106 
Q 768 1120 979 598 
Q 1190 77 1600 77 
Q 2003 77 2217 598 
Q 2432 1120 2432 2080 
z
" transform="scale(0.015625)"/>
       </defs>
       <use xlink:href="#STIXGeneral-Regular-30"/>
      </g>
     </g>
    </g>
    <g id="xtick_2">
     <g id="line2d_3">
      <g>
       <use xlink:href="#mebd8c5743e" x="251.515544" y="327.345284" style="fill: #1f2328; stroke: #1f2328; stroke-width: 0.8"/>
      </g>
     </g>
     <g id="text_2">
      <!-- 1 -->
      <g style="fill: #1f2328" transform="translate(249.265544 339.992003) scale(0.09 -0.09)">
       <defs>
        <path id="STIXGeneral-Regular-31" d="M 2522 0 
L 755 0 
L 755 96 
Q 1107 115 1235 227 
Q 1363 339 1363 608 
L 1363 3482 
Q 1363 3795 1171 3795 
Q 1082 3795 883 3718 
L 710 3654 
L 710 3744 
L 1856 4326 
L 1914 4307 
L 1914 486 
Q 1914 275 2042 185 
Q 2170 96 2522 96 
L 2522 0 
z
" transform="scale(0.015625)"/>
       </defs>
       <use xlink:href="#STIXGeneral-Regular-31"/>
      </g>
     </g>
    </g>
   </g>
   <g id="matplotlib.axis_2">
    <g id="ytick_1">
     <g id="line2d_4">
      <defs>
       <path id="m87300a04c9" d="M 0 0 
L -3 0 
" style="stroke: #1f2328; stroke-width: 0.8"/>
      </defs>
      <g>
       <use xlink:href="#m87300a04c9" x="18.2" y="266.856069" style="fill: #1f2328; stroke: #1f2328; stroke-width: 0.8"/>
      </g>
     </g>
     <g id="text_3">
      <!-- 0 -->
      <g style="fill: #1f2328" transform="translate(7.2 269.929428) scale(0.09 -0.09)">
       <use xlink:href="#STIXGeneral-Regular-30"/>
      </g>
     </g>
    </g>
    <g id="ytick_2">
     <g id="line2d_5">
      <g>
       <use xlink:href="#m87300a04c9" x="18.2" y="94.02974" style="fill: #1f2328; stroke: #1f2328; stroke-width: 0.8"/>
      </g>
     </g>
     <g id="text_4">
      <!-- 1 -->
      <g style="fill: #1f2328" transform="translate(7.2 97.103099) scale(0.09 -0.09)">
       <use xlink:href="#STIXGeneral-Regular-31"/>
      </g>
     </g>
    </g>
   </g>
   <g id="line2d_6">
    <path d="M 78.689215 266.856069 
L 200.895885 144.6494 
" clip-path="url(#p396a37967d)" style="fill: none; stroke-dasharray: 3.7,1.6; stroke-dashoffset: 0; stroke: #1f2328"/>
   </g>
   <g id="line2d_7">
    <path d="M 78.689215 266.856069 
L 161.97843 350.145284 
" clip-path="url(#p396a37967d)" style="fill: none; stroke-dasharray: 3.7,1.6; stroke-dashoffset: 0; stroke: #9aa3ad"/>
   </g>
   <g id="patch_3">
    <path d="M 18.2 327.345284 
L 18.2 42.181841 
" style="fill: none; stroke: #1f2328; stroke-width: 0.8; stroke-linejoin: miter; stroke-linecap: square"/>
   </g>
   <g id="patch_4">
    <path d="M 18.2 327.345284 
L 303.363443 327.345284 
" style="fill: none; stroke: #1f2328; stroke-width: 0.8; stroke-linejoin: miter; stroke-linecap: square"/>
   </g>
   <g id="text_5">
    <!-- $v_1$ -->
    <g style="fill: #1f2328" transform="translate(213.054818 130.103122) scale(0.11 -0.11)">
     <defs>
      <path id="Cmmi10-76" d="M 684 722 
Q 684 866 718 1037 
Q 753 1209 787 1320 
Q 822 1431 944 1753 
Q 1066 2075 1069 2088 
Q 1153 2322 1153 2472 
Q 1153 2663 1013 2663 
Q 759 2663 595 2402 
Q 431 2141 353 1819 
Q 341 1778 300 1778 
L 225 1778 
Q 172 1778 172 1838 
L 172 1856 
Q 275 2238 487 2533 
Q 700 2828 1025 2828 
Q 1253 2828 1411 2678 
Q 1569 2528 1569 2297 
Q 1569 2178 1516 2047 
Q 1391 1722 1319 1526 
Q 1247 1331 1186 1089 
Q 1125 847 1125 641 
Q 1125 400 1236 248 
Q 1347 97 1581 97 
Q 2025 97 2381 781 
Q 2494 1003 2594 1303 
Q 2694 1603 2694 1791 
Q 2694 1984 2631 2092 
Q 2569 2200 2469 2317 
Q 2369 2434 2369 2503 
Q 2369 2628 2472 2731 
Q 2575 2834 2700 2834 
Q 2853 2834 2920 2693 
Q 2988 2553 2988 2375 
Q 2988 2163 2927 1869 
Q 2866 1575 2758 1259 
Q 2650 944 2559 763 
Q 2138 -72 1575 -72 
Q 1172 -72 928 129 
Q 684 331 684 722 
z
" transform="scale(0.015625)"/>
      <path id="Cmr10-31" d="M 594 0 
L 594 225 
Q 1394 225 1394 428 
L 1394 3788 
Q 1063 3628 556 3628 
L 556 3853 
Q 1341 3853 1741 4263 
L 1831 4263 
Q 1853 4263 1873 4245 
Q 1894 4228 1894 4206 
L 1894 428 
Q 1894 225 2694 225 
L 2694 0 
L 594 0 
z
" transform="scale(0.015625)"/>
     </defs>
     <use xlink:href="#Cmmi10-76" transform="translate(0 0.71875)"/>
     <use xlink:href="#Cmr10-31" transform="translate(48.388672 -16.2875) scale(0.7)"/>
    </g>
   </g>
   <g id="text_6">
    <!-- $u^{(0)}$ -->
    <g style="fill: #0072b2" transform="translate(265.982967 269.335756) scale(0.1 -0.1)">
     <defs>
      <path id="Cmmi10-75" d="M 678 697 
Q 678 906 734 1126 
Q 791 1347 892 1617 
Q 994 1888 1069 2088 
Q 1153 2322 1153 2472 
Q 1153 2663 1013 2663 
Q 759 2663 595 2402 
Q 431 2141 353 1819 
Q 341 1778 300 1778 
L 225 1778 
Q 172 1778 172 1838 
L 172 1856 
Q 275 2238 487 2533 
Q 700 2828 1025 2828 
Q 1253 2828 1411 2678 
Q 1569 2528 1569 2297 
Q 1569 2178 1516 2047 
Q 1488 1969 1388 1706 
Q 1288 1444 1234 1272 
Q 1181 1100 1147 934 
Q 1113 769 1113 603 
Q 1113 391 1203 244 
Q 1294 97 1497 97 
Q 1906 97 2216 603 
Q 2222 628 2226 651 
Q 2231 675 2234 697 
L 2694 2553 
Q 2716 2638 2794 2698 
Q 2872 2759 2963 2759 
Q 3041 2759 3098 2709 
Q 3156 2659 3156 2578 
Q 3156 2541 3150 2528 
L 2688 684 
Q 2644 494 2644 372 
Q 2644 97 2828 97 
Q 3034 97 3136 351 
Q 3238 606 3309 941 
Q 3322 978 3359 978 
L 3438 978 
Q 3463 978 3478 956 
Q 3494 934 3494 916 
Q 3425 641 3361 444 
Q 3297 247 3159 87 
Q 3022 -72 2816 -72 
Q 2613 -72 2452 39 
Q 2291 150 2234 341 
Q 2088 153 1894 40 
Q 1700 -72 1484 -72 
Q 1116 -72 897 129 
Q 678 331 678 697 
z
" transform="scale(0.015625)"/>
      <path id="Cmr10-28" d="M 1984 -1588 
Q 1628 -1306 1370 -942 
Q 1113 -578 948 -165 
Q 784 247 703 697 
Q 622 1147 622 1600 
Q 622 2059 703 2509 
Q 784 2959 951 3375 
Q 1119 3791 1378 4153 
Q 1638 4516 1984 4788 
Q 1984 4800 2016 4800 
L 2075 4800 
Q 2094 4800 2109 4783 
Q 2125 4766 2125 4744 
Q 2125 4716 2113 4703 
Q 1800 4397 1592 4047 
Q 1384 3697 1257 3301 
Q 1131 2906 1075 2482 
Q 1019 2059 1019 1600 
Q 1019 -434 2106 -1491 
Q 2125 -1509 2125 -1544 
Q 2125 -1559 2108 -1579 
Q 2091 -1600 2075 -1600 
L 2016 -1600 
Q 1984 -1600 1984 -1588 
z
" transform="scale(0.015625)"/>
      <path id="Cmr10-30" d="M 1600 -141 
Q 816 -141 533 504 
Q 250 1150 250 2041 
Q 250 2597 351 3087 
Q 453 3578 754 3920 
Q 1056 4263 1600 4263 
Q 2022 4263 2290 4056 
Q 2559 3850 2700 3523 
Q 2841 3197 2892 2823 
Q 2944 2450 2944 2041 
Q 2944 1491 2842 1011 
Q 2741 531 2444 195 
Q 2147 -141 1600 -141 
z
M 1600 25 
Q 1956 25 2131 390 
Q 2306 756 2347 1200 
Q 2388 1644 2388 2144 
Q 2388 2625 2347 3031 
Q 2306 3438 2132 3767 
Q 1959 4097 1600 4097 
Q 1238 4097 1063 3765 
Q 888 3434 847 3029 
Q 806 2625 806 2144 
Q 806 1788 823 1472 
Q 841 1156 916 820 
Q 991 484 1158 254 
Q 1325 25 1600 25 
z
" transform="scale(0.015625)"/>
      <path id="Cmr10-29" d="M 416 -1600 
Q 359 -1600 359 -1544 
Q 359 -1516 372 -1503 
Q 1466 -434 1466 1600 
Q 1466 3634 384 4691 
Q 359 4706 359 4744 
Q 359 4766 376 4783 
Q 394 4800 416 4800 
L 475 4800 
Q 494 4800 506 4788 
Q 966 4425 1272 3906 
Q 1578 3388 1720 2800 
Q 1863 2213 1863 1600 
Q 1863 1147 1786 708 
Q 1709 269 1542 -157 
Q 1375 -584 1119 -945 
Q 863 -1306 506 -1588 
Q 494 -1600 475 -1600 
L 416 -1600 
z
" transform="scale(0.015625)"/>
     </defs>
     <use xlink:href="#Cmmi10-75" transform="translate(0 0.235938)"/>
     <use xlink:href="#Cmr10-28" transform="translate(63.481016 38.5) scale(0.7)"/>
     <use xlink:href="#Cmr10-30" transform="translate(90.653867 38.5) scale(0.7)"/>
     <use xlink:href="#Cmr10-29" transform="translate(125.653867 38.5) scale(0.7)"/>
    </g>
   </g>
   <g id="text_7">
    <!-- fast gap: $|\lambda_2/\lambda_1|=1/3$ -->
    <g transform="translate(104.681722 36.181841) scale(0.12 -0.12)">
     <defs>
      <path id="STIXGeneral-Regular-66" d="M 134 2880 
L 659 2880 
Q 666 3264 710 3478 
Q 755 3693 883 3910 
Q 1152 4371 1786 4371 
Q 2074 4371 2262 4259 
Q 2451 4147 2451 3974 
Q 2451 3866 2374 3789 
Q 2298 3712 2182 3712 
Q 2029 3712 1894 3942 
Q 1741 4192 1555 4192 
Q 1197 4192 1197 3622 
L 1197 2880 
L 1978 2880 
L 1978 2675 
L 1197 2675 
L 1197 666 
Q 1197 307 1299 208 
Q 1402 109 1792 96 
L 1792 0 
L 128 0 
L 128 96 
Q 474 115 566 214 
Q 659 314 659 666 
L 659 2675 
L 134 2675 
L 134 2880 
z
" transform="scale(0.015625)"/>
      <path id="STIXGeneral-Regular-61" d="M 2829 422 
L 2829 243 
Q 2586 -64 2253 -64 
Q 1888 -64 1843 403 
L 1837 403 
Q 1427 -64 909 -64 
Q 608 -64 422 112 
Q 237 288 237 602 
Q 237 1050 685 1350 
Q 992 1555 1837 1869 
L 1837 2214 
Q 1837 2502 1699 2646 
Q 1562 2790 1338 2790 
Q 1146 2790 1018 2697 
Q 890 2605 890 2477 
Q 890 2419 909 2348 
Q 928 2278 928 2208 
Q 928 2112 841 2029 
Q 755 1946 634 1946 
Q 525 1946 441 2029 
Q 358 2112 358 2240 
Q 358 2547 685 2752 
Q 986 2944 1421 2944 
Q 1939 2944 2176 2656 
Q 2291 2522 2323 2384 
Q 2355 2246 2355 1946 
L 2355 723 
Q 2355 301 2554 301 
Q 2682 301 2829 422 
z
M 1837 813 
L 1837 1715 
Q 1248 1510 1018 1293 
Q 800 1094 800 800 
Q 800 557 921 432 
Q 1043 307 1242 307 
Q 1453 307 1613 410 
Q 1747 506 1792 589 
Q 1837 672 1837 813 
z
" transform="scale(0.015625)"/>
      <path id="STIXGeneral-Regular-73" d="M 998 1926 
L 1664 1523 
Q 1984 1331 2105 1164 
Q 2227 998 2227 736 
Q 2227 416 1961 176 
Q 1696 -64 1331 -64 
Q 1030 -64 864 -6 
Q 691 51 570 51 
Q 461 51 416 -26 
L 333 -26 
L 333 979 
L 435 979 
Q 538 512 730 294 
Q 922 77 1248 77 
Q 1485 77 1632 211 
Q 1779 346 1779 550 
Q 1779 845 1440 1030 
L 1094 1222 
Q 326 1651 326 2150 
Q 326 2522 566 2730 
Q 806 2938 1210 2938 
Q 1491 2938 1638 2867 
Q 1754 2816 1818 2816 
Q 1862 2816 1920 2880 
L 1990 2880 
L 2022 2010 
L 1926 2010 
Q 1818 2445 1654 2621 
Q 1491 2797 1203 2797 
Q 986 2797 854 2688 
Q 723 2579 723 2362 
Q 723 2253 796 2128 
Q 870 2003 998 1926 
z
" transform="scale(0.015625)"/>
      <path id="STIXGeneral-Regular-74" d="M 1702 493 
L 1786 422 
Q 1478 -64 1011 -64 
Q 448 -64 448 749 
L 448 2675 
L 109 2675 
Q 83 2694 83 2720 
Q 83 2771 192 2842 
Q 435 2982 813 3526 
Q 826 3546 874 3606 
Q 922 3667 941 3706 
Q 986 3706 986 3622 
L 986 2880 
L 1632 2880 
L 1632 2675 
L 986 2675 
L 986 845 
Q 986 538 1062 403 
Q 1139 269 1318 269 
Q 1510 269 1702 493 
z
" transform="scale(0.015625)"/>
      <path id="STIXGeneral-Regular-20" transform="scale(0.015625)"/>
      <path id="STIXGeneral-Regular-67" d="M 3008 2483 
L 2477 2483 
Q 2598 2208 2598 1946 
Q 2598 1453 2265 1203 
Q 1933 954 1600 954 
Q 1530 954 1357 973 
L 1235 986 
Q 1107 947 979 812 
Q 851 678 851 582 
Q 851 435 1350 410 
L 2176 371 
Q 2528 358 2739 172 
Q 2950 -13 2950 -314 
Q 2950 -685 2566 -986 
Q 2035 -1395 1286 -1395 
Q 826 -1395 502 -1212 
Q 179 -1030 179 -774 
Q 179 -595 320 -419 
Q 461 -243 806 6 
Q 602 102 534 172 
Q 467 243 467 346 
Q 467 531 762 787 
Q 909 915 1037 1043 
Q 717 1203 579 1401 
Q 442 1600 442 1901 
Q 442 2336 752 2640 
Q 1062 2944 1510 2944 
Q 1766 2944 2022 2848 
L 2163 2797 
Q 2349 2733 2515 2733 
L 3008 2733 
L 3008 2483 
z
M 973 2163 
L 973 2144 
Q 973 1683 1155 1398 
Q 1338 1114 1632 1114 
Q 1850 1114 1978 1270 
Q 2106 1427 2106 1690 
Q 2106 2112 1914 2464 
Q 1754 2765 1446 2765 
Q 1222 2765 1097 2605 
Q 973 2445 973 2163 
z
M 2771 -410 
Q 2771 -230 2595 -163 
Q 2419 -96 1978 -96 
Q 1344 -96 941 -13 
Q 749 -243 688 -348 
Q 627 -454 627 -563 
Q 627 -774 880 -902 
Q 1133 -1030 1555 -1030 
Q 2099 -1030 2435 -860 
Q 2771 -691 2771 -410 
z
" transform="scale(0.015625)"/>
      <path id="STIXGeneral-Regular-70" d="M 1018 2931 
L 1018 2438 
Q 1421 2944 1939 2944 
Q 2406 2944 2707 2560 
Q 3008 2176 3008 1581 
Q 3008 883 2621 409 
Q 2234 -64 1664 -64 
Q 1466 -64 1328 -6 
Q 1190 51 1018 211 
L 1018 -794 
Q 1018 -1094 1120 -1180 
Q 1222 -1267 1581 -1274 
L 1581 -1389 
L 32 -1389 
L 32 -1280 
Q 314 -1254 397 -1171 
Q 480 -1088 480 -838 
L 480 2157 
Q 480 2381 429 2451 
Q 378 2522 218 2522 
Q 115 2522 58 2515 
L 58 2618 
Q 506 2752 979 2944 
L 1018 2931 
z
M 1018 2138 
L 1018 563 
Q 1018 422 1238 281 
Q 1459 141 1683 141 
Q 2029 141 2243 467 
Q 2458 794 2458 1325 
Q 2458 1888 2243 2224 
Q 2029 2560 1670 2560 
Q 1446 2560 1232 2419 
Q 1018 2278 1018 2138 
z
" transform="scale(0.015625)"/>
      <path id="STIXGeneral-Regular-3a" d="M 1123 2832 
Q 1229 2726 1229 2579 
Q 1229 2432 1126 2329 
Q 1024 2227 877 2227 
Q 730 2227 624 2332 
Q 518 2438 518 2579 
Q 518 2733 620 2835 
Q 723 2938 877 2938 
Q 1018 2938 1123 2832 
z
M 1229 282 
Q 1229 141 1126 35 
Q 1024 -70 877 -70 
Q 730 -70 624 35 
Q 518 141 518 282 
Q 518 435 620 537 
Q 723 640 877 640 
Q 1018 640 1123 534 
Q 1229 429 1229 282 
z
" transform="scale(0.015625)"/>
      <path id="Cmsy10-6a" d="M 763 -1484 
L 763 4684 
Q 763 4734 800 4767 
Q 838 4800 891 4800 
Q 938 4800 978 4767 
Q 1019 4734 1019 4684 
L 1019 -1484 
Q 1019 -1534 978 -1567 
Q 938 -1600 891 -1600 
Q 838 -1600 800 -1567 
Q 763 -1534 763 -1484 
z
" transform="scale(0.015625)"/>
      <path id="Cmmi10-b8" d="M 325 109 
Q 325 203 409 288 
L 2209 2053 
L 1575 3834 
Q 1500 4038 1417 4156 
Q 1334 4275 1178 4275 
Q 1106 4275 1106 4359 
Q 1113 4397 1138 4419 
Q 1163 4441 1203 4441 
Q 1875 4441 2016 4044 
L 3316 416 
Q 3400 144 3488 50 
Q 3519 3 3519 -13 
Q 3519 -72 3469 -72 
L 3122 -72 
Q 2963 -25 2869 206 
L 2284 1844 
L 738 25 
Q 622 -84 531 -84 
Q 450 -84 387 -28 
Q 325 28 325 109 
z
" transform="scale(0.015625)"/>
      <path id="Cmr10-32" d="M 319 0 
L 319 172 
Q 319 188 331 206 
L 1325 1306 
Q 1550 1550 1690 1715 
Q 1831 1881 1968 2097 
Q 2106 2313 2186 2536 
Q 2266 2759 2266 3009 
Q 2266 3272 2169 3511 
Q 2072 3750 1880 3894 
Q 1688 4038 1416 4038 
Q 1138 4038 916 3870 
Q 694 3703 603 3438 
Q 628 3444 672 3444 
Q 816 3444 917 3347 
Q 1019 3250 1019 3097 
Q 1019 2950 917 2848 
Q 816 2747 672 2747 
Q 522 2747 420 2851 
Q 319 2956 319 3097 
Q 319 3338 409 3548 
Q 500 3759 670 3923 
Q 841 4088 1055 4175 
Q 1269 4263 1509 4263 
Q 1875 4263 2190 4108 
Q 2506 3953 2690 3670 
Q 2875 3388 2875 3009 
Q 2875 2731 2753 2481 
Q 2631 2231 2440 2026 
Q 2250 1822 1953 1562 
Q 1656 1303 1563 1216 
L 838 519 
L 1453 519 
Q 1906 519 2211 526 
Q 2516 534 2534 550 
Q 2609 631 2688 1141 
L 2875 1141 
L 2694 0 
L 319 0 
z
" transform="scale(0.015625)"/>
      <path id="Cmmi10-3d" d="M 359 -1472 
Q 359 -1453 366 -1447 
L 2591 4722 
Q 2603 4759 2634 4779 
Q 2666 4800 2706 4800 
Q 2763 4800 2798 4765 
Q 2834 4731 2834 4672 
L 2834 4647 
L 609 -1522 
Q 572 -1600 488 -1600 
Q 434 -1600 396 -1562 
Q 359 -1525 359 -1472 
z
" transform="scale(0.015625)"/>
      <path id="Cmr10-3d" d="M 481 850 
Q 428 850 393 890 
Q 359 931 359 978 
Q 359 1031 393 1068 
Q 428 1106 481 1106 
L 4500 1106 
Q 4547 1106 4581 1068 
Q 4616 1031 4616 978 
Q 4616 931 4581 890 
Q 4547 850 4500 850 
L 481 850 
z
M 481 2094 
Q 428 2094 393 2131 
Q 359 2169 359 2222 
Q 359 2269 393 2309 
Q 428 2350 481 2350 
L 4500 2350 
Q 4547 2350 4581 2309 
Q 4616 2269 4616 2222 
Q 4616 2169 4581 2131 
Q 4547 2094 4500 2094 
L 481 2094 
z
" transform="scale(0.015625)"/>
      <path id="Cmr10-33" d="M 609 494 
Q 759 275 1012 169 
Q 1266 63 1556 63 
Q 1928 63 2084 380 
Q 2241 697 2241 1100 
Q 2241 1281 2208 1462 
Q 2175 1644 2097 1800 
Q 2019 1956 1883 2050 
Q 1747 2144 1550 2144 
L 1125 2144 
Q 1069 2144 1069 2203 
L 1069 2259 
Q 1069 2309 1125 2309 
L 1478 2338 
Q 1703 2338 1851 2506 
Q 2000 2675 2069 2917 
Q 2138 3159 2138 3378 
Q 2138 3684 1994 3881 
Q 1850 4078 1556 4078 
Q 1313 4078 1091 3986 
Q 869 3894 738 3706 
Q 750 3709 759 3711 
Q 769 3713 781 3713 
Q 925 3713 1022 3613 
Q 1119 3513 1119 3372 
Q 1119 3234 1022 3134 
Q 925 3034 781 3034 
Q 641 3034 541 3134 
Q 441 3234 441 3372 
Q 441 3647 606 3850 
Q 772 4053 1033 4158 
Q 1294 4263 1556 4263 
Q 1750 4263 1965 4205 
Q 2181 4147 2356 4039 
Q 2531 3931 2642 3762 
Q 2753 3594 2753 3378 
Q 2753 3109 2633 2881 
Q 2513 2653 2303 2487 
Q 2094 2322 1844 2241 
Q 2122 2188 2372 2031 
Q 2622 1875 2773 1631 
Q 2925 1388 2925 1106 
Q 2925 753 2731 467 
Q 2538 181 2222 20 
Q 1906 -141 1556 -141 
Q 1256 -141 954 -26 
Q 653 88 461 316 
Q 269 544 269 863 
Q 269 1022 375 1128 
Q 481 1234 641 1234 
Q 744 1234 830 1186 
Q 916 1138 964 1050 
Q 1013 963 1013 863 
Q 1013 706 903 600 
Q 794 494 641 494 
L 609 494 
z
" transform="scale(0.015625)"/>
     </defs>
     <use xlink:href="#STIXGeneral-Regular-66"/>
     <use xlink:href="#STIXGeneral-Regular-61" transform="translate(33.299988 0)"/>
     <use xlink:href="#STIXGeneral-Regular-73" transform="translate(77.699982 0)"/>
     <use xlink:href="#STIXGeneral-Regular-74" transform="translate(116.599976 0)"/>
     <use xlink:href="#STIXGeneral-Regular-20" transform="translate(144.399963 0)"/>
     <use xlink:href="#STIXGeneral-Regular-67" transform="translate(169.399948 0)"/>
     <use xlink:href="#STIXGeneral-Regular-61" transform="translate(219.399933 0)"/>
     <use xlink:href="#STIXGeneral-Regular-70" transform="translate(263.799927 0)"/>
     <use xlink:href="#STIXGeneral-Regular-3a" transform="translate(313.799911 0)"/>
     <use xlink:href="#STIXGeneral-Regular-20" transform="translate(341.599899 0)"/>
     <use xlink:href="#Cmsy10-6a" transform="translate(366.599884 0)"/>
     <use xlink:href="#Cmmi10-b8" transform="translate(394.285431 0)"/>
     <use xlink:href="#Cmr10-32" transform="translate(452.586212 -17.00625) scale(0.7)"/>
     <use xlink:href="#Cmmi10-3d" transform="translate(493.963556 0)"/>
     <use xlink:href="#Cmmi10-b8" transform="translate(543.963556 0)"/>
     <use xlink:href="#Cmr10-31" transform="translate(602.264337 -17.00625) scale(0.7)"/>
     <use xlink:href="#Cmsy10-6a" transform="translate(643.641681 0)"/>
     <use xlink:href="#Cmr10-3d" transform="translate(688.885822 0)"/>
     <use xlink:href="#Cmr10-31" transform="translate(784.129962 0)"/>
     <use xlink:href="#Cmmi10-3d" transform="translate(834.129962 0)"/>
     <use xlink:href="#Cmr10-33" transform="translate(884.129962 0)"/>
    </g>
   </g>
   <g id="patch_5">
    <path d="M 80.69079 266.856069 
Q 165.103544 266.856069 247.727444 266.856069 
" style="fill: none; opacity: 0.9; stroke: #463480; stroke-width: 1.6; stroke-linecap: round"/>
    <path d="M 243.727444 264.856069 
L 247.727444 266.856069 
L 243.727444 268.856069 
z
" style="fill: #463480; opacity: 0.9; stroke: #463480; stroke-width: 1.6; stroke-linecap: round"/>
   </g>
   <g id="patch_6">
    <path d="M 80.479478 265.960938 
Q 155.980541 228.210406 229.881603 191.259875 
" style="fill: none; opacity: 0.9; stroke: #3d4e8a; stroke-width: 1.6; stroke-linecap: round"/>
    <path d="M 225.409467 191.259875 
L 229.881603 191.259875 
L 227.198322 194.837584 
z
" style="fill: #3d4e8a; opacity: 0.9; stroke: #3d4e8a; stroke-width: 1.6; stroke-linecap: round"/>
   </g>
   <g id="patch_7">
    <path d="M 80.252182 265.605695 
Q 146.167469 212.873466 210.685896 161.258724 
" style="fill: none; opacity: 0.9; stroke: #31668e; stroke-width: 1.6; stroke-linecap: round"/>
    <path d="M 206.31303 162.195767 
L 210.685896 161.258724 
L 208.811811 165.319242 
z
" style="fill: #31668e; opacity: 0.9; stroke: #31668e; stroke-width: 1.6; stroke-linecap: round"/>
   </g>
   <g id="patch_8">
    <path d="M 80.155956 265.494095 
Q 142.013073 208.055344 202.559329 151.83382 
" style="fill: none; opacity: 0.9; stroke: #297b8e; stroke-width: 1.6; stroke-linecap: round"/>
    <path d="M 198.267253 153.090038 
L 202.559329 151.83382 
L 200.989057 156.021212 
z
" style="fill: #297b8e; opacity: 0.9; stroke: #297b8e; stroke-width: 1.6; stroke-linecap: round"/>
   </g>
   <g id="patch_9">
    <path d="M 80.121906 265.458322 
Q 140.543032 206.510882 199.683728 148.812642 
" style="fill: none; opacity: 0.9; stroke: #21918c; stroke-width: 1.6; stroke-linecap: round"/>
    <path d="M 195.423952 150.174373 
L 199.683728 148.812642 
L 198.217248 153.037501 
z
" style="fill: #21918c; opacity: 0.9; stroke: #21918c; stroke-width: 1.6; stroke-linecap: round"/>
   </g>
   <g id="patch_10">
    <path d="M 80.110354 265.446578 
Q 140.044311 206.003884 198.708162 147.820884 
" style="fill: none; opacity: 0.9; stroke: #21a585; stroke-width: 1.6; stroke-linecap: round"/>
    <path d="M 194.459737 149.217626 
L 198.708162 147.820884 
L 197.276501 152.057669 
z
" style="fill: #21a585; opacity: 0.9; stroke: #21a585; stroke-width: 1.6; stroke-linecap: round"/>
   </g>
   <g id="patch_11">
    <path d="M 80.106482 265.442685 
Q 139.877135 205.835788 198.381142 147.492065 
" style="fill: none; opacity: 0.9; stroke: #38b977; stroke-width: 1.6; stroke-linecap: round"/>
    <path d="M 194.136566 148.900457 
L 198.381142 147.492065 
L 196.96111 151.732762 
z
" style="fill: #38b977; opacity: 0.9; stroke: #38b977; stroke-width: 1.6; stroke-linecap: round"/>
   </g>
   <g id="patch_12">
    <path d="M 80.105189 265.441389 
Q 139.821306 205.779857 198.271934 147.382657 
" style="fill: none; opacity: 0.9; stroke: #65cb5e; stroke-width: 1.6; stroke-linecap: round"/>
    <path d="M 194.028648 148.794931 
L 198.271934 147.382657 
L 196.855781 151.624651 
z
" style="fill: #65cb5e; opacity: 0.9; stroke: #65cb5e; stroke-width: 1.6; stroke-linecap: round"/>
   </g>
   <g id="patch_13">
    <path d="M 80.104758 265.440958 
Q 139.802686 205.761225 198.23551 147.34621 
" style="fill: none; opacity: 0.9; stroke: #9bd93c; stroke-width: 1.6; stroke-linecap: round"/>
    <path d="M 193.992653 148.759777 
L 198.23551 147.34621 
L 196.820649 151.588635 
z
" style="fill: #9bd93c; opacity: 0.9; stroke: #9bd93c; stroke-width: 1.6; stroke-linecap: round"/>
   </g>
  </g>
  <g id="axes_2">
   <g id="patch_14">
    <path d="M 351.2 327.345284 
L 636.363443 327.345284 
L 636.363443 42.181841 
L 351.2 42.181841 
z
" style="fill: #ffffff"/>
   </g>
   <g id="line2d_8">
    <path d="M 584.515544 266.856069 
L 584.429406 261.400192 
L 584.171076 255.949754 
L 583.740813 250.510188 
L 583.139045 245.086915 
L 582.366372 239.685343 
L 581.423564 234.310855 
L 580.311561 228.968808 
L 579.031472 223.664529 
L 577.584573 218.403304 
L 575.972305 213.190377 
L 574.196277 208.030946 
L 572.258257 202.930153 
L 570.16018 197.893082 
L 567.904134 192.924756 
L 565.492371 188.030125 
L 562.927293 183.214071 
L 560.211458 178.481392 
L 557.347572 173.836807 
L 554.338491 169.284946 
L 551.187215 164.830345 
L 547.896883 160.477447 
L 544.470777 156.230588 
L 540.912311 152.094004 
L 537.225033 148.071817 
L 533.412618 144.168037 
L 529.478866 140.386554 
L 525.4277 136.73114 
L 521.263156 133.205436 
L 516.989386 129.812959 
L 512.610651 126.557089 
L 508.131316 123.441072 
L 503.555844 120.468014 
L 498.888799 117.64088 
L 494.13483 114.962486 
L 489.298678 112.435503 
L 484.385164 110.062449 
L 479.399184 107.845691 
L 474.345709 105.787438 
L 469.229778 103.889742 
L 464.056488 102.154494 
L 458.830998 100.583424 
L 453.558516 99.178099 
L 448.244297 97.939918 
L 442.89364 96.870117 
L 437.511877 95.969761 
L 432.104374 95.239749 
L 426.676521 94.680807 
L 421.233727 94.293494 
L 415.78142 94.078194 
L 410.325034 94.035124 
L 404.870007 94.164325 
L 399.421778 94.465669 
L 393.985777 94.938855 
L 388.567424 95.583413 
L 383.172118 96.398698 
L 377.80524 97.383899 
L 372.472137 98.538034 
L 367.178127 99.859952 
L 361.928487 101.348335 
L 356.728449 103.0017 
L 351.583197 104.818398 
L 346.49786 106.79662 
L 341.477508 108.934392 
L 336.527144 111.229583 
L 331.651703 113.679907 
L 326.856045 116.28292 
L 322.144951 119.036027 
L 317.523116 121.936485 
L 312.995149 124.981401 
L 308.565561 128.167742 
L 304.23877 131.49233 
L 300.019087 134.951851 
L 295.91072 138.542858 
L 291.917763 142.26177 
L 288.044197 146.10488 
L 284.293884 150.068357 
L 280.67056 154.148252 
L 277.177839 158.340495 
L 273.819202 162.64091 
L 270.597996 167.045208 
L 267.517433 171.549 
L 264.580584 176.147796 
L 261.790376 180.837012 
L 259.14959 185.611974 
L 256.66086 190.467922 
L 254.326664 195.400015 
L 252.149332 200.403337 
L 250.131032 205.4729 
L 248.273776 210.603652 
L 246.579417 215.790477 
L 245.049643 221.028206 
L 243.685979 226.311616 
L 242.489784 231.635443 
L 241.462251 236.994378 
L 240.604403 242.38308 
L 239.917097 247.796177 
L 239.401017 253.228273 
L 239.056678 258.673954 
L 238.884422 264.127791 
L 238.884422 269.584347 
L 239.056678 275.038184 
L 239.401017 280.483865 
L 239.917097 285.915961 
L 240.604403 291.329058 
L 241.462251 296.71776 
L 242.489784 302.076695 
L 243.685979 307.400521 
L 245.049643 312.683932 
L 246.579417 317.921661 
L 248.273776 323.108486 
L 250.131032 328.239237 
L 252.149332 333.308801 
L 254.326664 338.312123 
L 256.66086 343.244216 
L 260.280641 350.145284 
M 563.115189 350.145284 
L 565.492371 345.682012 
L 567.904134 340.787382 
L 570.16018 335.819055 
L 572.258257 330.781985 
L 574.196277 325.681192 
L 575.972305 320.52176 
L 577.584573 315.308834 
L 579.031472 310.047609 
L 580.311561 304.743329 
L 581.423564 299.401283 
L 582.366372 294.026795 
L 583.139045 288.625222 
L 583.740813 283.20195 
L 584.171076 277.762383 
L 584.429406 272.311945 
L 584.515544 266.856069 
L 584.515544 266.856069 
" clip-path="url(#pb38b403556)" style="fill: none; stroke: #9aa3ad; stroke-width: 0.8; stroke-linecap: square"/>
   </g>
   <g id="matplotlib.axis_3">
    <g id="xtick_3">
     <g id="line2d_9">
      <g>
       <use xlink:href="#mebd8c5743e" x="411.689215" y="327.345284" style="fill: #1f2328; stroke: #1f2328; stroke-width: 0.8"/>
      </g>
     </g>
     <g id="text_8">
      <!-- 0 -->
      <g style="fill: #1f2328" transform="translate(409.439215 339.992003) scale(0.09 -0.09)">
       <use xlink:href="#STIXGeneral-Regular-30"/>
      </g>
     </g>
    </g>
    <g id="xtick_4">
     <g id="line2d_10">
      <g>
       <use xlink:href="#mebd8c5743e" x="584.515544" y="327.345284" style="fill: #1f2328; stroke: #1f2328; stroke-width: 0.8"/>
      </g>
     </g>
     <g id="text_9">
      <!-- 1 -->
      <g style="fill: #1f2328" transform="translate(582.265544 339.992003) scale(0.09 -0.09)">
       <use xlink:href="#STIXGeneral-Regular-31"/>
      </g>
     </g>
    </g>
   </g>
   <g id="matplotlib.axis_4">
    <g id="ytick_3">
     <g id="line2d_11">
      <g>
       <use xlink:href="#m87300a04c9" x="351.2" y="266.856069" style="fill: #1f2328; stroke: #1f2328; stroke-width: 0.8"/>
      </g>
     </g>
     <g id="text_10">
      <!-- 0 -->
      <g style="fill: #1f2328" transform="translate(340.2 269.929428) scale(0.09 -0.09)">
       <use xlink:href="#STIXGeneral-Regular-30"/>
      </g>
     </g>
    </g>
    <g id="ytick_4">
     <g id="line2d_12">
      <g>
       <use xlink:href="#m87300a04c9" x="351.2" y="94.02974" style="fill: #1f2328; stroke: #1f2328; stroke-width: 0.8"/>
      </g>
     </g>
     <g id="text_11">
      <!-- 1 -->
      <g style="fill: #1f2328" transform="translate(340.2 97.103099) scale(0.09 -0.09)">
       <use xlink:href="#STIXGeneral-Regular-31"/>
      </g>
     </g>
    </g>
   </g>
   <g id="line2d_13">
    <path d="M 411.689215 266.856069 
L 533.895885 144.6494 
" clip-path="url(#pb38b403556)" style="fill: none; stroke-dasharray: 3.7,1.6; stroke-dashoffset: 0; stroke: #1f2328"/>
   </g>
   <g id="line2d_14">
    <path d="M 411.689215 266.856069 
L 494.97843 350.145284 
" clip-path="url(#pb38b403556)" style="fill: none; stroke-dasharray: 3.7,1.6; stroke-dashoffset: 0; stroke: #9aa3ad"/>
   </g>
   <g id="patch_15">
    <path d="M 351.2 327.345284 
L 351.2 42.181841 
" style="fill: none; stroke: #1f2328; stroke-width: 0.8; stroke-linejoin: miter; stroke-linecap: square"/>
   </g>
   <g id="patch_16">
    <path d="M 351.2 327.345284 
L 636.363443 327.345284 
" style="fill: none; stroke: #1f2328; stroke-width: 0.8; stroke-linejoin: miter; stroke-linecap: square"/>
   </g>
   <g id="text_12">
    <!-- $v_1$ -->
    <g style="fill: #1f2328" transform="translate(546.054818 130.103122) scale(0.11 -0.11)">
     <use xlink:href="#Cmmi10-76" transform="translate(0 0.71875)"/>
     <use xlink:href="#Cmr10-31" transform="translate(48.388672 -16.2875) scale(0.7)"/>
    </g>
   </g>
   <g id="text_13">
    <!-- $u^{(0)}$ -->
    <g style="fill: #0072b2" transform="translate(598.982967 269.335756) scale(0.1 -0.1)">
     <use xlink:href="#Cmmi10-75" transform="translate(0 0.235938)"/>
     <use xlink:href="#Cmr10-28" transform="translate(63.481016 38.5) scale(0.7)"/>
     <use xlink:href="#Cmr10-30" transform="translate(90.653867 38.5) scale(0.7)"/>
     <use xlink:href="#Cmr10-29" transform="translate(125.653867 38.5) scale(0.7)"/>
    </g>
   </g>
   <g id="text_14">
    <!-- slow gap: $|\lambda_2/\lambda_1|=0.9$ -->
    <g transform="translate(436.361722 36.181841) scale(0.12 -0.12)">
     <defs>
      <path id="STIXGeneral-Regular-6c" d="M 1645 0 
L 134 0 
L 134 96 
Q 435 122 531 221 
Q 627 320 627 589 
L 627 3590 
Q 627 3821 569 3910 
Q 512 4000 358 4000 
Q 224 4000 122 3987 
L 122 4090 
Q 730 4237 1133 4371 
L 1165 4346 
L 1165 557 
Q 1165 288 1254 201 
Q 1344 115 1645 96 
L 1645 0 
z
" transform="scale(0.015625)"/>
      <path id="STIXGeneral-Regular-6f" d="M 3008 1478 
Q 3008 806 2608 371 
Q 2208 -64 1568 -64 
Q 979 -64 582 368 
Q 186 800 186 1459 
Q 186 2125 582 2534 
Q 979 2944 1626 2944 
Q 2221 2944 2614 2537 
Q 3008 2131 3008 1478 
z
M 2432 1306 
Q 2432 2035 2112 2445 
Q 1856 2765 1504 2765 
Q 1171 2765 966 2493 
Q 762 2221 762 1747 
Q 762 928 1101 435 
Q 1318 115 1677 115 
Q 2029 115 2230 432 
Q 2432 749 2432 1306 
z
" transform="scale(0.015625)"/>
      <path id="STIXGeneral-Regular-77" d="M 4442 2880 
L 4442 2784 
Q 4346 2752 4301 2691 
Q 4256 2630 4179 2438 
L 3296 224 
Q 3168 -90 3117 -90 
Q 3085 -90 3062 -48 
Q 3040 -6 2963 186 
L 2381 1696 
L 1664 160 
Q 1549 -90 1504 -90 
Q 1446 -90 1338 192 
L 474 2381 
Q 378 2630 314 2700 
Q 250 2771 134 2784 
L 134 2880 
L 1286 2880 
L 1286 2784 
Q 1120 2765 1056 2720 
Q 992 2675 992 2573 
Q 992 2477 1030 2381 
L 1664 710 
L 2246 1984 
L 2118 2342 
Q 2029 2598 1942 2681 
Q 1856 2765 1677 2784 
L 1677 2880 
L 2976 2880 
L 2976 2784 
Q 2752 2752 2678 2707 
Q 2605 2662 2605 2560 
Q 2605 2458 2714 2176 
L 3251 742 
L 3827 2163 
Q 3936 2432 3936 2592 
Q 3936 2669 3875 2710 
Q 3814 2752 3654 2784 
L 3654 2880 
L 4442 2880 
z
" transform="scale(0.015625)"/>
      <path id="Cmmi10-3a" d="M 538 353 
Q 538 497 644 600 
Q 750 703 891 703 
Q 978 703 1062 656 
Q 1147 609 1194 525 
Q 1241 441 1241 353 
Q 1241 213 1137 106 
Q 1034 0 891 0 
Q 750 0 644 106 
Q 538 213 538 353 
z
" transform="scale(0.015625)"/>
      <path id="Cmr10-39" d="M 722 269 
Q 897 63 1331 63 
Q 1575 63 1786 228 
Q 1997 394 2113 634 
Q 2247 906 2284 1214 
Q 2322 1522 2322 1978 
Q 2213 1719 2008 1553 
Q 1803 1388 1538 1388 
Q 1166 1388 873 1589 
Q 581 1791 425 2120 
Q 269 2450 269 2822 
Q 269 3206 444 3539 
Q 619 3872 928 4067 
Q 1238 4263 1631 4263 
Q 2019 4263 2280 4052 
Q 2541 3841 2678 3508 
Q 2816 3175 2870 2803 
Q 2925 2431 2925 2069 
Q 2925 1575 2744 1061 
Q 2563 547 2202 203 
Q 1841 -141 1331 -141 
Q 953 -141 690 37 
Q 428 216 428 575 
Q 428 706 517 795 
Q 606 884 738 884 
Q 866 884 955 795 
Q 1044 706 1044 575 
Q 1044 450 953 359 
Q 863 269 738 269 
L 722 269 
z
M 1563 1556 
Q 1825 1556 1992 1732 
Q 2159 1909 2234 2171 
Q 2309 2434 2309 2694 
L 2309 2816 
L 2309 2841 
Q 2309 3322 2168 3700 
Q 2028 4078 1631 4078 
Q 1378 4078 1220 3967 
Q 1063 3856 988 3672 
Q 913 3488 892 3278 
Q 872 3069 872 2822 
Q 872 2459 906 2203 
Q 941 1947 1094 1751 
Q 1247 1556 1563 1556 
z
" transform="scale(0.015625)"/>
     </defs>
     <use xlink:href="#STIXGeneral-Regular-73"/>
     <use xlink:href="#STIXGeneral-Regular-6c" transform="translate(38.899994 0)"/>
     <use xlink:href="#STIXGeneral-Regular-6f" transform="translate(66.699982 0)"/>
     <use xlink:href="#STIXGeneral-Regular-77" transform="translate(116.699966 0)"/>
     <use xlink:href="#STIXGeneral-Regular-20" transform="translate(188.899948 0)"/>
     <use xlink:href="#STIXGeneral-Regular-67" transform="translate(213.899933 0)"/>
     <use xlink:href="#STIXGeneral-Regular-61" transform="translate(263.899918 0)"/>
     <use xlink:href="#STIXGeneral-Regular-70" transform="translate(308.299911 0)"/>
     <use xlink:href="#STIXGeneral-Regular-3a" transform="translate(358.299896 0)"/>
     <use xlink:href="#STIXGeneral-Regular-20" transform="translate(386.099884 0)"/>
     <use xlink:href="#Cmsy10-6a" transform="translate(411.099869 0)"/>
     <use xlink:href="#Cmmi10-b8" transform="translate(438.785416 0)"/>
     <use xlink:href="#Cmr10-32" transform="translate(497.086197 -17.00625) scale(0.7)"/>
     <use xlink:href="#Cmmi10-3d" transform="translate(538.463541 0)"/>
     <use xlink:href="#Cmmi10-b8" transform="translate(588.463541 0)"/>
     <use xlink:href="#Cmr10-31" transform="translate(646.764322 -17.00625) scale(0.7)"/>
     <use xlink:href="#Cmsy10-6a" transform="translate(688.141666 0)"/>
     <use xlink:href="#Cmr10-3d" transform="translate(733.385806 0)"/>
     <use xlink:href="#Cmr10-30" transform="translate(828.629947 0)"/>
     <use xlink:href="#Cmmi10-3a" transform="translate(878.629947 0)"/>
     <use xlink:href="#Cmr10-39" transform="translate(906.315494 0)"/>
    </g>
   </g>
   <g id="patch_17">
    <path d="M 413.69079 266.856069 
Q 498.103544 266.856069 580.727444 266.856069 
" style="fill: none; opacity: 0.9; stroke: #463480; stroke-width: 1.6; stroke-linecap: round"/>
    <path d="M 576.727444 264.856069 
L 580.727444 266.856069 
L 576.727444 268.856069 
z
" style="fill: #463480; opacity: 0.9; stroke: #463480; stroke-width: 1.6; stroke-linecap: round"/>
   </g>
   <g id="patch_18">
    <path d="M 413.688023 266.750868 
Q 497.984105 262.314233 580.493804 257.971617 
" style="fill: none; opacity: 0.9; stroke: #3d4e8a; stroke-width: 1.6; stroke-linecap: round"/>
    <path d="M 576.394215 256.184616 
L 580.493804 257.971617 
L 576.604451 260.179088 
z
" style="fill: #3d4e8a; opacity: 0.9; stroke: #3d4e8a; stroke-width: 1.6; stroke-linecap: round"/>
   </g>
   <g id="patch_19">
    <path d="M 413.679852 266.647107 
Q 497.631335 257.83452 579.803738 249.208688 
" style="fill: none; opacity: 0.9; stroke: #31668e; stroke-width: 1.6; stroke-linecap: round"/>
    <path d="M 575.616798 247.637212 
L 579.803738 249.208688 
L 576.034393 251.615354 
z
" style="fill: #31668e; opacity: 0.9; stroke: #31668e; stroke-width: 1.6; stroke-linecap: round"/>
   </g>
   <g id="patch_20">
    <path d="M 413.666647 266.54613 
Q 497.061248 253.475027 578.68857 240.680924 
" style="fill: none; opacity: 0.9; stroke: #297b8e; stroke-width: 1.6; stroke-linecap: round"/>
    <path d="M 574.427122 239.324437 
L 578.68857 240.680924 
L 575.046512 243.276191 
z
" style="fill: #297b8e; opacity: 0.9; stroke: #297b8e; stroke-width: 1.6; stroke-linecap: round"/>
   </g>
   <g id="patch_21">
    <path d="M 413.648982 266.449111 
Q 496.298567 249.286383 577.196662 232.487365 
" style="fill: none; opacity: 0.9; stroke: #21918c; stroke-width: 1.6; stroke-linecap: round"/>
    <path d="M 572.873574 231.342416 
L 577.196662 232.487365 
L 573.68685 235.258866 
z
" style="fill: #21918c; opacity: 0.9; stroke: #21918c; stroke-width: 1.6; stroke-linecap: round"/>
   </g>
   <g id="patch_22">
    <path d="M 413.627571 266.356992 
Q 495.374192 245.309354 575.388458 224.707752 
" style="fill: none; opacity: 0.9; stroke: #21a585; stroke-width: 1.6; stroke-linecap: round"/>
    <path d="M 571.016112 223.768288 
L 575.388458 224.707752 
L 572.01348 227.64195 
z
" style="fill: #21a585; opacity: 0.9; stroke: #21a585; stroke-width: 1.6; stroke-linecap: round"/>
   </g>
   <g id="patch_23">
    <path d="M 413.603208 266.270465 
Q 494.322359 241.573669 573.33093 217.400242 
" style="fill: none; opacity: 0.9; stroke: #38b977; stroke-width: 1.6; stroke-linecap: round"/>
    <path d="M 568.920812 216.658043 
L 573.33093 217.400242 
L 570.0911 220.483017 
z
" style="fill: #38b977; opacity: 0.9; stroke: #38b977; stroke-width: 1.6; stroke-linecap: round"/>
   </g>
   <g id="patch_24">
    <path d="M 413.5767 266.18996 
Q 493.177935 238.098031 571.092281 210.60142 
" style="fill: none; opacity: 0.9; stroke: #65cb5e; stroke-width: 1.6; stroke-linecap: round"/>
    <path d="M 566.654695 210.046589 
L 571.092281 210.60142 
L 567.985865 213.81859 
z
" style="fill: #65cb5e; opacity: 0.9; stroke: #65cb5e; stroke-width: 1.6; stroke-linecap: round"/>
   </g>
   <g id="patch_25">
    <path d="M 413.548818 266.115678 
Q 491.974168 234.891049 568.737548 204.328124 
" style="fill: none; opacity: 0.9; stroke: #9bd93c; stroke-width: 1.6; stroke-linecap: round"/>
    <path d="M 564.28146 203.949601 
L 568.737548 204.328124 
L 565.761077 207.66588 
z
" style="fill: #9bd93c; opacity: 0.9; stroke: #9bd93c; stroke-width: 1.6; stroke-linecap: round"/>
   </g>
  </g>
  <g id="text_15">
   <!-- Power method: the iterate rotates onto $v_1$ -->
   <g transform="translate(223.381722 15.395625) scale(0.12 -0.12)">
    <defs>
     <path id="STIXGeneral-Regular-50" d="M 102 4237 
L 1760 4237 
Q 2669 4237 3149 3834 
Q 3469 3565 3469 3072 
Q 3469 2560 3104 2234 
Q 2835 1990 2553 1916 
Q 2272 1843 1734 1843 
Q 1549 1843 1293 1862 
L 1293 717 
Q 1293 352 1398 246 
Q 1504 141 1894 122 
L 1894 0 
L 102 0 
L 102 122 
Q 474 147 557 256 
Q 640 365 640 781 
L 640 3526 
Q 640 3885 547 3987 
Q 454 4090 102 4115 
L 102 4237 
z
M 1293 3770 
L 1293 2118 
Q 1510 2099 1683 2099 
Q 2202 2099 2486 2352 
Q 2771 2605 2771 3040 
Q 2771 3558 2476 3779 
Q 2182 4000 1517 4000 
Q 1382 4000 1337 3952 
Q 1293 3904 1293 3770 
z
" transform="scale(0.015625)"/>
     <path id="STIXGeneral-Regular-65" d="M 2611 1050 
L 2714 1005 
Q 2330 -64 1376 -64 
Q 813 -64 486 329 
Q 160 723 160 1389 
Q 160 2074 525 2509 
Q 890 2944 1485 2944 
Q 2061 2944 2374 2502 
Q 2560 2246 2592 1773 
L 621 1773 
Q 646 1370 700 1158 
Q 755 947 915 730 
Q 1184 378 1626 378 
Q 1939 378 2153 531 
Q 2368 685 2611 1050 
z
M 634 1978 
L 1939 1978 
Q 1882 2381 1750 2547 
Q 1619 2714 1312 2714 
Q 1043 2714 864 2525 
Q 685 2336 634 1978 
z
" transform="scale(0.015625)"/>
     <path id="STIXGeneral-Regular-72" d="M 1024 2931 
L 1024 2342 
Q 1267 2688 1430 2816 
Q 1594 2944 1792 2944 
Q 1958 2944 2051 2854 
Q 2144 2765 2144 2605 
Q 2144 2470 2077 2393 
Q 2010 2317 1894 2317 
Q 1773 2317 1638 2445 
Q 1536 2541 1472 2541 
Q 1338 2541 1181 2355 
Q 1024 2170 1024 2016 
L 1024 576 
Q 1024 301 1133 205 
Q 1242 109 1568 96 
L 1568 0 
L 32 0 
L 32 96 
Q 339 154 412 224 
Q 486 294 486 538 
L 486 2138 
Q 486 2349 438 2435 
Q 390 2522 269 2522 
Q 166 2522 45 2496 
L 45 2598 
Q 448 2726 992 2944 
L 1024 2931 
z
" transform="scale(0.015625)"/>
     <path id="STIXGeneral-Regular-6d" d="M 4960 0 
L 3565 0 
L 3565 96 
Q 3834 122 3907 208 
Q 3981 294 3981 576 
L 3981 1894 
Q 3981 2278 3869 2444 
Q 3757 2611 3488 2611 
Q 3264 2611 3107 2521 
Q 2950 2432 2803 2221 
L 2803 608 
Q 2803 301 2896 201 
Q 2989 102 3264 96 
L 3264 0 
L 1830 0 
L 1830 96 
Q 2112 115 2189 188 
Q 2266 262 2266 550 
L 2266 1901 
Q 2266 2611 1850 2611 
Q 1670 2611 1468 2531 
Q 1267 2451 1171 2336 
Q 1088 2240 1088 2227 
L 1088 448 
Q 1088 243 1177 176 
Q 1267 109 1523 96 
L 1523 0 
L 102 0 
L 102 96 
Q 371 102 460 195 
Q 550 288 550 563 
L 550 2150 
Q 550 2387 499 2480 
Q 448 2573 326 2573 
Q 230 2573 122 2547 
L 122 2656 
Q 557 2778 1011 2944 
L 1062 2925 
L 1062 2451 
L 1075 2451 
Q 1363 2752 1584 2848 
Q 1805 2944 2054 2944 
Q 2560 2944 2733 2406 
Q 3232 2944 3776 2944 
Q 4518 2944 4518 1792 
L 4518 493 
Q 4518 282 4582 202 
Q 4646 122 4794 109 
L 4960 96 
L 4960 0 
z
" transform="scale(0.015625)"/>
     <path id="STIXGeneral-Regular-68" d="M 3117 0 
L 1760 0 
L 1760 96 
Q 2042 128 2118 224 
Q 2195 320 2195 653 
L 2195 1920 
Q 2195 2598 1722 2598 
Q 1530 2598 1370 2508 
Q 1210 2419 1005 2195 
L 1005 653 
Q 1005 320 1081 224 
Q 1158 128 1440 96 
L 1440 0 
L 58 0 
L 58 96 
Q 333 134 400 224 
Q 467 314 467 653 
L 467 3667 
Q 467 3872 406 3933 
Q 346 3994 141 3994 
Q 83 3994 64 3987 
L 64 4090 
L 237 4141 
Q 730 4288 973 4371 
L 1005 4352 
L 1005 2406 
Q 1229 2694 1446 2819 
Q 1664 2944 1946 2944 
Q 2733 2944 2733 1926 
L 2733 653 
Q 2733 320 2793 233 
Q 2854 147 3117 96 
L 3117 0 
z
" transform="scale(0.015625)"/>
     <path id="STIXGeneral-Regular-64" d="M 3142 269 
L 2202 -64 
L 2176 -45 
L 2176 365 
Q 1869 -64 1357 -64 
Q 826 -64 499 317 
Q 173 698 173 1312 
Q 173 1990 563 2467 
Q 954 2944 1504 2944 
Q 1850 2944 2176 2669 
L 2176 3667 
Q 2176 3866 2118 3930 
Q 2061 3994 1882 3994 
Q 1792 3994 1741 3987 
L 1741 4090 
Q 2323 4243 2682 4371 
L 2714 4358 
L 2714 730 
Q 2714 506 2768 435 
Q 2822 365 2995 365 
Q 3034 365 3142 371 
L 3142 269 
z
M 2176 653 
L 2176 2125 
Q 2176 2381 1981 2573 
Q 1786 2765 1523 2765 
Q 1158 2765 940 2438 
Q 723 2112 723 1568 
Q 723 979 963 624 
Q 1203 269 1606 269 
Q 1907 269 2080 474 
Q 2176 582 2176 653 
z
" transform="scale(0.015625)"/>
     <path id="STIXGeneral-Regular-69" d="M 1152 4045 
Q 1152 3904 1056 3811 
Q 960 3718 819 3718 
Q 685 3718 592 3811 
Q 499 3904 499 4045 
Q 499 4179 595 4275 
Q 691 4371 826 4371 
Q 966 4371 1059 4275 
Q 1152 4179 1152 4045 
z
M 1619 0 
L 102 0 
L 102 96 
Q 435 115 521 211 
Q 608 307 608 666 
L 608 2118 
Q 608 2342 563 2432 
Q 518 2522 397 2522 
Q 243 2522 128 2490 
L 128 2592 
L 1120 2944 
L 1146 2918 
L 1146 672 
Q 1146 314 1226 218 
Q 1306 122 1619 96 
L 1619 0 
z
" transform="scale(0.015625)"/>
     <path id="STIXGeneral-Regular-6e" d="M 3104 0 
L 1773 0 
L 1779 96 
Q 2016 115 2096 233 
Q 2176 352 2176 672 
L 2176 1946 
Q 2176 2592 1709 2592 
Q 1549 2592 1408 2515 
Q 1267 2438 1050 2227 
L 1050 461 
Q 1050 269 1136 192 
Q 1222 115 1466 96 
L 1466 0 
L 115 0 
L 115 96 
Q 358 115 435 214 
Q 512 314 512 602 
L 512 2157 
Q 512 2394 467 2483 
Q 422 2573 288 2573 
Q 160 2573 102 2547 
L 102 2656 
Q 550 2784 979 2944 
L 1030 2925 
L 1030 2426 
L 1037 2426 
Q 1491 2944 1958 2944 
Q 2323 2944 2518 2688 
Q 2714 2432 2714 1958 
L 2714 544 
Q 2714 288 2790 205 
Q 2867 122 3104 96 
L 3104 0 
z
" transform="scale(0.015625)"/>
    </defs>
    <use xlink:href="#STIXGeneral-Regular-50" transform="translate(0 0.703125)"/>
    <use xlink:href="#STIXGeneral-Regular-6f" transform="translate(55.699997 0.703125)"/>
    <use xlink:href="#STIXGeneral-Regular-77" transform="translate(105.699982 0.703125)"/>
    <use xlink:href="#STIXGeneral-Regular-65" transform="translate(177.899963 0.703125)"/>
    <use xlink:href="#STIXGeneral-Regular-72" transform="translate(222.299957 0.703125)"/>
    <use xlink:href="#STIXGeneral-Regular-20" transform="translate(255.599945 0.703125)"/>
    <use xlink:href="#STIXGeneral-Regular-6d" transform="translate(280.59993 0.703125)"/>
    <use xlink:href="#STIXGeneral-Regular-65" transform="translate(358.399918 0.703125)"/>
    <use xlink:href="#STIXGeneral-Regular-74" transform="translate(402.799911 0.703125)"/>
    <use xlink:href="#STIXGeneral-Regular-68" transform="translate(430.599899 0.703125)"/>
    <use xlink:href="#STIXGeneral-Regular-6f" transform="translate(480.599884 0.703125)"/>
    <use xlink:href="#STIXGeneral-Regular-64" transform="translate(530.599869 0.703125)"/>
    <use xlink:href="#STIXGeneral-Regular-3a" transform="translate(580.599854 0.703125)"/>
    <use xlink:href="#STIXGeneral-Regular-20" transform="translate(608.399841 0.703125)"/>
    <use xlink:href="#STIXGeneral-Regular-74" transform="translate(633.399826 0.703125)"/>
    <use xlink:href="#STIXGeneral-Regular-68" transform="translate(661.199814 0.703125)"/>
    <use xlink:href="#STIXGeneral-Regular-65" transform="translate(711.199799 0.703125)"/>
    <use xlink:href="#STIXGeneral-Regular-20" transform="translate(755.599792 0.703125)"/>
    <use xlink:href="#STIXGeneral-Regular-69" transform="translate(780.599777 0.703125)"/>
    <use xlink:href="#STIXGeneral-Regular-74" transform="translate(808.399765 0.703125)"/>
    <use xlink:href="#STIXGeneral-Regular-65" transform="translate(836.199753 0.703125)"/>
    <use xlink:href="#STIXGeneral-Regular-72" transform="translate(880.599747 0.703125)"/>
    <use xlink:href="#STIXGeneral-Regular-61" transform="translate(913.899734 0.703125)"/>
    <use xlink:href="#STIXGeneral-Regular-74" transform="translate(958.299728 0.703125)"/>
    <use xlink:href="#STIXGeneral-Regular-65" transform="translate(986.099716 0.703125)"/>
    <use xlink:href="#STIXGeneral-Regular-20" transform="translate(1030.49971 0.703125)"/>
    <use xlink:href="#STIXGeneral-Regular-72" transform="translate(1055.499695 0.703125)"/>
    <use xlink:href="#STIXGeneral-Regular-6f" transform="translate(1088.799683 0.703125)"/>
    <use xlink:href="#STIXGeneral-Regular-74" transform="translate(1138.799667 0.703125)"/>
    <use xlink:href="#STIXGeneral-Regular-61" transform="translate(1166.599655 0.703125)"/>
    <use xlink:href="#STIXGeneral-Regular-74" transform="translate(1210.999649 0.703125)"/>
    <use xlink:href="#STIXGeneral-Regular-65" transform="translate(1238.799637 0.703125)"/>
    <use xlink:href="#STIXGeneral-Regular-73" transform="translate(1283.199631 0.703125)"/>
    <use xlink:href="#STIXGeneral-Regular-20" transform="translate(1322.099625 0.703125)"/>
    <use xlink:href="#STIXGeneral-Regular-6f" transform="translate(1347.099609 0.703125)"/>
    <use xlink:href="#STIXGeneral-Regular-6e" transform="translate(1397.099594 0.703125)"/>
    <use xlink:href="#STIXGeneral-Regular-74" transform="translate(1447.099579 0.703125)"/>
    <use xlink:href="#STIXGeneral-Regular-6f" transform="translate(1474.899567 0.703125)"/>
    <use xlink:href="#STIXGeneral-Regular-20" transform="translate(1524.899551 0.703125)"/>
    <use xlink:href="#Cmmi10-76" transform="translate(1549.899536 0.703125)"/>
    <use xlink:href="#Cmr10-31" transform="translate(1598.288208 -16.303125) scale(0.7)"/>
   </g>
  </g>
 </g>
 <defs>
  <clipPath id="p396a37967d">
   <rect x="18.2" y="42.181841" width="285.163443" height="285.163443"/>
  </clipPath>
  <clipPath id="pb38b403556">
   <rect x="351.2" y="42.181841" width="285.163443" height="285.163443"/>
  </clipPath>
 </defs>
</svg>
