<?xml version="1.0" encoding="utf-8" standalone="no"?>
<!DOCTYPE svg PUBLIC "-//W3C//DTD SVG 1.1//EN"
  "http://www.w3.org/Graphics/SVG/1.1/DTD/svg11.dtd">
<svg xmlns:xlink="http://www.w3.org/1999/xlink" width="419.1pt" height="303.276pt" viewBox="0 0 419.1 303.276" xmlns="http://www.w3.org/2000/svg" version="1.1">
 <metadata>
  <rdf:RDF xmlns:dc="http://purl.org/dc/elements/1.1/" xmlns:cc="http://creativecommons.org/ns#" xmlns:rdf="http://www.w3.org/1999/02/22-rdf-syntax-ns#">
   <cc:Work>
    <dc:type rdf:resource="http://purl.org/dc/dcmitype/StillImage"/>
    <dc:date>2026-07-17T17:26:28.861566</dc:date>
    <dc:format>image/svg+xml</dc:format>
    <dc:creator>
     <cc:Agent>
      <dc:title>Matplotlib v3.9.4, https://matplotlib.org/</dc:title>
     </cc:Agent>
    </dc:creator>
   </cc:Work>
  </rdf:RDF>
 </metadata>
 <defs>
  <style type="text/css">*{stroke-linejoin: round; stroke-linecap: butt}</style>
 </defs>
 <g id="figure_1">
  <g id="patch_1">
   <path d="M 0 303.276 
L 419.1 303.276 
L 419.1 0 
L 0 0 
z
" style="fill: #ffffff"/>
  </g>
  <g id="axes_1">
   <g id="patch_2">
    <path d="M 54.78 267.576 
L 411.9 267.576 
L 411.9 23.64 
L 54.78 23.64 
z
" style="fill: #ffffff"/>
   </g>
   <g id="matplotlib.axis_1">
    <g id="xtick_1">
     <g id="line2d_1">
      <defs>
       <path id="m31c30dd89e" d="M 0 0 
L 0 3 
" style="stroke: #1f2328; stroke-width: 0.8"/>
      </defs>
      <g>
       <use xlink:href="#m31c30dd89e" x="54.78" y="267.576" style="fill: #1f2328; stroke: #1f2328; stroke-width: 0.8"/>
      </g>
     </g>
     <g id="text_1">
      <!-- 0 -->
      <g style="fill: #1f2328" transform="translate(52.53 280.222719) scale(0.09 -0.09)">
       <defs>
        <path id="STIXGeneral-Regular-30" d="M 3046 2112 
Q 3046 1683 2963 1302 
Q 2880 922 2717 602 
Q 2554 282 2266 96 
Q 1978 -90 1600 -90 
Q 1210 -90 915 108 
Q 621 307 461 640 
Q 301 973 227 1350 
Q 154 1728 154 2150 
Q 154 2746 301 3222 
Q 448 3699 790 4012 
Q 1133 4326 1626 4326 
Q 2253 4326 2649 3712 
Q 3046 3098 3046 2112 
z
M 2432 2080 
Q 2432 3091 2217 3625 
Q 2003 4160 1587 4160 
Q 1190 4160 979 3622 
Q 768 3085 768 2106 
Q 768 1120 979 598 
Q 1190 77 1600 77 
Q 2003 77 2217 598 
Q 2432 1120 2432 2080 
z
" transform="scale(0.015625)"/>
       </defs>
       <use xlink:href="#STIXGeneral-Regular-30"/>
      </g>
     </g>
    </g>
    <g id="xtick_2">
     <g id="line2d_2">
      <g>
       <use xlink:href="#m31c30dd89e" x="100.564615" y="267.576" style="fill: #1f2328; stroke: #1f2328; stroke-width: 0.8"/>
      </g>
     </g>
     <g id="text_2">
      <!-- 5 -->
      <g style="fill: #1f2328" transform="translate(98.314615 280.222719) scale(0.09 -0.09)">
       <defs>
        <path id="STIXGeneral-Regular-35" d="M 2803 4358 
L 2573 3814 
Q 2534 3731 2400 3731 
L 1158 3731 
L 902 3187 
Q 1606 3053 1920 2896 
Q 2234 2739 2502 2368 
Q 2726 2061 2726 1555 
Q 2726 1094 2576 780 
Q 2426 467 2099 224 
Q 1664 -90 1011 -90 
Q 646 -90 422 19 
Q 198 128 198 307 
Q 198 550 486 550 
Q 717 550 960 352 
Q 1210 147 1414 147 
Q 1747 147 2012 480 
Q 2278 813 2278 1229 
Q 2278 1843 1850 2189 
Q 1293 2637 486 2637 
Q 410 2637 410 2688 
L 416 2720 
L 1114 4237 
L 2438 4237 
Q 2547 4237 2608 4269 
Q 2669 4301 2746 4403 
L 2803 4358 
z
" transform="scale(0.015625)"/>
       </defs>
       <use xlink:href="#STIXGeneral-Regular-35"/>
      </g>
     </g>
    </g>
    <g id="xtick_3">
     <g id="line2d_3">
      <g>
       <use xlink:href="#m31c30dd89e" x="146.349231" y="267.576" style="fill: #1f2328; stroke: #1f2328; stroke-width: 0.8"/>
      </g>
     </g>
     <g id="text_3">
      <!-- 10 -->
      <g style="fill: #1f2328" transform="translate(141.849231 280.222719) scale(0.09 -0.09)">
       <defs>
        <path id="STIXGeneral-Regular-31" d="M 2522 0 
L 755 0 
L 755 96 
Q 1107 115 1235 227 
Q 1363 339 1363 608 
L 1363 3482 
Q 1363 3795 1171 3795 
Q 1082 3795 883 3718 
L 710 3654 
L 710 3744 
L 1856 4326 
L 1914 4307 
L 1914 486 
Q 1914 275 2042 185 
Q 2170 96 2522 96 
L 2522 0 
z
" transform="scale(0.015625)"/>
       </defs>
       <use xlink:href="#STIXGeneral-Regular-31"/>
       <use xlink:href="#STIXGeneral-Regular-30" x="49.999985"/>
      </g>
     </g>
    </g>
    <g id="xtick_4">
     <g id="line2d_4">
      <g>
       <use xlink:href="#m31c30dd89e" x="192.133846" y="267.576" style="fill: #1f2328; stroke: #1f2328; stroke-width: 0.8"/>
      </g>
     </g>
     <g id="text_4">
      <!-- 15 -->
      <g style="fill: #1f2328" transform="translate(187.633846 280.222719) scale(0.09 -0.09)">
       <use xlink:href="#STIXGeneral-Regular-31"/>
       <use xlink:href="#STIXGeneral-Regular-35" x="49.999985"/>
      </g>
     </g>
    </g>
    <g id="xtick_5">
     <g id="line2d_5">
      <g>
       <use xlink:href="#m31c30dd89e" x="237.918462" y="267.576" style="fill: #1f2328; stroke: #1f2328; stroke-width: 0.8"/>
      </g>
     </g>
     <g id="text_5">
      <!-- 20 -->
      <g style="fill: #1f2328" transform="translate(233.418462 280.222719) scale(0.09 -0.09)">
       <defs>
        <path id="STIXGeneral-Regular-32" d="M 3034 877 
L 2688 0 
L 186 0 
L 186 77 
L 1325 1286 
Q 1773 1754 1965 2144 
Q 2157 2534 2157 2950 
Q 2157 3379 1920 3616 
Q 1683 3853 1267 3853 
Q 922 3853 720 3673 
Q 518 3494 326 3021 
L 192 3053 
Q 301 3648 630 3987 
Q 960 4326 1523 4326 
Q 2054 4326 2380 4006 
Q 2707 3686 2707 3200 
Q 2707 2477 1888 1613 
L 832 486 
L 2330 486 
Q 2541 486 2665 569 
Q 2790 653 2944 915 
L 3034 877 
z
" transform="scale(0.015625)"/>
       </defs>
       <use xlink:href="#STIXGeneral-Regular-32"/>
       <use xlink:href="#STIXGeneral-Regular-30" x="49.999985"/>
      </g>
     </g>
    </g>
    <g id="xtick_6">
     <g id="line2d_6">
      <g>
       <use xlink:href="#m31c30dd89e" x="283.703077" y="267.576" style="fill: #1f2328; stroke: #1f2328; stroke-width: 0.8"/>
      </g>
     </g>
     <g id="text_6">
      <!-- 25 -->
      <g style="fill: #1f2328" transform="translate(279.203077 280.222719) scale(0.09 -0.09)">
       <use xlink:href="#STIXGeneral-Regular-32"/>
       <use xlink:href="#STIXGeneral-Regular-35" x="49.999985"/>
      </g>
     </g>
    </g>
    <g id="xtick_7">
     <g id="line2d_7">
      <g>
       <use xlink:href="#m31c30dd89e" x="329.487692" y="267.576" style="fill: #1f2328; stroke: #1f2328; stroke-width: 0.8"/>
      </g>
     </g>
     <g id="text_7">
      <!-- 30 -->
      <g style="fill: #1f2328" transform="translate(324.987692 280.222719) scale(0.09 -0.09)">
       <defs>
        <path id="STIXGeneral-Regular-33" d="M 390 3264 
L 288 3290 
Q 435 3770 748 4048 
Q 1062 4326 1542 4326 
Q 1990 4326 2265 4083 
Q 2541 3840 2541 3450 
Q 2541 2925 1946 2566 
Q 2298 2413 2477 2227 
Q 2758 1914 2758 1402 
Q 2758 890 2464 506 
Q 2246 211 1840 60 
Q 1434 -90 979 -90 
Q 262 -90 262 275 
Q 262 378 339 442 
Q 416 506 525 506 
Q 685 506 915 339 
Q 1197 141 1466 141 
Q 1818 141 2058 425 
Q 2298 710 2298 1120 
Q 2298 1856 1632 2048 
Q 1434 2112 979 2112 
L 979 2202 
Q 1338 2323 1517 2432 
Q 2035 2726 2035 3290 
Q 2035 3610 1852 3776 
Q 1670 3942 1344 3942 
Q 768 3942 390 3264 
z
" transform="scale(0.015625)"/>
       </defs>
       <use xlink:href="#STIXGeneral-Regular-33"/>
       <use xlink:href="#STIXGeneral-Regular-30" x="49.999985"/>
      </g>
     </g>
    </g>
    <g id="xtick_8">
     <g id="line2d_8">
      <g>
       <use xlink:href="#m31c30dd89e" x="375.272308" y="267.576" style="fill: #1f2328; stroke: #1f2328; stroke-width: 0.8"/>
      </g>
     </g>
     <g id="text_8">
      <!-- 35 -->
      <g style="fill: #1f2328" transform="translate(370.772308 280.222719) scale(0.09 -0.09)">
       <use xlink:href="#STIXGeneral-Regular-33"/>
       <use xlink:href="#STIXGeneral-Regular-35" x="49.999985"/>
      </g>
     </g>
    </g>
    <g id="text_9">
     <!-- iteration $k$ -->
     <g transform="translate(210.735 293.688656) scale(0.11 -0.11)">
      <defs>
       <path id="STIXGeneral-Regular-69" d="M 1152 4045 
Q 1152 3904 1056 3811 
Q 960 3718 819 3718 
Q 685 3718 592 3811 
Q 499 3904 499 4045 
Q 499 4179 595 4275 
Q 691 4371 826 4371 
Q 966 4371 1059 4275 
Q 1152 4179 1152 4045 
z
M 1619 0 
L 102 0 
L 102 96 
Q 435 115 521 211 
Q 608 307 608 666 
L 608 2118 
Q 608 2342 563 2432 
Q 518 2522 397 2522 
Q 243 2522 128 2490 
L 128 2592 
L 1120 2944 
L 1146 2918 
L 1146 672 
Q 1146 314 1226 218 
Q 1306 122 1619 96 
L 1619 0 
z
" transform="scale(0.015625)"/>
       <path id="STIXGeneral-Regular-74" d="M 1702 493 
L 1786 422 
Q 1478 -64 1011 -64 
Q 448 -64 448 749 
L 448 2675 
L 109 2675 
Q 83 2694 83 2720 
Q 83 2771 192 2842 
Q 435 2982 813 3526 
Q 826 3546 874 3606 
Q 922 3667 941 3706 
Q 986 3706 986 3622 
L 986 2880 
L 1632 2880 
L 1632 2675 
L 986 2675 
L 986 845 
Q 986 538 1062 403 
Q 1139 269 1318 269 
Q 1510 269 1702 493 
z
" transform="scale(0.015625)"/>
       <path id="STIXGeneral-Regular-65" d="M 2611 1050 
L 2714 1005 
Q 2330 -64 1376 -64 
Q 813 -64 486 329 
Q 160 723 160 1389 
Q 160 2074 525 2509 
Q 890 2944 1485 2944 
Q 2061 2944 2374 2502 
Q 2560 2246 2592 1773 
L 621 1773 
Q 646 1370 700 1158 
Q 755 947 915 730 
Q 1184 378 1626 378 
Q 1939 378 2153 531 
Q 2368 685 2611 1050 
z
M 634 1978 
L 1939 1978 
Q 1882 2381 1750 2547 
Q 1619 2714 1312 2714 
Q 1043 2714 864 2525 
Q 685 2336 634 1978 
z
" transform="scale(0.015625)"/>
       <path id="STIXGeneral-Regular-72" d="M 1024 2931 
L 1024 2342 
Q 1267 2688 1430 2816 
Q 1594 2944 1792 2944 
Q 1958 2944 2051 2854 
Q 2144 2765 2144 2605 
Q 2144 2470 2077 2393 
Q 2010 2317 1894 2317 
Q 1773 2317 1638 2445 
Q 1536 2541 1472 2541 
Q 1338 2541 1181 2355 
Q 1024 2170 1024 2016 
L 1024 576 
Q 1024 301 1133 205 
Q 1242 109 1568 96 
L 1568 0 
L 32 0 
L 32 96 
Q 339 154 412 224 
Q 486 294 486 538 
L 486 2138 
Q 486 2349 438 2435 
Q 390 2522 269 2522 
Q 166 2522 45 2496 
L 45 2598 
Q 448 2726 992 2944 
L 1024 2931 
z
" transform="scale(0.015625)"/>
       <path id="STIXGeneral-Regular-61" d="M 2829 422 
L 2829 243 
Q 2586 -64 2253 -64 
Q 1888 -64 1843 403 
L 1837 403 
Q 1427 -64 909 -64 
Q 608 -64 422 112 
Q 237 288 237 602 
Q 237 1050 685 1350 
Q 992 1555 1837 1869 
L 1837 2214 
Q 1837 2502 1699 2646 
Q 1562 2790 1338 2790 
Q 1146 2790 1018 2697 
Q 890 2605 890 2477 
Q 890 2419 909 2348 
Q 928 2278 928 2208 
Q 928 2112 841 2029 
Q 755 1946 634 1946 
Q 525 1946 441 2029 
Q 358 2112 358 2240 
Q 358 2547 685 2752 
Q 986 2944 1421 2944 
Q 1939 2944 2176 2656 
Q 2291 2522 2323 2384 
Q 2355 2246 2355 1946 
L 2355 723 
Q 2355 301 2554 301 
Q 2682 301 2829 422 
z
M 1837 813 
L 1837 1715 
Q 1248 1510 1018 1293 
Q 800 1094 800 800 
Q 800 557 921 432 
Q 1043 307 1242 307 
Q 1453 307 1613 410 
Q 1747 506 1792 589 
Q 1837 672 1837 813 
z
" transform="scale(0.015625)"/>
       <path id="STIXGeneral-Regular-6f" d="M 3008 1478 
Q 3008 806 2608 371 
Q 2208 -64 1568 -64 
Q 979 -64 582 368 
Q 186 800 186 1459 
Q 186 2125 582 2534 
Q 979 2944 1626 2944 
Q 2221 2944 2614 2537 
Q 3008 2131 3008 1478 
z
M 2432 1306 
Q 2432 2035 2112 2445 
Q 1856 2765 1504 2765 
Q 1171 2765 966 2493 
Q 762 2221 762 1747 
Q 762 928 1101 435 
Q 1318 115 1677 115 
Q 2029 115 2230 432 
Q 2432 749 2432 1306 
z
" transform="scale(0.015625)"/>
       <path id="STIXGeneral-Regular-6e" d="M 3104 0 
L 1773 0 
L 1779 96 
Q 2016 115 2096 233 
Q 2176 352 2176 672 
L 2176 1946 
Q 2176 2592 1709 2592 
Q 1549 2592 1408 2515 
Q 1267 2438 1050 2227 
L 1050 461 
Q 1050 269 1136 192 
Q 1222 115 1466 96 
L 1466 0 
L 115 0 
L 115 96 
Q 358 115 435 214 
Q 512 314 512 602 
L 512 2157 
Q 512 2394 467 2483 
Q 422 2573 288 2573 
Q 160 2573 102 2547 
L 102 2656 
Q 550 2784 979 2944 
L 1030 2925 
L 1030 2426 
L 1037 2426 
Q 1491 2944 1958 2944 
Q 2323 2944 2518 2688 
Q 2714 2432 2714 1958 
L 2714 544 
Q 2714 288 2790 205 
Q 2867 122 3104 96 
L 3104 0 
z
" transform="scale(0.015625)"/>
       <path id="STIXGeneral-Regular-20" transform="scale(0.015625)"/>
       <path id="Cmmi10-6b" d="M 341 116 
Q 341 153 347 172 
L 1275 3872 
Q 1300 3981 1306 4044 
Q 1306 4147 891 4147 
Q 825 4147 825 4231 
Q 828 4247 839 4287 
Q 850 4328 867 4350 
Q 884 4372 916 4372 
L 1778 4441 
L 1797 4441 
Q 1797 4434 1819 4423 
Q 1841 4413 1844 4409 
Q 1856 4378 1856 4359 
L 1184 1684 
Q 1416 1781 1767 2145 
Q 2119 2509 2317 2668 
Q 2516 2828 2816 2828 
Q 2994 2828 3119 2706 
Q 3244 2584 3244 2406 
Q 3244 2294 3197 2198 
Q 3150 2103 3065 2043 
Q 2981 1984 2869 1984 
Q 2766 1984 2695 2048 
Q 2625 2113 2625 2216 
Q 2625 2369 2733 2473 
Q 2841 2578 2994 2578 
Q 2931 2663 2803 2663 
Q 2613 2663 2436 2553 
Q 2259 2444 2054 2239 
Q 1850 2034 1681 1864 
Q 1513 1694 1369 1606 
Q 1747 1563 2025 1408 
Q 2303 1253 2303 934 
Q 2303 869 2278 769 
Q 2222 528 2222 384 
Q 2222 97 2419 97 
Q 2650 97 2770 350 
Q 2891 603 2969 941 
Q 2981 978 3022 978 
L 3097 978 
Q 3122 978 3139 962 
Q 3156 947 3156 922 
Q 3156 916 3150 903 
Q 2909 -72 2406 -72 
Q 2225 -72 2086 12 
Q 1947 97 1872 242 
Q 1797 388 1797 569 
Q 1797 672 1825 781 
Q 1844 856 1844 922 
Q 1844 1169 1625 1297 
Q 1406 1425 1125 1453 
L 800 147 
Q 775 50 703 -11 
Q 631 -72 538 -72 
Q 456 -72 398 -17 
Q 341 38 341 116 
z
" transform="scale(0.015625)"/>
      </defs>
      <use xlink:href="#STIXGeneral-Regular-69" transform="translate(0 0.609375)"/>
      <use xlink:href="#STIXGeneral-Regular-74" transform="translate(27.799988 0.609375)"/>
      <use xlink:href="#STIXGeneral-Regular-65" transform="translate(55.599976 0.609375)"/>
      <use xlink:href="#STIXGeneral-Regular-72" transform="translate(99.999969 0.609375)"/>
      <use xlink:href="#STIXGeneral-Regular-61" transform="translate(133.299957 0.609375)"/>
      <use xlink:href="#STIXGeneral-Regular-74" transform="translate(177.699951 0.609375)"/>
      <use xlink:href="#STIXGeneral-Regular-69" transform="translate(205.499939 0.609375)"/>
      <use xlink:href="#STIXGeneral-Regular-6f" transform="translate(233.299927 0.609375)"/>
      <use xlink:href="#STIXGeneral-Regular-6e" transform="translate(283.299911 0.609375)"/>
      <use xlink:href="#STIXGeneral-Regular-20" transform="translate(333.299896 0.609375)"/>
      <use xlink:href="#Cmmi10-6b" transform="translate(358.299881 0.609375)"/>
     </g>
    </g>
   </g>
   <g id="matplotlib.axis_2">
    <g id="ytick_1">
     <g id="line2d_9">
      <defs>
       <path id="m813af8fd35" d="M 0 0 
L -3 0 
" style="stroke: #1f2328; stroke-width: 0.8"/>
      </defs>
      <g>
       <use xlink:href="#m813af8fd35" x="54.78" y="267.576" style="fill: #1f2328; stroke: #1f2328; stroke-width: 0.8"/>
      </g>
     </g>
     <g id="text_10">
      <!-- $\mathdefault{10^{-12}}$ -->
      <g style="fill: #1f2328" transform="translate(28.03 270.649359) scale(0.09 -0.09)">
       <defs>
        <path id="STIXGeneral-Regular-2212" d="M 3974 1408 
L 410 1408 
L 410 1830 
L 3974 1830 
L 3974 1408 
z
" transform="scale(0.015625)"/>
       </defs>
       <use xlink:href="#STIXGeneral-Regular-31" transform="translate(0 0.684375)"/>
       <use xlink:href="#STIXGeneral-Regular-30" transform="translate(49.999985 0.684375)"/>
       <use xlink:href="#STIXGeneral-Regular-2212" transform="translate(101.574969 36.684375) scale(0.7)"/>
       <use xlink:href="#STIXGeneral-Regular-31" transform="translate(149.524959 36.684375) scale(0.7)"/>
       <use xlink:href="#STIXGeneral-Regular-32" transform="translate(184.524948 36.684375) scale(0.7)"/>
      </g>
     </g>
    </g>
    <g id="ytick_2">
     <g id="line2d_10">
      <g>
       <use xlink:href="#m813af8fd35" x="54.78" y="227.914931" style="fill: #1f2328; stroke: #1f2328; stroke-width: 0.8"/>
      </g>
     </g>
     <g id="text_11">
      <!-- $\mathdefault{10^{-10}}$ -->
      <g style="fill: #1f2328" transform="translate(28.03 230.98829) scale(0.09 -0.09)">
       <use xlink:href="#STIXGeneral-Regular-31" transform="translate(0 0.684375)"/>
       <use xlink:href="#STIXGeneral-Regular-30" transform="translate(49.999985 0.684375)"/>
       <use xlink:href="#STIXGeneral-Regular-2212" transform="translate(101.574969 36.684375) scale(0.7)"/>
       <use xlink:href="#STIXGeneral-Regular-31" transform="translate(149.524959 36.684375) scale(0.7)"/>
       <use xlink:href="#STIXGeneral-Regular-30" transform="translate(184.524948 36.684375) scale(0.7)"/>
      </g>
     </g>
    </g>
    <g id="ytick_3">
     <g id="line2d_11">
      <g>
       <use xlink:href="#m813af8fd35" x="54.78" y="188.253862" style="fill: #1f2328; stroke: #1f2328; stroke-width: 0.8"/>
      </g>
     </g>
     <g id="text_12">
      <!-- $\mathdefault{10^{-8}}$ -->
      <g style="fill: #1f2328" transform="translate(31.18 191.327221) scale(0.09 -0.09)">
       <defs>
        <path id="STIXGeneral-Regular-38" d="M 2848 992 
Q 2848 499 2505 204 
Q 2163 -90 1587 -90 
Q 1050 -90 704 204 
Q 358 499 358 954 
Q 358 1293 524 1533 
Q 691 1773 1190 2125 
Q 710 2522 553 2765 
Q 397 3008 397 3328 
Q 397 3782 745 4054 
Q 1094 4326 1638 4326 
Q 2106 4326 2410 4060 
Q 2714 3795 2714 3411 
Q 2714 3059 2531 2848 
Q 2349 2637 1856 2374 
Q 2432 1990 2640 1689 
Q 2848 1389 2848 992 
z
M 2272 3411 
Q 2272 3744 2086 3945 
Q 1901 4147 1574 4147 
Q 1248 4147 1059 3977 
Q 870 3808 870 3513 
Q 870 3219 1059 2979 
Q 1248 2739 1670 2490 
Q 1997 2682 2134 2896 
Q 2272 3110 2272 3411 
z
M 1734 1741 
L 1357 1997 
Q 1075 1766 960 1545 
Q 845 1325 845 1011 
Q 845 576 1065 333 
Q 1286 90 1658 90 
Q 1971 90 2166 285 
Q 2362 480 2362 794 
Q 2362 1082 2214 1299 
Q 2067 1517 1734 1741 
z
" transform="scale(0.015625)"/>
       </defs>
       <use xlink:href="#STIXGeneral-Regular-31" transform="translate(0 0.684375)"/>
       <use xlink:href="#STIXGeneral-Regular-30" transform="translate(49.999985 0.684375)"/>
       <use xlink:href="#STIXGeneral-Regular-2212" transform="translate(101.574969 36.684375) scale(0.7)"/>
       <use xlink:href="#STIXGeneral-Regular-38" transform="translate(149.524959 36.684375) scale(0.7)"/>
      </g>
     </g>
    </g>
    <g id="ytick_4">
     <g id="line2d_12">
      <g>
       <use xlink:href="#m813af8fd35" x="54.78" y="148.592793" style="fill: #1f2328; stroke: #1f2328; stroke-width: 0.8"/>
      </g>
     </g>
     <g id="text_13">
      <!-- $\mathdefault{10^{-6}}$ -->
      <g style="fill: #1f2328" transform="translate(31.18 151.666152) scale(0.09 -0.09)">
       <defs>
        <path id="STIXGeneral-Regular-36" d="M 2854 4378 
L 2867 4275 
Q 2112 4154 1606 3664 
Q 1101 3174 973 2451 
Q 1344 2739 1786 2739 
Q 2349 2739 2672 2380 
Q 2995 2022 2995 1402 
Q 2995 774 2669 378 
Q 2291 -90 1651 -90 
Q 870 -90 518 557 
Q 218 1107 218 1786 
Q 218 2835 915 3552 
Q 1312 3962 1731 4131 
Q 2150 4301 2854 4378 
z
M 2419 1203 
Q 2419 2445 1555 2445 
Q 1235 2445 1024 2275 
Q 813 2106 813 1702 
Q 813 954 1046 522 
Q 1280 90 1722 90 
Q 2061 90 2240 394 
Q 2419 698 2419 1203 
z
" transform="scale(0.015625)"/>
       </defs>
       <use xlink:href="#STIXGeneral-Regular-31" transform="translate(0 0.115625)"/>
       <use xlink:href="#STIXGeneral-Regular-30" transform="translate(49.999985 0.115625)"/>
       <use xlink:href="#STIXGeneral-Regular-2212" transform="translate(101.574969 36.115625) scale(0.7)"/>
       <use xlink:href="#STIXGeneral-Regular-36" transform="translate(149.524959 36.115625) scale(0.7)"/>
      </g>
     </g>
    </g>
    <g id="ytick_5">
     <g id="line2d_13">
      <g>
       <use xlink:href="#m813af8fd35" x="54.78" y="108.931724" style="fill: #1f2328; stroke: #1f2328; stroke-width: 0.8"/>
      </g>
     </g>
     <g id="text_14">
      <!-- $\mathdefault{10^{-4}}$ -->
      <g style="fill: #1f2328" transform="translate(31.18 112.005083) scale(0.09 -0.09)">
       <defs>
        <path id="STIXGeneral-Regular-34" d="M 3027 1069 
L 2368 1069 
L 2368 0 
L 1869 0 
L 1869 1069 
L 77 1069 
L 77 1478 
L 2086 4326 
L 2368 4326 
L 2368 1478 
L 3027 1478 
L 3027 1069 
z
M 1869 1478 
L 1869 3674 
L 333 1478 
L 1869 1478 
z
" transform="scale(0.015625)"/>
       </defs>
       <use xlink:href="#STIXGeneral-Regular-31" transform="translate(0 0.684375)"/>
       <use xlink:href="#STIXGeneral-Regular-30" transform="translate(49.999985 0.684375)"/>
       <use xlink:href="#STIXGeneral-Regular-2212" transform="translate(101.574969 36.684375) scale(0.7)"/>
       <use xlink:href="#STIXGeneral-Regular-34" transform="translate(149.524959 36.684375) scale(0.7)"/>
      </g>
     </g>
    </g>
    <g id="ytick_6">
     <g id="line2d_14">
      <g>
       <use xlink:href="#m813af8fd35" x="54.78" y="69.270655" style="fill: #1f2328; stroke: #1f2328; stroke-width: 0.8"/>
      </g>
     </g>
     <g id="text_15">
      <!-- $\mathdefault{10^{-2}}$ -->
      <g style="fill: #1f2328" transform="translate(31.18 72.344014) scale(0.09 -0.09)">
       <use xlink:href="#STIXGeneral-Regular-31" transform="translate(0 0.684375)"/>
       <use xlink:href="#STIXGeneral-Regular-30" transform="translate(49.999985 0.684375)"/>
       <use xlink:href="#STIXGeneral-Regular-2212" transform="translate(101.574969 36.684375) scale(0.7)"/>
       <use xlink:href="#STIXGeneral-Regular-32" transform="translate(149.524959 36.684375) scale(0.7)"/>
      </g>
     </g>
    </g>
    <g id="ytick_7">
     <g id="line2d_15">
      <g>
       <use xlink:href="#m813af8fd35" x="54.78" y="29.609586" style="fill: #1f2328; stroke: #1f2328; stroke-width: 0.8"/>
      </g>
     </g>
     <g id="text_16">
      <!-- $\mathdefault{10^{0}}$ -->
      <g style="fill: #1f2328" transform="translate(35.5 32.682945) scale(0.09 -0.09)">
       <use xlink:href="#STIXGeneral-Regular-31" transform="translate(0 0.684375)"/>
       <use xlink:href="#STIXGeneral-Regular-30" transform="translate(49.999985 0.684375)"/>
       <use xlink:href="#STIXGeneral-Regular-30" transform="translate(101.574969 36.684375) scale(0.7)"/>
      </g>
     </g>
    </g>
    <g id="text_17">
     <!-- $\sqrt{1-(u^{(k)}\cdot v_1)^2}$ -->
     <g transform="translate(21.28 184.493) rotate(-90) scale(0.11 -0.11)">
      <defs>
       <path id="Cmex10-71" d="M 2713 -11263 
L 1259 -6188 
L 819 -6700 
L 703 -6578 
L 1619 -5503 
L 2981 -10266 
L 6284 178 
Q 6306 256 6400 256 
Q 6453 256 6490 218 
Q 6528 181 6528 128 
L 6528 103 
L 2963 -11188 
Q 2925 -11263 2853 -11263 
L 2713 -11263 
z
" transform="scale(0.015625)"/>
       <path id="Cmr10-31" d="M 594 0 
L 594 225 
Q 1394 225 1394 428 
L 1394 3788 
Q 1063 3628 556 3628 
L 556 3853 
Q 1341 3853 1741 4263 
L 1831 4263 
Q 1853 4263 1873 4245 
Q 1894 4228 1894 4206 
L 1894 428 
Q 1894 225 2694 225 
L 2694 0 
L 594 0 
z
" transform="scale(0.015625)"/>
       <path id="Cmsy10-a1" d="M 653 1472 
Q 600 1472 565 1512 
Q 531 1553 531 1600 
Q 531 1647 565 1687 
Q 600 1728 653 1728 
L 4325 1728 
Q 4375 1728 4408 1687 
Q 4441 1647 4441 1600 
Q 4441 1553 4408 1512 
Q 4375 1472 4325 1472 
L 653 1472 
z
" transform="scale(0.015625)"/>
       <path id="Cmr10-28" d="M 1984 -1588 
Q 1628 -1306 1370 -942 
Q 1113 -578 948 -165 
Q 784 247 703 697 
Q 622 1147 622 1600 
Q 622 2059 703 2509 
Q 784 2959 951 3375 
Q 1119 3791 1378 4153 
Q 1638 4516 1984 4788 
Q 1984 4800 2016 4800 
L 2075 4800 
Q 2094 4800 2109 4783 
Q 2125 4766 2125 4744 
Q 2125 4716 2113 4703 
Q 1800 4397 1592 4047 
Q 1384 3697 1257 3301 
Q 1131 2906 1075 2482 
Q 1019 2059 1019 1600 
Q 1019 -434 2106 -1491 
Q 2125 -1509 2125 -1544 
Q 2125 -1559 2108 -1579 
Q 2091 -1600 2075 -1600 
L 2016 -1600 
Q 1984 -1600 1984 -1588 
z
" transform="scale(0.015625)"/>
       <path id="Cmmi10-75" d="M 678 697 
Q 678 906 734 1126 
Q 791 1347 892 1617 
Q 994 1888 1069 2088 
Q 1153 2322 1153 2472 
Q 1153 2663 1013 2663 
Q 759 2663 595 2402 
Q 431 2141 353 1819 
Q 341 1778 300 1778 
L 225 1778 
Q 172 1778 172 1838 
L 172 1856 
Q 275 2238 487 2533 
Q 700 2828 1025 2828 
Q 1253 2828 1411 2678 
Q 1569 2528 1569 2297 
Q 1569 2178 1516 2047 
Q 1488 1969 1388 1706 
Q 1288 1444 1234 1272 
Q 1181 1100 1147 934 
Q 1113 769 1113 603 
Q 1113 391 1203 244 
Q 1294 97 1497 97 
Q 1906 97 2216 603 
Q 2222 628 2226 651 
Q 2231 675 2234 697 
L 2694 2553 
Q 2716 2638 2794 2698 
Q 2872 2759 2963 2759 
Q 3041 2759 3098 2709 
Q 3156 2659 3156 2578 
Q 3156 2541 3150 2528 
L 2688 684 
Q 2644 494 2644 372 
Q 2644 97 2828 97 
Q 3034 97 3136 351 
Q 3238 606 3309 941 
Q 3322 978 3359 978 
L 3438 978 
Q 3463 978 3478 956 
Q 3494 934 3494 916 
Q 3425 641 3361 444 
Q 3297 247 3159 87 
Q 3022 -72 2816 -72 
Q 2613 -72 2452 39 
Q 2291 150 2234 341 
Q 2088 153 1894 40 
Q 1700 -72 1484 -72 
Q 1116 -72 897 129 
Q 678 331 678 697 
z
" transform="scale(0.015625)"/>
       <path id="Cmr10-29" d="M 416 -1600 
Q 359 -1600 359 -1544 
Q 359 -1516 372 -1503 
Q 1466 -434 1466 1600 
Q 1466 3634 384 4691 
Q 359 4706 359 4744 
Q 359 4766 376 4783 
Q 394 4800 416 4800 
L 475 4800 
Q 494 4800 506 4788 
Q 966 4425 1272 3906 
Q 1578 3388 1720 2800 
Q 1863 2213 1863 1600 
Q 1863 1147 1786 708 
Q 1709 269 1542 -157 
Q 1375 -584 1119 -945 
Q 863 -1306 506 -1588 
Q 494 -1600 475 -1600 
L 416 -1600 
z
" transform="scale(0.015625)"/>
       <path id="Cmsy10-a2" d="M 538 1600 
Q 538 1691 584 1772 
Q 631 1853 714 1903 
Q 797 1953 891 1953 
Q 981 1953 1064 1903 
Q 1147 1853 1194 1772 
Q 1241 1691 1241 1600 
Q 1241 1456 1139 1351 
Q 1038 1247 891 1247 
Q 747 1247 642 1351 
Q 538 1456 538 1600 
z
" transform="scale(0.015625)"/>
       <path id="Cmmi10-76" d="M 684 722 
Q 684 866 718 1037 
Q 753 1209 787 1320 
Q 822 1431 944 1753 
Q 1066 2075 1069 2088 
Q 1153 2322 1153 2472 
Q 1153 2663 1013 2663 
Q 759 2663 595 2402 
Q 431 2141 353 1819 
Q 341 1778 300 1778 
L 225 1778 
Q 172 1778 172 1838 
L 172 1856 
Q 275 2238 487 2533 
Q 700 2828 1025 2828 
Q 1253 2828 1411 2678 
Q 1569 2528 1569 2297 
Q 1569 2178 1516 2047 
Q 1391 1722 1319 1526 
Q 1247 1331 1186 1089 
Q 1125 847 1125 641 
Q 1125 400 1236 248 
Q 1347 97 1581 97 
Q 2025 97 2381 781 
Q 2494 1003 2594 1303 
Q 2694 1603 2694 1791 
Q 2694 1984 2631 2092 
Q 2569 2200 2469 2317 
Q 2369 2434 2369 2503 
Q 2369 2628 2472 2731 
Q 2575 2834 2700 2834 
Q 2853 2834 2920 2693 
Q 2988 2553 2988 2375 
Q 2988 2163 2927 1869 
Q 2866 1575 2758 1259 
Q 2650 944 2559 763 
Q 2138 -72 1575 -72 
Q 1172 -72 928 129 
Q 684 331 684 722 
z
" transform="scale(0.015625)"/>
       <path id="Cmr10-32" d="M 319 0 
L 319 172 
Q 319 188 331 206 
L 1325 1306 
Q 1550 1550 1690 1715 
Q 1831 1881 1968 2097 
Q 2106 2313 2186 2536 
Q 2266 2759 2266 3009 
Q 2266 3272 2169 3511 
Q 2072 3750 1880 3894 
Q 1688 4038 1416 4038 
Q 1138 4038 916 3870 
Q 694 3703 603 3438 
Q 628 3444 672 3444 
Q 816 3444 917 3347 
Q 1019 3250 1019 3097 
Q 1019 2950 917 2848 
Q 816 2747 672 2747 
Q 522 2747 420 2851 
Q 319 2956 319 3097 
Q 319 3338 409 3548 
Q 500 3759 670 3923 
Q 841 4088 1055 4175 
Q 1269 4263 1509 4263 
Q 1875 4263 2190 4108 
Q 2506 3953 2690 3670 
Q 2875 3388 2875 3009 
Q 2875 2731 2753 2481 
Q 2631 2231 2440 2026 
Q 2250 1822 1953 1562 
Q 1656 1303 1563 1216 
L 838 519 
L 1453 519 
Q 1906 519 2211 526 
Q 2516 534 2534 550 
Q 2609 631 2688 1141 
L 2875 1141 
L 2694 0 
L 319 0 
z
" transform="scale(0.015625)"/>
      </defs>
      <use xlink:href="#Cmex10-71" transform="translate(0 118.734375) scale(0.816816)"/>
      <use xlink:href="#Cmr10-31" transform="translate(94.171875 -0.014062)"/>
      <use xlink:href="#Cmsy10-a1" transform="translate(161.730469 -0.014062)"/>
      <use xlink:href="#Cmr10-28" transform="translate(256.974609 -0.014062)"/>
      <use xlink:href="#Cmmi10-75" transform="translate(295.792969 -0.014062)"/>
      <use xlink:href="#Cmr10-28" transform="translate(359.273984 38.25) scale(0.7)"/>
      <use xlink:href="#Cmmi10-6b" transform="translate(386.446836 38.25) scale(0.7)"/>
      <use xlink:href="#Cmr10-29" transform="translate(422.848203 38.25) scale(0.7)"/>
      <use xlink:href="#Cmsy10-a2" transform="translate(473.956992 -0.014062)"/>
      <use xlink:href="#Cmmi10-76" transform="translate(519.201133 -0.014062)"/>
      <use xlink:href="#Cmr10-31" transform="translate(567.589805 -17.020312) scale(0.7)"/>
      <use xlink:href="#Cmr10-29" transform="translate(608.967148 -0.014062)"/>
      <use xlink:href="#Cmr10-32" transform="translate(652.249648 38.25) scale(0.7)"/>
      <path d="M 81.671875 115.5 
L 81.671875 121.75 
L 706.126992 121.75 
L 706.126992 115.5 
L 81.671875 115.5 
z
"/>
     </g>
    </g>
   </g>
   <g id="patch_3">
    <path d="M 54.78 267.576 
L 54.78 23.64 
" style="fill: none; stroke: #1f2328; stroke-width: 0.8; stroke-linejoin: miter; stroke-linecap: square"/>
   </g>
   <g id="patch_4">
    <path d="M 54.78 267.576 
L 411.9 267.576 
" style="fill: none; stroke: #1f2328; stroke-width: 0.8; stroke-linejoin: miter; stroke-linecap: square"/>
   </g>
   <g id="line2d_16">
    <path d="M 54.78 34.328789 
L 63.936923 40.298375 
L 73.093846 46.26796 
L 82.250769 52.237546 
L 91.407692 58.207132 
L 100.564615 64.176717 
L 109.721538 70.146303 
L 118.878462 76.115889 
L 128.035385 82.085475 
L 137.192308 88.05506 
L 146.349231 94.024646 
L 155.506154 99.994232 
L 164.663077 105.963818 
L 173.82 111.933403 
L 182.976923 117.902989 
L 192.133846 123.872575 
L 201.290769 129.84216 
L 210.447692 135.811746 
L 219.604615 141.781332 
L 228.761538 147.750918 
L 237.918462 153.720503 
L 247.075385 159.690089 
L 256.232308 165.659675 
L 265.389231 171.62926 
L 274.546154 177.598846 
L 283.703077 183.568432 
L 292.86 189.538018 
L 302.016923 195.507603 
L 311.173846 201.477189 
L 320.330769 207.446775 
L 329.487692 213.416361 
L 338.644615 219.385946 
L 347.801538 225.355532 
L 356.958462 231.325118 
L 366.115385 237.294703 
L 375.272308 243.264289 
L 384.429231 249.233875 
L 393.586154 255.203461 
L 402.743077 261.173046 
L 411.9 267.142632 
" clip-path="url(#p0374400da4)" style="fill: none; stroke-dasharray: 3.7,1.6; stroke-dashoffset: 0; stroke: #0072b2; stroke-opacity: 0.6"/>
   </g>
   <g id="line2d_17">
    <path d="M 54.78 34.328789 
L 63.936923 35.236184 
L 73.093846 36.14358 
L 82.250769 37.050975 
L 91.407692 37.958371 
L 100.564615 38.865766 
L 109.721538 39.773162 
L 118.878462 40.680557 
L 128.035385 41.587953 
L 137.192308 42.495348 
L 146.349231 43.402744 
L 155.506154 44.310139 
L 164.663077 45.217535 
L 173.82 46.12493 
L 182.976923 47.032326 
L 192.133846 47.939721 
L 201.290769 48.847117 
L 210.447692 49.754512 
L 219.604615 50.661908 
L 228.761538 51.569303 
L 237.918462 52.476699 
L 247.075385 53.384094 
L 256.232308 54.29149 
L 265.389231 55.198885 
L 274.546154 56.106281 
L 283.703077 57.013676 
L 292.86 57.921072 
L 302.016923 58.828467 
L 311.173846 59.735863 
L 320.330769 60.643258 
L 329.487692 61.550654 
L 338.644615 62.458049 
L 347.801538 63.365445 
L 356.958462 64.27284 
L 366.115385 65.180236 
L 375.272308 66.087631 
L 384.429231 66.995027 
L 393.586154 67.902422 
L 402.743077 68.809818 
L 411.9 69.717213 
" clip-path="url(#p0374400da4)" style="fill: none; stroke-dasharray: 3.7,1.6; stroke-dashoffset: 0; stroke: #d55e00; stroke-opacity: 0.6"/>
   </g>
   <g id="text_18">
    <!-- gap $0.9$ (slow) -->
    <g style="fill: #d55e00" transform="translate(247.075385 62.041585) scale(0.095 -0.095)">
     <defs>
      <path id="STIXGeneral-Regular-67" d="M 3008 2483 
L 2477 2483 
Q 2598 2208 2598 1946 
Q 2598 1453 2265 1203 
Q 1933 954 1600 954 
Q 1530 954 1357 973 
L 1235 986 
Q 1107 947 979 812 
Q 851 678 851 582 
Q 851 435 1350 410 
L 2176 371 
Q 2528 358 2739 172 
Q 2950 -13 2950 -314 
Q 2950 -685 2566 -986 
Q 2035 -1395 1286 -1395 
Q 826 -1395 502 -1212 
Q 179 -1030 179 -774 
Q 179 -595 320 -419 
Q 461 -243 806 6 
Q 602 102 534 172 
Q 467 243 467 346 
Q 467 531 762 787 
Q 909 915 1037 1043 
Q 717 1203 579 1401 
Q 442 1600 442 1901 
Q 442 2336 752 2640 
Q 1062 2944 1510 2944 
Q 1766 2944 2022 2848 
L 2163 2797 
Q 2349 2733 2515 2733 
L 3008 2733 
L 3008 2483 
z
M 973 2163 
L 973 2144 
Q 973 1683 1155 1398 
Q 1338 1114 1632 1114 
Q 1850 1114 1978 1270 
Q 2106 1427 2106 1690 
Q 2106 2112 1914 2464 
Q 1754 2765 1446 2765 
Q 1222 2765 1097 2605 
Q 973 2445 973 2163 
z
M 2771 -410 
Q 2771 -230 2595 -163 
Q 2419 -96 1978 -96 
Q 1344 -96 941 -13 
Q 749 -243 688 -348 
Q 627 -454 627 -563 
Q 627 -774 880 -902 
Q 1133 -1030 1555 -1030 
Q 2099 -1030 2435 -860 
Q 2771 -691 2771 -410 
z
" transform="scale(0.015625)"/>
      <path id="STIXGeneral-Regular-70" d="M 1018 2931 
L 1018 2438 
Q 1421 2944 1939 2944 
Q 2406 2944 2707 2560 
Q 3008 2176 3008 1581 
Q 3008 883 2621 409 
Q 2234 -64 1664 -64 
Q 1466 -64 1328 -6 
Q 1190 51 1018 211 
L 1018 -794 
Q 1018 -1094 1120 -1180 
Q 1222 -1267 1581 -1274 
L 1581 -1389 
L 32 -1389 
L 32 -1280 
Q 314 -1254 397 -1171 
Q 480 -1088 480 -838 
L 480 2157 
Q 480 2381 429 2451 
Q 378 2522 218 2522 
Q 115 2522 58 2515 
L 58 2618 
Q 506 2752 979 2944 
L 1018 2931 
z
M 1018 2138 
L 1018 563 
Q 1018 422 1238 281 
Q 1459 141 1683 141 
Q 2029 141 2243 467 
Q 2458 794 2458 1325 
Q 2458 1888 2243 2224 
Q 2029 2560 1670 2560 
Q 1446 2560 1232 2419 
Q 1018 2278 1018 2138 
z
" transform="scale(0.015625)"/>
      <path id="Cmr10-30" d="M 1600 -141 
Q 816 -141 533 504 
Q 250 1150 250 2041 
Q 250 2597 351 3087 
Q 453 3578 754 3920 
Q 1056 4263 1600 4263 
Q 2022 4263 2290 4056 
Q 2559 3850 2700 3523 
Q 2841 3197 2892 2823 
Q 2944 2450 2944 2041 
Q 2944 1491 2842 1011 
Q 2741 531 2444 195 
Q 2147 -141 1600 -141 
z
M 1600 25 
Q 1956 25 2131 390 
Q 2306 756 2347 1200 
Q 2388 1644 2388 2144 
Q 2388 2625 2347 3031 
Q 2306 3438 2132 3767 
Q 1959 4097 1600 4097 
Q 1238 4097 1063 3765 
Q 888 3434 847 3029 
Q 806 2625 806 2144 
Q 806 1788 823 1472 
Q 841 1156 916 820 
Q 991 484 1158 254 
Q 1325 25 1600 25 
z
" transform="scale(0.015625)"/>
      <path id="Cmmi10-3a" d="M 538 353 
Q 538 497 644 600 
Q 750 703 891 703 
Q 978 703 1062 656 
Q 1147 609 1194 525 
Q 1241 441 1241 353 
Q 1241 213 1137 106 
Q 1034 0 891 0 
Q 750 0 644 106 
Q 538 213 538 353 
z
" transform="scale(0.015625)"/>
      <path id="Cmr10-39" d="M 722 269 
Q 897 63 1331 63 
Q 1575 63 1786 228 
Q 1997 394 2113 634 
Q 2247 906 2284 1214 
Q 2322 1522 2322 1978 
Q 2213 1719 2008 1553 
Q 1803 1388 1538 1388 
Q 1166 1388 873 1589 
Q 581 1791 425 2120 
Q 269 2450 269 2822 
Q 269 3206 444 3539 
Q 619 3872 928 4067 
Q 1238 4263 1631 4263 
Q 2019 4263 2280 4052 
Q 2541 3841 2678 3508 
Q 2816 3175 2870 2803 
Q 2925 2431 2925 2069 
Q 2925 1575 2744 1061 
Q 2563 547 2202 203 
Q 1841 -141 1331 -141 
Q 953 -141 690 37 
Q 428 216 428 575 
Q 428 706 517 795 
Q 606 884 738 884 
Q 866 884 955 795 
Q 1044 706 1044 575 
Q 1044 450 953 359 
Q 863 269 738 269 
L 722 269 
z
M 1563 1556 
Q 1825 1556 1992 1732 
Q 2159 1909 2234 2171 
Q 2309 2434 2309 2694 
L 2309 2816 
L 2309 2841 
Q 2309 3322 2168 3700 
Q 2028 4078 1631 4078 
Q 1378 4078 1220 3967 
Q 1063 3856 988 3672 
Q 913 3488 892 3278 
Q 872 3069 872 2822 
Q 872 2459 906 2203 
Q 941 1947 1094 1751 
Q 1247 1556 1563 1556 
z
" transform="scale(0.015625)"/>
      <path id="STIXGeneral-Regular-28" d="M 1946 -1030 
L 1869 -1133 
Q 1126 -710 716 32 
Q 307 774 307 1613 
Q 307 3386 1888 4326 
L 1946 4224 
Q 1293 3667 1075 3126 
Q 858 2586 858 1632 
Q 858 685 1082 96 
Q 1306 -493 1946 -1030 
z
" transform="scale(0.015625)"/>
      <path id="STIXGeneral-Regular-73" d="M 998 1926 
L 1664 1523 
Q 1984 1331 2105 1164 
Q 2227 998 2227 736 
Q 2227 416 1961 176 
Q 1696 -64 1331 -64 
Q 1030 -64 864 -6 
Q 691 51 570 51 
Q 461 51 416 -26 
L 333 -26 
L 333 979 
L 435 979 
Q 538 512 730 294 
Q 922 77 1248 77 
Q 1485 77 1632 211 
Q 1779 346 1779 550 
Q 1779 845 1440 1030 
L 1094 1222 
Q 326 1651 326 2150 
Q 326 2522 566 2730 
Q 806 2938 1210 2938 
Q 1491 2938 1638 2867 
Q 1754 2816 1818 2816 
Q 1862 2816 1920 2880 
L 1990 2880 
L 2022 2010 
L 1926 2010 
Q 1818 2445 1654 2621 
Q 1491 2797 1203 2797 
Q 986 2797 854 2688 
Q 723 2579 723 2362 
Q 723 2253 796 2128 
Q 870 2003 998 1926 
z
" transform="scale(0.015625)"/>
      <path id="STIXGeneral-Regular-6c" d="M 1645 0 
L 134 0 
L 134 96 
Q 435 122 531 221 
Q 627 320 627 589 
L 627 3590 
Q 627 3821 569 3910 
Q 512 4000 358 4000 
Q 224 4000 122 3987 
L 122 4090 
Q 730 4237 1133 4371 
L 1165 4346 
L 1165 557 
Q 1165 288 1254 201 
Q 1344 115 1645 96 
L 1645 0 
z
" transform="scale(0.015625)"/>
      <path id="STIXGeneral-Regular-77" d="M 4442 2880 
L 4442 2784 
Q 4346 2752 4301 2691 
Q 4256 2630 4179 2438 
L 3296 224 
Q 3168 -90 3117 -90 
Q 3085 -90 3062 -48 
Q 3040 -6 2963 186 
L 2381 1696 
L 1664 160 
Q 1549 -90 1504 -90 
Q 1446 -90 1338 192 
L 474 2381 
Q 378 2630 314 2700 
Q 250 2771 134 2784 
L 134 2880 
L 1286 2880 
L 1286 2784 
Q 1120 2765 1056 2720 
Q 992 2675 992 2573 
Q 992 2477 1030 2381 
L 1664 710 
L 2246 1984 
L 2118 2342 
Q 2029 2598 1942 2681 
Q 1856 2765 1677 2784 
L 1677 2880 
L 2976 2880 
L 2976 2784 
Q 2752 2752 2678 2707 
Q 2605 2662 2605 2560 
Q 2605 2458 2714 2176 
L 3251 742 
L 3827 2163 
Q 3936 2432 3936 2592 
Q 3936 2669 3875 2710 
Q 3814 2752 3654 2784 
L 3654 2880 
L 4442 2880 
z
" transform="scale(0.015625)"/>
      <path id="STIXGeneral-Regular-29" d="M 186 4224 
L 262 4326 
Q 992 3891 1408 3148 
Q 1824 2406 1824 1581 
Q 1824 -166 243 -1133 
L 186 -1030 
Q 845 -486 1059 54 
Q 1274 595 1274 1562 
Q 1274 2534 1059 3120 
Q 845 3706 186 4224 
z
" transform="scale(0.015625)"/>
     </defs>
     <use xlink:href="#STIXGeneral-Regular-67" transform="translate(0 0.703125)"/>
     <use xlink:href="#STIXGeneral-Regular-61" transform="translate(49.999985 0.703125)"/>
     <use xlink:href="#STIXGeneral-Regular-70" transform="translate(94.399979 0.703125)"/>
     <use xlink:href="#STIXGeneral-Regular-20" transform="translate(144.399963 0.703125)"/>
     <use xlink:href="#Cmr10-30" transform="translate(169.399948 0.703125)"/>
     <use xlink:href="#Cmmi10-3a" transform="translate(219.399948 0.703125)"/>
     <use xlink:href="#Cmr10-39" transform="translate(247.085495 0.703125)"/>
     <use xlink:href="#STIXGeneral-Regular-20" transform="translate(297.085495 0.703125)"/>
     <use xlink:href="#STIXGeneral-Regular-28" transform="translate(322.08548 0.703125)"/>
     <use xlink:href="#STIXGeneral-Regular-73" transform="translate(355.385468 0.703125)"/>
     <use xlink:href="#STIXGeneral-Regular-6c" transform="translate(394.285461 0.703125)"/>
     <use xlink:href="#STIXGeneral-Regular-6f" transform="translate(422.085449 0.703125)"/>
     <use xlink:href="#STIXGeneral-Regular-77" transform="translate(472.085434 0.703125)"/>
     <use xlink:href="#STIXGeneral-Regular-29" transform="translate(544.285416 0.703125)"/>
    </g>
   </g>
   <g id="text_19">
    <!-- gap $0.5$ (fast) -->
    <g style="fill: #0072b2" transform="translate(155.506154 181.024792) scale(0.095 -0.095)">
     <defs>
      <path id="Cmr10-35" d="M 556 728 
Q 622 541 758 387 
Q 894 234 1080 148 
Q 1266 63 1466 63 
Q 1928 63 2103 422 
Q 2278 781 2278 1294 
Q 2278 1516 2270 1667 
Q 2263 1819 2228 1959 
Q 2169 2184 2020 2353 
Q 1872 2522 1656 2522 
Q 1441 2522 1286 2456 
Q 1131 2391 1034 2303 
Q 938 2216 863 2119 
Q 788 2022 769 2016 
L 697 2016 
Q 681 2016 657 2036 
Q 634 2056 634 2075 
L 634 4213 
Q 634 4228 654 4245 
Q 675 4263 697 4263 
L 716 4263 
Q 1147 4056 1631 4056 
Q 2106 4056 2547 4263 
L 2566 4263 
Q 2588 4263 2606 4247 
Q 2625 4231 2625 4213 
L 2625 4153 
Q 2625 4122 2613 4122 
Q 2394 3831 2064 3668 
Q 1734 3506 1381 3506 
Q 1125 3506 856 3578 
L 856 2369 
Q 1069 2541 1236 2614 
Q 1403 2688 1663 2688 
Q 2016 2688 2295 2484 
Q 2575 2281 2725 1954 
Q 2875 1628 2875 1288 
Q 2875 903 2686 575 
Q 2497 247 2172 53 
Q 1847 -141 1466 -141 
Q 1150 -141 886 21 
Q 622 184 470 459 
Q 319 734 319 1044 
Q 319 1188 412 1278 
Q 506 1369 647 1369 
Q 788 1369 883 1276 
Q 978 1184 978 1044 
Q 978 906 883 811 
Q 788 716 647 716 
Q 625 716 597 720 
Q 569 725 556 728 
z
" transform="scale(0.015625)"/>
      <path id="STIXGeneral-Regular-66" d="M 134 2880 
L 659 2880 
Q 666 3264 710 3478 
Q 755 3693 883 3910 
Q 1152 4371 1786 4371 
Q 2074 4371 2262 4259 
Q 2451 4147 2451 3974 
Q 2451 3866 2374 3789 
Q 2298 3712 2182 3712 
Q 2029 3712 1894 3942 
Q 1741 4192 1555 4192 
Q 1197 4192 1197 3622 
L 1197 2880 
L 1978 2880 
L 1978 2675 
L 1197 2675 
L 1197 666 
Q 1197 307 1299 208 
Q 1402 109 1792 96 
L 1792 0 
L 128 0 
L 128 96 
Q 474 115 566 214 
Q 659 314 659 666 
L 659 2675 
L 134 2675 
L 134 2880 
z
" transform="scale(0.015625)"/>
     </defs>
     <use xlink:href="#STIXGeneral-Regular-67" transform="translate(0 0.703125)"/>
     <use xlink:href="#STIXGeneral-Regular-61" transform="translate(49.999985 0.703125)"/>
     <use xlink:href="#STIXGeneral-Regular-70" transform="translate(94.399979 0.703125)"/>
     <use xlink:href="#STIXGeneral-Regular-20" transform="translate(144.399963 0.703125)"/>
     <use xlink:href="#Cmr10-30" transform="translate(169.399948 0.703125)"/>
     <use xlink:href="#Cmmi10-3a" transform="translate(219.399948 0.703125)"/>
     <use xlink:href="#Cmr10-35" transform="translate(247.085495 0.703125)"/>
     <use xlink:href="#STIXGeneral-Regular-20" transform="translate(297.085495 0.703125)"/>
     <use xlink:href="#STIXGeneral-Regular-28" transform="translate(322.08548 0.703125)"/>
     <use xlink:href="#STIXGeneral-Regular-66" transform="translate(355.385468 0.703125)"/>
     <use xlink:href="#STIXGeneral-Regular-61" transform="translate(388.685455 0.703125)"/>
     <use xlink:href="#STIXGeneral-Regular-73" transform="translate(433.085449 0.703125)"/>
     <use xlink:href="#STIXGeneral-Regular-74" transform="translate(471.985443 0.703125)"/>
     <use xlink:href="#STIXGeneral-Regular-29" transform="translate(499.785431 0.703125)"/>
    </g>
   </g>
   <g id="text_20">
    <!-- Power method: error decays like $(|\lambda_2/\lambda_1|)^k$ -->
    <g transform="translate(128.04 17.64) scale(0.12 -0.12)">
     <defs>
      <path id="STIXGeneral-Regular-50" d="M 102 4237 
L 1760 4237 
Q 2669 4237 3149 3834 
Q 3469 3565 3469 3072 
Q 3469 2560 3104 2234 
Q 2835 1990 2553 1916 
Q 2272 1843 1734 1843 
Q 1549 1843 1293 1862 
L 1293 717 
Q 1293 352 1398 246 
Q 1504 141 1894 122 
L 1894 0 
L 102 0 
L 102 122 
Q 474 147 557 256 
Q 640 365 640 781 
L 640 3526 
Q 640 3885 547 3987 
Q 454 4090 102 4115 
L 102 4237 
z
M 1293 3770 
L 1293 2118 
Q 1510 2099 1683 2099 
Q 2202 2099 2486 2352 
Q 2771 2605 2771 3040 
Q 2771 3558 2476 3779 
Q 2182 4000 1517 4000 
Q 1382 4000 1337 3952 
Q 1293 3904 1293 3770 
z
" transform="scale(0.015625)"/>
      <path id="STIXGeneral-Regular-6d" d="M 4960 0 
L 3565 0 
L 3565 96 
Q 3834 122 3907 208 
Q 3981 294 3981 576 
L 3981 1894 
Q 3981 2278 3869 2444 
Q 3757 2611 3488 2611 
Q 3264 2611 3107 2521 
Q 2950 2432 2803 2221 
L 2803 608 
Q 2803 301 2896 201 
Q 2989 102 3264 96 
L 3264 0 
L 1830 0 
L 1830 96 
Q 2112 115 2189 188 
Q 2266 262 2266 550 
L 2266 1901 
Q 2266 2611 1850 2611 
Q 1670 2611 1468 2531 
Q 1267 2451 1171 2336 
Q 1088 2240 1088 2227 
L 1088 448 
Q 1088 243 1177 176 
Q 1267 109 1523 96 
L 1523 0 
L 102 0 
L 102 96 
Q 371 102 460 195 
Q 550 288 550 563 
L 550 2150 
Q 550 2387 499 2480 
Q 448 2573 326 2573 
Q 230 2573 122 2547 
L 122 2656 
Q 557 2778 1011 2944 
L 1062 2925 
L 1062 2451 
L 1075 2451 
Q 1363 2752 1584 2848 
Q 1805 2944 2054 2944 
Q 2560 2944 2733 2406 
Q 3232 2944 3776 2944 
Q 4518 2944 4518 1792 
L 4518 493 
Q 4518 282 4582 202 
Q 4646 122 4794 109 
L 4960 96 
L 4960 0 
z
" transform="scale(0.015625)"/>
      <path id="STIXGeneral-Regular-68" d="M 3117 0 
L 1760 0 
L 1760 96 
Q 2042 128 2118 224 
Q 2195 320 2195 653 
L 2195 1920 
Q 2195 2598 1722 2598 
Q 1530 2598 1370 2508 
Q 1210 2419 1005 2195 
L 1005 653 
Q 1005 320 1081 224 
Q 1158 128 1440 96 
L 1440 0 
L 58 0 
L 58 96 
Q 333 134 400 224 
Q 467 314 467 653 
L 467 3667 
Q 467 3872 406 3933 
Q 346 3994 141 3994 
Q 83 3994 64 3987 
L 64 4090 
L 237 4141 
Q 730 4288 973 4371 
L 1005 4352 
L 1005 2406 
Q 1229 2694 1446 2819 
Q 1664 2944 1946 2944 
Q 2733 2944 2733 1926 
L 2733 653 
Q 2733 320 2793 233 
Q 2854 147 3117 96 
L 3117 0 
z
" transform="scale(0.015625)"/>
      <path id="STIXGeneral-Regular-64" d="M 3142 269 
L 2202 -64 
L 2176 -45 
L 2176 365 
Q 1869 -64 1357 -64 
Q 826 -64 499 317 
Q 173 698 173 1312 
Q 173 1990 563 2467 
Q 954 2944 1504 2944 
Q 1850 2944 2176 2669 
L 2176 3667 
Q 2176 3866 2118 3930 
Q 2061 3994 1882 3994 
Q 1792 3994 1741 3987 
L 1741 4090 
Q 2323 4243 2682 4371 
L 2714 4358 
L 2714 730 
Q 2714 506 2768 435 
Q 2822 365 2995 365 
Q 3034 365 3142 371 
L 3142 269 
z
M 2176 653 
L 2176 2125 
Q 2176 2381 1981 2573 
Q 1786 2765 1523 2765 
Q 1158 2765 940 2438 
Q 723 2112 723 1568 
Q 723 979 963 624 
Q 1203 269 1606 269 
Q 1907 269 2080 474 
Q 2176 582 2176 653 
z
" transform="scale(0.015625)"/>
      <path id="STIXGeneral-Regular-3a" d="M 1123 2832 
Q 1229 2726 1229 2579 
Q 1229 2432 1126 2329 
Q 1024 2227 877 2227 
Q 730 2227 624 2332 
Q 518 2438 518 2579 
Q 518 2733 620 2835 
Q 723 2938 877 2938 
Q 1018 2938 1123 2832 
z
M 1229 282 
Q 1229 141 1126 35 
Q 1024 -70 877 -70 
Q 730 -70 624 35 
Q 518 141 518 282 
Q 518 435 620 537 
Q 723 640 877 640 
Q 1018 640 1123 534 
Q 1229 429 1229 282 
z
" transform="scale(0.015625)"/>
      <path id="STIXGeneral-Regular-63" d="M 2547 998 
L 2637 941 
Q 2362 403 2112 205 
Q 1786 -64 1376 -64 
Q 845 -64 502 336 
Q 160 736 160 1357 
Q 160 2170 698 2618 
Q 1094 2944 1562 2944 
Q 1965 2944 2256 2749 
Q 2547 2554 2547 2285 
Q 2547 2176 2457 2096 
Q 2368 2016 2246 2016 
Q 2022 2016 1939 2310 
L 1901 2451 
Q 1850 2630 1773 2694 
Q 1696 2758 1523 2758 
Q 1133 2758 893 2451 
Q 653 2144 653 1645 
Q 653 1094 928 745 
Q 1203 397 1645 397 
Q 1920 397 2118 528 
Q 2317 659 2547 998 
z
" transform="scale(0.015625)"/>
      <path id="STIXGeneral-Regular-79" d="M 3040 2880 
L 3040 2784 
Q 2925 2771 2854 2700 
Q 2784 2630 2720 2458 
L 1760 -160 
Q 1510 -838 1257 -1116 
Q 1005 -1395 640 -1395 
Q 435 -1395 313 -1289 
Q 192 -1184 192 -1024 
Q 192 -902 272 -816 
Q 352 -730 467 -730 
Q 653 -730 800 -813 
Q 883 -858 966 -858 
Q 1101 -858 1286 -576 
Q 1376 -448 1459 -211 
Q 1542 26 1542 115 
Q 1542 198 1274 762 
L 429 2566 
Q 346 2752 90 2790 
L 90 2880 
L 1402 2880 
L 1402 2784 
Q 1197 2778 1117 2739 
Q 1037 2701 1037 2611 
Q 1037 2541 1120 2349 
L 1837 749 
L 2458 2515 
Q 2483 2573 2483 2630 
Q 2483 2784 2189 2784 
L 2189 2880 
L 3040 2880 
z
" transform="scale(0.015625)"/>
      <path id="STIXGeneral-Regular-6b" d="M 3232 0 
L 1837 0 
L 1837 96 
L 1958 96 
Q 2093 96 2093 192 
Q 2093 250 2022 339 
L 1062 1606 
L 1062 429 
Q 1062 262 1142 185 
Q 1222 109 1414 102 
L 1542 96 
L 1542 0 
L 45 0 
L 45 96 
Q 390 154 457 214 
Q 525 275 525 525 
L 525 3610 
Q 525 3840 467 3920 
Q 410 4000 250 4000 
Q 211 4000 45 3987 
L 45 4090 
L 237 4141 
Q 621 4243 1037 4371 
L 1062 4358 
L 1062 1670 
L 1939 2451 
Q 2086 2586 2086 2675 
Q 2086 2739 2019 2761 
Q 1952 2784 1766 2790 
L 1766 2880 
L 3072 2880 
L 3072 2784 
Q 2752 2784 2505 2646 
Q 2259 2509 1690 1978 
L 1504 1805 
L 2483 563 
Q 2829 122 3232 96 
L 3232 0 
z
" transform="scale(0.015625)"/>
      <path id="Cmsy10-6a" d="M 763 -1484 
L 763 4684 
Q 763 4734 800 4767 
Q 838 4800 891 4800 
Q 938 4800 978 4767 
Q 1019 4734 1019 4684 
L 1019 -1484 
Q 1019 -1534 978 -1567 
Q 938 -1600 891 -1600 
Q 838 -1600 800 -1567 
Q 763 -1534 763 -1484 
z
" transform="scale(0.015625)"/>
      <path id="Cmmi10-b8" d="M 325 109 
Q 325 203 409 288 
L 2209 2053 
L 1575 3834 
Q 1500 4038 1417 4156 
Q 1334 4275 1178 4275 
Q 1106 4275 1106 4359 
Q 1113 4397 1138 4419 
Q 1163 4441 1203 4441 
Q 1875 4441 2016 4044 
L 3316 416 
Q 3400 144 3488 50 
Q 3519 3 3519 -13 
Q 3519 -72 3469 -72 
L 3122 -72 
Q 2963 -25 2869 206 
L 2284 1844 
L 738 25 
Q 622 -84 531 -84 
Q 450 -84 387 -28 
Q 325 28 325 109 
z
" transform="scale(0.015625)"/>
      <path id="Cmmi10-3d" d="M 359 -1472 
Q 359 -1453 366 -1447 
L 2591 4722 
Q 2603 4759 2634 4779 
Q 2666 4800 2706 4800 
Q 2763 4800 2798 4765 
Q 2834 4731 2834 4672 
L 2834 4647 
L 609 -1522 
Q 572 -1600 488 -1600 
Q 434 -1600 396 -1562 
Q 359 -1525 359 -1472 
z
" transform="scale(0.015625)"/>
     </defs>
     <use xlink:href="#STIXGeneral-Regular-50" transform="translate(0 0.1625)"/>
     <use xlink:href="#STIXGeneral-Regular-6f" transform="translate(55.699997 0.1625)"/>
     <use xlink:href="#STIXGeneral-Regular-77" transform="translate(105.699982 0.1625)"/>
     <use xlink:href="#STIXGeneral-Regular-65" transform="translate(177.899963 0.1625)"/>
     <use xlink:href="#STIXGeneral-Regular-72" transform="translate(222.299957 0.1625)"/>
     <use xlink:href="#STIXGeneral-Regular-20" transform="translate(255.599945 0.1625)"/>
     <use xlink:href="#STIXGeneral-Regular-6d" transform="translate(280.59993 0.1625)"/>
     <use xlink:href="#STIXGeneral-Regular-65" transform="translate(358.399918 0.1625)"/>
     <use xlink:href="#STIXGeneral-Regular-74" transform="translate(402.799911 0.1625)"/>
     <use xlink:href="#STIXGeneral-Regular-68" transform="translate(430.599899 0.1625)"/>
     <use xlink:href="#STIXGeneral-Regular-6f" transform="translate(480.599884 0.1625)"/>
     <use xlink:href="#STIXGeneral-Regular-64" transform="translate(530.599869 0.1625)"/>
     <use xlink:href="#STIXGeneral-Regular-3a" transform="translate(580.599854 0.1625)"/>
     <use xlink:href="#STIXGeneral-Regular-20" transform="translate(608.399841 0.1625)"/>
     <use xlink:href="#STIXGeneral-Regular-65" transform="translate(633.399826 0.1625)"/>
     <use xlink:href="#STIXGeneral-Regular-72" transform="translate(677.79982 0.1625)"/>
     <use xlink:href="#STIXGeneral-Regular-72" transform="translate(711.099808 0.1625)"/>
     <use xlink:href="#STIXGeneral-Regular-6f" transform="translate(744.399796 0.1625)"/>
     <use xlink:href="#STIXGeneral-Regular-72" transform="translate(794.39978 0.1625)"/>
     <use xlink:href="#STIXGeneral-Regular-20" transform="translate(827.699768 0.1625)"/>
     <use xlink:href="#STIXGeneral-Regular-64" transform="translate(852.699753 0.1625)"/>
     <use xlink:href="#STIXGeneral-Regular-65" transform="translate(902.699738 0.1625)"/>
     <use xlink:href="#STIXGeneral-Regular-63" transform="translate(947.099731 0.1625)"/>
     <use xlink:href="#STIXGeneral-Regular-61" transform="translate(991.499725 0.1625)"/>
     <use xlink:href="#STIXGeneral-Regular-79" transform="translate(1035.899719 0.1625)"/>
     <use xlink:href="#STIXGeneral-Regular-73" transform="translate(1085.899704 0.1625)"/>
     <use xlink:href="#STIXGeneral-Regular-20" transform="translate(1124.799698 0.1625)"/>
     <use xlink:href="#STIXGeneral-Regular-6c" transform="translate(1149.799683 0.1625)"/>
     <use xlink:href="#STIXGeneral-Regular-69" transform="translate(1177.59967 0.1625)"/>
     <use xlink:href="#STIXGeneral-Regular-6b" transform="translate(1205.399658 0.1625)"/>
     <use xlink:href="#STIXGeneral-Regular-65" transform="translate(1255.399643 0.1625)"/>
     <use xlink:href="#STIXGeneral-Regular-20" transform="translate(1299.799637 0.1625)"/>
     <use xlink:href="#Cmr10-28" transform="translate(1324.799622 0.1625)"/>
     <use xlink:href="#Cmsy10-6a" transform="translate(1363.617981 0.1625)"/>
     <use xlink:href="#Cmmi10-b8" transform="translate(1391.303528 0.1625)"/>
     <use xlink:href="#Cmr10-32" transform="translate(1449.604309 -16.84375) scale(0.7)"/>
     <use xlink:href="#Cmmi10-3d" transform="translate(1490.981653 0.1625)"/>
     <use xlink:href="#Cmmi10-b8" transform="translate(1540.981653 0.1625)"/>
     <use xlink:href="#Cmr10-31" transform="translate(1599.282434 -16.84375) scale(0.7)"/>
     <use xlink:href="#Cmsy10-6a" transform="translate(1640.659778 0.1625)"/>
     <use xlink:href="#Cmr10-29" transform="translate(1668.345325 0.1625)"/>
     <use xlink:href="#Cmmi10-6b" transform="translate(1711.627825 38.426562) scale(0.7)"/>
    </g>
   </g>
   <g id="line2d_18">
    <path d="M 54.78 34.328789 
L 63.936923 42.868122 
L 73.093846 51.490285 
L 82.250769 59.142753 
L 91.407692 65.934363 
L 100.564615 72.243892 
L 109.721538 78.342859 
L 118.878462 84.360012 
L 128.035385 90.346857 
L 137.192308 96.322673 
L 146.349231 102.294505 
L 155.506154 108.264899 
L 164.663077 114.234776 
L 173.82 120.204466 
L 182.976923 126.174094 
L 192.133846 132.143716 
L 201.290769 138.113302 
L 210.447692 144.082636 
L 219.604615 150.054906 
L 228.761538 156.023149 
L 237.918462 162.003487 
L 247.075385 167.973073 
L 256.232308 174.118444 
L 265.389231 180.08803 
L 265.447014 304.276 
M 411.844404 304.276 
L 411.9 184.818814 
" clip-path="url(#p0374400da4)" style="fill: none; stroke: #0072b2; stroke-width: 1.5; stroke-linecap: square"/>
    <defs>
     <path id="m335186db30" d="M 0 1.75 
C 0.464105 1.75 0.909265 1.565609 1.237437 1.237437 
C 1.565609 0.909265 1.75 0.464105 1.75 0 
C 1.75 -0.464105 1.565609 -0.909265 1.237437 -1.237437 
C 0.909265 -1.565609 0.464105 -1.75 0 -1.75 
C -0.464105 -1.75 -0.909265 -1.565609 -1.237437 -1.237437 
C -1.565609 -0.909265 -1.75 -0.464105 -1.75 0 
C -1.75 0.464105 -1.565609 0.909265 -1.237437 1.237437 
C -0.909265 1.565609 -0.464105 1.75 0 1.75 
z
" style="stroke: #0072b2"/>
    </defs>
    <g clip-path="url(#p0374400da4)">
     <use xlink:href="#m335186db30" x="54.78" y="34.328789" style="fill: #0072b2; stroke: #0072b2"/>
     <use xlink:href="#m335186db30" x="63.936923" y="42.868122" style="fill: #0072b2; stroke: #0072b2"/>
     <use xlink:href="#m335186db30" x="73.093846" y="51.490285" style="fill: #0072b2; stroke: #0072b2"/>
     <use xlink:href="#m335186db30" x="82.250769" y="59.142753" style="fill: #0072b2; stroke: #0072b2"/>
     <use xlink:href="#m335186db30" x="91.407692" y="65.934363" style="fill: #0072b2; stroke: #0072b2"/>
     <use xlink:href="#m335186db30" x="100.564615" y="72.243892" style="fill: #0072b2; stroke: #0072b2"/>
     <use xlink:href="#m335186db30" x="109.721538" y="78.342859" style="fill: #0072b2; stroke: #0072b2"/>
     <use xlink:href="#m335186db30" x="118.878462" y="84.360012" style="fill: #0072b2; stroke: #0072b2"/>
     <use xlink:href="#m335186db30" x="128.035385" y="90.346857" style="fill: #0072b2; stroke: #0072b2"/>
     <use xlink:href="#m335186db30" x="137.192308" y="96.322673" style="fill: #0072b2; stroke: #0072b2"/>
     <use xlink:href="#m335186db30" x="146.349231" y="102.294505" style="fill: #0072b2; stroke: #0072b2"/>
     <use xlink:href="#m335186db30" x="155.506154" y="108.264899" style="fill: #0072b2; stroke: #0072b2"/>
     <use xlink:href="#m335186db30" x="164.663077" y="114.234776" style="fill: #0072b2; stroke: #0072b2"/>
     <use xlink:href="#m335186db30" x="173.82" y="120.204466" style="fill: #0072b2; stroke: #0072b2"/>
     <use xlink:href="#m335186db30" x="182.976923" y="126.174094" style="fill: #0072b2; stroke: #0072b2"/>
     <use xlink:href="#m335186db30" x="192.133846" y="132.143716" style="fill: #0072b2; stroke: #0072b2"/>
     <use xlink:href="#m335186db30" x="201.290769" y="138.113302" style="fill: #0072b2; stroke: #0072b2"/>
     <use xlink:href="#m335186db30" x="210.447692" y="144.082636" style="fill: #0072b2; stroke: #0072b2"/>
     <use xlink:href="#m335186db30" x="219.604615" y="150.054906" style="fill: #0072b2; stroke: #0072b2"/>
     <use xlink:href="#m335186db30" x="228.761538" y="156.023149" style="fill: #0072b2; stroke: #0072b2"/>
     <use xlink:href="#m335186db30" x="237.918462" y="162.003487" style="fill: #0072b2; stroke: #0072b2"/>
     <use xlink:href="#m335186db30" x="247.075385" y="167.973073" style="fill: #0072b2; stroke: #0072b2"/>
     <use xlink:href="#m335186db30" x="256.232308" y="174.118444" style="fill: #0072b2; stroke: #0072b2"/>
     <use xlink:href="#m335186db30" x="265.389231" y="180.08803" style="fill: #0072b2; stroke: #0072b2"/>
     <use xlink:href="#m335186db30" x="274.546154" y="19860.144109" style="fill: #0072b2; stroke: #0072b2"/>
     <use xlink:href="#m335186db30" x="283.703077" y="19860.144109" style="fill: #0072b2; stroke: #0072b2"/>
     <use xlink:href="#m335186db30" x="292.86" y="19860.144109" style="fill: #0072b2; stroke: #0072b2"/>
     <use xlink:href="#m335186db30" x="302.016923" y="19860.144109" style="fill: #0072b2; stroke: #0072b2"/>
     <use xlink:href="#m335186db30" x="311.173846" y="19860.144109" style="fill: #0072b2; stroke: #0072b2"/>
     <use xlink:href="#m335186db30" x="320.330769" y="19860.144109" style="fill: #0072b2; stroke: #0072b2"/>
     <use xlink:href="#m335186db30" x="329.487692" y="19860.144109" style="fill: #0072b2; stroke: #0072b2"/>
     <use xlink:href="#m335186db30" x="338.644615" y="19860.144109" style="fill: #0072b2; stroke: #0072b2"/>
     <use xlink:href="#m335186db30" x="347.801538" y="19860.144109" style="fill: #0072b2; stroke: #0072b2"/>
     <use xlink:href="#m335186db30" x="356.958462" y="19860.144109" style="fill: #0072b2; stroke: #0072b2"/>
     <use xlink:href="#m335186db30" x="366.115385" y="19860.144109" style="fill: #0072b2; stroke: #0072b2"/>
     <use xlink:href="#m335186db30" x="375.272308" y="19860.144109" style="fill: #0072b2; stroke: #0072b2"/>
     <use xlink:href="#m335186db30" x="384.429231" y="19860.144109" style="fill: #0072b2; stroke: #0072b2"/>
     <use xlink:href="#m335186db30" x="393.586154" y="19860.144109" style="fill: #0072b2; stroke: #0072b2"/>
     <use xlink:href="#m335186db30" x="402.743077" y="19860.144109" style="fill: #0072b2; stroke: #0072b2"/>
     <use xlink:href="#m335186db30" x="411.9" y="184.818814" style="fill: #0072b2; stroke: #0072b2"/>
    </g>
   </g>
   <g id="line2d_19">
    <path d="M 54.78 34.328789 
L 63.936923 41.04084 
L 73.093846 44.156388 
L 82.250769 45.386735 
L 91.407692 46.314152 
L 100.564615 47.209208 
L 109.721538 48.10336 
L 118.878462 48.999638 
L 128.035385 49.897968 
L 137.192308 50.798001 
L 146.349231 51.699424 
L 155.506154 52.601975 
L 164.663077 53.505443 
L 173.82 54.409654 
L 182.976923 55.314469 
L 192.133846 56.219772 
L 201.290769 57.125473 
L 210.447692 58.031495 
L 219.604615 58.937778 
L 228.761538 59.844272 
L 237.918462 60.750937 
L 247.075385 61.65774 
L 256.232308 62.564657 
L 265.389231 63.471664 
L 274.546154 64.378745 
L 283.703077 65.285885 
L 292.86 66.193074 
L 302.016923 67.100303 
L 311.173846 68.007563 
L 320.330769 68.914849 
L 329.487692 69.822155 
L 338.644615 70.729479 
L 347.801538 71.636816 
L 356.958462 72.544164 
L 366.115385 73.451521 
L 375.272308 74.358886 
L 384.429231 75.266256 
L 393.586154 76.173631 
L 402.743077 77.081011 
L 411.9 77.988393 
" clip-path="url(#p0374400da4)" style="fill: none; stroke: #d55e00; stroke-width: 1.5; stroke-linecap: square"/>
    <defs>
     <path id="mb3b3dd5c4b" d="M 0 1.75 
C 0.464105 1.75 0.909265 1.565609 1.237437 1.237437 
C 1.565609 0.909265 1.75 0.464105 1.75 0 
C 1.75 -0.464105 1.565609 -0.909265 1.237437 -1.237437 
C 0.909265 -1.565609 0.464105 -1.75 0 -1.75 
C -0.464105 -1.75 -0.909265 -1.565609 -1.237437 -1.237437 
C -1.565609 -0.909265 -1.75 -0.464105 -1.75 0 
C -1.75 0.464105 -1.565609 0.909265 -1.237437 1.237437 
C -0.909265 1.565609 -0.464105 1.75 0 1.75 
z
" style="stroke: #d55e00"/>
    </defs>
    <g clip-path="url(#p0374400da4)">
     <use xlink:href="#mb3b3dd5c4b" x="54.78" y="34.328789" style="fill: #d55e00; stroke: #d55e00"/>
     <use xlink:href="#mb3b3dd5c4b" x="63.936923" y="41.04084" style="fill: #d55e00; stroke: #d55e00"/>
     <use xlink:href="#mb3b3dd5c4b" x="73.093846" y="44.156388" style="fill: #d55e00; stroke: #d55e00"/>
     <use xlink:href="#mb3b3dd5c4b" x="82.250769" y="45.386735" style="fill: #d55e00; stroke: #d55e00"/>
     <use xlink:href="#mb3b3dd5c4b" x="91.407692" y="46.314152" style="fill: #d55e00; stroke: #d55e00"/>
     <use xlink:href="#mb3b3dd5c4b" x="100.564615" y="47.209208" style="fill: #d55e00; stroke: #d55e00"/>
     <use xlink:href="#mb3b3dd5c4b" x="109.721538" y="48.10336" style="fill: #d55e00; stroke: #d55e00"/>
     <use xlink:href="#mb3b3dd5c4b" x="118.878462" y="48.999638" style="fill: #d55e00; stroke: #d55e00"/>
     <use xlink:href="#mb3b3dd5c4b" x="128.035385" y="49.897968" style="fill: #d55e00; stroke: #d55e00"/>
     <use xlink:href="#mb3b3dd5c4b" x="137.192308" y="50.798001" style="fill: #d55e00; stroke: #d55e00"/>
     <use xlink:href="#mb3b3dd5c4b" x="146.349231" y="51.699424" style="fill: #d55e00; stroke: #d55e00"/>
     <use xlink:href="#mb3b3dd5c4b" x="155.506154" y="52.601975" style="fill: #d55e00; stroke: #d55e00"/>
     <use xlink:href="#mb3b3dd5c4b" x="164.663077" y="53.505443" style="fill: #d55e00; stroke: #d55e00"/>
     <use xlink:href="#mb3b3dd5c4b" x="173.82" y="54.409654" style="fill: #d55e00; stroke: #d55e00"/>
     <use xlink:href="#mb3b3dd5c4b" x="182.976923" y="55.314469" style="fill: #d55e00; stroke: #d55e00"/>
     <use xlink:href="#mb3b3dd5c4b" x="192.133846" y="56.219772" style="fill: #d55e00; stroke: #d55e00"/>
     <use xlink:href="#mb3b3dd5c4b" x="201.290769" y="57.125473" style="fill: #d55e00; stroke: #d55e00"/>
     <use xlink:href="#mb3b3dd5c4b" x="210.447692" y="58.031495" style="fill: #d55e00; stroke: #d55e00"/>
     <use xlink:href="#mb3b3dd5c4b" x="219.604615" y="58.937778" style="fill: #d55e00; stroke: #d55e00"/>
     <use xlink:href="#mb3b3dd5c4b" x="228.761538" y="59.844272" style="fill: #d55e00; stroke: #d55e00"/>
     <use xlink:href="#mb3b3dd5c4b" x="237.918462" y="60.750937" style="fill: #d55e00; stroke: #d55e00"/>
     <use xlink:href="#mb3b3dd5c4b" x="247.075385" y="61.65774" style="fill: #d55e00; stroke: #d55e00"/>
     <use xlink:href="#mb3b3dd5c4b" x="256.232308" y="62.564657" style="fill: #d55e00; stroke: #d55e00"/>
     <use xlink:href="#mb3b3dd5c4b" x="265.389231" y="63.471664" style="fill: #d55e00; stroke: #d55e00"/>
     <use xlink:href="#mb3b3dd5c4b" x="274.546154" y="64.378745" style="fill: #d55e00; stroke: #d55e00"/>
     <use xlink:href="#mb3b3dd5c4b" x="283.703077" y="65.285885" style="fill: #d55e00; stroke: #d55e00"/>
     <use xlink:href="#mb3b3dd5c4b" x="292.86" y="66.193074" style="fill: #d55e00; stroke: #d55e00"/>
     <use xlink:href="#mb3b3dd5c4b" x="302.016923" y="67.100303" style="fill: #d55e00; stroke: #d55e00"/>
     <use xlink:href="#mb3b3dd5c4b" x="311.173846" y="68.007563" style="fill: #d55e00; stroke: #d55e00"/>
     <use xlink:href="#mb3b3dd5c4b" x="320.330769" y="68.914849" style="fill: #d55e00; stroke: #d55e00"/>
     <use xlink:href="#mb3b3dd5c4b" x="329.487692" y="69.822155" style="fill: #d55e00; stroke: #d55e00"/>
     <use xlink:href="#mb3b3dd5c4b" x="338.644615" y="70.729479" style="fill: #d55e00; stroke: #d55e00"/>
     <use xlink:href="#mb3b3dd5c4b" x="347.801538" y="71.636816" style="fill: #d55e00; stroke: #d55e00"/>
     <use xlink:href="#mb3b3dd5c4b" x="356.958462" y="72.544164" style="fill: #d55e00; stroke: #d55e00"/>
     <use xlink:href="#mb3b3dd5c4b" x="366.115385" y="73.451521" style="fill: #d55e00; stroke: #d55e00"/>
     <use xlink:href="#mb3b3dd5c4b" x="375.272308" y="74.358886" style="fill: #d55e00; stroke: #d55e00"/>
     <use xlink:href="#mb3b3dd5c4b" x="384.429231" y="75.266256" style="fill: #d55e00; stroke: #d55e00"/>
     <use xlink:href="#mb3b3dd5c4b" x="393.586154" y="76.173631" style="fill: #d55e00; stroke: #d55e00"/>
     <use xlink:href="#mb3b3dd5c4b" x="402.743077" y="77.081011" style="fill: #d55e00; stroke: #d55e00"/>
     <use xlink:href="#mb3b3dd5c4b" x="411.9" y="77.988393" style="fill: #d55e00; stroke: #d55e00"/>
    </g>
   </g>
  </g>
 </g>
 <defs>
  <clipPath id="p0374400da4">
   <rect x="54.78" y="23.64" width="357.12" height="243.936"/>
  </clipPath>
 </defs>
</svg>
