<?xml version="1.0" encoding="utf-8" standalone="no"?>
<!DOCTYPE svg PUBLIC "-//W3C//DTD SVG 1.1//EN"
  "http://www.w3.org/Graphics/SVG/1.1/DTD/svg11.dtd">
<svg xmlns:xlink="http://www.w3.org/1999/xlink" width="683.802675pt" height="314.223125pt" viewBox="0 0 683.802675 314.223125" xmlns="http://www.w3.org/2000/svg" version="1.1">
 <metadata>
  <rdf:RDF xmlns:dc="http://purl.org/dc/elements/1.1/" xmlns:cc="http://creativecommons.org/ns#" xmlns:rdf="http://www.w3.org/1999/02/22-rdf-syntax-ns#">
   <cc:Work>
    <dc:type rdf:resource="http://purl.org/dc/dcmitype/StillImage"/>
    <dc:date>2026-07-17T17:26:29.586045</dc:date>
    <dc:format>image/svg+xml</dc:format>
    <dc:creator>
     <cc:Agent>
      <dc:title>Matplotlib v3.9.4, https://matplotlib.org/</dc:title>
     </cc:Agent>
    </dc:creator>
   </cc:Work>
  </rdf:RDF>
 </metadata>
 <defs>
  <style type="text/css">*{stroke-linejoin: round; stroke-linecap: butt}</style>
 </defs>
 <g id="figure_1">
  <g id="patch_1">
   <path d="M 0 314.223125 
L 683.802675 314.223125 
L 683.802675 0 
L 0 0 
z
" style="fill: #ffffff"/>
  </g>
  <g id="axes_1">
   <g id="patch_2">
    <path d="M 44.7 275.883125 
L 329.874089 275.883125 
L 329.874089 21.395625 
L 44.7 21.395625 
z
" style="fill: #ffffff"/>
   </g>
   <g id="matplotlib.axis_1">
    <g id="xtick_1">
     <g id="line2d_1">
      <defs>
       <path id="m2ebe7ad02a" d="M 0 0 
L 0 3 
" style="stroke: #1f2328; stroke-width: 0.8"/>
      </defs>
      <g>
       <use xlink:href="#m2ebe7ad02a" x="88.201132" y="275.883125" style="fill: #1f2328; stroke: #1f2328; stroke-width: 0.8"/>
      </g>
     </g>
     <g id="text_1">
      <!-- 10 -->
      <g style="fill: #1f2328" transform="translate(83.701132 288.529844) scale(0.09 -0.09)">
       <defs>
        <path id="STIXGeneral-Regular-31" d="M 2522 0 
L 755 0 
L 755 96 
Q 1107 115 1235 227 
Q 1363 339 1363 608 
L 1363 3482 
Q 1363 3795 1171 3795 
Q 1082 3795 883 3718 
L 710 3654 
L 710 3744 
L 1856 4326 
L 1914 4307 
L 1914 486 
Q 1914 275 2042 185 
Q 2170 96 2522 96 
L 2522 0 
z
" transform="scale(0.015625)"/>
        <path id="STIXGeneral-Regular-30" d="M 3046 2112 
Q 3046 1683 2963 1302 
Q 2880 922 2717 602 
Q 2554 282 2266 96 
Q 1978 -90 1600 -90 
Q 1210 -90 915 108 
Q 621 307 461 640 
Q 301 973 227 1350 
Q 154 1728 154 2150 
Q 154 2746 301 3222 
Q 448 3699 790 4012 
Q 1133 4326 1626 4326 
Q 2253 4326 2649 3712 
Q 3046 3098 3046 2112 
z
M 2432 2080 
Q 2432 3091 2217 3625 
Q 2003 4160 1587 4160 
Q 1190 4160 979 3622 
Q 768 3085 768 2106 
Q 768 1120 979 598 
Q 1190 77 1600 77 
Q 2003 77 2217 598 
Q 2432 1120 2432 2080 
z
" transform="scale(0.015625)"/>
       </defs>
       <use xlink:href="#STIXGeneral-Regular-31"/>
       <use xlink:href="#STIXGeneral-Regular-30" x="49.999985"/>
      </g>
     </g>
    </g>
    <g id="xtick_2">
     <g id="line2d_2">
      <g>
       <use xlink:href="#m2ebe7ad02a" x="136.535724" y="275.883125" style="fill: #1f2328; stroke: #1f2328; stroke-width: 0.8"/>
      </g>
     </g>
     <g id="text_2">
      <!-- 20 -->
      <g style="fill: #1f2328" transform="translate(132.035724 288.529844) scale(0.09 -0.09)">
       <defs>
        <path id="STIXGeneral-Regular-32" d="M 3034 877 
L 2688 0 
L 186 0 
L 186 77 
L 1325 1286 
Q 1773 1754 1965 2144 
Q 2157 2534 2157 2950 
Q 2157 3379 1920 3616 
Q 1683 3853 1267 3853 
Q 922 3853 720 3673 
Q 518 3494 326 3021 
L 192 3053 
Q 301 3648 630 3987 
Q 960 4326 1523 4326 
Q 2054 4326 2380 4006 
Q 2707 3686 2707 3200 
Q 2707 2477 1888 1613 
L 832 486 
L 2330 486 
Q 2541 486 2665 569 
Q 2790 653 2944 915 
L 3034 877 
z
" transform="scale(0.015625)"/>
       </defs>
       <use xlink:href="#STIXGeneral-Regular-32"/>
       <use xlink:href="#STIXGeneral-Regular-30" x="49.999985"/>
      </g>
     </g>
    </g>
    <g id="xtick_3">
     <g id="line2d_3">
      <g>
       <use xlink:href="#m2ebe7ad02a" x="184.870315" y="275.883125" style="fill: #1f2328; stroke: #1f2328; stroke-width: 0.8"/>
      </g>
     </g>
     <g id="text_3">
      <!-- 30 -->
      <g style="fill: #1f2328" transform="translate(180.370315 288.529844) scale(0.09 -0.09)">
       <defs>
        <path id="STIXGeneral-Regular-33" d="M 390 3264 
L 288 3290 
Q 435 3770 748 4048 
Q 1062 4326 1542 4326 
Q 1990 4326 2265 4083 
Q 2541 3840 2541 3450 
Q 2541 2925 1946 2566 
Q 2298 2413 2477 2227 
Q 2758 1914 2758 1402 
Q 2758 890 2464 506 
Q 2246 211 1840 60 
Q 1434 -90 979 -90 
Q 262 -90 262 275 
Q 262 378 339 442 
Q 416 506 525 506 
Q 685 506 915 339 
Q 1197 141 1466 141 
Q 1818 141 2058 425 
Q 2298 710 2298 1120 
Q 2298 1856 1632 2048 
Q 1434 2112 979 2112 
L 979 2202 
Q 1338 2323 1517 2432 
Q 2035 2726 2035 3290 
Q 2035 3610 1852 3776 
Q 1670 3942 1344 3942 
Q 768 3942 390 3264 
z
" transform="scale(0.015625)"/>
       </defs>
       <use xlink:href="#STIXGeneral-Regular-33"/>
       <use xlink:href="#STIXGeneral-Regular-30" x="49.999985"/>
      </g>
     </g>
    </g>
    <g id="xtick_4">
     <g id="line2d_4">
      <g>
       <use xlink:href="#m2ebe7ad02a" x="233.204906" y="275.883125" style="fill: #1f2328; stroke: #1f2328; stroke-width: 0.8"/>
      </g>
     </g>
     <g id="text_4">
      <!-- 40 -->
      <g style="fill: #1f2328" transform="translate(228.704906 288.529844) scale(0.09 -0.09)">
       <defs>
        <path id="STIXGeneral-Regular-34" d="M 3027 1069 
L 2368 1069 
L 2368 0 
L 1869 0 
L 1869 1069 
L 77 1069 
L 77 1478 
L 2086 4326 
L 2368 4326 
L 2368 1478 
L 3027 1478 
L 3027 1069 
z
M 1869 1478 
L 1869 3674 
L 333 1478 
L 1869 1478 
z
" transform="scale(0.015625)"/>
       </defs>
       <use xlink:href="#STIXGeneral-Regular-34"/>
       <use xlink:href="#STIXGeneral-Regular-30" x="49.999985"/>
      </g>
     </g>
    </g>
    <g id="xtick_5">
     <g id="line2d_5">
      <g>
       <use xlink:href="#m2ebe7ad02a" x="281.539498" y="275.883125" style="fill: #1f2328; stroke: #1f2328; stroke-width: 0.8"/>
      </g>
     </g>
     <g id="text_5">
      <!-- 50 -->
      <g style="fill: #1f2328" transform="translate(277.039498 288.529844) scale(0.09 -0.09)">
       <defs>
        <path id="STIXGeneral-Regular-35" d="M 2803 4358 
L 2573 3814 
Q 2534 3731 2400 3731 
L 1158 3731 
L 902 3187 
Q 1606 3053 1920 2896 
Q 2234 2739 2502 2368 
Q 2726 2061 2726 1555 
Q 2726 1094 2576 780 
Q 2426 467 2099 224 
Q 1664 -90 1011 -90 
Q 646 -90 422 19 
Q 198 128 198 307 
Q 198 550 486 550 
Q 717 550 960 352 
Q 1210 147 1414 147 
Q 1747 147 2012 480 
Q 2278 813 2278 1229 
Q 2278 1843 1850 2189 
Q 1293 2637 486 2637 
Q 410 2637 410 2688 
L 416 2720 
L 1114 4237 
L 2438 4237 
Q 2547 4237 2608 4269 
Q 2669 4301 2746 4403 
L 2803 4358 
z
" transform="scale(0.015625)"/>
       </defs>
       <use xlink:href="#STIXGeneral-Regular-35"/>
       <use xlink:href="#STIXGeneral-Regular-30" x="49.999985"/>
      </g>
     </g>
    </g>
    <g id="xtick_6">
     <g id="line2d_6">
      <g>
       <use xlink:href="#m2ebe7ad02a" x="329.874089" y="275.883125" style="fill: #1f2328; stroke: #1f2328; stroke-width: 0.8"/>
      </g>
     </g>
     <g id="text_6">
      <!-- 60 -->
      <g style="fill: #1f2328" transform="translate(325.374089 288.529844) scale(0.09 -0.09)">
       <defs>
        <path id="STIXGeneral-Regular-36" d="M 2854 4378 
L 2867 4275 
Q 2112 4154 1606 3664 
Q 1101 3174 973 2451 
Q 1344 2739 1786 2739 
Q 2349 2739 2672 2380 
Q 2995 2022 2995 1402 
Q 2995 774 2669 378 
Q 2291 -90 1651 -90 
Q 870 -90 518 557 
Q 218 1107 218 1786 
Q 218 2835 915 3552 
Q 1312 3962 1731 4131 
Q 2150 4301 2854 4378 
z
M 2419 1203 
Q 2419 2445 1555 2445 
Q 1235 2445 1024 2275 
Q 813 2106 813 1702 
Q 813 954 1046 522 
Q 1280 90 1722 90 
Q 2061 90 2240 394 
Q 2419 698 2419 1203 
z
" transform="scale(0.015625)"/>
       </defs>
       <use xlink:href="#STIXGeneral-Regular-36"/>
       <use xlink:href="#STIXGeneral-Regular-30" x="49.999985"/>
      </g>
     </g>
    </g>
    <g id="text_7">
     <!-- index $i$ -->
     <g transform="translate(171.777045 301.995781) scale(0.11 -0.11)">
      <defs>
       <path id="STIXGeneral-Regular-69" d="M 1152 4045 
Q 1152 3904 1056 3811 
Q 960 3718 819 3718 
Q 685 3718 592 3811 
Q 499 3904 499 4045 
Q 499 4179 595 4275 
Q 691 4371 826 4371 
Q 966 4371 1059 4275 
Q 1152 4179 1152 4045 
z
M 1619 0 
L 102 0 
L 102 96 
Q 435 115 521 211 
Q 608 307 608 666 
L 608 2118 
Q 608 2342 563 2432 
Q 518 2522 397 2522 
Q 243 2522 128 2490 
L 128 2592 
L 1120 2944 
L 1146 2918 
L 1146 672 
Q 1146 314 1226 218 
Q 1306 122 1619 96 
L 1619 0 
z
" transform="scale(0.015625)"/>
       <path id="STIXGeneral-Regular-6e" d="M 3104 0 
L 1773 0 
L 1779 96 
Q 2016 115 2096 233 
Q 2176 352 2176 672 
L 2176 1946 
Q 2176 2592 1709 2592 
Q 1549 2592 1408 2515 
Q 1267 2438 1050 2227 
L 1050 461 
Q 1050 269 1136 192 
Q 1222 115 1466 96 
L 1466 0 
L 115 0 
L 115 96 
Q 358 115 435 214 
Q 512 314 512 602 
L 512 2157 
Q 512 2394 467 2483 
Q 422 2573 288 2573 
Q 160 2573 102 2547 
L 102 2656 
Q 550 2784 979 2944 
L 1030 2925 
L 1030 2426 
L 1037 2426 
Q 1491 2944 1958 2944 
Q 2323 2944 2518 2688 
Q 2714 2432 2714 1958 
L 2714 544 
Q 2714 288 2790 205 
Q 2867 122 3104 96 
L 3104 0 
z
" transform="scale(0.015625)"/>
       <path id="STIXGeneral-Regular-64" d="M 3142 269 
L 2202 -64 
L 2176 -45 
L 2176 365 
Q 1869 -64 1357 -64 
Q 826 -64 499 317 
Q 173 698 173 1312 
Q 173 1990 563 2467 
Q 954 2944 1504 2944 
Q 1850 2944 2176 2669 
L 2176 3667 
Q 2176 3866 2118 3930 
Q 2061 3994 1882 3994 
Q 1792 3994 1741 3987 
L 1741 4090 
Q 2323 4243 2682 4371 
L 2714 4358 
L 2714 730 
Q 2714 506 2768 435 
Q 2822 365 2995 365 
Q 3034 365 3142 371 
L 3142 269 
z
M 2176 653 
L 2176 2125 
Q 2176 2381 1981 2573 
Q 1786 2765 1523 2765 
Q 1158 2765 940 2438 
Q 723 2112 723 1568 
Q 723 979 963 624 
Q 1203 269 1606 269 
Q 1907 269 2080 474 
Q 2176 582 2176 653 
z
" transform="scale(0.015625)"/>
       <path id="STIXGeneral-Regular-65" d="M 2611 1050 
L 2714 1005 
Q 2330 -64 1376 -64 
Q 813 -64 486 329 
Q 160 723 160 1389 
Q 160 2074 525 2509 
Q 890 2944 1485 2944 
Q 2061 2944 2374 2502 
Q 2560 2246 2592 1773 
L 621 1773 
Q 646 1370 700 1158 
Q 755 947 915 730 
Q 1184 378 1626 378 
Q 1939 378 2153 531 
Q 2368 685 2611 1050 
z
M 634 1978 
L 1939 1978 
Q 1882 2381 1750 2547 
Q 1619 2714 1312 2714 
Q 1043 2714 864 2525 
Q 685 2336 634 1978 
z
" transform="scale(0.015625)"/>
       <path id="STIXGeneral-Regular-78" d="M 3066 0 
L 1779 0 
L 1779 96 
Q 1939 109 1987 137 
Q 2035 166 2035 250 
Q 2035 307 1997 365 
L 1414 1261 
L 909 474 
Q 781 275 781 211 
Q 781 96 1037 96 
L 1037 0 
L 109 0 
L 109 96 
Q 269 109 355 169 
Q 442 230 576 422 
L 1306 1478 
L 704 2400 
Q 557 2624 454 2704 
Q 352 2784 211 2784 
L 154 2784 
L 154 2880 
L 1478 2880 
L 1478 2784 
Q 1203 2778 1203 2643 
Q 1203 2509 1498 2074 
Q 1581 1958 1587 1946 
Q 1619 1990 1779 2227 
Q 1811 2285 1856 2349 
Q 1901 2413 1923 2451 
Q 1946 2490 1971 2528 
Q 1997 2566 2006 2595 
Q 2016 2624 2016 2643 
Q 2016 2765 1760 2784 
L 1760 2880 
L 2771 2880 
L 2771 2784 
Q 2445 2771 2253 2502 
L 1722 1734 
L 2541 480 
Q 2790 96 3066 96 
L 3066 0 
z
" transform="scale(0.015625)"/>
       <path id="STIXGeneral-Regular-20" transform="scale(0.015625)"/>
       <path id="Cmmi10-69" d="M 500 459 
Q 500 578 550 709 
L 1069 2088 
Q 1153 2322 1153 2472 
Q 1153 2663 1013 2663 
Q 759 2663 595 2402 
Q 431 2141 353 1819 
Q 341 1778 300 1778 
L 225 1778 
Q 172 1778 172 1838 
L 172 1856 
Q 275 2238 487 2533 
Q 700 2828 1025 2828 
Q 1253 2828 1411 2678 
Q 1569 2528 1569 2297 
Q 1569 2178 1516 2047 
L 997 672 
Q 909 459 909 288 
Q 909 97 1056 97 
Q 1306 97 1473 364 
Q 1641 631 1709 941 
Q 1722 978 1759 978 
L 1838 978 
Q 1863 978 1878 961 
Q 1894 944 1894 922 
Q 1894 916 1888 903 
Q 1800 541 1583 234 
Q 1366 -72 1044 -72 
Q 819 -72 659 83 
Q 500 238 500 459 
z
M 1222 3878 
Q 1222 4013 1334 4122 
Q 1447 4231 1581 4231 
Q 1691 4231 1761 4164 
Q 1831 4097 1831 3994 
Q 1831 3850 1717 3742 
Q 1603 3634 1466 3634 
Q 1363 3634 1292 3704 
Q 1222 3775 1222 3878 
z
" transform="scale(0.015625)"/>
      </defs>
      <use xlink:href="#STIXGeneral-Regular-69" transform="translate(0 0.703125)"/>
      <use xlink:href="#STIXGeneral-Regular-6e" transform="translate(27.799988 0.703125)"/>
      <use xlink:href="#STIXGeneral-Regular-64" transform="translate(77.799973 0.703125)"/>
      <use xlink:href="#STIXGeneral-Regular-65" transform="translate(127.799957 0.703125)"/>
      <use xlink:href="#STIXGeneral-Regular-78" transform="translate(172.199951 0.703125)"/>
      <use xlink:href="#STIXGeneral-Regular-20" transform="translate(222.199936 0.703125)"/>
      <use xlink:href="#Cmmi10-69" transform="translate(247.199921 0.703125)"/>
     </g>
    </g>
   </g>
   <g id="matplotlib.axis_2">
    <g id="ytick_1">
     <g id="line2d_7">
      <defs>
       <path id="m1ff1b1338f" d="M 0 0 
L -3 0 
" style="stroke: #1f2328; stroke-width: 0.8"/>
      </defs>
      <g>
       <use xlink:href="#m1ff1b1338f" x="44.7" y="275.883125" style="fill: #1f2328; stroke: #1f2328; stroke-width: 0.8"/>
      </g>
     </g>
     <g id="text_8">
      <!-- $\mathdefault{10^{-6}}$ -->
      <g style="fill: #1f2328" transform="translate(21.1 278.956484) scale(0.09 -0.09)">
       <defs>
        <path id="STIXGeneral-Regular-2212" d="M 3974 1408 
L 410 1408 
L 410 1830 
L 3974 1830 
L 3974 1408 
z
" transform="scale(0.015625)"/>
       </defs>
       <use xlink:href="#STIXGeneral-Regular-31" transform="translate(0 0.115625)"/>
       <use xlink:href="#STIXGeneral-Regular-30" transform="translate(49.999985 0.115625)"/>
       <use xlink:href="#STIXGeneral-Regular-2212" transform="translate(101.574969 36.115625) scale(0.7)"/>
       <use xlink:href="#STIXGeneral-Regular-36" transform="translate(149.524959 36.115625) scale(0.7)"/>
      </g>
     </g>
    </g>
    <g id="ytick_2">
     <g id="line2d_8">
      <g>
       <use xlink:href="#m1ff1b1338f" x="44.7" y="235.494887" style="fill: #1f2328; stroke: #1f2328; stroke-width: 0.8"/>
      </g>
     </g>
     <g id="text_9">
      <!-- $\mathdefault{10^{-5}}$ -->
      <g style="fill: #1f2328" transform="translate(21.1 238.568246) scale(0.09 -0.09)">
       <use xlink:href="#STIXGeneral-Regular-31" transform="translate(0 0.842187)"/>
       <use xlink:href="#STIXGeneral-Regular-30" transform="translate(49.999985 0.842187)"/>
       <use xlink:href="#STIXGeneral-Regular-2212" transform="translate(101.574969 36.842187) scale(0.7)"/>
       <use xlink:href="#STIXGeneral-Regular-35" transform="translate(149.524959 36.842187) scale(0.7)"/>
      </g>
     </g>
    </g>
    <g id="ytick_3">
     <g id="line2d_9">
      <g>
       <use xlink:href="#m1ff1b1338f" x="44.7" y="195.106649" style="fill: #1f2328; stroke: #1f2328; stroke-width: 0.8"/>
      </g>
     </g>
     <g id="text_10">
      <!-- $\mathdefault{10^{-4}}$ -->
      <g style="fill: #1f2328" transform="translate(21.1 198.180008) scale(0.09 -0.09)">
       <use xlink:href="#STIXGeneral-Regular-31" transform="translate(0 0.684375)"/>
       <use xlink:href="#STIXGeneral-Regular-30" transform="translate(49.999985 0.684375)"/>
       <use xlink:href="#STIXGeneral-Regular-2212" transform="translate(101.574969 36.684375) scale(0.7)"/>
       <use xlink:href="#STIXGeneral-Regular-34" transform="translate(149.524959 36.684375) scale(0.7)"/>
      </g>
     </g>
    </g>
    <g id="ytick_4">
     <g id="line2d_10">
      <g>
       <use xlink:href="#m1ff1b1338f" x="44.7" y="154.718411" style="fill: #1f2328; stroke: #1f2328; stroke-width: 0.8"/>
      </g>
     </g>
     <g id="text_11">
      <!-- $\mathdefault{10^{-3}}$ -->
      <g style="fill: #1f2328" transform="translate(21.1 157.79177) scale(0.09 -0.09)">
       <use xlink:href="#STIXGeneral-Regular-31" transform="translate(0 0.684375)"/>
       <use xlink:href="#STIXGeneral-Regular-30" transform="translate(49.999985 0.684375)"/>
       <use xlink:href="#STIXGeneral-Regular-2212" transform="translate(101.574969 36.684375) scale(0.7)"/>
       <use xlink:href="#STIXGeneral-Regular-33" transform="translate(149.524959 36.684375) scale(0.7)"/>
      </g>
     </g>
    </g>
    <g id="ytick_5">
     <g id="line2d_11">
      <g>
       <use xlink:href="#m1ff1b1338f" x="44.7" y="114.330172" style="fill: #1f2328; stroke: #1f2328; stroke-width: 0.8"/>
      </g>
     </g>
     <g id="text_12">
      <!-- $\mathdefault{10^{-2}}$ -->
      <g style="fill: #1f2328" transform="translate(21.1 117.403532) scale(0.09 -0.09)">
       <use xlink:href="#STIXGeneral-Regular-31" transform="translate(0 0.684375)"/>
       <use xlink:href="#STIXGeneral-Regular-30" transform="translate(49.999985 0.684375)"/>
       <use xlink:href="#STIXGeneral-Regular-2212" transform="translate(101.574969 36.684375) scale(0.7)"/>
       <use xlink:href="#STIXGeneral-Regular-32" transform="translate(149.524959 36.684375) scale(0.7)"/>
      </g>
     </g>
    </g>
    <g id="ytick_6">
     <g id="line2d_12">
      <g>
       <use xlink:href="#m1ff1b1338f" x="44.7" y="73.941934" style="fill: #1f2328; stroke: #1f2328; stroke-width: 0.8"/>
      </g>
     </g>
     <g id="text_13">
      <!-- $\mathdefault{10^{-1}}$ -->
      <g style="fill: #1f2328" transform="translate(21.1 77.015294) scale(0.09 -0.09)">
       <use xlink:href="#STIXGeneral-Regular-31" transform="translate(0 0.684375)"/>
       <use xlink:href="#STIXGeneral-Regular-30" transform="translate(49.999985 0.684375)"/>
       <use xlink:href="#STIXGeneral-Regular-2212" transform="translate(101.574969 36.684375) scale(0.7)"/>
       <use xlink:href="#STIXGeneral-Regular-31" transform="translate(149.524959 36.684375) scale(0.7)"/>
      </g>
     </g>
    </g>
    <g id="ytick_7">
     <g id="line2d_13">
      <g>
       <use xlink:href="#m1ff1b1338f" x="44.7" y="33.553696" style="fill: #1f2328; stroke: #1f2328; stroke-width: 0.8"/>
      </g>
     </g>
     <g id="text_14">
      <!-- $\mathdefault{10^{0}}$ -->
      <g style="fill: #1f2328" transform="translate(25.42 36.627056) scale(0.09 -0.09)">
       <use xlink:href="#STIXGeneral-Regular-31" transform="translate(0 0.684375)"/>
       <use xlink:href="#STIXGeneral-Regular-30" transform="translate(49.999985 0.684375)"/>
       <use xlink:href="#STIXGeneral-Regular-30" transform="translate(101.574969 36.684375) scale(0.7)"/>
      </g>
     </g>
    </g>
    <g id="ytick_8">
     <g id="line2d_14">
      <defs>
       <path id="m84a8637bac" d="M 0 0 
L -2 0 
" style="stroke: #000000; stroke-width: 0.6"/>
      </defs>
      <g>
       <use xlink:href="#m84a8637bac" x="44.7" y="263.725054" style="stroke: #000000; stroke-width: 0.6"/>
      </g>
     </g>
    </g>
    <g id="ytick_9">
     <g id="line2d_15">
      <g>
       <use xlink:href="#m84a8637bac" x="44.7" y="256.613038" style="stroke: #000000; stroke-width: 0.6"/>
      </g>
     </g>
    </g>
    <g id="ytick_10">
     <g id="line2d_16">
      <g>
       <use xlink:href="#m84a8637bac" x="44.7" y="251.566983" style="stroke: #000000; stroke-width: 0.6"/>
      </g>
     </g>
    </g>
    <g id="ytick_11">
     <g id="line2d_17">
      <g>
       <use xlink:href="#m84a8637bac" x="44.7" y="247.652958" style="stroke: #000000; stroke-width: 0.6"/>
      </g>
     </g>
    </g>
    <g id="ytick_12">
     <g id="line2d_18">
      <g>
       <use xlink:href="#m84a8637bac" x="44.7" y="244.454967" style="stroke: #000000; stroke-width: 0.6"/>
      </g>
     </g>
    </g>
    <g id="ytick_13">
     <g id="line2d_19">
      <g>
       <use xlink:href="#m84a8637bac" x="44.7" y="241.751104" style="stroke: #000000; stroke-width: 0.6"/>
      </g>
     </g>
    </g>
    <g id="ytick_14">
     <g id="line2d_20">
      <g>
       <use xlink:href="#m84a8637bac" x="44.7" y="239.408912" style="stroke: #000000; stroke-width: 0.6"/>
      </g>
     </g>
    </g>
    <g id="ytick_15">
     <g id="line2d_21">
      <g>
       <use xlink:href="#m84a8637bac" x="44.7" y="237.342951" style="stroke: #000000; stroke-width: 0.6"/>
      </g>
     </g>
    </g>
    <g id="ytick_16">
     <g id="line2d_22">
      <g>
       <use xlink:href="#m84a8637bac" x="44.7" y="223.336816" style="stroke: #000000; stroke-width: 0.6"/>
      </g>
     </g>
    </g>
    <g id="ytick_17">
     <g id="line2d_23">
      <g>
       <use xlink:href="#m84a8637bac" x="44.7" y="216.2248" style="stroke: #000000; stroke-width: 0.6"/>
      </g>
     </g>
    </g>
    <g id="ytick_18">
     <g id="line2d_24">
      <g>
       <use xlink:href="#m84a8637bac" x="44.7" y="211.178745" style="stroke: #000000; stroke-width: 0.6"/>
      </g>
     </g>
    </g>
    <g id="ytick_19">
     <g id="line2d_25">
      <g>
       <use xlink:href="#m84a8637bac" x="44.7" y="207.26472" style="stroke: #000000; stroke-width: 0.6"/>
      </g>
     </g>
    </g>
    <g id="ytick_20">
     <g id="line2d_26">
      <g>
       <use xlink:href="#m84a8637bac" x="44.7" y="204.066729" style="stroke: #000000; stroke-width: 0.6"/>
      </g>
     </g>
    </g>
    <g id="ytick_21">
     <g id="line2d_27">
      <g>
       <use xlink:href="#m84a8637bac" x="44.7" y="201.362866" style="stroke: #000000; stroke-width: 0.6"/>
      </g>
     </g>
    </g>
    <g id="ytick_22">
     <g id="line2d_28">
      <g>
       <use xlink:href="#m84a8637bac" x="44.7" y="199.020673" style="stroke: #000000; stroke-width: 0.6"/>
      </g>
     </g>
    </g>
    <g id="ytick_23">
     <g id="line2d_29">
      <g>
       <use xlink:href="#m84a8637bac" x="44.7" y="196.954713" style="stroke: #000000; stroke-width: 0.6"/>
      </g>
     </g>
    </g>
    <g id="ytick_24">
     <g id="line2d_30">
      <g>
       <use xlink:href="#m84a8637bac" x="44.7" y="182.948578" style="stroke: #000000; stroke-width: 0.6"/>
      </g>
     </g>
    </g>
    <g id="ytick_25">
     <g id="line2d_31">
      <g>
       <use xlink:href="#m84a8637bac" x="44.7" y="175.836562" style="stroke: #000000; stroke-width: 0.6"/>
      </g>
     </g>
    </g>
    <g id="ytick_26">
     <g id="line2d_32">
      <g>
       <use xlink:href="#m84a8637bac" x="44.7" y="170.790506" style="stroke: #000000; stroke-width: 0.6"/>
      </g>
     </g>
    </g>
    <g id="ytick_27">
     <g id="line2d_33">
      <g>
       <use xlink:href="#m84a8637bac" x="44.7" y="166.876482" style="stroke: #000000; stroke-width: 0.6"/>
      </g>
     </g>
    </g>
    <g id="ytick_28">
     <g id="line2d_34">
      <g>
       <use xlink:href="#m84a8637bac" x="44.7" y="163.678491" style="stroke: #000000; stroke-width: 0.6"/>
      </g>
     </g>
    </g>
    <g id="ytick_29">
     <g id="line2d_35">
      <g>
       <use xlink:href="#m84a8637bac" x="44.7" y="160.974628" style="stroke: #000000; stroke-width: 0.6"/>
      </g>
     </g>
    </g>
    <g id="ytick_30">
     <g id="line2d_36">
      <g>
       <use xlink:href="#m84a8637bac" x="44.7" y="158.632435" style="stroke: #000000; stroke-width: 0.6"/>
      </g>
     </g>
    </g>
    <g id="ytick_31">
     <g id="line2d_37">
      <g>
       <use xlink:href="#m84a8637bac" x="44.7" y="156.566475" style="stroke: #000000; stroke-width: 0.6"/>
      </g>
     </g>
    </g>
    <g id="ytick_32">
     <g id="line2d_38">
      <g>
       <use xlink:href="#m84a8637bac" x="44.7" y="142.560339" style="stroke: #000000; stroke-width: 0.6"/>
      </g>
     </g>
    </g>
    <g id="ytick_33">
     <g id="line2d_39">
      <g>
       <use xlink:href="#m84a8637bac" x="44.7" y="135.448324" style="stroke: #000000; stroke-width: 0.6"/>
      </g>
     </g>
    </g>
    <g id="ytick_34">
     <g id="line2d_40">
      <g>
       <use xlink:href="#m84a8637bac" x="44.7" y="130.402268" style="stroke: #000000; stroke-width: 0.6"/>
      </g>
     </g>
    </g>
    <g id="ytick_35">
     <g id="line2d_41">
      <g>
       <use xlink:href="#m84a8637bac" x="44.7" y="126.488244" style="stroke: #000000; stroke-width: 0.6"/>
      </g>
     </g>
    </g>
    <g id="ytick_36">
     <g id="line2d_42">
      <g>
       <use xlink:href="#m84a8637bac" x="44.7" y="123.290253" style="stroke: #000000; stroke-width: 0.6"/>
      </g>
     </g>
    </g>
    <g id="ytick_37">
     <g id="line2d_43">
      <g>
       <use xlink:href="#m84a8637bac" x="44.7" y="120.58639" style="stroke: #000000; stroke-width: 0.6"/>
      </g>
     </g>
    </g>
    <g id="ytick_38">
     <g id="line2d_44">
      <g>
       <use xlink:href="#m84a8637bac" x="44.7" y="118.244197" style="stroke: #000000; stroke-width: 0.6"/>
      </g>
     </g>
    </g>
    <g id="ytick_39">
     <g id="line2d_45">
      <g>
       <use xlink:href="#m84a8637bac" x="44.7" y="116.178237" style="stroke: #000000; stroke-width: 0.6"/>
      </g>
     </g>
    </g>
    <g id="ytick_40">
     <g id="line2d_46">
      <g>
       <use xlink:href="#m84a8637bac" x="44.7" y="102.172101" style="stroke: #000000; stroke-width: 0.6"/>
      </g>
     </g>
    </g>
    <g id="ytick_41">
     <g id="line2d_47">
      <g>
       <use xlink:href="#m84a8637bac" x="44.7" y="95.060086" style="stroke: #000000; stroke-width: 0.6"/>
      </g>
     </g>
    </g>
    <g id="ytick_42">
     <g id="line2d_48">
      <g>
       <use xlink:href="#m84a8637bac" x="44.7" y="90.01403" style="stroke: #000000; stroke-width: 0.6"/>
      </g>
     </g>
    </g>
    <g id="ytick_43">
     <g id="line2d_49">
      <g>
       <use xlink:href="#m84a8637bac" x="44.7" y="86.100005" style="stroke: #000000; stroke-width: 0.6"/>
      </g>
     </g>
    </g>
    <g id="ytick_44">
     <g id="line2d_50">
      <g>
       <use xlink:href="#m84a8637bac" x="44.7" y="82.902014" style="stroke: #000000; stroke-width: 0.6"/>
      </g>
     </g>
    </g>
    <g id="ytick_45">
     <g id="line2d_51">
      <g>
       <use xlink:href="#m84a8637bac" x="44.7" y="80.198152" style="stroke: #000000; stroke-width: 0.6"/>
      </g>
     </g>
    </g>
    <g id="ytick_46">
     <g id="line2d_52">
      <g>
       <use xlink:href="#m84a8637bac" x="44.7" y="77.855959" style="stroke: #000000; stroke-width: 0.6"/>
      </g>
     </g>
    </g>
    <g id="ytick_47">
     <g id="line2d_53">
      <g>
       <use xlink:href="#m84a8637bac" x="44.7" y="75.789999" style="stroke: #000000; stroke-width: 0.6"/>
      </g>
     </g>
    </g>
    <g id="ytick_48">
     <g id="line2d_54">
      <g>
       <use xlink:href="#m84a8637bac" x="44.7" y="61.783863" style="stroke: #000000; stroke-width: 0.6"/>
      </g>
     </g>
    </g>
    <g id="ytick_49">
     <g id="line2d_55">
      <g>
       <use xlink:href="#m84a8637bac" x="44.7" y="54.671847" style="stroke: #000000; stroke-width: 0.6"/>
      </g>
     </g>
    </g>
    <g id="ytick_50">
     <g id="line2d_56">
      <g>
       <use xlink:href="#m84a8637bac" x="44.7" y="49.625792" style="stroke: #000000; stroke-width: 0.6"/>
      </g>
     </g>
    </g>
    <g id="ytick_51">
     <g id="line2d_57">
      <g>
       <use xlink:href="#m84a8637bac" x="44.7" y="45.711767" style="stroke: #000000; stroke-width: 0.6"/>
      </g>
     </g>
    </g>
    <g id="ytick_52">
     <g id="line2d_58">
      <g>
       <use xlink:href="#m84a8637bac" x="44.7" y="42.513776" style="stroke: #000000; stroke-width: 0.6"/>
      </g>
     </g>
    </g>
    <g id="ytick_53">
     <g id="line2d_59">
      <g>
       <use xlink:href="#m84a8637bac" x="44.7" y="39.809913" style="stroke: #000000; stroke-width: 0.6"/>
      </g>
     </g>
    </g>
    <g id="ytick_54">
     <g id="line2d_60">
      <g>
       <use xlink:href="#m84a8637bac" x="44.7" y="37.467721" style="stroke: #000000; stroke-width: 0.6"/>
      </g>
     </g>
    </g>
    <g id="ytick_55">
     <g id="line2d_61">
      <g>
       <use xlink:href="#m84a8637bac" x="44.7" y="35.401761" style="stroke: #000000; stroke-width: 0.6"/>
      </g>
     </g>
    </g>
    <g id="ytick_56">
     <g id="line2d_62">
      <g>
       <use xlink:href="#m84a8637bac" x="44.7" y="21.395625" style="stroke: #000000; stroke-width: 0.6"/>
      </g>
     </g>
    </g>
    <g id="text_15">
     <!-- $\sigma_i$ -->
     <g transform="translate(14.712656 153.479375) rotate(-90) scale(0.11 -0.11)">
      <defs>
       <path id="Cmmi10-be" d="M 1197 -72 
Q 913 -72 692 64 
Q 472 200 351 431 
Q 231 663 231 941 
Q 231 1238 365 1566 
Q 500 1894 733 2166 
Q 966 2438 1259 2598 
Q 1553 2759 1863 2759 
L 3475 2759 
Q 3541 2759 3587 2715 
Q 3634 2672 3634 2597 
Q 3634 2503 3567 2433 
Q 3500 2363 3406 2363 
L 2625 2363 
Q 2809 2088 2809 1697 
Q 2809 1375 2684 1062 
Q 2559 750 2337 492 
Q 2116 234 1820 81 
Q 1525 -72 1197 -72 
z
M 1203 97 
Q 1553 97 1823 370 
Q 2094 644 2237 1039 
Q 2381 1434 2381 1772 
Q 2381 2047 2229 2205 
Q 2078 2363 1806 2363 
Q 1434 2363 1173 2113 
Q 913 1863 783 1484 
Q 653 1106 653 756 
Q 653 481 798 289 
Q 944 97 1203 97 
z
" transform="scale(0.015625)"/>
      </defs>
      <use xlink:href="#Cmmi10-be" transform="translate(0 0.890625)"/>
      <use xlink:href="#Cmmi10-69" transform="translate(57.080078 -16.115625) scale(0.7)"/>
     </g>
    </g>
   </g>
   <g id="line2d_63">
    <path d="M 88.201132 275.883125 
L 88.201132 21.395625 
" clip-path="url(#p4b72c6b5af)" style="fill: none; stroke-dasharray: 3.33,1.44; stroke-dashoffset: 0; stroke: #1f2328; stroke-width: 0.9"/>
   </g>
   <g id="patch_3">
    <path d="M 44.7 275.883125 
L 44.7 21.395625 
" style="fill: none; stroke: #1f2328; stroke-width: 0.8; stroke-linejoin: miter; stroke-linecap: square"/>
   </g>
   <g id="patch_4">
    <path d="M 44.7 275.883125 
L 329.874089 275.883125 
" style="fill: none; stroke: #1f2328; stroke-width: 0.8; stroke-linejoin: miter; stroke-linecap: square"/>
   </g>
   <g id="text_16">
    <!-- fast decay -->
    <g style="fill: #d55e00" transform="translate(112.368428 178.277812) scale(0.105 -0.105)">
     <defs>
      <path id="STIXGeneral-Regular-66" d="M 134 2880 
L 659 2880 
Q 666 3264 710 3478 
Q 755 3693 883 3910 
Q 1152 4371 1786 4371 
Q 2074 4371 2262 4259 
Q 2451 4147 2451 3974 
Q 2451 3866 2374 3789 
Q 2298 3712 2182 3712 
Q 2029 3712 1894 3942 
Q 1741 4192 1555 4192 
Q 1197 4192 1197 3622 
L 1197 2880 
L 1978 2880 
L 1978 2675 
L 1197 2675 
L 1197 666 
Q 1197 307 1299 208 
Q 1402 109 1792 96 
L 1792 0 
L 128 0 
L 128 96 
Q 474 115 566 214 
Q 659 314 659 666 
L 659 2675 
L 134 2675 
L 134 2880 
z
" transform="scale(0.015625)"/>
      <path id="STIXGeneral-Regular-61" d="M 2829 422 
L 2829 243 
Q 2586 -64 2253 -64 
Q 1888 -64 1843 403 
L 1837 403 
Q 1427 -64 909 -64 
Q 608 -64 422 112 
Q 237 288 237 602 
Q 237 1050 685 1350 
Q 992 1555 1837 1869 
L 1837 2214 
Q 1837 2502 1699 2646 
Q 1562 2790 1338 2790 
Q 1146 2790 1018 2697 
Q 890 2605 890 2477 
Q 890 2419 909 2348 
Q 928 2278 928 2208 
Q 928 2112 841 2029 
Q 755 1946 634 1946 
Q 525 1946 441 2029 
Q 358 2112 358 2240 
Q 358 2547 685 2752 
Q 986 2944 1421 2944 
Q 1939 2944 2176 2656 
Q 2291 2522 2323 2384 
Q 2355 2246 2355 1946 
L 2355 723 
Q 2355 301 2554 301 
Q 2682 301 2829 422 
z
M 1837 813 
L 1837 1715 
Q 1248 1510 1018 1293 
Q 800 1094 800 800 
Q 800 557 921 432 
Q 1043 307 1242 307 
Q 1453 307 1613 410 
Q 1747 506 1792 589 
Q 1837 672 1837 813 
z
" transform="scale(0.015625)"/>
      <path id="STIXGeneral-Regular-73" d="M 998 1926 
L 1664 1523 
Q 1984 1331 2105 1164 
Q 2227 998 2227 736 
Q 2227 416 1961 176 
Q 1696 -64 1331 -64 
Q 1030 -64 864 -6 
Q 691 51 570 51 
Q 461 51 416 -26 
L 333 -26 
L 333 979 
L 435 979 
Q 538 512 730 294 
Q 922 77 1248 77 
Q 1485 77 1632 211 
Q 1779 346 1779 550 
Q 1779 845 1440 1030 
L 1094 1222 
Q 326 1651 326 2150 
Q 326 2522 566 2730 
Q 806 2938 1210 2938 
Q 1491 2938 1638 2867 
Q 1754 2816 1818 2816 
Q 1862 2816 1920 2880 
L 1990 2880 
L 2022 2010 
L 1926 2010 
Q 1818 2445 1654 2621 
Q 1491 2797 1203 2797 
Q 986 2797 854 2688 
Q 723 2579 723 2362 
Q 723 2253 796 2128 
Q 870 2003 998 1926 
z
" transform="scale(0.015625)"/>
      <path id="STIXGeneral-Regular-74" d="M 1702 493 
L 1786 422 
Q 1478 -64 1011 -64 
Q 448 -64 448 749 
L 448 2675 
L 109 2675 
Q 83 2694 83 2720 
Q 83 2771 192 2842 
Q 435 2982 813 3526 
Q 826 3546 874 3606 
Q 922 3667 941 3706 
Q 986 3706 986 3622 
L 986 2880 
L 1632 2880 
L 1632 2675 
L 986 2675 
L 986 845 
Q 986 538 1062 403 
Q 1139 269 1318 269 
Q 1510 269 1702 493 
z
" transform="scale(0.015625)"/>
      <path id="STIXGeneral-Regular-63" d="M 2547 998 
L 2637 941 
Q 2362 403 2112 205 
Q 1786 -64 1376 -64 
Q 845 -64 502 336 
Q 160 736 160 1357 
Q 160 2170 698 2618 
Q 1094 2944 1562 2944 
Q 1965 2944 2256 2749 
Q 2547 2554 2547 2285 
Q 2547 2176 2457 2096 
Q 2368 2016 2246 2016 
Q 2022 2016 1939 2310 
L 1901 2451 
Q 1850 2630 1773 2694 
Q 1696 2758 1523 2758 
Q 1133 2758 893 2451 
Q 653 2144 653 1645 
Q 653 1094 928 745 
Q 1203 397 1645 397 
Q 1920 397 2118 528 
Q 2317 659 2547 998 
z
" transform="scale(0.015625)"/>
      <path id="STIXGeneral-Regular-79" d="M 3040 2880 
L 3040 2784 
Q 2925 2771 2854 2700 
Q 2784 2630 2720 2458 
L 1760 -160 
Q 1510 -838 1257 -1116 
Q 1005 -1395 640 -1395 
Q 435 -1395 313 -1289 
Q 192 -1184 192 -1024 
Q 192 -902 272 -816 
Q 352 -730 467 -730 
Q 653 -730 800 -813 
Q 883 -858 966 -858 
Q 1101 -858 1286 -576 
Q 1376 -448 1459 -211 
Q 1542 26 1542 115 
Q 1542 198 1274 762 
L 429 2566 
Q 346 2752 90 2790 
L 90 2880 
L 1402 2880 
L 1402 2784 
Q 1197 2778 1117 2739 
Q 1037 2701 1037 2611 
Q 1037 2541 1120 2349 
L 1837 749 
L 2458 2515 
Q 2483 2573 2483 2630 
Q 2483 2784 2189 2784 
L 2189 2880 
L 3040 2880 
z
" transform="scale(0.015625)"/>
     </defs>
     <use xlink:href="#STIXGeneral-Regular-66"/>
     <use xlink:href="#STIXGeneral-Regular-61" x="33.299988"/>
     <use xlink:href="#STIXGeneral-Regular-73" x="77.699982"/>
     <use xlink:href="#STIXGeneral-Regular-74" x="116.599976"/>
     <use xlink:href="#STIXGeneral-Regular-20" x="144.399963"/>
     <use xlink:href="#STIXGeneral-Regular-64" x="169.399948"/>
     <use xlink:href="#STIXGeneral-Regular-65" x="219.399933"/>
     <use xlink:href="#STIXGeneral-Regular-63" x="263.799927"/>
     <use xlink:href="#STIXGeneral-Regular-61" x="308.199921"/>
     <use xlink:href="#STIXGeneral-Regular-79" x="352.599915"/>
    </g>
   </g>
   <g id="text_17">
    <!-- slow decay -->
    <g style="fill: #0072b2" transform="translate(184.870315 85.343264) scale(0.105 -0.105)">
     <defs>
      <path id="STIXGeneral-Regular-6c" d="M 1645 0 
L 134 0 
L 134 96 
Q 435 122 531 221 
Q 627 320 627 589 
L 627 3590 
Q 627 3821 569 3910 
Q 512 4000 358 4000 
Q 224 4000 122 3987 
L 122 4090 
Q 730 4237 1133 4371 
L 1165 4346 
L 1165 557 
Q 1165 288 1254 201 
Q 1344 115 1645 96 
L 1645 0 
z
" transform="scale(0.015625)"/>
      <path id="STIXGeneral-Regular-6f" d="M 3008 1478 
Q 3008 806 2608 371 
Q 2208 -64 1568 -64 
Q 979 -64 582 368 
Q 186 800 186 1459 
Q 186 2125 582 2534 
Q 979 2944 1626 2944 
Q 2221 2944 2614 2537 
Q 3008 2131 3008 1478 
z
M 2432 1306 
Q 2432 2035 2112 2445 
Q 1856 2765 1504 2765 
Q 1171 2765 966 2493 
Q 762 2221 762 1747 
Q 762 928 1101 435 
Q 1318 115 1677 115 
Q 2029 115 2230 432 
Q 2432 749 2432 1306 
z
" transform="scale(0.015625)"/>
      <path id="STIXGeneral-Regular-77" d="M 4442 2880 
L 4442 2784 
Q 4346 2752 4301 2691 
Q 4256 2630 4179 2438 
L 3296 224 
Q 3168 -90 3117 -90 
Q 3085 -90 3062 -48 
Q 3040 -6 2963 186 
L 2381 1696 
L 1664 160 
Q 1549 -90 1504 -90 
Q 1446 -90 1338 192 
L 474 2381 
Q 378 2630 314 2700 
Q 250 2771 134 2784 
L 134 2880 
L 1286 2880 
L 1286 2784 
Q 1120 2765 1056 2720 
Q 992 2675 992 2573 
Q 992 2477 1030 2381 
L 1664 710 
L 2246 1984 
L 2118 2342 
Q 2029 2598 1942 2681 
Q 1856 2765 1677 2784 
L 1677 2880 
L 2976 2880 
L 2976 2784 
Q 2752 2752 2678 2707 
Q 2605 2662 2605 2560 
Q 2605 2458 2714 2176 
L 3251 742 
L 3827 2163 
Q 3936 2432 3936 2592 
Q 3936 2669 3875 2710 
Q 3814 2752 3654 2784 
L 3654 2880 
L 4442 2880 
z
" transform="scale(0.015625)"/>
     </defs>
     <use xlink:href="#STIXGeneral-Regular-73"/>
     <use xlink:href="#STIXGeneral-Regular-6c" x="38.899994"/>
     <use xlink:href="#STIXGeneral-Regular-6f" x="66.699982"/>
     <use xlink:href="#STIXGeneral-Regular-77" x="116.699966"/>
     <use xlink:href="#STIXGeneral-Regular-20" x="188.899948"/>
     <use xlink:href="#STIXGeneral-Regular-64" x="213.899933"/>
     <use xlink:href="#STIXGeneral-Regular-65" x="263.899918"/>
     <use xlink:href="#STIXGeneral-Regular-63" x="308.299911"/>
     <use xlink:href="#STIXGeneral-Regular-61" x="352.699905"/>
     <use xlink:href="#STIXGeneral-Regular-79" x="397.099899"/>
    </g>
   </g>
   <g id="text_18">
    <!-- $k=10$ -->
    <g style="fill: #1f2328" transform="translate(93.034591 34.095122) scale(0.095 -0.095)">
     <defs>
      <path id="Cmmi10-6b" d="M 341 116 
Q 341 153 347 172 
L 1275 3872 
Q 1300 3981 1306 4044 
Q 1306 4147 891 4147 
Q 825 4147 825 4231 
Q 828 4247 839 4287 
Q 850 4328 867 4350 
Q 884 4372 916 4372 
L 1778 4441 
L 1797 4441 
Q 1797 4434 1819 4423 
Q 1841 4413 1844 4409 
Q 1856 4378 1856 4359 
L 1184 1684 
Q 1416 1781 1767 2145 
Q 2119 2509 2317 2668 
Q 2516 2828 2816 2828 
Q 2994 2828 3119 2706 
Q 3244 2584 3244 2406 
Q 3244 2294 3197 2198 
Q 3150 2103 3065 2043 
Q 2981 1984 2869 1984 
Q 2766 1984 2695 2048 
Q 2625 2113 2625 2216 
Q 2625 2369 2733 2473 
Q 2841 2578 2994 2578 
Q 2931 2663 2803 2663 
Q 2613 2663 2436 2553 
Q 2259 2444 2054 2239 
Q 1850 2034 1681 1864 
Q 1513 1694 1369 1606 
Q 1747 1563 2025 1408 
Q 2303 1253 2303 934 
Q 2303 869 2278 769 
Q 2222 528 2222 384 
Q 2222 97 2419 97 
Q 2650 97 2770 350 
Q 2891 603 2969 941 
Q 2981 978 3022 978 
L 3097 978 
Q 3122 978 3139 962 
Q 3156 947 3156 922 
Q 3156 916 3150 903 
Q 2909 -72 2406 -72 
Q 2225 -72 2086 12 
Q 1947 97 1872 242 
Q 1797 388 1797 569 
Q 1797 672 1825 781 
Q 1844 856 1844 922 
Q 1844 1169 1625 1297 
Q 1406 1425 1125 1453 
L 800 147 
Q 775 50 703 -11 
Q 631 -72 538 -72 
Q 456 -72 398 -17 
Q 341 38 341 116 
z
" transform="scale(0.015625)"/>
      <path id="Cmr10-3d" d="M 481 850 
Q 428 850 393 890 
Q 359 931 359 978 
Q 359 1031 393 1068 
Q 428 1106 481 1106 
L 4500 1106 
Q 4547 1106 4581 1068 
Q 4616 1031 4616 978 
Q 4616 931 4581 890 
Q 4547 850 4500 850 
L 481 850 
z
M 481 2094 
Q 428 2094 393 2131 
Q 359 2169 359 2222 
Q 359 2269 393 2309 
Q 428 2350 481 2350 
L 4500 2350 
Q 4547 2350 4581 2309 
Q 4616 2269 4616 2222 
Q 4616 2169 4581 2131 
Q 4547 2094 4500 2094 
L 481 2094 
z
" transform="scale(0.015625)"/>
      <path id="Cmr10-31" d="M 594 0 
L 594 225 
Q 1394 225 1394 428 
L 1394 3788 
Q 1063 3628 556 3628 
L 556 3853 
Q 1341 3853 1741 4263 
L 1831 4263 
Q 1853 4263 1873 4245 
Q 1894 4228 1894 4206 
L 1894 428 
Q 1894 225 2694 225 
L 2694 0 
L 594 0 
z
" transform="scale(0.015625)"/>
      <path id="Cmr10-30" d="M 1600 -141 
Q 816 -141 533 504 
Q 250 1150 250 2041 
Q 250 2597 351 3087 
Q 453 3578 754 3920 
Q 1056 4263 1600 4263 
Q 2022 4263 2290 4056 
Q 2559 3850 2700 3523 
Q 2841 3197 2892 2823 
Q 2944 2450 2944 2041 
Q 2944 1491 2842 1011 
Q 2741 531 2444 195 
Q 2147 -141 1600 -141 
z
M 1600 25 
Q 1956 25 2131 390 
Q 2306 756 2347 1200 
Q 2388 1644 2388 2144 
Q 2388 2625 2347 3031 
Q 2306 3438 2132 3767 
Q 1959 4097 1600 4097 
Q 1238 4097 1063 3765 
Q 888 3434 847 3029 
Q 806 2625 806 2144 
Q 806 1788 823 1472 
Q 841 1156 916 820 
Q 991 484 1158 254 
Q 1325 25 1600 25 
z
" transform="scale(0.015625)"/>
     </defs>
     <use xlink:href="#Cmmi10-6b" transform="translate(0 0.609375)"/>
     <use xlink:href="#Cmr10-3d" transform="translate(69.560547 0.609375)"/>
     <use xlink:href="#Cmr10-31" transform="translate(164.804688 0.609375)"/>
     <use xlink:href="#Cmr10-30" transform="translate(214.804688 0.609375)"/>
    </g>
   </g>
   <g id="text_19">
    <!-- Singular-value spectra -->
    <g transform="translate(133.466107 15.395625) scale(0.12 -0.12)">
     <defs>
      <path id="STIXGeneral-Regular-53" d="M 3002 2963 
L 2842 2963 
Q 2733 3360 2579 3565 
Q 2189 4064 1651 4064 
Q 1357 4064 1181 3894 
Q 1005 3725 1005 3456 
Q 1005 3328 1069 3206 
Q 1133 3085 1206 2998 
Q 1280 2912 1465 2784 
Q 1651 2656 1766 2589 
Q 1882 2522 2150 2362 
Q 2669 2061 2905 1763 
Q 3142 1466 3142 1107 
Q 3142 576 2771 243 
Q 2400 -90 1837 -90 
Q 1421 -90 1082 58 
Q 915 128 781 128 
Q 704 128 653 70 
Q 602 13 602 -83 
L 461 -83 
L 275 1274 
L 416 1274 
Q 845 141 1734 141 
Q 2074 141 2285 342 
Q 2496 544 2496 858 
Q 2496 1158 2310 1363 
Q 2003 1696 1235 2106 
Q 454 2522 454 3206 
Q 454 3718 768 4022 
Q 1082 4326 1568 4326 
Q 1907 4326 2240 4186 
Q 2413 4109 2522 4109 
Q 2688 4109 2726 4326 
L 2861 4326 
L 3002 2963 
z
" transform="scale(0.015625)"/>
      <path id="STIXGeneral-Regular-67" d="M 3008 2483 
L 2477 2483 
Q 2598 2208 2598 1946 
Q 2598 1453 2265 1203 
Q 1933 954 1600 954 
Q 1530 954 1357 973 
L 1235 986 
Q 1107 947 979 812 
Q 851 678 851 582 
Q 851 435 1350 410 
L 2176 371 
Q 2528 358 2739 172 
Q 2950 -13 2950 -314 
Q 2950 -685 2566 -986 
Q 2035 -1395 1286 -1395 
Q 826 -1395 502 -1212 
Q 179 -1030 179 -774 
Q 179 -595 320 -419 
Q 461 -243 806 6 
Q 602 102 534 172 
Q 467 243 467 346 
Q 467 531 762 787 
Q 909 915 1037 1043 
Q 717 1203 579 1401 
Q 442 1600 442 1901 
Q 442 2336 752 2640 
Q 1062 2944 1510 2944 
Q 1766 2944 2022 2848 
L 2163 2797 
Q 2349 2733 2515 2733 
L 3008 2733 
L 3008 2483 
z
M 973 2163 
L 973 2144 
Q 973 1683 1155 1398 
Q 1338 1114 1632 1114 
Q 1850 1114 1978 1270 
Q 2106 1427 2106 1690 
Q 2106 2112 1914 2464 
Q 1754 2765 1446 2765 
Q 1222 2765 1097 2605 
Q 973 2445 973 2163 
z
M 2771 -410 
Q 2771 -230 2595 -163 
Q 2419 -96 1978 -96 
Q 1344 -96 941 -13 
Q 749 -243 688 -348 
Q 627 -454 627 -563 
Q 627 -774 880 -902 
Q 1133 -1030 1555 -1030 
Q 2099 -1030 2435 -860 
Q 2771 -691 2771 -410 
z
" transform="scale(0.015625)"/>
      <path id="STIXGeneral-Regular-75" d="M 3072 320 
L 3072 230 
Q 2573 96 2195 -58 
L 2163 -38 
L 2163 486 
L 2150 486 
Q 1747 -64 1235 -64 
Q 870 -64 662 160 
Q 454 384 454 755 
L 454 2362 
Q 454 2598 371 2688 
Q 288 2778 58 2790 
L 58 2880 
L 992 2880 
L 992 813 
Q 992 595 1123 451 
Q 1254 307 1446 307 
Q 1760 307 1984 506 
Q 2067 582 2099 649 
Q 2131 717 2131 877 
L 2131 2355 
Q 2131 2605 2041 2678 
Q 1952 2752 1658 2771 
L 1658 2880 
L 2669 2880 
L 2669 685 
Q 2669 461 2742 390 
Q 2816 320 3034 320 
L 3072 320 
z
" transform="scale(0.015625)"/>
      <path id="STIXGeneral-Regular-72" d="M 1024 2931 
L 1024 2342 
Q 1267 2688 1430 2816 
Q 1594 2944 1792 2944 
Q 1958 2944 2051 2854 
Q 2144 2765 2144 2605 
Q 2144 2470 2077 2393 
Q 2010 2317 1894 2317 
Q 1773 2317 1638 2445 
Q 1536 2541 1472 2541 
Q 1338 2541 1181 2355 
Q 1024 2170 1024 2016 
L 1024 576 
Q 1024 301 1133 205 
Q 1242 109 1568 96 
L 1568 0 
L 32 0 
L 32 96 
Q 339 154 412 224 
Q 486 294 486 538 
L 486 2138 
Q 486 2349 438 2435 
Q 390 2522 269 2522 
Q 166 2522 45 2496 
L 45 2598 
Q 448 2726 992 2944 
L 1024 2931 
z
" transform="scale(0.015625)"/>
      <path id="STIXGeneral-Regular-2d" d="M 1824 1242 
L 250 1242 
L 250 1645 
L 1824 1645 
L 1824 1242 
z
" transform="scale(0.015625)"/>
      <path id="STIXGeneral-Regular-76" d="M 3053 2880 
L 3053 2784 
Q 2906 2771 2835 2688 
Q 2765 2605 2637 2285 
L 1818 230 
Q 1690 -90 1638 -90 
Q 1587 -90 1523 77 
Q 1510 96 1497 141 
Q 1485 186 1472 211 
L 704 2048 
Q 499 2534 403 2652 
Q 307 2771 122 2784 
L 122 2880 
L 1376 2880 
L 1376 2784 
Q 1210 2771 1146 2732 
Q 1082 2694 1082 2611 
Q 1082 2509 1139 2368 
L 1792 730 
L 2426 2387 
Q 2464 2483 2464 2579 
Q 2464 2758 2163 2784 
L 2163 2880 
L 3053 2880 
z
" transform="scale(0.015625)"/>
      <path id="STIXGeneral-Regular-70" d="M 1018 2931 
L 1018 2438 
Q 1421 2944 1939 2944 
Q 2406 2944 2707 2560 
Q 3008 2176 3008 1581 
Q 3008 883 2621 409 
Q 2234 -64 1664 -64 
Q 1466 -64 1328 -6 
Q 1190 51 1018 211 
L 1018 -794 
Q 1018 -1094 1120 -1180 
Q 1222 -1267 1581 -1274 
L 1581 -1389 
L 32 -1389 
L 32 -1280 
Q 314 -1254 397 -1171 
Q 480 -1088 480 -838 
L 480 2157 
Q 480 2381 429 2451 
Q 378 2522 218 2522 
Q 115 2522 58 2515 
L 58 2618 
Q 506 2752 979 2944 
L 1018 2931 
z
M 1018 2138 
L 1018 563 
Q 1018 422 1238 281 
Q 1459 141 1683 141 
Q 2029 141 2243 467 
Q 2458 794 2458 1325 
Q 2458 1888 2243 2224 
Q 2029 2560 1670 2560 
Q 1446 2560 1232 2419 
Q 1018 2278 1018 2138 
z
" transform="scale(0.015625)"/>
     </defs>
     <use xlink:href="#STIXGeneral-Regular-53"/>
     <use xlink:href="#STIXGeneral-Regular-69" x="55.599991"/>
     <use xlink:href="#STIXGeneral-Regular-6e" x="83.399979"/>
     <use xlink:href="#STIXGeneral-Regular-67" x="133.399963"/>
     <use xlink:href="#STIXGeneral-Regular-75" x="183.399948"/>
     <use xlink:href="#STIXGeneral-Regular-6c" x="233.399933"/>
     <use xlink:href="#STIXGeneral-Regular-61" x="261.199921"/>
     <use xlink:href="#STIXGeneral-Regular-72" x="305.599915"/>
     <use xlink:href="#STIXGeneral-Regular-2d" x="338.899902"/>
     <use xlink:href="#STIXGeneral-Regular-76" x="372.19989"/>
     <use xlink:href="#STIXGeneral-Regular-61" x="422.199875"/>
     <use xlink:href="#STIXGeneral-Regular-6c" x="466.599869"/>
     <use xlink:href="#STIXGeneral-Regular-75" x="494.399857"/>
     <use xlink:href="#STIXGeneral-Regular-65" x="544.399841"/>
     <use xlink:href="#STIXGeneral-Regular-20" x="588.799835"/>
     <use xlink:href="#STIXGeneral-Regular-73" x="613.79982"/>
     <use xlink:href="#STIXGeneral-Regular-70" x="652.699814"/>
     <use xlink:href="#STIXGeneral-Regular-65" x="702.699799"/>
     <use xlink:href="#STIXGeneral-Regular-63" x="747.099792"/>
     <use xlink:href="#STIXGeneral-Regular-74" x="791.499786"/>
     <use xlink:href="#STIXGeneral-Regular-72" x="819.299774"/>
     <use xlink:href="#STIXGeneral-Regular-61" x="852.599762"/>
    </g>
   </g>
   <g id="line2d_64">
    <path d="M 44.7 33.553696 
L 49.533459 42.513776 
L 54.366918 51.473856 
L 59.200377 60.433937 
L 64.033837 69.394017 
L 68.867296 78.354097 
L 73.700755 87.314177 
L 78.534214 96.274257 
L 83.367673 105.234337 
L 88.201132 114.194417 
L 93.034591 123.154497 
L 97.868051 132.114578 
L 102.70151 141.074658 
L 107.534969 150.034738 
L 112.368428 158.994818 
L 117.201887 167.954898 
L 122.035346 176.914978 
L 126.868805 185.875058 
L 131.702264 194.835139 
L 136.535724 203.795219 
L 141.369183 212.755299 
L 146.202642 221.715379 
L 151.036101 230.675459 
L 155.86956 239.635539 
L 160.703019 248.595619 
L 165.536478 257.555699 
L 170.369938 266.51578 
L 175.203397 275.47586 
L 180.036856 284.43594 
L 184.870315 293.39602 
L 189.703774 302.3561 
L 194.537233 311.31618 
L 196.64481 315.223125 
" clip-path="url(#p4b72c6b5af)" style="fill: none; stroke: #d55e00; stroke-width: 1.8; stroke-linecap: square"/>
   </g>
   <g id="line2d_65">
    <path d="M 44.7 33.553696 
L 49.533459 45.711767 
L 54.366918 52.823783 
L 59.200377 57.869838 
L 64.033837 61.783863 
L 68.867296 64.981854 
L 73.700755 67.685717 
L 78.534214 70.02791 
L 83.367673 72.09387 
L 88.201132 73.941934 
L 93.034591 75.613712 
L 97.868051 77.139925 
L 102.70151 78.543906 
L 107.534969 79.843788 
L 112.368428 81.05395 
L 117.201887 82.185981 
L 122.035346 83.24936 
L 126.868805 84.251941 
L 131.702264 85.200301 
L 136.535724 86.100005 
L 141.369183 86.955804 
L 146.202642 87.771783 
L 151.036101 88.551484 
L 155.86956 89.297996 
L 160.703019 90.01403 
L 165.536478 90.701977 
L 170.369938 91.363957 
L 175.203397 92.001859 
L 180.036856 92.617375 
L 184.870315 93.212021 
L 189.703774 93.787167 
L 194.537233 94.344052 
L 199.370692 94.883799 
L 204.204152 95.407431 
L 209.037611 95.915884 
L 213.87107 96.410012 
L 218.704529 96.890601 
L 223.537988 97.358372 
L 228.371447 97.813992 
L 233.204906 98.258077 
L 238.038365 98.691195 
L 242.871825 99.113875 
L 247.705284 99.526609 
L 252.538743 99.929854 
L 257.372202 100.324037 
L 262.205661 100.709555 
L 267.03912 101.086783 
L 271.872579 101.456068 
L 276.706039 101.817738 
L 281.539498 102.172101 
L 286.372957 102.519447 
L 291.206416 102.860048 
L 296.039875 103.194161 
L 300.873334 103.522028 
L 305.706793 103.843879 
L 310.540253 104.159931 
L 315.373712 104.470388 
L 320.207171 104.775446 
L 325.04063 105.075289 
L 329.874089 105.370092 
L 334.707548 105.660023 
L 339.541007 105.945239 
L 344.374466 106.225891 
L 349.207926 106.502123 
L 354.041385 106.774073 
L 358.874844 107.04187 
L 363.708303 107.30564 
L 368.541762 107.565503 
L 373.375221 107.821571 
L 378.20868 108.073955 
L 383.04214 108.322759 
L 387.875599 108.568083 
L 392.709058 108.810024 
L 397.542517 109.048672 
L 402.375976 109.284117 
L 407.209435 109.516443 
L 412.042894 109.745733 
L 416.876354 109.972064 
L 421.709813 110.195511 
L 426.543272 110.416148 
L 431.376731 110.634044 
L 436.21019 110.849266 
L 441.043649 111.061879 
L 445.877108 111.271946 
L 450.710567 111.479527 
L 455.544027 111.68468 
L 460.377486 111.887462 
L 465.210945 112.087925 
L 470.044404 112.286124 
L 474.877863 112.482108 
L 479.711322 112.675926 
L 484.544781 112.867627 
L 489.378241 113.057254 
L 494.2117 113.244854 
L 499.045159 113.430468 
L 503.878618 113.614139 
L 508.712077 113.795906 
L 513.545536 113.975809 
L 518.378995 114.153886 
L 523.212455 114.330172 
" clip-path="url(#p4b72c6b5af)" style="fill: none; stroke: #0072b2; stroke-width: 1.8; stroke-linecap: square"/>
   </g>
  </g>
  <g id="axes_2">
   <g id="patch_5">
    <path d="M 386.928586 275.883125 
L 672.102675 275.883125 
L 672.102675 21.395625 
L 386.928586 21.395625 
z
" style="fill: #ffffff"/>
   </g>
   <g id="matplotlib.axis_3">
    <g id="xtick_7">
     <g id="line2d_66">
      <g>
       <use xlink:href="#m2ebe7ad02a" x="386.928586" y="275.883125" style="fill: #1f2328; stroke: #1f2328; stroke-width: 0.8"/>
      </g>
     </g>
     <g id="text_20">
      <!-- 10 -->
      <g style="fill: #1f2328" transform="translate(382.428586 288.529844) scale(0.09 -0.09)">
       <use xlink:href="#STIXGeneral-Regular-31"/>
       <use xlink:href="#STIXGeneral-Regular-30" x="49.999985"/>
      </g>
     </g>
    </g>
    <g id="xtick_8">
     <g id="line2d_67">
      <g>
       <use xlink:href="#m2ebe7ad02a" x="422.575347" y="275.883125" style="fill: #1f2328; stroke: #1f2328; stroke-width: 0.8"/>
      </g>
     </g>
     <g id="text_21">
      <!-- 15 -->
      <g style="fill: #1f2328" transform="translate(418.075347 288.529844) scale(0.09 -0.09)">
       <use xlink:href="#STIXGeneral-Regular-31"/>
       <use xlink:href="#STIXGeneral-Regular-35" x="49.999985"/>
      </g>
     </g>
    </g>
    <g id="xtick_9">
     <g id="line2d_68">
      <g>
       <use xlink:href="#m2ebe7ad02a" x="458.222108" y="275.883125" style="fill: #1f2328; stroke: #1f2328; stroke-width: 0.8"/>
      </g>
     </g>
     <g id="text_22">
      <!-- 20 -->
      <g style="fill: #1f2328" transform="translate(453.722108 288.529844) scale(0.09 -0.09)">
       <use xlink:href="#STIXGeneral-Regular-32"/>
       <use xlink:href="#STIXGeneral-Regular-30" x="49.999985"/>
      </g>
     </g>
    </g>
    <g id="xtick_10">
     <g id="line2d_69">
      <g>
       <use xlink:href="#m2ebe7ad02a" x="493.868869" y="275.883125" style="fill: #1f2328; stroke: #1f2328; stroke-width: 0.8"/>
      </g>
     </g>
     <g id="text_23">
      <!-- 25 -->
      <g style="fill: #1f2328" transform="translate(489.368869 288.529844) scale(0.09 -0.09)">
       <use xlink:href="#STIXGeneral-Regular-32"/>
       <use xlink:href="#STIXGeneral-Regular-35" x="49.999985"/>
      </g>
     </g>
    </g>
    <g id="xtick_11">
     <g id="line2d_70">
      <g>
       <use xlink:href="#m2ebe7ad02a" x="529.51563" y="275.883125" style="fill: #1f2328; stroke: #1f2328; stroke-width: 0.8"/>
      </g>
     </g>
     <g id="text_24">
      <!-- 30 -->
      <g style="fill: #1f2328" transform="translate(525.01563 288.529844) scale(0.09 -0.09)">
       <use xlink:href="#STIXGeneral-Regular-33"/>
       <use xlink:href="#STIXGeneral-Regular-30" x="49.999985"/>
      </g>
     </g>
    </g>
    <g id="xtick_12">
     <g id="line2d_71">
      <g>
       <use xlink:href="#m2ebe7ad02a" x="565.162392" y="275.883125" style="fill: #1f2328; stroke: #1f2328; stroke-width: 0.8"/>
      </g>
     </g>
     <g id="text_25">
      <!-- 35 -->
      <g style="fill: #1f2328" transform="translate(560.662392 288.529844) scale(0.09 -0.09)">
       <use xlink:href="#STIXGeneral-Regular-33"/>
       <use xlink:href="#STIXGeneral-Regular-35" x="49.999985"/>
      </g>
     </g>
    </g>
    <g id="xtick_13">
     <g id="line2d_72">
      <g>
       <use xlink:href="#m2ebe7ad02a" x="600.809153" y="275.883125" style="fill: #1f2328; stroke: #1f2328; stroke-width: 0.8"/>
      </g>
     </g>
     <g id="text_26">
      <!-- 40 -->
      <g style="fill: #1f2328" transform="translate(596.309153 288.529844) scale(0.09 -0.09)">
       <use xlink:href="#STIXGeneral-Regular-34"/>
       <use xlink:href="#STIXGeneral-Regular-30" x="49.999985"/>
      </g>
     </g>
    </g>
    <g id="xtick_14">
     <g id="line2d_73">
      <g>
       <use xlink:href="#m2ebe7ad02a" x="636.455914" y="275.883125" style="fill: #1f2328; stroke: #1f2328; stroke-width: 0.8"/>
      </g>
     </g>
     <g id="text_27">
      <!-- 45 -->
      <g style="fill: #1f2328" transform="translate(631.955914 288.529844) scale(0.09 -0.09)">
       <use xlink:href="#STIXGeneral-Regular-34"/>
       <use xlink:href="#STIXGeneral-Regular-35" x="49.999985"/>
      </g>
     </g>
    </g>
    <g id="xtick_15">
     <g id="line2d_74">
      <g>
       <use xlink:href="#m2ebe7ad02a" x="672.102675" y="275.883125" style="fill: #1f2328; stroke: #1f2328; stroke-width: 0.8"/>
      </g>
     </g>
     <g id="text_28">
      <!-- 50 -->
      <g style="fill: #1f2328" transform="translate(667.602675 288.529844) scale(0.09 -0.09)">
       <use xlink:href="#STIXGeneral-Regular-35"/>
       <use xlink:href="#STIXGeneral-Regular-30" x="49.999985"/>
      </g>
     </g>
    </g>
    <g id="text_29">
     <!-- oversampling $\tilde k$ -->
     <g transform="translate(495.30563 304.603125) scale(0.11 -0.11)">
      <defs>
       <path id="STIXGeneral-Regular-6d" d="M 4960 0 
L 3565 0 
L 3565 96 
Q 3834 122 3907 208 
Q 3981 294 3981 576 
L 3981 1894 
Q 3981 2278 3869 2444 
Q 3757 2611 3488 2611 
Q 3264 2611 3107 2521 
Q 2950 2432 2803 2221 
L 2803 608 
Q 2803 301 2896 201 
Q 2989 102 3264 96 
L 3264 0 
L 1830 0 
L 1830 96 
Q 2112 115 2189 188 
Q 2266 262 2266 550 
L 2266 1901 
Q 2266 2611 1850 2611 
Q 1670 2611 1468 2531 
Q 1267 2451 1171 2336 
Q 1088 2240 1088 2227 
L 1088 448 
Q 1088 243 1177 176 
Q 1267 109 1523 96 
L 1523 0 
L 102 0 
L 102 96 
Q 371 102 460 195 
Q 550 288 550 563 
L 550 2150 
Q 550 2387 499 2480 
Q 448 2573 326 2573 
Q 230 2573 122 2547 
L 122 2656 
Q 557 2778 1011 2944 
L 1062 2925 
L 1062 2451 
L 1075 2451 
Q 1363 2752 1584 2848 
Q 1805 2944 2054 2944 
Q 2560 2944 2733 2406 
Q 3232 2944 3776 2944 
Q 4518 2944 4518 1792 
L 4518 493 
Q 4518 282 4582 202 
Q 4646 122 4794 109 
L 4960 96 
L 4960 0 
z
" transform="scale(0.015625)"/>
       <path id="Cmr10-7e" d="M 531 3769 
L 716 3988 
Q 966 4275 1216 4275 
Q 1338 4275 1483 4203 
Q 1628 4131 1773 4059 
Q 1919 3988 2041 3988 
Q 2297 3988 2534 4275 
L 2663 4166 
L 2478 3950 
Q 2225 3659 1978 3659 
Q 1856 3659 1711 3732 
Q 1566 3806 1420 3878 
Q 1275 3950 1153 3950 
Q 897 3950 659 3659 
L 531 3769 
z
" transform="scale(0.015625)"/>
      </defs>
      <use xlink:href="#STIXGeneral-Regular-6f" transform="translate(0 0.484375)"/>
      <use xlink:href="#STIXGeneral-Regular-76" transform="translate(49.999985 0.484375)"/>
      <use xlink:href="#STIXGeneral-Regular-65" transform="translate(99.999969 0.484375)"/>
      <use xlink:href="#STIXGeneral-Regular-72" transform="translate(144.399963 0.484375)"/>
      <use xlink:href="#STIXGeneral-Regular-73" transform="translate(177.699951 0.484375)"/>
      <use xlink:href="#STIXGeneral-Regular-61" transform="translate(216.599945 0.484375)"/>
      <use xlink:href="#STIXGeneral-Regular-6d" transform="translate(260.999939 0.484375)"/>
      <use xlink:href="#STIXGeneral-Regular-70" transform="translate(338.799927 0.484375)"/>
      <use xlink:href="#STIXGeneral-Regular-6c" transform="translate(388.799911 0.484375)"/>
      <use xlink:href="#STIXGeneral-Regular-69" transform="translate(416.599899 0.484375)"/>
      <use xlink:href="#STIXGeneral-Regular-6e" transform="translate(444.399887 0.484375)"/>
      <use xlink:href="#STIXGeneral-Regular-67" transform="translate(494.399872 0.484375)"/>
      <use xlink:href="#STIXGeneral-Regular-20" transform="translate(544.399857 0.484375)"/>
      <use xlink:href="#Cmr10-7e" transform="translate(572.44281 25.203125)"/>
      <use xlink:href="#Cmmi10-6b" transform="translate(569.399841 0.484375)"/>
     </g>
    </g>
   </g>
   <g id="matplotlib.axis_4">
    <g id="ytick_57">
     <g id="line2d_75">
      <g>
       <use xlink:href="#m1ff1b1338f" x="386.928586" y="275.883125" style="fill: #1f2328; stroke: #1f2328; stroke-width: 0.8"/>
      </g>
     </g>
     <g id="text_30">
      <!-- $\mathdefault{10^{-4}}$ -->
      <g style="fill: #1f2328" transform="translate(363.328586 278.956484) scale(0.09 -0.09)">
       <use xlink:href="#STIXGeneral-Regular-31" transform="translate(0 0.684375)"/>
       <use xlink:href="#STIXGeneral-Regular-30" transform="translate(49.999985 0.684375)"/>
       <use xlink:href="#STIXGeneral-Regular-2212" transform="translate(101.574969 36.684375) scale(0.7)"/>
       <use xlink:href="#STIXGeneral-Regular-34" transform="translate(149.524959 36.684375) scale(0.7)"/>
      </g>
     </g>
    </g>
    <g id="ytick_58">
     <g id="line2d_76">
      <g>
       <use xlink:href="#m1ff1b1338f" x="386.928586" y="214.023377" style="fill: #1f2328; stroke: #1f2328; stroke-width: 0.8"/>
      </g>
     </g>
     <g id="text_31">
      <!-- $\mathdefault{10^{-3}}$ -->
      <g style="fill: #1f2328" transform="translate(363.328586 217.096736) scale(0.09 -0.09)">
       <use xlink:href="#STIXGeneral-Regular-31" transform="translate(0 0.684375)"/>
       <use xlink:href="#STIXGeneral-Regular-30" transform="translate(49.999985 0.684375)"/>
       <use xlink:href="#STIXGeneral-Regular-2212" transform="translate(101.574969 36.684375) scale(0.7)"/>
       <use xlink:href="#STIXGeneral-Regular-33" transform="translate(149.524959 36.684375) scale(0.7)"/>
      </g>
     </g>
    </g>
    <g id="ytick_59">
     <g id="line2d_77">
      <g>
       <use xlink:href="#m1ff1b1338f" x="386.928586" y="152.163629" style="fill: #1f2328; stroke: #1f2328; stroke-width: 0.8"/>
      </g>
     </g>
     <g id="text_32">
      <!-- $\mathdefault{10^{-2}}$ -->
      <g style="fill: #1f2328" transform="translate(363.328586 155.236988) scale(0.09 -0.09)">
       <use xlink:href="#STIXGeneral-Regular-31" transform="translate(0 0.684375)"/>
       <use xlink:href="#STIXGeneral-Regular-30" transform="translate(49.999985 0.684375)"/>
       <use xlink:href="#STIXGeneral-Regular-2212" transform="translate(101.574969 36.684375) scale(0.7)"/>
       <use xlink:href="#STIXGeneral-Regular-32" transform="translate(149.524959 36.684375) scale(0.7)"/>
      </g>
     </g>
    </g>
    <g id="ytick_60">
     <g id="line2d_78">
      <g>
       <use xlink:href="#m1ff1b1338f" x="386.928586" y="90.30388" style="fill: #1f2328; stroke: #1f2328; stroke-width: 0.8"/>
      </g>
     </g>
     <g id="text_33">
      <!-- $\mathdefault{10^{-1}}$ -->
      <g style="fill: #1f2328" transform="translate(363.328586 93.37724) scale(0.09 -0.09)">
       <use xlink:href="#STIXGeneral-Regular-31" transform="translate(0 0.684375)"/>
       <use xlink:href="#STIXGeneral-Regular-30" transform="translate(49.999985 0.684375)"/>
       <use xlink:href="#STIXGeneral-Regular-2212" transform="translate(101.574969 36.684375) scale(0.7)"/>
       <use xlink:href="#STIXGeneral-Regular-31" transform="translate(149.524959 36.684375) scale(0.7)"/>
      </g>
     </g>
    </g>
    <g id="ytick_61">
     <g id="line2d_79">
      <g>
       <use xlink:href="#m1ff1b1338f" x="386.928586" y="28.444132" style="fill: #1f2328; stroke: #1f2328; stroke-width: 0.8"/>
      </g>
     </g>
     <g id="text_34">
      <!-- $\mathdefault{10^{0}}$ -->
      <g style="fill: #1f2328" transform="translate(367.648586 31.517491) scale(0.09 -0.09)">
       <use xlink:href="#STIXGeneral-Regular-31" transform="translate(0 0.684375)"/>
       <use xlink:href="#STIXGeneral-Regular-30" transform="translate(49.999985 0.684375)"/>
       <use xlink:href="#STIXGeneral-Regular-30" transform="translate(101.574969 36.684375) scale(0.7)"/>
      </g>
     </g>
    </g>
    <g id="ytick_62">
     <g id="line2d_80">
      <g>
       <use xlink:href="#m84a8637bac" x="386.928586" y="257.261485" style="stroke: #000000; stroke-width: 0.6"/>
      </g>
     </g>
    </g>
    <g id="ytick_63">
     <g id="line2d_81">
      <g>
       <use xlink:href="#m84a8637bac" x="386.928586" y="246.368524" style="stroke: #000000; stroke-width: 0.6"/>
      </g>
     </g>
    </g>
    <g id="ytick_64">
     <g id="line2d_82">
      <g>
       <use xlink:href="#m84a8637bac" x="386.928586" y="238.639846" style="stroke: #000000; stroke-width: 0.6"/>
      </g>
     </g>
    </g>
    <g id="ytick_65">
     <g id="line2d_83">
      <g>
       <use xlink:href="#m84a8637bac" x="386.928586" y="232.645017" style="stroke: #000000; stroke-width: 0.6"/>
      </g>
     </g>
    </g>
    <g id="ytick_66">
     <g id="line2d_84">
      <g>
       <use xlink:href="#m84a8637bac" x="386.928586" y="227.746885" style="stroke: #000000; stroke-width: 0.6"/>
      </g>
     </g>
    </g>
    <g id="ytick_67">
     <g id="line2d_85">
      <g>
       <use xlink:href="#m84a8637bac" x="386.928586" y="223.605573" style="stroke: #000000; stroke-width: 0.6"/>
      </g>
     </g>
    </g>
    <g id="ytick_68">
     <g id="line2d_86">
      <g>
       <use xlink:href="#m84a8637bac" x="386.928586" y="220.018206" style="stroke: #000000; stroke-width: 0.6"/>
      </g>
     </g>
    </g>
    <g id="ytick_69">
     <g id="line2d_87">
      <g>
       <use xlink:href="#m84a8637bac" x="386.928586" y="216.853924" style="stroke: #000000; stroke-width: 0.6"/>
      </g>
     </g>
    </g>
    <g id="ytick_70">
     <g id="line2d_88">
      <g>
       <use xlink:href="#m84a8637bac" x="386.928586" y="195.401737" style="stroke: #000000; stroke-width: 0.6"/>
      </g>
     </g>
    </g>
    <g id="ytick_71">
     <g id="line2d_89">
      <g>
       <use xlink:href="#m84a8637bac" x="386.928586" y="184.508776" style="stroke: #000000; stroke-width: 0.6"/>
      </g>
     </g>
    </g>
    <g id="ytick_72">
     <g id="line2d_90">
      <g>
       <use xlink:href="#m84a8637bac" x="386.928586" y="176.780097" style="stroke: #000000; stroke-width: 0.6"/>
      </g>
     </g>
    </g>
    <g id="ytick_73">
     <g id="line2d_91">
      <g>
       <use xlink:href="#m84a8637bac" x="386.928586" y="170.785268" style="stroke: #000000; stroke-width: 0.6"/>
      </g>
     </g>
    </g>
    <g id="ytick_74">
     <g id="line2d_92">
      <g>
       <use xlink:href="#m84a8637bac" x="386.928586" y="165.887136" style="stroke: #000000; stroke-width: 0.6"/>
      </g>
     </g>
    </g>
    <g id="ytick_75">
     <g id="line2d_93">
      <g>
       <use xlink:href="#m84a8637bac" x="386.928586" y="161.745825" style="stroke: #000000; stroke-width: 0.6"/>
      </g>
     </g>
    </g>
    <g id="ytick_76">
     <g id="line2d_94">
      <g>
       <use xlink:href="#m84a8637bac" x="386.928586" y="158.158458" style="stroke: #000000; stroke-width: 0.6"/>
      </g>
     </g>
    </g>
    <g id="ytick_77">
     <g id="line2d_95">
      <g>
       <use xlink:href="#m84a8637bac" x="386.928586" y="154.994175" style="stroke: #000000; stroke-width: 0.6"/>
      </g>
     </g>
    </g>
    <g id="ytick_78">
     <g id="line2d_96">
      <g>
       <use xlink:href="#m84a8637bac" x="386.928586" y="133.541989" style="stroke: #000000; stroke-width: 0.6"/>
      </g>
     </g>
    </g>
    <g id="ytick_79">
     <g id="line2d_97">
      <g>
       <use xlink:href="#m84a8637bac" x="386.928586" y="122.649028" style="stroke: #000000; stroke-width: 0.6"/>
      </g>
     </g>
    </g>
    <g id="ytick_80">
     <g id="line2d_98">
      <g>
       <use xlink:href="#m84a8637bac" x="386.928586" y="114.920349" style="stroke: #000000; stroke-width: 0.6"/>
      </g>
     </g>
    </g>
    <g id="ytick_81">
     <g id="line2d_99">
      <g>
       <use xlink:href="#m84a8637bac" x="386.928586" y="108.92552" style="stroke: #000000; stroke-width: 0.6"/>
      </g>
     </g>
    </g>
    <g id="ytick_82">
     <g id="line2d_100">
      <g>
       <use xlink:href="#m84a8637bac" x="386.928586" y="104.027388" style="stroke: #000000; stroke-width: 0.6"/>
      </g>
     </g>
    </g>
    <g id="ytick_83">
     <g id="line2d_101">
      <g>
       <use xlink:href="#m84a8637bac" x="386.928586" y="99.886077" style="stroke: #000000; stroke-width: 0.6"/>
      </g>
     </g>
    </g>
    <g id="ytick_84">
     <g id="line2d_102">
      <g>
       <use xlink:href="#m84a8637bac" x="386.928586" y="96.298709" style="stroke: #000000; stroke-width: 0.6"/>
      </g>
     </g>
    </g>
    <g id="ytick_85">
     <g id="line2d_103">
      <g>
       <use xlink:href="#m84a8637bac" x="386.928586" y="93.134427" style="stroke: #000000; stroke-width: 0.6"/>
      </g>
     </g>
    </g>
    <g id="ytick_86">
     <g id="line2d_104">
      <g>
       <use xlink:href="#m84a8637bac" x="386.928586" y="71.682241" style="stroke: #000000; stroke-width: 0.6"/>
      </g>
     </g>
    </g>
    <g id="ytick_87">
     <g id="line2d_105">
      <g>
       <use xlink:href="#m84a8637bac" x="386.928586" y="60.78928" style="stroke: #000000; stroke-width: 0.6"/>
      </g>
     </g>
    </g>
    <g id="ytick_88">
     <g id="line2d_106">
      <g>
       <use xlink:href="#m84a8637bac" x="386.928586" y="53.060601" style="stroke: #000000; stroke-width: 0.6"/>
      </g>
     </g>
    </g>
    <g id="ytick_89">
     <g id="line2d_107">
      <g>
       <use xlink:href="#m84a8637bac" x="386.928586" y="47.065772" style="stroke: #000000; stroke-width: 0.6"/>
      </g>
     </g>
    </g>
    <g id="ytick_90">
     <g id="line2d_108">
      <g>
       <use xlink:href="#m84a8637bac" x="386.928586" y="42.16764" style="stroke: #000000; stroke-width: 0.6"/>
      </g>
     </g>
    </g>
    <g id="ytick_91">
     <g id="line2d_109">
      <g>
       <use xlink:href="#m84a8637bac" x="386.928586" y="38.026328" style="stroke: #000000; stroke-width: 0.6"/>
      </g>
     </g>
    </g>
    <g id="ytick_92">
     <g id="line2d_110">
      <g>
       <use xlink:href="#m84a8637bac" x="386.928586" y="34.438961" style="stroke: #000000; stroke-width: 0.6"/>
      </g>
     </g>
    </g>
    <g id="ytick_93">
     <g id="line2d_111">
      <g>
       <use xlink:href="#m84a8637bac" x="386.928586" y="31.274679" style="stroke: #000000; stroke-width: 0.6"/>
      </g>
     </g>
    </g>
    <g id="text_35">
     <!-- $\|(I-XX^\top)A\|_F/\|A\|_F$ -->
     <g transform="translate(356.578586 204.134375) rotate(-90) scale(0.11 -0.11)">
      <defs>
       <path id="Cmsy10-6b" d="M 850 -1484 
L 850 4684 
Q 850 4734 890 4767 
Q 931 4800 978 4800 
Q 1031 4800 1068 4767 
Q 1106 4734 1106 4684 
L 1106 -1484 
Q 1106 -1534 1068 -1567 
Q 1031 -1600 978 -1600 
Q 931 -1600 890 -1567 
Q 850 -1534 850 -1484 
z
M 2094 -1484 
L 2094 4684 
Q 2094 4734 2131 4767 
Q 2169 4800 2222 4800 
Q 2269 4800 2309 4767 
Q 2350 4734 2350 4684 
L 2350 -1484 
Q 2350 -1534 2309 -1567 
Q 2269 -1600 2222 -1600 
Q 2169 -1600 2131 -1567 
Q 2094 -1534 2094 -1484 
z
" transform="scale(0.015625)"/>
       <path id="Cmr10-28" d="M 1984 -1588 
Q 1628 -1306 1370 -942 
Q 1113 -578 948 -165 
Q 784 247 703 697 
Q 622 1147 622 1600 
Q 622 2059 703 2509 
Q 784 2959 951 3375 
Q 1119 3791 1378 4153 
Q 1638 4516 1984 4788 
Q 1984 4800 2016 4800 
L 2075 4800 
Q 2094 4800 2109 4783 
Q 2125 4766 2125 4744 
Q 2125 4716 2113 4703 
Q 1800 4397 1592 4047 
Q 1384 3697 1257 3301 
Q 1131 2906 1075 2482 
Q 1019 2059 1019 1600 
Q 1019 -434 2106 -1491 
Q 2125 -1509 2125 -1544 
Q 2125 -1559 2108 -1579 
Q 2091 -1600 2075 -1600 
L 2016 -1600 
Q 1984 -1600 1984 -1588 
z
" transform="scale(0.015625)"/>
       <path id="Cmmi10-49" d="M 269 0 
Q 206 0 206 84 
Q 231 225 288 225 
Q 666 225 800 250 
Q 947 284 984 441 
L 1863 3956 
Q 1875 4019 1875 4038 
Q 1875 4078 1854 4095 
Q 1834 4113 1791 4122 
Q 1663 4147 1306 4147 
Q 1241 4147 1241 4231 
Q 1263 4313 1275 4342 
Q 1288 4372 1350 4372 
L 3138 4372 
Q 3200 4372 3200 4288 
Q 3197 4272 3187 4234 
Q 3178 4197 3162 4172 
Q 3147 4147 3116 4147 
Q 2741 4147 2597 4122 
Q 2456 4088 2419 3928 
L 1544 416 
Q 1528 338 1528 331 
Q 1528 316 1533 302 
Q 1538 288 1552 277 
Q 1566 266 1580 261 
Q 1594 256 1613 250 
Q 1734 225 2100 225 
Q 2163 225 2163 141 
Q 2141 50 2128 25 
Q 2116 0 2053 0 
L 269 0 
z
" transform="scale(0.015625)"/>
       <path id="Cmsy10-a1" d="M 653 1472 
Q 600 1472 565 1512 
Q 531 1553 531 1600 
Q 531 1647 565 1687 
Q 600 1728 653 1728 
L 4325 1728 
Q 4375 1728 4408 1687 
Q 4441 1647 4441 1600 
Q 4441 1553 4408 1512 
Q 4375 1472 4325 1472 
L 653 1472 
z
" transform="scale(0.015625)"/>
       <path id="Cmmi10-58" d="M 231 0 
Q 166 0 166 84 
Q 169 100 180 140 
Q 191 181 208 203 
Q 225 225 256 225 
Q 838 225 1253 659 
Q 1259 666 1267 669 
Q 1275 672 1275 672 
L 2675 2181 
L 1913 4019 
Q 1847 4103 1700 4125 
Q 1553 4147 1356 4147 
Q 1294 4147 1294 4231 
Q 1316 4313 1328 4342 
Q 1341 4372 1403 4372 
L 3003 4372 
Q 3066 4372 3066 4288 
Q 3063 4272 3052 4231 
Q 3041 4191 3023 4169 
Q 3006 4147 2975 4147 
Q 2856 4147 2729 4108 
Q 2603 4069 2553 3981 
L 3103 2656 
L 4153 3781 
Q 4163 3803 4197 3858 
Q 4231 3913 4231 3963 
Q 4231 4056 4150 4101 
Q 4069 4147 3956 4147 
Q 3891 4147 3891 4231 
Q 3913 4313 3925 4342 
Q 3938 4372 4000 4372 
L 5388 4372 
Q 5422 4372 5437 4347 
Q 5453 4322 5453 4288 
Q 5450 4272 5440 4234 
Q 5431 4197 5415 4172 
Q 5400 4147 5369 4147 
Q 5072 4147 4823 4039 
Q 4575 3931 4366 3713 
Q 4363 3709 4358 3707 
Q 4353 3706 4347 3700 
L 3188 2450 
L 4063 353 
Q 4166 225 4622 225 
Q 4684 225 4684 141 
Q 4663 56 4648 28 
Q 4634 0 4575 0 
L 2975 0 
Q 2913 0 2913 84 
Q 2916 100 2925 139 
Q 2934 178 2951 201 
Q 2969 225 2994 225 
Q 3119 225 3247 264 
Q 3375 303 3425 391 
L 2759 1984 
L 1466 588 
Q 1456 566 1422 512 
Q 1388 459 1388 409 
Q 1388 316 1475 270 
Q 1563 225 1663 225 
Q 1728 225 1728 141 
Q 1706 50 1693 25 
Q 1681 0 1619 0 
L 231 0 
z
" transform="scale(0.015625)"/>
       <path id="Cmsy10-3e" d="M 2363 122 
L 2363 4006 
L 481 4006 
Q 428 4006 393 4047 
Q 359 4088 359 4134 
Q 359 4181 393 4222 
Q 428 4263 481 4263 
L 4506 4263 
Q 4553 4263 4587 4222 
Q 4622 4181 4622 4134 
Q 4622 4088 4587 4047 
Q 4553 4006 4506 4006 
L 2619 4006 
L 2619 122 
Q 2619 69 2578 34 
Q 2538 0 2491 0 
Q 2438 0 2400 34 
Q 2363 69 2363 122 
z
" transform="scale(0.015625)"/>
       <path id="Cmr10-29" d="M 416 -1600 
Q 359 -1600 359 -1544 
Q 359 -1516 372 -1503 
Q 1466 -434 1466 1600 
Q 1466 3634 384 4691 
Q 359 4706 359 4744 
Q 359 4766 376 4783 
Q 394 4800 416 4800 
L 475 4800 
Q 494 4800 506 4788 
Q 966 4425 1272 3906 
Q 1578 3388 1720 2800 
Q 1863 2213 1863 1600 
Q 1863 1147 1786 708 
Q 1709 269 1542 -157 
Q 1375 -584 1119 -945 
Q 863 -1306 506 -1588 
Q 494 -1600 475 -1600 
L 416 -1600 
z
" transform="scale(0.015625)"/>
       <path id="Cmmi10-41" d="M 288 0 
Q 225 0 225 84 
Q 250 225 306 225 
Q 566 225 755 328 
Q 944 431 1081 647 
Q 1094 659 1094 659 
L 3378 4513 
Q 3428 4581 3500 4581 
L 3584 4581 
Q 3603 4581 3622 4573 
Q 3641 4566 3655 4548 
Q 3669 4531 3669 4513 
L 4056 378 
Q 4056 350 4084 294 
Q 4147 225 4563 225 
Q 4628 225 4628 141 
Q 4606 56 4592 28 
Q 4578 0 4519 0 
L 2919 0 
Q 2859 0 2859 84 
Q 2894 225 2944 225 
Q 3450 225 3481 397 
L 3384 1453 
L 1806 1453 
L 1294 594 
Q 1247 525 1247 434 
Q 1247 322 1355 273 
Q 1463 225 1594 225 
Q 1656 225 1656 141 
Q 1634 50 1621 25 
Q 1609 0 1550 0 
L 288 0 
z
M 1931 1678 
L 3359 1678 
L 3169 3750 
L 1931 1678 
z
" transform="scale(0.015625)"/>
       <path id="Cmmi10-46" d="M 300 0 
Q 238 0 238 84 
Q 241 100 250 139 
Q 259 178 276 201 
Q 294 225 319 225 
Q 709 225 863 269 
Q 947 297 984 441 
L 1863 3956 
Q 1875 4019 1875 4044 
Q 1875 4113 1797 4122 
Q 1678 4147 1338 4147 
Q 1275 4147 1275 4231 
Q 1278 4247 1287 4286 
Q 1297 4325 1314 4348 
Q 1331 4372 1356 4372 
L 4738 4372 
Q 4800 4372 4800 4288 
L 4647 2963 
Q 4647 2944 4625 2925 
Q 4603 2906 4581 2906 
L 4525 2906 
Q 4459 2906 4459 2988 
Q 4500 3278 4500 3463 
Q 4500 3781 4362 3931 
Q 4225 4081 4015 4114 
Q 3806 4147 3438 4147 
L 2753 4147 
Q 2578 4147 2522 4117 
Q 2466 4088 2419 3928 
L 2009 2297 
L 2491 2297 
Q 2728 2297 2875 2322 
Q 3022 2347 3119 2419 
Q 3216 2491 3280 2627 
Q 3344 2763 3397 2988 
Q 3416 3047 3463 3047 
L 3519 3047 
Q 3584 3047 3584 2963 
L 3194 1381 
Q 3166 1325 3128 1325 
L 3072 1325 
Q 3009 1325 3009 1409 
Q 3025 1475 3034 1519 
Q 3044 1563 3058 1645 
Q 3072 1728 3072 1791 
Q 3072 1975 2909 2025 
Q 2747 2075 2484 2075 
L 1959 2075 
L 1544 416 
Q 1528 353 1528 353 
Q 1528 278 1575 269 
Q 1741 225 2228 225 
Q 2291 225 2291 141 
Q 2269 50 2256 25 
Q 2244 0 2181 0 
L 300 0 
z
" transform="scale(0.015625)"/>
       <path id="Cmmi10-3d" d="M 359 -1472 
Q 359 -1453 366 -1447 
L 2591 4722 
Q 2603 4759 2634 4779 
Q 2666 4800 2706 4800 
Q 2763 4800 2798 4765 
Q 2834 4731 2834 4672 
L 2834 4647 
L 609 -1522 
Q 572 -1600 488 -1600 
Q 434 -1600 396 -1562 
Q 359 -1525 359 -1472 
z
" transform="scale(0.015625)"/>
      </defs>
      <use xlink:href="#Cmsy10-6b" transform="translate(0 0.109375)"/>
      <use xlink:href="#Cmr10-28" transform="translate(50 0.109375)"/>
      <use xlink:href="#Cmmi10-49" transform="translate(88.818359 0.109375)"/>
      <use xlink:href="#Cmsy10-a1" transform="translate(150.273438 0.109375)"/>
      <use xlink:href="#Cmmi10-58" transform="translate(245.517578 0.109375)"/>
      <use xlink:href="#Cmmi10-58" transform="translate(328.330078 0.109375)"/>
      <use xlink:href="#Cmsy10-3e" transform="translate(434.803125 38.373438) scale(0.7)"/>
      <use xlink:href="#Cmr10-29" transform="translate(507.851367 0.109375)"/>
      <use xlink:href="#Cmmi10-41" transform="translate(546.669727 0.109375)"/>
      <use xlink:href="#Cmsy10-6b" transform="translate(621.669727 0.109375)"/>
      <use xlink:href="#Cmmi10-46" transform="translate(676.133867 -16.896875) scale(0.7)"/>
      <use xlink:href="#Cmmi10-3d" transform="translate(727.525859 0.109375)"/>
      <use xlink:href="#Cmsy10-6b" transform="translate(777.525859 0.109375)"/>
      <use xlink:href="#Cmmi10-41" transform="translate(827.525859 0.109375)"/>
      <use xlink:href="#Cmsy10-6b" transform="translate(902.525859 0.109375)"/>
      <use xlink:href="#Cmmi10-46" transform="translate(956.99 -16.896875) scale(0.7)"/>
     </g>
    </g>
   </g>
   <g id="patch_6">
    <path d="M 386.928586 275.883125 
L 386.928586 21.395625 
" style="fill: none; stroke: #1f2328; stroke-width: 0.8; stroke-linejoin: miter; stroke-linecap: square"/>
   </g>
   <g id="patch_7">
    <path d="M 386.928586 275.883125 
L 672.102675 275.883125 
" style="fill: none; stroke: #1f2328; stroke-width: 0.8; stroke-linejoin: miter; stroke-linecap: square"/>
   </g>
   <g id="line2d_112">
    <path d="M 386.928586 156.36839 
L 672.102675 156.36839 
" clip-path="url(#p46efdff140)" style="fill: none; stroke-dasharray: 3.7,1.6; stroke-dashoffset: 0; stroke: #d55e00; stroke-opacity: 0.7"/>
   </g>
   <g id="line2d_113">
    <path d="M 386.928586 58.816077 
L 672.102675 58.816077 
" clip-path="url(#p46efdff140)" style="fill: none; stroke-dasharray: 3.7,1.6; stroke-dashoffset: 0; stroke: #0072b2; stroke-opacity: 0.7"/>
   </g>
   <g id="text_36">
    <!-- bound $\sqrt{2\sum_{i&gt;k}\sigma_i^2}$ -->
    <g style="fill: #d55e00" transform="translate(479.610165 139.27675) scale(0.09 -0.09)">
     <defs>
      <path id="STIXGeneral-Regular-62" d="M 979 4358 
L 979 2406 
Q 1082 2650 1315 2797 
Q 1549 2944 1843 2944 
Q 2349 2944 2672 2541 
Q 2995 2138 2995 1536 
Q 2995 832 2566 384 
Q 2138 -64 1498 -64 
Q 1107 -64 774 67 
Q 442 198 442 358 
L 442 3622 
Q 442 3859 384 3926 
Q 326 3994 128 3994 
Q 83 3994 19 3981 
L 19 4090 
L 211 4147 
Q 864 4346 947 4371 
L 979 4358 
z
M 979 2035 
L 979 474 
Q 979 326 1161 233 
Q 1344 141 1600 141 
Q 1978 141 2195 416 
Q 2432 710 2432 1261 
Q 2432 1888 2182 2240 
Q 1971 2541 1613 2541 
Q 1357 2541 1168 2390 
Q 979 2240 979 2035 
z
" transform="scale(0.015625)"/>
      <path id="Cmex10-72" d="M 2713 -15103 
L 1253 -8306 
L 819 -8984 
L 703 -8872 
L 1619 -7425 
L 2988 -13791 
L 6278 159 
Q 6300 256 6400 256 
Q 6453 256 6490 218 
Q 6528 181 6528 128 
L 6528 103 
L 2969 -15009 
Q 2941 -15103 2853 -15103 
L 2713 -15103 
z
" transform="scale(0.015625)"/>
      <path id="Cmr10-32" d="M 319 0 
L 319 172 
Q 319 188 331 206 
L 1325 1306 
Q 1550 1550 1690 1715 
Q 1831 1881 1968 2097 
Q 2106 2313 2186 2536 
Q 2266 2759 2266 3009 
Q 2266 3272 2169 3511 
Q 2072 3750 1880 3894 
Q 1688 4038 1416 4038 
Q 1138 4038 916 3870 
Q 694 3703 603 3438 
Q 628 3444 672 3444 
Q 816 3444 917 3347 
Q 1019 3250 1019 3097 
Q 1019 2950 917 2848 
Q 816 2747 672 2747 
Q 522 2747 420 2851 
Q 319 2956 319 3097 
Q 319 3338 409 3548 
Q 500 3759 670 3923 
Q 841 4088 1055 4175 
Q 1269 4263 1509 4263 
Q 1875 4263 2190 4108 
Q 2506 3953 2690 3670 
Q 2875 3388 2875 3009 
Q 2875 2731 2753 2481 
Q 2631 2231 2440 2026 
Q 2250 1822 1953 1562 
Q 1656 1303 1563 1216 
L 838 519 
L 1453 519 
Q 1906 519 2211 526 
Q 2516 534 2534 550 
Q 2609 631 2688 1141 
L 2875 1141 
L 2694 0 
L 319 0 
z
" transform="scale(0.015625)"/>
      <path id="Cmex10-58" d="M 422 -8959 
Q 359 -8959 359 -8891 
Q 359 -8863 378 -8844 
L 3756 -4909 
L 378 -281 
Q 359 -263 359 -250 
L 359 -56 
Q 359 -34 379 -17 
Q 400 0 422 0 
L 8103 0 
L 8878 -1797 
L 8691 -1797 
Q 8394 -1116 7697 -787 
Q 7000 -459 6242 -382 
Q 5484 -306 4481 -306 
L 1522 -306 
L 4544 -4434 
Q 4556 -4459 4556 -4481 
Q 4556 -4500 4544 -4525 
L 1222 -8391 
L 4544 -8391 
Q 5528 -8391 6289 -8314 
Q 7050 -8238 7739 -7908 
Q 8428 -7578 8691 -6900 
L 8878 -6900 
L 8103 -8959 
L 422 -8959 
z
" transform="scale(0.015625)"/>
      <path id="Cmmi10-3e" d="M 531 -128 
Q 531 -47 616 -6 
L 4013 1600 
L 594 3219 
Q 531 3238 531 3328 
Q 531 3372 567 3414 
Q 603 3456 659 3456 
Q 672 3456 709 3444 
L 4384 1709 
Q 4441 1681 4441 1600 
Q 4441 1516 4366 1484 
L 709 -244 
Q 672 -256 659 -256 
Q 603 -256 567 -214 
Q 531 -172 531 -128 
z
" transform="scale(0.015625)"/>
     </defs>
     <use xlink:href="#STIXGeneral-Regular-62" transform="translate(0 0.438542)"/>
     <use xlink:href="#STIXGeneral-Regular-6f" transform="translate(49.999985 0.438542)"/>
     <use xlink:href="#STIXGeneral-Regular-75" transform="translate(99.999969 0.438542)"/>
     <use xlink:href="#STIXGeneral-Regular-6e" transform="translate(149.999954 0.438542)"/>
     <use xlink:href="#STIXGeneral-Regular-64" transform="translate(199.999939 0.438542)"/>
     <use xlink:href="#STIXGeneral-Regular-20" transform="translate(249.999924 0.438542)"/>
     <use xlink:href="#Cmex10-72" transform="translate(274.999908 130.96875) scale(1.005723)"/>
     <use xlink:href="#Cmr10-32" transform="translate(388.062408 0.424479)"/>
     <use xlink:href="#Cmex10-58" transform="translate(441.062408 103.75)"/>
     <use xlink:href="#Cmmi10-69" transform="translate(438.062408 -103.557813) scale(0.7)"/>
     <use xlink:href="#Cmmi10-3e" transform="translate(474.450104 -103.557813) scale(0.7)"/>
     <use xlink:href="#Cmmi10-6b" transform="translate(541.121002 -103.557813) scale(0.7)"/>
     <use xlink:href="#Cmmi10-be" transform="translate(577.522369 0.424479)"/>
     <use xlink:href="#Cmr10-32" transform="translate(640.679323 38.688542) scale(0.7)"/>
     <use xlink:href="#Cmmi10-69" transform="translate(634.602448 -25.084896) scale(0.7)"/>
     <path d="M 375.562408 128.5 
L 375.562408 134.75 
L 694.556666 134.75 
L 694.556666 128.5 
L 375.562408 128.5 
z
"/>
    </g>
   </g>
   <g id="text_37">
    <!-- slow: lags -->
    <g style="fill: #0072b2" transform="translate(529.51563 64.284221) scale(0.095 -0.095)">
     <defs>
      <path id="STIXGeneral-Regular-3a" d="M 1123 2832 
Q 1229 2726 1229 2579 
Q 1229 2432 1126 2329 
Q 1024 2227 877 2227 
Q 730 2227 624 2332 
Q 518 2438 518 2579 
Q 518 2733 620 2835 
Q 723 2938 877 2938 
Q 1018 2938 1123 2832 
z
M 1229 282 
Q 1229 141 1126 35 
Q 1024 -70 877 -70 
Q 730 -70 624 35 
Q 518 141 518 282 
Q 518 435 620 537 
Q 723 640 877 640 
Q 1018 640 1123 534 
Q 1229 429 1229 282 
z
" transform="scale(0.015625)"/>
     </defs>
     <use xlink:href="#STIXGeneral-Regular-73"/>
     <use xlink:href="#STIXGeneral-Regular-6c" x="38.899994"/>
     <use xlink:href="#STIXGeneral-Regular-6f" x="66.699982"/>
     <use xlink:href="#STIXGeneral-Regular-77" x="116.699966"/>
     <use xlink:href="#STIXGeneral-Regular-3a" x="188.899948"/>
     <use xlink:href="#STIXGeneral-Regular-20" x="216.699936"/>
     <use xlink:href="#STIXGeneral-Regular-6c" x="241.699921"/>
     <use xlink:href="#STIXGeneral-Regular-61" x="269.499908"/>
     <use xlink:href="#STIXGeneral-Regular-67" x="313.899902"/>
     <use xlink:href="#STIXGeneral-Regular-73" x="363.899887"/>
    </g>
   </g>
   <g id="text_38">
    <!-- Residual vs oversampling -->
    <g transform="translate(467.515943 15.395625) scale(0.12 -0.12)">
     <defs>
      <path id="STIXGeneral-Regular-52" d="M 4224 0 
L 3187 0 
L 1664 1971 
L 1306 1958 
L 1306 717 
Q 1306 352 1405 249 
Q 1504 147 1875 122 
L 1875 0 
L 109 0 
L 109 122 
Q 474 154 563 262 
Q 653 371 653 794 
L 653 3526 
Q 653 3885 563 3987 
Q 474 4090 109 4115 
L 109 4237 
L 1850 4237 
Q 2726 4237 3187 3859 
Q 3501 3603 3501 3091 
Q 3501 2221 2342 2042 
L 3622 422 
Q 3757 256 3878 198 
Q 4000 141 4224 122 
L 4224 0 
z
M 1306 3731 
L 1306 2195 
Q 1766 2202 1990 2246 
Q 2214 2291 2438 2413 
Q 2803 2618 2803 3142 
Q 2803 4000 1632 4000 
Q 1459 4000 1382 3945 
Q 1306 3891 1306 3731 
z
" transform="scale(0.015625)"/>
     </defs>
     <use xlink:href="#STIXGeneral-Regular-52"/>
     <use xlink:href="#STIXGeneral-Regular-65" x="66.699997"/>
     <use xlink:href="#STIXGeneral-Regular-73" x="111.099991"/>
     <use xlink:href="#STIXGeneral-Regular-69" x="149.999985"/>
     <use xlink:href="#STIXGeneral-Regular-64" x="177.799973"/>
     <use xlink:href="#STIXGeneral-Regular-75" x="227.799957"/>
     <use xlink:href="#STIXGeneral-Regular-61" x="277.799942"/>
     <use xlink:href="#STIXGeneral-Regular-6c" x="322.199936"/>
     <use xlink:href="#STIXGeneral-Regular-20" x="349.999924"/>
     <use xlink:href="#STIXGeneral-Regular-76" x="374.999908"/>
     <use xlink:href="#STIXGeneral-Regular-73" x="424.999893"/>
     <use xlink:href="#STIXGeneral-Regular-20" x="463.899887"/>
     <use xlink:href="#STIXGeneral-Regular-6f" x="488.899872"/>
     <use xlink:href="#STIXGeneral-Regular-76" x="538.899857"/>
     <use xlink:href="#STIXGeneral-Regular-65" x="588.899841"/>
     <use xlink:href="#STIXGeneral-Regular-72" x="633.299835"/>
     <use xlink:href="#STIXGeneral-Regular-73" x="666.599823"/>
     <use xlink:href="#STIXGeneral-Regular-61" x="705.499817"/>
     <use xlink:href="#STIXGeneral-Regular-6d" x="749.899811"/>
     <use xlink:href="#STIXGeneral-Regular-70" x="827.699799"/>
     <use xlink:href="#STIXGeneral-Regular-6c" x="877.699783"/>
     <use xlink:href="#STIXGeneral-Regular-69" x="905.499771"/>
     <use xlink:href="#STIXGeneral-Regular-6e" x="933.299759"/>
     <use xlink:href="#STIXGeneral-Regular-67" x="983.299744"/>
    </g>
   </g>
   <g id="line2d_114">
    <path d="M 386.928586 128.912744 
L 401.18729 151.710813 
L 415.445995 182.009717 
L 429.704699 211.229492 
L 443.963404 235.952708 
L 458.222108 260.34884 
L 472.480813 282.134586 
L 486.739517 308.426585 
L 489.917194 315.223125 
" clip-path="url(#p46efdff140)" style="fill: none; stroke: #d55e00; stroke-width: 1.5; stroke-linecap: square"/>
    <defs>
     <path id="m1df4bea4dc" d="M 0 1.75 
C 0.464105 1.75 0.909265 1.565609 1.237437 1.237437 
C 1.565609 0.909265 1.75 0.464105 1.75 0 
C 1.75 -0.464105 1.565609 -0.909265 1.237437 -1.237437 
C 0.909265 -1.565609 0.464105 -1.75 0 -1.75 
C -0.464105 -1.75 -0.909265 -1.565609 -1.237437 -1.237437 
C -1.565609 -0.909265 -1.75 -0.464105 -1.75 0 
C -1.75 0.464105 -1.565609 0.909265 -1.237437 1.237437 
C -0.909265 1.565609 -0.464105 1.75 0 1.75 
z
" style="stroke: #d55e00"/>
    </defs>
    <g clip-path="url(#p46efdff140)">
     <use xlink:href="#m1df4bea4dc" x="386.928586" y="128.912744" style="fill: #d55e00; stroke: #d55e00"/>
     <use xlink:href="#m1df4bea4dc" x="401.18729" y="151.710813" style="fill: #d55e00; stroke: #d55e00"/>
     <use xlink:href="#m1df4bea4dc" x="415.445995" y="182.009717" style="fill: #d55e00; stroke: #d55e00"/>
     <use xlink:href="#m1df4bea4dc" x="429.704699" y="211.229492" style="fill: #d55e00; stroke: #d55e00"/>
     <use xlink:href="#m1df4bea4dc" x="443.963404" y="235.952708" style="fill: #d55e00; stroke: #d55e00"/>
     <use xlink:href="#m1df4bea4dc" x="458.222108" y="260.34884" style="fill: #d55e00; stroke: #d55e00"/>
     <use xlink:href="#m1df4bea4dc" x="472.480813" y="282.134586" style="fill: #d55e00; stroke: #d55e00"/>
     <use xlink:href="#m1df4bea4dc" x="486.739517" y="308.426585" style="fill: #d55e00; stroke: #d55e00"/>
     <use xlink:href="#m1df4bea4dc" x="500.998222" y="338.923656" style="fill: #d55e00; stroke: #d55e00"/>
     <use xlink:href="#m1df4bea4dc" x="515.256926" y="367.193444" style="fill: #d55e00; stroke: #d55e00"/>
     <use xlink:href="#m1df4bea4dc" x="529.51563" y="392.650739" style="fill: #d55e00; stroke: #d55e00"/>
     <use xlink:href="#m1df4bea4dc" x="543.774335" y="418.203892" style="fill: #d55e00; stroke: #d55e00"/>
     <use xlink:href="#m1df4bea4dc" x="558.033039" y="443.743653" style="fill: #d55e00; stroke: #d55e00"/>
     <use xlink:href="#m1df4bea4dc" x="572.291744" y="467.762384" style="fill: #d55e00; stroke: #d55e00"/>
     <use xlink:href="#m1df4bea4dc" x="586.550448" y="497.207524" style="fill: #d55e00; stroke: #d55e00"/>
     <use xlink:href="#m1df4bea4dc" x="600.809153" y="524.547994" style="fill: #d55e00; stroke: #d55e00"/>
     <use xlink:href="#m1df4bea4dc" x="615.067857" y="551.045315" style="fill: #d55e00; stroke: #d55e00"/>
     <use xlink:href="#m1df4bea4dc" x="629.326562" y="573.443199" style="fill: #d55e00; stroke: #d55e00"/>
     <use xlink:href="#m1df4bea4dc" x="643.585266" y="604.298098" style="fill: #d55e00; stroke: #d55e00"/>
     <use xlink:href="#m1df4bea4dc" x="657.843971" y="631.20649" style="fill: #d55e00; stroke: #d55e00"/>
     <use xlink:href="#m1df4bea4dc" x="672.102675" y="658.263646" style="fill: #d55e00; stroke: #d55e00"/>
    </g>
   </g>
   <g id="line2d_115">
    <path d="M 386.928586 55.449583 
L 401.18729 58.651459 
L 415.445995 60.875522 
L 429.704699 62.835713 
L 443.963404 64.672734 
L 458.222108 65.83145 
L 472.480813 67.781841 
L 486.739517 68.910238 
L 500.998222 70.420507 
L 515.256926 71.47317 
L 529.51563 72.968432 
L 543.774335 74.182422 
L 558.033039 75.358109 
L 572.291744 76.075327 
L 586.550448 77.46359 
L 600.809153 78.682563 
L 615.067857 79.492546 
L 629.326562 80.685604 
L 643.585266 81.746687 
L 657.843971 82.455763 
L 672.102675 83.791753 
" clip-path="url(#p46efdff140)" style="fill: none; stroke: #0072b2; stroke-width: 1.5; stroke-linecap: square"/>
    <defs>
     <path id="mc83c6a0c67" d="M -1.75 1.75 
L 1.75 1.75 
L 1.75 -1.75 
L -1.75 -1.75 
z
" style="stroke: #0072b2; stroke-linejoin: miter"/>
    </defs>
    <g clip-path="url(#p46efdff140)">
     <use xlink:href="#mc83c6a0c67" x="386.928586" y="55.449583" style="fill: #0072b2; stroke: #0072b2; stroke-linejoin: miter"/>
     <use xlink:href="#mc83c6a0c67" x="401.18729" y="58.651459" style="fill: #0072b2; stroke: #0072b2; stroke-linejoin: miter"/>
     <use xlink:href="#mc83c6a0c67" x="415.445995" y="60.875522" style="fill: #0072b2; stroke: #0072b2; stroke-linejoin: miter"/>
     <use xlink:href="#mc83c6a0c67" x="429.704699" y="62.835713" style="fill: #0072b2; stroke: #0072b2; stroke-linejoin: miter"/>
     <use xlink:href="#mc83c6a0c67" x="443.963404" y="64.672734" style="fill: #0072b2; stroke: #0072b2; stroke-linejoin: miter"/>
     <use xlink:href="#mc83c6a0c67" x="458.222108" y="65.83145" style="fill: #0072b2; stroke: #0072b2; stroke-linejoin: miter"/>
     <use xlink:href="#mc83c6a0c67" x="472.480813" y="67.781841" style="fill: #0072b2; stroke: #0072b2; stroke-linejoin: miter"/>
     <use xlink:href="#mc83c6a0c67" x="486.739517" y="68.910238" style="fill: #0072b2; stroke: #0072b2; stroke-linejoin: miter"/>
     <use xlink:href="#mc83c6a0c67" x="500.998222" y="70.420507" style="fill: #0072b2; stroke: #0072b2; stroke-linejoin: miter"/>
     <use xlink:href="#mc83c6a0c67" x="515.256926" y="71.47317" style="fill: #0072b2; stroke: #0072b2; stroke-linejoin: miter"/>
     <use xlink:href="#mc83c6a0c67" x="529.51563" y="72.968432" style="fill: #0072b2; stroke: #0072b2; stroke-linejoin: miter"/>
     <use xlink:href="#mc83c6a0c67" x="543.774335" y="74.182422" style="fill: #0072b2; stroke: #0072b2; stroke-linejoin: miter"/>
     <use xlink:href="#mc83c6a0c67" x="558.033039" y="75.358109" style="fill: #0072b2; stroke: #0072b2; stroke-linejoin: miter"/>
     <use xlink:href="#mc83c6a0c67" x="572.291744" y="76.075327" style="fill: #0072b2; stroke: #0072b2; stroke-linejoin: miter"/>
     <use xlink:href="#mc83c6a0c67" x="586.550448" y="77.46359" style="fill: #0072b2; stroke: #0072b2; stroke-linejoin: miter"/>
     <use xlink:href="#mc83c6a0c67" x="600.809153" y="78.682563" style="fill: #0072b2; stroke: #0072b2; stroke-linejoin: miter"/>
     <use xlink:href="#mc83c6a0c67" x="615.067857" y="79.492546" style="fill: #0072b2; stroke: #0072b2; stroke-linejoin: miter"/>
     <use xlink:href="#mc83c6a0c67" x="629.326562" y="80.685604" style="fill: #0072b2; stroke: #0072b2; stroke-linejoin: miter"/>
     <use xlink:href="#mc83c6a0c67" x="643.585266" y="81.746687" style="fill: #0072b2; stroke: #0072b2; stroke-linejoin: miter"/>
     <use xlink:href="#mc83c6a0c67" x="657.843971" y="82.455763" style="fill: #0072b2; stroke: #0072b2; stroke-linejoin: miter"/>
     <use xlink:href="#mc83c6a0c67" x="672.102675" y="83.791753" style="fill: #0072b2; stroke: #0072b2; stroke-linejoin: miter"/>
    </g>
   </g>
  </g>
 </g>
 <defs>
  <clipPath id="p4b72c6b5af">
   <rect x="44.7" y="21.395625" width="285.174089" height="254.4875"/>
  </clipPath>
  <clipPath id="p46efdff140">
   <rect x="386.928586" y="21.395625" width="285.174089" height="254.4875"/>
  </clipPath>
 </defs>
</svg>
